<?xml version="1.0" encoding="utf-8"?>
<!-- Generator: Adobe Illustrator 24.1.2, SVG Export Plug-In . SVG Version: 6.00 Build 0)  -->
<svg version="1.1" id="レイヤー_1" xmlns="http://www.w3.org/2000/svg" xmlns:xlink="http://www.w3.org/1999/xlink" x="0px"
	 y="0px" viewBox="0 0 1000 1000" style="enable-background:new 0 0 1000 1000;" xml:space="preserve">
<style type="text/css">
	.st0{fill:#FFFFFF;}
	.st1{fill:#FFFFFF;stroke:#000000;stroke-miterlimit:10;}
</style>
<g id="background">
	<g id="backgound">
		<rect x="-49.5" y="-49.5" class="st0" width="1099" height="1099"/>
		<path d="M1049-49v1098H-49V-49H1049 M1050-50H-50v1100h1100V-50L1050-50z"/>
	</g>
</g>
<ellipse id="leftfoot" cx="664.9" cy="908.8" rx="132.7" ry="40.7"/>
<ellipse id="rightfoot" cx="329" cy="918.6" rx="132.7" ry="40.7"/>
<ellipse id="righthand" transform="matrix(0.906 -0.4232 0.4232 0.906 -133.6996 348.0608)" class="st1" cx="717" cy="475.1" rx="91.3" ry="233.1"/>
<ellipse id="lefthand" transform="matrix(0.4232 -0.906 0.906 0.4232 -295.3903 503.1096)" class="st1" cx="247.4" cy="483.5" rx="233.1" ry="91.3"/>
<path id="body" class="st1" d="M610.6,270.2c-7.3-17-17.9-43.5-28.5-77c-15.6-49.6-14.9-63.7-30.1-87.7
	C545.4,95,515.1,47,473.5,48.5C447.2,49.4,429,69.8,412,88.9c-35.3,39.5-44.8,85-51.4,118.5c-5.7,29-6.8,53.5-6.7,70.1
	C329.6,299.1,228,394.3,210.3,555.4c-17.7,161.6,61.5,276.8,80.4,302.9c27.6,18.1,98.8,59.5,198.6,60.2
	c91.9,0.7,159.3-33.5,188-50.4c16.9-20.1,114-139.8,94.8-313.2C752.8,381.6,631.4,286.1,610.6,270.2z"/>
<g id="eyes">
	<circle class="st1" cx="399.9" cy="213.4" r="47"/>
	<circle class="st1" cx="552.4" cy="213.4" r="47"/>
</g>
<path id="nose" class="st1" d="M585,374.1c50.3,91.2,80.1,117.6,66.8,145.8c-15.7,33.5-75.9,35.1-161.8,37.5
	c-89.6,2.5-150.1,4.1-168.1-28.8c-15.4-28.4,14.6-56.9,68-166.8c61.2-126.2,65.3-178.8,91.4-179.2
	C509.9,182.1,513.7,244.7,585,374.1z"/>
</svg>
