<?xml version="1.0" encoding="utf-8"?>
<!-- Generator: Adobe Illustrator 24.1.2, SVG Export Plug-In . SVG Version: 6.00 Build 0)  -->
<svg version="1.1" id="レイヤー_1" xmlns="http://www.w3.org/2000/svg" xmlns:xlink="http://www.w3.org/1999/xlink" x="0px"
	 y="0px" viewBox="0 0 1000 1000" style="enable-background:new 0 0 1000 1000;" xml:space="preserve">
<style type="text/css">
	.st0{fill:#FFFFFF;}
</style>
<g id="background">
	<g id="backgound">
		<rect x="-49.5" y="-49.5" class="st0" width="1099" height="1099"/>
		<path d="M1049-49v1098H-49V-49H1049 M1050-50H-50v1100h1100V-50L1050-50z"/>
	</g>
</g>
<g id="レイヤー_5_1_">
	<path id="leftfoot" d="M729.1,645c10.7,39.4,20.1,93.1,16.5,156.4c-1.5,27.2-5.3,51.9-9.9,73.6c19.5,14.3,22,22.2,20.7,26.8
		c-3.1,11.1-30.3,9.3-108.3,11.8c-64.7,2.1-95.5,5-100.1-7.4c-2.1-5.6,2-12.3,6-17.4c-1.3-5.4-2.5-10.9-3.6-16.6
		c-2-10-3.7-19.8-5.1-29.1c31.7-25.4,66.8-57,102.4-95.8C680.7,711.4,707.5,676.5,729.1,645z"/>
	<path class="st0" d="M557.1,856.3c-0.3,2.9-0.5,6.2-0.2,10c0.6,8.2,2.8,14.7,4.9,19.2c2.3-2.2,5.7-4.9,10.3-7.1
		c8.1-3.9,15.5-4.1,19.6-3.9c-4.9,0.7-16,2.9-26.3,11.9c-5.6,4.9-13.6,12-12.2,17.1c2.6,9.3,34.9,5.5,91.8,4
		c70.2-1.8,101.4,1.9,103.9-8c2-8.1-16.4-19.2-20.1-21.4c-27.5-16.5-59.2-11.8-57.6-12.2c7.3-1.8,19.5-3.8,34.2-1.2
		c9.3,1.7,16.8,4.8,22.2,7.5c3-24.1,5.1-50.5,5.7-78.8c1-47-2.4-89.4-7.5-125.9C669.6,730.5,613.4,793.4,557.1,856.3z"/>
</g>
<g id="レイヤー_4_1_">
	<path id="rightfoot_2_" d="M249.4,617.6c18.7,35.5,44.3,77.3,79.2,120.9c34.8,43.5,69.9,77.7,100.3,103.7
		c0.3,6.1,0.5,12.6,0.4,19.5c-0.1,8.4-0.5,16.3-1.2,23.7c7,11.3,6.5,17.7,4.8,21.5c-7.3,16.2-47.3,5.9-127.7,4
		c-56.4-1.3-82.7,2.7-87-8.7c-3.8-10.2,12.6-26,28.2-38.5c-5.9-40.4-9.7-88.6-7.7-143C240.2,682.6,244.2,648.1,249.4,617.6z"/>
	<path class="st0" d="M255.5,655.7c-4.8,32.6-8,71.1-7.1,114.4c0.7,33.4,3.8,63.7,8,90.4c5-1.9,12.9-4.2,22.7-4.2
		c6.5,0,12,1,16.2,2.1c-7.2,0-15.3,0.5-24.3,1.9c-5.2,0.8-10.1,1.9-14.6,3.1c-25,19.3-28.6,28.9-26.7,34.1
		c4.1,10.8,33.2,3.5,88.2,5.1c60.3,1.8,105.4,8.7,108.3-1.7c0.7-2.6-1.3-6-4-10.3c-4.2-6.9-9.9-10.4-16.3-14.4
		c-4.7-2.8-11.6-6.5-20.6-9.3c5.1,0.9,11.1,2.4,17.7,4.9c6.3,2.3,11.6,5,15.9,7.5c1.9-4,4.4-10.5,5-18.8c0.7-9.5-1.2-17.2-2.7-21.6
		C365.9,777.8,310.7,716.7,255.5,655.7z"/>
</g>
<g id="レイヤー_2">
	<path id="righthand" d="M589.9,302.3c0.9-2.3,1.7-4.6,2.6-6.9c44,9.4,72.9,28.9,87.9,40.8c48,38.1,65.2,87.4,75.3,116.6
		c13.5,38.7,16.6,72.5,17.2,94.4c5.3,10.1,14.6,31.5,10.2,57.4c-0.9,5.4-7.4,43.4-30.1,47.6c-9.8,1.8-18.9-3.4-24-7.1
		c-28.5-53.8-57.3-114.8-84.2-182.7C622.6,405.9,604.5,352.2,589.9,302.3z"/>
	<path class="st0" d="M596.5,300.8c6.6,1.4,15.9,3.8,26.5,8c50.8,19.9,78.5,58.5,92.7,78.5c45.1,63.2,51.3,131.9,52.2,162.3
		c1.7,2.2,4.7,6.4,7.1,12.2c14,33.3-6,81.6-27,83.8c-3.9,0.4-10.9-0.5-20.5-10.7C683.9,523.5,640.2,412.2,596.5,300.8z"/>
</g>
<g id="レイヤー_3_1_">
	<path id="lefthand_2_" d="M310.9,315.9c16.8-8,41.8-18.3,48.4-10.4c0,0,0.9,1.1,1.3,2.5c3.4,12.5,0.6,197.5-88.5,208.8
		c-55.9,7.1-117.4-58.4-130.2-124c-10.1-52.3,12.6-95,20-108.3c29.8-54,78.9-74.9,93.5-80.5c2.6-13.2,11.3-47.7,42.3-72.3
		c10.5-8.4,36.8-29,66.1-21.8c21.8,5.4,33.7,24,34.9,25.8c30.1,48.3-14.7,146-70.6,158.7c-5.3,1.2-9.6,1.4-12,1.4
		C314.5,302.6,312.7,309.2,310.9,315.9z"/>
	<path class="st0" d="M353.4,306c-15.7,18.4-33,41.7-48.9,70.1c-26.3,46.8-39.4,90.7-46.4,123.7c-9.1-2.7-69.7-21.9-94.5-82
		c-18.1-43.9-6.8-84.1-2.6-98.7c12-42.6,38-68.7,49.8-79.2c18.9-16.9,38-26,50.6-31c21.4-59.6,61.3-95.4,95.8-91.4
		c16.2,1.9,36.7,13.1,38.7,27.6c2.7,19.3-29.6,28.6-46.3,62.6c-11.9,24.2-10.2,49.3-7.2,66.2c-1.5,2.1-9.6,13.3-22.8,14
		c-3.3,0.2-6.2-0.3-8.6-1c-1.3-4.5-3.8-11.2-8.9-18c-8.1-10.6-18-15.4-22.9-17.4c5.8,4.1,17.1,13.3,23.5,29.1
		c3.3,8.3,4.1,15.6,4.4,19.5c0.9,15.4-4.2,27.2-7,32.7c4.8-5.3,13.4-13.4,26.4-19.4C337,308.3,346.8,306.6,353.4,306z"/>
</g>
<g id="レイヤー_3_3_">
	<path id="body_2_" d="M596.5,300.8c5.5-15.5,14.3-47.4,4.9-84.3c-13.5-52.9-61.9-106-125.5-107.5c-78.6-1.8-135.1,76.4-136,140.8
		c-0.3,23.7,6.9,43.2,13.4,56.2c-29.7,35.1-89.7,116.3-100.9,233.5c-4.8,50-16.7,172.6,68.3,257.2c61.6,61.4,138.4,68.5,150,69.4
		c97.8,7.6,165.3-49.5,178.4-61c101.9-90.1,84.4-234,80.5-266C713.2,403.3,621.6,321.7,596.5,300.8z"/>
	<path class="st0" d="M330.1,786.1c73.9,71.4,172.9,64.2,177.5,63.8c87.8-7.8,140.9-66.3,155.1-83.3c81-96.9,51.2-226.2,41.8-267.1
		C681.3,398.6,622,332.9,589.9,302.3c5.6-13.9,13.2-38.5,9.1-68C590.5,173.9,535.5,115,472,115c-39.9,0-67.9,23.2-76.2,30.1
		c-38.4,31.9-55.2,83.6-47,128.4c2.7,15,7.8,26.7,11.9,34.6c-11.6,14.7-26.5,35.4-41.2,61.6c0,0-30.9,55.1-45,112.7
		C265.4,518.9,225.9,685.4,330.1,786.1z"/>
</g>
<g id="レイヤー_4_3_">
	<g id="レイヤー_5_3_">
		<circle cx="413.5" cy="249.1" r="39.9"/>
		<path class="st0" d="M448.5,246.3c0.8,20.9-21.8,39.3-42.7,34.7c-15.3-3.3-28-18.5-26.7-35.3c1.5-19.6,21.5-33.6,40.3-30.7
			C434.9,217.5,447.9,231,448.5,246.3z"/>
		<circle cx="403.6" cy="231.7" r="16.8"/>
		<path class="st0" d="M417.8,233.7c-0.7,7-7,12.5-14.2,12.4c-7.2,0-13.8-5.7-14.2-13.2c-0.3-7.8,6.2-14.2,13.6-14.4
			C411.4,218.2,418.6,225.7,417.8,233.7z"/>
	</g>
	<g id="レイヤー_6_3_">
		<circle cx="543" cy="249.1" r="39.9"/>
		<path class="st0" d="M575.8,243.2c2.9,20-13.9,40-34,40.1c-15.7,0.1-29.6-12.1-33.2-27.5c-3.8-16.6,4.9-34.7,20.2-40.6
			C548.3,207.6,572.7,221.9,575.8,243.2z"/>
		<circle cx="529.7" cy="231.7" r="16.8"/>
		<path class="st0" d="M543.9,233.7c-0.7,7-7,12.5-14.2,12.4c-7.2,0-13.8-5.7-14.2-13.2c-0.3-7.8,6.2-14.2,13.6-14.4
			C537.3,218.2,544.6,225.7,543.9,233.7z"/>
	</g>
</g>
<g id="レイヤー_2_1_">
	<path id="nose_2_" d="M678.3,467.7c-3,105.6-130.8,178.9-233.6,159.6C384.5,615.9,311.2,568.7,298,488
		c-12.7-77.5,34.6-159,116.5-191.7c6.5-4.4,15.7-11.4,25.4-21.2c24-24.3,27.1-42.3,37.8-42c9.8,0.3,11.9,15.5,34.1,39.8
		c8.4,9.2,16.2,15.9,21.6,20.2C621.8,320.2,680.4,394.4,678.3,467.7z"/>
	<path class="st0" d="M347.9,563.1c1.4-0.3-3.3-16.3,2.1-19.1c4.6-2.4,13.1,6.8,35.3,28.1c18.4,17.6,27.5,26.4,31.4,28.8
		c20.2,12.3,41.2,11.9,62.3,11.5c16-0.3,36.4-0.7,57.4-12.3c7.9-4.4,14.3-10,27.2-21.4c27.2-23.9,37-38.8,42.7-36.1
		c6.2,2.9-0.6,22.6,3.3,24.2c7.3,3,59.1-52.8,57.3-118.1c-1.7-62.1-58.6-120.6-139.1-150.8c-3.8-1.6-8.2-3.1-13.1-4.4
		c-3.2-0.8-6.3-1.4-9.2-1.8c1.9-0.2,4.1-0.2,6.5-0.1c3.9,0.2,7.2,0.9,9.8,1.7c-7.6-6.3-17.6-16.2-25.6-30.5
		c-16.8-29.9-14-60.2-18.1-60.2c-3.7,0-2.8,25.6-16.4,54.4c-7,14.9-15.6,25.8-22,32.8c1.6-0.2,3.4-0.3,5.4-0.2
		c4.5,0.1,8.4,1,11.3,1.9c-2.6,0.1-5.4,0.3-8.4,0.6c-5,0.6-9.5,1.7-13.2,2.8c-11,3.5-90.4,29.9-116.3,105.2
		C290.4,481.7,344.1,564,347.9,563.1z"/>
</g>
<g id="レイヤー_6_1_">
	<path d="M448.5,187.9c0,0-40.4-42.9-59.4,0C389.1,187.9,398.2,160.1,448.5,187.9z"/>
	<path d="M507.7,187.8c0,0,40-42.5,58.9,0C566.6,187.8,557.5,160.1,507.7,187.8z"/>
</g>
</svg>
