<?xml version="1.0" encoding="utf-8"?>
<!-- Generator: Adobe Illustrator 24.1.2, SVG Export Plug-In . SVG Version: 6.00 Build 0)  -->
<svg version="1.1" id="レイヤー_1" xmlns="http://www.w3.org/2000/svg" xmlns:xlink="http://www.w3.org/1999/xlink" x="0px"
	 y="0px" viewBox="0 0 1000 1000" style="enable-background:new 0 0 1000 1000;" xml:space="preserve">
<style type="text/css">
	.st0{fill:#FFFFFF;}
</style>
<g id="background">
	<g id="backgound">
		<rect x="-49.5" y="-49.5" class="st0" width="1099" height="1099"/>
		<path d="M1049-49v1098H-49V-49H1049 M1050-50H-50v1100h1100V-50L1050-50z"/>
	</g>
</g>
<g id="レイヤー_2_1_">
	<path d="M622.2,22.7c-27.2-2.6-38.4,3.4-43.3,10.4c-6.5,9.4-2.2,22.3-8.8,25.1c-5.1,2.1-13.4-2.7-16.4-9.3
		c-4.1-9.3,3.8-20.4,8.1-24.8C573.9,11.8,597.6,11.8,622.2,22.7z"/>
	<path d="M645.2,41.9c-27.2-2.6-38.4,3.4-43.3,10.4c-6.5,9.4-2.2,22.3-8.8,25.1c-5.1,2.1-13.4-2.7-16.4-9.3
		c-4.1-9.3,3.8-20.4,8.1-24.8C596.9,31,620.8,31.1,645.2,41.9z"/>
	<path d="M662.7,63.1c-27.2-2.6-38.4,3.4-43.3,10.4c-6.5,9.4-2.2,22.3-8.8,25.1c-5.1,2.1-13.4-2.7-16.4-9.3
		c-4.1-9.3,3.8-20.4,8.1-24.8C614.4,52.3,638.2,52.4,662.7,63.1z"/>
</g>
<g id="レイヤー_5_1_">
	<path id="leftfoot" d="M815.2,665.9c12.6,46.5,23.7,109.8,19.5,184.4c-1.8,32.1-6.3,61.2-11.7,86.8c23,16.9,25.9,26.2,24.4,31.6
		c-3.7,13.1-35.7,11-127.7,13.9c-76.3,2.5-112.6,5.9-118.1-8.7c-2.5-6.6,2.4-14.5,7.1-20.5c-1.5-6.4-2.9-12.9-4.2-19.6
		c-2.4-11.8-4.4-23.4-6-34.3c37.4-30,78.8-67.2,120.8-113C758.2,744.2,789.8,703,815.2,665.9z"/>
	<path class="st0" d="M612.4,915.1c-0.4,3.5-0.5,7.5-0.2,11.8c0.4,8.8,2,16.5,3.8,22.6c3.3-2.7,8-5.8,14.2-8.4
		c9.3-3.9,17.8-4.6,23.1-4.6c-5.4,0.9-15.8,3.3-26.3,11c-4.5,3.2-21.2,15.3-19.1,22.8c3.1,10.6,42.1,4.8,119.6,1.8
		c69.5-2.7,103.7-0.5,106-11.2c1.4-6.4-9.3-13.9-18.4-20.2c0,0-25.7-17.9-65.2-14.5c-0.1,0-2.9,0.2-2.9,0.2s0,0,0.1,0
		c8.6-2.1,23-4.5,40.3-1.4c11,2,19.8,5.7,26.2,8.8c3.5-28.4,6-59.6,6.7-92.9c1.2-55.4-2.8-105.4-8.8-148.5
		C745.1,766.7,678.8,840.9,612.4,915.1z"/>
</g>
<g id="レイヤー_4_1_">
	<path id="rightfoot_2_" d="M249.5,633.5c22.1,41.9,52.2,91.2,93.4,142.6c41,51.3,82.4,91.6,118.3,122.3c0.4,7.2,0.6,14.9,0.5,23
		c-0.1,9.9-0.6,19.2-1.4,28c8.3,13.3,7.7,20.9,5.7,25.4c-8.6,19.1-55.8,7-150.6,4.7c-66.5-1.5-97.5,3.2-102.6-10.3
		c-4.5-12,14.9-30.7,33.3-45.4c-7-47.6-11.4-104.5-9.1-168.6C238.7,710.2,243.4,669.5,249.5,633.5z"/>
	<path class="st0" d="M256.7,678.5c-5.7,38.4-9.4,83.9-8.4,134.9c0.8,39.4,4.5,75.2,9.4,106.6c6-2.2,15.2-5,26.8-5
		c7.7,0,14.2,1.2,19.1,2.5c-7-0.4-17-0.4-28.7,2.2c-3.4,0.7-10.6,2.4-17.2,5.4c-17.2,7.9-35.3,28.1-31.5,38.4c4.4,12.3,36.6,4,104,6
		c71.1,2.1,124.3,10.3,127.7-2c0.8-3.1-1.5-7.1-4.7-12.1c-5-8.1-11.7-12.3-19.2-17c-5.5-3.3-13.7-7.7-24.3-11
		c6,1.1,13.1,2.8,20.9,5.8c7.4,2.7,13.7,5.9,18.8,8.8c2.2-4.7,5.2-12.4,5.9-22.2c0.8-11.2-1.4-20.3-3.2-25.5
		C386.9,822.5,321.8,750.4,256.7,678.5z"/>
</g>
<g id="レイヤー_2_2_">
	<path id="righthand" d="M651.1,261.7c1.1-2.7,2-5.4,3.1-8.1c51.9,11.1,86,34.1,103.7,48.1c56.6,44.9,76.9,103.1,88.8,137.5
		c15.9,45.6,19.6,85.5,20.3,111.3c6.3,11.9,17.2,37.1,12,67.7c-1.1,6.4-8.7,51.2-35.5,56.1c-11.6,2.1-22.3-4-28.3-8.4
		c-33.6-63.4-67.6-135.4-99.3-215.5C689.6,383.9,668.3,320.6,651.1,261.7z"/>
	<path class="st0" d="M658.9,259.9c7.8,1.7,18.8,4.5,31.3,9.4c59.9,23.5,92.6,69,109.3,92.6c53.2,74.5,60.5,155.6,61.6,191.4
		c2,2.6,5.5,7.5,8.4,14.4c16.5,39.3-7.1,96.2-31.8,98.8c-4.6,0.5-12.9-0.6-24.2-12.6C761.9,522.6,710.4,391.3,658.9,259.9z"/>
</g>
<g id="レイヤー_3_1_">
	<path id="lefthand_2_" d="M322,277.7c19.8-9.4,49.3-21.6,57.1-12.3c0,0,1.1,1.3,1.5,2.9c4,14.7,0.7,232.9-104.4,246.2
		c-65.9,8.4-138.5-68.9-153.5-146.2c-11.9-61.7,14.9-112,23.6-127.7c35.1-63.7,93-88.3,110.3-94.9c9.9-21.2,22.1-35.3,30.5-43.6
		c33-32.5,91.8-59.2,125.7-37.3c2.1,1.3,5.5,3.5,9.1,7.8c36.1,42.5-13.6,164.6-79.7,179.7c-6.4,1.4-11.7,1.7-14.2,1.7
		C326.3,262.1,324.2,269.8,322,277.7z"/>
	<path class="st0" d="M372.2,266.1c-18.5,21.7-38.9,49.2-57.7,82.7c-31,55.2-46.5,107-54.7,145.9c-10.7-3.2-82.2-25.8-111.4-96.7
		c-21.3-51.8-8-99.2-3.1-116.4c14.2-50.2,44.8-81,58.7-93.4c22.3-19.9,44.8-30.7,59.7-36.6c9.3-17.8,34.7-59.7,84.2-78
		c21.5-7.9,56.4-14.5,63.3-2.6c9.1,15.7-41.9,38.7-48.4,94.2c-3.2,26.8,5.7,47.4-9.6,66.3c-8,10-18.8,14.6-26.2,17
		c-2.4-6.5-7-16.4-15.6-26.3c-9.8-11.2-20.5-17.3-27-20.5c6.8,4.8,20.2,15.7,27.7,34.3c1.9,4.6,5.1,12.4,5.2,23
		c0.1,10.3-2.5,18.4-4.5,23.1c-10.4,3.4-31.7,11.9-50.8,32.4c-18.2,19.3-25.4,39.9-28.3,50.4c8.8-16.5,18.6-28.4,26.2-36.6
		c24.2-25.8,50.5-38.1,70.4-47.2C346.9,273.7,361.3,269,372.2,266.1z"/>
</g>
<g id="レイヤー_3_3_">
	<path id="body_2_" d="M658.9,259.9c6.5-18.3,16.9-55.9,5.8-99.4c-15.9-62.4-73-125-148-126.8c-92.7-2.1-159.3,90.1-160.4,166
		c-0.4,28,8.1,50.9,15.8,66.3c-35,41.4-105.8,137.2-119,275.4c-5.7,59-19.7,203.6,80.5,303.3c72.6,72.4,163.2,80.8,176.9,81.8
		c115.3,9,194.9-58.4,210.4-71.9c120.2-106.3,99.5-276,94.9-313.7C796.5,380.8,688.5,284.6,658.9,259.9z"/>
	<path class="st0" d="M344.7,832.3c87.2,84.2,203.9,75.7,209.3,75.2c103.5-9.2,166.2-78.2,182.9-98.2
		c95.5-114.3,60.4-266.8,49.3-315c-27.4-119-97.3-196.5-135.2-232.6c6.6-16.4,15.6-45.4,10.7-80.2c-10-71.2-74.9-140.7-149.8-140.7
		c-47.1,0-80.1,27.4-89.9,35.5c-45.3,37.6-65.1,98.6-55.4,151.4c3.2,17.7,9.2,31.5,14,40.8c-13.7,17.3-31.3,41.7-48.6,72.6
		c0,0-36.4,65-53.1,132.9C268.4,517.1,221.8,713.5,344.7,832.3z"/>
</g>
<g id="レイヤー_4">
	<path d="M399.3,223.1c0.3,0.6,3.8,7.2,0.5,13.8c-2.3,4.5-6.2,6.3-7.4,6.8c4,4.8,49.5,58.1,128.4,56.1c79.3-2,121.4-58,125-62.9
		c-1.4-0.6-3.4-1.8-5.4-3.8c-0.6-0.6-1.2-1.2-1.7-2.1c-1.5-2.5-1.3-5.2-1.1-6.8c1,1.5,2.8,3.8,5.7,5.8c1.4,0.9,3.5,2.3,6.4,2.8
		c1.8,0.3,4.9,0.6,9.1-1.3c-0.4,0.8-1.8,3.3-5,4.8c-3.1,1.4-5.9,0.9-6.8,0.7c-2.4,73,11.7,126.8,25.5,163
		c23.5,61.8,50.8,84.5,54.7,142.9c1,14.9,3.7,63.4-24.4,111.6C669.3,712,601.1,752.7,527,751.9c-62.5-0.7-125.6-30.8-161.2-82.9
		c-32.1-46.9-31.8-96.9-31.8-118.7c0.1-54.3,18.8-78.4,35.9-139.3c10.5-37.6,21.7-93.5,19.9-166.7c-1.2,0.2-2.9,0.3-4.9,0.2
		c-1,0-1.9-0.1-2.6-0.2c-4.5-0.6-7.7-2.4-9.3-3.6c0.5,0.1,11.9,3.5,20.1-4.2C398.6,231.4,399.2,224.8,399.3,223.1z"/>
	<path class="st0" d="M392.3,247.5c5.3,58.2,4.6,140.2-24.2,231.2c-9.3,29.3-20.2,55.6-31.5,78.7c0,14.9,2,76,49.2,127.6
		c51,55.7,117.6,59.8,134.9,60.6c13.6,0.6,100.2,3.2,159.7-66.6c46-53.9,46-116.2,45.6-132.4c-17.5-18.4-36.4-42.4-52.3-73
		c-50.6-97.2-36.7-193.9-28.7-232.8c-4.9,6.7-48.7,63.8-126.1,65.1C443.1,307.3,397.8,254.2,392.3,247.5z"/>
	<path class="st0" d="M334.1,550.3c131-2.5,262.1-5,393.1-7.5C699.7,631.8,617.1,692,526,690.5C440,689.1,362.9,633,334.1,550.3z"/>
</g>
<g id="レイヤー_4_3_">
	<g id="レイヤー_5_3_">
		<circle cx="443" cy="199" r="47.1"/>
		<path class="st0" d="M484.3,195.7c0.9,24.6-25.7,46.3-50.4,40.9c-18-3.9-33-21.8-31.5-41.6c1.8-23.1,25.4-39.6,47.5-36.2
			C468.3,161.7,483.6,177.6,484.3,195.7z"/>
		<circle cx="431.4" cy="178.4" r="19.8"/>
		<path class="st0" d="M448.1,180.8c-0.8,8.3-8.3,14.7-16.7,14.6c-8.5,0-16.3-6.7-16.7-15.6c-0.4-9.2,7.3-16.7,16-17
			C440.6,162.5,449.1,171.4,448.1,180.8z"/>
	</g>
	<g id="レイヤー_6_3_">
		<ellipse transform="matrix(0.3162 -0.9487 0.9487 0.3162 218.6138 701.2428)" cx="595.8" cy="199" rx="47.1" ry="47.1"/>
		<path class="st0" d="M634.4,192c3.4,23.6-16.4,47.2-40.1,47.3c-18.5,0.1-34.9-14.3-39.2-32.4c-4.5-19.6,5.8-40.9,23.8-47.9
			C602,150,630.8,166.9,634.4,192z"/>
		<circle cx="580.1" cy="178.4" r="19.8"/>
		<path class="st0" d="M596.8,180.8c-0.8,8.3-8.3,14.7-16.7,14.6c-8.5,0-16.3-6.7-16.7-15.6c-0.4-9.2,7.3-16.7,16-17
			C589,162.5,597.6,171.4,596.8,180.8z"/>
	</g>
</g>
<g id="レイヤー_2_3_">
	<path id="nose_2_" d="M755.3,456.8c-3.5,124.5-154.3,211-275.5,188.2c-71-13.4-157.4-69.1-173-164.3
		c-15-91.4,40.8-187.5,137.4-226.1c7.7-5.2,18.5-13.4,30-25c28.3-28.7,32-49.9,44.6-49.5c11.6,0.4,14,18.3,40.2,46.9
		c9.9,10.8,19.1,18.8,25.5,23.8C688.7,282.8,757.8,370.3,755.3,456.8z"/>
	<path class="st0" d="M365.7,569.3c1.7-0.4-3.9-19.2,2.5-22.5c5.4-2.8,15.4,8,41.6,33.1c21.7,20.8,32.4,31.1,37,34
		c23.8,14.5,48.6,14,73.5,13.6c18.9-0.4,42.9-0.8,67.7-14.5c9.3-5.2,16.9-11.8,32.1-25.2c32.1-28.2,43.6-45.8,50.4-42.6
		c7.3,3.4-0.7,26.7,3.9,28.5c8.6,3.5,69.7-62.3,67.6-139.3c-2-73.2-69.1-142.2-164-177.8c-4.5-1.9-9.7-3.7-15.4-5.2
		c-3.8-0.9-7.4-1.7-10.8-2.1c2.2-0.2,4.8-0.2,7.7-0.1c4.6,0.2,8.5,1.1,11.6,2c-9-7.4-20.8-19.1-30.2-36c-19.8-35.3-16.5-71-21.3-71
		c-4.4,0-3.3,30.2-19.3,64.2c-8.3,17.6-18.4,30.4-25.9,38.7c1.9-0.2,4-0.4,6.4-0.2c5.3,0.1,9.9,1.2,13.3,2.2
		c-3.1,0.1-6.4,0.4-9.9,0.7c-5.9,0.7-11.2,2-15.6,3.3c-13,4.1-106.6,35.3-137.2,124.1C297.9,473.3,361.2,570.3,365.7,569.3z"/>
</g>
<g id="レイヤー_6_1_">
	<path d="M484.3,126.8c0,0-47.6-50.6-70.1,0C414.3,126.8,425,94,484.3,126.8z"/>
	<path d="M554.1,126.7c0,0,47.2-50.1,69.5,0C623.6,126.7,612.9,94,554.1,126.7z"/>
</g>
<path d="M334.2,672.8c4.6,6.7,76.2,108,203.6,103.7c123.1-4.1,187.6-103.2,192.8-111.3c-11.4,31.5-34.2,79.5-80.4,120.7
	c-26.5,23.6-57.3,51-102,54.1c-52,3.6-91.4-27.7-124.9-54.3C378.7,750.3,351.1,708.1,334.2,672.8z"/>
</svg>
