<svg xmlns="http://www.w3.org/2000/svg" xmlns:xlink="http://www.w3.org/1999/xlink" viewBox="0 0 2072 2072"><defs><style>.cls-1{fill:url(#名称未設定グラデーション_136);}.cls-2{font-size:62.42px;font-family:InkFree, Ink Free;}.cls-3{fill:url(#名称未設定グラデーション_79);}.cls-4{fill:url(#名称未設定グラデーション_23);}.cls-5{fill:#c33;}.cls-6{fill:url(#名称未設定グラデーション_16);}.cls-7{fill:url(#名称未設定グラデーション_84);}.cls-8{fill:url(#名称未設定グラデーション_86);}.cls-9{fill:#f99;}.cls-10{fill:#300;}.cls-11{fill:#fcc;}.cls-12{fill:#600;}.cls-13{fill:#f66;}</style><radialGradient id="名称未設定グラデーション_136" cx="1036" cy="1036" r="1036" gradientUnits="userSpaceOnUse"><stop offset="0" stop-color="#ff6"/><stop offset="0.16" stop-color="#dede50"/><stop offset="0.44" stop-color="#abab2e"/><stop offset="0.68" stop-color="#858515"/><stop offset="0.88" stop-color="#6e6e06"/><stop offset="1" stop-color="#660"/></radialGradient><radialGradient id="名称未設定グラデーション_79" cx="529.76" cy="1897.59" r="27" gradientUnits="userSpaceOnUse"><stop offset="0" stop-color="#f99"/><stop offset="0.01" stop-color="#fe9898"/><stop offset="0.32" stop-color="#e96c6c"/><stop offset="0.6" stop-color="#d94d4d"/><stop offset="0.84" stop-color="#cf3a3a"/><stop offset="1" stop-color="#c33"/></radialGradient><linearGradient id="名称未設定グラデーション_23" x1="1243.08" y1="1201.76" x2="1874.12" y2="2724.31" gradientUnits="userSpaceOnUse"><stop offset="0" stop-color="#c33"/><stop offset="0.16" stop-color="#bd2424"/><stop offset="0.44" stop-color="#a91010"/><stop offset="0.72" stop-color="#9d0404"/><stop offset="1" stop-color="#900"/></linearGradient><radialGradient id="名称未設定グラデーション_16" cx="837.94" cy="434.66" r="374.13" gradientUnits="userSpaceOnUse"><stop offset="0" stop-color="#f99"/><stop offset="0.01" stop-color="#fe9696"/><stop offset="0.21" stop-color="#ec7373"/><stop offset="0.41" stop-color="#de5757"/><stop offset="0.6" stop-color="#d44343"/><stop offset="0.8" stop-color="#ce3737"/><stop offset="1" stop-color="#c33"/></radialGradient><linearGradient id="名称未設定グラデーション_84" x1="1347.09" y1="361.8" x2="2307.4" y2="1561.5" gradientUnits="userSpaceOnUse"><stop offset="0" stop-color="#c33"/><stop offset="0.37" stop-color="#b31a1a"/><stop offset="0.74" stop-color="#a00707"/><stop offset="1" stop-color="#900"/></linearGradient><radialGradient id="名称未設定グラデーション_86" cx="482.07" cy="647.45" r="313.4" gradientTransform="translate(1061.72 434.26) rotate(121.12) scale(1 0.6)" gradientUnits="userSpaceOnUse"><stop offset="0" stop-color="#f99"/><stop offset="0.07" stop-color="#f78989"/><stop offset="0.23" stop-color="#e86a6a"/><stop offset="0.4" stop-color="#db5252"/><stop offset="0.58" stop-color="#d34141"/><stop offset="0.77" stop-color="#ce3636"/><stop offset="1" stop-color="#c33"/></radialGradient></defs><g id="background"><rect class="cls-1" width="2072" height="2072"/></g><g id="レイヤー_8" data-name="レイヤー 8"><text class="cls-2" transform="translate(1577.99 2030.75)">SugiyamaToshiki</text></g><g id="base"><path d="M1676,658c-18.12-41.45-40.11-72.73-74-121-14-20-40.14-54.91-42.61-58.11-1.09-1.41-3.44-4.45-6.55-8.71-7.85-10.78-13.6-19.87-17-25.44-1.46-2.4-2.46-4.09-2.84-4.74-11.82-20-31.68-41.13-48-65-14.38-21-10.7-21.78-24-39s-13.88-12.46-29-31c-2.52-3.1-34.15-42-45.59-49.49A49.57,49.57,0,0,0,1382,253c-28.71-14-43.66,11.29-102,16-35.85,2.89-67.2-3.76-88,12a172.51,172.51,0,0,1-17,12c-12.82,7.87-19.09,9.26-31,16a153.42,153.42,0,0,0-23,16,234.3,234.3,0,0,0-173-12,153.27,153.27,0,0,1-21-15c-10.91-9.3-23.16-22.49-34-33-1-1-3.25-3.2-6.47-5.81-4.82-3.91-8.22-5.52-30.53-24.19-17.15-14.36-26-21.17-34-22-8.57-.9-13.46,2.71-25,8-6.84,3.14-3,.87-61,18-22.45,6.63-32.9,9.86-45,19-4.92,3.72-9.1,6.87-13,12-12.34,16.22-8.32,34.29-8,63,.24,21.48.51,46.46-8,70-8.81,24.37-24.17,39.31-33,48-33.7,33.18-120.43,118.54-163,175-17.82,23.63-75.18,101.82-76,206-.23,29-.71,90.14,33,108,41.18,21.83,111.53-32.48,142-56a367.58,367.58,0,0,0,58-56,234.95,234.95,0,0,0-1.5,180.5c-14.52,40.55-24.43,75-31,100-13.28,50.57-29,111.93-32,193-1.23,33.43-1.84,50.14,1,71,8.4,61.64,31.75,84.38,56,169,8.9,31,13.34,46.55,15,64,7.73,81.44-29.09,143.06-42,164-32.06,52-79.21,91.83-98,83-3.76-1.77-10.28-7.31-19-6-5.68.85-13.79,4.83-15,12a13.48,13.48,0,0,0,2,9c-.36.68-4.42,8.79,0,17a18.61,18.61,0,0,0,12,9,29.81,29.81,0,0,0,27,17c.76,5.51,3.67,21.32,17,33,16,14,36.1,12.52,43,12,44.89-3.4,72.87-51.64,77-59,26.41-47-1.49-61.18,23-105,18.71-33.47,55.7-61.78,64-93a143.13,143.13,0,0,0,4-25,194.91,194.91,0,0,0-2-30c-3.51-19.13-5.34-45.09-9-97-4.42-62.77,2.31-70.94-7-105a221.36,221.36,0,0,0-20-49,386.79,386.79,0,0,1,56-65C805.08,1270.36,872,1246,913,1235a455.87,455.87,0,0,0,134,2c40.23,6.63,106,23.2,172.5,69.5a414.85,414.85,0,0,1,80,73c-31.59,60.26-57.24,108.9-82,155-11.47,21.35-22.77,42.15-18,67,6,31.16,30.63,34.37,52,73,16.92,30.59,19.2,60.31,22,97,4.22,55.25-7.4,76.75,11,98,8.91,10.3,17.79,10.22,38,30,16.77,16.42,15,20.16,24.5,26.5,22.27,14.8,64.06,15.65,80.5-8.5,9.72-14.27,6.92-31.92,5-40a21.1,21.1,0,0,0,2.5-5.5,23.09,23.09,0,0,0-1-15,25.74,25.74,0,0,0,2-14,14.37,14.37,0,0,0,1-8,15.31,15.31,0,0,0-7-10c-7.34-4.57-17.16-.33-22,1-21.26,5.86-50-15.73-62.5-31.5-8.34-10.55-9.48-14-19-93-9.89-82-30.31-82-26-129,4.29-46.88,36.6-96.12,42-104,42.31-61.71,54.36-61,72.5-91.5,32.79-55,26.49-112.76,15-218a953.15,953.15,0,0,0-33.5-166.5,300.38,300.38,0,0,0,51,37c7.19,4.14,14.21,7.78,21,11A387.15,387.15,0,0,0,1520.29,799,281.42,281.42,0,0,0,1565,826c31.62,15.28,68.14,32.94,101,19a68.66,68.66,0,0,0,27-21C1728.36,777.76,1692.14,694.91,1676,658ZM749,473a255.31,255.31,0,0,0-57,52,676.7,676.7,0,0,0,34.5-83.5c5.11-15.29,7.7-25.07,17.5-33.5,17.84-15.35,32.79-3.2,57-19,13.69-8.94,11.77-14.68,35-32,10.55-7.86,14.11-9,20-15,12.43-12.59,17-28.07,19-39a135.37,135.37,0,0,0,25,29A327.34,327.34,0,0,0,749,473Zm493-160a64.77,64.77,0,0,0,10,21,63.88,63.88,0,0,0,9,10c-12.32-.29-23.18,5-28,14-6.07,11.36,0,23.91,1,26,7.92,16.3,26.75,21.67,56,30,14.39,4.1,25.12,7.17,40.5,7.5a129,129,0,0,0,50-9c.69.19,1.73.49,3,.9,23.62,7.74,40.32,28.34,58.53,66.6,11.67,24.52,26.6,61.85,36.5,111.5a155.59,155.59,0,0,1-55-23c-34.29-23.19-40.13-48.49-72-77-13.89-12.43-36-28.37-70-40A284.26,284.26,0,0,0,1158,342c10.08-5,20.84-11,32-18,7.93-5,15.26-10,22-15a133,133,0,0,0,30,4Z"/></g><g id="legs"><path class="cls-3" d="M628.5,1025.5a1547.77,1547.77,0,0,0-38,160c-25.8,142-14.93,196.38-6.79,219.73.8,2.29.47,1.18,2.79,7.27,27.39,71.89,54,141.64,58,201,8.42,123.62-80,215.34-108,229-17,8.3-36.77,17.93-51,12-2.25-.94-9.52-4.42-17-2-3.89,1.26-9.36,4.6-9,8a4.43,4.43,0,0,0,2,3,15.6,15.6,0,0,1,9-6c8-1.78,14.06,4.06,14.5,4.5a16.38,16.38,0,0,0-17.5.5c-4.54,3.23-8.44,9.94-6,16,1.93,4.79,6.88,6.62,8,7a20.81,20.81,0,0,1,8-12A21,21,0,0,1,493,1870c-1,0-9.59.4-14.5,7.5a17.46,17.46,0,0,0-3,10c.24.72,2.75,7.88,10,10a14.84,14.84,0,0,0,9.5-.5,36.54,36.54,0,0,1,6.5-19.5c7.4-10.46,18.25-13.36,22.5-14.5,20.34-5.45,37.74,5.8,41,8-22.59-9.92-46.34-4.79-57,10-8.91,12.37-6,27.77-5,32,3.49,14.93,14.89,27.23,28,32,32.91,12,68-26.56,71.5-30.5a92.51,92.51,0,0,0,7.92-10.29c10.08-10.94,14.45-21.06,16.58-28.21,6.31-21.14-1.84-33.46,4-59,.73-3.18,2.69-11,10-26,28-57.32,63.35-73.62,73-113,3.56-14.54-1.21-12.5-7-63-9.5-82.88,1.41-103.08-11-160a329,329,0,0,0-23-68,342.58,342.58,0,0,1,219-156c-35.44-6.87-112.87-27-182.5-92.5A363,363,0,0,1,628.5,1025.5Z"/><path class="cls-4" d="M1391,1012a484.06,484.06,0,0,1-94.5,110.5c-83.9,72.36-172.94,98.3-221.5,108.5,43,7,123.24,26.87,192,92a334,334,0,0,1,46,54c-36.49,73.36-52.78,103.68-59,113-.17.25-1,1.47-2.09,3.16a341.23,341.23,0,0,0-17.56,30.42c-2.43,4.76-4.89,9.87-7.35,15.42-14.19,32-21.29,48-18,64,5.83,28.45,32.94,27.13,53.86,68.78,6.8,13.52,10.56,23.86,13.64,43.72,8.34,53.74,8,86,8,86-.32,30.71-4,47.57,8,62a38.2,38.2,0,0,0,5.71,5.38,264.44,264.44,0,0,0,24.29,17.62c19,12.88,14.34,22.58,32,33a60.17,60.17,0,0,0,24,8l1.11.11c2.94.26,32.57,2.81,44.89-16.11,9.33-14.32,7.74-39.42-10.5-51.5-15.65-10.37-37.48-7.14-50,8a38,38,0,0,1,14-16c10.13-6.34,25.43-8.81,38-1,11.71,7.28,14.85,19.61,15.5,22.5a27.2,27.2,0,0,0-2.5-16.5c-4.93-9.51-15.84-15.25-28-15,.79-.42,11.73-5.93,22,0a22.25,22.25,0,0,1,9.5,11.5A15.9,15.9,0,0,0,1412,1836c6-3.8,13-4.24,18-1a14,14,0,0,1,5,6c-.26-3.38-1.2-7.78-4.5-10.5-6.65-5.48-18.42-.21-24,1-27.66,6-56.69-22-64.5-29.5-26.94-25.94-15-53-32-131-15-68.77-26.49-58.93-26-92,0,0,1-65.1,64.5-147.5,10.34-13.41,16.94-19.84,16.94-19.84,6.53-6.66,11.31-10.32,17.23-16.55a118.43,118.43,0,0,0,9.83-11.61c42.09-54,25.5-200.5,25.5-200.5A1682.58,1682.58,0,0,0,1391,1012Z"/><path class="cls-5" d="M1518.5,776.5a440.49,440.49,0,0,0-51-167,140,140,0,0,0-88,34,127.67,127.67,0,0,0-56-72,236,236,0,0,0-38-113,154.57,154.57,0,0,1,33,15c34.32,20.81,46.72,47.5,64,68,15.91,18.88,44,42.16,97,56a535.25,535.25,0,0,0,20,58c8.79,21.43,22.29,54.33,45,86,15.35,21.42,45,56.29,97,86a212.33,212.33,0,0,1-123-51Z"/></g><g id="body"><path class="cls-6" d="M1434.5,777.5a703.13,703.13,0,0,1,29-160c-18.59,1.61-45.26,6.83-69,25-24.92,19.07-27.51,37.79-45.5,62.5-24,32.9-74.33,75.19-127,71-70.81-5.63-109.27-95-108.5-93.5,1.93,3.71,42.36,78.67,110,79,33.53.16,58-16.91,81-34,14.53-10.81,64.26-47.78,58.5-89.5-2.09-15.1-11.18-28.94-14-33a88.91,88.91,0,0,0-30-27c-1,6-9.24,49-50,72-31.66,17.9-74.64,19.07-100-1-54.31-43-21.7-178.7,35-195,27.79-8,57.84,13.93,65,19,42.55,30.12,47.36,80,48,88a260.55,260.55,0,0,0-25-80c-20.74-41.33-47.17-66.26-62-80a315.56,315.56,0,0,0-76-52c-3.93,3.11-14.14,10.3-28,10-13.12-.28-29.81-7.28-30-16-.14-6.66,10-12.05,14-14a227.06,227.06,0,0,0-148-11c16.59,4.32,18.65,9.76,19,12,1.46,9.44-18.17,22.82-37,24-18.21,1.14-31.74-9.39-36-13a417.87,417.87,0,0,0-66,45c-91.09,75.87-128.3,173.08-144,228a223.4,223.4,0,0,1,2.94-26.78A245.56,245.56,0,0,1,709,555c9.57-29.18,25-53.31,33-65l-54.5,54.5a692.56,692.56,0,0,1-49,143,693.2,693.2,0,0,1-95,149l87-220a356.63,356.63,0,0,0-73,39C456.14,726,382.75,856.65,415,897c6.26,7.84,14.93,10.28,21,12,71.6,20.23,162.94-104,176.79-123.3L614,784c38.7-54.54,60.27-95.52,73-125-6.17,21.86-19.78,70.16-39,139-15.5,55.5-23.24,84-23,121,.29,45.12,10.94,78.68,13,85,27,82.62,93.24,128,127.5,151.5,28.62,19.6,111.78,71,228,70,73.49-.64,127.36-21.94,157-34C1277.26,1140,1352,1046.72,1387,995a91.58,91.58,0,0,0-32-32c-21.49,29.91-95.43,124.87-223.5,150.5-150.15,30-335.19-42.79-380-180-41.41-126.78,44.82-247.48,57-264-3.84,6.35-92,157.44-16,292,56.41,99.82,207.8,150.5,337,121,114.18-26.07,179.93-107.6,200.5-135.5a180.8,180.8,0,0,0-46-22c-111.45-34.81-220.48,53.41-238,68,34-39.33,69.66-58.63,91-68,82.4-36.17,174.36-22.36,201,4,2.35,2.32,13.88,12.92,30,29a279,279,0,0,0,25,22,430.63,430.63,0,0,0,70,45A708.9,708.9,0,0,1,1434.5,777.5ZM1052,621c-9.72,56.92-94.94,99.37-165,85-41.07-8.43-92.81-39.64-98-84-2.87-24.5,9.54-43.82,27-71,23.15-36,48.86-76.07,92-82,58.4-8,107.66,52.08,127,88C1045.13,575.81,1056.2,596.38,1052,621Zm6.5,381.5v0l0-.08Z"/></g><g id="arms"><path class="cls-7" d="M1635.5,604.5c-53.6-89.5-77-91.43-163.6-237.24-2.57-4-6.6-10.11-11.9-17.26-19.69-26.56-29.67-30.89-52-57-20-23.35-18.74-27.78-28-31-10-3.48-16.88-.2-56,15-38.43,14.94-47.31,14.47-54,28-5.45,11-2.92,23.46,0,32a26.09,26.09,0,0,1,12-3c7.43,0,19,3.43,23,14,3,8,.62,17.48-6,24,15,15,23.77,13.93,27,13,9.2-2.64,7.72-13.57,24-38,7.56-11.34,13.2-16.87,11-21-2.88-5.42-16.41-3.11-17-3-17.52,3.16-27.67,20.41-31.28,27.55A29.19,29.19,0,0,0,1304,315c-2.85-2.2,20.39,10.61,35,5,8.67-3.33,13.36-12.46,16-20-.06.54-1,9.49,6,15a16.82,16.82,0,0,0,19,1c1.81-1.08-8.85,5.49-12,12-3,6.2-.85,16.73,15.24,35.5-4.76-4.27-11.59-8.53-19.24-7.5-5.35.72-9.11,3.77-13,7-13.39,11.12-12.48,22.12-20,26-5.2,2.69-15,2.23-35-14a41.23,41.23,0,0,1-13,8c-16.18,6.14-31.15-.22-35-2,5.53,1.21,25.41,4.86,41-7,3.16-2.41,15.23-11.59,13-22-1.43-6.69-8.36-11.95-15-13-8.11-1.28-10,4.65-25,9-11.88,3.44-15.89,1.23-21,6a20.1,20.1,0,0,0-6,16c.67,7.86,6.21,12.75,11,17,5.69,5,11.23,7.6,20,11,12.83,5,20.37,8.19,33,11,18.94,4.22,31.44,7,47,5,21.81-2.8,24.14-11.48,38-12,4.86-.18,26.18.5,55,43,17.21,25.38,24.84,47.63,41,108,0,0,34.73,129.73,56.67,177.17,1.6,3.45,3.32,6.82,3.32,6.82h0a435.77,435.77,0,0,0,52,80c4.14,1.93,55.12,25,81.5,1.5,12.49-11.13,13.89-28.27,15-40C1695.85,700.92,1644.39,619.35,1635.5,604.5Z"/><path class="cls-5" d="M1350,265c-6.91,2.34-18.52,6.25-33,11-38.92,12.77-48,15.16-53,24-2.49,4.38-7.35,16.24,4,40-1.75-2.46-19.28-27.68-10-43,4.23-7,14.15-10.33,34-17,4.17-1.4,8.84-2.83,21-6C1323.49,271.27,1335.92,268.18,1350,265Z"/><path class="cls-5" d="M1344,265a213.11,213.11,0,0,0-49,10c-23.88,7.89-37,12.94-42,25-7.29,17.65,8.36,38.57,11,42-1.82-1.92-28.25-30.39-19-49,1.22-2.46,4.89-9.1,36-17A427.53,427.53,0,0,1,1344,265Z"/><path class="cls-5" d="M1103,344c.06,5.13,15.27,11.83,29,9,15-3.09,22.58-16.4,24-19a165.34,165.34,0,0,0,55-31l31,5c-2.93-8.62-.94-14,0-16,3.32-7.08,11.1-10,22-14a95.28,95.28,0,0,1,14-4c-15,1.36-27.33,1.83-36,2-23.84.47-29.23-1.14-39,3-11.65,4.94-9.52,9.57-26,19-13.76,7.88-16.4,5.31-28,13-11.4,7.56-10.16,10.91-22,19C1112.3,340.05,1103,340,1103,344Z"/><path class="cls-8" d="M863,279c-4.84-3.94-13.54-7.23-19-4-2.71,1.6-8.24,6.94-11,7.67-1,.26-2,.46-2,.46-1.29.25-2.28.35-2.86.42A75.68,75.68,0,0,0,817,286c-9.74,2.81-17.56,15.19-14.81,23.1,2.46,7.08,12.93,9.14,16.81,9.9,21.64,4.25,40.87-10.78,47-16-1.06,2.11-12,23-32.49,24.8a33.86,33.86,0,0,1-14.43-2C812.19,352.26,804.57,358.26,799,359c-4,.54-6.72-1.72-28-14-14.73-8.5-16.49-9.17-18.86-8.55-9.17,2.4-13.7,20.48-15.63,31.58,2.29-23.51-3.33-45.91-3.33-45.91A83.5,83.5,0,0,0,713,292c2.3,1.56,23.66,15.51,48.08,6.59,16.49-6,24.67-18.91,27-23q-3.5,10.79-7,21.57l12.44,17.05c-5.44-3.62-24.37-15.32-42.32-8.63-.57.22-13.38,5.12-13.09,11.26.22,4.67,7.88,6.55,20.17,12.45,26.46,12.71,30.76,22.87,40,20.44,3.25-.85,11.33-4.36,16.6-25-9-2.24-15.9-9.16-17.4-17.58-2-11.11,6.26-20,12.64-23.78a26.15,26.15,0,0,1,11.85-3.54c-1.85-8.83-6-20.82-16.32-27.52-12.65-8.22-20-3.3-60.73,3.46-41.4,6.87-49,7.57-55.82,15.66-11.6,13.74-9.11,33.56-8.27,40.94,2.64,23.42-4.36,47-3.92,70.59,1.12,60.08-112.8,133-180,220-88.92,115.15-113.75,278-72,307,16.51,11.49,42,1.07,52-3,170.51-69.63,209.73-509,280.16-513.07l2-.13a115.81,115.81,0,0,0,36.8-8.93c14.51-6.48,11.6-11.6,37-31.87,15.43-12.29,17.36-11.1,24-19,3.65-4.34,17.1-20.26,14-39C870.34,291,869.09,284,863,279Z"/><path class="cls-5" d="M716.53,258.75c7.13-1.52,19.12-4.08,34-7.37,39.64-8.79,48.78-11.49,57.83-6.39,4.53,2.55,14.46,10.1,17.31,35.07.22-3.28,1.83-32.44-13.68-40.71-7.23-3.86-17.46-1.67-37.92,2.72-4.3.92-9,2.07-21.12,5.55C742.53,250.61,730.26,254.3,716.53,258.75Z"/><path class="cls-5" d="M721.69,255.69a212.3,212.3,0,0,1,47.24-16.39c23.41-5.14,38.13-8.38,48.88.08,13.51,10.62,11.9,32.7,11.29,38.64.64-2.75,8.35-37.8-8-48.74-5.07-3.4-12.26-4.34-39.63,3.74A425.46,425.46,0,0,0,721.69,255.69Z"/><path class="cls-5" d="M974,332.75c-1,8.12-27.54,17.14-48,8.25a43.89,43.89,0,0,1-18-15,87.05,87.05,0,0,1-33-34c-3.93-14-15.22-22.75-26-22-7.8.54-13.15,5.93-15,8a57.33,57.33,0,0,0,3-26c-1-8.44-2.16-18-10-24-10.3-7.91-24.17-3.6-26-3a38,38,0,0,1,18-5c9.31-.09,18.79,3.71,54,36,12.15,11.14,13.92,13.35,29,27,19.87,18,14.1,11.71,24,21,14.82,13.91,16.89,17.77,24,19,7.82,1.35,14.3-1.77,20,3C970.92,326.77,974.34,329.64,974,332.75Z"/></g><g id="face"><path d="M964.5,722.5s53,149-112,246C852.5,968.5,1058.5,922.5,964.5,722.5Z"/><path d="M1046,547c1.83-.68.71-69.67-52-96-33.87-16.92-67.77-5.6-75-3,23.31-1.48,50.93,1.17,75,17C1037,493.28,1044.34,547.62,1046,547Z"/><path d="M1124,555c-22.74-36.83-16.33-83.52,13-110,24.1-21.76,60.38-26.9,92-13a90.16,90.16,0,0,0-105,123Z"/><path class="cls-9" d="M1034,615c-6.1,25.5-33.69,38.53-58,50-16.31,7.7-38.35,18.1-68,15-28.36-3-47.6-16.61-55-22-12.33-9-27-19.69-33-38-8.55-26.3,6.37-51.64,16-68,11.12-18.89,39.8-67.6,86-68,41.68-.36,68.84,38.87,89,68C1025.61,573.11,1039.29,592.88,1034,615Z"/><path class="cls-9" d="M1308,570c-6.57,37.09-44.15,67.9-83,68-5.61,0-29.24.08-46-16-39.37-37.78-16.83-141.72,29-154C1247.55,457.41,1318.39,511.33,1308,570Z"/><circle cx="981" cy="558" r="22"/><circle cx="1202.5" cy="525.5" r="21.5"/><path class="cls-10" d="M1467,621a495,495,0,0,1,40,137c4.68,33.68,15.68,120-20,218a413.26,413.26,0,0,1-20,46,777.49,777.49,0,0,1,0-401Z"/><circle class="cls-11" cx="969.5" cy="549.5" r="8.5"/><circle class="cls-11" cx="1189.5" cy="520.5" r="8.5"/></g><g id="レイヤー_9" data-name="レイヤー 9"><path class="cls-12" d="M1391,1012a484.06,484.06,0,0,1-94.5,110.5c-83.9,72.36-172.94,98.3-221.5,108.5a400.11,400.11,0,0,1,60.12,14.55A303.47,303.47,0,0,0,1250,1205C1351.17,1143.73,1383.1,1040.86,1391,1012Z"/><path class="cls-12" d="M709.5,1138.5a362.61,362.61,0,0,1-79.66-110.12C702.2,1184.5,759.61,1246,802,1264.54A347.7,347.7,0,0,1,892,1231C856.56,1224.13,779.13,1204,709.5,1138.5Z"/><path class="cls-12" d="M1131.5,1113.5c-59.31,11.82-114.27,4.45-127.5,2.5a389.72,389.72,0,0,1-115-36c-36.86-18.37-60-37.87-66-43a257.88,257.88,0,0,1-22-21c-13.51-14.61-33.1-39.67-48-78,6.31,26.83,21.8,75.63,63,119,62,65.22,141.76,75.76,189,82,36.63,4.84,102.75,12.76,178-17,106.54-42.13,157.16-130.44,172-159C1334,991.33,1256.79,1088.53,1131.5,1113.5Z"/><path class="cls-12" d="M1463,1025c-3-9.64-5.8-19.78-8.36-30.41q-1.41-5.87-2.64-11.59a470.59,470.59,0,0,1-114-54c7.23,7.4,17.89,16.94,30,29a279,279,0,0,0,25,22A430.63,430.63,0,0,0,1463,1025Z"/><path class="cls-12" d="M1046,993a371.79,371.79,0,0,1,284-46,180.8,180.8,0,0,0-46-22C1172.55,890.19,1063.52,978.41,1046,993Z"/><path class="cls-12" d="M852.5,968.5s149.31-10.31,136.41-156.9c.48,16.18-1,47.79-19.91,78.4-11.91,19.28-26.84,31.88-33,37-13.1,10.89-24.71,17.1-34,22A243,243,0,0,1,852.5,968.5Z"/><path class="cls-12" d="M1145,543c-1.27-14.15-.75-34.74,11-53,14.65-22.76,41-33,41-33s-9.91,4.52-20,15c-3,3.14-9,10.4-17,26A155.54,155.54,0,0,0,1145,543Z"/><path class="cls-12" d="M1036,560c-2-6.64-24.32-76.82-84-91a94.55,94.55,0,0,0-38-1,114.52,114.52,0,0,1,40,8c25,10,39.76,26.53,52,40A192.79,192.79,0,0,1,1036,560Z"/><path class="cls-12" d="M584,795.9c-2.16,2.22-4.91,5-4.91,5l0,0c-1.67,1.68-3.35,3.37-5,5q-12.13,12-24.19,22.82h0c-.22.27-2.07,1.92-5,4.49h0c-11.17,9.63-38.24,32.22-55.37,44-2.14,1.47-4.26,2.89-6.37,4.3l-.9.6c-2,1.33-4,2.63-6,3.9l-1.11.71c-2,1.26-3.94,2.5-5.9,3.71l-.9.56c-2,1.26-4.07,2.5-6.08,3.7l-.07,0q-3,1.8-6,3.53l-.8.46c-1.91,1.1-3.79,2.17-5.66,3.22l-1,.57q-2.77,1.54-5.5,3l-.9.48-5.58,3c-2.32,1.21-4.6,2.38-6.86,3.51,16.31,7,38.17-1.91,47.24-5.61,56.86-18.45,114.75-92.62,132.26-116.43,1.18-1.61,2.36-3.23,3.55-4.88l1.14-1.6h0l.07-.1q1.85-2.6,3.64-5.16l1.11-1.6c.81-1.16,1.63-2.32,2.42-3.47.42-.61.83-1.2,1.24-1.81l2.21-3.21,1.17-1.72,2.18-3.22,1.11-1.65,2.15-3.22,1-1.5c.73-1.11,1.46-2.21,2.17-3.3l.9-1.36,2.18-3.35c.27-.42.53-.84.8-1.25l2.19-3.41c.23-.36.46-.71.68-1.07l2.23-3.52.57-.91c.76-1.2,1.51-2.4,2.24-3.59.17-.26.32-.52.48-.78.77-1.23,1.52-2.45,2.26-3.67.13-.2.25-.4.37-.61q1.16-1.89,2.28-3.76c.09-.15.19-.3.28-.46.77-1.29,1.54-2.56,2.29-3.83l.18-.32c.78-1.31,1.55-2.62,2.3-3.91l.1-.17c.78-1.33,1.54-2.65,2.3-4l0-.08c1.24-2.14,2.13-3.73,2.27-4C662.58,708,672.06,691.44,674,688a180.33,180.33,0,0,0,12.44-27.71L687,659C628.93,737.07,585.9,793.94,584,795.9Z"/><path class="cls-12" d="M1154.39,632.12l.08.13-.08-.13Z"/><path class="cls-12" d="M1269,650c-31.66,17.9-74.64,19.07-100-1-1.28-1-2.49-2.09-3.68-3.2A95.24,95.24,0,0,0,1212,673c7.54,1.81,37.54,8.5,65.85-8.51,28.08-16.86,43.75-50.56,41.15-86.49C1318,584,1309.76,627,1269,650Z"/><path class="cls-12" d="M1052.8,614.05c0-.34.08-.67.11-1l-.07,0C1052.83,613.39,1052.82,613.72,1052.8,614.05Z"/><path class="cls-12" d="M834,693c49,42.94,144.86,38.32,193-15,17.37-19.23,25.59-58,23.59-50.7C1035.94,681,954.45,719.84,887,706c-24.83-5.09-53.57-18.53-73.55-38.15A100.31,100.31,0,0,0,834,693Z"/><path class="cls-12" d="M1325,1888l.26.48c15.77,11.91,12.5,21.14,29.24,31a60.17,60.17,0,0,0,24,8l1.11.11c2.94.26,32.57,2.81,44.89-16.11,4.07-6.25,6.06-14.56,5.5-22.94a34.89,34.89,0,0,1-9,17.44c-17.85,17.93-52.31,6.54-60,4A94.52,94.52,0,0,1,1325,1888Z"/><path class="cls-12" d="M531,1945c32.91,12,68-26.56,71.5-30.5a92.51,92.51,0,0,0,7.92-10.29,80.57,80.57,0,0,0,9.71-12.84c-2.23,3.1-33.32,44.87-79.13,40.63a77.18,77.18,0,0,1-36.31-13.47C509.4,1930.92,519.54,1940.83,531,1945Z"/><path class="cls-12" d="M702.87,1703.56h0A84.94,84.94,0,0,0,714,1678c3.56-14.54-1.21-12.5-7-63-9.5-82.88,1.41-103.08-11-160a329,329,0,0,0-23-68,525.63,525.63,0,0,1,21,91c10,73.1-2.51,99.39,10,146a138.17,138.17,0,0,1,5,50A131.77,131.77,0,0,1,702.87,1703.56Z"/><path class="cls-12" d="M1631.69,598.22l-2.07-3.38-.9-1.45-2.35-3.76-.46-.74-2.76-4.34-.69-1.06c-.69-1.08-1.38-2.14-2.06-3.19l-.83-1.27-2.08-3.15-.6-.91-2.64-3.93-.43-.63c-.73-1.08-1.46-2.15-2.19-3.2-.24-.36-.49-.71-.73-1.06l-2-2.86-.61-.87c-1.72-2.45-3.42-4.83-5.11-7.17l-.58-.8-2-2.79-.54-.74c-1.7-2.32-3.4-4.59-5.08-6.83l-.34-.44c-.73-1-1.47-1.95-2.21-2.92l-.45-.59c-.81-1.07-1.63-2.14-2.45-3.2h0v0A1069.45,1069.45,0,0,1,1658,663c10.79,23.5,20.25,46.33,28.54,68.28a284,284,0,0,0-14.82-54.08q-3.54-9.09-6.66-16.42c-2.48-5.72-5-11.15-7.47-16.22-10.45-20.51-22.09-40.06-22.09-40.06l-1.47-2.45C1633.84,601.74,1632.93,600.23,1631.69,598.22Z"/><path class="cls-13" d="M1452,628a420.82,420.82,0,0,0-31,245c-11.61-37.13-32.33-123.25,8-207A234.36,234.36,0,0,1,1452,628Z"/><path class="cls-12" d="M1348.5,1431.5c10.34-13.41,16.94-19.84,16.94-19.84,6.53-6.66,11.31-10.32,17.23-16.55a118.43,118.43,0,0,0,9.83-11.61c25.89-33.24,29.58-101.46,28.58-149-2.55,75.39-18.92,115.09-34.08,137.55-3.19,4.72-14.49,20.79-31.82,46.85-21.11,31.75-31,48-31,48A392,392,0,0,1,1348.5,1431.5Z"/><polygon class="cls-12" points="1285.5 1565.23 1285.5 1565.23 1285.5 1565.23 1285.5 1565.23"/><path class="cls-12" d="M1636,829l-.56-.26.34,0-1.82-.7c-38.87-15.39-61-45.38-81-73.07-18-25.07-29.18-47.34-37-63-6-12-10.41-22-13-28a545.34,545.34,0,0,1-23.5-66.5h0a379.21,379.21,0,0,0-89.9,30.24c-13.26-11.19-24.94-21.09-34.65-29.35.85,1,1.7,2,2.55,3.11a128,128,0,0,1,22,42,140.76,140.76,0,0,1,14.13-10.71A202,202,0,0,1,1421,619a148.42,148.42,0,0,1,15.91-5.22c2.49-.64,5.18-1.25,8.09-1.78a121.7,121.7,0,0,1,22-2,423.92,423.92,0,0,1,34,80c4.2,13.64,7.47,26.7,10,39l.35.59a441.75,441.75,0,0,1,7.15,46.91,213.15,213.15,0,0,0,64,38c5.62,2.11,11.1,3.89,16.39,5.41,8,3.12,21.83,7.68,36.26,8.81Z"/></g></svg>