<?xml version="1.0" encoding="utf-8"?>
<!-- Generator: Adobe Illustrator 24.1.2, SVG Export Plug-In . SVG Version: 6.00 Build 0)  -->
<svg version="1.1" id="レイヤー_1" xmlns="http://www.w3.org/2000/svg" xmlns:xlink="http://www.w3.org/1999/xlink" x="0px"
	 y="0px" viewBox="0 0 500 500" style="enable-background:new 0 0 500 500;" xml:space="preserve">
<style type="text/css">
	.st0{fill:#060001;}
	.st1{fill:#979797;}
	.st2{fill:#040000;}
	.st3{fill:#666666;}
	.st4{fill:#323333;}
	.st5{fill:#E4E043;}
	.st6{fill:#BBBB27;}
	.st7{fill:#E9E572;}
	.st8{fill:#681217;}
	.st9{fill:#636332;}
	.st10{fill:#881D22;}
	.st11{fill:#DEDBE1;}
	.st12{fill:#FFFFFF;}
	.st13{fill:#A52124;}
</style>
<g id="_x31_">
	<path class="st0" d="M240.2,40.8c6-20.5,27.7-32.1,45.9-31.2c15.6,0.7,25.9,10.4,35.8,19.7c26,24.4,31.5,55.5,32.6,62.8
		c0.8,5.2,4.4,32-8.6,62.6c-7.7,18-18.3,30.5-25.5,37.7c12.2,15.1,26.4,30.9,42.8,46.8c34,33.2,68.1,57.6,97.7,75.6
		c-19.2,19.9-36.1,25.2-47.9,26.5c-25.1,2.6-35.6-12.7-83.8-23.5c-16.7-3.8-29.2-6.5-45.8-6c-32.7,1-45.8,13.4-78.3,24.7
		c-4.1,1.4-48.8,16.5-101.1,11c-20.1-2.1-53.3-8.5-91-31.1c18.9-8.3,42.7-21,67.4-40.4c29.4-23,49.6-47.3,62.8-65.9
		c0.1-4.9-0.4-12.3-3.1-20.5c-8-24.1-26.4-28.4-25.2-43.5c0.1-0.9,1.8-5.8,5.2-15.7c2.3-6.8,3.4-9.5,3.5-14
		c0.1-3.2-0.3-5.8-1.2-10.7c-0.9-5.8-2-9.9-2.2-10.6c-1.6-6.5-3.1-33.2,13.9-55.6c3.9-5.2,23-30.2,49.5-26.8
		c18.1,2.3,28.4,16.4,29.2,17.5c14,19.9,3.9,43.2,3.3,44.5c2.8-1.2,7.9-3,14.6-2.9c6.5,0.1,11.5,1.9,14.3,3.2
		C243.1,71.7,235.4,57.3,240.2,40.8z"/>
	<path class="st1" d="M274.2,106.2c6.7-2.1-14.6-58,3.5-71.1c10.5-7.6,29.8,2.6,36.3,6.1c26.4,14,35.6,40.4,38.1,48.5
		c1.5,13.5,2.5,41.6-12.2,71.3c-6.7,13.5-14.8,23.7-21.7,30.9c12,16.6,27.1,34.8,45.7,53.2c33.6,33,67.5,55.4,94.8,70.3
		c-8.2,7.4-21.2,17.1-39.1,21.3c-23.4,5.4-35.9-9-91.2-23.1c-16.1-4.1-24.2-6.2-32.7-6.7c-32.5-2-52.2,11.2-78.2,21.6
		c-4.3,1.7-68.9,26.6-136.1,13.5c-28.6-5.5-50.8-16.6-65.7-25.6c75.9-5.7,128.4-54.3,130-102.6c1.1-32.3-20.7-57.5-30.8-67.6
		c3.2-3.2,9.2-10,11.9-20.4c4.7-17.8-3.4-32.4-5.3-35.6c4-27.1,10-33.1,14.6-33.9c15.3-2.7,50,46.8,56.4,45.8
		c0.6-0.1,1.1-0.2,1.1-0.2c1.5-0.6,2.7-2.2,6.3-6.3c4.9-5.6,18.5-20.8,32-21.3c11.5-0.4,21.8,10.2,30.2,18.9
		C270,101.3,272.1,106.9,274.2,106.2z"/>
	<path class="st2" d="M219.1,263.8C219.1,263.8,219.1,263.8,219.1,263.8c-3.8,3.3,27.5,65,81.1,102c53.7,37,110.4,36,120.6,35.6
		c28.7-1,51.6-8.1,66.1-13.8c-17.9,1.8-42.7,2.6-71.6-1.5c-22.3-3.1-64.1-8.9-104.6-34.9C258.5,317.8,223.9,260.8,219.1,263.8z"/>
	<path class="st3" d="M219.1,263.8C219.1,263.8,219.1,263.8,219.1,263.8c-3.3,3,28.4,61.8,80.5,97c48.3,32.6,99.2,34.7,116.1,35.2
		c26.5,0.8,48.6-3.2,63.7-7c-16,2.2-38,3.7-64,0.9c-18.3-2-60.1-7-100.9-32.6C258.6,322.2,224.1,260.5,219.1,263.8z"/>
	<path class="st4" d="M219.1,263.8C219.1,263.8,219.1,263.8,219.1,263.8c-3.3,3,38.8,67.7,84.3,99.7
		c53.6,37.7,120.2,35.6,165.4,27.9c-92.6,7.8-141.4-16-169-39.8C267.5,324,223.4,261.2,219.1,263.8z"/>
	<path class="st2" d="M212.3,341.4c0.5-12.6,0.8-22.6-3-35.1c-1.2-3.9-10.5-33.7-22.7-33.6c-14.3,0.1-28.4,41.1-29.9,75.2
		c-0.2,5.4,1.6,14.2,1.5,28.1c0,9.3,0.8,14.5,0.8,15.4c0.6,10.8,2.9,30.4,10.6,69.5c7.8,0.7,15.6,1.3,23.4,2
		c-0.1-6,0.3-15.1,2.6-25.9c1.9-8.6,3.6-11.9,4.6-17c1.6-8.1,1.4-20.3-7.8-37.3c3.7-2.1,9.2-5.9,13.4-12.3
		C207.2,368.3,211.6,361.2,212.3,341.4z"/>
	<path class="st4" d="M195.2,377.8c14.9-11.3,15.2-32.9,14.1-71.5c-0.8-28.3-27.4-52.2-36.7-13.6c-11.5,47.6-14.1,70.3-11.1,81.5
		c0,10.3,0.7,19.2,1.5,26.4c0.3,2.8,1.8,10.9,4.6,27c4,23,4.1,23.1,4.1,25.4c0,8.5-1.4,13,1.7,15.7c3.2,2.9,9.8,2.3,13.7-0.9
		c4.7-3.8,4.1-10,4.6-20.7c0.9-18.3,5.8-18.7,6.2-32.4c0.2-7.5-1-19.1-8.5-33.4C191.6,380.2,193.5,379,195.2,377.8z"/>
	<path class="st2" d="M303,433.3c-1.2-9.1-1.8-13.7-1.4-19.4c0.5-8.8,2.3-11.9,0.8-19.2c-0.9-4.2-2.7-8.8-3.7-11.4
		c-1.4-3.6-2.8-6.6-3.8-8.7c1.4-9.2,2.4-24.5-2.5-42.4c-6.6-24.6-20.7-40.4-27.8-47.3c-7.7,3.3-15.4,6.6-23.1,10
		c-3.6,15.4-9.4,50.2,9.9,78.6c1.9,2.9,4.2,5.8,6.9,8.6c-1.2,6.8-1.2,12.4-0.9,16.4c0.3,3.8,0.6,7.9,2.5,12.7c2.3,6,4.7,7.4,7.8,13
		c2.9,5.4,3.6,9.4,5.1,16.1c1.6,7.1,4.2,17.3,8.5,30.5c1.1,0.8,6.3,4.6,13.3,3.6c6.5-0.9,12.1-5.7,14.4-12.3
		C305.7,450.8,304,441,303,433.3z"/>
	<path class="st4" d="M300.1,429.5c-2.6-22.3,4.4-25-0.4-39.5c-1.7-5.2-4.4-10.4-7.6-15c10-29-20.5-79.1-27.4-90.2
		c-7.7,3.3-15.4,6.6-23.1,10c-2.5,16.4-6.8,58.4,15,82.7c0.7,0.8,2.4,1.4,4.5,1.8c-1.9,7.7-2.1,16.8-0.3,24.9c2,8.8,5.2,10.2,8.6,16
		c0.7,1.1,2.1,3.5,4.2,9.6c5.8,17.2,5.2,30,13.8,40c1.9,2.2,4.3,4.3,7.3,4.5c3.6,0.3,7-2.1,9.1-4.5
		C310.4,462.1,302.6,450.5,300.1,429.5z"/>
	<path class="st2" d="M321.2,472c3.6,7.1,2.5,14,1.9,16.6c-6.2,1.1-13.7,1.9-22.3,1.8c-8.8,0-16.5-1-22.8-2.2
		c-0.6-2.5-1.6-7.5,0.2-13.3c2.2-7.3,8.4-14.5,17.3-16.3C306.5,456.5,316.9,463.4,321.2,472z"/>
	<path class="st2" d="M191.2,459.9c8.9,8.5,11.3,17.5,8.5,20.8c-2.3,2.6-8.5,1.9-14.5-0.7c-4.3-0.2-10.8-0.4-18.6-0.2
		c-16,0.5-20.7,2.4-24.9-0.9c-6.1-4.8-7.3-17.2-2.1-22.8c7.8-8.4,26.7,1.3,28.2,2.2c0.1,0,0.3,0.2,0.7,0.4c3.6,2.1,4.3,1.6,6.2,2.9
		c1.2,0.8,5.5,4.1,5.6,4.1c0,0,0,0,0.1,0c0,0,0.1,0,0.1,0c3.5,0.7,7.1-1.6,7.1-1.6C189.6,462.8,190.7,460.9,191.2,459.9z"/>
	<path class="st5" d="M169.6,460.9c5.9,4,9.1,7.8,14,7.1c3.6-0.5,6.2-3.5,7.8-5.7c7.2,10.9,6.3,14.3,5.2,15.6
		c-1.8,2.3-6.9-0.2-17.6-0.5c-6.9-0.2-14.2-1.1-16.8-0.8c-0.4,0-0.6,0.1-0.8,0.1c-8.1,1.4-13.6,2.3-18-0.1c-0.8-0.4-2.5-1.4-3.7-3.3
		c-3.1-4.7-2-12.8,3.3-17.1C148.9,451.5,168.8,460.3,169.6,460.9z"/>
	<path class="st5" d="M321.9,476.5c1.1,4,0.8,7.6,0.3,9.9c-6.4,0.9-14.3,1.5-23.1,1c-7.7-0.4-14.5-1.5-20.2-2.7
		c-0.5-2.3-1.1-6.2,0.4-10.6c2.7-8.4,11.3-14.2,20.2-14.4C310.4,459.3,319.4,467.6,321.9,476.5z"/>
	<path class="st6" d="M139,469.6c5,2.2,9.2,3.4,11.9,4c4.4,1,10.6,1.9,35.3,0.2c3.8-0.2,6.9-0.5,8.8-0.6c0.9,3,0.3,4-0.1,4.4
		c-0.8,0.8-2,0.3-7.3-0.2c-0.5,0-1.3-0.1-2.9-0.2c-2.5-0.1-4.9-0.2-7.4-0.4c-8.4-0.7-12.7-1-14.9-0.9c-5.2,0.4-6.8,1.5-9.3,1.7
		c-0.9,0.1-1.7,0-2.9-0.1c-1.3-0.2-5.1-0.8-8.2-3.7C141.1,472.9,139.9,471.6,139,469.6z"/>
	<path class="st7" d="M279.9,472.2c5-8.1,14.1-12.6,23-11.3c10.4,1.5,15.7,10.1,16.4,11.3c-3.9,1.4-9.2,2.8-15.5,3.3
		C293.4,476.2,285,474,279.9,472.2z"/>
	<path class="st6" d="M279.9,473.3c3.8,1.7,10.8,4.2,19.9,4.1c9.3-0.1,16.4-2.9,20.2-4.6c0.2,0.6,0.3,1.5,0.2,2.4
		c-0.8,6-11.9,10-20.6,10.1c-6.2,0.1-16.8-1.8-19.2-8.4C279.9,475.5,279.9,474.2,279.9,473.3z"/>
	<path class="st0" d="M164.3,269.8c-2.2,11.1-1.7,14.3-3.2,25.4c-1,7.6-3,18.8-7.2,32.3c9.2-4.5,15.9-4.3,20.2-3.5
		c15.3,3,21.2,19,34.2,18.2c4.4-0.3,7.8-2.3,9.8-3.8c-0.6-10.2,0.3-18.4,1.4-24.4c0.2-0.9,2.3-12,3.9-11.8c1.1,0.1,0.8,4.7,2.7,12.9
		c0.8,3.7,2.4,9.9,6.3,16.5c2.5,4.2,5.1,7.2,6.9,9c2-2.7,5.4-6.6,10.7-8.5c9-3.1,15.8,2.2,26.8,3.2c5.9,0.5,14.8,0,26.3-6
		c-8-13.4-11.8-25-13.7-33.2c-4.2-17.3-2.3-27.9-8.6-54.4c-1.9-8-2.8-10.3-3.7-13.9c-3.7-15.6-2.3-40.4,23.1-79.8
		c-10.9-28.8-37.8-47.5-66.4-46.7c-34.4,0.9-53.7,29.6-55.5,32.2c7.4,63.1,2.5,92.3-4.4,107C172.4,243.8,167.3,254.4,164.3,269.8z"
		/>
	<path class="st8" d="M165.9,248.6c7.8,1.7,18.5,3.5,31.4,3.8c1.5,0,2.9,0.1,4.5,0c15.9-0.2,29.2-2.2,43.6-4.6
		c15.5-2.6,27.7-4.7,35.5-6c-0.5,3.7-0.9,9.3-0.7,16.2c0.2,6.1,0.9,10,3.3,24c3.6,20.9,3.6,21,4.1,22.6c1.9,5.9,5.4,14.3,12.9,23.5
		c-11.7-1-20.9-2-26.6-2.7c-12.7-1.4-17.6-2.2-23.1,0.5c-6.4,3.2-9.7,9.4-11.4,13.4c-4-4.8-8.8-11.9-11.4-21.3
		c-2.8-10.2-1.8-18.2-3.8-18.5c-2.1-0.3-5.6,8.1-7.1,15.3c-2,9.1-1.1,17.1,0,22.4c-8.6-0.4-14.1-3-17.6-5.3
		c-3.5-2.4-3.8-3.9-8.6-7.5c-4-3-9-6.7-14.5-7.6c-10.4-1.7-19.4,7.1-21.5,9.2c4.3-8.1,6.2-15.2,7.2-20.1c1.3-6.4,1.4-11.8,1.7-22.8
		c0.2-8.1-0.1-9.5,0.2-15.9C164.3,259.3,165.2,252.8,165.9,248.6z"/>
	<path class="st0" d="M264.5,273.6c0.8,14-9.7,29.2-17.7,28.4c-7.6-0.8-13.8-16-11.6-28.5c1.6-9.5,8.7-21.3,16.4-20.7
		C258.9,253.4,264,264.9,264.5,273.6z"/>
	
		<ellipse transform="matrix(0.1151 -0.9934 0.9934 0.1151 -55.202 493.3804)" class="st9" cx="249.3" cy="277.7" rx="21" ry="11.6"/>
	<path class="st0" d="M214.6,275c3.5,13-2.1,29.4-10.1,30.8c-7.9,1.3-17.6-12.2-19.8-24.6c-1.8-10.2,0.5-24.7,7.9-26.9
		C200.3,252.1,211.5,263.4,214.6,275z"/>
	<ellipse transform="matrix(0.9779 -0.2092 0.2092 0.9779 -54.0838 48.004)" class="st9" cx="199.9" cy="279.7" rx="11.6" ry="21"/>
	<path class="st10" d="M254.9,323.4c3.7-2.9,9.7-6.9,17.9-9.5c6.2-2,11.8-2.5,15.9-2.6c1.4,2.6,2.9,5.3,4.6,8.1
		c1.7,2.8,3.5,5.3,5.2,7.7c-2.8-0.3-7.2-0.7-12.6-1.3c-8.1-1-10.8-1.5-15.9-1.9C266.5,323.6,261.3,323.3,254.9,323.4z"/>
	<path class="st3" d="M287.2,335c1.9,4.2,4.2,10.6,5.2,18.6c1,8.7,0,15.9-1,20.7c-3.4-6.1-7.8-12.9-13.2-20
		c-7.5-9.6-15.1-17.2-21.9-23C266.6,332.5,276.9,333.7,287.2,335z"/>
	<path class="st3" d="M291.2,376.3c2.5,11.6,4.9,23.2,7.4,34.9c1-2.9,1.8-6.7,1.8-11.2C300.3,387.9,293.8,379.3,291.2,376.3z"/>
	<path class="st2" d="M238.8,183.4c16.1-24.1,32.1-48.2,48.2-72.2c4.2-0.9,8.5-1.8,12.7-2.6c10.6,3.4,26.8,10,43,23.2
		c7.2,5.9,14.8,12.2,21.6,23c12.8,20.3,12.4,40.3,12.1,53.7c-0.2,12.1-0.4,21.9-6,24.5c-6,2.8-16.5-3.5-26.3-15.6
		c1-3.4,3.1-12.1,0-22.5c-3-10.3-9.4-16.4-12-18.7c-1.1,0.8-12.8,8.8-26.1,4.1c-11.2-3.9-18.9-15.1-18.9-27.9
		C271,162.7,254.9,173.1,238.8,183.4z"/>
	<path class="st4" d="M238.8,183.4c16.1-24.1,32.1-48.2,48.2-72.2c6.1,1,12.3,2.1,18.5,3.1c14.7,7.3,26.1,14.8,34.1,20.7
		c13,9.5,17.5,14.9,20.6,19.7c4,6.3,6.2,12.3,8.2,20.1c4.4,17,11,54.7,2.1,58.1c-3.2,1.2-9.5-1.6-23.1-20.9c1.4-2.8,4-9.3,2.7-17.3
		c-2.4-15.1-16.4-21.9-17.8-22.6c-0.8,0.6-12.9,9.1-27,3.8c-9.9-3.8-16.8-12.9-18-23.6C271,162.7,254.9,173.1,238.8,183.4z"/>
	<path class="st2" d="M223.9,142.4c-0.8-2.7-6.1-20.6-24.1-28.7c-11.1-5-21.4-3.4-29.7-1.9c-27,4.7-45.3,22-54,31.5
		c-7.4,5.6-20.5,17-29.7,36c-12.7,26.2-10,50.6-8.4,59.8c1.6,2.4,5,6.6,10.8,8.9c10.7,4.3,24.7-0.1,27.8-7.7c3-7.5-6.8-13-8-24.6
		c-0.8-8.7,3.2-20.6,22.1-36c4.7,2.3,25.2,11.8,49.6,4.3C211.2,174.5,222.6,145.9,223.9,142.4z"/>
	<path class="st4" d="M223.9,142.4c-0.8-2.7-6.1-20.6-24.1-28.7c-11.2-5.1-21.6-3.4-29.7-1.9c-18.7,3.3-31.4,14-47.9,28
		c-10.8,9.2-16.2,13.8-21.7,21c-22.5,29.6-27.5,77.1-11.8,87.1c8.1,5.2,22.7,1,25.8-6c3.2-7.4-8-14.1-9.4-26.4
		c-1.1-8.9,2.8-22.1,25.6-40.3c4.7,2.4,24.9,12.1,49.6,5.2C210,172.1,222.2,146.2,223.9,142.4z"/>
	<path class="st3" d="M350.4,144.2c3.4,3.4,8.1,8.9,12,16.4c3.5,6.9,4.9,12.5,6.7,20.4c3,13,4.7,26.1,3.9,26.3
		c-0.9,0.2-3.4-16.4-11.8-38.6C357.3,158.1,353.3,149.7,350.4,144.2z"/>
	<circle class="st4" cx="176.9" cy="56.2" r="40.9"/>
	<path class="st2" d="M327.8,62.7c-2.1,19.3-18.7,35.3-38.1,37.1c-24.2,2.2-47.4-18.4-46.7-43.6c0.7-21.9,19.3-40.2,40.9-40.9
		C309.4,14.4,330.5,38.2,327.8,62.7z"/>
	<circle class="st4" cx="284" cy="56.2" r="40.9"/>
	<path class="st0" d="M353.7,94.1c-1.9-2.4-4.6-5.9-8-10.1c-7.8-9.3-11.8-14.1-17.2-17.1c-3.8-2.1-10.5-5.9-17.1-3.8
		c-8.2,2.7-11.3,13.2-12.4,16.5c-9.5,30,20.9,59.6,9.9,72.3c-1.1,1.2-3,2.9-7,3.8c3.9,14.4,9.5,24.5,13.8,30.9
		c1.8,2.6-0.5-1.1,36.1,43.7l0,0c14.2,16.3,33,35,57.1,53.2c17.6,13.3,34.6,23.7,49.8,31.9c-0.3,0.3-0.6,0.5-0.9,0.8
		c-8.4,2.2-20,4.5-33.8,5.2c-2.4,0.1-22.3,1.1-38.9-2.5c-23.5-5.1-28.4-16.7-68.4-46.1c-47.1-34.6-60.6-33.4-67.6-31.3
		c-11.9,3.5-17.2,14-23.4,22.9c-13.9,19.9-40,43.5-93.6,59c6.6-22.3,5.3-29,2.5-30.6c-6.8-3.8-20.2,23.1-53.1,33.4
		c-5.3,1.7-23,6.9-43.7,1c-10.1-2.9-17.6-7.4-22.3-10.8c4-1.8,9.5-4.3,16-7.6c11.8-5.9,20.8-11,23.7-12.8
		c26.2-15.4,49.5-37.8,49.5-37.8c9.8-8.8,19.4-19.1,46-59.4c3.4-5.1,5.3-8.1,5.1-12.3c-0.2-6.1-4.5-10.7-18-22
		c-6.1-5.1-13.9-11.4-23.1-18.5c2.1-5.2,5.7-12.6,11.9-20.4c3.4-4.3,4.1-5.5,6.7-8.1c6.3-6.5,5.2-16.7,5.3-27.4
		c0.1-8.8,1.1-21.1,4.9-36.3c-1.6,2-3.6,4.5-5.8,7.4c-12.4,17.1-15.5,29.2-16.5,28.9c-1.8-0.6-1.2-38.9,25.3-62.2
		c5.9-5.2,17.1-15.1,32.8-14.3c16.3,0.8,32.3,12.9,37.2,30c5,17.1-3.5,31.6-5.1,34.3c3.3-1.6,10-4.3,18.7-4.2
		c9.7,0.2,16.8,3.8,19.9,5.7c-2.6-3.2-6.8-9.3-8.4-17.9c-2.7-14.5,3.2-29.5,13.9-38.9c1.9-1.7,12.1-10.3,27.4-10.4
		c12-0.1,20.6,5.3,25.9,8.6C339.2,40,351.5,85.8,353.7,94.1z"/>
	<path class="st11" d="M352.1,89.7c-13.1-22.7-30.7-34.6-43.2-30.9c-8.2,2.5-12.3,11.1-14.4,15.4c-7.5,15.6,3.1,27.9,6.5,63
		c0.3,3.4,1,9.8,0.9,14.3c-0.1,3.7-0.1,4-0.1,4c-0.2,4.6-0.5,4.9-0.2,6.3c0.2,1.3,0.5,1.1,2.1,5.2c1.1,2.9,0.9,2.6,1.5,3.9
		c1.1,2.5,1.7,2.7,3.7,6.1c1.2,2.2,1.2,2.4,2.4,4.5c0.9,1.5,1.6,2.4,2.5,3.7c2.4,3.4,3.9,5.8,4.4,6.5c3.9,5.8,31.4,35.9,33.6,38.4
		c14.2,16.3,33,35,57.1,53.2c17.6,13.3,34.6,23.7,49.8,31.9c-51.7,10.4-80.5,0-97.3-11.5c-15-10.2-86.6-71.8-108.3-66.3
		c-13.2,3.3-20.7,12.8-27.6,22.6c-12.4,17.6-36.7,40.2-89.6,60c1.6-5.1,2.5-9.4,3.1-12.5c1-5.4,0.9-7.2,0.7-8.7
		c-0.5-3.4-2.2-7.8-4.2-9.2c-7.5-5.3-28.8,25.3-57,34.7c-13,4.3-33.1,6-62.9-8c4-1.8,9.5-4.3,16-7.6c11.8-5.9,20.8-11,23.7-12.8
		c24.2-14.1,47.2-35.6,49.5-37.8c7.7-7.2,27.5-26.5,46-54.6c2.4-3.6,6.1-6.2,7-11.2c3.4-18.4-27.4-38.2-41.3-46.4
		c0.7-2,1.9-5,3.3-8.6c1.8-4.5,2.4-5.6,3.1-7.8c0.8-2.4,2-6.4,2.4-11.6c0.9-11.4-3.3-15.3-4-28c-0.3-6,0.4-10.4,1.1-15.2
		c0.9-5.6,2.5-15.5,8.3-26.6c2.2-4.2,6.8-12.7,15.8-20.4c6.4-5.5,17.6-15.1,32.8-14.3c16.3,0.8,32.3,13,37.2,30
		c5,17.1-3.5,31.6-5.1,34.3c3.3-1.6,10-4.3,18.7-4.2c9.7,0.2,16.8,3.8,19.9,5.7c-2.6-3.2-6.8-9.3-8.4-17.9
		c-2.7-14.5,3.2-29.5,13.9-38.9c1.9-1.7,12.1-10.3,27.4-10.4c12-0.1,20.6,5.3,25.9,8.6C338.4,39.4,349.7,80.4,352.1,89.7z"/>
	<path class="st1" d="M135.8,320c5.5-4.8,13.1-12.5,19.8-23.4c18.5-29.9,20.8-69,20.8-69.8v0c0,0-2.6,11.9-6.9,23.2
		c-1.1,3.1-2.3,6.1-3.9,9.5c0,0-0.9,1.8-1.9,3.7c-2.5,4.6-11.5,17.7-24.1,34.9c-0.7,5-1.5,10.1-2.5,15.4
		C136.7,315.8,136.3,317.9,135.8,320z"/>
	<path class="st0" d="M147.3,168.9c4.1-4,8.9-9.5,13.2-16.8c7.8-13.1,10.2-25.7,11.1-33.5c0.4,6,0.3,14.6-2.4,24.5
		c-4.2,15.4-12.5,25.7-17.4,30.9L147.3,168.9z"/>
	<path class="st0" d="M215,75.2c-4,1-10,3-16.1,7.4c-10.1,7.2-14.6,16.5-16.4,20.9c3.2-5.3,9.4-13.8,19.9-20.7
		c6.1-4,11.9-6.3,16.5-7.7C218.9,75.2,215,75.2,215,75.2z"/>
	<path class="st0" d="M233.7,171.7c18.5-1.9,34.4-13.6,41.1-30.3c7.7-19.1,2.2-41.5-13.9-55.6c22.6,16.2,28.8,45.2,17,64.7
		C269.3,164.7,252,172.7,233.7,171.7z"/>
	<path class="st0" d="M129.1,51.9c-1.9,2.9-6,9.9-6,19.6c0,1.5,0.1,8.2,2.8,13.8c9.1,18.6,43,18,43.2,16.8c0.2-1-24.6-0.5-35.9-16.9
		C126,74.7,127.1,61.4,129.1,51.9z"/>
	<path class="st0" d="M301.9,155.7c-0.6,5.9-3.3,23.8-18,39.8c-14.8,16.1-32.5,20.1-38.3,21.2c12.1-1.1,31.4-5.1,46.3-20
		c1.7-1.7,3.3-3.5,4.7-5.2c2.2,2.1,4.6,4.2,7.3,6.2c12.2,9.4,24.9,14.2,34.9,16.8c-6.4-6.5-11.4-12.2-14.9-16.6
		c-3.1-3.8-5.4-6.5-8.2-10.6c-3.3-4.7-7.2-10.4-10.2-18.4C304.1,165.8,302.8,161.3,301.9,155.7z"/>
	<path class="st0" d="M174.5,172.5c5.8,20.1,16.5,26.9,20.2,29c22.4,12.3,61.2-1.2,88.1-39.8c-5.8,11.2-24.8,43.9-61.1,53.3
		c-5.4,1.4-40.2,10.3-51.1-7.1C162.3,194.7,173.1,175.1,174.5,172.5z"/>
	<path class="st0" d="M130.1,290c6.5-4.1,14.5-10,22.2-18.4c15.1-16.6,21.4-34.3,24.2-44.7c-1.8,8.7-4.8,19-9.7,30.1
		c-8.6,19.3-19.7,33.4-28.4,42.5c0.1-0.5,0.3-4-2.3-6.7C133.8,290.2,130.8,290,130.1,290z"/>
	<path class="st0" d="M267,239.6c-2.8-0.6-7-1.5-12.1-2.7c-6.7-1.6-10.1-2.3-11.8-2.9c-4.5-1.4-11-4.7-18-12.9
		c1,2.8,3.4,8.2,8.9,12.6c5,3.9,9.9,5,13.9,5.9C255.4,241.2,262.1,240.6,267,239.6z"/>
	<g>
		<path class="st0" d="M371.8,207c12.4,2.6,18.8,12.9,25.7,24c7.6,12.1,19.2,30.7,11.1,42.6c-6.1,8.9-20.1,9.2-25,9.1
			c0,0-11.3,1.7-17.3-2.5c-1.5-1.1-2.9-5.4-3.8-6c-2.5-1.8-12.4,3.6-18.7,1.6c-6-1.9-9.5-10.6-9-16.9c0.2-3,1.2-3.2,2.6-8.3
			c0.6-2.2,0.9-3.9,1-4.8c0.7-5.2,1.1-7.8,1.5-14.1c0.3-4.4,1.8-10.9,7.5-19.6C351.1,209.8,360.7,204.7,371.8,207z"/>
		<path class="st12" d="M366,250.3c-0.8,0.5-8.8,5-8.2,9.8c0.2,1.7,1.4,2.4,3.2,4.5c1.6,1.8,2.7,3.5,3.5,4.9c3,5.8,2.6,7.3,4.4,8.3
			c2.7,1.6,5.1-2.5,13.7-5.2c4.7-1.5,6.7-1.1,15.9-3.6c4.3-1.2,4.8-1.5,5.2-1.9c4.9-4.6-0.8-17.2-4.2-25c-3-6.9-7.7-12.7-10.5-16.1
			c-1.3-1.6-3-4.5-6.1-7.5c-1.6-1.6-3.8-3.6-6.2-4.9c-8.3-4.4-18.6,0.6-19.2,1c-8.4,4.2-11.6,12.3-13.1,16.1
			c-2,4.9-2.7,10.9-2.9,12.6c-0.1,1.1-0.1,2.2-0.1,2.2c0,1.5,0,2.6,0,4.5c-0.3,9.6-3.2,11.1-1.8,15.4c1.1,3.3,4.1,6.5,7.6,7.3
			c3.6,0.8,5.2-1.6,10.9-1.4c4,0.2,6.2,1.5,6.6,0.8c0.8-1.4-8.5-5.4-8.6-11.9c-0.1-2.9,1.7-7.1,4.6-9.9c0.2-0.2,0.5-0.4,0.6-0.5
			c3.6-3.2,7.5-3.7,13.5-4.5c4.8-0.6,9.8-1.2,14.1,1.8c1.2,0.9,2.1,1.8,2.6,2.4l0,0c0.5,1.1,0,1.7,0.1,3.4c0.2,3.3,2.1,5.6,2.4,6
			c0.5,0.6,1.4,1.5,2.8,2.3c-0.7-0.2-2-0.8-3.2-2c-1.5-1.5-2.1-3.2-2.3-4c-2.3,1.1-4.2,2.2-5.7,3c-2.1,1.2-2.9,1.8-3.1,2.8
			c0,0.3-0.1,0.8,1.2,2.9c0.8,1.3,1.5,2.4,2.1,3c-0.7-0.6-1.4-1.2-2.1-2c-1.1-1.2-2-2.5-2.6-3.5c-1-0.1-3.2-0.2-5.5,1
			c-3.9,2-4.8,6.1-4.9,6.8c-0.1-0.5-0.4-2.6,0.9-4.6c0.9-1.4,2.2-2,2.7-2.3c-0.1-0.4-0.7-2.4-2.8-3.5c-2.4-1.4-4.7-0.5-5-0.4
			c0.5-0.2,1.7-0.8,3.3-0.7c1.6,0.1,2.8,0.9,3.2,1.2c1.3,0.4,4.4,1.1,7.4-0.3c1.5-0.7,2.5-1.6,3.9-3.1c2-2,3.2-3.1,3-4.3
			c-0.2-1.7-2.7-3.2-6.1-3.5c0,0,0,0,0,0.1C379.4,247.3,372.6,246.3,366,250.3z"/>
		<path class="st12" d="M406.5,261.1c0.4,5.3-1,8-2.4,9.5c-3.4,3.7-8.8,2.4-19,4.2c-5.1,0.9-9.3,2.1-12.1,3.1c3.6-2.5,6.8-3.7,9-4.4
			c3.6-1.1,5.1-0.9,13.5-2.5c5.4-1,7.1-1.6,8.5-3.1C406,265.7,406.4,262.9,406.5,261.1z"/>
		<path class="st12" d="M404.9,270.4c-0.8,1.6-2.1,3.8-4.6,5.2c-3.7,2-6.6,0.5-13.6,0.5c-7.3,0.1-12.4,1.9-12.4,1.7
			c0-0.2,4.3-1.4,9.3-2.2c5.9-1,8.9-1.5,12.1-1.4c0.9,0,2.1,0.1,3.7-0.4C401.9,273,403.8,271.5,404.9,270.4z"/>
		<path class="st12" d="M396,277c-1.3,0.6-3.2,1.3-5.5,1.5c-2.8,0.2-4.4-0.6-7-1c-2-0.3-5-0.3-8.7,0.7c4-1.4,7.2-1.7,9.4-1.7
			c1.7,0,3.2,0.2,7.4,0.4C393.5,276.9,395,277,396,277z"/>
	</g>
	<g>
		<path class="st0" d="M92.9,230.5c-11,1.7-17.2,10.4-23.8,19.9c-7.3,10.3-18.4,26.2-11.8,37c5,8.2,17.3,9.1,21.7,9.2
			c0,0,9.9,2.1,15.4-1.4c1.4-0.9,2.8-4.6,3.6-5.1c2.3-1.5,10.8,3.8,16.4,2.4c5.3-1.4,8.9-8.9,8.8-14.5c-0.1-2.7-0.9-2.9-1.9-7.4
			c-0.4-1.9-0.6-3.5-0.6-4.3c-0.4-4.6-0.6-7-0.6-12.5c0-3.9-1.1-9.7-5.7-17.6C111,233.9,102.8,229,92.9,230.5z"/>
		<path class="st12" d="M95.9,269c0.7,0.5,7.5,4.8,6.8,9.1c-0.3,1.5-1.3,2-3,3.8c-1.5,1.5-2.6,2.9-3.3,4.2c-2.9,5-2.6,6.3-4.2,7.1
			c-2.5,1.3-4.4-2.4-11.9-5.2c-4.1-1.5-5.8-1.3-13.8-4c-3.7-1.2-4.1-1.6-4.5-1.9c-4.1-4.3,1.5-15.2,4.9-21.9c3-5.9,7.4-10.9,10-13.7
			c1.3-1.4,2.9-3.8,5.8-6.3c1.5-1.3,3.5-3,5.7-4.1c7.6-3.5,16.3,1.4,16.9,1.8c7.2,4.1,9.6,11.4,10.8,14.8c1.5,4.4,1.9,9.7,1.9,11.2
			c0,1,0,1.9,0,1.9c0,1.4-0.2,2.2-0.2,4c-0.2,8.5,2.3,9.9,0.8,13.7c-1.1,2.8-3.9,5.5-7,6c-3.2,0.5-4.5-1.7-9.5-1.7
			c-3.5,0-5.5,1-5.8,0.4c-0.7-1.3,7.8-4.4,8.2-10c0.2-2.6-1.2-6.3-3.6-8.9c-0.2-0.2-0.4-0.4-0.5-0.5c-3-3-6.4-3.6-11.7-4.6
			c-4.2-0.8-8.6-1.5-12.5,0.9c-1.1,0.7-1.9,1.5-2.4,2l0,0c-0.5,1-0.1,1.5-0.3,3c-0.3,2.9-2.1,4.8-2.4,5.1c-0.5,0.5-1.3,1.3-2.6,1.9
			c0.7-0.2,1.8-0.6,3-1.6c1.4-1.2,2-2.7,2.2-3.4c2,1.1,3.7,2.1,4.9,2.9c1.8,1.2,2.5,1.8,2.6,2.6c0,0.2,0,0.7-1.2,2.5
			c-0.8,1.1-1.5,2-2,2.6c0.6-0.5,1.3-1,1.9-1.7c1.1-1,1.9-2.1,2.5-3c0.8,0,2.8,0,4.8,1.1c3.3,2,3.9,5.6,4,6.2
			c0.1-0.4,0.5-2.3-0.6-4.1c-0.8-1.3-1.8-1.9-2.3-2.1c0.1-0.4,0.8-2.1,2.6-3c2.1-1.1,4.2-0.3,4.5-0.1c-0.4-0.2-1.5-0.8-2.9-0.7
			c-1.5,0-2.5,0.6-2.9,0.9c-1.2,0.3-3.9,0.8-6.5-0.6c-1.3-0.7-2.1-1.5-3.3-2.9c-1.7-1.9-2.6-2.9-2.4-3.9c0.3-1.5,2.5-2.7,5.6-2.8
			c0,0,0,0,0,0.1C84.3,265.6,90.3,265.1,95.9,269z"/>
		<path class="st12" d="M59.8,276.5c-0.6,4.6,0.5,7.1,1.7,8.5c2.8,3.4,7.6,2.5,16.5,4.6c4.5,1,8.1,2.3,10.5,3.3
			c-3.1-2.4-5.8-3.6-7.7-4.3c-3.1-1.1-4.5-1-11.8-2.9c-4.7-1.2-6.2-1.7-7.3-3.1C60,280.6,59.7,278.1,59.8,276.5z"/>
		<path class="st12" d="M60.7,284.8c0.6,1.5,1.7,3.5,3.8,4.8c3.1,2,5.8,0.7,12,1.1c6.4,0.4,10.8,2.3,10.8,2.1c0-0.1-3.7-1.4-8.1-2.4
			c-5.2-1.1-7.7-1.7-10.6-1.8c-0.8,0-1.9,0-3.2-0.5C63.2,287.3,61.7,285.8,60.7,284.8z"/>
		<path class="st12" d="M68.2,291c1.1,0.6,2.7,1.3,4.8,1.5c2.5,0.3,3.9-0.3,6.2-0.5c1.8-0.1,4.4-0.1,7.7,1c-3.5-1.4-6.3-1.8-8.2-1.9
			c-1.5-0.1-2.8,0-6.6,0C70.5,291.1,69.1,291,68.2,291z"/>
	</g>
	<path class="st1" d="M119,146.1c1.1,0.5,19.1,8.6,35.4-2c12.3-8.1,15-21.2,15.4-23.6c-0.6,4.8-1.7,10.6-4,16.9
		c-5,13.9-13.1,23.5-18.6,28.9c-2.7-2.8-5.8-5.7-9.5-8.7C131,152.2,124.5,148.6,119,146.1z"/>
	<path class="st1" d="M224.9,221.5c0.3,3.7,1,8.5,2.8,13.9c1.8,5.5,4.2,9.9,6.2,13c1.2-1.3,2.6-2.8,4.5-4.2c2.8-2.2,5.4-3.6,7.6-4.5
		c-2.4-0.5-5.7-1.5-9.2-3.6C229.1,231.4,226,224.3,224.9,221.5z"/>
	<path class="st0" d="M189.9,118.7c0,0,24.1,44.4,78.2,15c-10.8,20.1-33.8,28.8-52.4,21.6C201.3,149.8,191.2,135.4,189.9,118.7z"/>
	<path class="st8" d="M193.6,125.8c3.7,4.5,9.2,9.8,16.7,13.7c22.4,11.5,45.2,1.3,50.6-1.4c-15,13.3-33.7,17-48.5,9.3
		C201.2,141.4,195.7,130.6,193.6,125.8z"/>
	<path class="st0" d="M234,143.7L234,143.7c-4.6,0.1-8.7-0.4-12.6-1.4c-5.3-1.3-9.9-3.4-13.8-5.8l0,0c0.9,8.7-0.5,11.9-2.2,13.2
		c-2.9,2.3-6.5-1.4-11.6,0.9c-2.7,1.2-5.6,4.1-6.5,7.1c-2.6,8.8,9.3,25,23.1,24.8c14.7-0.2,21.9-19,22.3-20.1
		C235.7,154.5,234.8,147.4,234,143.7z"/>
	<path class="st10" d="M208.9,138.9c2.1,1.4,4.9,3,8.3,4.2c6.6,2.3,12.4,2.1,15.9,1.8c0.4,17.7-8.8,31.5-20.2,34
		c-2.1,0.4-7.8,1.3-15.3-2.7c-7.4-5.5-10.8-13.1-8.6-18.4c0.8-1.9,2.5-4.2,5-5.5c5.3-2.7,10.2,0.8,13-2.2c1-1.1,1.3-2.5,1.8-5.1
		C209.2,142.4,209.1,140.3,208.9,138.9z"/>
	<path class="st13" d="M204.8,152c1.2-0.3,2.1-0.8,2.7-1.1c2.2,1.6,5.7,3.8,10.4,5.2c5.4,1.6,10.1,1.6,13,1.3
		c-2.1,10.6-9.1,18.8-17.6,20.6c-2.9,0.6-8.3,0.9-13.6-1.7c-3.9-1.9-6-4.7-6.5-5.1c-0.5-0.6-4.6-5-3.6-10.8c0.1-0.8,0.7-4.2,3.5-6.4
		c2.3-1.9,5.1-2,5.5-2.1C200.9,151.6,202.2,152.6,204.8,152z"/>
	<path class="st0" d="M192.5,171.8c4-1.3,9.1-3.5,13.8-7.8c9-8.3,11.1-19.4,11.2-19.3c0.1,0-1.7,9.9-9.6,18.9
		c-4.7,5.5-10,8.7-13.8,10.6C193.6,173.4,193,172.6,192.5,171.8z"/>
	<path class="st0" d="M269.6,125.2c-3.5,4.8-3.4,9.7-1.1,11.5c0.3,0.3,1.7,1.2,4.5,0.7c-0.8-0.7-2.7-2.5-3.6-5.4
		C268.5,128.8,269.3,126.2,269.6,125.2z"/>
	<path class="st0" d="M192,110.7c1.3,5.8-0.7,10.3-3.6,11c-0.4,0.1-2,0.4-4.4-1.2c1-0.3,3.5-1.2,5.4-3.6
		C191.6,114.4,191.9,111.7,192,110.7z"/>
	<path class="st0" d="M217.9,135.8c0.3-0.1,0.3-2.1-0.8-3.6c-0.2-0.2-1.1-1.6-1.9-1.3c-0.4,0.2-0.7,0.8-0.7,1.6
		c0.4,0.2,1,0.4,1.5,0.9C217.5,134.5,217.7,135.9,217.9,135.8z"/>
	<path class="st0" d="M221.2,136.5c0.2-0.6,0.9-2,2.4-2.9c0.9-0.5,2.9-1.3,3.7-0.3c0.7,0.8,0,2.2,0,2.4c-0.6-0.1-1.4-0.2-2.2-0.2
		C223.4,135.6,222,136.1,221.2,136.5z"/>
	<path class="st0" d="M224.6,124.4c9-10.4,14.4-11.7,17.7-10.8c3.3,0.9,5.6,4.2,13,6.8c2,0.7,3.7,1.1,4.8,1.3
		c0.1,1.4,0.1,6.2-3.2,10.1c-4.1,4.8-10.2,4.8-12.5,4.8C232.9,136.6,225.5,125.8,224.6,124.4z"/>
	<path class="st0" d="M220.1,123.6c0.1-0.4,1.8-7.3-2.9-11.9c-0.7-0.7-3.3-3.3-6.7-3.1c-4.1,0.2-6.5,4.4-8.7,3.4
		c-0.8-0.4-1.2-1.3-1.4-1.9c-0.7,1.2-2.8,4.9-2.1,9.8c0.1,1.1,0.7,5.4,3.7,7.7C206,130.7,213.7,129.5,220.1,123.6z"/>
	<path class="st12" d="M225.9,124.4c6.5-7.4,15.2-9,19.6-5.7c2.6,2,3.4,5.4,3.6,7.6c-1.9,0.9-6.8,2.9-13.1,2.1
		C231.1,127.7,227.7,125.6,225.9,124.4z"/>
	<path class="st12" d="M218.9,122.8c-0.9-7.7-6.3-12-10.1-11.2c-3.5,0.7-5.2,5.7-5.4,6.2C203.4,117.7,211.5,125.6,218.9,122.8z"/>
	<path class="st0" d="M242.2,120.8c0,4.8-2.5,9.7-3.9,9.4c-1.4-0.3-2-5.7-0.2-10.2c0.6-1.5,1.9-4,2.9-3.8
		C241.9,116.3,242.2,119.2,242.2,120.8z"/>
	<path class="st0" d="M213.8,115.6c-0.1,4.8-2.4,9.7-3.6,9.5s-1.5-5.6,0.2-10.1c0.5-1.5,1.7-4,2.5-3.9
		C213.7,111.2,213.9,114,213.8,115.6z"/>
	<path class="st0" d="M234.9,111c-0.1-0.1,14.9-18,23.7-14.4c6.5,2.7,8.9,16.9,4.2,34.8c1-15,0.2-29.6-6.6-32.3
		C248.1,95.9,235,111.1,234.9,111z"/>
	<path class="st0" d="M223.2,109.5c-2.5-8.7-7-13.6-9.6-16c-2.5-2.3-6.1-5.6-9.5-4.6c-3.2,1-4.4,5.5-5.7,10.4c-1,3.9-2,9.8-1.4,17.2
		c-0.1-5.5,0.9-12.8,5.2-19.4c2.3-3.5,3.6-4,4.2-4.1C210.9,91.9,217.4,98.4,223.2,109.5z"/>
	<ellipse class="st12" cx="240.5" cy="122.4" rx="1.7" ry="2.7"/>
	<ellipse class="st12" cx="211.8" cy="118.1" rx="1.7" ry="2.7"/>
</g>
</svg>
