<?xml version="1.0" encoding="utf-8"?>
<!-- Generator: Adobe Illustrator 24.1.2, SVG Export Plug-In . SVG Version: 6.00 Build 0)  -->
<svg version="1.1" id="レイヤー_1" xmlns="http://www.w3.org/2000/svg" xmlns:xlink="http://www.w3.org/1999/xlink" x="0px"
	 y="0px" viewBox="0 0 1000 1000" style="enable-background:new 0 0 1000 1000;" xml:space="preserve">
<style type="text/css">
	.st0{display:none;fill:#333333;}
	.st1{fill:#333333;}
	.st2{fill:#FFFFFF;}
	.st3{fill:#CCCCCC;}
	.st4{fill:#666666;}
</style>
<rect id="BackGround" x="-25" y="-25" class="st0" width="1050" height="1050"/>
<g id="レイヤー_3">
	<g id="レイヤー_4">
		<g id="レイヤー_7_1_">
			<path class="st1" d="M635.6,529.3c-24.8-18.1-80.3-53.2-159.2-61.3c-59.6-6.1-107.8,6.1-135.4,15.3
				c-14.9,25.1-34.1,63.5-44.3,113.8c-2,9.5-2.9,16-3.4,21.2c-0.9,9.3-1.3,16-1.4,18.4c-1,22.2-10.7,46-18.1,63.8
				c-9.5,22.9-9.6,17.1-17.1,36c0,0-17.4,44.1-20,93.7c-0.2,4.8-0.3,6-0.3,6c-0.1,2.9-0.1,3.9-0.3,6.5
				c-2.2,27.3-24.5,56.6-24.5,56.6c-7.2,9.5-10.4,11.4-22,26.8c-3.7,4.9-6.6,9-8.4,11.6c-0.5,0.3-4.8,3-5.2,8.2
				c-0.3,3.6,1.4,8.2,5.7,9.8c3.7,1.4,8,0.2,10.6-3.1c0.1,0.2,2.3,5.2,7.7,5.9c3.8,0.5,7.5-1.4,9.5-4.7c0.2,0.3,3.3,5.8,9.6,6.2
				c4.3,0.3,8.4-1.9,10.7-5.6c1,1.5,3.1,4.1,6.5,5.5c5.5,2.2,12.1,0.7,17.2-3.7c8.3,11.4,24.6,13,34.5,4.4c10-8.7,10.6-25.4,0-35.2
				c-2.6-7.8-5.8-20-6.3-35c-1.3-38.1,16-63.8,31.4-97.6c9.5-20.9,21.6-52,30.1-93.5c40-24.5,81.3-54.2,121.8-90.6
				c6.3-5.6,12.4-11.3,18.3-17c27.8,23.1,66.2,50.3,115.4,73.8c39.1,18.6,75.3,30.1,105.4,37.6c-1.3,24.5-0.2,44.1,0.9,56.7
				c4.1,46.9,14.7,71.6,14.7,122.2c0,10.1-0.4,18.3-0.7,23.2c-1.8,3.1-4.1,7.6-5.9,13.3c-1.7,5.5-3.4,10.7-2.8,17.6
				c0.2,2.4,1.5,13.6,10.8,22.4c3.6,3.4,7.2,5.3,9.6,6.4c2.7,10.4,11.6,17.9,21.8,18.4c8.4,0.5,16.4-3.8,21.2-11.1
				c0.5,0.5,5.6,5,12.5,3.6c5.3-1.1,8.1-4.9,8.7-5.8c0.5,0.4,4,2.7,8.5,1.7c4.1-1,6.1-4,6.5-4.6c0.9,0.4,3.7,1.7,7.4,0.9
				c3.1-0.6,5.1-2.4,5.8-3.1c5,1.7,10.3-0.7,12.1-5c2.1-4.8-0.6-11.1-6.3-13c-2.7-1.9-6.6-4.7-11.2-8.2c-8-6-15.6-11.9-21.3-17.4
				l0,0c-13.8-12.1-19-28.9-19.7-31.1c-3.5-11.8-2.5-21.8-1.6-30.1c4.3-37.2,9.9-54.9,12.2-72.6c2.9-21.8-0.6-38.1-7.2-70.9
				c-6.4-31.3-12-59.3-31.5-88.5c-12-18.1-24.7-29.1-49.6-50.9C674.4,555.8,651.7,539.9,635.6,529.3z"/>
			<path class="st2" d="M416.5,542.9c-9.2-7.7-17.3-15.6-36-31.2c-11.9-9.9-23.6-19.2-35.1-27.9c-23.3,37.4-35.2,71.3-41.6,98.6
				c-8.4,35.1-4.1,44.1-13.8,82.2c-12.8,50.9-24.1,49.1-38.4,97.8c-19.1,65.1-2.1,79.1-24.9,119.4c-17.6,31.1-41.6,47.4-43.5,57.8
				c-3,1-5.1,3.6-5.4,6.6c-0.4,3.5,1.8,7.1,5.3,8.2c2.9,0.9,6.2-0.2,8.2-2.6c-0.1-0.3-1.2-3,0.3-5.7c1.3-2.3,3.6-2.9,4-3.1
				c-0.4,0.4-3.2,3-2.9,6.7c0.4,4.4,4.9,8,9.4,7.6c4.1-0.4,6.4-4,6.6-4.5c-0.2-0.8-1-4,0.7-7.3c2.3-4.6,7.4-5.4,7.9-5.5
				c-5.1,1.5-8,6.5-7,10.9c1.1,4.8,6.2,7,10.2,6.9c5-0.2,8-4.2,8.4-4.7c-0.4-1.3-1.2-4.5,0.1-8.2c2.4-6.8,9.7-8.5,10.2-8.7
				c-1.2,0.5-4.9,2.2-7.1,6.3c-0.7,1.2-2.7,5-1.3,9.1c1.6,4.7,6.7,7.3,11.2,7.4c6,0.1,9.8-4.2,10.3-4.9c-1-1.9-2.2-5.3-1.8-9.4
				c0.7-6.9,6.1-13,13.6-15.8c-0.7,0.4-11.5,6.8-11.4,17c0,1,0.1,4.3,2.1,7.8c3.2,5.3,8.8,7,10.7,7.6c1.1,0.3,3.3,0.9,5.9,0.9
				c11.2,0,20.3-9.1,20.3-20.3c0-6.3-2.9-11.9-7.4-15.7c-2.3-10.4-7.1-24-7.8-41.6c-1.2-32,12.6-45.4,34.6-98.6
				c8.2-19.9,19.4-49.9,29.4-88.6c19.3-15.1,38.5-30.3,57.6-45.5c28.3-22.5,56.4-45.1,84.4-67.8C452,570.1,430.7,554.7,416.5,542.9z
				"/>
			<path class="st2" d="M828.5,948.9c-10.4-8.6-36.5-20.8-50.5-47.2c-24.4-45.7,14.5-80.6,3.6-160.4c-4.2-31.1-14.5-62.1-17.4-71.3
				c-2.6-7.9-5.5-15.9-10.1-25.1c-2.4-4.9-4.7-8.9-7-12.5c0,0-7-11.5-16.4-22.6c-9.9-11.6-46.5-42.3-101.4-76.1
				c-10.1,0.3-21,1.2-32.7,3.3c-49.7,9.2-85.2,35.2-105.4,53.3c30.2,22.4,69.8,47.6,118.6,69.5c38.6,17.2,74.3,28.8,105.1,36.5
				c-3.3,13.8-6.3,34.5-1.6,59.4c0.4,2.4,0.9,4.1,1.1,5.3c17.8,106.8,9,145.6,9,145.6c-2.5,6.9-5.6,13.5-7.4,20
				c-1.6,5.8-2,12.2,0.6,19.2c4.1,10.6,14,15.3,17.2,16.7c0.4,2,1.6,7,6,11.3c1.7,1.6,6.5,5.9,13.6,6.1c7.9,0.3,17-4.5,19.3-12.5
				c0.4-1.3,1.9-7.2-1.9-12.4c-3.7-5.3-9.8-5.9-10.7-6c0.4-0.1,7.4-1,12,4.3c3.2,3.7,4.1,9,2.1,13.7c0.7,0.9,2.8,3.7,6.3,4.8
				c1.6,0.5,3.2,0.5,3.4,0.5c0.2,0,1.8,0,3.5-0.5c2.4-0.7,5.5-2.7,6.6-5.2c1.7-3.9-0.9-10.2-7.2-13.8c0.4,0,5.8,0.8,8.2,5.6
				c1.8,3.5,0.8,6.9,0.5,7.7c0.7,0.5,1.8,1.1,3.2,1.5c0.6,0.2,1.5,0.4,2.8,0.4c0.4,0,1.7,0,2.9-0.4c2.2-0.7,4.2-2.4,5-4.2
				c1.4-3.2-0.8-8.6-6.3-11.5c0.3,0,5,0.4,7.2,4.6c2.1,3.9,0.3,7.7,0.1,8.1c0.7,0.4,1.8,0.9,3.2,1.2c0.6,0.1,1.4,0.3,2.4,0.3
				c0.9,0,2.7,0,4.3-1c0,0,1.7-1.1,2.5-3.1c1.1-3.1-1.2-7.6-5.9-10.8c3.4,0.5,6.2,2.8,7.2,5.8c0.9,3-0.3,5.5-0.7,6.2
				c0.4,0.2,1,0.3,1.7,0.4c0,0,0.5,0.1,1,0.1c4.1,0,7.4-3.3,7.4-7.4C833.6,952.7,831.5,949.9,828.5,948.9z"/>
		</g>
		<g id="レイヤー_5">
			<g id="レイヤー_6">
				<path class="st3" d="M734.2,962.5c0.7,1,7.6,11,20.1,11.4c10.2,0.4,17-5.8,18.3-7c-0.4,1.2-1.1,2.9-2.3,4.6
					c-4,5.7-11.5,8.7-18.2,8C743.6,978.6,736.3,971.7,734.2,962.5z"/>
				<path class="st3" d="M774.5,966.9c1.5,0.8,5.8,2.8,11.3,2.1c4.1-0.5,7-2.3,8.4-3.3c-0.3,0.5-2.8,5.3-8.2,6.2
					C781.6,972.6,777.2,970.7,774.5,966.9z"/>
				<path class="st3" d="M795.8,965.8c1.5,0.4,4.3,0.9,7.6,0.1c2.7-0.6,4.7-1.7,5.8-2.5c-0.4,0.7-2.1,3.1-5.3,4
					C799.7,968.5,796.3,966.1,795.8,965.8z"/>
				<path class="st3" d="M810.6,964.3c1.4,0.3,3.8,0.7,6.6,0.2c2.2-0.4,3.9-1.2,5.1-1.8c-0.3,0.6-1.1,1.7-2.5,2.4
					c-1.3,0.7-2.5,0.7-3.6,0.7C814,965.8,812,965.1,810.6,964.3z"/>
				<path class="st3" d="M823.7,962.8c1.3-0.1,2.9-0.4,4.8-1c1.7-0.6,3.1-1.4,4.1-2c-0.3,0.5-1.7,2.7-4.5,3.3
					C826,963.6,824.3,963.1,823.7,962.8z"/>
				<path class="st3" d="M723.5,907.8c-1.2,6.6-2.4,17.6,0.5,30.6c2.3,10.4,6.2,18.3,9.4,23.6c-2.6-1.1-9.3-4.2-13.9-11.5
					c-1.2-1.9-3.7-6.4-4.3-12.6c-0.5-4.8,0.5-8.3,2-13.8C718.3,919.8,720.2,914.2,723.5,907.8z"/>
				<path class="st3" d="M494.3,592.6c7-0.4,15.3-1.5,24.4-3.7c11.9-2.9,21.6-7,29.1-10.8c18.2,16.3,38.3,33.1,60.7,49.8
					c37.3,27.9,73.3,50.3,106.3,68.3c-30.7-7.7-66.5-19.2-105.1-36.5C562.3,638.5,523.9,614.3,494.3,592.6z"/>
			</g>
			<g id="レイヤー_7">
				<path class="st3" d="M291.2,945.4c-2,2.1-7.8,7.7-17.4,9.5c-9,1.8-16.2-0.8-18.9-1.9c4.4,6.7,12.5,10.2,20.3,8.7
					C283.4,960.2,289.8,953.6,291.2,945.4z"/>
				<path class="st3" d="M252.4,954.2c-2.8,0.7-6.8,1.3-11.6,0.9c-3.6-0.3-6.6-1-9-1.8c0.4,0.7,1.2,1.7,2.4,2.7
					c3.5,2.9,7.6,2.9,8.4,2.9c0.5,0,2.1-0.1,4.1-0.8C249.6,957,251.5,955.2,252.4,954.2z"/>
				<path class="st3" d="M228.9,953.1c-1.9,0.6-5,1.4-8.8,1.2c-4-0.2-7.1-1.3-9-2.1c0.4,0.8,1,1.9,2.1,3c3.3,3.1,7.7,2.5,8.4,2.4
					C226,956.9,228.4,953.7,228.9,953.1z"/>
				<path class="st3" d="M208.8,952.7c-0.8,0.7-3.1,2.4-6.6,2.6c-5.1,0.2-8.5-3.3-8.9-3.8c0.3,0.7,1.6,3.6,4.7,5
					c0.6,0.3,3,1.3,5.6,0.4c1-0.3,1.7-0.8,2.1-1.1C207.4,954.8,208.3,953.5,208.8,952.7z"/>
				<path class="st3" d="M191.3,951.8c-1,0.5-3.3,1.4-6.2,1c-3.2-0.3-5.4-1.9-6.2-2.5c1.2,2.5,3.6,4.1,6.3,4.3
					C188.8,954.8,191.1,952,191.3,951.8z"/>
				<path class="st3" d="M475.2,590.5c-16.9,13.7-33.9,27.4-50.9,41c-27.7,22.2-55.6,44.2-83.5,66.2c20.1-17.5,46.1-44.7,67.3-83.4
					c9.8-18,16.8-35.1,21.8-50.2C445,572.8,460.1,581.7,475.2,590.5z"/>
			</g>
		</g>
	</g>
</g>
<g id="レイヤー_8_1_">
	<path class="st1" d="M209.7,175.7c0.2-19.2-16.1-34-33.4-32.6c-15.4,1.3-28.4,15.2-28.2,32.2c3.4,7.3,7.6,18.1,9.9,31.8
		c1.9,11.1,1.7,19.9,1.5,25.3c-1.2,28.2-8.1,52.7-11.7,72.6c-7.4,40.8-7.2,97.4,15.6,109.6c6.2,3.3,12,2.6,51.9-8
		c26.6-7.1,48.9-13.6,65.8-18.6c39.3-11.6,256.3-65.6,441,40.4c14.8,8.4,32.9,20.1,52.6,35.5c-0.8,10.1-0.7,28.6,7.9,48.9
		c5.6,13.4,14.8,27.4,23.9,34.9c0.7,0.6,6.2,5.2,13.5,11.5c5.3,4.6,8,6.9,8.6,7.6c6.1,7.1,10.3,19.3,5.6,28.5
		c-0.3,0.7-0.3,0.5-0.8,1.3c-4.1,7.6-6.7,19.8-0.8,27.8c2.6,3.5,6.2,5.5,8.5,6.7c3.6,2,7,2.9,7.8,3.1c0,0,0.9,0.2,1.8,0.4
		c5.2,1,20.2,3.1,29.2-6.7c1.5-1.6,3.4-3.7,4.4-7.1c2.4-8.8-4.8-16.3-12.2-28.2c0,0-6.5-10.2-14-28.2c-7.5-17.9-7.7-31.2-9.2-41.5
		c-2.4-16.5-10.1-40.2-34.5-69.3c-0.8-11-5.3-56.8-40.1-91.8c-5.8-5.9-30.3-30.4-67.2-37.5c0,0-0.8-0.1-1.9-0.3
		c-228.3-41.5-306.9-8.4-391.9-26.6c-8-1.7-30.3-6.9-56,0.9c-19.6,5.9-33.3,17-40.9,24.1c-7.1-13-16-33.4-19.2-59.6
		c0,0-3-25.2,2-51.6c2.3-12.4,6.3-24.2,6.6-25C207.2,181.8,208.7,178.2,209.7,175.7z"/>
	<path class="st2" d="M725.7,422.2c13.2,10.5,30.5,24.1,51.5,39.3c-0.1,41,12,63.5,23.5,76.7c14.9,17.3,30.7,20.8,36.3,40.2
		c6.4,22.2-8.9,36.7,0,47.5c9.4,11.4,38.1,9.3,44.2-2.4c5.2-9.8-9.1-19.2-22.6-51.5c-12-29-7.1-37-18.5-65.4
		c-5.2-12.8-14.1-31.1-30.7-51.4c-0.4-11.6-3.5-53.8-36.9-89.6c-25.4-27.3-55.2-36.5-67.8-39.6c-3.9,2.1-9.5,6.1-15.4,11.8
		c-6.6,6.6-12.8,15.8-13.8,27.2C674.4,377.6,683.7,388.7,725.7,422.2z"/>
	<path class="st2" d="M312.8,300.2c14,11.9,19.2,31,13.2,47.8c-6.5,18.3-25.1,30.1-45,28.5c-17.6,6.6-31.9,11.9-41.2,15.7
		c-16.6,6.5-22.8,9.1-33.2,12c-21.7,6.3-32.6,9.4-40.6,5.8c-3.2-1.5-16.7-8.7-17.6-60.1c-1.2-71.1,24-98.9,12.4-149.1
		c-4.2-18.3-11.6-31.9-16.1-39.4c20.7,4.2,41.5,8.5,62.2,12.7c-3,6.1-5.6,12.7-7.8,19.7c-17.2,54.6,2.3,106.3,14.5,131.7
		c-2.7,3.9-5.9,9.2-8.5,15.8c-3.2,8.1-4.3,15.5-4.8,20.8c2.5-9.8,7.9-25,20.8-38.4C255.2,288.3,308.5,299.3,312.8,300.2z"/>
	<path class="st3" d="M742.4,391.3c2.1,9.2,5.4,20.2,10.7,32c7.5,16.6,16.5,29.2,24,38.2c-8.3-6.1-16.8-12.4-25.3-18.9
		c-7.6-5.8-15-11.6-22.2-17.3C733.9,414,738.2,402.7,742.4,391.3z"/>
	<path class="st3" d="M281,376.5c-11.1,4.1-20.2,7.6-26.6,10.1c-16.7,6.7-26.4,11.1-42.4,16c-5.2,1.6-9.5,2.8-12.4,3.5
		c15.9-7.2,37.6-18.1,61.8-34c19.4-12.7,46.6-32.6,46.9-32.2c0.2,0.3-14.6,8.4-23.1,25.4C283.3,369.3,281.9,373.1,281,376.5z"/>
</g>
<g id="レイヤー_2_2_">
	<path class="st1" d="M738.6,355.6c21.9,31.3-26.4,100.6-33.2,110.4c-15.7,22.3-47.7,60.3-107.1,89.2c-3-1-15.6-4.4-29.3,1.8
		c-14.3,6.3-20,18.3-21.2,21.2c-14.1,7-26.4,10.4-34.9,12.1c-12,2.5-19.6,2.4-21.7,2.3c-3.7-0.1-11.8-0.6-21.6-3.6
		c-19.1-5.8-31.7-17.5-42.1-27.2c-3.9-3.6-6.5-6.5-6.5-6.5c-3.3-3.7-5.1-6.5-8.2-10c-2.9-3.3-5.7-5.6-7.6-7.2
		c-10.8-8.6-24-16.1-24-16.1c-9.7-5.4-18.9-15.4-37.4-35.4c-5.4-5.8-10.9-11.7-17.5-20.1c0,0-26.2-32.8-43-78.9
		c-0.8-2.1-2.5-5.9-2.4-11.2c0.1-19.5,22.7-33.8,33-39.5c-0.3-2.4-2.1-17.7-1.8-25.4c0-0.8,0.3-5.3,0.7-11.2c0.1-1.1,0.1-2,0.2-2.5
		c4.4-16.3,29.4-103.2,113.3-145c17.1-8.5,53.1-23.5,99.9-21.1c14,0.7,89.5,4.5,140.8,67.8c41.4,51.2,41.1,109,40.4,125.4
		c-57.7-6.7-71.1-7.3-71.2-6.5c-0.2,1.3,26.4,14,67.5,19.8C716.4,339.8,730.7,344.3,738.6,355.6z"/>
	<path class="st2" d="M735.8,362.4c8,16.5,1.3,34.5-1.9,42.9c-17.4,46-139.6,213.2-274.7,174.2c-42.8-12.4-161.5-131.9-168.5-189.4
		c-0.9-7-2.3-20.5,4.9-34.2c5.4-10,13.2-15.9,18.3-19.1c-0.6-3.3-1.3-8.1-1.4-13.9c-0.2-9,0.8-22.2,11.6-48.5
		c1.3-3.1,11.7-28.2,23.7-45.8c61.7-90.4,159.2-95,159.2-95c5.7-0.3,112.5-3.3,168.7,83.1c33,50.7,29.9,103.5,28.2,121.3
		C711.2,340.4,728.1,346.7,735.8,362.4z"/>
</g>
<g id="レイヤー_3_1_">
	<g id="レイヤー_6_1_">
		<path class="st1" d="M327.6,373.9c21.3,18.2,73.2,57,149.9,66.9c111.4,14.5,193.2-42.7,211.7-56.4
			c-18.4,30.4-52.9,75.9-110.9,105.2c-25.3,12.8-51.9,26.2-87,23.6c-60.2-4.6-101.7-52.9-124.4-79.7
			C347.2,410.3,334.8,388.3,327.6,373.9z"/>
		<path class="st4" d="M429.4,489.7c8.9-5.8,33.6-20.2,68.1-19.6c35.5,0.6,60.1,16.8,68.6,23c-9.5,5.8-35,19.7-70,18.5
			C462.4,510.5,438.7,496.1,429.4,489.7z"/>
		<path class="st1" d="M666.2,366.2c14.9-1.3,29,4.9,36.3,16.4c6.4,10,5.5,20.4,5.1,24c4.7-3.8,15.5-13.4,13.8-22.6
			C719.1,372.5,697.4,362.8,666.2,366.2z"/>
		<path class="st1" d="M349.8,366.2c-1-0.3-14.9-4.4-25.4,4.7c-9,7.6-11.6,21.2-5.9,33.1c-2.5-4.7-6.2-13.2-6.5-24.4
			c-0.2-6.3-0.4-11.5,2.6-15.3C319.9,358,334.3,358.7,349.8,366.2z"/>
		<path class="st1" d="M424.6,496.3c7.6,6.7,28.5,23,59.9,26.9c37.4,4.6,65.1-11.2,73.2-16.2c-14.3,15.3-28.8,22.8-37.6,26.5
			c-10.2,4.3-20.8,8.8-34.1,6.7c-3.4-0.6-10.5-2.1-27.3-14C449.7,519.7,437.6,510,424.6,496.3z"/>
	</g>
	<g id="レイヤー_4_1_">
		<path class="st1" d="M527.9,268.2c-2.2,6.1,4,14.1,10.8,17.7c10.1,5.5,19-1.2,36.3,3.1c3.8,1,7,2,10,3.6c5.6,2.9,9,6.5,10,7.5
			c4.4,4.5,14.1,12.2,36.4,26.7c-14.5-5.3-25-11.4-31.9-16c-11.2-7.3-19.2-12.6-32.2-15.6c-6.9-1.7-12.9-1.9-17-1.8
			c5.4,0.9,13.4,2.7,21.9,7.5c12.6,7.1,19.8,16.7,23,22c-2.2-2.4-5.2-5.3-8.8-8.3c-1.1-1-6.2-5.1-13.1-9
			c-10.7-6.2-21.1-9.3-28.5-11.2c-3.5,0.1-8.8-0.4-12.2-4.3c-0.3-0.3-0.6-0.7-0.9-1c-2.9-3.7-11-14.7-6.3-22.2
			c3.8-6.3,13.7-6.2,15.2-6.1C539.5,261.1,530.1,262.2,527.9,268.2z"/>
		<path class="st1" d="M469,273c-0.7,2.7-1,4.5-2.2,5.9c-6.1,7.4-28.1-0.7-46.9-1.1c-1.9,0-5.7,0-10.3,1.1c-5.9,1.5-10,4-11.2,4.8
			c-5.2,3.1-16.1,8.3-40.4,16.7c7.4-0.8,13.9-2.1,19.6-3.4c5.2-1.2,9.1-2.6,14.1-4.3c8.9-2.9,14.5-5.3,16.7-6.1
			c7.1-2.6,18.3-4.6,35.7-1.6c-2.6-0.1-6.5-0.1-11.1,0.6c-3.6,0.6-7.7,1.7-13.6,4c-11.4,4.7-21.2,11.5-26.7,15.5
			c2.3-1.7,5.7-3.8,10.2-5.8c6.9-3,11.4-3.6,25.7-5.7c0,0,22.5-3.3,36.4-9.9c1.3-0.7,3.3-1.7,4.7-3.8c2.7-4,2-9.1,1.6-11.5
			c-0.3-1.8-1-4.7-2.8-8C469.4,262.9,470.3,267.5,469,273z"/>
		<path class="st1" d="M639.9,330.6c3-1.5,8.1-3.1,14.5-2.8c2.3,0.1,12.7,0.7,14,5.6c0.7,2.6-1.5,5.5-2.8,7.1
			c-0.8-1.3-1.9-3-3.8-4.7c-3.5-2.9-7.1-3.9-10.5-4.5C648.4,330.7,644.6,330.3,639.9,330.6z"/>
		<path class="st1" d="M636,331.1c3.3,0.6,8.1,1.8,13.4,4.4c3.1,1.6,12.2,5.9,11.6,9.7c-0.1,0.8-0.9,2.2-4.7,3.5
			c-0.3-1.6-0.9-3.7-2.3-6.1c-2-3-4.4-4.6-8-6.8C643.7,334.3,640.3,332.5,636,331.1z"/>
		<path class="st1" d="M351.2,301.1c-1.9-1.2-5.1-2.7-9.2-3.4c-1.9-0.3-8.1-1.2-9.2,1.2c-0.9,2,1.9,5.1,2.5,5.7
			c-1-2.1-0.7-3.3-0.3-3.8C336.6,298.3,342.8,298.5,351.2,301.1z"/>
		<path class="st1" d="M351.6,302.9c-5.7,0.8-10,2.3-12.8,3.6c-4.4,2-5.2,3.3-5.3,4.4c-0.6,2.8,2.8,5.4,3.3,5.7
			c-0.6-1.6-0.6-2.8-0.4-3.8C337.1,307.9,343.2,304,351.6,302.9z"/>
		<path class="st1" d="M456.2,256c-5.8-2.2-14.8-5.9-25.3-11.7c-16.1-9-21.6-15.2-31.7-15.6c-5.6-0.2-13.9,1.3-24.5,10.4
			c6.8-3.1,16.8-6.5,28-4.2c8.3,1.7,12.2,5.5,22.7,10.7C432.4,249,442.6,253.1,456.2,256z"/>
		<path class="st1" d="M553.8,253.6c0-0.2,4.2-1,37.8-6.3c16.4-2.5,24.8-3.7,30.9-0.3c8.5,4.7,12,14.5,13.5,20.3
			c-3.6-4.5-9.8-10.9-19.1-14.4c-6.2-2.3-11.5-2.6-25.3-2C568.2,251.8,553.8,254,553.8,253.6z"/>
		<path class="st1" d="M523.9,249.6c0.6-2.4,1.7-5.3,3.6-8.1c7-10.5,19.4-12.4,22.3-12.8c-3.1,0.6-9,2.1-14.9,6.6
			C528.2,240.4,525.1,246.7,523.9,249.6z"/>
		<path class="st1" d="M475.6,249c0,0-11.5-13.3-26.1-13.3c3,1,6.1,2.2,9.4,3.7C465.5,242.4,471.1,245.8,475.6,249z"/>
	</g>
	<g id="レイヤー_5_1_">
		<path class="st1" d="M573.7,364.2c16.2,2.4,29.2,3.8,38,4.7c17.1,1.7,27.6,2.1,34.2,10.1c3,3.6,4.2,7.6,4.8,10.4
			c-1.9-2.5-4.9-5.9-9.2-9.2c-9.2-6.9-18.2-8-39-11.3C596.2,367.9,586.3,366.3,573.7,364.2z"/>
		<path class="st1" d="M429.7,356.3c-1.7,0.2-26.3,3.4-42.1,6.7c-2.2,0.5-6.3,1.4-9.6,4.7c-3.4,3.4-4.4,7.8-4.8,10.4
			c1.9-2.6,4.8-6.1,9.2-9.2c3.4-2.5,9.2-5.8,32.9-10.2C421.5,357.6,426.5,356.8,429.7,356.3z"/>
		<path class="st1" d="M534.9,393.9c-4.5-2.2-11-4.7-19.1-6.1c-9.2-1.6-16.5-0.7-22.6,0c-6.3,0.7-11.4,1.9-15,2.7
			c-8.3-4.8-15.3-6.7-20.2-7.4c-3.5-0.6-9.1-1.1-18.3-2.8c-2.2-0.4-3.9-0.9-5.2-1.1c-6.1-4-9-11.4-7.5-18.3
			c2.1-9.5,11.4-12.8,11.8-12.9c8.3-4.9,18.4-12.1,28.2-22.8c21.1-23,28.3-48.5,30.9-61.6c1.7,3.5,3.1,7,4.8,10.4
			c-7.9,24-2.1,49.2,14.6,63.9c14,12.4,31.1,13,36.7,13c0.7,0.7,10.5,10.7,7.5,23.5C559.2,385.6,548.2,394.2,534.9,393.9z"/>
		<path class="st2" d="M506,243.6c-8.8,14.1-12,26.2-13.4,34.5c-1.7,10-0.4,14.7-3.6,23.5c-0.9,2.3-4.4,11.4-17.1,23.8
			c-20.9,20.3-35,18.4-40.1,32.9c-2.2,6.4-2.7,16.8,2.8,21c2.8,2.1,6.5,2.1,8.9,1.7c1.9-1.2,5.7-3.5,11-3.5c5.6,0,9.8,2.5,11.6,3.7
			c6.4,4,6.5,8.1,11.4,9.5c3.3,1,6.3-0.1,9-0.9c21-5.6,26.8-12.2,34.1-9.8c8.8,2.9,8,13.2,14.3,14c10.3,1.2,28.1-24.8,21.3-39.5
			c-5.7-12.6-24.2-6.3-37.2-22.2c-3.1-3.9-6.1-9.2-9.4-36.3C508.1,282.8,506.4,264.9,506,243.6z"/>
	</g>
</g>
<g id="レイヤー_2">
	<path class="st1" d="M113.6,143.5c4.4,2,9.8,4,13.5,6.9c2.6,2.1,8.4,6.2,15.2,15.6c9.4,12.9,14.4,26.6,17.1,36.7
		c2.6,0.7,6.1,1.5,10.1,1.8c5.6,0.4,10.6-0.3,13.6-1c13.3-3.2,21.7-16.4,23.2-18.9c1.1-2.9,2.2-5.9,3.3-8.8
		c5.8-6.7,9.5-9.1,13.4-18.1c6.2-13.9,10.2-31.6,0.1-45.6c-3.6-5-8.5-5.5-13.7-9.8c-9-7.4-18-17.3-24.4-27.9
		c-12.6-0.1-19.5-1.7-32.3,4.2C128.5,89.6,115.1,116.6,113.6,143.5z"/>
	<path class="st2" d="M220.4,116.6c-12.3-10.7-28.6-20.1-35.6-35.8c-7-15.7-57.1,21.3-64.8,58.1c9,6,16.5,12.8,22.8,20.8
		c9.4,12,13.4,23.3,14.7,27.4c2.1,6.3,3,11.7,3.6,16c1.7,1.1,9.4,6.2,19.9,4.5c9.8-1.6,15.5-8,16.8-9.7c2.9-7.8,6-15.7,8.9-23.6
		c1.6-6.6,3.2-13,5-19.6C215.1,142.2,217.9,129.4,220.4,116.6z"/>
	<path class="st1" d="M176.3,143.1c3.5-12.6,17.8-22.2,25-25.6c4.5-2.2,1-0.5,1-0.5c-2.7-1.2-8.5-3.2-10.7-5.5
		c-5.8-6.1-11.5-18.8-5.2-25.2c3.2-3.2,9.7,2.9,13.7,3.1c2.5,0.1,8,1,11.2,1.7c7.4,1.8,7.4,4.6,13.6,6.9c10.3,3.7,14.8-1.5,21.2,3.1
		c5.3,3.8,6.3,10.1,6.4,10.6c0.3,1.9,0.4,5.5-2.3,10.5c-8.3,16.1-31,19.6-36.4,29.3c-0.4,0.7-2.2,4.2-5.5,8.7
		c-0.5,0.6-2.1,2.7-2.9,3.7c-3.3,3.5-7.1,9.9-12.2,10.6c-9.1,1.5-15.1-7.8-18-14.1C172.6,154.7,175.4,146.6,176.3,143.1z"/>
	<path class="st2" d="M184.5,132.3c2.4-3.9,10.8-12.6,18.9-13.4c5.3-0.5,14.5,1.8,21.3,2.3c3.9,0.2,11-0.5,15.2-1.5
		c-4.4,0.6-9.5,0.9-13.9,0.6c-6.3-0.3-12.3-1.9-18.1-3.6c-3.6-1.1-8.2-3.8-10.5-5.7c-5.6-4.6-14.4-17.6-10.2-23.4
		c2.7-3.7,9.1,3.6,12.7,3.5c2.3,0,7.3,0.8,10.3,1.4c5.7,1.1,11.9,6.8,16.9,8.3c8.6,2.8,12.4-0.7,18.4,3.4c1.5,1,4.5,3.1,5.5,6.8
		c2.3,8.6-8.8,17.9-11.2,19.6c-0.8,0.5-1.6,1.1-1.6,1.1c-1.7,1.1-5,2.2-6.3,2.7c-2.4,1.2-3.1,2-5.3,3.2c-0.6,6.5-3.7,15.1-6.2,20.4
		c-4.1,8.7-9,14.4-16.7,17.5c-3.6,1.5-8.5-0.4-10-0.6c-4.9-1-11.6-5.3-12.9-7.7C173.8,153.7,176.2,145.4,184.5,132.3z"/>
	<g>
		<path class="st1" d="M154.4,80.9c-0.5-1.4,1-2,1-3.2c2-0.8,5.8-2.7,7-3.6c1.3-0.8,0.5-0.4,0.5-0.4c3.3-6,3.6-11.4,2.7-18.2
			c0-0.1-0.1-0.5-0.2-0.7c3.7-11.5,11.9-16.6,22.1-22.1c1.1-0.3-0.8,0.3,0.9-0.5c2.6-1.3,7.2-1.6,7.2-1.6c2.8-0.2,3-2,11.5-8.6
			c6.1-4.7,7.6-5.1,8.9-4.7c1.7,0.7,2.3,2.9,2.7,4.6c2,7.7-2.3,14.6-2.6,15.1c-5.3,8.2-14.9,9.5-16.3,9.7c-0.6,1.4-1.8,3.4-3.7,5.4
			c-2.6,2.6-5.6,3.8-7.1,4.4c0.6,4.2,0.7,7.8,0.7,10.6c0,0,0,6.7-1.3,11.8c-0.4,1.6-1,2.9-1,2.9c-0.2,0.5-0.5,1-0.8,1.7
			c-2.7,4.9-19.4,11.2-22.7,10.4C154.8,91.6,156.8,86.9,154.4,80.9z"/>
	</g>
	<path class="st2" d="M156.3,81c0.4-3.1,4.1-3.3,6-5.2c1.7-1.6,4.8-4.9,5.5-6.8c2.4-6.2-1.3-10.1-0.2-16.1c1.1-6,5.1-8.9,10.1-12.9
		c2.6-2.2,7.1-5,10.9-6.5c8.1-3.1,8.2-2.3,12.1-5.2c2.3-1.7,5-4.2,10.2-7.9c1.1-0.8,3.4-2.4,4.9-1.7c0.3,0.2,0.6,0.4,0.9,1
		c0.9,1.9,1.3,3.3,1.4,4.9c0.4,5.3-2.3,9.8-2.3,9.8c-3,5.4-8,7.6-9.9,8.4c-3.1,1.4-6,1.7-7.8,1.8c-0.4,1.4-1.1,3.2-2.6,5.2
		c-3.6,4.4-8.9,5.1-10.2,5.2c0.6,0.8,1.3,1.9,1.9,3.3c0.6,1.4,1.2,3.2,1.2,6.9c0.1,4.1-0.5,6.2-1.3,12.6c-0.3,2.5-0.6,4.6-0.7,5.9
		c-0.1,0.4-0.2,1-0.5,1.6c-0.6,1.3-1.5,2.1-2.2,2.6c-3.2,2.6-5.9,3.9-5.9,3.9c-1.7,0.8-4.4,2.2-8.2,2.6c-2,0.3-4.1,0.8-6.6-0.2
		C162.1,94.1,154.8,93.3,156.3,81z"/>
	<g>
		<g>
			<path class="st1" d="M118.8,71.8c-0.9-3.2-1.9-3.9-2.5-8.1c-0.1-1-2.3-5.7,0.1-8.3c2.9-3.2,5.9-6.9,11.4-8.8
				c2.8-1,8.3-5.2,9.7-8.8c3.6-3.3,7.1-6.9,11.5-8.5c3.7-1.4,7.6-0.3,11,0.3c2.2,0.4,4.4,1.5,5.8,2c3.8,1.4,8.8,1.2,11.7,0.2
				c5.2-1.9,8.1-5.4,12.7-6.9c3.2-1.1,7.6-3.5,9.4,0.6c3,7.1-0.3,11.6-5.2,17.9c-1.9,2.3-6,6.6-10.3,7.4c-5.1,1.2-11.7,2.3-17.5,3.1
				c-3.1,0.4-7.2,1.6-10.6,1.7c-1.5,3.3-3.2,5.9-6.5,7.6c-1.5,0.9-3,1.6-4.8,2c5.4,5.1,9.2,9.3,12.4,16.3c2.2,4.7,5,9.7,4.3,15.7
				c-0.5,4.7-3.4,10.7-8.5,12c-6.3,1.7-11.8-2.8-16.1-5.7c-1.5-1-1.5-1.3-1.8-1.6c-1.8-1.9-3.3-4.1-4.2-5.9
				C126.7,87.8,123.5,79.7,118.8,71.8z"/>
		</g>
		<path class="st2" d="M162,92.1c0.4,6.4-0.8,12.4-5.9,16.6c-2.5,2.1-6,2.4-8.8,1.5c-5.5-2-7.6-3.2-11.4-8.2
			c-4.9-6.5-7.7-14.7-11.6-22.7c-2.4-5.2-6.6-10.8-6.9-17.6c-0.1-1.7,0.7-6.1,2.7-7.9c0.9-0.8,3.3-2.8,4.8-3.6s4.9-2.5,5.8-3.3
			c4.6-3.3,6.5-6.1,10.3-10.3c1.9-2.1,7.1-4.9,9.7-6.2c3.3-1.7,11,1.2,12.3,2c4.4,2.4,7.7,2.8,11,2.2c6.3-1.3,9.3-5.3,14.4-7.5
			c2.8-1.3,6.4-3.4,8.7-1.1c3.3,3.4,1.7,6.4-0.2,10.4c-1.3,2.7-3,5.6-6.3,7.6c-9.1,5.8-21.2,9.2-31.8,9.2c-3.4,0-3.6-1.2-5.8-2.3
			c-2.2-1.1-2.1-2.8-3.6-4.2c0.3,1.3,0.7,2.9,1.4,4c1.1,1.9,2.9,2.8,3.2,5c0.6,3.7-4.8,6.9-6.9,7.7c-4.8,2.2-8.6,2.2-12.9,2.4
			c-3.2,0.3-4.7-0.3-7.6-0.4c2.9,0.6,5.7,1.1,8.7,1.3c2.4,0.1,4.8-0.1,7.1-0.6c0.7,0.6,1.7,0.9,2.3,1.5c2.9,2.3,5.4,4.5,7.7,7.4
			c0.8,1.1,1.7,2.8,2.4,4c0.6,0.4,1.4,0.2,1.9,0.8C159.8,83.7,161.6,87.1,162,92.1z"/>
	</g>
	<g>
		<g>
			<path class="st1" d="M98.8,102c-3.2-4.4-8-11-9.4-15.6c-1-3.2-0.3-4.8-1-6.8c-0.5-1.6-0.1-0.5-0.2-0.6c-0.7-2.1-0.1-3.5,0.9-5.5
				c0.5-1,1-2,1.8-2.8c1.1-1.2,2.5-2.2,3.7-3.1c0,0,0,0,0.1-0.1c5.6-3.8,12.8-2.5,19-4c5.8-1.4,11.9-5.7,17.5-5.3
				c5.7,0.4,13.3,1.7,13.8,7.5c0.6,7-8.1,10.4-12.5,15.3c-3.2,3.6-8.9,4.1-13.8,3.8c-0.1,0.4-0.2,0.7-0.1,1.2c2.2,1.3,6.2,4,7.6,5.5
				c3,3.1,7.8,7.4,9.3,10.4c3.7,7.1,5.6,16-1.8,20.4c-9.6,5.7-18.9-1.1-26.6-8C104.7,112,101.3,105.4,98.8,102z"/>
		</g>
		<path class="st2" d="M135.9,60.1c-7.7-1.7-15.4,3.8-21,4.9c-7.2,1.4-16.3,2.8-20.7,5.4c-5.4,3.2-3.1,9.8-3.3,11.9
			c-0.7,9.4,9.1,17.8,11.8,23c3.8,7.1,12.7,13.5,16,15.4c6.5,3.7,5.5,2.4,10.6,4.3c2.7,1,5.8-1,8.1-2.2c3.5-1.8,3.5-9.8,3-11.7
			c-1.6-6.9-4.5-8.8-7.5-14.2c-1.5,0-2.9-0.2-4.5,0c-2.9-3.4-6.1-6.4-9.9-8.7c-1.8,1.5-3.6,2.8-5.8,3.5c-2.8,0.9-5.2,0.9-8.1,0.9
			c2-0.3,3.9-0.5,5.8-1.2c2.7-1,5-2.3,7.4-4c0.1-1.1,0.3-2.1,0.4-3.1c-2.9-1.5-5-3.1-6.7-6c-0.8-1.3-0.7-2.8-1-4.3
			c1.5,2.2,0.9,3.9,3.4,5.6c2.5,1.7,2.5,2.9,7.3,3.2c3.4,0.2,8.8-0.6,12.6-5.4c1.5-1.9,11-8.1,10-12.5
			C143.1,61.7,138,60.6,135.9,60.1z"/>
	</g>
	<path class="st1" d="M77.7,120.1c-0.1-4.4,1-7.9,0.1-11.8c-0.5-1.8-0.9-1.3-1.5-3.8c-0.3-1.3-2.1-4.9-0.3-7.5
		c1.8-2.6,4.4-4.3,8-6.8c2.4-1.7,5.9-6.1,10.1-7.9c2.2-1,9.9-6.2,12.3-1.5c2.5,4.7-2.8,10.9-5.3,15.5c-1.6,2.9-5.6,6.9-8.5,8.4
		c-1,0.5-0.3,0.1-1.1,0.5c0.3,0,0.2-0.3,0.6-0.2c1.3,0.6,1.6,2.3,2.3,3.9c0.7,1.3,2.6,4.5,2.8,6.3c0,0.2,0,0.1,0,0.1l0,0
		c4.2,0.8,8.4,2.7,12.3,4.2c6.3,2.3,12.3,4.2,18.8,5.5c0.6,3.5,0.6,6.8-0.6,10.2c-0.8,2.4-2.4,4.5-4.1,6.4c-3.2,0.8-6.5,1.4-9.7,2.2
		c-0.7-0.2-2.5-0.7-3.1-0.8c-0.9-0.2-2.8-1-3.1-1.2c-4.7-1.8-10.6-4.3-14.5-6c-5.2-2.3-9.8-4.5-13-7.9c-1.4-1.4-1.3-2.2-1.7-2.7
		C77.7,123.3,77.7,121.1,77.7,120.1z"/>
	<path class="st2" d="M105.1,81.8c-3.8-5-11.7,1.4-15.2,4.9c-0.5,0.5-2.9,3.2-4.1,4.1c-1.2,0.9-2.7,1.8-3.9,2.7c-2,1.6-4,2.8-5,5.6
		c-0.8,2.2,1.5,6.2,2.1,7.9c1.6,4.5-0.6,10.8,0.9,14.4c2.9,7,7.1,8,13.4,10.9c6.3,2.8,13.1,4.8,19.9,7.1c3.1,1.2,7.2,1.6,10.7,2
		c2.7-2.2,4.8-4.5,5.9-7.8s0.8-6.2,0.1-9.4c-2.5-1-5-1.6-7.7-1.7c-2.7,0-3.7,1.1-7.3,0.6c-0.9-0.1-5.5-1.6-7.8-2.6
		c-2-0.9-7.2-2.7-9.7-3.8c-1,1.3-2,2.9-3,3.8c-2.6,2-4.9,2.8-7.9,3.1c3-0.9,5.4-2.1,7.8-4.1c1-0.9,2-2.3,2.7-3.5
		c-1.5-3.8-3.2-7.2-5.5-10.6c-1.2,0.2-2.3,0.3-3.4-0.3c-1.6-0.9-2.3-2.2-3.1-3.6c1.1,0.7,2.3,1.6,3.3,2c1.1,0.4,2.1,0.8,3.1,0.7
		c0.8,0,2.8-1.7,3.2-1.8c1.1-0.5,3.6-3.2,3.8-3.4C100.6,94.2,108.8,86.7,105.1,81.8z"/>
</g>
<g id="レイヤー_2_1_">
	<g>
		<path class="st1" d="M909.5,631.4c-6.7,2.1-14.8,4.1-24.2,5.2c-12.2,1.5-22.8,1-31.1,0.1c-0.8-0.3-9.3-3.7-9.3-3.7
			c-2.7-1.1-3.6-1.5-5.1-1.8c-4-1-7.1-1.7-8.8-0.2c-2.2,2,0.3,6-2.1,13.9c-0.3,1-2.1,6.8-7.4,9.3c-1,0.5-5,2.4-7.2,0.7
			c0,0-0.3-0.2-0.5-0.5c-2.8-3.6-0.7-18-0.7-18c0.3-3.8,0.5-6.9,0.6-9.1c0.1-2.8,0.1-3.6,0.4-5.1c0.2-1.3,0.8-4.6,2.6-7.7
			c1.4-2.5,1.7-1.4,7.1-7.3c2.5-2.8,3.6-4.2,5.8-5.9c0.4-0.3,1-0.7,1.7-1.5c1.6-1.7,2.3-3.2,2.9-4.2c1.1-1.8,6.9-6.7,17-9.3
			c3.1-0.8,7.7-1.6,13.4-1.5c0.9-0.2,1.8-0.3,2.7-0.5c2.3,1.5,5.5,3.8,9.1,6.6c11.7,9.3,19,18.5,22,22.6
			C901.6,617.8,905.6,623.8,909.5,631.4z"/>
	</g>
	<path class="st2" d="M834.5,600.3c0.6-0.8,1.8-2.5,2.8-4.9c0.3-0.7,0.5-1.3,0.6-1.8c0.4-1.5,0.6-2.6,0.7-2.8
		c0.3-1.8,4.3-8.5,11.9-10c7.7-1.5,13.3,3.3,14,3.9c8.3,5.2,19.3,13.4,29.6,25.9c6.6,8,11.3,15.7,14.7,22.3
		c-18.3,0.5-36.5,1.1-54.8,1.6c-5.9-2-11.6-4-17.5-6c-2-0.3-4.9-0.5-6.9,1.3c-3.2,2.9-0.1,8.1-2.5,14.2c-2.4,6.2-9.4,10.5-11.9,9.1
		c-1.8-1-0.6-4.5,0.1-15.4c1.2-16.3-0.7-16.5,1.4-20c3.4-5.5,12.9-12.4,15.4-14.7C832.4,602.8,832.8,602.6,834.5,600.3z"/>
	<path class="st1" d="M917.8,642.2c0.6,1.4,1.1,3,1.1,3c0.2,0.7,0.6,1.9,0.9,3.5c0.2,1,0.3,2,0.3,2.9c1.5,2.3,1.8,4.3,1.7,5.8
		c-0.1,1.6-0.7,2.1-1.8,5.2c-1.2,3.5-0.8,3.7-1.7,5.9c-1,2.4-3.2,6.4-4.9,6.1c-0.4-0.1-1.4-0.5-2.2-4.8c-0.7-3.3-1.2-8.5,0.3-15.4
		c-0.5-2.5-1-5-1.6-7.5c-2.2-1.1-4.9-2.7-7.7-5.1c-3.5-2.9-5.9-6.1-7.4-8.4c1.9,0,4.5-0.3,7.3-1c2.7-0.7,4.9-1.7,6.5-2.5
		c1.5,1.8,2.7,3.3,3.6,4.4C916,638.8,917,640.4,917.8,642.2z"/>
	<path class="st2" d="M916.5,641.8c0.7,1.1,1.5,2.5,2.1,4.6c0.6,2.2,0.6,4,0.5,5.3c2.1,3.8,1.9,6.2,1.4,7.7c-0.4,1-1,1.8-1.8,3.7
		c-0.7,1.9-0.5,2.3-1,3.8c-0.6,1.9-2.2,5.3-3.8,5.2c-1.3-0.1-2.2-2.4-2.4-3.3c-1.9-5.1-0.4-10.5,1.2-14.2c-0.6-2.6-1.2-5.3-1.9-7.9
		c0.4-0.2,0.9-0.7,1.3-1.3c0.4-0.6,0.7-1.2,0.8-1.6c-0.1,0.3-0.4,1.2-1.4,1.8c-0.5,0.3-1,0.4-1.3,0.5c-2.2-1.1-4.7-2.6-7.2-4.6
		c-3.6-2.8-6.4-5.7-8.2-8.1c4.2-0.9,8.4-1.9,12.6-2.7c1.4,1.3,2.8,2.7,4.3,4.5C913.8,637.4,915.4,639.8,916.5,641.8z"/>
	<path class="st1" d="M905.7,644.6c1.3,0.8,3.4,2.4,5.1,5c2.4,3.7,2.7,7.3,2.8,9c0.7,1.1,1.8,2.9,3,5.1c2.4,4.6,2.7,6.3,4.9,11.1
		c3.2,7,4.9,8.1,4.1,9.3c-1.4,2.4-9.8,1.5-15.4-2.4c-9-6.3-8.8-19.1-8.8-21.2c-1.5-1.6-3.1-3.7-4.8-6.3c-1.2-2-2.2-3.9-2.8-5.6
		c-1.1-0.5-4.6-2.2-6.8-6.3c-2.1-3.9-1.7-7.5-1.5-8.7c3.9-0.1,7.8-0.2,11.7-0.4c1.4,1.4,2.8,3,4.2,4.9
		C903.3,640.4,904.6,642.6,905.7,644.6z"/>
	<path class="st2" d="M905,644.9c1.4,1,3.8,3.1,5.5,6.8c1.6,3.2,1.8,6.2,1.8,7.8c0.9,1.2,2.1,3.1,3.3,5.6c2.2,4.2,2.2,5.6,4.1,9.8
		c2.7,6,4.6,7.2,4,8.3c-1.2,1.8-8.1,0.4-13-3.2c-7.8-5.8-8.5-16.2-8.6-19.6c-1.6-1.7-3.3-3.8-5-6.5c-1.3-2.1-2.3-4-2.9-5.8
		c-1.3-0.8-2.8-2.1-4.3-3.8c-3.3-4.1-4-8.5-4.1-10.6c0.8-0.6,2.6-1.8,5.4-2c3.2-0.2,5.6,1.2,6.4,1.7
		C899.9,637.1,902.5,641,905,644.9z"/>
	<path class="st1" d="M897,648.3c1.9,1.4,4.8,3.9,7.1,8c2.9,5.1,3.4,9.9,3.5,12.3c0.5,1,1.1,2.6,1.6,4.6c1.2,4.4,0.9,7.5,0.9,10
		c0.2,9.9,5,14,3,16c-2,2-8.4,0-12.4-3.4c-8.5-7.2-6.7-20.4-6.4-22.3c-2.3-2.6-4.6-5.5-6.9-8.6c-2.7-3.6-5.1-7-7.2-10.4
		c-3.4-6.9-6.9-13.7-10.2-20.5c5.2-0.1,10.4-0.3,15.6-0.4c2.2,1.3,5.7,3.9,8.6,8.3C895.5,644.3,896.4,646.5,897,648.3z"/>
	<path class="st2" d="M896.1,649.1c1.9,1.5,4.6,4,6.9,7.9c2.7,4.7,3.3,9.2,3.4,11.6c0.7,1.4,1.7,3.4,2.2,6.1
		c0.7,3.2,0.4,5.5,0.3,7.3c-0.3,9.3,4.9,14.1,2.9,16.1c-1.6,1.6-6.2-0.1-9.2-2.3c-8.9-6.4-7.6-20.7-7.4-22.6
		c0.3-0.3,0.8-0.9,1.7-1.3c1.2-0.5,2.2-0.4,2.5-0.3c-0.2-0.1-1.2-0.7-2.4-0.5c-1.2,0.2-1.9,1.1-2.1,1.3
		c-4.8-6.2-14.2-19.2-14.7-18.9c-3.1-6.6-6.4-13-9.5-19.6c1.1-0.7,3.6-2.1,7.1-2.3c3.7-0.2,6.6,1.2,7.6,1.9c1.7,1.6,3.7,3.6,5.6,6.3
		C893.7,643.3,895.2,646.6,896.1,649.1z"/>
	<path class="st1" d="M876.9,641.8c1.6,2.9,2.3,5.3,2.9,7.1c0.6,1.8,1.4,4.6,2.8,14.8c0.8,5.6,1.1,8.5,0.9,9.5
		c-0.8,4.9-3.6,8-8.1,13c-4.1,4.5-7.6,8.5-9.7,7.6c-2.7-1.2-1.4-9.4-1.2-10.7c0,0,0.7-3.7,2.6-7.5c1.1-2.3,2.4-4.1,3.4-5.4
		c-1-3.2-2.1-6.3-3.2-9.5c-0.8-2.4-1.6-4.8-2.5-7.1c-1-0.6-2.3-1.4-3.6-2.6c0,0-2-1.6-3.4-3.4c-3.3-4-4.5-9.7-4.7-11.2
		c2.8-0.6,5.8-1.2,9-1.6c3.2-0.4,6.3-0.7,9.1-0.8C872.9,635.6,875,638.2,876.9,641.8z"/>
	<path class="st2" d="M875.2,641.1c1.1,2.1,2.3,4.5,3.1,6.9c1.8,4.8,0.9,5.7,2.3,14.6c1.2,7.1,2.2,9,0.9,12
		c-0.3,0.6-0.3,0.5-3.3,4.9c-3.7,5.4-3.8,5.6-4.8,6.9c-1,1.2-5.5,7.1-7.4,6.3c-1.9-0.9-0.7-7.7,0.3-11.4c1.3-4.8,3.4-8.4,5-10.7
		c0.1-0.1,0.2-0.4,0.6-0.7c0.6-0.4,1.3-0.1,1.4-0.1c-0.1-0.1-0.5-0.5-1.1-0.4c-0.3,0-0.6,0.2-0.7,0.3c-1.1-2.6-2.1-5.4-3-8.3
		c-1-2.9-2-5.8-2.7-8.6c-1.7-1-3.8-2.5-5.8-4.8c-4.4-5-5.6-10.6-6-13.2c1.5-0.9,4.3-2.2,8-2.4c4.3-0.3,7.5,0.9,9.2,1.6
		C872.2,635.4,873.7,637.9,875.2,641.1z"/>
</g>
</svg>
