<?xml version="1.0" encoding="utf-8"?>
<!-- Generator: Adobe Illustrator 24.1.2, SVG Export Plug-In . SVG Version: 6.00 Build 0)  -->
<svg version="1.1" id="レイヤー_1" xmlns="http://www.w3.org/2000/svg" xmlns:xlink="http://www.w3.org/1999/xlink" x="0px"
	 y="0px" viewBox="0 0 1000 1000" style="enable-background:new 0 0 1000 1000;" xml:space="preserve">
<style type="text/css">
	.st0{display:none;fill:#333333;}
	.st1{fill:#FFFFFF;}
</style>
<rect id="BackGround" x="-25" y="-25" class="st0" width="1050" height="1050"/>
<g id="レイヤー_7">
	<g>
		<path d="M619.7,498.5c-22.6-16.5-73.2-48.6-145.3-55.9c-54.4-5.5-98.3,5.5-123.5,13.9c-13.6,22.9-31.1,58-40.5,103.9
			c-6.1,29.6-1.3,27.3-7.7,53.8c-12.3,51.3-38,92.7-43.1,123.9c-2.2,13.2-3.5,26.6-3.9,35c-0.4,9.2,0.3,10.7-2.4,20
			c-15.6,52-57.7,69.5-50.6,85.1c4.1,8.8,20.3,9.1,52.9,9.8c26.9,0.6,40.9,0.9,47.4-8.1c8.2-11.2-4.4-23.8-5.9-51.9
			c-1.2-23.6,6-37.7,19.9-71.6c9.8-23.9,22.9-58.3,36.3-102.7c36.5-22.3,74.2-49.5,111.1-82.7c5.7-5.1,11.3-10.3,16.7-15.5
			c25.4,21.1,60.4,45.9,105.3,67.3c35.7,17,68.7,27.5,96.2,34.3c0,9.9,0.3,25.1,2.2,43.4c1.9,18.3,4.5,31.1,7.1,40.8
			c4.6,17.5,6.6,21.3,8.1,27.2c0,0,0.8,3.4,1.4,7.1c5.5,32.8-3.1,60-3.1,60c-3.6,11.3-5.6,11.3-12.6,31.4
			c-7.2,20.8-6.1,23.7-5.3,25.2c5.5,9.4,33.4,2.6,62.6,1c36.1-2,59,5,61.5-2.2c1-2.9-18.5-21.5-24.9-25.5
			c-10.6-6.6-15.8-12.9-18.5-17.1c-0.5-0.8-1.1-1.8-2.3-3.9c-6.8-11.9-11.4-21.6-11.7-22.2c-7.3-15.5,8.1-54.1,11.5-88
			c2.2-21.5-0.9-36.7-6.6-64.7c-5.8-28.6-11-54.1-28.8-80.7c-11-16.5-22.5-26.5-45.3-46.4C655.1,522.7,634.4,508.1,619.7,498.5z"/>
	</g>
	<path class="st1" d="M355,457c21,16,42.7,34,64.8,53.9c11.6,10.5,22.6,20.9,33,31.2c-9.5,18.6-25,43.7-49.5,68.5
		c-18.7,18.9-37.4,32.2-52.6,41.5c-9.1,35.3-19.3,62.7-26.8,80.8c-20.1,48.5-32.7,60.7-31.6,89.9c1.1,28.7,14.4,45.9,4.8,55.5
		c-5.3,5.3-11.9,2.5-41.5,1.5c-35.7-1.2-45,2.3-48-3.1c-5.3-9.4,20.7-24.1,39.1-56.6c20.8-36.8,5.3-49.6,22.7-109
		c13-44.4,23.3-42.8,35-89.2c8.8-34.7,4.9-43,12.6-75C322.8,522,333.7,491.1,355,457z"/>
	<path class="st1" d="M487.9,554.1c18.4-16.5,50.8-40.3,96.2-48.7c10.6-2,20.6-2.8,29.8-3c50.1,30.9,83.5,58.9,92.5,69.5
		c8.6,10.2,15,20.6,15,20.6c2.1,3.3,4.2,7,6.4,11.4c4.2,8.4,6.8,15.6,9.2,22.9c2.7,8.4,12.1,36.7,15.9,65.1
		c9.9,72.8-25.5,104.7-3.3,146.4c17.1,32.2,53.7,41.2,49.9,50.3c-2.6,6.1-18.6,0.8-57.4,1.9c-37,1.1-50.5,6.7-56.4-1.1
		c-6.7-9,6-23,14.1-46.6c12.4-36.1,5.3-69.2-8.2-132.9c-0.2-1.1-0.6-2.6-1-4.8c-4.3-22.8-1.6-41.6,1.4-54.2
		c-28.1-7.1-60.7-17.6-95.9-33.3C551.5,597.5,515.5,574.6,487.9,554.1z"/>
</g>
<g id="レイヤー_8">
	<path d="M232.9,156.4c-7.4-11.3-27.6-10.5-32.3-10.3c-3.4,0.1-26.3,1.1-32.4,14.1c-6.1,12.9,10.7,24.5,18.1,48.6
		c8.4,27.4-5.4,38.2-11.8,85.2c-2.4,17.9-11.7,86.1,14.2,100c5.6,3,11,2.4,47.3-7.3c24.3-6.5,44.7-12.4,60-17
		c35.9-10.6,233.9-59.8,402.4,36.9c13.5,7.7,30,18.3,48,32.4c-0.7,9.2-0.6,26.1,7.2,44.7c5.1,12.2,13.5,25,21.8,31.9
		c0.6,0.5,5.6,4.7,12.3,10.5c4.8,4.2,7.3,6.3,7.9,7c5.7,7,5.5,16.1,5.1,26c-0.7,16.5-5,20.4-1.4,26.6c3.4,5.9,10.3,7.7,14.9,8.9
		c1.3,0.3,18.6,4.7,28.3-5.8c1.3-1.4,3.1-3.4,4-6.5c2.2-8-4.4-14.9-11.2-25.7c0,0-5.9-9.3-12.8-25.7c-6.9-16.3-7.1-28.5-8.4-37.9
		c-2.2-15.1-9.2-36.7-31.5-63.2c-0.7-10-4.8-51.8-36.6-83.8c-5.3-5.4-27.7-27.8-61.4-34.2c0,0-0.7-0.1-1.7-0.3
		c-19.5-3.4-99.4-10.1-357.6-24.3c-16.2-2.9-42.1-5-70.7,4.5c-8,2.7-15.2,5.9-21.4,9.2c-20.3-41.5-19-70.5-14-89.3
		C225.7,186.9,241.4,169.4,232.9,156.4z"/>
	<path class="st1" d="M701.9,400.8c12.1,9.6,27.9,22,47,35.9c-0.1,37.4,11,58,21.4,70c13.6,15.8,28,19,33.1,36.7
		c5.8,20.3-8.1,33.5,0,43.3c8.6,10.4,34.7,8.5,40.4-2.2c4.7-8.9-8.3-17.5-20.6-47c-11-26.4-6.5-33.8-16.9-59.7
		c-4.7-11.7-12.9-28.4-28-46.9c-0.4-10.6-3.2-49.1-33.7-81.7c-23.2-24.9-50.4-33.3-61.9-36.2c-3.6,1.9-8.7,5.5-14,10.8
		c-6,6-11.7,14.4-12.6,24.8C655.1,360.1,663.6,370.2,701.9,400.8z"/>
	<path class="st1" d="M330.7,290.5c9.8,12.2,12.3,28.6,6.5,42.6c-6.6,16.1-23,26.5-41.1,26c-16.1,6-29.1,10.9-37.6,14.3
		c-15.2,5.9-20.8,8.3-30.3,11c-19.8,5.7-29.7,8.6-37.1,5.3c-15.5-7-16-36.8-16.1-54.8c-0.4-70.8,31.1-96.5,14.9-134.3
		c-8.8-20.6-24.1-26.9-20.2-36.8c6.2-15.6,51.9-18.4,60.2-3.5c4.9,8.9-5.7,19.9-12.3,35.9c-8.6,20.9-11.9,54,13.5,107
		c-2.8,2.9-8.5,9.7-9.6,19.6c-1.5,13.2,6.3,23.6,6.6,23.4c0.3-0.1-5.5-9.4-3.9-21.8c0.3-2.3,1.3-8.2,5.2-14.1
		c6.3-9.6,16.2-13.2,22.4-15.3C279.9,285.2,324,289.7,330.7,290.5z"/>
</g>
<g id="レイヤー_2_1_">
	<path d="M713.7,340c20,28.6-24.1,91.8-30.3,100.7c-14.3,20.4-43.5,55-97.7,81.4c-2.8-0.9-14.2-4-26.7,1.6
		c-13,5.7-18.2,16.7-19.4,19.4c-12.9,6.4-24.1,9.5-31.9,11.1c-11,2.3-17.9,2.2-19.8,2.1c-3.4-0.1-10.8-0.5-19.7-3.3
		c-17.4-5.3-28.9-16-38.4-24.8c-3.6-3.3-5.9-5.9-5.9-5.9c-3-3.4-4.6-5.9-7.5-9.1c-2.7-3-5.2-5.1-7-6.6c-9.8-7.9-21.9-14.7-21.9-14.7
		c-8.8-4.9-17.2-14-34.1-32.3c-4.9-5.3-9.9-10.7-16-18.3c0,0-23.9-29.9-39.2-72c-1.3-3.5-2.2-6.4-2.2-10.2
		c0.1-17.9,20.6-31,29.9-36.3c8.5-13.2,10.3-26.2,4.7-32.3c-1.1-1.2-2.7-2.4-5.4-3.2c4-14.9,26.8-94.1,103.4-132.4
		c15.6-7.8,48.5-21.4,91.2-19.3c12.8,0.6,81.6,4.1,128.5,61.9c37.8,46.7,37.5,99.5,36.9,114.4c-52.7-6.1-64.8-6.7-64.9-5.9
		c-0.2,1.2,24.1,12.8,61.6,18C693.5,325.6,706.5,329.7,713.7,340z"/>
	<path class="st1" d="M711.1,346.2c7.3,15.1,1.2,31.5-1.7,39.1c-15.9,42-127.4,194.5-250.7,159c-39-11.3-147.4-120.4-153.8-172.8
		c-0.8-6.4-2.1-18.7,4.5-31.2c4.9-9.1,12.1-14.5,16.7-17.4c1.2-19.7,6.5-61.9,35.6-103.3c12.4-17.7,59.3-77.9,140.6-82
		c4.2-0.2,102.4-3.5,154,75.8c30.1,46.3,27.3,94.5,25.7,110.7C688.7,326.1,704.2,331.8,711.1,346.2z"/>
	<path d="M545.1,246.9c0-0.2,3.8-0.9,34.5-5.7c15-2.3,22.6-3.4,28.2-0.3c7.8,4.3,11,13.2,12.3,18.5c-3.3-4.1-8.9-9.9-17.4-13.1
		c-5.6-2.1-10.5-2.4-23.1-1.8C558.2,245.3,545.1,247.3,545.1,246.9z"/>
</g>
<g id="レイヤー_3">
	<g id="レイヤー_6">
		<path d="M338.6,356.7c19.5,16.6,66.8,52,136.8,61.1C577,431,651.7,378.9,668.6,366.4c-16.8,27.8-48.3,69.2-101.2,96
			c-23.1,11.7-47.3,23.9-79.4,21.5c-54.9-4.2-92.8-48.2-113.5-72.7C356.6,389.9,345.2,369.9,338.6,356.7z"/>
		<path d="M647.6,349.7c13.6-1.2,26.4,4.5,33.1,15c5.8,9.1,5,18.6,4.6,21.9c4.3-3.5,14.1-12.2,12.6-20.6
			C696,355.4,676.1,346.6,647.6,349.7z"/>
		<path d="M358.9,349.7c-0.9-0.3-13.6-4-23.2,4.3c-8.2,7-10.6,19.4-5.4,30.2c-2.3-4.3-5.6-12.1-5.9-22.2c-0.2-5.7-0.4-10.5,2.4-13.9
			C331.7,342.2,344.8,342.8,358.9,349.7z"/>
		<path d="M427.2,468.4c7,6.1,26,21,54.7,24.6c34.1,4.2,59.4-10.2,66.8-14.8c-13,13.9-26.3,20.8-34.3,24.2c-9.3,3.9-19,8-31.1,6.1
			c-3.1-0.5-9.6-1.9-24.9-12.8C450.1,489.7,439,480.9,427.2,468.4z"/>
	</g>
	<g id="レイヤー_4">
		<path d="M521.4,260.2c-2,5.5,3.7,12.9,9.8,16.2c9.2,5,17.3-1.1,33.1,2.9c3.5,0.9,6.4,1.8,9.1,3.3c5.1,2.7,8.2,5.9,9.1,6.9
			c4,4.1,12.9,11.2,33.2,24.4c-13.2-4.8-22.8-10.4-29.1-14.6c-10.2-6.7-17.5-11.5-29.4-14.2c-6.3-1.5-11.8-1.7-15.5-1.6
			c4.9,0.8,12.2,2.5,20,6.9c11.5,6.5,18,15.3,21,20.1c-2-2.2-4.7-4.8-8-7.6c-1-0.9-5.6-4.6-12-8.2c-9.7-5.6-19.3-8.5-26-10.2
			c-3.2,0.1-8-0.4-11.2-3.9c-0.3-0.3-0.5-0.6-0.8-0.9c-2.7-3.4-10-13.4-5.7-20.3c3.5-5.7,12.5-5.6,13.8-5.5
			C532.1,253.8,523.4,254.8,521.4,260.2z"/>
		<path d="M467.7,264.6c-0.6,2.5-0.9,4.1-2,5.4c-5.5,6.8-25.6-0.6-42.8-1c-1.7,0-5.2,0-9.4,1c-5.4,1.3-9.1,3.7-10.2,4.4
			c-4.7,2.9-14.7,7.6-36.9,15.3c6.8-0.7,12.7-1.9,17.9-3.1c4.7-1.1,8.3-2.4,12.9-3.9c8.1-2.7,13.2-4.8,15.3-5.5
			c6.5-2.4,16.7-4.2,32.6-1.4c-2.4-0.1-5.9-0.1-10.1,0.5c-3.3,0.5-7.1,1.5-12.4,3.7c-10.4,4.3-19.4,10.5-24.4,14.1
			c2.1-1.5,5.2-3.5,9.3-5.3c6.3-2.8,10.4-3.3,23.5-5.2c0,0,20.5-3,33.2-9c1.2-0.6,3-1.5,4.3-3.5c2.5-3.7,1.8-8.3,1.4-10.5
			c-0.3-1.6-0.9-4.3-2.6-7.3C468,255.4,468.8,259.6,467.7,264.6z"/>
		<path d="M623.6,317.2c2.8-1.3,7.4-2.9,13.2-2.6c2.1,0.1,11.6,0.6,12.8,5.1c0.6,2.4-1.3,5-2.6,6.5c-0.7-1.2-1.7-2.8-3.5-4.3
			c-3.2-2.7-6.5-3.6-9.6-4.1C631.4,317.3,627.9,316.9,623.6,317.2z"/>
		<path d="M620.1,317.6c3,0.5,7.4,1.6,12.2,4c2.9,1.4,11.2,5.4,10.6,8.8c-0.1,0.7-0.8,2-4.3,3.2c-0.3-1.4-0.8-3.4-2.1-5.5
			c-1.8-2.8-4-4.2-7.3-6.2C627.1,320.6,624,318.9,620.1,317.6z"/>
		<path d="M360.2,290.3c-1.7-1.1-4.6-2.5-8.4-3.1c-1.7-0.3-7.4-1.1-8.4,1.1c-0.8,1.8,1.7,4.6,2.3,5.2c-0.9-1.9-0.6-3-0.3-3.5
			C346.8,287.7,352.6,287.9,360.2,290.3z"/>
		<path d="M360.6,291.9c-5.2,0.7-9.1,2.1-11.7,3.3c-4,1.8-4.7,3-4.8,4c-0.5,2.6,2.6,4.9,3,5.2c-0.5-1.4-0.5-2.6-0.4-3.5
			C347.4,296.5,352.9,292.9,360.6,291.9z"/>
		<path d="M456,249.1c-5.3-2-13.5-5.4-23-10.7c-14.7-8.2-19.7-13.8-28.9-14.2c-5.1-0.2-12.7,1.2-22.3,9.5c6.2-2.9,15.4-5.9,25.5-3.8
			c7.6,1.5,11.2,5,20.7,9.7C434.3,242.7,443.6,246.5,456,249.1z"/>
	</g>
	<g id="レイヤー_5">
		<path d="M527.9,375c-4.1-2-10-4.3-17.4-5.5c-8.4-1.4-15.1-0.6-20.6,0c-5.7,0.6-10.4,1.7-13.7,2.5c-7.6-4.4-13.9-6.1-18.4-6.8
			c-3.2-0.5-8.3-1-16.7-2.6c-2-0.4-3.6-0.8-4.7-1c-5.5-3.7-8.2-10.4-6.9-16.7c1.9-8.7,10.4-11.7,10.8-11.8
			c7.6-4.5,16.8-11.1,25.7-20.8c19.3-21,25.8-44.3,28.2-56.2c1.5,3.2,2.9,6.4,4.4,9.5c-7.2,21.9-1.9,44.9,13.3,58.3
			c12.8,11.3,28.4,11.9,33.5,11.9c0.6,0.6,9.6,9.7,6.9,21.4C550,367.4,539.9,375.2,527.9,375z"/>
		<path class="st1" d="M501.4,237.8c-8,12.9-11,23.9-12.2,31.5c-1.5,9.1-0.4,13.4-3.3,21.4c-0.8,2.1-4,10.4-15.6,21.7
			c-19.1,18.5-32,16.8-36.6,30c-2,5.8-2.5,15.4,2.6,19.2c2.6,1.9,5.9,1.9,8.1,1.5c1.7-1.1,5.2-3.2,10-3.2c5.1,0,8.9,2.3,10.6,3.4
			c5.8,3.7,5.9,7.4,10.4,8.7c3,0.9,5.7-0.1,8.2-0.8c19.2-5.1,24.5-11.2,31.1-8.9c8,2.7,7.3,12.1,13,12.8
			c9.4,1.1,25.6-22.6,19.5-36.1c-5.2-11.5-22.1-5.7-33.9-20.3c-2.9-3.6-5.5-8.4-8.6-33.1C503.4,273.6,501.8,257.3,501.4,237.8z"/>
	</g>
	<path d="M456,375"/>
</g>
</svg>
