<?xml version="1.0" encoding="utf-8"?>
<!-- Generator: Adobe Illustrator 24.1.2, SVG Export Plug-In . SVG Version: 6.00 Build 0)  -->
<svg version="1.1" id="レイヤー_1" xmlns="http://www.w3.org/2000/svg" xmlns:xlink="http://www.w3.org/1999/xlink" x="0px"
	 y="0px" viewBox="0 0 1000 1000" style="enable-background:new 0 0 1000 1000;" xml:space="preserve">
<style type="text/css">
	.st0{fill:#333333;}
	.st1{fill:#FFFFFF;}
</style>
<rect id="BackGround" x="-25" y="-25" class="st0" width="1050" height="1050"/>
<g id="レイヤー_7_1_">
	<g>
		<path d="M638.5,538.6c-25.3-18.5-82-54.4-162.7-62.6c-60.9-6.2-110.1,6.2-138.3,15.6c-15.2,25.6-34.8,64.9-45.3,116.3
			c-6.8,33.1-1.5,30.6-8.6,60.2C269.8,725.6,241,772,235.3,806.9c-2.5,14.8-3.9,29.8-4.4,39.2c-0.4,10.3,0.3,12-2.7,22.4
			c-17.5,58.2-64.6,77.8-56.7,95.3c4.6,9.9,22.7,10.2,59.2,11c30.1,0.7,45.8,1,53.1-9.1c9.2-12.5-4.9-26.6-6.6-58.1
			c-1.3-26.4,6.7-42.2,22.3-80.2c11-26.8,25.6-65.3,40.6-115c40.9-25,83.1-55.4,124.4-92.6c6.4-5.7,12.7-11.5,18.7-17.4
			c28.4,23.6,67.6,51.4,117.9,75.4c40,19,76.9,30.8,107.7,38.4c0,11.1,0.3,28.1,2.5,48.6s5,34.8,7.9,45.7
			c5.2,19.6,7.4,23.8,9.1,30.5c0,0,0.9,3.8,1.6,7.9c6.2,36.7-3.5,67.2-3.5,67.2c-4,12.7-6.3,12.7-14.1,35.2
			c-8.1,23.3-6.8,26.5-5.9,28.2c6.2,10.5,37.4,2.9,70.1,1.1c40.4-2.2,66.1,5.6,68.9-2.5c1.1-3.2-20.7-24.1-27.9-28.6
			c-11.9-7.4-17.7-14.4-20.7-19.1c-0.6-0.9-1.2-2-2.6-4.4c-7.6-13.3-12.8-24.2-13.1-24.9c-8.2-17.4,9.1-60.6,12.9-98.5
			c2.5-24.1-1-41.1-7.4-72.4c-6.5-32-12.3-60.6-32.2-90.4c-12.3-18.5-25.2-29.7-50.7-52C678.2,565.7,655,549.4,638.5,538.6z"/>
	</g>
	<path class="st1" d="M342.1,492.1c23.5,17.9,47.8,38.1,72.6,60.4c13,11.8,25.3,23.4,36.9,34.9c-10.6,20.8-28,48.9-55.4,76.7
		c-20.9,21.2-41.9,36.1-58.9,46.5c-10.2,39.5-21.6,70.2-30,90.5c-22.5,54.3-36.6,68-35.4,100.7c1.2,32.1,16.1,51.4,5.4,62.1
		c-5.9,5.9-13.3,2.8-46.5,1.7c-40-1.3-50.4,2.6-53.7-3.5c-5.9-10.5,23.2-27,43.8-63.4c23.3-41.2,5.9-55.5,25.4-122
		c14.6-49.7,26.1-47.9,39.2-99.9c9.9-38.9,5.5-48.1,14.1-84C306.1,564.9,318.3,530.3,342.1,492.1z"/>
	<path class="st1" d="M490.9,600.9c20.6-18.5,56.9-45.1,107.7-54.5c11.9-2.2,23.1-3.1,33.4-3.4c56.1,34.6,93.5,65.9,103.6,77.8
		c9.6,11.4,16.8,23.1,16.8,23.1c2.4,3.7,4.7,7.8,7.2,12.8c4.7,9.4,7.6,17.5,10.3,25.6c3,9.4,13.5,41.1,17.8,72.9
		c11.1,81.5-28.6,117.2-3.7,163.9c19.1,36.1,60.1,46.1,55.9,56.3c-2.9,6.8-20.8,0.9-64.3,2.1c-41.4,1.2-56.5,7.5-63.2-1.2
		c-7.5-10.1,6.7-25.8,15.8-52.2c13.9-40.4,5.9-77.5-9.2-148.8c-0.2-1.2-0.7-2.9-1.1-5.4c-4.8-25.5-1.8-46.6,1.6-60.7
		c-31.5-7.9-68-19.7-107.4-37.3C562.2,649.5,521.8,623.8,490.9,600.9z"/>
</g>
<g id="レイヤー_8_1_">
	<path d="M203.4,177.3c0.2-19.6-16.5-34.7-34.1-33.3c-15.7,1.3-29,15.5-28.8,32.9c3.5,7.5,7.8,18.5,10.1,32.5
		c1.9,11.3,1.7,20.3,1.5,25.9c-1.2,28.8-8.3,53.8-12,74.2c-7.6,41.7-7.4,99.5,15.9,112c6.3,3.4,12.3,2.7,53-8.2
		c27.2-7.3,50-13.9,67.2-19c40.2-11.9,261.9-67,450.6,41.3c15.1,8.6,33.6,20.5,53.7,36.3c-0.8,10.3-0.7,29.2,8.1,50
		c5.7,13.7,15.1,28,24.4,35.7c0.7,0.6,6.3,5.3,13.8,11.8c5.4,4.7,8.2,7.1,8.8,7.8c6.4,7.8,6.2,18,5.7,29.1
		c-0.8,18.5-5.6,22.8-1.6,29.8c3.8,6.6,11.5,8.6,16.7,10c1.5,0.3,20.8,5.3,31.7-6.5c1.5-1.6,3.5-3.8,4.5-7.3
		c2.5-9-4.9-16.7-12.5-28.8c0,0-6.6-10.4-14.3-28.8c-7.7-18.3-7.9-31.9-9.4-42.4c-2.5-16.9-10.3-41.1-35.3-70.8
		c-0.8-11.2-5.4-58-41-93.8c-5.9-6-31-31.1-68.7-38.3c0,0-0.8-0.1-1.9-0.3c-21.8-3.8-111.3-11.3-400.4-27.2
		c-10.6-0.7-23.4-0.5-37.7,1.6c-25.6,3.8-45.8,12.5-59.4,19.8c-23.3-53.8-24.2-79-20.4-91.9c0.9-3.1,6.2-19.3,10.1-42.2
		C202.4,184.2,203,180,203.4,177.3z"/>
	<path class="st1" d="M730.6,429.2c13.5,10.7,31.2,24.6,52.6,40.2c-0.1,41.9,12.3,64.9,24,78.4c15.2,17.7,31.4,21.3,37.1,41.1
		c6.5,22.7-9.1,37.5,0,48.5c9.6,11.6,38.9,9.5,45.2-2.5c5.3-10-9.3-19.6-23.1-52.6c-12.3-29.6-7.3-37.8-18.9-66.8
		c-5.3-13.1-14.4-31.8-31.4-52.5c-0.4-11.9-3.6-55-37.7-91.5c-26-27.9-56.4-37.3-69.3-40.5c-4,2.1-9.7,6.2-15.7,12.1
		c-6.7,6.7-13.1,16.1-14.1,27.8C678.2,383.6,687.7,395,730.6,429.2z"/>
	<path class="st1" d="M314.9,305.7c11,13.7,13.8,32,7.3,47.7c-7.4,18-25.8,29.7-46,29.1c-18,6.7-32.6,12.2-42.1,16
		c-17,6.6-23.3,9.3-33.9,12.3c-22.2,6.4-33.3,9.6-41.5,5.9c-3.3-1.5-17.1-8.9-18-61.4c-1.2-72.6,24.5-101.1,12.7-152.3
		c-4.3-18.7-11.9-32.6-16.5-40.3c21.2,4.3,42.4,8.7,63.6,13c-3,6.2-5.8,12.9-8,20.1c-16.9,54.9,5.2,106.7,17.4,130.3
		c-2.8,2.2-7.1,6.3-10,12.8c-6,13.5-0.9,26.3,0.2,28.9c-0.4-9,0-27.4,12.5-39.3c4.6-4.4,12.2-6.8,27.1-11.7
		c14.3-4.7,26.4-8.6,43.6-10.6C291.2,305.6,302,304.9,314.9,305.7z"/>
</g>
<g id="レイヤー_2_2_">
	<path d="M743.8,361.1c22.4,32-27,102.8-33.9,112.8c-16,22.8-48.7,61.6-109.4,91.1c-3.1-1-15.9-4.5-29.9,1.8
		c-14.6,6.4-20.4,18.7-21.7,21.7c-14.4,7.2-27,10.6-35.7,12.4c-12.3,2.6-20,2.5-22.2,2.4c-3.8-0.1-12.1-0.6-22.1-3.7
		c-19.5-5.9-32.4-17.9-43-27.8c-4-3.7-6.6-6.6-6.6-6.6c-3.4-3.8-5.2-6.6-8.4-10.2c-3-3.4-5.8-5.7-7.8-7.4
		c-11-8.8-24.5-16.5-24.5-16.5c-9.9-5.5-19.3-15.7-38.2-36.2c-5.5-5.9-11.1-12-17.9-20.5c0,0-26.8-33.5-43.9-80.6
		c-1.5-3.9-2.5-7.2-2.5-11.4c0.1-20,23.1-34.7,33.5-40.6c9.5-14.8,11.5-29.3,5.3-36.2c-1.2-1.3-3-2.7-6-3.6
		c4.5-16.7,30-105.4,115.8-148.2c17.5-8.7,54.3-24,102.1-21.6c14.3,0.7,91.4,4.6,143.9,69.3c42.3,52.3,42,111.4,41.3,128.1
		c-59-6.8-72.6-7.5-72.7-6.6c-0.2,1.3,27,14.3,69,20.2C721.1,345,735.7,349.6,743.8,361.1z"/>
	<path class="st1" d="M740.9,368.1c8.2,16.9,1.3,35.3-1.9,43.8c-17.8,47-142.6,217.8-280.7,178c-43.7-12.7-165-134.8-172.2-193.5
		c-0.9-7.2-2.4-20.9,5-34.9c5.5-10.2,13.5-16.2,18.7-19.5c1.3-22.1,7.3-69.3,39.9-115.7c13.9-19.8,66.4-87.2,157.4-91.8
		c4.7-0.2,114.7-3.9,172.4,84.9c33.7,51.8,30.6,105.8,28.8,123.9C715.8,345.6,733.1,352,740.9,368.1z"/>
	<path d="M555,256.9c0-0.2,4.3-1,38.6-6.4c16.8-2.6,25.3-3.8,31.6-0.3c8.7,4.8,12.3,14.8,13.8,20.7c-3.7-4.6-10-11.1-19.5-14.7
		c-6.3-2.4-11.8-2.7-25.9-2C569.7,255.1,555,257.3,555,256.9z"/>
</g>
<g id="レイヤー_3_1_">
	<g id="レイヤー_6_1_">
		<path d="M323.8,379.8c21.8,18.6,74.8,58.2,153.2,68.4c113.8,14.8,197.4-43.6,216.3-57.6c-18.8,31.1-54.1,77.5-113.3,107.5
			c-25.9,13.1-53,26.8-88.9,24.1c-61.5-4.7-103.9-54-127.1-81.4C343.9,417,331.2,394.6,323.8,379.8z"/>
		<path d="M669.8,372c15.2-1.3,29.6,5,37.1,16.8c6.5,10.2,5.6,20.8,5.2,24.5c4.8-3.9,15.8-13.7,14.1-23.1
			C723.9,378.4,701.7,368.5,669.8,372z"/>
		<path d="M346.5,372c-1-0.3-15.2-4.5-26,4.8c-9.2,7.8-11.9,21.7-6,33.8c-2.6-4.8-6.3-13.5-6.6-24.9c-0.2-6.4-0.4-11.8,2.7-15.6
			C316,363.6,330.7,364.3,346.5,372z"/>
		<path d="M423,504.9c7.8,6.8,29.1,23.5,61.2,27.5c38.2,4.7,66.5-11.4,74.8-16.6c-14.6,15.6-29.4,23.3-38.4,27.1
			c-10.4,4.4-21.3,9-34.8,6.8c-3.5-0.6-10.7-2.1-27.9-14.3C448.6,528.8,436.2,518.9,423,504.9z"/>
	</g>
	<g id="レイヤー_4_1_">
		<path d="M528.5,271.8c-2.2,6.2,4.1,14.4,11,18.1c10.3,5.6,19.4-1.2,37.1,3.2c3.9,1,7.2,2,10.2,3.7c5.7,3,9.2,6.6,10.2,7.7
			c4.5,4.6,14.4,12.5,37.2,27.3c-14.8-5.4-25.5-11.6-32.6-16.3c-11.4-7.5-19.6-12.9-32.9-15.9c-7.1-1.7-13.2-1.9-17.4-1.8
			c5.5,0.9,13.7,2.8,22.4,7.7c12.9,7.3,20.2,17.1,23.5,22.5c-2.2-2.5-5.3-5.4-9-8.5c-1.1-1-6.3-5.2-13.4-9.2
			c-10.9-6.3-21.6-9.5-29.1-11.4c-3.6,0.1-9-0.4-12.5-4.4c-0.3-0.3-0.6-0.7-0.9-1c-3-3.8-11.2-15-6.4-22.7c3.9-6.4,14-6.3,15.5-6.2
			C540.4,264.6,530.7,265.7,528.5,271.8z"/>
		<path d="M468.3,276.7c-0.7,2.8-1,4.6-2.2,6c-6.2,7.6-28.7-0.7-47.9-1.1c-1.9,0-5.8,0-10.5,1.1c-6,1.5-10.2,4.1-11.4,4.9
			c-5.3,3.2-16.5,8.5-41.3,17.1c7.6-0.8,14.2-2.1,20-3.5c5.3-1.2,9.3-2.7,14.4-4.4c9.1-3,14.8-5.4,17.1-6.2
			c7.3-2.7,18.7-4.7,36.5-1.6c-2.7-0.1-6.6-0.1-11.3,0.6c-3.7,0.6-7.9,1.7-13.9,4.1c-11.6,4.8-21.7,11.8-27.3,15.8
			c2.4-1.7,5.8-3.9,10.4-5.9c7.1-3.1,11.6-3.7,26.3-5.8c0,0,23-3.4,37.2-10.1c1.3-0.7,3.4-1.7,4.8-3.9c2.8-4.1,2-9.3,1.6-11.8
			c-0.3-1.8-1-4.8-2.9-8.2C468.7,266.4,469.6,271.1,468.3,276.7z"/>
		<path d="M642.9,335.6c3.1-1.5,8.3-3.2,14.8-2.9c2.4,0.1,13,0.7,14.3,5.7c0.7,2.7-1.5,5.6-2.9,7.3c-0.8-1.3-1.9-3.1-3.9-4.8
			c-3.6-3-7.3-4-10.7-4.6C651.6,335.7,647.7,335.3,642.9,335.6z"/>
		<path d="M639,336.1c3.4,0.6,8.3,1.8,13.7,4.5c3.2,1.6,12.5,6,11.9,9.9c-0.1,0.8-0.9,2.2-4.8,3.6c-0.3-1.6-0.9-3.8-2.4-6.2
			c-2-3.1-4.5-4.7-8.2-6.9C646.8,339.4,643.3,337.5,639,336.1z"/>
		<path d="M348,305.5c-1.9-1.2-5.2-2.8-9.4-3.5c-1.9-0.3-8.3-1.2-9.4,1.2c-0.9,2,1.9,5.2,2.6,5.8c-1-2.1-0.7-3.4-0.3-3.9
			C333,302.6,339.4,302.8,348,305.5z"/>
		<path d="M348.4,307.3c-5.8,0.8-10.2,2.4-13.1,3.7c-4.5,2-5.3,3.4-5.4,4.5c-0.6,2.9,2.9,5.5,3.4,5.8c-0.6-1.6-0.6-2.9-0.4-3.9
			C333.6,312.4,339.8,308.4,348.4,307.3z"/>
		<path d="M455.2,259.4c-5.9-2.2-15.1-6-25.8-12c-16.5-9.2-22.1-15.5-32.4-15.9c-5.7-0.2-14.2,1.3-25,10.6
			c6.9-3.2,17.2-6.6,28.6-4.3c8.5,1.7,12.5,5.6,23.2,10.9C430.9,252.2,441.3,256.4,455.2,259.4z"/>
	</g>
	<g id="レイヤー_5_1_">
		<path d="M535.7,400.3c-4.6-2.2-11.2-4.8-19.5-6.2c-9.4-1.6-16.9-0.7-23.1,0c-6.4,0.7-11.6,1.9-15.3,2.8
			c-8.5-4.9-15.6-6.8-20.6-7.6c-3.6-0.6-9.3-1.1-18.7-2.9c-2.2-0.4-4-0.9-5.3-1.1c-6.2-4.1-9.2-11.6-7.7-18.7
			c2.1-9.7,11.6-13.1,12.1-13.2c8.5-5,18.8-12.4,28.8-23.3c21.6-23.5,28.9-49.6,31.6-62.9c1.7,3.6,3.2,7.2,4.9,10.6
			c-8.1,24.5-2.1,50.3,14.9,65.3c14.3,12.7,31.8,13.3,37.5,13.3c0.7,0.7,10.7,10.9,7.7,24C560.5,391.8,549.2,400.6,535.7,400.3z"/>
		<path class="st1" d="M506.1,246.7c-9,14.4-12.3,26.8-13.7,35.3c-1.7,10.2-0.4,15-3.7,24c-0.9,2.4-4.5,11.6-17.5,24.3
			c-21.4,20.7-35.8,18.8-41,33.6c-2.2,6.5-2.8,17.2,2.9,21.5c2.9,2.1,6.6,2.1,9.1,1.7c1.9-1.2,5.8-3.6,11.2-3.6
			c5.7,0,10,2.6,11.9,3.8c6.5,4.1,6.6,8.3,11.6,9.7c3.4,1,6.4-0.1,9.2-0.9c21.5-5.7,27.4-12.5,34.8-10c9,3,8.2,13.5,14.6,14.3
			c10.5,1.2,28.7-25.3,21.8-40.4c-5.8-12.9-24.7-6.4-38-22.7c-3.2-4-6.2-9.4-9.6-37.1C508.3,286.8,506.5,268.5,506.1,246.7z"/>
	</g>
	<path d="M455.2,400.3"/>
</g>
<path d="M105.2,144.4c4.5,2,10,4.1,13.8,7.1c2.7,2.1,8.6,6.3,15.5,15.9c9.6,13.2,14.7,27.2,17.5,37.5c5.4,1.5,14.1,3.1,24.2,0.8
	c5.8-1.3,18-4.1,23.9-14.9c2.9-5.2,3.2-10.3,3.2-13.4c5.9-6.8,9.7-9.3,13.7-18.5c6.3-14.2,10.4-32.3,0.1-46.6
	c-3.7-5.1-8.7-5.6-14-10c-9.2-7.6-18.4-17.7-24.9-28.5c-12.9-0.1-19.9-1.7-33,4.3C120.4,89.4,106.7,116.9,105.2,144.4z"/>
<path class="st1" d="M214.3,116.9c-12.6-10.9-29.2-20.5-36.4-36.6c-7.2-16-58.3,21.8-66.2,59.4c9.2,6.1,16.9,13.1,23.3,21.3
	c9.6,12.3,13.7,23.8,15,28c2.1,6.4,3.1,12,3.7,16.3c1.7,1.1,9.6,6.3,20.3,4.6c10-1.6,15.8-8.2,17.2-9.9c3-8,6.1-16,9.1-24.1
	c1.6-6.7,3.3-13.3,5.1-20C208.9,143.1,211.8,130,214.3,116.9z"/>
<path d="M169.3,144c3.6-12.9,18.2-22.7,25.5-26.2c4.6-2.2,1-0.5,1-0.5c-2.8-1.2-8.7-3.3-10.9-5.6c-5.9-6.2-11.7-19.2-5.3-25.7
	c3.3-3.3,9.9,3,14,3.2c2.6,0.1,8.2,1,11.4,1.7c7.6,1.8,7.6,4.7,13.9,7.1c10.5,3.8,15.1-1.5,21.7,3.2c5.4,3.9,6.4,10.3,6.5,10.8
	c0.3,1.9,0.4,5.6-2.3,10.7c-8.5,16.4-31.7,20-37.2,29.9c-0.4,0.7-2.2,4.3-5.6,8.9c-0.5,0.6-2.1,2.8-3,3.8
	c-3.4,3.6-7.3,10.1-12.5,10.8c-9.3,1.5-15.4-8-18.4-14.4C165.5,155.9,168.3,147.6,169.3,144z"/>
<path class="st1" d="M177.6,133c2.5-4,11-12.9,19.3-13.7c5.4-0.5,14.8,1.8,21.8,2.3c4,0.2,11.2-0.5,15.5-1.5
	c-4.5,0.6-9.7,0.9-14.2,0.6c-6.4-0.3-12.6-1.9-18.5-3.7c-3.7-1.1-8.4-3.9-10.7-5.8c-5.7-4.7-14.7-18-10.4-23.9
	c2.8-3.8,9.3,3.7,13,3.6c2.3,0,7.5,0.8,10.5,1.4c5.8,1.1,12.2,6.9,17.3,8.5c8.8,2.9,12.7-0.7,18.8,3.5c1.5,1,4.6,3.2,5.6,6.9
	c2.4,8.8-9,18.3-11.4,20c-0.8,0.5-1.6,1.1-1.6,1.1c-1.7,1.1-5.1,2.2-6.4,2.8c-2.5,1.2-3.2,2-5.4,3.3c-0.6,6.6-3.8,15.4-6.3,20.8
	c-4.2,8.9-9.2,14.7-17.1,17.9c-3.7,1.5-8.7-0.4-10.2-0.6c-5-1-11.9-5.4-13.2-7.9C166.7,154.8,169.2,146.4,177.6,133z"/>
<g>
	<path d="M146.9,80.5c-0.5-1.4,1-2,1-3.3c2-0.8,5.9-2.8,7.2-3.7c1.3-0.8,0.5-0.4,0.5-0.4c3.4-6.1,3.7-11.6,2.8-18.6
		c0-0.1-0.1-0.5-0.2-0.7c3.8-11.8,12.2-17,22.6-22.6c1.1-0.3-0.8,0.3,0.9-0.5c2.7-1.3,7.4-1.6,7.4-1.6c2.9-0.2,3.1-2,11.7-8.8
		c6.2-4.8,7.8-5.2,9.1-4.8c1.7,0.7,2.3,3,2.8,4.7c2,7.9-2.4,14.9-2.7,15.4c-5.4,8.4-15.2,9.7-16.7,9.9c-0.6,1.4-1.8,3.5-3.8,5.5
		c-2.7,2.7-5.7,3.9-7.3,4.5c0.6,4.3,0.7,8,0.7,10.8c0,0,0,6.8-1.3,12.1c-0.4,1.6-1,3-1,3c-0.2,0.5-0.5,1-0.8,1.7
		c-2.8,5-19.8,11.4-23.2,10.6C147.3,91.4,149.3,86.6,146.9,80.5z"/>
</g>
<path class="st1" d="M148.8,80.6c0.4-3.2,4.2-3.4,6.1-5.3c1.7-1.6,4.9-5,5.6-6.9c2.5-6.3-1.3-10.3-0.2-16.5
	c1.1-6.1,5.2-9.1,10.3-13.2c2.7-2.2,7.3-5.1,11.1-6.6c8.3-3.2,8.4-2.4,12.4-5.3c2.4-1.7,5.1-4.3,10.4-8.1c1.1-0.8,3.5-2.5,5-1.7
	c0.3,0.2,0.6,0.4,0.9,1c0.9,1.9,1.3,3.4,1.4,5c0.4,5.4-2.4,10-2.4,10c-3.1,5.5-8.2,7.8-10.1,8.6c-3.2,1.4-6.1,1.7-8,1.8
	c-0.4,1.4-1.1,3.3-2.7,5.3c-3.7,4.5-9.1,5.2-10.4,5.3c0.6,0.8,1.3,1.9,1.9,3.4c0.6,1.4,1.2,3.3,1.2,7.1c0.1,4.2-0.5,6.3-1.3,12.9
	c-0.3,2.6-0.6,4.7-0.7,6c-0.1,0.4-0.2,1-0.5,1.6c-0.6,1.3-1.5,2.1-2.2,2.7c-3.3,2.7-6,4-6,4c-1.7,0.8-4.5,2.2-8.4,2.7
	c-2,0.3-4.2,0.8-6.7-0.2C154.8,94,147.3,93.1,148.8,80.6z"/>
<g>
	<g>
		<path d="M110.5,71.2c-0.9-3.3-1.9-4-2.6-8.3c-0.1-1-2.3-5.8,0.1-8.5c3-3.3,6-7.1,11.6-9c2.9-1,8.5-5.3,9.9-9
			c3.7-3.4,7.3-7,11.8-8.7c3.8-1.4,7.8-0.3,11.2,0.3c2.2,0.4,4.5,1.5,5.9,2c3.9,1.4,9,1.2,12,0.2c5.3-1.9,8.3-5.5,13-7
			c3.3-1.1,7.8-3.6,9.6,0.6c3.1,7.3-0.3,11.9-5.3,18.3c-1.9,2.4-6.1,6.7-10.5,7.6c-5.2,1.2-12,2.4-17.9,3.2
			c-3.2,0.4-7.4,1.6-10.8,1.7c-1.5,3.4-3.3,6-6.6,7.8c-1.5,0.9-3.1,1.6-4.9,2c5.5,5.2,9.4,9.5,12.7,16.7c2.2,4.8,5.1,9.9,4.4,16
			c-0.5,4.8-3.5,10.9-8.7,12.3c-6.4,1.7-12.1-2.9-16.5-5.8c-1.5-1-1.5-1.3-1.8-1.6c-1.8-1.9-3.4-4.2-4.3-6
			C118.6,87.5,115.3,79.2,110.5,71.2z"/>
	</g>
	<path class="st1" d="M154.6,91.9c0.4,6.5-0.8,12.7-6,17c-2.6,2.1-6.1,2.5-9,1.5c-5.6-2-7.8-3.3-11.6-8.4c-5-6.6-7.9-15-11.9-23.2
		c-2.5-5.3-6.7-11-7-18c-0.1-1.7,0.7-6.2,2.8-8.1c0.9-0.8,3.4-2.9,4.9-3.7c1.5-0.8,5-2.6,5.9-3.4c4.7-3.4,6.6-6.2,10.5-10.5
		c1.9-2.1,7.3-5,9.9-6.3c3.4-1.7,11.2,1.2,12.6,2c4.5,2.5,7.9,2.9,11.2,2.2c6.4-1.3,9.5-5.4,14.7-7.7c2.9-1.3,6.5-3.5,8.9-1.1
		c3.4,3.5,1.7,6.5-0.2,10.6c-1.3,2.8-3.1,5.7-6.4,7.8c-9.3,5.9-21.7,9.4-32.5,9.4c-3.5,0-3.7-1.2-5.9-2.3c-2.2-1.1-2.1-2.9-3.7-4.3
		c0.3,1.3,0.7,3,1.4,4.1c1.1,1.9,3,2.9,3.3,5.1c0.6,3.8-4.9,7-7.1,7.9c-4.9,2.2-8.8,2.2-13.2,2.5c-3.3,0.3-4.8-0.3-7.8-0.4
		c3,0.6,5.8,1.1,8.9,1.3c2.5,0.1,4.9-0.1,7.3-0.6c0.7,0.6,1.7,0.9,2.4,1.5c3,2.3,5.5,4.6,7.9,7.6c0.8,1.1,1.7,2.9,2.5,4.1
		c0.6,0.4,1.4,0.2,1.9,0.8C152.4,83.3,154.2,86.8,154.6,91.9z"/>
</g>
<g>
	<g>
		<path d="M90.1,102c-3.3-4.5-8.2-11.2-9.6-15.9c-1-3.3-0.3-4.9-1-6.9c-0.5-1.6-0.1-0.5-0.2-0.6c-0.7-2.1-0.1-3.6,0.9-5.6
			c0.5-1,1-2,1.8-2.9c1.1-1.2,2.6-2.2,3.8-3.2c0,0,0,0,0.1-0.1c5.7-3.9,13.1-2.6,19.4-4.1c5.9-1.4,12.2-5.8,17.9-5.4
			c5.8,0.4,13.6,1.7,14.1,7.7c0.6,7.2-8.3,10.6-12.8,15.6c-3.3,3.7-9.1,4.2-14.1,3.9c-0.1,0.4-0.2,0.7-0.1,1.2
			c2.2,1.3,6.3,4.1,7.8,5.6c3.1,3.2,8,7.6,9.5,10.6c3.8,7.3,5.7,16.3-1.8,20.8c-9.8,5.8-19.3-1.1-27.2-8.2
			C96.1,112.2,92.6,105.5,90.1,102z"/>
	</g>
	<path class="st1" d="M128,59.2c-7.9-1.7-15.7,3.9-21.5,5c-7.4,1.4-16.7,2.9-21.1,5.5c-5.5,3.3-3.2,10-3.4,12.2
		c-0.7,9.6,9.3,18.2,12.1,23.5c3.9,7.3,13,13.8,16.3,15.7c6.6,3.8,5.6,2.5,10.8,4.4c2.8,1,5.9-1,8.3-2.2c3.6-1.8,3.6-10,3.1-12
		c-1.6-7.1-4.6-9-7.7-14.5c-1.5,0-3-0.2-4.6,0c-3-3.5-6.2-6.5-10.1-8.9c-1.8,1.5-3.7,2.9-5.9,3.6c-2.9,0.9-5.3,0.9-8.3,0.9
		c2-0.3,4-0.5,5.9-1.2c2.8-1,5.1-2.4,7.6-4.1c0.1-1.1,0.3-2.1,0.4-3.2c-3-1.5-5.1-3.2-6.8-6.1c-0.8-1.3-0.7-2.9-1-4.4
		c1.5,2.2,0.9,4,3.5,5.7c2.6,1.7,2.6,3,7.5,3.3c3.5,0.2,9-0.6,12.9-5.5c1.5-1.9,11.2-8.3,10.2-12.8C135.3,60.9,130.1,59.7,128,59.2z
		"/>
</g>
<path d="M68.5,120.5c-0.1-4.5,1-8.1,0.1-12.1c-0.5-1.8-0.9-1.3-1.5-3.9c-0.3-1.3-2.1-5-0.3-7.7c1.8-2.7,4.5-4.4,8.2-6.9
	c2.5-1.7,6-6.2,10.3-8.1c2.2-1,10.1-6.3,12.6-1.5c2.6,4.8-2.9,11.1-5.4,15.8c-1.6,3-5.7,7.1-8.7,8.6c-1,0.5-0.3,0.1-1.1,0.5
	c0.3,0,0.2-0.3,0.6-0.2c1.3,0.6,1.6,2.3,2.4,4c0.7,1.3,2.7,4.6,2.9,6.4c0,0.2,0,0.1,0,0.1l0,0c4.3,0.8,8.6,2.8,12.6,4.3
	c6.4,2.4,12.6,4.3,19.2,5.6c0.6,3.6,0.6,6.9-0.6,10.4c-0.8,2.5-2.5,4.6-4.2,6.5c-3.3,0.8-6.6,1.4-9.9,2.2c-0.7-0.2-2.6-0.7-3.2-0.8
	c-0.9-0.2-2.9-1-3.2-1.2c-4.8-1.8-10.8-4.4-14.8-6.1c-5.3-2.3-10-4.6-13.3-8.1c-1.4-1.4-1.3-2.2-1.7-2.8
	C68.5,123.8,68.5,121.5,68.5,120.5z"/>
<path class="st1" d="M96.5,81.4c-3.9-5.1-12,1.4-15.5,5c-0.5,0.5-3,3.3-4.2,4.2c-1.2,0.9-2.8,1.8-4,2.8c-2,1.6-4.1,2.9-5.1,5.7
	c-0.8,2.2,1.5,6.3,2.1,8.1c1.6,4.6-0.6,11,0.9,14.7c3,7.2,7.3,8.2,13.7,11.1c6.4,2.9,13.4,4.9,20.3,7.3c3.2,1.2,7.4,1.6,10.9,2
	c2.8-2.2,4.9-4.6,6-8c1.1-3.4,0.8-6.3,0.1-9.6c-2.6-1-5.1-1.6-7.9-1.7c-2.8,0-3.8,1.1-7.5,0.6c-0.9-0.1-5.6-1.6-8-2.7
	c-2-0.9-7.4-2.8-9.9-3.9c-1,1.3-2,3-3.1,3.9c-2.7,2-5,2.9-8.1,3.2c3.1-0.9,5.5-2.1,8-4.2c1-0.9,2-2.4,2.8-3.6
	c-1.5-3.9-3.3-7.4-5.6-10.8c-1.2,0.2-2.4,0.3-3.5-0.3c-1.6-0.9-2.4-2.2-3.2-3.7c1.1,0.7,2.3,1.6,3.4,2c1.1,0.4,2.1,0.8,3.2,0.7
	c0.8,0,2.9-1.7,3.3-1.8c1.1-0.5,3.7-3.3,3.9-3.5C91.9,94.1,100.3,86.4,96.5,81.4z"/>
<g id="レイヤー_2">
	<g>
		<path d="M919.6,645.5c-8.6,1.2-17.3,2.3-25.9,2.7c-10.7,0.5-21.2,0.4-31.8,0.1c-4.2-1.4-7.4-2.8-9.5-3.8c-4.1-2-6.3-3.5-9.8-3.3
			c-1.3,0.1-3,0.2-4.4,1.2c-3.5,2.6-1.3,7.7-3.7,13.4c-2.5,6-9,10.3-11.3,9c-1.7-0.9-0.3-4.2-0.4-15.3c0-8.2-0.8-9.5,0.1-14.2
			c0.3-1.4,1.2-5.8,4.1-10.8c3.5-6,7.7-9.4,8.7-10.2c2-1.6,3.8-2.6,5.2-3.3c1.3-2.3,6.9-11.7,17.8-14.2c7.6-1.8,14.3,0.2,17.9,2
			c10.6,5.4,17.5,10.6,24.9,18.1C909.9,625.5,914.9,634.7,919.6,645.5z"/>
	</g>
	<path class="st1" d="M841.8,611.2c1.3-2.4,2.7-4.9,4-7.3c0.4-0.9,3.9-7.8,12.1-9.8c8.3-2,14.6,2.8,15.4,3.4
		c7.9,4.5,19,12.1,29.3,24.2c7,8.2,11.8,16.3,15,22.8c-18.7,0.5-37.3,1.1-56,1.6c-6-2-11.9-4.1-17.9-6.1c-3.7-0.6-5.8,0.3-7,1.3
		c-4,3.3-0.3,9.9-4.5,16.5c-2.4,3.7-6.7,6.6-8.5,5.6c-1.9-1,0-5.4,0-16.4c0-7.7-0.9-8-0.1-12c1.3-6.9,4.9-11.6,6.9-14.1
		C834.3,616.2,838.6,613.1,841.8,611.2z"/>
	<path d="M925.6,651.4c0.8,1.5,1.7,3.4,2.4,5.7c0.8,2.5,1.1,4.7,1.2,6.5c1.5,2.4,1.8,4.4,1.7,5.9c-0.1,1.6-0.7,2.1-1.8,5.3
		c-1.2,3.6-0.8,3.8-1.7,6c-1,2.5-3.3,6.5-5,6.2c-0.4-0.1-1.4-0.5-2.2-4.9c-0.7-3.4-1.2-8.7,0.3-15.7c-0.5-2.6-1-5.1-1.6-7.7
		c-2.2-1.1-5-2.8-7.9-5.2c-3.6-3-6-6.2-7.6-8.6c5-0.7,10-1.4,15-2c1,0.7,2.3,1.6,3.5,2.9C923.8,647.8,924.9,649.9,925.6,651.4z"/>
	<path class="st1" d="M925.6,653.6c0.7,1.1,1.5,2.6,2.1,4.7c0.6,2.2,0.6,4.1,0.5,5.4c2.1,3.9,1.9,6.3,1.4,7.9c-0.4,1-1,1.8-1.8,3.8
		c-0.7,1.9-0.5,2.3-1,3.9c-0.6,1.9-2.2,5.4-3.9,5.3c-1.3-0.1-2.2-2.5-2.5-3.4c-1.9-5.2-0.4-10.7,1.2-14.5c-0.6-2.7-1.2-5.4-1.9-8.1
		c0.4-0.2,0.9-0.7,1.3-1.3c0.4-0.6,0.7-1.2,0.8-1.6c-0.1,0.3-0.4,1.2-1.4,1.8c-0.5,0.3-1,0.4-1.3,0.5c-2.2-1.1-4.8-2.7-7.4-4.7
		c-3.7-2.9-6.5-5.8-8.4-8.3c4.3-0.9,8.6-1.9,12.9-2.8c1.4,1.3,2.9,2.8,4.4,4.6C922.8,649.1,924.4,651.5,925.6,653.6z"/>
	<path d="M914.5,656.4c1.3,1,3.6,3,5.3,6.2c1.9,3.6,2.1,7,2.1,8.7c0.8,1.2,2,3.1,3.3,5.4c2.1,3.8,2.4,5.4,4.2,9.4
		c3.3,7.2,5.2,8.4,4.4,9.7c-1.3,2.2-9,1.3-14.3-2.3c-8.9-6-9.3-18.3-9.4-20.9c-1.5-1.6-3.2-3.8-4.9-6.4c-1.2-2-2.2-4-2.9-5.7
		c-1.1-0.5-4.7-2.2-6.9-6.4c-2.1-4-1.7-7.7-1.5-8.9c4-0.1,8-0.2,12-0.4C908.8,648.7,911.7,652.6,914.5,656.4z"/>
	<path class="st1" d="M913.8,656.7c1.4,1,3.9,3.2,5.6,6.9c1.6,3.3,1.8,6.3,1.8,8c0.9,1.2,2.1,3.2,3.4,5.7c2.2,4.3,2.2,5.7,4.2,10
		c2.8,6.1,4.7,7.4,4.1,8.5c-1.2,1.8-8.3,0.4-13.3-3.3c-8-5.9-8.7-16.6-8.8-20c-1.6-1.7-3.4-3.9-5.1-6.6c-1.3-2.1-2.3-4.1-3-5.9
		c-1.3-0.8-2.9-2.1-4.4-3.9c-3.4-4.2-4.1-8.7-4.2-10.8c0.8-0.6,2.7-1.8,5.5-2c3.3-0.2,5.7,1.2,6.5,1.7
		C908.6,648.8,911.2,652.7,913.8,656.7z"/>
	<path d="M905.1,660.7c1.8,1.2,5.2,3.9,7.8,8.5c2.7,5,3,9.6,3,11.8c0.7,1.4,1.7,3.5,2.3,6.2c0.9,3.9,0.4,6.1,0.4,9.3
		c0.1,9.2,4.9,13.2,3,15.2c-1.7,1.9-7.7,0.1-11.5-3c-8.9-7.1-7-21.2-6.8-23.2c-5-6.3-9.9-12.6-14.9-18.9c-3.5-7-7-14-10.4-20.9
		c5.3-0.1,10.6-0.3,15.9-0.4c1.7,1.1,4.1,2.9,6.4,5.8C903.4,654.7,904.6,658.4,905.1,660.7z"/>
	<path class="st1" d="M904.7,661c1.9,1.5,4.7,4.1,7.1,8.1c2.8,4.8,3.4,9.4,3.5,11.9c0.7,1.4,1.7,3.5,2.2,6.2
		c0.7,3.3,0.4,5.6,0.3,7.5c-0.3,9.5,5,14.4,3,16.4c-1.6,1.6-6.3-0.1-9.4-2.3c-9.1-6.5-7.8-21.1-7.6-23.1c0.3-0.3,0.8-0.9,1.7-1.3
		c1.2-0.5,2.2-0.4,2.6-0.3c-0.2-0.1-1.2-0.7-2.5-0.5c-1.2,0.2-1.9,1.1-2.1,1.3c-4.9-6.3-14.5-19.6-15-19.3c-3.2-6.7-6.5-13.3-9.7-20
		c1.1-0.7,3.7-2.1,7.3-2.3c3.8-0.2,6.7,1.2,7.8,1.9c1.7,1.6,3.8,3.7,5.7,6.4C902.3,655.1,903.8,658.5,904.7,661z"/>
	<path d="M884.1,652c0.8,1.4,2.3,4.3,3.4,8.3c1.4,4.9,0.6,5.7,2.1,11.9c0.1,0.3,0.1,0.5,0.2,0.7c0.3,1,0.4,1.6,0.5,1.7
		c1.9,7,0.7,11.3,0.7,11.3c-0.3,1.1-1.4,2.8-3.5,6.1c-1.3,2.1-2,3-3,4.6c-0.9,1.5-1.3,2.3-2.2,3.5c-0.5,0.7-1.3,1.5-2.4,2.5
		c-1.9,1.6-4.8,4.1-6.4,3.2c-2.4-1.2-0.8-8.8-0.4-10.5c0.7-3.1,2.1-7.9,5.9-13.2c-1.1-2.7-2.2-5.6-3.2-8.8c-1-2.9-1.8-5.7-2.4-8.4
		c-1.9-1.1-4.3-2.8-6.6-5.5c-3.9-4.5-5.4-9.2-6.1-11.8c6.2-0.9,12.4-1.7,18.6-2.6C880.6,646.8,882.4,649.1,884.1,652z"/>
	<path class="st1" d="M883.4,652.8c1.1,2.1,2.3,4.6,3.2,7.1c1.8,4.9,0.9,5.8,2.4,14.9c1.2,7.3,2.2,9.2,0.9,12.3
		c-0.3,0.6-0.3,0.5-3.4,5c-3.8,5.5-3.9,5.7-4.9,7c-1,1.2-5.6,7.3-7.6,6.4c-1.9-0.9-0.7-7.9,0.3-11.6c1.3-4.9,3.5-8.6,5.1-10.9
		c0.1-0.1,0.2-0.4,0.6-0.7c0.6-0.4,1.3-0.1,1.4-0.1c-0.1-0.1-0.5-0.5-1.1-0.4c-0.3,0-0.6,0.2-0.7,0.3c-1.1-2.7-2.1-5.5-3.1-8.5
		c-1-3-2-5.9-2.8-8.8c-1.7-1-3.9-2.6-5.9-4.9c-4.5-5.1-5.7-10.8-6.1-13.5c1.5-0.9,4.4-2.2,8.2-2.5c4.4-0.3,7.7,0.9,9.4,1.6
		C880.3,647,881.8,649.6,883.4,652.8z"/>
</g>
</svg>
