<?xml version="1.0" encoding="utf-8"?>
<!-- Generator: Adobe Illustrator 24.1.2, SVG Export Plug-In . SVG Version: 6.00 Build 0)  -->
<svg version="1.1" id="レイヤー_1" xmlns="http://www.w3.org/2000/svg" xmlns:xlink="http://www.w3.org/1999/xlink" x="0px"
	 y="0px" viewBox="0 0 1000 1000" style="enable-background:new 0 0 1000 1000;" xml:space="preserve">
<style type="text/css">
	.st0{fill:#FFFFFF;}
</style>
<rect id="BackGround" x="-25" y="-25" class="st0" width="1050" height="1050"/>
<g id="レイヤー_7">
	<g>
		<path d="M699.6,374.9c-67.3,39.4-143.4,82.1-225.2,67.7c-55.6-9.8-112.8-40.9-160.3-71.4c26.4,60.9,36.7,124.8,16.8,184.9
			c-13.7,41.4-25.7,54.1-32.8,89.4c-5.1,25.6-2.8,35.9-2.7,60.7c-4.6,14.5-9.7,36.2-9.2,62.4c0.5,30.4,7.9,33.5,6.1,54.1
			c-4.2,46.3-45.4,71.3-37.1,83.3c2.4,3.5,6.7,2.3,31.9,1.2c45-1.8,51.3,1,55.9-4.8c9.5-12.1-12.4-30.6-11.2-67.3
			c0.6-18.9,6.7-26.8,13.8-47.4c7.4-21.4,14.2-52.8,10.4-95.7c5.4-2.2,14-6.2,23.3-12.8c16.5-11.7,25.7-24.9,28.8-29.2
			c10.4-14.4,32-39.4,81.5-86.7c11.2,25,32,62.9,69.9,98c21.7,20.1,43.2,34,61.1,43.6c2.7,31.7,5.6,57.3,7.7,74.4
			c5.5,44.9,7.9,52.5,4.6,69.3c-6.3,31.7-23.3,45.7-16.1,55.4c4.2,5.7,11.8,3.2,46.1,3.1c35.9-0.2,44.5,2.4,47.7-3.1
			c6-10.6-22.6-26-28.5-58.9c-3.8-21.1,7.6-29.7,12.4-58.9c2.7-16.2,1.4-75.7-0.9-110.2c-2.4-35.4-15.8-47.9-21.7-98.1
			C665.1,520.4,672.5,434.6,699.6,374.9z"/>
	</g>
	<path class="st0" d="M341.4,457.5c46.4,34.8,92.8,69.5,139.3,104.3c-35.5,21.6-54.1,44.4-64.5,61.7c-7.3,12.1-14.7,28.2-32.6,44.9
		c-12.3,11.5-24.5,18.6-32.9,22.8c-1.2,32.7-5.7,58.3-9.5,75.3c-8.9,40.4-17.3,48.8-15.2,74.5c2.4,28.4,15.1,48.1,7,54.6
		c-4.3,3.4-9.4-0.9-22.9-2c-26.8-2.2-41.8,12-45.8,7.4c-6.1-7,34.1-33,39-76.8c2.9-25.6-9.6-27.7-6.1-61c2.7-24.9,6.1-46.7,7.4-54.7
		c5.7-35.7-4.6-33.7,0.8-61.4c7.4-37.9,28.4-50.6,38.2-103.8c0.2-1.3,0.6-3,0.9-5.4C347.5,519.6,349.1,492.3,341.4,457.5z"/>
	<path class="st0" d="M496.2,563c58.6-38.4,117.2-76.7,175.8-115.1c-9,29.5-19.4,77.3-12.9,135.5c3.8,33.6,12.1,61.7,20.4,83.1
		c11.2,44.6,9.2,78.8,5.3,101.9c-5.5,32.1-15.6,45.6-9.6,71.2c8.1,34.4,35.4,52.5,29,61.4c-4.1,5.7-15.6-1.5-46.2-1.5
		c-24.7,0-34.5,4.7-37.8-0.4c-5.1-7.8,17.5-21.2,25.8-48.6c6.9-22.9-1.6-37.6-8.4-71.5c-4-20.3-7.9-50-5.7-87.9
		c-17.3-8.2-37.5-19.8-58.3-36.3C533.9,623,509.9,587.6,496.2,563z"/>
</g>
<g id="レイヤー_8">
	<path d="M164,358c-12.8,14-20.9,26.3-24.3,31.7c-41.9,65.9-38.9,138.3-38.2,144.9c3.3,31.5,13.7,49.4,5,81.2
		c-5.3,19.3-13.9,30.2-8.3,42.3c7.7,16.3,36.5,24.5,48.1,14.9c10.8-8.9-2.3-25.8,1-52.8c4.7-38.6,34.8-48.7,88.6-121.7
		c8.8-11.9,15.5-21.8,19.5-27.9c19.2,3.5,32.9,2.1,42.1,0c4.7-1.1,39.9-9.5,40.6-9.7c0,0,0,0,0.1,0c0.2,0,0.7-0.2,1.3-0.3
		c27-6.1,299.2-9.4,337.7-10.6c13.6-0.4,26.8-2.1,26.8-2.1c4.8-0.6,8.6-1.2,10.7-1.6c1.2,10.4,3.4,24.6,8,41.2
		c2.2,7.8,10.3,36,29.8,68.8c9.4,15.9,15.2,25.7,26.3,37.3c16.4,17.2,23.9,17.5,27.9,27.9c8.5,22.1-22.6,42.5-15.4,55.8
		c9.1,16.8,72.3,9.3,78.7-12.5c4.4-15.4-22.6-27.1-19.3-51.2c1.6-11.5,8.5-14.9,22.1-34c0,0,13.9-19.5,26.5-48.4
		c17.7-40.5,2.9-85.9-5.8-113c-6.9-21.5-23.6-73.6-74-108.8c-10.4-7.2-34.5-23.7-68.8-28c-34.5-4.3-61.6,6-68.5,8.4
		c-39,13.6-132.2,19.6-351.6-2.4c-19.9-1.4-50.3-0.6-83.9,12.1C202.8,316.1,176.5,344.3,164,358z"/>
	<path class="st0" d="M677.9,443.4c18.5-1.9,39.6-5.3,62.4-11.2c31.5-8.1,85.6-35.4,88.5-38.5c-7.4,9.5-20.9,24.3-42,36
		c-25.7,14.3-49.7,16.9-62.4,17.4c0.3,14.4,2.3,35.6,10.9,59.5c2.3,6.3,11.1,29.5,31.6,55.7c27.2,34.9,43.6,34.8,48.1,56
		c5.6,26.4-16.2,43.3-7.2,54.6c9.6,12,45,6.3,51-8.6c5.7-14.2-19.3-26.9-17.1-51.7c1.3-14.5,10.3-15.8,22.1-35.7
		c16.3-27.6,17.4-56,18.6-94.9c0.6-19.2,0.8-32.4-1.3-46.5c-7.3-48.4-39.9-109.9-93.5-131.3c-15.2-6-63.4-30.6-99.5-7.2
		c-23.2,15-29.6,41.9-32,51.6C644.6,396.8,672.7,436.3,677.9,443.4z"/>
	<path class="st0" d="M327.3,294.8c4,54.2,8.1,108.3,12.1,162.5c-12.3,3.1-30.6,6.6-53,7c-24.2,0.4-42.5-3.2-67.6-8
		c-14.3-2.8-33.6-7-56.1-13.7c11.2,7,26.7,15.2,46.3,21c14.4,4.3,27.4,6.3,38.1,7.2c-18.4,22.9-33.5,41.1-43.9,53.5
		c-9.7,11.6-23.9,29.1-41.9,52.6c-19.7,25.7-24.4,33.1-26,44.2c-3.7,25.5,11.3,42.6,3.6,49.6c-6.4,5.8-25.5,2-33.3-9.7
		c-12.1-18.1,13.3-40.1,13.3-84.1c0-6.1-0.5-10.8-1.3-14.8c-3.4-17.5-7.6-30.2-8.4-32.4c-7.4-19.6,7.7-67.4,32.8-109.1
		c16-26.6,47.3-78.6,112.5-107.4C283.9,300.2,310.2,296.2,327.3,294.8z"/>
</g>
<g id="レイヤー_2">
	<path d="M713.7,340c16.8,28.7-11.3,71.7-30.3,100.7c-39.3,60.3-89.1,88.7-104.3,96.9c-27,14.5-51,27.3-84.3,26.1
		c-35.1-1.3-59.9-17.5-84.4-33.6c-13.1-8.6-49.1-33.8-78.9-81.3c-18.7-29.8-49.4-78.7-30.3-114.1c5.1-9.4,12.4-15.5,18.1-19.3
		c1.4-12.4,13.9-108.7,97-157.8c49.9-29.5,99.6-26.7,110.4-25.9c17.1,1.3,67.8,5.8,109.6,45.9c57.1,54.8,51.3,131.5,50.3,142.2
		C696.3,323.2,707.4,329.1,713.7,340z"/>
	<path class="st0" d="M711.1,346.2c7.3,15.1,1.2,31.5-1.7,39.1c-15.9,42-127.4,194.5-250.7,159c-39-11.3-63.1-36.7-89-64.2
		c-10.1-10.7-85.7-92.4-60.3-139.8c4.6-8.6,11.5-14.1,16.7-17.4c1.2-19.7,6.5-61.9,35.6-103.3c12.4-17.7,59.3-77.9,140.6-82
		c4.2-0.2,102.4-3.5,154,75.8c30.1,46.3,27.3,94.5,25.7,110.7C688.7,326.1,704.2,331.8,711.1,346.2z"/>
	<path d="M545.1,246.9c0-0.2,3.8-0.9,34.5-5.7c15-2.3,22.6-3.4,28.2-0.3c7.8,4.3,11,13.2,12.3,18.5c-3.3-4.1-8.9-9.9-17.4-13.1
		c-5.6-2.1-10.5-2.4-23.1-1.8C558.2,245.3,545.1,247.3,545.1,246.9z"/>
</g>
<g id="レイヤー_3">
	<g id="レイヤー_6">
		<path d="M338.6,356.7c19.5,16.6,66.8,52,136.8,61.1C577,431,651.7,378.9,668.6,366.4c-16.8,27.8-48.3,69.2-101.2,96
			c-23.1,11.7-47.3,23.9-79.4,21.5c-54.9-4.2-92.8-48.2-113.5-72.7C356.6,389.9,345.2,369.9,338.6,356.7z"/>
		<path d="M647.6,349.7c13.6-1.2,26.4,4.5,33.1,15c5.8,9.1,5,18.6,4.6,21.9c4.3-3.5,14.1-12.2,12.6-20.6
			C696,355.4,676.1,346.6,647.6,349.7z"/>
		<path d="M358.9,349.7c-0.9-0.3-13.6-4-23.2,4.3c-8.2,7-10.6,19.4-5.4,30.2c-2.3-4.3-5.6-12.1-5.9-22.2c-0.2-5.7-0.4-10.5,2.4-13.9
			C331.7,342.2,344.8,342.8,358.9,349.7z"/>
		<path d="M427.2,468.4c7,6.1,26,21,54.7,24.6c34.1,4.2,59.4-10.2,66.8-14.8c-13,13.9-26.3,20.8-34.3,24.2c-9.3,3.9-19,8-31.1,6.1
			c-3.1-0.5-9.6-1.9-24.9-12.8C450.1,489.7,439,480.9,427.2,468.4z"/>
	</g>
	<g id="レイヤー_4">
		<path d="M521.4,260.2c-2,5.5,3.7,12.9,9.8,16.2c9.2,5,17.3-1.1,33.1,2.9c3.5,0.9,6.4,1.8,9.1,3.3c5.1,2.7,8.2,5.9,9.1,6.9
			c4,4.1,12.9,11.2,33.2,24.4c-13.2-4.8-22.8-10.4-29.1-14.6c-10.2-6.7-17.5-11.5-29.4-14.2c-6.3-1.5-11.8-1.7-15.5-1.6
			c4.9,0.8,12.2,2.5,20,6.9c11.5,6.5,18,15.3,21,20.1c-2-2.2-4.7-4.8-8-7.6c-1-0.9-5.6-4.6-12-8.2c-9.7-5.6-19.3-8.5-26-10.2
			c-3.2,0.1-8-0.4-11.2-3.9c-0.3-0.3-0.5-0.6-0.8-0.9c-2.7-3.4-10-13.4-5.7-20.3c3.5-5.7,12.5-5.6,13.8-5.5
			C532.1,253.8,523.4,254.8,521.4,260.2z"/>
		<path d="M467.7,264.6c-0.6,2.5-0.9,4.1-2,5.4c-5.5,6.8-25.6-0.6-42.8-1c-1.7,0-5.2,0-9.4,1c-5.4,1.3-9.1,3.7-10.2,4.4
			c-4.7,2.9-14.7,7.6-36.9,15.3c6.8-0.7,12.7-1.9,17.9-3.1c4.7-1.1,8.3-2.4,12.9-3.9c8.1-2.7,13.2-4.8,15.3-5.5
			c6.5-2.4,16.7-4.2,32.6-1.4c-2.4-0.1-5.9-0.1-10.1,0.5c-3.3,0.5-7.1,1.5-12.4,3.7c-10.4,4.3-19.4,10.5-24.4,14.1
			c2.1-1.5,5.2-3.5,9.3-5.3c6.3-2.8,10.4-3.3,23.5-5.2c0,0,20.5-3,33.2-9c1.2-0.6,3-1.5,4.3-3.5c2.5-3.7,1.8-8.3,1.4-10.5
			c-0.3-1.6-0.9-4.3-2.6-7.3C468,255.4,468.8,259.6,467.7,264.6z"/>
		<path d="M623.6,317.2c2.8-1.3,7.4-2.9,13.2-2.6c2.1,0.1,11.6,0.6,12.8,5.1c0.6,2.4-1.3,5-2.6,6.5c-0.7-1.2-1.7-2.8-3.5-4.3
			c-3.2-2.7-6.5-3.6-9.6-4.1C631.4,317.3,627.9,316.9,623.6,317.2z"/>
		<path d="M620.1,317.6c3,0.5,7.4,1.6,12.2,4c2.9,1.4,11.2,5.4,10.6,8.8c-0.1,0.7-0.8,2-4.3,3.2c-0.3-1.4-0.8-3.4-2.1-5.5
			c-1.8-2.8-4-4.2-7.3-6.2C627.1,320.6,624,318.9,620.1,317.6z"/>
		<path d="M360.2,290.3c-1.7-1.1-4.6-2.5-8.4-3.1c-1.7-0.3-7.4-1.1-8.4,1.1c-0.8,1.8,1.7,4.6,2.3,5.2c-0.9-1.9-0.6-3-0.3-3.5
			C346.8,287.7,352.6,287.9,360.2,290.3z"/>
		<path d="M360.6,291.9c-5.2,0.7-9.1,2.1-11.7,3.3c-4,1.8-4.7,3-4.8,4c-0.5,2.6,2.6,4.9,3,5.2c-0.5-1.4-0.5-2.6-0.4-3.5
			C347.4,296.5,352.9,292.9,360.6,291.9z"/>
		<path d="M456,249.1c-5.3-2-13.5-5.4-23-10.7c-14.7-8.2-19.7-13.8-28.9-14.2c-5.1-0.2-12.7,1.2-22.3,9.5c6.2-2.9,15.4-5.9,25.5-3.8
			c7.6,1.5,11.2,5,20.7,9.7C434.3,242.7,443.6,246.5,456,249.1z"/>
	</g>
	<g id="レイヤー_5">
		<path d="M527.9,375c-4.1-2-10-4.3-17.4-5.5c-8.4-1.4-15.1-0.6-20.6,0c-5.7,0.6-10.4,1.7-13.7,2.5c-7.6-4.4-13.9-6.1-18.4-6.8
			c-3.2-0.5-8.3-1-16.7-2.6c-2-0.4-3.6-0.8-4.7-1c-5.5-3.7-8.2-10.4-6.9-16.7c1.9-8.7,10.4-11.7,10.8-11.8
			c7.6-4.5,16.8-11.1,25.7-20.8c19.3-21,25.8-44.3,28.2-56.2c1.5,3.2,2.9,6.4,4.4,9.5c-7.2,21.9-1.9,44.9,13.3,58.3
			c12.8,11.3,28.4,11.9,33.5,11.9c0.6,0.6,9.6,9.7,6.9,21.4C550,367.4,539.9,375.2,527.9,375z"/>
		<path class="st0" d="M501.4,237.8c-8,12.9-11,23.9-12.2,31.5c-1.5,9.1-0.4,13.4-3.3,21.4c-0.8,2.1-4,10.4-15.6,21.7
			c-19.1,18.5-32,16.8-36.6,30c-2,5.8-2.5,15.4,2.6,19.2c2.6,1.9,5.9,1.9,8.1,1.5c1.7-1.1,5.2-3.2,10-3.2c5.1,0,8.9,2.3,10.6,3.4
			c5.8,3.7,5.9,7.4,10.4,8.7c3,0.9,5.7-0.1,8.2-0.8c19.2-5.1,24.5-11.2,31.1-8.9c8,2.7,7.3,12.1,13,12.8
			c9.4,1.1,25.6-22.6,19.5-36.1c-5.2-11.5-22.1-5.7-33.9-20.3c-2.9-3.6-5.5-8.4-8.6-33.1C503.4,273.6,501.8,257.3,501.4,237.8z"/>
	</g>
	<path d="M456,375"/>
</g>
</svg>
