<?xml version="1.0" encoding="utf-8"?>
<!-- Generator: Adobe Illustrator 24.2.0, SVG Export Plug-In . SVG Version: 6.00 Build 0)  -->
<svg version="1.1" xmlns="http://www.w3.org/2000/svg" xmlns:xlink="http://www.w3.org/1999/xlink" x="0px" y="0px"
	 viewBox="0 0 1000 1000" style="enable-background:new 0 0 1000 1000;" xml:space="preserve">
<style type="text/css">
	.st0{fill:#FFFFFF;}
	.st1{fill:#FFFFFF;stroke:#000000;stroke-miterlimit:10;}
</style>
<g id="レイヤー_2">
	<g id="背景">
		<rect x="-24.5" y="-24.5" class="st0" width="1049" height="1049"/>
		<path d="M1024-24v1048H-24V-24H1024 M1025-25H-25v1050h1050V-25L1025-25z"/>
	</g>
</g>
<g id="レイヤー_1">
	<g id="レイヤー_5">
		<g>
			<path class="st0" d="M113.3,302c-17.5,0-31.7-14.2-31.7-31.7s14.2-31.7,31.7-31.7s31.7,14.2,31.7,31.7S130.8,302,113.3,302z"/>
			<path d="M113.3,239.1c17.2,0,31.2,14,31.2,31.2s-14,31.2-31.2,31.2s-31.2-14-31.2-31.2S96.1,239.1,113.3,239.1 M113.3,238.1
				c-17.8,0-32.2,14.4-32.2,32.2s14.4,32.2,32.2,32.2s32.2-14.4,32.2-32.2S131.1,238.1,113.3,238.1L113.3,238.1z"/>
		</g>
		<g>
			<path class="st0" d="M84.9,265c-0.9,0-1.9-0.1-2.8-0.2c1.8-10.3,8.8-19.2,18.4-23.5c0.9,2.1,1.4,4.4,1.4,6.7
				C101.9,257.4,94.2,265,84.9,265z"/>
			<path d="M100.2,242c0.8,1.9,1.2,4,1.2,6.1c0,9.1-7.4,16.5-16.5,16.5c-0.7,0-1.5,0-2.2-0.1C84.6,254.6,91.2,246.2,100.2,242
				 M100.7,240.6c-10,4.3-17.4,13.5-19.2,24.5c1.1,0.2,2.2,0.3,3.4,0.3c9.7,0,17.5-7.8,17.5-17.5
				C102.4,245.4,101.8,242.9,100.7,240.6L100.7,240.6z"/>
		</g>
	</g>
	<g>
		<path class="st0" d="M550.4,573.6c-38.8,0-81-7-122-20.4l-0.1,0l-0.1,0c-29.4,6.2-59,9.4-88,9.4c-40.9,0-80.7-6.3-118.1-18.7
			c-32.6-10.8-77.2-25.6-110.6-68.1c-26.4-33.5-34.5-69.1-37-87.3c-2.1-16.7,5-48.7,20.6-112.9c13.1-54,51.1-105.6,106.9-145.1
			c53-37.5,115.4-59,171.1-59c6.7,0,13.4,0.3,19.8,0.9c31.8,3.1,55.8,13.4,79,23.4c25.2,10.8,49,21,80.2,21c10.5,0,21-1.1,32.3-3.4
			c18.5-3.8,31-9.2,43-14.5c14.1-6.2,27.5-12,49-14.2c5.5-0.6,11.1-0.9,16.6-0.9c42.5,0,86.7,16.7,131.6,49.8
			c-8.7-3.2-21.3-6.4-36.2-6.4c-11.4,0-22.5,1.9-33.1,5.8c-14.4,5.2-27.7,14.1-38.5,25.6l-0.3,0.3l0.3,0.3
			c16.8,20.5,38.2,36.1,61.6,45.2c12.8,5,24.9,7.5,31.9,8.2c1.9,0.2,3.9,0.3,5.8,0.3c38.6,0,84.2-37.9,119.1-99
			c6.9,13.8,33.8,75.3,4.7,138.9c-27.1,59.1-83.5,79.1-102.1,85.7c-20.6,7.3-42.4,11-64.7,11c-13.2,0-26.4-1.3-39.4-3.9l-2.8-0.6
			l2.5,1.5c15.2,9.1,56,30.2,107,30.2c17.7,0,35.2-2.6,52-7.6c27.7-8.4,52.7-23.1,74.4-43.7c-16.3,46.7-40.1,78-70.7,92.9
			c-11,5.4-21.2,7.9-32,10.5c-15.8,3.9-32.1,7.9-54,21.2c-16,9.8-24.7,18.3-34.7,28.2c-4.1,4-8.4,8.2-13.5,12.8
			c-0.4,0.4-44.3,39.7-113.8,65.7C618.4,568,585.5,573.6,550.4,573.6z"/>
		<path d="M373,71l0,1c6.7,0,13.3,0.3,19.7,0.9c31.7,3.1,55.7,13.4,78.9,23.3c25.2,10.8,49.1,21,80.4,21c10.5,0,21.1-1.1,32.4-3.4
			c18.6-3.8,31.1-9.2,43.1-14.5c14.1-6.1,27.4-11.9,48.9-14.2c5.5-0.6,11-0.9,16.6-0.9c41.5,0,84.8,16.1,128.6,47.7
			c-8.5-2.8-20-5.3-33.2-5.3c-11.5,0-22.7,1.9-33.2,5.8c-14.5,5.3-27.8,14.1-38.7,25.7l-0.6,0.6l0.6,0.7
			c16.9,20.5,38.3,36.2,61.8,45.3c12.9,5,25,7.5,32,8.2c1.9,0.2,3.9,0.3,5.9,0.3c19.4,0,40.9-9.6,62.4-27.8
			c20.5-17.4,40.1-41.8,56.7-70.7c3.7,7.5,10.9,24.2,14.8,46.3c5.8,32.6,2.3,63.4-10.6,91.4c-27,59-83.3,78.9-101.8,85.4
			c-20.6,7.3-42.3,11-64.5,11c-13.1,0-26.4-1.3-39.3-3.9l-5.6-1.1l4.9,3c15.2,9.1,56.1,30.3,107.3,30.3c17.8,0,35.3-2.6,52.2-7.7
			c27.1-8.2,51.7-22.5,73.1-42.4c-8.9,25-20,45.6-33.1,61.3c-10.7,12.9-23.1,22.8-36.6,29.4c-11,5.4-21.1,7.8-31.9,10.5
			c-15.8,3.9-32.2,7.9-54.2,21.3c-16.1,9.8-24.7,18.3-34.8,28.2c-4.1,4-8.4,8.2-13.4,12.8c-0.4,0.4-44.3,39.6-113.6,65.6
			c-29.7,11.1-62.5,16.7-97.6,16.7c-38.8,0-80.9-7-121.9-20.4l-0.3-0.1l-0.3,0.1c-29.4,6.2-59,9.3-87.9,9.3
			c-40.9,0-80.6-6.3-118-18.7c-20-6.6-38-12.9-56.3-22.8c-21.8-11.8-39.5-26.5-54.1-45.1c-26.4-33.5-34.4-68.9-36.8-87.1
			c-2.1-16.6,5-48.6,20.5-112.8c6.7-27.6,19.8-54.6,39.1-80.1c18.1-24,40.9-45.8,67.6-64.7C255.1,93.5,317.3,72,373,72V71 M373,71
			c-113.6,0-250.7,89.5-278.5,204.4c-15.6,64.3-22.7,96.3-20.6,113.1c0,0,0,0,0,0c1.8,13.2,8.4,51.2,37.1,87.6
			c32.9,41.7,75.2,56.4,110.9,68.2c42.2,14,82.6,18.7,118.3,18.7c34.7,0,65-4.5,88.1-9.4c23.7,7.7,69.3,20.4,122.2,20.4
			c31.1,0,64.8-4.4,98-16.8c70.4-26.3,114-65.8,114-65.8c17.7-16,25.7-27.3,48.1-40.9c37-22.6,59-18.6,86-31.7
			c23.2-11.3,51.5-36,71.6-95.2c-14,13.6-39.1,34-75.7,45c-18.1,5.5-35.5,7.6-51.9,7.6c-54.7,0-96.8-24.2-106.8-30.1
			c9,1.8,22.7,3.9,39.5,3.9c18.6,0,41-2.6,64.9-11c18.5-6.6,75.2-26.6,102.3-86c30.7-67.1-0.6-131.4-5.1-140.2
			c-33.7,59.4-79.6,99.6-119.1,99.6c-1.9,0-3.9-0.1-5.8-0.3c-6.6-0.7-18.7-3.1-31.7-8.2c-31.4-12.2-51.3-32.7-61.4-45
			c6.7-7.1,19.2-18.5,38.3-25.4c11.7-4.2,22.9-5.7,32.9-5.7c19.1,0,33.9,5.4,39.4,7.6c-32.5-24.5-80-52-134.8-52
			c-5.5,0-11,0.3-16.7,0.9c-39.8,4.1-51.6,20.4-92.1,28.7c-11.6,2.4-22.3,3.4-32.2,3.4c-59.9,0-92.9-37.9-159.2-44.4
			C386.3,71.3,379.7,71,373,71L373,71z"/>
	</g>
	<g>
		<path class="st1" d="M74.3,388.6c9.9-4.9,21.3-11.4,30.1-17.5c15.1-10.5,24.4-24.5,43.4-28.9c8.9-2,23,2.2,31.3,7.1
			c7.9-4.7,21.4-11.4,39-13.4c26.7-3.1,47.8,6.4,54.5,9.2c24.4,10.2,75.7,23.6,195.4,36.8C361,417.6,257.4,496.1,140,442.1
			C115.6,430.9,91.3,410.1,74.3,388.6z"/>
	</g>
	<g id="レイヤー_4">
		<g>
			<path class="st0" d="M433.7,287c-6.7,0-14.8-7.8-26.9-19.5c-13.2-12.8-19.9-19.2-18.4-26.3c1.8-8.6,14.5-14.4,25.2-14.4
				c0.5,0,0.9,0,1.4,0c7.7,0.4,15.3,4.1,21.3,10.4c5.7,5.9,9.5,13.7,10.4,21.4c0.7,5.4,0.1,11.8-1.6,16.9c-1.9,5.8-5,9.7-8.7,11
				C435.6,286.8,434.7,287,433.7,287z"/>
			<path d="M413.6,226.3v1c0.5,0,0.9,0,1.4,0c17,0.8,29.5,16.9,31.3,31.3c1.4,10.9-2.4,24.8-10,27.4c-0.8,0.3-1.7,0.4-2.6,0.4
				c-6.5,0-14.5-7.7-26.6-19.4c-13.1-12.6-19.7-19-18.2-25.8c1.8-8.4,14.2-14,24.7-14L413.6,226.3 M413.6,226.3
				c-10.8,0-23.8,5.8-25.6,14.8c-1.6,7.4,5.1,13.8,18.5,26.7c12.4,12,20.4,19.7,27.3,19.7c1,0,1.9-0.2,2.9-0.5
				c8.6-2.9,12-17.8,10.6-28.4c-2-15.7-15.5-31.4-32.2-32.2C414.5,226.3,414.1,226.3,413.6,226.3L413.6,226.3z"/>
		</g>
		<g>
			<path class="st0" d="M430.1,264.2c-11.1,0-20.1-9-20.1-20.1c0-6.8,3.4-13.1,9.1-16.8C432,230,443.4,242,446.3,256
				C442.5,261.2,436.5,264.2,430.1,264.2z"/>
			<path d="M419.2,227.9c12.5,2.6,23.6,14.3,26.5,28c-3.7,4.9-9.5,7.8-15.7,7.8c-10.8,0-19.6-8.8-19.6-19.6
				C410.5,237.6,413.8,231.6,419.2,227.9 M419,226.8c-5.7,3.7-9.5,10-9.5,17.3c0,11.4,9.2,20.6,20.6,20.6c6.9,0,13-3.4,16.7-8.6
				C444.1,242.5,433,229.6,419,226.8L419,226.8z"/>
		</g>
	</g>
	<g>
		<path class="st1" d="M142.4,307.2c0,0,7.4-4.6,15.7,3.7L142.4,307.2z"/>
		<path class="st1" d="M207.8,303.7c0,0-7.8-3.9-15.3,5.1L207.8,303.7z"/>
	</g>
	<path class="st1" d="M74,388.6c0.1-0.9,44,7.2,100.7,12c60.2,5.1,106.4,4.1,119.2,3.7c103-2.9,174.6-22.2,174.6-22.2
		c0,0.1-142.1,45.9-311.4,22.2C120,399.1,73.9,389.4,74,388.6z"/>
</g>
</svg>
