<?xml version="1.0" encoding="utf-8"?>
<!-- Generator: Adobe Illustrator 24.3.0, SVG Export Plug-In . SVG Version: 6.00 Build 0)  -->
<svg version="1.1" xmlns="http://www.w3.org/2000/svg" xmlns:xlink="http://www.w3.org/1999/xlink" x="0px" y="0px"
	 viewBox="0 0 1000 1000" style="enable-background:new 0 0 1000 1000;" xml:space="preserve">
<style type="text/css">
	.st0{fill:#666699;}
	.st1{fill:#231815;}
	.st2{fill:#CCCCCC;}
	.st3{fill:#999999;}
	.st4{fill:#FFFFFF;}
	.st5{fill:url(#SVGID_1_);}
	.st6{fill:url(#SVGID_2_);}
	.st7{fill:none;stroke:#000000;stroke-width:10;}
	.st8{fill:#FFFFFF;stroke:#000000;}
	.st9{fill:#FF9999;}
	.st10{fill:#E7FFFF;}
</style>
<g id="back">
	<rect x="-25" y="-25" class="st0" width="1050" height="1050"/>
</g>
<g id="black">
	<g>
		<g>
			<path d="M111.4,551.8c35.5,31.1,70.9,62.2,106.4,93.3c-9.4,8.5-18.7,17.1-28.1,25.6c25.9,12.9,31.1,23.9,31.3,31.3
				c0.8,25.7-56.9,43.7-56.1,71.9c0.1,3.3,1.2,16-4,30.4c-1.1,3-1.9,5-3.4,7.5c-6,9.5-17.4,14.2-28.4,16.2
				c-3.9,0.7-7.9,1.1-11.8,1.1c-6.3,0-12.6-1-18.4-3.6c-9.3-4.2-17-13.2-17.5-23.5c-4.4,3.3-9.9,4.9-15.4,4.9
				c-5.7,0-11.4-1.8-15.9-5.3c-3.9-3-5-7.2-5-7.2c-1.5-4.5-0.4-8.5,0.2-10c-2.8-2.6-11.8-11.4-10.3-20.6
				c1.6-10.2,15.8-19.9,36.1-19.9c3.4,0,7,0.3,10.8,0.9c33.4-14.1,68.8-32.7,66.7-49.7c-0.8-6.4-6.3-7.5-15.8-18.3
				c-19.6-22.4-23.1-49.7-25.2-67C104.5,585.7,107.8,565.4,111.4,551.8 M111.4,541.8c-1,0-2,0.1-2.9,0.4c-3.3,1-5.9,3.7-6.7,7
				c-5.3,20.3-6.7,41.1-4.2,61.6c2.2,17.8,5.8,47.6,27.6,72.4c4.2,4.8,7.7,7.9,10.2,10.1c1.2,1,2.6,2.3,3.1,2.9
				c0.1,2-2.9,7.7-15.6,16.2c-10,6.7-24.3,14-42.5,21.8c-3.2-0.4-6.3-0.6-9.4-0.6c-24,0-43.3,11.9-45.9,28.3
				c-1.7,10.4,4,19.5,9.4,25.5c-0.3,3.3,0.1,6.6,1.1,9.7c0.5,1.8,2.6,7.6,8.4,12.1c6.1,4.8,13.9,7.4,22.1,7.4c3,0,6.1-0.4,9-1.1
				c4,8,11,14.7,19.8,18.7c6.6,3,14.2,4.5,22.5,4.5c4.3,0,8.9-0.4,13.6-1.2c16.3-2.9,28.5-10,35.2-20.7c2.1-3.3,3.1-6,4.4-9.4
				c5.5-15,4.9-28.2,4.7-33.2c0-0.4,0-0.7,0-0.9c-0.3-9.4,13.3-20,25.2-29.4c15.5-12.2,31.5-24.8,30.9-42.4
				c-0.4-12-8.4-22.8-24.4-33l17.9-16.3c2.1-1.9,3.3-4.6,3.3-7.5s-1.3-5.5-3.4-7.4l-37-32.4l-69.4-60.9
				C116.1,542.6,113.7,541.8,111.4,541.8L111.4,541.8z"/>
		</g>
		<g>
			<path d="M339.8,680.5c25.3,1.9,50.5,3.8,75.8,5.7c1.6,1.2,10.8,8.6,10.8,19.5c-0.1,6.6-3.5,11.4-6.6,15.8
				c-5.4,7.8-12.2,12-16.3,14.1c-1.5,5.9-4.1,9.5-6.2,11.7c-5.1,5.3-10.3,5.3-15.7,11.8c-2.7,3.2-1.8,3.6-4.3,7.1
				c-4.6,6.3-13.7,13-22.3,13c-1.8,0-3.5-0.3-5.2-0.9c-1.8-0.7-5.4-2.4-8.6-7.5c-2,1.8-4.5,2.7-7,2.7c-1.5,0-3-0.3-4.3-1
				c-4-2-6.3-6.5-5.5-11.1c-1-0.8-3.7-3-3.8-6.1c-0.1-4.6,5.5-8.6,10.3-9.1c0.3,0,0.6,0,0.8,0c4.3,0,6.3,3.2,13,3.9
				c0.8,0.1,1.6,0.1,2.3,0.1c2.4,0,4.4-0.4,5.9-0.7c9.3-5.1,18.5-10.3,27.8-15.4c1.8-5.2,3.6-10.5,5.4-15.8c1.3-4,2.7-8,3.9-12
				c-6.4-0.7-16.3-2.6-27.2-8.2C351.6,692.4,344.2,685.3,339.8,680.5 M339.8,670.5c-3.8,0-7.3,2.2-9,5.6c-1.8,3.7-1.2,8.1,1.6,11.1
				c7.4,8.2,16.1,14.8,25.9,19.8c6,3,12.2,5.4,18.7,7c-0.1,0.3-0.2,0.7-0.3,1c-1.3,4-2.7,8.1-4.1,12.1L349.3,740
				c-0.8,0.1-1.6,0.2-2.3,0.2c-0.4,0-0.9,0-1.3-0.1c-1.8-0.2-2.8-0.6-4.4-1.4c-2.2-1.1-5.3-2.5-9.6-2.5c0,0,0,0,0,0
				c-0.6,0-1.2,0-1.8,0.1c-9.6,0.9-19.6,8.8-19.3,19.3c0.1,3.6,1.4,7,3.7,9.9c0.7,6.8,4.8,12.9,11.1,16c2.7,1.3,5.7,2,8.7,2
				c1.5,0,2.9-0.2,4.4-0.5c2.3,2,4.9,3.6,7.7,4.6c2.8,1,5.7,1.5,8.7,1.5c12.3,0,24.1-8.6,30.3-17.1c1.7-2.3,2.4-3.8,3.1-5.2
				c0.3-0.6,0.3-0.7,0.9-1.4c1.8-2.2,3.4-3.1,5.9-4.5c2.7-1.5,6-3.4,9.3-6.8c3.2-3.3,5.6-7.3,7.4-11.8c6.4-4,12-9.1,16.2-15.1
				l0.2-0.3c3.4-4.9,8.1-11.6,8.2-21.2c0.1-15-11.2-24.9-14.7-27.5c-1.5-1.2-3.4-1.9-5.4-2l-4.6-0.3l-71.2-5.3
				C340.3,670.5,340.1,670.5,339.8,670.5L339.8,670.5z"/>
		</g>
		<g>
			<path d="M453.4,197.8c22.6,0,49.5,2.4,78.1,10.5c20.8,5.9,37.4,13.3,42,15.4c26.5,12.1,43.6,24.6,74.8,47.5
				c20.5,15,37.8,29.2,52.5,41.9c13.6,11.8,24.9,22.5,33.7,31c8.7-17,31.3-57.2,64.3-75.5c8.7-4.8,15.2-6.5,20.6-6.5
				c2.1,0,4,0.3,5.7,0.7c13.2,3.2,20.9,16.6,25.6,26.6c68.9,148.8,52.5,265.6,52.5,265.6s-9.8,69.8,2.5,123.3
				c1.3,5.8,4.2,17.1,11.1,30c6.1,11.4,11.1,20.8,21.2,24.9c3.1,1.2,5.6,1.6,7.9,1.6c3.1,0,5.7-0.6,8.5-0.6c2.3,0,4.8,0.4,7.7,2
				c8.4,4.5,15.4,15.6,13.4,26.7c-1.7,9.5-9.3,14.8-11.9,16.4c-5,3.1-10.2,4-14.7,4c-6,0-10.6-1.7-11.6-2.1
				c-0.9,3.6-3.7,12.1-11.8,18.8c-8.4,6.9-17.8,8-24.1,8c-1.6,0-3-0.1-4.1-0.1c-6.5-0.3-22.7-1.1-27.5-12c-2.1-4.8-1.3-9.8-0.2-13.3
				c0.7-1.5,1-2.7,1.1-3c-0.3,0.8-0.7,1.8-1.1,3c-1.1,2.3-3.2,5.3-7,6.7c-1.5,0.6-3,0.8-4.4,0.8c-3.1,0-5.6-1.1-6.3-1.5
				c-8.6-4-12.7-16.4-10.9-26.5c1.9-10.5,10-16.4,12.8-18.5c7.8-5.8,15.9-6.7,19.5-6.9c2.8-4.1,7.4-12.3,8.4-23.3
				c1-10.5-1.7-19-2.8-22.5c-0.3-0.9-0.5-1.6-0.7-2.1c-6.6-18.1-29.7-68.8-63.2-135.9c-13,19.4-29.8,41.6-51.6,64.3
				c-19.3,20.2-38.3,36.5-55.4,49.4c4.3,4,11.4,10.5,20.3,18.4c15.7,14,20.9,18.1,22.8,25.7c2.3,8.9-2.2,13.4-4.2,23.1
				c-6.2,30.9,27.9,45.2,25.7,81.3c-0.3,4.7-1.3,21.9-14,31.8c-6.1,4.7-13.9,7-22.5,7c-8.9,0-18.7-2.5-28.3-7.3
				c-2.1,3.5-6.8,10.2-15.3,13.7c-3.6,1.5-7.4,2.2-11.3,2.2c-10.2,0-21-4.8-29.4-13.7c-0.9,0-1.9,0.1-2.9,0.1
				c-6.5,0-16.3-1-26.4-6.1c-5.9-3-26.4-13.1-26.3-29.9c0.1-15,16.4-25.6,27.3-29.3c5-1.7,9.7-2.2,13.7-2.2c3,0,5.6,0.3,7.6,0.6
				c21.8-13,33-25.6,38.3-32.7c2.5-3.4,5-7.1,5.5-12.2c0.8-8.1-3.5-16-13.8-26.5c-8.6-8.8-24.6-22.5-51.1-34.1
				c-59,7.7-109.7,9.8-149.1,9.8c-5.1,0-10,0-14.8-0.1c-84.4-1.1-163.8-3-248.5-44.6c-64.9-31.9-85.6-63.9-94.4-81.4
				c-6-11.8-30-59.5-7.7-97.6c7.3-12.5,17.4-20.2,24.6-24.7c-2-7.6-4.1-18.2-4.4-30.9c-0.2-9.3-0.4-24.7,6.1-42.2
				c2.4-6.6,15-38.5,48.7-54.4c10.5-5,20.1-6.9,26.7-7.8c6.9-8.8,17.2-20.7,31.3-33.1c58.4-51.7,124.9-62.8,156.9-67.6
				C410.2,200.6,429.3,197.8,453.4,197.8 M453.4,187.8c-25.8,0-45.9,3.1-55.5,4.5c-14.1,2.2-40.5,6.2-70.4,16.7
				c-34.7,12.2-65.5,30.1-91.7,53.3c-10.8,9.6-20.9,20.1-30,31.3c-8.9,1.6-17.5,4.3-25.6,8.1c-15.8,7.5-29.3,18.9-40,34
				c-7.3,10.3-11.6,19.8-13.8,26c-7.2,19.7-6.9,36.7-6.7,45.9c0.2,8.8,1.2,17.7,3,26.3c-9.2,6.7-16.5,14.8-21.9,24.1
				c-10.7,18.4-13.4,40.5-7.8,65.8c4.2,19.4,12.3,35.3,15.3,41.3c16.8,33.3,49.2,61.4,98.9,85.9c39.2,19.3,80.9,31.9,127.4,38.5
				c40,5.7,78.8,6.6,125.4,7.2c4.9,0.1,10,0.1,14.9,0.1c48.8,0,98.5-3.2,147.6-9.5c18.1,8.2,33.4,18.5,45.4,30.8
				c10.4,10.5,11.3,15.4,11,18.4c-0.3,2.4-1.5,4.4-3.6,7.2c-7.6,10-18.8,19.8-32.6,28.3c-1.8-0.2-3.6-0.3-5.4-0.3
				c-5.8,0-11.5,0.9-16.8,2.7c-7.7,2.6-15.5,7.1-21.3,12.5c-8.4,7.6-12.8,16.7-12.8,26.2c0,7,2.4,17.5,14.4,27.8
				c6.8,5.8,14.3,9.5,17.5,11.1c9.2,4.6,19.2,6.9,29.8,7.1c9.6,8.7,21.6,13.6,33.4,13.6c5.3,0,10.4-1,15.1-2.9
				c6.4-2.6,11.2-6.5,14.7-10.5c8.4,3.3,16.9,5,25,5c11,0,20.9-3.2,28.6-9.1c7.4-5.8,16.5-17.2,17.9-39c1.3-21.1-7.7-35.6-15.7-48.3
				c-7-11.2-12.5-20-10.2-31.7c0.5-2.6,1.3-4.8,2.2-7.1c1.9-5.2,4.2-11.6,1.9-20.4c-2.6-10-8.8-15.5-22.4-27.6c-1.1-1-2.3-2-3.5-3.1
				c-3.9-3.4-7.7-6.9-11.5-10.4c16.6-13.3,32.4-27.8,47.1-43.1c15.4-16.1,29.8-33.4,42.9-51.6c30.3,61.3,49.7,104.5,55.2,119.7
				c0.2,0.5,0.4,1,0.6,1.7c0.9,2.7,3.2,9.8,2.3,18.4c-0.6,6-2.5,11-4.5,14.9c-5.7,1-12.6,3.3-19.3,8.2c-3.5,2.6-14.1,10.4-16.8,24.7
				c-1.3,6.9-0.6,14.3,2,20.9c2.9,7.6,8.1,13.5,14.5,16.4c3.4,1.6,7,2.4,10.5,2.4c0.8,0,1.6,0,2.4-0.1c7.3,16.4,28.2,17.4,36.1,17.8
				c1.2,0.1,2.8,0.1,4.6,0.1c12,0,22.2-3.5,30.5-10.3c5.6-4.6,9.2-9.9,11.7-14.8c1.7,0.2,3.5,0.3,5.4,0.3c7.3,0,14-1.9,19.9-5.5
				c4.1-2.6,14-10,16.5-23.1c1.4-7.4,0-15.3-3.8-22.4c-3.5-6.4-8.7-11.7-14.7-15c-4-2.1-8.1-3.2-12.4-3.2c-1.9,0-3.7,0.2-5.2,0.4
				c-1.3,0.1-2.3,0.3-3.4,0.3c-1,0-2.3-0.1-4.2-0.9c-6.4-2.6-10.1-9.1-16.1-20.3c-6-11.3-8.7-21.1-10.2-27.5
				c-11.7-51.1-2.4-119-2.3-119.7c0.2-1.2,4.2-31-0.4-79.4c-2.7-28.3-7.8-57.2-15.1-85.9c-9.2-35.8-21.9-71.5-37.9-106
				c-3.1-6.8-12.7-27.4-32.3-32.2c-2.6-0.6-5.4-1-8.1-1c-7.7,0-16,2.5-25.5,7.8c-15.5,8.6-30.4,22.4-44.4,41
				c-6.2,8.2-12.1,17.3-17.6,27c-8-7.6-16.3-15-24.6-22.2c-17.2-14.9-34.5-28.8-53.1-42.5c-31.6-23.3-49.1-36.1-76.6-48.6
				c-7.9-3.6-24-10.4-43.5-15.9C508.6,191.5,481.4,187.8,453.4,187.8L453.4,187.8z"/>
		</g>
	</g>
	<g>
		<g>
			<path class="st1" d="M117.1,834c-7.6,0-14.5-1.4-20.4-4.1c-9.2-4.2-16.1-11.7-19-20.3c-3.7,1.5-7.7,2.3-11.8,2.3
				c-7,0-13.8-2.3-19-6.4c-4.7-3.7-6.4-8.6-6.7-9.6c-1-3.1-1.2-6.6-0.6-9.9c-5-5.2-11.2-13.6-9.7-23c2.2-13.7,19.8-24.1,41-24.1
				c3.3,0,6.7,0.2,10.1,0.7c19.1-8.1,34.1-15.8,44.5-22.8c12.2-8.2,18.5-15.7,17.8-21.1c-0.2-1.8-1.1-2.7-4.8-6
				c-2.5-2.2-5.8-5.1-9.8-9.6c-20.8-23.7-24.3-52.5-26.4-69.7c-2.4-19.9-1.1-40,4.1-59.8c0.4-1.7,1.7-3,3.4-3.5
				c0.5-0.1,1-0.2,1.5-0.2c1.2,0,2.4,0.4,3.3,1.2l106.4,93.3c1.1,0.9,1.7,2.3,1.7,3.7c0,1.4-0.6,2.8-1.6,3.7l-22.8,20.8
				c18.3,10.2,27.4,20.8,27.7,32.3c0.4,15.1-14.5,26.9-29,38.3c-13.5,10.6-27.4,21.6-27.1,33.5c0,0.3,0,0.6,0,1
				c0.2,4.7,0.8,17.2-4.4,31.2c-1.2,3.2-2.1,5.5-3.9,8.4c-7.5,11.9-21.4,16.6-31.8,18.4C125.4,833.6,121.2,834,117.1,834z"/>
			<path class="st1" d="M111.4,551.8c35.5,31.1,70.9,62.2,106.4,93.3c-9.4,8.5-18.7,17.1-28.1,25.6c25.9,12.9,31.1,23.9,31.3,31.3
				c0.8,25.7-56.9,43.7-56.1,71.9c0.1,3.3,1.2,16-4,30.4c-1.1,3-1.9,5-3.4,7.5c-6,9.5-17.4,14.2-28.4,16.2
				c-3.9,0.7-7.9,1.1-11.8,1.1c-6.3,0-12.6-1-18.4-3.6c-9.3-4.2-17-13.2-17.5-23.5c-4.4,3.3-9.9,4.9-15.4,4.9
				c-5.7,0-11.4-1.8-15.9-5.3c-3.9-3-5-7.2-5-7.2c-1.5-4.5-0.4-8.5,0.2-10c-2.8-2.6-11.8-11.4-10.3-20.6
				c1.6-10.2,15.8-19.9,36.1-19.9c3.4,0,7,0.3,10.8,0.9c33.4-14.1,68.8-32.7,66.7-49.7c-0.8-6.4-6.3-7.5-15.8-18.3
				c-19.6-22.4-23.1-49.7-25.2-67C104.5,585.7,107.8,565.4,111.4,551.8 M111.4,541.8c-1,0-2,0.1-2.9,0.4c-3.3,1-5.9,3.7-6.7,7
				c-5.3,20.3-6.7,41.1-4.2,61.6c2.2,17.8,5.8,47.6,27.6,72.4c4.2,4.8,7.7,7.9,10.2,10.1c1.2,1,2.6,2.3,3.1,2.9
				c0.1,2-2.9,7.7-15.6,16.2c-10,6.7-24.3,14-42.5,21.8c-3.2-0.4-6.3-0.6-9.4-0.6c-24,0-43.3,11.9-45.9,28.3
				c-1.7,10.4,4,19.5,9.4,25.5c-0.3,3.3,0.1,6.6,1.1,9.7c0.5,1.8,2.6,7.6,8.4,12.1c6.1,4.8,13.9,7.4,22.1,7.4c3,0,6.1-0.4,9-1.1
				c4,8,11,14.7,19.8,18.7c6.6,3,14.2,4.5,22.5,4.5c4.3,0,8.9-0.4,13.6-1.2c16.3-2.9,28.5-10,35.2-20.7c2.1-3.3,3.1-6,4.4-9.4
				c5.5-15,4.9-28.2,4.7-33.2c0-0.4,0-0.7,0-0.9c-0.3-9.4,13.3-20,25.2-29.4c15.5-12.2,31.5-24.8,30.9-42.4
				c-0.4-12-8.4-22.8-24.4-33l17.9-16.3c2.1-1.9,3.3-4.6,3.3-7.5s-1.3-5.5-3.4-7.4l-37-32.4l-69.4-60.9
				C116.1,542.6,113.7,541.8,111.4,541.8L111.4,541.8z"/>
		</g>
		<g>
			<path class="st1" d="M354.9,784.2c-2.4,0-4.8-0.4-7-1.2c-3-1.1-5.7-3-8-5.5c-1.8,0.7-3.7,1.1-5.7,1.1c-2.3,0-4.5-0.5-6.5-1.5
				c-5.2-2.5-8.4-7.8-8.4-13.5c-2.3-2.4-3.5-5.2-3.6-8.1c-0.2-7.5,7.6-13.5,14.8-14.2c0.4,0,0.9-0.1,1.3-0.1c3.2,0,5.4,1.1,7.5,2
				c1.7,0.8,3.4,1.6,6,1.9c0.6,0.1,1.2,0.1,1.8,0.1c1.3,0,2.7-0.2,4.1-0.4l25.5-14.2c1.6-4.6,3.2-9.3,4.8-14
				c0.7-2.1,1.4-4.2,2.1-6.3c-8-1.5-15.7-4.1-22.9-7.8c-9.2-4.7-17.5-11-24.4-18.7c-1.4-1.5-1.7-3.7-0.8-5.6
				c0.8-1.7,2.6-2.8,4.5-2.8c0.1,0,0.2,0,0.4,0l75.8,5.7c1,0.1,1.9,0.4,2.7,1c3,2.3,12.8,10.9,12.7,23.5c-0.1,8-4.1,13.8-7.3,18.4
				l-0.2,0.3c-4.2,5.9-9.7,11-16.2,14.6c-1.5,4.6-3.8,8.6-6.8,11.7c-2.8,2.9-5.7,4.5-8.2,5.9c-2.6,1.5-4.9,2.8-7.3,5.6
				c-1,1.2-1.2,1.6-1.6,2.5c-0.4,1-1,2.3-2.5,4.3C375.7,776.6,365.4,784.2,354.9,784.2z"/>
			<path class="st1" d="M339.8,680.5c25.3,1.9,50.5,3.8,75.8,5.7c1.6,1.2,10.8,8.6,10.8,19.5c-0.1,6.6-3.5,11.4-6.6,15.8
				c-5.4,7.8-12.2,12-16.3,14.1c-1.5,5.9-4.1,9.5-6.2,11.7c-5.1,5.3-10.3,5.3-15.7,11.8c-2.7,3.2-1.8,3.6-4.3,7.1
				c-4.6,6.3-13.7,13-22.3,13c-1.8,0-3.5-0.3-5.2-0.9c-1.8-0.7-5.4-2.4-8.6-7.5c-2,1.8-4.5,2.7-7,2.7c-1.5,0-3-0.3-4.3-1
				c-4-2-6.3-6.5-5.5-11.1c-1-0.8-3.7-3-3.8-6.1c-0.1-4.6,5.5-8.6,10.3-9.1c0.3,0,0.6,0,0.8,0c4.3,0,6.3,3.2,13,3.9
				c0.8,0.1,1.6,0.1,2.3,0.1c2.4,0,4.4-0.4,5.9-0.7c9.3-5.1,18.5-10.3,27.8-15.4c1.8-5.2,3.6-10.5,5.4-15.8c1.3-4,2.7-8,3.9-12
				c-6.4-0.7-16.3-2.6-27.2-8.2C351.6,692.4,344.2,685.3,339.8,680.5 M339.8,670.5c-3.8,0-7.3,2.2-9,5.6c-1.8,3.7-1.2,8.1,1.6,11.1
				c7.4,8.2,16.1,14.8,25.9,19.8c6,3,12.2,5.4,18.7,7c-0.1,0.3-0.2,0.7-0.3,1c-1.3,4-2.7,8.1-4.1,12.1L349.3,740
				c-0.8,0.1-1.6,0.2-2.3,0.2c-0.4,0-0.9,0-1.3-0.1c-1.8-0.2-2.8-0.6-4.4-1.4c-2.2-1.1-5.3-2.5-9.6-2.5c0,0,0,0,0,0
				c-0.6,0-1.2,0-1.8,0.1c-9.6,0.9-19.6,8.8-19.3,19.3c0.1,3.6,1.4,7,3.7,9.9c0.7,6.8,4.8,12.9,11.1,16c2.7,1.3,5.7,2,8.7,2
				c1.5,0,2.9-0.2,4.4-0.5c2.3,2,4.9,3.6,7.7,4.6c2.8,1,5.7,1.5,8.7,1.5c12.3,0,24.1-8.6,30.3-17.1c1.7-2.3,2.4-3.8,3.1-5.2
				c0.3-0.6,0.3-0.7,0.9-1.4c1.8-2.2,3.4-3.1,5.9-4.5c2.7-1.5,6-3.4,9.3-6.8c3.2-3.3,5.6-7.3,7.4-11.8c6.4-4,12-9.1,16.2-15.1
				l0.2-0.3c3.4-4.9,8.1-11.6,8.2-21.2c0.1-15-11.2-24.9-14.7-27.5c-1.5-1.2-3.4-1.9-5.4-2l-4.6-0.3l-71.2-5.3
				C340.3,670.5,340.1,670.5,339.8,670.5L339.8,670.5z"/>
		</g>
		<g>
			<path class="st1" d="M681.4,867.9c-11.2,0-22.5-4.9-31.4-13.6c-0.3,0-0.6,0-0.9,0c-10.2,0-19.9-2.2-28.7-6.6
				c-19.4-9.6-29.1-21.2-29.1-34.4c0.1-16.3,16-29,30.7-34c4.9-1.6,10-2.5,15.2-2.5c2.2,0,4.4,0.1,6.6,0.4
				c14.9-9.1,27.2-19.6,35.4-30.5c2.5-3.3,4.2-6.1,4.6-9.7c0.7-6.2-3.1-12.9-12.4-22.4c-12.8-13-29-23.9-48.2-32.4
				c-49.3,6.4-99.2,9.6-148.3,9.6c0,0,0,0,0,0c-4.9,0-9.9,0-14.8-0.1c-80.2-1-163.2-2.1-250.6-45.1c-48.8-24-80.4-51.4-96.7-83.7
				c-14.2-28.2-27.1-68.9-7.6-102.3c5.6-9.6,13.4-17.8,23.2-24.5c-2.2-9.4-3.4-19-3.6-28.6c-0.2-8.8-0.5-25.3,6.4-44.1
				c3.5-9.4,17.3-41.2,51.2-57.2c8.2-3.9,17-6.6,26.1-8c9.3-11.6,19.6-22.4,30.7-32.2c60.7-53.8,129.9-64.3,159.5-68.8
				c9.5-1.5,29.4-4.5,54.7-4.5c27.6,0,54.3,3.6,79.4,10.7c19.1,5.4,35,12.1,42.7,15.7c27,12.3,44.3,25,75.7,48.1
				c18.5,13.6,35.7,27.4,52.8,42.2c9.9,8.6,19.6,17.5,29.1,26.5c23.2-43,47-62.7,63.2-71.6c8.7-4.8,16.2-7.2,23.1-7.2
				c2.4,0,4.6,0.3,6.9,0.8c15.5,3.8,23.9,18.6,28.9,29.4c35.9,77.5,48.4,146.2,52.5,190.2c4.5,47.8,0.6,77,0.4,78.2
				c-0.1,0.7-9.5,69.6,2.4,121.5c1.5,6.7,4.3,16.9,10.6,28.7c5.7,10.7,10.3,19.2,18.6,22.6c2.1,0.8,4,1.2,6.1,1.2
				c1.3,0,2.6-0.1,3.9-0.3c1.5-0.2,3-0.3,4.6-0.3c3.6,0,6.8,0.8,10.1,2.6c9.6,5.1,18.5,18.1,15.9,32c-2.1,11.2-10.6,17.5-14.2,19.8
				c-5.1,3.2-10.9,4.8-17.3,4.8c-3.2,0-6.1-0.4-8.4-0.9c-2.1,5.3-5.7,11.4-11.9,16.5c-7.3,6.1-16.5,9.1-27.3,9.1
				c-1.7,0-3.2-0.1-4.3-0.1c-7-0.3-25.8-1.2-31.8-14.9c-0.5-1.2-0.9-2.4-1.2-3.7c-1.8,0.7-3.8,1-5.7,1c-2.8,0-5.6-0.7-8.4-1.9
				c-11.3-5.2-15.8-20.3-13.7-31.9c2.3-12.4,11.7-19.3,14.8-21.6c6.9-5.1,14.1-7,19.5-7.7c2.7-4.5,5.6-11,6.4-19
				c0.9-9.7-1.7-17.8-2.6-20.4c-0.3-0.8-0.5-1.4-0.7-1.9c-6-16.4-26.5-62-59.1-127.7c-14.2,20.5-30.1,39.9-47.3,57.9
				c-15.9,16.6-33.1,32.2-51.2,46.3c5.2,4.7,10.5,9.6,15.9,14.4l3.5,3.1c13.6,12.1,18.7,16.6,20.8,25.1c1.9,7.3,0,12.5-1.8,17.4
				c-0.9,2.4-1.8,4.9-2.4,7.9c-2.7,13.6,3.5,23.7,10.8,35.3c7.6,12.1,16.1,25.8,14.9,45.3c-1,16-6.3,27.9-15.9,35.4
				c-6.8,5.3-15.6,8.1-25.5,8.1c-8.5,0-17.6-2.1-26.5-6c-3.3,4.4-8.2,9.1-15.1,11.9C690.5,867,686.1,867.9,681.4,867.9z"/>
			<path class="st1" d="M453.4,197.8c22.6,0,49.5,2.4,78.1,10.5c20.8,5.9,37.4,13.3,42,15.4c26.5,12.1,43.6,24.6,74.8,47.5
				c20.5,15,37.8,29.2,52.5,41.9c13.6,11.8,24.9,22.5,33.7,31c8.7-17,31.3-57.2,64.3-75.5c8.7-4.8,15.2-6.5,20.6-6.5
				c2.1,0,4,0.3,5.7,0.7c13.2,3.2,20.9,16.6,25.6,26.6c68.9,148.8,52.5,265.6,52.5,265.6s-9.8,69.8,2.5,123.3
				c1.3,5.8,4.2,17.1,11.1,30c6.1,11.4,11.1,20.8,21.2,24.9c3.1,1.2,5.6,1.6,7.9,1.6c3.1,0,5.7-0.6,8.5-0.6c2.3,0,4.8,0.4,7.7,2
				c8.4,4.5,15.4,15.6,13.4,26.7c-1.7,9.5-9.3,14.8-11.9,16.4c-5,3.1-10.2,4-14.7,4c-6,0-10.6-1.7-11.6-2.1
				c-0.9,3.6-3.7,12.1-11.8,18.8c-8.4,6.9-17.8,8-24.1,8c-1.6,0-3-0.1-4.1-0.1c-6.5-0.3-22.7-1.1-27.5-12c-2.1-4.8-1.3-9.8-0.2-13.3
				c0.7-1.5,1-2.7,1.1-3c-0.3,0.8-0.7,1.8-1.1,3c-1.1,2.3-3.2,5.3-7,6.7c-1.5,0.6-3,0.8-4.4,0.8c-3.1,0-5.6-1.1-6.3-1.5
				c-8.6-4-12.7-16.4-10.9-26.5c1.9-10.5,10-16.4,12.8-18.5c7.8-5.8,15.9-6.7,19.5-6.9c2.8-4.1,7.4-12.3,8.4-23.3
				c1-10.5-1.7-19-2.8-22.5c-0.3-0.9-0.5-1.6-0.7-2.1c-6.6-18.1-29.7-68.8-63.2-135.9c-13,19.4-29.8,41.6-51.6,64.3
				c-19.3,20.2-38.3,36.5-55.4,49.4c4.3,4,11.4,10.5,20.3,18.4c15.7,14,20.9,18.1,22.8,25.7c2.3,8.9-2.2,13.4-4.2,23.1
				c-6.2,30.9,27.9,45.2,25.7,81.3c-0.3,4.7-1.3,21.9-14,31.8c-6.1,4.7-13.9,7-22.5,7c-8.9,0-18.7-2.5-28.3-7.3
				c-2.1,3.5-6.8,10.2-15.3,13.7c-3.6,1.5-7.4,2.2-11.3,2.2c-10.2,0-21-4.8-29.4-13.7c-0.9,0-1.9,0.1-2.9,0.1
				c-6.5,0-16.3-1-26.4-6.1c-5.9-3-26.4-13.1-26.3-29.9c0.1-15,16.4-25.6,27.3-29.3c5-1.7,9.7-2.2,13.7-2.2c3,0,5.6,0.3,7.6,0.6
				c21.8-13,33-25.6,38.3-32.7c2.5-3.4,5-7.1,5.5-12.2c0.8-8.1-3.5-16-13.8-26.5c-8.6-8.8-24.6-22.5-51.1-34.1
				c-59,7.7-109.7,9.8-149.1,9.8c-5.1,0-10,0-14.8-0.1c-84.4-1.1-163.8-3-248.5-44.6c-64.9-31.9-85.6-63.9-94.4-81.4
				c-6-11.8-30-59.5-7.7-97.6c7.3-12.5,17.4-20.2,24.6-24.7c-2-7.6-4.1-18.2-4.4-30.9c-0.2-9.3-0.4-24.7,6.1-42.2
				c2.4-6.6,15-38.5,48.7-54.4c10.5-5,20.1-6.9,26.7-7.8c6.9-8.8,17.2-20.7,31.3-33.1c58.4-51.7,124.9-62.8,156.9-67.6
				C410.2,200.6,429.3,197.8,453.4,197.8 M453.4,187.8c-25.8,0-45.9,3.1-55.5,4.5c-14.1,2.2-40.5,6.2-70.4,16.7
				c-34.7,12.2-65.5,30.1-91.7,53.3c-10.8,9.6-20.9,20.1-30,31.3c-8.9,1.6-17.5,4.3-25.6,8.1c-15.8,7.5-29.3,18.9-40,34
				c-7.3,10.3-11.6,19.8-13.8,26c-7.2,19.7-6.9,36.7-6.7,45.9c0.2,8.8,1.2,17.7,3,26.3c-9.2,6.7-16.5,14.8-21.9,24.1
				c-10.7,18.4-13.4,40.5-7.8,65.8c4.2,19.4,12.3,35.3,15.3,41.3c16.8,33.3,49.2,61.4,98.9,85.9c39.2,19.3,80.9,31.9,127.4,38.5
				c40,5.7,78.8,6.6,125.4,7.2c4.9,0.1,10,0.1,14.9,0.1c48.8,0,98.5-3.2,147.6-9.5c18.1,8.2,33.4,18.5,45.4,30.8
				c10.4,10.5,11.3,15.4,11,18.4c-0.3,2.4-1.5,4.4-3.6,7.2c-7.6,10-18.8,19.8-32.6,28.3c-1.8-0.2-3.6-0.3-5.4-0.3
				c-5.8,0-11.5,0.9-16.8,2.7c-7.7,2.6-15.5,7.1-21.3,12.5c-8.4,7.6-12.8,16.7-12.8,26.2c0,7,2.4,17.5,14.4,27.8
				c6.8,5.8,14.3,9.5,17.5,11.1c9.2,4.6,19.2,6.9,29.8,7.1c9.6,8.7,21.6,13.6,33.4,13.6c5.3,0,10.4-1,15.1-2.9
				c6.4-2.6,11.2-6.5,14.7-10.5c8.4,3.3,16.9,5,25,5c11,0,20.9-3.2,28.6-9.1c7.4-5.8,16.5-17.2,17.9-39c1.3-21.1-7.7-35.6-15.7-48.3
				c-7-11.2-12.5-20-10.2-31.7c0.5-2.6,1.3-4.8,2.2-7.1c1.9-5.2,4.2-11.6,1.9-20.4c-2.6-10-8.8-15.5-22.4-27.6c-1.1-1-2.3-2-3.5-3.1
				c-3.9-3.4-7.7-6.9-11.5-10.4c16.6-13.3,32.4-27.8,47.1-43.1c15.4-16.1,29.8-33.4,42.9-51.6c30.3,61.3,49.7,104.5,55.2,119.7
				c0.2,0.5,0.4,1,0.6,1.7c0.9,2.7,3.2,9.8,2.3,18.4c-0.6,6-2.5,11-4.5,14.9c-5.7,1-12.6,3.3-19.3,8.2c-3.5,2.6-14.1,10.4-16.8,24.7
				c-1.3,6.9-0.6,14.3,2,20.9c2.9,7.6,8.1,13.5,14.5,16.4c3.4,1.6,7,2.4,10.5,2.4c0.8,0,1.6,0,2.4-0.1c7.3,16.4,28.2,17.4,36.1,17.8
				c1.2,0.1,2.8,0.1,4.6,0.1c12,0,22.2-3.5,30.5-10.3c5.6-4.6,9.2-9.9,11.7-14.8c1.7,0.2,3.5,0.3,5.4,0.3c7.3,0,14-1.9,19.9-5.5
				c4.1-2.6,14-10,16.5-23.1c1.4-7.4,0-15.3-3.8-22.4c-3.5-6.4-8.7-11.7-14.7-15c-4-2.1-8.1-3.2-12.4-3.2c-1.9,0-3.7,0.2-5.2,0.4
				c-1.3,0.1-2.3,0.3-3.4,0.3c-1,0-2.3-0.1-4.2-0.9c-6.4-2.6-10.1-9.1-16.1-20.3c-6-11.3-8.7-21.1-10.2-27.5
				c-11.7-51.1-2.4-119-2.3-119.7c0.2-1.2,4.2-31-0.4-79.4c-2.7-28.3-7.8-57.2-15.1-85.9c-9.2-35.8-21.9-71.5-37.9-106
				c-3.1-6.8-12.7-27.4-32.3-32.2c-2.6-0.6-5.4-1-8.1-1c-7.7,0-16,2.5-25.5,7.8c-15.5,8.6-30.4,22.4-44.4,41
				c-6.2,8.2-12.1,17.3-17.6,27c-8-7.6-16.3-15-24.6-22.2c-17.2-14.9-34.5-28.8-53.1-42.5c-31.6-23.3-49.1-36.1-76.6-48.6
				c-7.9-3.6-24-10.4-43.5-15.9C508.6,191.5,481.4,187.8,453.4,187.8L453.4,187.8z"/>
		</g>
	</g>
</g>
<g id="white">
	<g>
		<path class="st2" d="M107.4,608.7c2.4,17.6,5.7,44.8,25.2,67c9.5,10.8,15.2,12,15.8,18.3c1.4,16-34.2,32-64,42.9
			c1.6,0.6,5.5,2.1,8.5,6.1c2,2.7,2.9,5.4,3.2,7c-3.7-3.4-12.1-10-24.3-11.5c-12.5-1.6-31.8,1.7-38.5,15.7c-3,6.4-3.8,15.9,0.6,23.8
			c2,3.7,4.7,6.2,6.6,7.7c0.1-1.8,1.9-19.1,16.9-28.1c12.7-7.6,29.7-6,42.1,4.3c-17.3-9.2-36.5-6.8-45.8,3.4
			c-4.8,5.3-8.5,14.2-9,22.8c-0.1,2.6-0.1,4.2,0.5,6.1c3.8,13.4,18.8,12.7,29.6,9.7c-0.8-10.3,4.3-20.1,13-25
			c10-5.6,23.1-3.7,31.6,4.9c-14.9-7.7-30.8-3.2-36.1,6.4c-4.3,7.8-1.1,18.4,3.4,24.7c3.9,5.4,8.8,8,12.1,9.5
			c9.3,4.2,20.1,4.3,30.2,2.6c11.1-1.9,22.5-6.6,28.4-16.2c1.6-2.5,2.4-4.5,3.4-7.5c5.3-14.4,4.1-27.1,4-30.4
			c-0.8-28.1,56.9-46.1,56.1-71.9c-0.2-7.4-5.4-18.4-31.3-31.3c6.4-5.8,12.8-11.6,19.2-17.4c-12.7-5-27.9-12.5-43.7-23.8
			c-30.1-21.6-47.9-47-57.7-63.9C105,583,106,598.2,107.4,608.7z"/>
		<path class="st3" d="M390,705.3c1.2,2.4-0.5,4.8-3.8,12.7c-2.7,6.3-4.5,11.6-5.6,15.1c-23.6,15.6-32.8,18-36,16.1
			c-0.1-0.1-0.6-0.4-1.4-0.8c-2-1.1-6.9-3.3-12.4-3c-3.3,0.2-8.4,1.8-9.9,6.1c-1.5,4.3,1.6,8.6,2,9.1c0.1-0.4,1.3-5,5.9-6.8
			c4.7-1.8,8.7,0.9,9.1,1.2c-4.7-2.3-10.3-0.6-12.7,3.5c-2.2,3.9-1,8.8,2.1,11.6c3.3,3,8.4,3.5,12.4,0.9c-1-3.5-1.1-7.3,1.5-10.2
			c3.2-3.6,9.3-4.2,13.9-0.7c-6.5-1.8-12.3,0.7-13.7,4.4c-1.2,3.2,1,6.7,1.2,7c2.1,3.2,5.7,4.1,8.1,4.6c7.8,1.8,18.1-0.4,24.4-7.4
			c3.2-3.5,1.5-4.1,5.1-8.6c5.9-7.5,11.3-7.1,17.1-13.6c1.9-2.2,4.5-5.8,6.2-11.7c3.5-1.8,10.7-5.9,16.3-14.1
			c6.7-9.7,7.5-19.5,7.5-23.5c-11.7,0.4-24.5,0.4-38.3-0.5c-12.4-0.8-23.9-2.1-34.4-3.7c4,2.5,10.2,5.8,18.4,7.6
			C382.2,702.5,388.2,701.6,390,705.3z"/>
		<path class="st2" d="M117.2,559.7c8.9,17.6,29.5,49.5,94.4,81.4c83,40.8,162.2,43.3,248.5,44.6c53.3,0.8,96.7-2.3,124.4-4.9
			c-6.4-6.1-14.8-15.7-21.4-29.3c-11.8-24.3-10.6-47.1-9.4-57.4c28.1,55.8,55.7,76.8,76.6,85.3c22.9,9.3,30.2,16.4,44.8,30.7
			c7.4,7.3,14.9,16.2,13.8,26.5c-0.4,3.6-1.8,7.1-5.5,12.2c-4.5,6.1-14.7,17.7-35.3,26.4c1.4,1.3,3.2,3.2,4.7,6
			c0.8,1.4,1.3,2.8,1.7,4c-2.2-2.3-7-6.7-14.4-8.7c-12.7-3.4-23.2,3.1-25.8,4.7c-1.1,0.7-19,12.1-17.9,31.1
			c1,17.7,17.6,28.7,30.1,31.7c5.9,1.4,11.1,1.1,14.7,0.6c-1.9-2.7-6.4-9.7-5.5-18.8c1.2-12.3,11.6-23.1,26.1-26.5
			c-2.3,1.5-13.7,9.1-16.8,23.9c-0.7,3.6-3.2,18,6.5,29.2c7.5,8.7,17.9,10.2,22.6,10.8c1.7,0.2,23.3,2.9,36-11
			c12.5-13.6,12.3-38.8-3.5-57.9c2.7,1.5,16.3,9.6,20.6,26.5c2.9,11.4,0.1,20.9-1.3,24.7c2.5,1.2,19.6,9.1,33,0.8
			c13-8,13.7-26,14-31.8c2.2-36.1-31.9-50.4-25.7-81.3c1.9-9.7,6.5-14.2,4.2-23.1c-3.5-13.8-16.4-21.5-22.8-25.7
			c-35.2-23.3-27.9-59.2-59-91.7c-12.2-12.7-33.6-28.4-73.3-35.3c12.3-0.5,38.4,0.3,65.3,16c45.9,26.8,56.5,75.3,58.2,83.6
			c13.8-11.2,28.7-24.6,43.8-40.4c11.3-11.9,21.2-23.5,29.8-34.5c-12.1-33.8-27.1-90.6-19.5-159.8c3.4-31,10.5-57.6,18.2-79
			c-17,119.3,3.7,181.6,28,216.7c21.7,31.4,33.9,63.7,58.2,128.2c0.1,0.2,0.2,0.4,0.3,0.7c2.9,8.1,3.4,15.4,3.4,20
			c0,1.4,0,2.4-0.1,3.8c-0.6,6.6-2.9,11.6-4.7,14.8c2.9,1.2,7.5,3.7,11.4,8.3c1.4,1.7,2.4,3.3,3.3,4.8c-2-1.1-13.7-7.1-27.3-2.5
			c-1.8,0.6-16.6,5.9-20.8,20.8c-2.8,10.1-0.9,24.7,8.3,29c3.9,1.8,8,1.3,10.7,0.6c-0.1-0.6-2.2-11.7,6-19.5c7-6.6,16-5.5,17.1-5.3
			c-4.2,0.5-8.1,2.1-11.2,4.4c-0.5,0.4-4.9,3.8-6.9,9.1c-3.6,9.3,1.9,20.6,7.9,26.5c13.1,12.9,40.1,10.9,53.5-3.5
			c6.8-7.4,14-22,7.5-32.2c-3.7-5.8-10.3-7.8-13.6-8.5c0.7-0.1,10.6-1.1,17.1,6.6c5.5,6.5,4.3,14.3,4.1,15.5
			c8.8,3,18.3,0.9,24.3-5.4c7-7.3,5.9-16.9,5.7-18.6c-2-14.6-18.7-27.4-33-23.9c-7.7,1.9-30.9-43.5-35.5-56.4
			c0,0-17.9-53.9-2.5-123.3c0,0,0,0,0,0c0,0,16.4-116.9-52.5-265.6c-4.6-10-12.4-23.4-25.6-26.6c-9.6-2.3-18.7,1.5-26.4,5.9
			c-38,21.4-58.4,62.9-62.8,72.3c-11,23.4-17.4,45.7-23.8,80c-6.1,33-12.6,79.1-13.9,135.5c-5.2-30.5-9.2-74.2-2-125.6
			c5.6-40,16.3-73.1,26.4-97.9c-5.5-5.1-12.9-12-21.9-19.8c-22.6-19.7-41.7-34.1-52.5-41.9c-31.2-22.9-48.2-35.5-74.8-47.5
			c-4.6-2.1-21.3-9.5-42-15.4c-59.1-16.7-111.2-9.3-132.1-6.1c-32,4.9-98.5,15.9-156.9,67.6c-14.1,12.5-24.4,24.4-31.3,33.1
			c-6.6,0.9-16.2,2.9-26.7,7.8c-33.7,15.9-46.3,47.8-48.7,54.4c-6.5,17.5-6.3,33-6.1,42.2c0.3,12.8,2.4,23.4,4.4,30.9
			c-7.2,4.5-17.3,12.3-24.6,24.7C87.3,500.2,111.2,547.8,117.2,559.7z"/>
	</g>
	<g>
		<path class="st4" d="M107.4,608.7c2.4,17.6,5.7,44.8,25.2,67c9.5,10.8,15.2,12,15.8,18.3c1.4,16-34.2,32-64,42.9
			c1.6,0.6,5.5,2.1,8.5,6.1c2,2.7,2.9,5.4,3.2,7c-3.7-3.4-12.1-10-24.3-11.5c-12.5-1.6-31.8,1.7-38.5,15.7c-3,6.4-3.8,15.9,0.6,23.8
			c2,3.7,4.7,6.2,6.6,7.7c0.1-1.8,1.9-19.1,16.9-28.1c12.7-7.6,29.7-6,42.1,4.3c-17.3-9.2-36.5-6.8-45.8,3.4
			c-4.8,5.3-8.5,14.2-9,22.8c-0.1,2.6-0.1,4.2,0.5,6.1c3.8,13.4,18.8,12.7,29.6,9.7c-0.8-10.3,4.3-20.1,13-25
			c10-5.6,23.1-3.7,31.6,4.9c-14.9-7.7-30.8-3.2-36.1,6.4c-4.3,7.8-1.1,18.4,3.4,24.7c3.9,5.4,8.8,8,12.1,9.5
			c9.3,4.2,20.1,4.3,30.2,2.6c11.1-1.9,22.5-6.6,28.4-16.2c1.6-2.5,2.4-4.5,3.4-7.5c5.3-14.4,4.1-27.1,4-30.4
			c-0.8-28.1,56.9-46.1,56.1-71.9c-0.2-7.4-5.4-18.4-31.3-31.3c6.4-5.8,12.8-11.6,19.2-17.4c-12.7-5-27.9-12.5-43.7-23.8
			c-30.1-21.6-47.9-47-57.7-63.9C105,583,106,598.2,107.4,608.7z"/>
		<path class="st4" d="M390,705.3c1.2,2.4-0.5,4.8-3.8,12.7c-2.7,6.3-4.5,11.6-5.6,15.1c-23.6,15.6-32.8,18-36,16.1
			c-0.1-0.1-0.6-0.4-1.4-0.8c-2-1.1-6.9-3.3-12.4-3c-3.3,0.2-8.4,1.8-9.9,6.1c-1.5,4.3,1.6,8.6,2,9.1c0.1-0.4,1.3-5,5.9-6.8
			c4.7-1.8,8.7,0.9,9.1,1.2c-4.7-2.3-10.3-0.6-12.7,3.5c-2.2,3.9-1,8.8,2.1,11.6c3.3,3,8.4,3.5,12.4,0.9c-1-3.5-1.1-7.3,1.5-10.2
			c3.2-3.6,9.3-4.2,13.9-0.7c-6.5-1.8-12.3,0.7-13.7,4.4c-1.2,3.2,1,6.7,1.2,7c2.1,3.2,5.7,4.1,8.1,4.6c7.8,1.8,18.1-0.4,24.4-7.4
			c3.2-3.5,1.5-4.1,5.1-8.6c5.9-7.5,11.3-7.1,17.1-13.6c1.9-2.2,4.5-5.8,6.2-11.7c3.5-1.8,10.7-5.9,16.3-14.1
			c6.7-9.7,7.5-19.5,7.5-23.5c-11.7,0.4-24.5,0.4-38.3-0.5c-12.4-0.8-23.9-2.1-34.4-3.7c4,2.5,10.2,5.8,18.4,7.6
			C382.2,702.5,388.2,701.6,390,705.3z"/>
		<path class="st4" d="M117.2,559.7c8.9,17.6,29.5,49.5,94.4,81.4c83,40.8,162.2,43.3,248.5,44.6c53.3,0.8,96.7-2.3,124.4-4.9
			c-6.4-6.1-14.8-15.7-21.4-29.3c-11.8-24.3-10.6-47.1-9.4-57.4c28.1,55.8,55.7,76.8,76.6,85.3c22.9,9.3,30.2,16.4,44.8,30.7
			c7.4,7.3,14.9,16.2,13.8,26.5c-0.4,3.6-1.8,7.1-5.5,12.2c-4.5,6.1-14.7,17.7-35.3,26.4c1.4,1.3,3.2,3.2,4.7,6
			c0.8,1.4,1.3,2.8,1.7,4c-2.2-2.3-7-6.7-14.4-8.7c-12.7-3.4-23.2,3.1-25.8,4.7c-1.1,0.7-19,12.1-17.9,31.1
			c1,17.7,17.6,28.7,30.1,31.7c5.9,1.4,11.1,1.1,14.7,0.6c-1.9-2.7-6.4-9.7-5.5-18.8c1.2-12.3,11.6-23.1,26.1-26.5
			c-2.3,1.5-13.7,9.1-16.8,23.9c-0.7,3.6-3.2,18,6.5,29.2c7.5,8.7,17.9,10.2,22.6,10.8c1.7,0.2,23.3,2.9,36-11
			c12.5-13.6,12.3-38.8-3.5-57.9c2.7,1.5,16.3,9.6,20.6,26.5c2.9,11.4,0.1,20.9-1.3,24.7c2.5,1.2,19.6,9.1,33,0.8
			c13-8,13.7-26,14-31.8c2.2-36.1-31.9-50.4-25.7-81.3c1.9-9.7,6.5-14.2,4.2-23.1c-3.5-13.8-16.4-21.5-22.8-25.7
			c-35.2-23.3-27.9-59.2-59-91.7c-12.2-12.7-33.6-28.4-73.3-35.3c12.3-0.5,38.4,0.3,65.3,16c45.9,26.8,56.5,75.3,58.2,83.6
			c13.8-11.2,28.7-24.6,43.8-40.4c11.3-11.9,21.2-23.5,29.8-34.5c-12.1-33.8-27.1-90.6-19.5-159.8c3.4-31,10.5-57.6,18.2-79
			c-17,119.3,3.7,181.6,28,216.7c21.7,31.4,33.9,63.7,58.2,128.2c0.1,0.2,0.2,0.4,0.3,0.7c2.9,8.1,3.4,15.4,3.4,20
			c0,1.4,0,2.4-0.1,3.8c-0.6,6.6-2.9,11.6-4.7,14.8c2.9,1.2,7.5,3.7,11.4,8.3c1.4,1.7,2.4,3.3,3.3,4.8c-2-1.1-13.7-7.1-27.3-2.5
			c-1.8,0.6-16.6,5.9-20.8,20.8c-2.8,10.1-0.9,24.7,8.3,29c3.9,1.8,8,1.3,10.7,0.6c-0.1-0.6-2.2-11.7,6-19.5c7-6.6,16-5.5,17.1-5.3
			c-4.2,0.5-8.1,2.1-11.2,4.4c-0.5,0.4-4.9,3.8-6.9,9.1c-3.6,9.3,1.9,20.6,7.9,26.5c13.1,12.9,40.1,10.9,53.5-3.5
			c6.8-7.4,14-22,7.5-32.2c-3.7-5.8-10.3-7.8-13.6-8.5c0.7-0.1,10.6-1.1,17.1,6.6c5.5,6.5,4.3,14.3,4.1,15.5
			c8.8,3,18.3,0.9,24.3-5.4c7-7.3,5.9-16.9,5.7-18.6c-2-14.6-18.7-27.4-33-23.9c-7.7,1.9-30.9-43.5-35.5-56.4
			c0,0-17.9-53.9-2.5-123.3c0,0,0,0,0,0c0,0,16.4-116.9-52.5-265.6c-4.6-10-12.4-23.4-25.6-26.6c-9.6-2.3-18.7,1.5-26.4,5.9
			c-38,21.4-58.4,62.9-62.8,72.3c-11,23.4-17.4,45.7-23.8,80c-6.1,33-12.6,79.1-13.9,135.5c-5.2-30.5-9.2-74.2-2-125.6
			c5.6-40,16.3-73.1,26.4-97.9c-5.5-5.1-12.9-12-21.9-19.8c-22.6-19.7-41.7-34.1-52.5-41.9c-31.2-22.9-48.2-35.5-74.8-47.5
			c-4.6-2.1-21.3-9.5-42-15.4c-59.1-16.7-111.2-9.3-132.1-6.1c-32,4.9-98.5,15.9-156.9,67.6c-14.1,12.5-24.4,24.4-31.3,33.1
			c-6.6,0.9-16.2,2.9-26.7,7.8c-33.7,15.9-46.3,47.8-48.7,54.4c-6.5,17.5-6.3,33-6.1,42.2c0.3,12.8,2.4,23.4,4.4,30.9
			c-7.2,4.5-17.3,12.3-24.6,24.7C87.3,500.2,111.2,547.8,117.2,559.7z"/>
	</g>
</g>
<g id="color">
	<radialGradient id="SVGID_1_" cx="37.5109" cy="631.0001" r="220.2003" gradientUnits="userSpaceOnUse">
		<stop  offset="0.1323" style="stop-color:#FFFFFF"/>
		<stop  offset="0.7424" style="stop-color:#CCCCCC"/>
	</radialGradient>
	<path class="st5" d="M107.4,608.7c2.4,17.6,5.7,44.8,25.2,67c9.5,10.8,15.2,12,15.8,18.3c1.4,16-34.2,32-64,42.9
		c1.6,0.6,5.5,2.1,8.5,6.1c2,2.7,2.9,5.4,3.2,7c-3.7-3.4-12.1-10-24.3-11.5c-12.5-1.6-31.8,1.7-38.5,15.7c-3,6.4-3.8,15.9,0.6,23.8
		c2,3.7,4.7,6.2,6.6,7.7c0.1-1.8,1.9-19.1,16.9-28.1c12.7-7.6,29.7-6,42.1,4.3c-17.3-9.2-36.5-6.8-45.8,3.4
		c-4.8,5.3-8.5,14.2-9,22.8c-0.1,2.6-0.1,4.2,0.5,6.1c3.8,13.4,18.8,12.7,29.6,9.7c-0.8-10.3,4.3-20.1,13-25
		c10-5.6,23.1-3.7,31.6,4.9c-14.9-7.7-30.8-3.2-36.1,6.4c-4.3,7.8-1.1,18.4,3.4,24.7c3.9,5.4,8.8,8,12.1,9.5
		c9.3,4.2,20.1,4.3,30.2,2.6c11.1-1.9,22.5-6.6,28.4-16.2c1.6-2.5,2.4-4.5,3.4-7.5c5.3-14.4,4.1-27.1,4-30.4
		c-0.8-28.1,56.9-46.1,56.1-71.9c-0.2-7.4-5.4-18.4-31.3-31.3c6.4-5.8,12.8-11.6,19.2-17.4c-12.7-5-27.9-12.5-43.7-23.8
		c-30.1-21.6-47.9-47-57.7-63.9C105,583,106,598.2,107.4,608.7z"/>
	<path class="st3" d="M390,705.3c1.2,2.4-0.5,4.8-3.8,12.7c-2.7,6.3-4.5,11.6-5.6,15.1c-23.6,15.6-32.8,18-36,16.1
		c-0.1-0.1-0.6-0.4-1.4-0.8c-2-1.1-6.9-3.3-12.4-3c-3.3,0.2-8.4,1.8-9.9,6.1c-1.5,4.3,1.6,8.6,2,9.1c0.1-0.4,1.3-5,5.9-6.8
		c4.7-1.8,8.7,0.9,9.1,1.2c-4.7-2.3-10.3-0.6-12.7,3.5c-2.2,3.9-1,8.8,2.1,11.6c3.3,3,8.4,3.5,12.4,0.9c-1-3.5-1.1-7.3,1.5-10.2
		c3.2-3.6,9.3-4.2,13.9-0.7c-6.5-1.8-12.3,0.7-13.7,4.4c-1.2,3.2,1,6.7,1.2,7c2.1,3.2,5.7,4.1,8.1,4.6c7.8,1.8,18.1-0.4,24.4-7.4
		c3.2-3.5,1.5-4.1,5.1-8.6c5.9-7.5,11.3-7.1,17.1-13.6c1.9-2.2,4.5-5.8,6.2-11.7c3.5-1.8,10.7-5.9,16.3-14.1
		c6.7-9.7,7.5-19.5,7.5-23.5c-11.7,0.4-24.5,0.4-38.3-0.5c-12.4-0.8-23.9-2.1-34.4-3.7c4,2.5,10.2,5.8,18.4,7.6
		C382.2,702.5,388.2,701.6,390,705.3z"/>
	<path class="st2" d="M117.2,559.7c8.9,17.6,29.5,49.5,94.4,81.4c83,40.8,162.2,43.3,248.5,44.6c53.3,0.8,96.7-2.3,124.4-4.9
		c-6.4-6.1-14.8-15.7-21.4-29.3c-11.8-24.3-10.6-47.1-9.4-57.4c28.1,55.8,55.7,76.8,76.6,85.3c22.9,9.3,30.2,16.4,44.8,30.7
		c7.4,7.3,14.9,16.2,13.8,26.5c-0.4,3.6-1.8,7.1-5.5,12.2c-4.5,6.1-14.7,17.7-35.3,26.4c1.4,1.3,3.2,3.2,4.7,6
		c0.8,1.4,1.3,2.8,1.7,4c-2.2-2.3-7-6.7-14.4-8.7c-12.7-3.4-23.2,3.1-25.8,4.7c-1.1,0.7-19,12.1-17.9,31.1
		c1,17.7,17.6,28.7,30.1,31.7c5.9,1.4,11.1,1.1,14.7,0.6c-1.9-2.7-6.4-9.7-5.5-18.8c1.2-12.3,11.6-23.1,26.1-26.5
		c-2.3,1.5-13.7,9.1-16.8,23.9c-0.7,3.6-3.2,18,6.5,29.2c7.5,8.7,17.9,10.2,22.6,10.8c1.7,0.2,23.3,2.9,36-11
		c12.5-13.6,12.3-38.8-3.5-57.9c2.7,1.5,16.3,9.6,20.6,26.5c2.9,11.4,0.1,20.9-1.3,24.7c2.5,1.2,19.6,9.1,33,0.8
		c13-8,13.7-26,14-31.8c2.2-36.1-31.9-50.4-25.7-81.3c1.9-9.7,6.5-14.2,4.2-23.1c-3.5-13.8-16.4-21.5-22.8-25.7
		c-35.2-23.3-27.9-59.2-59-91.7c-12.2-12.7-33.6-28.4-73.3-35.3c12.3-0.5,38.4,0.3,65.3,16c45.9,26.8,56.5,75.3,58.2,83.6
		c13.8-11.2,28.7-24.6,43.8-40.4c11.3-11.9,21.2-23.5,29.8-34.5c-12.1-33.8-27.1-90.6-19.5-159.8c3.4-31,10.5-57.6,18.2-79
		c-17,119.3,3.7,181.6,28,216.7c21.7,31.4,33.9,63.7,58.2,128.2c0.1,0.2,0.2,0.4,0.3,0.7c2.9,8.1,3.4,15.4,3.4,20
		c0,1.4,0,2.4-0.1,3.8c-0.6,6.6-2.9,11.6-4.7,14.8c2.9,1.2,7.5,3.7,11.4,8.3c1.4,1.7,2.4,3.3,3.3,4.8c-2-1.1-13.7-7.1-27.3-2.5
		c-1.8,0.6-16.6,5.9-20.8,20.8c-2.8,10.1-0.9,24.7,8.3,29c3.9,1.8,8,1.3,10.7,0.6c-0.1-0.6-2.2-11.7,6-19.5c7-6.6,16-5.5,17.1-5.3
		c-4.2,0.5-8.1,2.1-11.2,4.4c-0.5,0.4-4.9,3.8-6.9,9.1c-3.6,9.3,1.9,20.6,7.9,26.5c13.1,12.9,40.1,10.9,53.5-3.5
		c6.8-7.4,14-22,7.5-32.2c-3.7-5.8-10.3-7.8-13.6-8.5c0.7-0.1,10.6-1.1,17.1,6.6c5.5,6.5,4.3,14.3,4.1,15.5c8.8,3,18.3,0.9,24.3-5.4
		c7-7.3,5.9-16.9,5.7-18.6c-2-14.6-18.7-27.4-33-23.9c-7.7,1.9-30.9-43.5-35.5-56.4c0,0-17.9-53.9-2.5-123.3c0,0,0,0,0,0
		c0,0,16.4-116.9-52.5-265.6c-4.6-10-12.4-23.4-25.6-26.6c-9.6-2.3-18.7,1.5-26.4,5.9c-38,21.4-58.4,62.9-62.8,72.3
		c-11,23.4-17.4,45.7-23.8,80c-6.1,33-12.6,79.1-13.9,135.5c-5.2-30.5-9.2-74.2-2-125.6c5.6-40,16.3-73.1,26.4-97.9
		c-5.5-5.1-12.9-12-21.9-19.8c-22.6-19.7-41.7-34.1-52.5-41.9c-31.2-22.9-48.2-35.5-74.8-47.5c-4.6-2.1-21.3-9.5-42-15.4
		c-59.1-16.7-111.2-9.3-132.1-6.1c-32,4.9-98.5,15.9-156.9,67.6c-14.1,12.5-24.4,24.4-31.3,33.1c-6.6,0.9-16.2,2.9-26.7,7.8
		c-33.7,15.9-46.3,47.8-48.7,54.4c-6.5,17.5-6.3,33-6.1,42.2c0.3,12.8,2.4,23.4,4.4,30.9c-7.2,4.5-17.3,12.3-24.6,24.7
		C87.3,500.2,111.2,547.8,117.2,559.7z"/>
	<radialGradient id="SVGID_2_" cx="336.2125" cy="233.8188" r="308.7196" gradientUnits="userSpaceOnUse">
		<stop  offset="0.1323" style="stop-color:#FFFFFF"/>
		<stop  offset="0.4892" style="stop-color:#CCCCCC"/>
	</radialGradient>
	<path class="st6" d="M117.2,559.7c8.9,17.6,29.5,49.5,94.4,81.4c83,40.8,162.2,43.3,248.5,44.6c53.3,0.8,96.7-2.3,124.4-4.9
		c-6.4-6.1-14.8-15.7-21.4-29.3c-11.8-24.3-10.6-47.1-9.4-57.4c28.1,55.8,55.7,76.8,76.6,85.3c22.9,9.3,30.2,16.4,44.8,30.7
		c7.4,7.3,14.9,16.2,13.8,26.5c-0.4,3.6-1.8,7.1-5.5,12.2c-4.5,6.1-14.7,17.7-35.3,26.4c1.4,1.3,3.2,3.2,4.7,6
		c0.8,1.4,1.3,2.8,1.7,4c-2.2-2.3-7-6.7-14.4-8.7c-12.7-3.4-23.2,3.1-25.8,4.7c-1.1,0.7-19,12.1-17.9,31.1
		c1,17.7,17.6,28.7,30.1,31.7c5.9,1.4,11.1,1.1,14.7,0.6c-1.9-2.7-6.4-9.7-5.5-18.8c1.2-12.3,11.6-23.1,26.1-26.5
		c-2.3,1.5-13.7,9.1-16.8,23.9c-0.7,3.6-3.2,18,6.5,29.2c7.5,8.7,17.9,10.2,22.6,10.8c1.7,0.2,23.3,2.9,36-11
		c12.5-13.6,12.3-38.8-3.5-57.9c2.7,1.5,16.3,9.6,20.6,26.5c2.9,11.4,0.1,20.9-1.3,24.7c2.5,1.2,19.6,9.1,33,0.8
		c13-8,13.7-26,14-31.8c2.2-36.1-31.9-50.4-25.7-81.3c1.9-9.7,6.5-14.2,4.2-23.1c-3.5-13.8-16.4-21.5-22.8-25.7
		c-35.2-23.3-27.9-59.2-59-91.7c-12.2-12.7-33.6-28.4-73.3-35.3c12.3-0.5,38.4,0.3,65.3,16c45.9,26.8,56.5,75.3,58.2,83.6
		c13.8-11.2,28.7-24.6,43.8-40.4c11.3-11.9,21.2-23.5,29.8-34.5c-12.1-33.8-27.1-90.6-19.5-159.8c3.4-31,10.5-57.6,18.2-79
		c-17,119.3,3.7,181.6,28,216.7c21.7,31.4,33.9,63.7,58.2,128.2c0.1,0.2,0.2,0.4,0.3,0.7c2.9,8.1,3.4,15.4,3.4,20
		c0,1.4,0,2.4-0.1,3.8c-0.6,6.6-2.9,11.6-4.7,14.8c2.9,1.2,7.5,3.7,11.4,8.3c1.4,1.7,2.4,3.3,3.3,4.8c-2-1.1-13.7-7.1-27.3-2.5
		c-1.8,0.6-16.6,5.9-20.8,20.8c-2.8,10.1-0.9,24.7,8.3,29c3.9,1.8,8,1.3,10.7,0.6c-0.1-0.6-2.2-11.7,6-19.5c7-6.6,16-5.5,17.1-5.3
		c-4.2,0.5-8.1,2.1-11.2,4.4c-0.5,0.4-4.9,3.8-6.9,9.1c-3.6,9.3,1.9,20.6,7.9,26.5c13.1,12.9,40.1,10.9,53.5-3.5
		c6.8-7.4,14-22,7.5-32.2c-3.7-5.8-10.3-7.8-13.6-8.5c0.7-0.1,10.6-1.1,17.1,6.6c5.5,6.5,4.3,14.3,4.1,15.5c8.8,3,18.3,0.9,24.3-5.4
		c7-7.3,5.9-16.9,5.7-18.6c-2-14.6-18.7-27.4-33-23.9c-7.7,1.9-30.9-43.5-35.5-56.4c0,0-17.9-53.9-2.5-123.3c0,0,0,0,0,0
		c0,0,16.4-116.9-52.5-265.6c-4.6-10-12.4-23.4-25.6-26.6c-9.6-2.3-18.7,1.5-26.4,5.9c-38,21.4-58.4,62.9-62.8,72.3
		c-11,23.4-17.4,45.7-23.8,80c-6.1,33-12.6,79.1-13.9,135.5c-5.2-30.5-9.2-74.2-2-125.6c5.6-40,16.3-73.1,26.4-97.9
		c-5.5-5.1-12.9-12-21.9-19.8c-22.6-19.7-41.7-34.1-52.5-41.9c-31.2-22.9-48.2-35.5-74.8-47.5c-4.6-2.1-21.3-9.5-42-15.4
		c-59.1-16.7-111.2-9.3-132.1-6.1c-32,4.9-98.5,15.9-156.9,67.6c-14.1,12.5-24.4,24.4-31.3,33.1c-6.6,0.9-16.2,2.9-26.7,7.8
		c-33.7,15.9-46.3,47.8-48.7,54.4c-6.5,17.5-6.3,33-6.1,42.2c0.3,12.8,2.4,23.4,4.4,30.9c-7.2,4.5-17.3,12.3-24.6,24.7
		C87.3,500.2,111.2,547.8,117.2,559.7z"/>
</g>
<g id="face-shadow">
	<path class="st3" d="M255.7,313.9c-4.3,56-32.6,103-75.5,120.4c-18.8,7.6-37.1,8.3-51.5,6.8c14.6-2.1,56.4-9.9,87.9-43.7
		c16.8-18,25.8-38.2,28.6-44.9C251.5,337.4,254.3,323.8,255.7,313.9z"/>
	<path class="st3" d="M545.1,356.6c4.2,13.2,4.6,24.7,4.7,28.2c1,28-11.5,48.7-16.9,56.6c-9.2-4.9-18.8-10.9-28.5-18.4
		c-43.2-33.2-63.6-76.5-73.2-103.4c1.8,14.9,6.8,38.2,21.4,62.6c13,21.7,27.2,33.4,48.1,50.6c17.3,14.2,26.1,21.3,33.9,19.2
		c16.1-4.3,21.9-38.5,20.4-63.1c-2.3-37.9-22.9-68.1-23.9-67.7C530.7,321.5,533.3,328.8,545.1,356.6z"/>
	<path class="st3" d="M141.1,545.4c2.5,2.1,6.5,5,11.6,8c49.8,28.9,98.3-7.8,163.4-17.5c114.3-17,178.7,64.5,258.2,17
		c6.3-3.8,11.1-7.4,13.9-9.7c-86.7-19.5-173.4-39.1-260.1-58.6C265.8,504.9,203.5,525.1,141.1,545.4z"/>
	<path class="st3" d="M248.3,410c1.3,3.3,6.9,4,11.2,4.4c9.5,0.9,25.2,1.6,47.9-1c-16.3-6.1-32.5-12.2-48.8-18.3
		C257.3,396.1,246.2,404.6,248.3,410z"/>
	<path class="st3" d="M331.7,409.8c5.5-0.1,11.8-0.6,18.6-1.9c15.2-2.9,27.1-8.6,35.3-13.5c-6-2.8-12-5.6-18-8.4
		C355.7,393.9,343.7,401.9,331.7,409.8z"/>
	<path class="st3" d="M419.3,301.1c5.7-4.4,14.5-4.5,22,0c-6.1,0.1-14.5,1.3-19.8,7.3c-6.7,7.6-4.7,18.6-5.5,18.6
		C415.1,327,409,309.1,419.3,301.1z"/>
	<path class="st3" d="M249.2,298.9c0,0,19.6,9.9,14.7,27C263.9,325.8,282.6,298.9,249.2,298.9z"/>
</g>
<g id="face-black">
	<g>
		<g>
			<path d="M259.6,446.5c14-11.6,19-15.6,26.3-16.3c12.4-1.2,23.1,6.1,29.7,11.8c8.6-7.1,21.8-15.7,38.8-18.2
				c27.9-4,42.1,12,81,29.7c61.7,28.2,83,14.3,120.6,45.4c5.5,4.6,38.3,31.7,32.2,44.3c-13,27.2-186.7-52.9-292.5-28.1
				c-21,4.9-42.1,9.6-63.1,14.6c-13.2,3.2-26.4,6.7-39.4,10.4c-6.5,1.9-13.3,3.3-19.6,5.7c-5.7,2.2-11.3,4.3-17.5,4.7
				c-5.5,0.3-11.3-1.2-15-5.3c-5.9-6.6-4.1-17.5,1.7-24.3s14.2-10.4,22.3-14c28.2-12.4,53-25.8,65.5-35.8
				C237.8,465.7,239.7,463.1,259.6,446.5z"/>
			<path d="M362.8,423.2c22.8,0,37.8,14.4,72.6,30.4c61.7,28.2,83,14.3,120.6,45.4c5.5,4.6,38.3,31.7,32.2,44.3
				c-1.9,4-7.4,5.7-15.7,5.7c-39.8,0-144.2-38.6-230.1-38.6c-16.5,0-32.3,1.4-46.8,4.8c-21,4.9-42.1,9.6-63.1,14.6
				c-13.2,3.2-26.4,6.7-39.4,10.4c-6.5,1.9-13.3,3.3-19.6,5.7c-5.7,2.2-11.3,4.3-17.5,4.7c-0.5,0-0.9,0-1.4,0
				c-5,0-10.2-1.6-13.5-5.3c-5.9-6.6-4.1-17.5,1.7-24.3c5.7-6.8,14.2-10.4,22.3-14c28.2-12.4,53-25.8,65.5-35.8
				c7.2-5.7,9-8.3,29-24.9c14-11.6,19-15.6,26.3-16.3c0.9-0.1,1.8-0.1,2.7-0.1c11.2,0,20.9,6.7,27,11.9c8.6-7.1,21.8-15.7,38.8-18.2
				C357.4,423.4,360.2,423.2,362.8,423.2 M362.8,422.2c-2.7,0-5.6,0.2-8.5,0.6c-13.5,1.9-26.5,7.9-38.7,17.9
				c-9.1-7.7-18.2-11.6-27-11.6c-0.9,0-1.9,0-2.8,0.1c-7.6,0.7-12.9,4.8-26.9,16.5c-11.2,9.3-16.6,14.2-20.6,17.8
				c-3.1,2.8-5.2,4.6-8.3,7.1c-12.3,9.8-36.7,23.1-65.3,35.6l-0.4,0.2c-8.1,3.5-16.5,7.2-22.2,14c-3,3.5-5,8.2-5.4,12.8
				c-0.5,5,0.8,9.6,3.8,12.8c3.2,3.6,8.4,5.6,14.3,5.6c0.5,0,1,0,1.5,0c6.4-0.4,11.9-2.5,17.7-4.7l0.2-0.1c4.3-1.7,9-2.9,13.5-4.1
				c2-0.5,4-1.1,6-1.6c14.6-4.2,27.5-7.6,39.4-10.4c12.6-3,25.4-6,37.8-8.8c8.3-1.9,16.8-3.9,25.2-5.8c13.6-3.2,29.2-4.8,46.5-4.8
				c51,0,108.8,13.7,155.2,24.7c31.5,7.5,58.6,13.9,74.9,13.9c9.1,0,14.6-2.1,16.6-6.3c5.5-11.6-18-33.5-32.5-45.5
				c-21-17.4-37.1-20.8-57.5-25.2c-16.8-3.6-35.9-7.7-63.3-20.3c-11.5-5.3-20.9-10.4-29.1-14.9C390.2,428.7,378.3,422.2,362.8,422.2
				L362.8,422.2z"/>
		</g>
		<g>
			<path d="M130.6,434.7c-3.2-10.5-11.9-44.3,5-78.6c13.9-28.2,47-60.5,82.7-55c14.1,2.2,24.6,9.6,30.9,15.1
				c-1.8,11.5-10.1,57.6-51.6,90.3C171.5,427.1,144.2,432.9,130.6,434.7z"/>
			<path d="M210.3,300.5c2.7,0,5.3,0.2,8,0.6c14.1,2.2,24.6,9.6,30.9,15.1c-1.8,11.5-10.1,57.6-51.6,90.3
				c-26.2,20.6-53.4,26.3-67,28.2c-3.2-10.5-11.9-44.3,5-78.6C148.4,330.1,177.7,300.5,210.3,300.5 M210.3,299.5v1V299.5
				L210.3,299.5c-15.1,0-30.8,6.3-45.4,18.3c-12.3,10.1-23.3,23.9-30.2,37.9c-15.6,31.8-9.9,63.3-5,79.3l0.2,0.8l0.8-0.1
				c17.4-2.4,43.2-9.3,67.5-28.4c39.1-30.8,49.4-73.9,52-91l0.1-0.5l-0.4-0.4c-9.7-8.5-20.2-13.6-31.4-15.3
				C215.8,299.7,213,299.5,210.3,299.5L210.3,299.5z"/>
		</g>
		<g>
			<path d="M512.9,314.7c35.2,20.2,36.7,62.6,36.9,70.1c1,28-11.5,48.7-16.9,56.6c-15.5-8.3-39.7-23.8-62.2-50.5
				c-22.9-27.3-34-54.4-39.5-71.2C456.5,302.7,488.3,300.6,512.9,314.7z"/>
			<path d="M477.1,305.4c12.6,0,24.9,3.1,35.8,9.3c35.2,20.2,36.7,62.6,36.9,70.1c1,28-11.5,48.7-16.9,56.6
				c-15.5-8.3-39.7-23.8-62.2-50.5c-22.9-27.3-34-54.4-39.5-71.2C445.3,310.2,461.4,305.4,477.1,305.4 M477.1,304.4L477.1,304.4
				c-16.3,0-32.3,5-46.3,14.4l-0.6,0.4l0.2,0.7c8.5,26.3,21.9,50.4,39.7,71.6c17.5,20.8,38.5,37.9,62.5,50.8l0.8,0.4l0.5-0.7
				c6.7-9.9,17.9-30.6,17-57.2c-0.4-10.9-2.2-21.1-5.4-30.6c-6.2-18.1-17-31.7-32-40.3C502.6,307.7,490,304.4,477.1,304.4
				L477.1,304.4z"/>
		</g>
		<path d="M292.9,407.7c-3.1-2.4-29.3-15.6-34.3-12.5c-1.1,0.7-4.4,3-5.4,10C266.4,406,279.6,406.8,292.9,407.7z"/>
		<path d="M342.3,402.3c10.3-15,23.2-21.8,30.7-18.2c1.5,0.7,4,2.4,5.8,7C366.7,394.9,354.5,398.6,342.3,402.3z"/>
	</g>
	<g>
		<g>
			<path class="st7" d="M259.6,446.5c14-11.6,19-15.6,26.3-16.3c12.4-1.2,23.1,6.1,29.7,11.8c8.6-7.1,21.8-15.7,38.8-18.2
				c27.9-4,42.1,12,81,29.7c61.7,28.2,83,14.3,120.6,45.4c5.5,4.6,38.3,31.7,32.2,44.3c-13,27.2-186.7-52.9-292.5-28.1
				c-21,4.9-42.1,9.6-63.1,14.6c-13.2,3.2-26.4,6.7-39.4,10.4c-6.5,1.9-13.3,3.3-19.6,5.7c-5.7,2.2-11.3,4.3-17.5,4.7
				c-5.5,0.3-11.3-1.2-15-5.3c-5.9-6.6-4.1-17.5,1.7-24.3s14.2-10.4,22.3-14c28.2-12.4,53-25.8,65.5-35.8
				C237.8,465.7,239.7,463.1,259.6,446.5z"/>
			<path class="st7" d="M362.8,423.2c22.8,0,37.8,14.4,72.6,30.4c61.7,28.2,83,14.3,120.6,45.4c5.5,4.6,38.3,31.7,32.2,44.3
				c-1.9,4-7.4,5.7-15.7,5.7c-39.8,0-144.2-38.6-230.1-38.6c-16.5,0-32.3,1.4-46.8,4.8c-21,4.9-42.1,9.6-63.1,14.6
				c-13.2,3.2-26.4,6.7-39.4,10.4c-6.5,1.9-13.3,3.3-19.6,5.7c-5.7,2.2-11.3,4.3-17.5,4.7c-0.5,0-0.9,0-1.4,0
				c-5,0-10.2-1.6-13.5-5.3c-5.9-6.6-4.1-17.5,1.7-24.3c5.7-6.8,14.2-10.4,22.3-14c28.2-12.4,53-25.8,65.5-35.8
				c7.2-5.7,9-8.3,29-24.9c14-11.6,19-15.6,26.3-16.3c0.9-0.1,1.8-0.1,2.7-0.1c11.2,0,20.9,6.7,27,11.9c8.6-7.1,21.8-15.7,38.8-18.2
				C357.4,423.4,360.2,423.2,362.8,423.2 M362.8,422.2c-2.7,0-5.6,0.2-8.5,0.6c-13.5,1.9-26.5,7.9-38.7,17.9
				c-9.1-7.7-18.2-11.6-27-11.6c-0.9,0-1.9,0-2.8,0.1c-7.6,0.7-12.9,4.8-26.9,16.5c-11.2,9.3-16.6,14.2-20.6,17.8
				c-3.1,2.8-5.2,4.6-8.3,7.1c-12.3,9.8-36.7,23.1-65.3,35.6l-0.4,0.2c-8.1,3.5-16.5,7.2-22.2,14c-3,3.5-5,8.2-5.4,12.8
				c-0.5,5,0.8,9.6,3.8,12.8c3.2,3.6,8.4,5.6,14.3,5.6c0.5,0,1,0,1.5,0c6.4-0.4,11.9-2.5,17.7-4.7l0.2-0.1c4.3-1.7,9-2.9,13.5-4.1
				c2-0.5,4-1.1,6-1.6c14.6-4.2,27.5-7.6,39.4-10.4c12.6-3,25.4-6,37.8-8.8c8.3-1.9,16.8-3.9,25.2-5.8c13.6-3.2,29.2-4.8,46.5-4.8
				c51,0,108.8,13.7,155.2,24.7c31.5,7.5,58.6,13.9,74.9,13.9c9.1,0,14.6-2.1,16.6-6.3c5.5-11.6-18-33.5-32.5-45.5
				c-21-17.4-37.1-20.8-57.5-25.2c-16.8-3.6-35.9-7.7-63.3-20.3c-11.5-5.3-20.9-10.4-29.1-14.9C390.2,428.7,378.3,422.2,362.8,422.2
				L362.8,422.2z"/>
		</g>
		<g>
			<path class="st7" d="M130.6,434.7c-3.2-10.5-11.9-44.3,5-78.6c13.9-28.2,47-60.5,82.7-55c14.1,2.2,24.6,9.6,30.9,15.1
				c-1.8,11.5-10.1,57.6-51.6,90.3C171.5,427.1,144.2,432.9,130.6,434.7z"/>
			<path class="st7" d="M210.3,300.5c2.7,0,5.3,0.2,8,0.6c14.1,2.2,24.6,9.6,30.9,15.1c-1.8,11.5-10.1,57.6-51.6,90.3
				c-26.2,20.6-53.4,26.3-67,28.2c-3.2-10.5-11.9-44.3,5-78.6C148.4,330.1,177.7,300.5,210.3,300.5 M210.3,299.5v1V299.5
				L210.3,299.5c-15.1,0-30.8,6.3-45.4,18.3c-12.3,10.1-23.3,23.9-30.2,37.9c-15.6,31.8-9.9,63.3-5,79.3l0.2,0.8l0.8-0.1
				c17.4-2.4,43.2-9.3,67.5-28.4c39.1-30.8,49.4-73.9,52-91l0.1-0.5l-0.4-0.4c-9.7-8.5-20.2-13.6-31.4-15.3
				C215.8,299.7,213,299.5,210.3,299.5L210.3,299.5z"/>
		</g>
		<g>
			<path class="st7" d="M512.9,314.7c35.2,20.2,36.7,62.6,36.9,70.1c1,28-11.5,48.7-16.9,56.6c-15.5-8.3-39.7-23.8-62.2-50.5
				c-22.9-27.3-34-54.4-39.5-71.2C456.5,302.7,488.3,300.6,512.9,314.7z"/>
			<path class="st7" d="M477.1,305.4c12.6,0,24.9,3.1,35.8,9.3c35.2,20.2,36.7,62.6,36.9,70.1c1,28-11.5,48.7-16.9,56.6
				c-15.5-8.3-39.7-23.8-62.2-50.5c-22.9-27.3-34-54.4-39.5-71.2C445.3,310.2,461.4,305.4,477.1,305.4 M477.1,304.4L477.1,304.4
				c-16.3,0-32.3,5-46.3,14.4l-0.6,0.4l0.2,0.7c8.5,26.3,21.9,50.4,39.7,71.6c17.5,20.8,38.5,37.9,62.5,50.8l0.8,0.4l0.5-0.7
				c6.7-9.9,17.9-30.6,17-57.2c-0.4-10.9-2.2-21.1-5.4-30.6c-6.2-18.1-17-31.7-32-40.3C502.6,307.7,490,304.4,477.1,304.4
				L477.1,304.4z"/>
		</g>
		<path class="st7" d="M292.9,407.7c-3.1-2.4-29.3-15.6-34.3-12.5c-1.1,0.7-4.4,3-5.4,10C266.4,406,279.6,406.8,292.9,407.7z"/>
		<path class="st7" d="M342.3,402.3c10.3-15,23.2-21.8,30.7-18.2c1.5,0.7,4,2.4,5.8,7C366.7,394.9,354.5,398.6,342.3,402.3z"/>
	</g>
</g>
<g id="face">
	<g>
		<g>
			<path class="st4" d="M259.6,446.5c14-11.6,19-15.6,26.3-16.3c12.4-1.2,23.1,6.1,29.7,11.8c8.6-7.1,21.8-15.7,38.8-18.2
				c27.9-4,42.1,12,81,29.7c61.7,28.2,83,14.3,120.6,45.4c5.5,4.6,38.3,31.7,32.2,44.3c-13,27.2-186.7-52.9-292.5-28.1
				c-77.9,18.2-116.8,27.3-123.9,31.3c-1,0.6-7.4,3.7-15.8,4.2c-5.5,0.3-11.3-1.2-15-5.3c-5.9-6.6-4.1-17.5,1.7-24.3
				s14.2-10.4,22.3-14c28.2-12.4,53-25.8,65.5-35.8C237.8,465.7,239.7,463.1,259.6,446.5z"/>
		</g>
		<g>
			<path class="st4" d="M130.6,434.7c-3.2-10.5-11.9-44.3,5-78.6c13.9-28.2,47-60.5,82.7-55c14.1,2.2,24.6,9.6,30.9,15.1
				c-1.8,11.5-10.1,57.6-51.6,90.3C171.5,427.1,144.2,432.9,130.6,434.7z"/>
		</g>
		<g>
			<path class="st4" d="M512.9,314.7c35.2,20.2,36.7,62.6,36.9,70.1c1,28-11.5,48.7-16.9,56.6c-15.5-8.3-39.7-23.8-62.2-50.5
				c-22.9-27.3-34-54.4-39.5-71.2C456.5,302.7,488.3,300.6,512.9,314.7z"/>
		</g>
		<path d="M292.9,407.7c-3.1-2.4-29.3-15.6-34.3-12.5c-1.1,0.7-4.4,3-5.4,10C266.4,406,279.6,406.8,292.9,407.7z"/>
		<path d="M342.3,402.3c10.3-15,23.2-21.8,30.7-18.2c1.5,0.7,4,2.4,5.8,7C366.7,394.9,354.5,398.6,342.3,402.3z"/>
		<path d="M512.9,314.7c-10-5.7-21.2-8.8-32.6-9.3c-4.1,8.2-6.4,17.4-6.4,27.1c0,33.8,27.4,61.1,61.1,61.1c5.1,0,10-0.6,14.7-1.8
			c0.1-2.3,0.1-4.7,0-7.1C549.6,377.3,548.1,335,512.9,314.7z"/>
		<path d="M135.6,356.1c-2.5,5.1-5.3,11-6.2,16.6c18.9,14.5,45.8,12.3,61.6-4.8c16.4-17.7,16-46.1-1.5-63.6
			C165.7,313.2,145.7,335.8,135.6,356.1z"/>
		<circle class="st8" cx="181.1" cy="323.8" r="9.3"/>
		<circle class="st8" cx="507.2" cy="323.8" r="9.3"/>
		<g>
			<path d="M557.3,529.8c-50.4-27.7-94.8-44.3-127.2-54.5c-53.5-16.8-80.9-25.1-115.7-19.5c-26,4.2-49.9,16.5-97.7,41
				c-29.3,15-52.6,28.6-68.2,38.1c36.3-17.8,91.4-39.3,161.3-46.4C424.3,477,514.2,510.3,557.3,529.8z"/>
		</g>
	</g>
</g>
<g id="face-color">
	<g>
		<path class="st9" d="M259.6,446.5c14-11.6,19-15.6,26.3-16.3c12.4-1.2,23.1,6.1,29.7,11.8c8.6-7.1,21.8-15.7,38.8-18.2
			c27.9-4,42.1,12,81,29.7c61.7,28.2,83,14.3,120.6,45.4c5.5,4.6,38.3,31.7,32.2,44.3c-13,27.2-186.7-52.9-292.5-28.1
			c-77.9,18.2-116.8,27.3-123.9,31.3c-1,0.6-7.4,3.7-15.8,4.2c-5.5,0.3-11.3-1.2-15-5.3c-5.9-6.6-4.1-17.5,1.7-24.3
			s14.2-10.4,22.3-14c28.2-12.4,53-25.8,65.5-35.8C237.8,465.7,239.7,463.1,259.6,446.5z"/>
	</g>
	<g>
		<path d="M557.3,529.8c-50.4-27.7-94.8-44.3-127.2-54.5c-53.5-16.8-80.9-25.1-115.7-19.5c-26,4.2-49.9,16.5-97.7,41
			c-29.3,15-52.6,28.6-68.2,38.1c36.3-17.8,91.4-39.3,161.3-46.4C424.3,477,514.2,510.3,557.3,529.8z"/>
	</g>
	<g>
		<path class="st10" d="M130.6,434.7c-3.2-10.5-11.9-44.3,5-78.6c13.9-28.2,47-60.5,82.7-55c14.1,2.2,24.6,9.6,30.9,15.1
			c-1.8,11.5-10.1,57.6-51.6,90.3C171.5,427.1,144.2,432.9,130.6,434.7z"/>
	</g>
	<g>
		<path class="st10" d="M512.9,314.7c35.2,20.2,36.7,62.6,36.9,70.1c1,28-11.5,48.7-16.9,56.6c-15.5-8.3-39.7-23.8-62.2-50.5
			c-22.9-27.3-34-54.4-39.5-71.2C456.5,302.7,488.3,300.6,512.9,314.7z"/>
	</g>
	<path d="M512.9,314.7c-10-5.7-21.2-8.8-32.6-9.3c-4.1,8.2-6.4,17.4-6.4,27.1c0,33.8,27.4,61.1,61.1,61.1c5.1,0,10-0.6,14.7-1.8
		c0.1-2.3,0.1-4.7,0-7.1C549.6,377.3,548.1,335,512.9,314.7z"/>
	<path d="M135.6,356.1c-2.5,5.1-5.3,11-6.2,16.6c18.9,14.5,45.8,12.3,61.6-4.8c16.4-17.7,16-46.1-1.5-63.6
		C165.7,313.2,145.7,335.8,135.6,356.1z"/>
	<circle class="st4" cx="181.1" cy="323.8" r="9.3"/>
	<circle class="st4" cx="507.2" cy="323.8" r="9.3"/>
</g>
<g id="shadow">
	<path class="st3" d="M563.1,651.5c-11.8-24.3-10.6-47.1-9.4-57.4c-28.5,19.2-99.3,61.3-199.1,64.4c-89,2.7-155.8-26.9-186.3-42.9
		c11.7,8.3,25.9,16.9,43.4,25.5c1.8,0.9,3.5,1.7,5.3,2.5c40.9,19.2,80.7,29.4,120.6,35c1.1,0.1,2.1,0.3,3.2,0.4
		c0.8,0.1,1.7,0.2,2.5,0.3c2.2,0.3,4.4,0.6,6.6,0.8c0.1,0,0.3,0,0.4,0.1c35.9,4.1,72.3,4.9,109.9,5.5c53.3,0.8,96.7-2.3,124.4-4.9
		C578.1,674.8,569.6,665.2,563.1,651.5z"/>
	<path class="st3" d="M614.9,263.5c88.2,92.6,80.3,280.4,81.3,280.3c0,0,0.1-0.1,0-0.2c-0.3-2-0.6-4-0.8-6.1c0,0,0,0,0-0.1
		c-0.2-1.8-0.4-3.6-0.7-5.5c0-0.2,0-0.4-0.1-0.6c-0.2-1.8-0.4-3.7-0.6-5.5c0-0.2,0-0.4-0.1-0.6c-0.2-1.9-0.4-3.9-0.5-5.9
		c0,0,0-0.1,0-0.1c-0.2-2-0.3-4-0.4-6.1c0-0.1,0-0.3,0-0.4c-0.1-2-0.2-4-0.3-6c0-0.3,0-0.6,0-0.9c-0.1-2-0.2-4-0.2-6.1
		c0-0.3,0-0.6,0-0.9c-0.1-2.1-0.1-4.3-0.1-6.4c0-0.1,0-0.2,0-0.2c0-2.1,0-4.3,0-6.5c0-0.3,0-0.5,0-0.8c0-2.1,0-4.3,0.1-6.5
		c0-0.4,0-0.8,0-1.2c0-2.2,0.1-4.4,0.2-6.6c0-0.4,0-0.7,0-1.1c0.1-2.3,0.2-4.7,0.3-7c0-0.1,0-0.1,0-0.2c0.1-2.3,0.3-4.7,0.5-7.1
		c0-0.3,0-0.7,0.1-1c0.2-2.3,0.4-4.7,0.6-7c0-0.4,0.1-0.9,0.1-1.3c0.2-2.4,0.5-4.7,0.8-7.1c0-0.4,0.1-0.8,0.1-1.1
		c0.3-2.5,0.6-5.1,1-7.6c5.6-40,16.3-73.1,26.4-97.9c-5.5-5.1-12.9-12-21.9-19.8c-1.3-1.1-2.5-2.2-3.8-3.2c-0.3-0.3-0.6-0.5-0.9-0.8
		c-1.1-1-2.3-1.9-3.4-2.9c-0.1-0.1-0.2-0.2-0.3-0.2c-1.2-1-2.4-2-3.6-3c-0.3-0.3-0.6-0.5-0.9-0.8c-1-0.8-2-1.7-3-2.5
		c-0.2-0.1-0.3-0.3-0.5-0.4c-1.1-0.9-2.2-1.8-3.3-2.7c-0.3-0.2-0.6-0.4-0.8-0.7c-0.9-0.8-1.9-1.5-2.8-2.2c-0.2-0.2-0.4-0.3-0.6-0.5
		c-1.1-0.9-2.1-1.7-3.1-2.5c-0.2-0.2-0.5-0.4-0.7-0.6c-0.9-0.7-1.7-1.4-2.6-2c-0.2-0.2-0.4-0.3-0.6-0.5c-1-0.8-1.9-1.5-2.9-2.3
		c-0.2-0.2-0.4-0.3-0.7-0.5c-0.8-0.6-1.5-1.2-2.3-1.8c-0.2-0.2-0.4-0.3-0.6-0.5c-0.9-0.7-1.8-1.4-2.7-2.1c0,0-0.1-0.1-0.1-0.1
		c-0.8-0.6-1.5-1.1-2.2-1.7c-3-2.2-5.7-4.3-10.1-7.5c-12.5-9.2-22.7-16.7-32.1-23.1c0,0,0,0,0,0c-4.8-3.2-9.2-6.1-13.9-9.1
		c-3.3-2-6.6-4-10-5.9c-0.1-0.1-0.2-0.1-0.4-0.2c-0.5-0.3-1-0.6-1.5-0.8c-0.2-0.1-0.4-0.2-0.7-0.4c0,0-0.1,0-0.1-0.1
		c-1.2-0.6-2.3-1.2-3.5-1.9c-0.1-0.1-0.3-0.1-0.4-0.2c-1.2-0.6-2.3-1.2-3.5-1.8c-0.2-0.1-0.4-0.2-0.6-0.3c-1.2-0.6-2.4-1.2-3.6-1.7
		c-0.2-0.1-0.4-0.2-0.6-0.3c-1.3-0.6-2.5-1.2-3.9-1.8c0,0-0.1,0-0.1,0c-0.7-0.3-5.7-2.6-13-5.5c0,0-13.5-5.3-29-9.9
		c-25.4-7.2-49.5-9.9-70.4-10.4C544.3,206,589.2,236.4,614.9,263.5z"/>
	<path class="st3" d="M773.9,422.3c3.4-31,10.5-57.6,18.2-79c-20.3,40.4-42.9,95.7-57.4,163.8c-12.3,57.9-15.4,109.2-14.9,150
		c13.8-11.2,28.7-24.6,43.8-40.4c11.3-11.9,21.2-23.5,29.8-34.5C781.2,548.3,766.3,491.6,773.9,422.3z"/>
	<path class="st3" d="M820.1,520.1c-16.7-66.5-24.5-126.6-28-176.8c-17,119.3,3.7,181.6,28,216.7c9.8,14.1,17.6,28.5,25.5,45.8
		C836.4,579.4,827.7,550.8,820.1,520.1z"/>
	<path class="st3" d="M189.7,669.7c6.4-5.8,12.8-11.6,19.2-17.4c-12.7-5-27.9-12.5-43.7-23.8c-30.1-21.6-47.9-47-57.7-63.9
		c7,11.6,17.2,29.9,27.4,53.3c21,48.4,39.1,90.2,27.2,134.5c-9.7,36.1-37.7,67.5-55.4,65.5c-9.9-1.1-16.5-7.9-16.5-7.9
		c-2.2-2.3-8.1-8.4-6.6-16.3c1.4-7.2,7.9-10.9,9-11.5c-2.4,1-6.7,3.3-9.3,8.1c-4.3,7.8-1.1,18.4,3.4,24.7c3.9,5.4,8.8,8,12.1,9.5
		c2.8,1.3,5.8,2.2,8.8,2.8c0.5,0.1,1,0.2,1.5,0.3c0.1,0,0.2,0,0.2,0c0.5,0.1,1,0.1,1.5,0.2c0.1,0,0.2,0,0.2,0c0.5,0.1,1,0.1,1.5,0.2
		c0.1,0,0.1,0,0.2,0c3,0.2,6,0.2,9,0c0,0,0,0,0,0c0.6,0,1.2-0.1,1.8-0.2c0.1,0,0.2,0,0.3,0c0.5-0.1,1-0.1,1.5-0.2
		c0.2,0,0.5-0.1,0.7-0.1c1-0.1,2-0.3,3-0.5c11.1-1.9,22.5-6.6,28.4-16.2c0.1-0.2,0.2-0.3,0.3-0.5c1.4-2.3,2.1-4.3,3.2-7
		c5.3-14.4,4.1-27.1,4-30.4c0-0.4,0-0.8,0-1.2c0-0.1,0-0.3,0-0.4c0-0.3,0-0.6,0.1-0.8c0-0.1,0-0.3,0-0.4c0-0.3,0.1-0.5,0.1-0.8
		c0-0.1,0-0.3,0.1-0.4c0-0.3,0.1-0.5,0.2-0.8c0-0.1,0-0.2,0.1-0.4c0.2-0.8,0.4-1.6,0.7-2.3c0-0.1,0.1-0.2,0.1-0.4
		c0.1-0.3,0.2-0.5,0.3-0.8c0.1-0.1,0.1-0.3,0.2-0.4c0.1-0.3,0.2-0.5,0.3-0.8c0.1-0.1,0.1-0.3,0.2-0.4c0.1-0.3,0.3-0.5,0.4-0.8
		c0.1-0.1,0.1-0.2,0.2-0.3c0.4-0.8,0.8-1.5,1.3-2.2c0.1-0.1,0.1-0.2,0.2-0.3c0.2-0.3,0.4-0.5,0.5-0.8c0.1-0.1,0.2-0.2,0.2-0.3
		c0.2-0.3,0.4-0.5,0.6-0.8c0.1-0.1,0.2-0.2,0.2-0.3c0.2-0.3,0.4-0.6,0.7-0.9c0.1-0.1,0.1-0.1,0.2-0.2c0.6-0.7,1.2-1.5,1.8-2.2
		c0.1-0.1,0.1-0.1,0.2-0.2c0.3-0.3,0.5-0.6,0.8-0.9c0.1-0.1,0.1-0.2,0.2-0.2c0.3-0.3,0.5-0.6,0.8-0.9c0.1-0.1,0.1-0.1,0.2-0.2
		c0.3-0.3,0.7-0.7,1-1c0,0,0,0,0,0c1.1-1.1,2.2-2.2,3.4-3.3c0,0,0,0,0,0c11.8-10.8,27.6-20.7,35.7-31.5c0,0,0,0,0,0
		c0.2-0.3,0.4-0.6,0.6-0.9c0,0,0-0.1,0.1-0.1c0.2-0.3,0.4-0.6,0.6-0.9c1.7-3.7,3.1-7.8,4-12.3C220.8,693.6,215.6,682.6,189.7,669.7z
		"/>
	<path class="st3" d="M57.4,757.5c2.2-1.3,4.5-2.3,6.9-3.1c0,0,0.1,0,0.1,0c-10.9,1.9-16,6.2-18.6,10c-2.8,4.1-3.7,9.1-6.9,9.4
		c-2.5,0.2-4.8-2.7-5.7-3.8c-1.3-1.7-2-3.5-2.3-5.1c-0.1,4.3,0.8,8.9,3,13c2,3.7,4.7,6.2,6.6,7.7C40.7,783.9,42.4,766.5,57.4,757.5z
		"/>
	<path class="st3" d="M87.8,778.9c2.2-1.2,4.5-2.1,6.8-2.6c-1,0.1-2.5,0.3-4.2,0.8c-2.8,0.8-4.7,2-5.5,2.6c-6,3.9-9.2,10.6-15.3,14
		c-4.7,2.6-12.6,4.1-18,0c-4.9-3.7-5.7-12.6-5.9-13c-0.6,2.4-1,4.9-1.1,7.3c-0.1,2.6-0.1,4.2,0.5,6.1c3.8,13.4,18.8,12.7,29.6,9.7
		C74,793.6,79.1,783.8,87.8,778.9z"/>
	<path class="st3" d="M751.3,710.2c-3.5-13.8-16.4-21.5-22.8-25.7c-35.2-23.3-27.9-59.2-59-91.7c-12.2-12.7-33.6-28.4-73.3-35.3
		c-0.2,0.5,56.4,15.7,72.9,45.8c4.8,8.8,8.7,21,22.8,47.4c6.4,12.1,12.8,22.9,15.3,26.9c4.9,7.7,16.6,23.1,44.6,39.7
		C752.1,715.1,752,712.9,751.3,710.2z"/>
	<path class="st3" d="M648.2,805.4L648.2,805.4c-2.5,0.6-7.6,2.3-11.8,6.9c-8.4,9.2-5.8,21.7-5.5,23c-2.9,0-12.6-0.4-21.2-7.6
		c-11.5-9.5-12.1-23.2-12.1-25.4c0,0,0,0,0,0c-0.9,3-1.4,6.3-1.2,9.9c1,17.7,17.6,28.7,30.1,31.7c5.9,1.4,11.1,1.1,14.7,0.6
		c-1.9-2.7-6.4-9.7-5.5-18.8C636.4,817.9,641.1,810.5,648.2,805.4z"/>
	<path class="st3" d="M772.2,802.8c0.8,19.8-8.7,35.9-21.8,39.8c-2.6,0.8-8.7,2-17-1.1c0.9-3.7,2.7-12.9-1.3-23.3
		c-6.2-16.1-21.2-21.9-23.7-22.7c2.8,1.7,14.7,9.7,18.7,25.4c2.9,11.5,0,21-1.3,24.7c2.5,1.2,19.6,9.1,33,0.8c13-8,13.7-26,14-31.8
		C773,810.4,772.8,806.5,772.2,802.8z"/>
	<path class="st3" d="M714.2,846.5c7-12.4,6.5-30.2-2.9-45.6c6.3,11.6,6,25.5-1.1,36c-10.8,16.1-30.9,14.6-34.4,14.2
		c-4.5-0.4-19.1-1.9-25.5-13.8c-5.4-10-3.1-23.6,6-33.8c0,0,0,0,0,0c-0.1,0.1-0.1,0.1-0.2,0.2c0,0,0,0,0,0
		c-1.9,1.8-7.7,7.9-10.5,17.1c-0.2,0.8-0.4,1.5-0.6,2.3c-0.5,2.6-1.9,10.7,0.9,19.2c0,0,0,0.1,0,0.1c0.1,0.2,0.1,0.3,0.2,0.5
		c0.1,0.3,0.2,0.6,0.3,0.9c0,0,0,0.1,0.1,0.1c0.2,0.4,0.3,0.8,0.5,1.2c0,0,0,0.1,0.1,0.1c0.2,0.3,0.3,0.7,0.5,1
		c0.1,0.1,0.1,0.3,0.2,0.4c0.1,0.2,0.2,0.4,0.3,0.5c0.9,1.7,2,3.4,3.4,5c0.2,0.2,0.4,0.4,0.6,0.7c0.1,0.1,0.2,0.2,0.3,0.3
		c5.1,5.2,12.8,8.6,21,9.8c0.2,0,0.3,0,0.5,0.1c0.3,0,0.6,0.1,0.9,0.1c2.4,0.3,10.2,0.9,18.6-1.4c3.5-1,6.9-2.4,9.9-4.3
		C706,855.8,710.6,852.3,714.2,846.5z"/>
	<path class="st3" d="M968.4,776.4c5.2-5.4,5.9-12.2,5.9-16c-3.2,2.2-8.5,5.4-15.8,6.8c-7.1,1.4-13.4,0.6-18.3-0.7
		c5.2,6.5,4.1,14.1,3.9,15.2C952.9,784.7,962.4,782.7,968.4,776.4z"/>
	<path class="st3" d="M929,761.7c3.4,19.8-6.6,37.5-21.3,42.2c-12.8,4.1-31.9-0.8-35.9-14.2c-3.6-12.2,7.7-23.9,8.3-24.6
		c-1.5,0.5-3.5,1.5-5.7,3.1c-0.5,0.4-4.9,3.8-6.9,9.1c-3.6,9.3,1.9,20.6,7.9,26.5c13.1,12.9,40.1,10.9,53.5-3.5
		c7.2-7.7,13.5-22.5,7.5-32.2C934.5,764.9,931.5,762.9,929,761.7z"/>
	<path class="st3" d="M851.9,787.9c3.9,1.8,8,1.3,10.7,0.6c-0.1-0.6-2.2-11.7,6-19.5c3.8-3.6,8.2-4.9,11.6-5.3c0,0,0,0,0,0
		c-8.1,0.1-12.4,2.6-14.9,5.1c-5.6,5.6-5.5,14.4-10.4,15.2c-1.5,0.3-2.8-0.4-4-1c-7.6-3.8-8.4-15.5-8.5-17.1
		C842,774.9,844.8,784.6,851.9,787.9z"/>
	<path class="st4" d="M659.8,811c-5.8,10.9-3.9,20.9-5.2,21c-1.3,0-4.7-9.2-1.8-18.1c4.2-12.5,18.8-17.7,19.4-16.9
		C672.6,797.5,664.9,801.2,659.8,811z"/>
	<path class="st4" d="M609.8,794.2c-6.6,9.7-3.9,20.9-5.2,21c-1.2,0.1-5.4-9.6-1.8-18.1c4.6-10.7,19-13.5,19.4-12.9
		C622.5,784.7,615,786.7,609.8,794.2z"/>
	<path class="st4" d="M35.4,759.1c0.7,0.3,1.9-3.7,6.5-8.1c5.7-5.4,11.3-6.2,11-7.1c-0.3-1-7.7-1.6-12.8,2.7
		C35.1,751,34.5,758.7,35.4,759.1z"/>
	<path class="st4" d="M49.1,779.8c-1.3-0.9,1.8-11.9,10.4-17.4c7.4-4.7,16.8-4.2,17.2-2.7c0.3,1.2-5.2,2.4-13.4,8.2
		C53.6,774.6,50.2,780.6,49.1,779.8z"/>
	<path class="st4" d="M87,793.6c-0.9-1,2-5.9,6.3-8.6c7.5-4.7,17.9-2,18-0.4c0.1,1.1-4.6,1-14.4,5.1C90.4,792.4,87.7,794.4,87,793.6
		z"/>
	<path class="st4" d="M862.7,741.4c-0.6-0.7-11.1,4-15.8,14.2c-3.8,8.4-2.3,17.5-1.4,17.5c0.7,0.1,0.6-6.1,4.1-14
		C854.8,747.4,863.3,742.1,862.7,741.4z"/>
	<path class="st4" d="M874.8,779.3c-1.9,7,1.5,14.1,2.4,14c0.9-0.1-1.2-6.9,1.8-14.5c3.7-9.4,12.4-13,12.1-13.5
		C890.7,764.7,877.6,768.8,874.8,779.3z"/>
</g>
</svg>
