<?xml version="1.0" encoding="utf-8"?>
<!-- Generator: Adobe Illustrator 24.1.2, SVG Export Plug-In . SVG Version: 6.00 Build 0)  -->
<svg version="1.1" xmlns="http://www.w3.org/2000/svg" xmlns:xlink="http://www.w3.org/1999/xlink" x="0px" y="0px"
	 viewBox="0 0 500 500" style="enable-background:new 0 0 500 500;" xml:space="preserve">
<style type="text/css">
	.st0{fill:url(#SVGID_1_);stroke:#000000;stroke-miterlimit:10;}
	.st1{fill:#B19582;}
	.st2{fill:#C3A48F;}
	.st3{fill:#CDAB96;}
	.st4{fill:#DEBAA2;}
	.st5{fill:#EDC6AC;}
	.st6{fill:#E3BEA6;}
	.st7{fill:#EBF6FC;}
	.st8{fill:#E5F4FC;}
	.st9{fill:#323333;}
	.st10{fill:#B67878;}
	.st11{fill:#E09391;}
	.st12{fill:#D19F8F;}
	.st13{fill:#BF9183;}
	.st14{fill:#ECB29F;}
	.st15{fill:#E3AC9A;}
	.st16{fill:#EAECEE;}
	.st17{display:none;}
	.st18{display:inline;fill:#FFFFFF;stroke:#231815;stroke-miterlimit:10;}
	.st19{display:inline;fill:#B19582;}
	.st20{display:inline;fill:#C3A48F;}
	.st21{display:inline;fill:#CDAB96;}
	.st22{display:inline;fill:#DEBAA2;}
	.st23{display:inline;fill:#EDC6AC;}
	.st24{display:inline;fill:#E3BEA6;}
	.st25{display:inline;fill:#EBF6FC;}
	.st26{display:inline;fill:#E5F4FC;}
	.st27{display:inline;fill:#323333;}
	.st28{display:inline;fill:#B67878;}
	.st29{display:inline;fill:#E09391;}
	.st30{display:inline;fill:#D19F8F;}
	.st31{display:inline;fill:#BF9183;}
	.st32{display:inline;fill:#ECB29F;}
	.st33{display:inline;fill:#E3AC9A;}
	.st34{display:inline;fill:#EAECEE;}
</style>
<g id="レイヤー_1">
	<g id="レイヤー_4">
		
			<linearGradient id="SVGID_1_" gradientUnits="userSpaceOnUse" x1="250" y1="471.3032" x2="250" y2="-65.0291" gradientTransform="matrix(1 0 0 -1 0 446.8032)">
			<stop  offset="0" style="stop-color:#FFF21F"/>
			<stop  offset="0" style="stop-color:#FFE400"/>
			<stop  offset="0" style="stop-color:#FED700"/>
			<stop  offset="0" style="stop-color:#FDCF00"/>
			<stop  offset="0" style="stop-color:#FCCD00"/>
			<stop  offset="0.416" style="stop-color:#F1942E"/>
			<stop  offset="0.8876" style="stop-color:#EA652D"/>
			<stop  offset="1" style="stop-color:#E5352B"/>
		</linearGradient>
		<rect x="-24.5" y="-24.5" class="st0" width="549" height="549"/>
	</g>
	<g>
		<path class="st1" d="M223.82,148.48c-20.81-6.58-41.62-13.17-62.44-19.75c-7.95,9.28-21.97,28.36-26.96,56.06
			c-2.44,13.54-2.04,25.4-0.96,34.37c-2.49,9.83-2.01,17.45-1.11,22.61c2.49,14.18,10.16,20.8,10.76,36.17
			c0.2,5.19-0.48,9.46-1.06,12.21c-3.17,5.49-8.43,14.07-15.92,23.89c-13.65,17.88-22.68,24.14-20.54,29.24
			c3.05,7.28,25.39,4.04,27.97,3.67c6.27-0.91,18.89-2.73,30.26-12.21c8.37-6.98,13.01-19.69,22.29-45.12
			c4.75-13.01,5.95-18.66,5.31-25.48c-0.99-10.53-5.87-18.44-9.18-22.86c7.53-4.76,20.21-14.25,29.92-30.57
			C228.14,183.86,225.12,156.95,223.82,148.48z"/>
		<path class="st2" d="M23.75,355.06c7.19,1.34,13.37,1.05,18.62-0.04c32.39-6.72,56.43-49.54,63.56-106.04
			c5.26-0.33,11.83-1.54,18.57-4.92c23.46-11.78,28.21-39.54,28.83-43.51c-0.64,1.77-3.7,9.67-12.36,14.07
			c-7.53,3.82-14.59,2.6-16.68,2.16c0,0-8.9,1.07-15.54,4.86c-26.15,14.91-18.84,52.51-46.21,94.02
			C49.6,335.27,34.11,347.83,23.75,355.06z"/>
		<path class="st3" d="M482.06,213.31c-1.23-8.43-29.34,0.04-53.33-19.51c-17.49-14.26-13.63-27.8-34.47-40.32
			c-6.26-3.76-6.09-2.23-29.27-13.01c-15.03-6.99-22.56-10.46-27.32-13.66c-16.66-11.2-17.8-19.01-31.35-25.51
			c-9.71-4.65-19.1-5.41-25.5-5.33c-20.02-0.62-43.67,0.05-69.97,3.53c-25.41,3.36-47.74,8.61-66.45,14.17
			c-0.08,16.74-0.16,33.48-0.24,50.21c10.53,4.3,39.33,14.42,75.15,6.51c31.16-6.89,51.29-23.82,59.7-31.8
			c8.73,8.77,22.04,20.18,40.45,29.85c21.85,11.47,41.94,15.78,55.28,17.56c1.9,6.17,7.28,20.66,21.46,32.52
			c5.55,4.64,21.21,16.2,42.92,15.61C460.85,233.53,483.18,220.95,482.06,213.31z"/>
		<path class="st3" d="M162.33,170.54c-12.36-12.43-24.72-24.86-37.08-37.3c-6.96,6.87-14.21,14.94-21.28,24.35
			c-14.6,19.41-24.09,38.71-30.37,55.3c0,0,0-0.01-0.01-0.01c-1.16,3.01-2.86,7.63-4.6,13.37c-1.38,4.51-6,20.27-8.86,45.54
			c-1.97,17.39-1.17,22.22-5.29,31.72c-2.91,6.7-6.5,11.67-9.07,14.8c-4.63,3.77-31.69,26.08-27.4,33.83
			c3.32,6,25.59,3.6,40.15-7.83c7.51-5.9,12.28-15.34,21.82-34.24c4.9-9.7,8.09-16.02,10.74-25.51c2.14-7.65,2.46-12.1,5.37-21.15
			c2.55-7.94,5.4-14.16,7.39-18.13c6.85-2.06,27.86-9.32,43.23-30.72C160.08,196.45,161.97,178.06,162.33,170.54z"/>
		<path class="st4" d="M412.09,351.46c-7.52-6.45-12.27-6.38-23.98-11.99c0,0-2.92-1.26-6.96-3.55c-3.73-2.12-9.17-5.18-13.69-9.77
			c-3.93-3.99-6.01-7.94-7.38-10.68c-14.13-28.16-21.94-63.93-45.23-81.67c-10.83-8.26-10.91-1.86-29.3-12.88
			c-21.49-12.87-34.97-29.85-43.07-39.96c-8.01-10.01-13.61-19.14-17.25-25.66c-4.54-7.1-23.66-35.25-58.03-41.19
			c-9.88-1.71-18.74-1.19-25.86,0c-3.13,1.69-14.32,8.21-16.11,19.13c-2.33,14.31,12.05,32.72,37.08,37.3
			c4.31,12.28,16.4,41.49,46.42,65.48c31.07,24.83,63.48,29.79,76.37,31.08c3.42,16.81,9.41,28.71,14.21,36.41
			c1.82,2.93,5.54,7.87,32.04,36.54c10.89,11.78,16.39,17.71,19.02,19.4c26.22,16.94,66.38,7.37,67.49-0.89
			C418.12,356.63,416.11,354.91,412.09,351.46z"/>
		<path class="st5" d="M271.4,386.84c-6.64-13.46-11.38-15.87-15.91-26.34c-2.55-5.9-5.27-14.88-4.94-27.44
			c-1.69-13.41-4.77-29.3-10.43-46.64c-3.91-12-8.37-22.61-12.81-31.78c-0.69-14.21-2.05-29.47-4.35-45.62
			c-4.09-28.67-10.31-54.17-17.09-76.1c-2.88-2.48-7.71-6.34-14.29-10.07c-7.57-4.3-28.73-16.31-47.18-9.19
			c-6.98,2.69-11.53,7.34-12.01,7.83c-4.2,4.37-6.2,9-7.15,11.75c1.19,23.82,7.25,68.32,39.15,107.09
			c6.76,8.21,13.83,15.14,20.75,20.97c1.65,5.38,4.29,13.78,7.78,24.02c6.09,17.88,7.62,20.4,11.52,32.92
			c2.31,7.41,4.34,15.27,8.4,30.97c6.51,25.2,5.79,24.56,7.52,28.29c1.37,2.96,10.41,21.74,30.98,31.36
			c2.68,1.25,20.98,9.56,26.25,3.45C281.66,407.63,276.18,396.53,271.4,386.84z"/>
		<path class="st4" d="M161.95,104.26c0,0,1.4,20.64-8.96,20.6c0,0,25.08,23.29,42.99,10.75c0,0-3.36-0.9-5.6-6.16
			c-1.54-3.61-1.32-22.3,1.12-32.36C181.66,99.48,171.81,101.87,161.95,104.26z"/>
		<path class="st6" d="M118.96,100.68c0.96,2.04,3.4,6.48,8.51,9.74c7.4,4.73,15.05,3.58,16.94,3.24
			c2.91,7.08,0.46,14.33-4.41,16.84c-4.27,2.21-9.06,0.09-9.84-0.27c0,0-7.61-16.12-21.05-16.12L118.96,100.68z"/>
		<path class="st7" d="M161.95,104.26c-0.87-10.59,7.1-18.86,15.23-18.81c6.07,0.04,12.03,4.72,14.33,11.64
			C191.51,97.09,186.14,116.8,161.95,104.26z"/>
		<path class="st8" d="M118.96,100.68c0,0,0.9,13.43-9.85,13.43C109.11,114.11,100.15,93.51,118.96,100.68z"/>
		<path class="st9" d="M107.14,107.18c0.82,0.49,1.78,0.77,2.8,0.77c3.04,0,5.51-2.47,5.51-5.51c0-1.13-0.34-2.19-0.93-3.06
			C107.41,98.11,106.52,102.77,107.14,107.18z"/>
		<path class="st9" d="M187.72,92.54c0-0.76-0.08-1.51-0.23-2.23c-2.83-3.02-6.55-4.83-10.32-4.86c-4.29-0.03-8.52,2.28-11.45,6.01
			c-0.03,0.36-0.05,0.72-0.05,1.08c0,6.09,4.94,11.02,11.02,11.02S187.72,98.63,187.72,92.54z"/>
		<path class="st7" d="M185.14,91.06c0-1.17-0.24-2.28-0.67-3.3c-2.24-1.46-4.75-2.3-7.29-2.32c-3.02-0.02-6.01,1.11-8.53,3.07
			c-0.25,0.8-0.39,1.65-0.39,2.54c0,4.66,3.78,8.44,8.44,8.44S185.14,95.73,185.14,91.06z"/>
		<path class="st8" d="M107.02,104.19c0.53,0.37,1.18,0.59,1.87,0.59c1.82,0,3.29-1.47,3.29-3.29c0-0.87-0.35-1.66-0.9-2.25
			C108.3,99.62,107.2,101.7,107.02,104.19z"/>
		<path class="st10" d="M125.25,133.24c2.79,2.71,6.21,5.64,10.31,8.5c2.79,1.94,5.48,3.57,7.99,4.92
			c7.85,0.61,18.95,0.62,31.83-2.18c13.22-2.87,23.53-7.66,30.49-11.56c-9.27,9.87-18.35,15.92-24.57,19.48
			c-9.87,5.65-20.13,11.52-33.46,10.4c-5.41-0.45-15.16-1.27-20.59-9.17C121.47,145.25,124.7,134.9,125.25,133.24z"/>
		<path class="st11" d="M125.25,133.24c1.19,1.08,3.04,2.44,5.57,3.07c2.14,0.54,3.17,0.15,4.8,0.62c1.69,0.49,3.88,1.88,5.88,5.9
			c2.59-1.03,6.54-2.37,11.48-3.09c5.08-0.75,7.81-0.3,12.66-0.26c6.99,0.05,11.87-0.77,21.36-2.37c5.54-0.93,11.91-2.26,18.89-4.18
			c-19.93,11.08-37.06,14.86-48.08,16.32c-20.43,2.7-26.18-1.76-28.55-4.49C126.08,141.12,125.35,136.53,125.25,133.24z"/>
		<path class="st12" d="M54.64,335.13c-2.81-9.55-14.5-12.24-14.51-12.24c-9.19,7.71-25.17,22.44-21.76,29.26
			C43.35,350.62,54.64,335.13,54.64,335.13z"/>
		<path class="st13" d="M105.6,343.27c1.17,2.8,5.19,4.04,9.85,4.49h0c20.4-2.35,30.21-18.15,30.21-18.15
			c12.09-17.33-19.52-15.58-19.52-15.58C112.49,331.91,103.46,338.17,105.6,343.27z"/>
		<path class="st14" d="M271.4,386.84c-4.47-9.07-8.09-13.13-11.36-18.01l0,0c0,0-21.66,2.13-21.72,16.91
			c0,0,17.52,22.13,39.28,26.58C281.66,407.63,276.18,396.53,271.4,386.84z"/>
		<path class="st15" d="M381.16,335.92c0,0-12.29,8.32-6.27,20.54c0,0,23.75,11.39,37.3,7.37
			C412.19,363.83,490.98,342.59,381.16,335.92z"/>
		<path class="st12" d="M428.73,224.01c0,0,16.05,2.2,33.96,5.22c11.67-4.5,20.06-11.17,19.37-15.93
			c-1.23-8.43-29.34,0.04-53.33-19.51C428.73,193.79,408.68,214.92,428.73,224.01z"/>
		<path class="st9" d="M183.84,91.34c0-1.93-0.77-3.67-2-4.95c-1.5-0.6-3.07-0.93-4.65-0.94c-2.11-0.01-4.2,0.54-6.13,1.54
			c-0.93,1.2-1.49,2.71-1.49,4.35c0,3.94,3.2,7.14,7.14,7.14C180.64,98.48,183.84,95.28,183.84,91.34z"/>
		<path class="st9" d="M107.07,103.64c0.46,0.35,1.04,0.56,1.66,0.56c1.54,0,2.79-1.25,2.79-2.79c0-0.81-0.35-1.54-0.91-2.05
			C108.34,99.91,107.35,101.59,107.07,103.64z"/>
		<circle class="st16" cx="180.33" cy="90.02" r="3.63"/>
		<circle class="st16" cx="112.18" cy="101.44" r="2.28"/>
	</g>
</g>
<g id="レイヤー_2" class="st17">
	<path class="st18" d="M776.74,103.29c-21.59-6.83-43.18-13.66-64.78-20.49c-8.25,9.63-22.8,29.42-27.97,58.16
		c-2.53,14.05-2.12,26.35-0.99,35.66c-2.58,10.2-2.09,18.1-1.15,23.46c2.59,14.71,10.54,21.58,11.17,37.52
		c0.21,5.38-0.49,9.82-1.1,12.67c-3.29,5.7-8.75,14.6-16.52,24.78c-14.16,18.55-23.53,25.04-21.31,30.34
		c3.16,7.55,26.35,4.19,29.02,3.81c6.5-0.94,19.6-2.84,31.39-12.67c8.68-7.24,13.5-20.43,23.13-46.81
		c4.93-13.5,6.17-19.35,5.51-26.43c-1.03-10.93-6.09-19.13-9.53-23.72c7.82-4.94,20.96-14.78,31.04-31.71
		C781.21,139.99,778.08,112.08,776.74,103.29z"/>
	<path class="st18" d="M1044.65,170.55c-1.27-8.74-30.44,0.05-55.33-20.24c-18.14-14.79-14.14-28.84-35.76-41.83
		c-6.49-3.9-6.32-2.32-30.36-13.49c-15.59-7.25-23.4-10.85-28.34-14.17c-17.29-11.62-18.46-19.73-32.52-26.46
		c-10.07-4.83-19.81-5.62-26.45-5.53c-20.77-0.64-45.31,0.05-72.59,3.66c-26.37,3.49-49.52,8.93-68.94,14.7
		c-0.08,17.36-0.17,34.73-0.25,52.09c10.92,4.46,40.81,14.96,77.96,6.75c32.33-7.14,53.21-24.71,61.94-32.99
		c9.06,9.09,22.87,20.94,41.97,30.96c22.67,11.9,43.52,16.37,57.35,18.22c1.97,6.41,7.55,21.44,22.27,33.74
		c5.76,4.82,22.01,16.8,44.53,16.19C1022.64,191.53,1045.8,178.48,1044.65,170.55z"/>
	<path class="st18" d="M712.94,126.18c-12.82-12.9-25.64-25.79-38.47-38.69c-7.22,7.13-14.74,15.5-22.08,25.26
		c-15.15,20.14-24.99,40.16-31.51,57.37c0,0,0-0.01-0.01-0.01c-1.2,3.12-2.96,7.92-4.78,13.87c-1.43,4.68-6.22,21.03-9.19,47.25
		c-2.04,18.04-1.21,23.05-5.48,32.91c-3.02,6.95-6.74,12.1-9.41,15.36c-4.09,3.18-32.99,25.97-28.43,35.1
		c3.76,7.52,30.37,5.96,47.71-7.68c7.8-6.14,12.23-13.54,14.72-18.85c8.46-17.43,16.57-37.49,23.12-60.13
		c2.02-6.96,3.77-13.76,5.29-20.38c7.03-1.95,25.85-8.16,40.77-26.49C713.82,158.18,713.26,132.54,712.94,126.18z"/>
	<path class="st18" d="M972.06,313.87c-7.8-6.69-12.73-6.62-24.87-12.44c0,0-3.03-1.3-7.22-3.68c-3.87-2.2-9.51-5.38-14.2-10.14
		c-4.07-4.13-6.23-8.24-7.66-11.08c-14.66-29.22-22.77-66.32-46.92-84.73c-11.24-8.57-11.32-1.93-30.4-13.36
		c-22.3-13.35-36.28-30.97-44.68-41.46c-8.31-10.38-14.12-19.85-17.89-26.62c-4.71-7.37-24.55-36.57-60.2-42.74
		c-10.25-1.77-19.44-1.23-26.83,0c-3.24,1.75-14.86,8.51-16.71,19.85c-2.42,14.84,12.5,33.94,38.47,38.69
		c4.47,12.74,17.01,43.04,48.16,67.94c32.23,25.76,65.86,30.91,79.23,32.24c3.55,17.44,9.77,29.79,14.74,37.77
		c1.89,3.03,5.75,8.17,33.24,37.91c11.3,12.22,17,18.37,19.73,20.13c27.21,17.57,68.87,7.64,70.01-0.92
		C978.31,319.24,976.23,317.45,972.06,313.87z"/>
	<path class="st18" d="M826.1,350.58c-6.89-13.97-11.81-16.47-16.51-27.33c-2.65-6.12-5.47-15.44-5.12-28.46
		c-1.75-13.91-4.95-30.4-10.82-48.39c-4.06-12.45-8.68-23.46-13.29-32.97c-0.72-14.74-2.13-30.58-4.52-47.33
		c-4.24-29.74-10.69-56.2-17.73-78.95c-2.99-2.58-8-6.58-14.83-10.45c-7.85-4.46-29.8-16.92-48.94-9.53
		c-7.25,2.79-11.97,7.61-12.46,8.12c-4.36,4.53-6.43,9.33-7.42,12.19c1.24,24.72,7.52,70.88,40.62,111.1
		c7.01,8.52,14.35,15.71,21.53,21.76c1.71,5.58,4.45,14.29,8.07,24.92c6.32,18.54,7.91,21.16,11.95,34.16
		c2.39,7.69,4.5,15.84,8.71,32.13c6.76,26.14,6.01,25.48,7.8,29.35c1.42,3.07,10.8,22.56,32.14,32.54
		c2.78,1.3,21.77,9.92,27.23,3.58C836.74,372.15,831.05,360.63,826.1,350.58z"/>
	<path class="st18" d="M712.55,57.41c0,0,1.45,21.42-9.29,21.37c0,0,26.02,24.16,44.6,11.15c0,0-3.48-0.93-5.81-6.39
		c-1.6-3.75-1.37-23.14,1.16-33.57C732.99,52.46,722.77,54.94,712.55,57.41z"/>
	<path class="st18" d="M667.95,53.7c1,2.12,3.53,6.72,8.83,10.1c7.67,4.91,15.61,3.72,17.57,3.37c3.02,7.35,0.48,14.86-4.57,17.48
		c-4.43,2.29-9.4,0.09-10.21-0.28c0,0-7.9-16.73-21.84-16.73L667.95,53.7z"/>
	<path class="st18" d="M712.55,57.41c-0.9-10.99,7.36-19.57,15.8-19.51c6.3,0.04,12.48,4.9,14.87,12.08
		C743.21,49.98,737.64,70.42,712.55,57.41z"/>
	<path class="st18" d="M667.95,53.7c0,0,0.93,13.94-10.22,13.94C657.73,67.64,648.44,46.26,667.95,53.7z"/>
	<path class="st18" d="M655.69,60.45c0.85,0.5,1.84,0.8,2.9,0.8c3.15,0,5.71-2.56,5.71-5.71c0-1.18-0.36-2.27-0.97-3.18
		C655.97,51.03,655.04,55.87,655.69,60.45z"/>
	<path class="st18" d="M739.28,45.26c0-0.79-0.08-1.57-0.24-2.32c-2.94-3.13-6.8-5.01-10.7-5.04c-4.45-0.03-8.84,2.36-11.88,6.23
		c-0.04,0.37-0.06,0.74-0.06,1.12c0,6.32,5.12,11.44,11.44,11.44S739.28,51.57,739.28,45.26z"/>
	<path class="st18" d="M736.61,43.73c0-1.21-0.25-2.37-0.69-3.42c-2.32-1.52-4.93-2.39-7.57-2.4c-3.13-0.02-6.23,1.15-8.85,3.19
		c-0.26,0.83-0.4,1.72-0.4,2.63c0,4.84,3.92,8.76,8.76,8.76S736.61,48.56,736.61,43.73z"/>
	<path class="st18" d="M655.55,57.34c0.55,0.38,1.22,0.61,1.94,0.61c1.89,0,3.41-1.53,3.41-3.41c0-0.91-0.36-1.73-0.94-2.34
		C656.89,52.61,655.75,54.76,655.55,57.34z"/>
	<path class="st18" d="M669.39,92.67c3.72,0.1,9.49,0.76,15.77,3.64c3.46,1.58,6.21,3.44,8.29,5.1c7.32-2.76,17.28-5.69,29.33-7.01
		c12.57-1.38,23.32-0.56,31.25,0.64c-5.07,4.95-14.02,12.44-27.11,17.83c-13.59,5.59-25.65,6.44-32.83,6.4
		c-2.76-0.62-11.02-2.86-17.55-10.62C671.22,102.31,669.82,95.61,669.39,92.67z"/>
	<path class="st18" d="M669.39,92.67c3.72,0.1,9.49,0.76,15.77,3.64c3.46,1.58,6.21,3.44,8.29,5.1c7.32-2.76,17.28-5.69,29.33-7.01
		c12.57-1.38,23.32-0.56,31.25,0.64c-7.28,3.34-15.95,6.73-25.91,9.58c-11.04,3.16-21.14,4.92-29.75,5.9
		c-3.46-0.22-11.25-1.19-18.9-6.69C674.14,99.98,671.03,95.49,669.39,92.67z"/>
	<path class="st18" d="M601.22,296.93c-2.91-9.91-15.04-12.7-15.05-12.7c-9.53,8-26.11,23.28-22.58,30.36
		C589.51,313,601.22,296.93,601.22,296.93z"/>
	<path class="st18" d="M654.09,305.38c1.22,2.9,5.39,4.19,10.22,4.66h0c21.16-2.44,31.34-18.83,31.34-18.83
		c12.54-17.98-20.25-16.16-20.25-16.16C661.24,293.6,651.87,300.09,654.09,305.38z"/>
	<path class="st18" d="M826.1,350.58c-4.64-9.41-8.39-13.62-11.78-18.68l0,0c0,0-22.47,2.21-22.53,17.55
		c0,0,18.17,22.96,40.75,27.58C836.74,372.15,831.05,360.63,826.1,350.58z"/>
	<path class="st18" d="M939.96,297.75c0,0-12.75,8.63-6.5,21.31c0,0,24.64,11.81,38.69,7.64
		C972.15,326.71,1053.9,304.67,939.96,297.75z"/>
	<path class="st18" d="M989.32,181.66c0,0,16.65,2.29,35.23,5.42c12.11-4.67,20.81-11.59,20.09-16.52
		c-1.27-8.74-30.44,0.05-55.33-20.24C989.32,150.3,968.51,172.22,989.32,181.66z"/>
</g>
<g id="レイヤー_3" class="st17">
	<path class="st19" d="M1358.82,102.79c-21.59-6.83-43.18-13.66-64.78-20.49c-8.25,9.63-22.8,29.42-27.97,58.16
		c-2.53,14.05-2.12,26.35-0.99,35.66c-2.58,10.2-2.09,18.1-1.15,23.46c2.59,14.71,10.54,21.58,11.17,37.52
		c0.21,5.38-0.49,9.82-1.1,12.67c-3.29,5.7-8.75,14.6-16.52,24.78c-14.16,18.55-23.53,25.04-21.31,30.34
		c3.16,7.55,26.35,4.19,29.02,3.81c6.5-0.94,19.6-2.84,31.39-12.67c8.68-7.24,13.5-20.43,23.13-46.81
		c4.93-13.5,6.17-19.35,5.51-26.43c-1.03-10.93-6.09-19.13-9.53-23.72c7.82-4.94,20.96-14.78,31.04-31.71
		C1363.3,139.49,1360.17,111.58,1358.82,102.79z"/>
	<path class="st20" d="M1151.26,317.11c7.46,1.39,13.87,1.09,19.32-0.04c33.6-6.98,58.55-51.39,65.94-110.01
		c5.46-0.34,12.27-1.6,19.26-5.11c24.34-12.22,29.27-41.02,29.91-45.14c-0.66,1.84-3.84,10.04-12.82,14.59
		c-7.81,3.96-15.13,2.7-17.3,2.24c0,0-9.24,1.11-16.12,5.04c-27.13,15.47-19.55,54.48-47.94,97.54
		C1178.08,296.58,1162.01,309.61,1151.26,317.11z"/>
	<path class="st21" d="M1626.74,170.05c-1.27-8.74-30.44,0.05-55.33-20.24c-18.14-14.79-14.14-28.84-35.76-41.83
		c-6.49-3.9-6.32-2.32-30.36-13.49c-15.59-7.25-23.4-10.85-28.34-14.17c-17.29-11.62-18.46-19.73-32.52-26.46
		c-10.07-4.83-19.81-5.62-26.45-5.53c-20.77-0.64-45.31,0.05-72.59,3.66c-26.37,3.49-49.52,8.93-68.94,14.7
		c-0.08,17.36-0.17,34.73-0.25,52.09c10.92,4.46,40.81,14.96,77.96,6.75c32.33-7.14,53.21-24.71,61.94-32.99
		c9.06,9.09,22.87,20.94,41.97,30.96c22.67,11.9,43.52,16.37,57.35,18.22c1.97,6.41,7.55,21.44,22.27,33.74
		c5.76,4.82,22.01,16.8,44.53,16.19C1604.73,191.03,1627.89,177.98,1626.74,170.05z"/>
	<path class="st21" d="M1295.03,125.68c-12.82-12.9-25.64-25.79-38.47-38.69c-7.22,7.13-14.74,15.5-22.08,25.26
		c-15.15,20.14-24.99,40.16-31.51,57.37c0,0,0-0.01-0.01-0.01c-1.2,3.12-2.96,7.92-4.78,13.87c-1.43,4.68-6.22,21.03-9.19,47.25
		c-2.04,18.04-1.21,23.05-5.48,32.91c-3.02,6.95-6.74,12.1-9.41,15.36c-4.8,3.91-32.88,27.05-28.43,35.1
		c3.44,6.23,26.55,3.74,41.66-8.13c7.79-6.12,12.74-15.92,22.64-35.52c5.08-10.06,8.39-16.62,11.14-26.47
		c2.22-7.94,2.55-12.55,5.57-21.94c2.65-8.24,5.6-14.69,7.66-18.81c7.1-2.13,28.91-9.67,44.85-31.87
		C1292.7,152.56,1294.66,133.48,1295.03,125.68z"/>
	<path class="st22" d="M1554.15,313.37c-7.8-6.69-12.73-6.62-24.87-12.44c0,0-3.03-1.3-7.22-3.68c-3.87-2.2-9.51-5.38-14.2-10.14
		c-4.07-4.13-6.23-8.24-7.66-11.08c-14.66-29.22-22.77-66.32-46.92-84.73c-11.24-8.57-11.32-1.93-30.4-13.36
		c-22.3-13.35-36.28-30.97-44.68-41.46c-8.31-10.38-14.12-19.85-17.89-26.62c-4.71-7.37-24.55-36.57-60.2-42.74
		c-10.25-1.77-19.44-1.23-26.83,0c-3.24,1.75-14.86,8.51-16.71,19.85c-2.42,14.84,12.5,33.94,38.47,38.69
		c4.47,12.74,17.01,43.04,48.16,67.94c32.23,25.76,65.86,30.91,79.23,32.24c3.55,17.44,9.77,29.79,14.74,37.77
		c1.89,3.03,5.75,8.17,33.24,37.91c11.3,12.22,17,18.37,19.73,20.13c27.21,17.57,68.87,7.64,70.01-0.92
		C1560.4,318.74,1558.32,316.95,1554.15,313.37z"/>
	<path class="st23" d="M1408.19,350.08c-6.89-13.97-11.81-16.47-16.51-27.33c-2.65-6.12-5.47-15.44-5.12-28.46
		c-1.75-13.91-4.95-30.4-10.82-48.39c-4.06-12.45-8.68-23.46-13.29-32.97c-0.72-14.74-2.13-30.58-4.52-47.33
		c-4.24-29.74-10.69-56.2-17.73-78.95c-2.99-2.58-8-6.58-14.83-10.45c-7.85-4.46-29.8-16.92-48.94-9.53
		c-7.25,2.79-11.97,7.61-12.46,8.12c-4.36,4.53-6.43,9.33-7.42,12.19c1.24,24.72,7.52,70.88,40.62,111.1
		c7.01,8.52,14.35,15.71,21.53,21.76c1.71,5.58,4.45,14.29,8.07,24.92c6.32,18.54,7.91,21.16,11.95,34.16
		c2.39,7.69,4.5,15.84,8.71,32.13c6.76,26.14,6.01,25.48,7.8,29.35c1.42,3.07,10.8,22.56,32.14,32.54
		c2.78,1.3,21.77,9.92,27.23,3.58C1418.83,371.65,1413.14,360.13,1408.19,350.08z"/>
	<path class="st22" d="M1294.64,56.91c0,0,1.45,21.42-9.29,21.37c0,0,26.02,24.16,44.6,11.15c0,0-3.48-0.93-5.81-6.39
		c-1.6-3.75-1.37-23.14,1.16-33.57C1315.08,51.96,1304.86,54.44,1294.64,56.91z"/>
	<path class="st24" d="M1250.04,53.2c1,2.12,3.53,6.72,8.83,10.1c7.67,4.91,15.61,3.72,17.57,3.37c3.02,7.35,0.48,14.86-4.57,17.48
		c-4.43,2.29-9.4,0.09-10.21-0.28c0,0-7.9-16.73-21.84-16.73L1250.04,53.2z"/>
	<path class="st25" d="M1294.64,56.91c-0.9-10.99,7.36-19.57,15.8-19.51c6.3,0.04,12.48,4.9,14.87,12.08
		C1325.3,49.48,1319.73,69.92,1294.64,56.91z"/>
	<path class="st26" d="M1250.04,53.2c0,0,0.93,13.94-10.22,13.94C1239.82,67.14,1230.52,45.76,1250.04,53.2z"/>
	<path class="st27" d="M1237.78,59.95c0.85,0.5,1.84,0.8,2.9,0.8c3.15,0,5.71-2.56,5.71-5.71c0-1.18-0.36-2.27-0.97-3.18
		C1238.06,50.53,1237.13,55.37,1237.78,59.95z"/>
	<path class="st27" d="M1321.37,44.76c0-0.79-0.08-1.57-0.24-2.32c-2.94-3.13-6.8-5.01-10.7-5.04c-4.45-0.03-8.84,2.36-11.88,6.23
		c-0.04,0.37-0.06,0.74-0.06,1.12c0,6.32,5.12,11.44,11.44,11.44S1321.37,51.07,1321.37,44.76z"/>
	<path class="st25" d="M1318.7,43.23c0-1.21-0.25-2.37-0.69-3.42c-2.32-1.52-4.93-2.39-7.57-2.4c-3.13-0.02-6.23,1.15-8.85,3.19
		c-0.26,0.83-0.4,1.72-0.4,2.63c0,4.84,3.92,8.76,8.76,8.76C1314.77,51.98,1318.7,48.06,1318.7,43.23z"/>
	<path class="st26" d="M1237.64,56.84c0.55,0.38,1.22,0.61,1.94,0.61c1.89,0,3.41-1.53,3.41-3.41c0-0.91-0.36-1.73-0.94-2.34
		C1238.97,52.11,1237.84,54.26,1237.64,56.84z"/>
	<path class="st28" d="M1256.56,86.98c2.89,2.81,6.44,5.85,10.7,8.82c2.89,2.02,5.69,3.7,8.29,5.1c8.14,0.63,19.66,0.64,33.03-2.26
		c13.71-2.98,24.41-7.94,31.63-11.99c-9.62,10.23-19.04,16.52-25.49,20.21c-10.24,5.86-20.88,11.95-34.72,10.79
		c-5.61-0.47-15.72-1.32-21.37-9.51C1252.64,99.44,1255.99,88.7,1256.56,86.98z"/>
	<path class="st29" d="M1256.56,86.98c1.24,1.12,3.16,2.53,5.78,3.19c2.22,0.56,3.29,0.15,4.98,0.65c1.75,0.51,4.03,1.95,6.1,6.12
		c2.69-1.07,6.78-2.46,11.91-3.21c5.27-0.77,8.1-0.31,13.13-0.27c7.25,0.05,12.31-0.8,22.16-2.46c5.74-0.97,12.35-2.34,19.6-4.33
		c-20.68,11.5-38.45,15.42-49.89,16.93c-21.2,2.8-27.16-1.83-29.62-4.66C1257.42,95.16,1256.67,90.4,1256.56,86.98z"/>
	<path class="st30" d="M1183.31,296.43c-2.91-9.91-15.04-12.7-15.05-12.7c-9.53,8-26.11,23.28-22.58,30.36
		C1171.6,312.5,1183.31,296.43,1183.31,296.43z"/>
	<path class="st31" d="M1236.17,304.88c1.22,2.9,5.39,4.19,10.22,4.66h0c21.16-2.44,31.34-18.83,31.34-18.83
		c12.54-17.98-20.25-16.16-20.25-16.16C1243.33,293.1,1233.96,299.59,1236.17,304.88z"/>
	<path class="st32" d="M1408.19,350.08c-4.64-9.41-8.39-13.62-11.78-18.68l0,0c0,0-22.47,2.21-22.53,17.55
		c0,0,18.17,22.96,40.75,27.58C1418.83,371.65,1413.14,360.13,1408.19,350.08z"/>
	<path class="st33" d="M1522.05,297.25c0,0-12.75,8.63-6.5,21.31c0,0,24.64,11.81,38.69,7.64
		C1554.24,326.21,1635.99,304.17,1522.05,297.25z"/>
	<path class="st30" d="M1571.41,181.16c0,0,16.65,2.29,35.23,5.42c12.11-4.67,20.81-11.59,20.09-16.52
		c-1.27-8.74-30.44,0.05-55.33-20.24C1571.41,149.8,1550.6,171.72,1571.41,181.16z"/>
	<path class="st27" d="M1317.34,43.51c0-2-0.79-3.81-2.08-5.14c-1.56-0.62-3.19-0.96-4.83-0.97c-2.19-0.01-4.36,0.56-6.36,1.6
		c-0.96,1.25-1.54,2.81-1.54,4.51c0,4.09,3.32,7.41,7.41,7.41C1314.03,50.92,1317.34,47.6,1317.34,43.51z"/>
	<path class="st27" d="M1237.7,56.27c0.48,0.36,1.07,0.58,1.72,0.58c1.6,0,2.89-1.3,2.89-2.89c0-0.84-0.37-1.59-0.94-2.12
		C1239.02,52.4,1237.99,54.14,1237.7,56.27z"/>
	<circle class="st34" cx="1313.71" cy="42.15" r="3.77"/>
	<circle class="st34" cx="1243" cy="53.99" r="2.37"/>
</g>
</svg>
