<?xml version="1.0" encoding="utf-8"?>
<!-- Generator: Adobe Illustrator 25.3.1, SVG Export Plug-In . SVG Version: 6.00 Build 0)  -->
<svg version="1.1" id="レイヤー_1" xmlns="http://www.w3.org/2000/svg" xmlns:xlink="http://www.w3.org/1999/xlink" x="0px"
	 y="0px" viewBox="0 0 1000 1000" style="enable-background:new 0 0 1000 1000;" xml:space="preserve">
<style type="text/css">
	.st0{stroke:#000000;stroke-width:7;stroke-miterlimit:10;}
	.st1{fill:url(#SVGID_1_);}
	.st2{fill:url(#SVGID_2_);}
	.st3{fill:#999900;}
	.st4{fill:#CCCC00;}
	.st5{fill:url(#SVGID_3_);}
	.st6{stroke:#000000;stroke-width:2;stroke-miterlimit:10;}
	.st7{fill:url(#SVGID_4_);}
	.st8{stroke:#000000;stroke-width:9;stroke-miterlimit:10;}
	.st9{fill:url(#SVGID_5_);}
	.st10{fill:url(#SVGID_6_);}
	.st11{fill:url(#SVGID_7_);}
	.st12{fill:url(#SVGID_8_);stroke:#000000;stroke-miterlimit:10;}
	.st13{stroke:#000000;stroke-width:5;stroke-miterlimit:10;}
	.st14{fill:url(#SVGID_9_);}
	.st15{fill:url(#SVGID_10_);}
	.st16{stroke:#000000;stroke-miterlimit:10;}
	.st17{stroke:#000000;stroke-width:3;stroke-miterlimit:10;}
	.st18{fill:url(#SVGID_11_);}
	.st19{fill:url(#SVGID_12_);}
	.st20{stroke:#000000;stroke-width:6;stroke-miterlimit:10;}
	.st21{fill:url(#SVGID_13_);}
	.st22{fill:#FF6633;}
	.st23{fill:url(#SVGID_14_);}
</style>
<g id="body_1_">
	<path class="st0" d="M856.5,610.5c-6.1-11.8-6.7-14.8-12-22c-4.4-6-11.8-14.8-24-23c-12-28.7-24-57.3-36-86
		c-5.4-32.8-11.9-59.5-17-78c-22.2-81.4-41-97.2-49-103c-11.6-8.4-23.9-12.7-34.2-15c-1.9-13.3-3.9-26.7-5.8-40
		c-116.3,30.3-232.7,60.7-349,91c2.3,34,4.7,68,7,102c-11,22.2-60.7,127.9-13,224c6.5,13,15.6,27.6,28.5,42.2
		c-0.2-0.1-0.3-0.2-0.5-0.2c4,11.8,8.6,27.7,12,47c5.1,29.2,4.6,51.2,4,76c-1.2,46.1-1.8,69.2-11,79c-22,23.6-69.6,17.8-70,29
		c0,1.3,0.6,2.4,1,3c0,1.1,0,5.2,3,9c3,3.8,7.2,4.7,8.2,4.9c0.2,0.5,4.8,12,14.8,13.1c2.7,0.3,5.1-0.3,7-1c0.9,1.4,4.9,7.9,13,10
		c11.6,3,20.5-5.5,21-6c1.9,2.2,16.4,18.6,38,17c3.2-0.2,22.3-1.6,29-16c5.7-12.2,0.4-29.2-14-40c-3.6-18.4-9.5-62,11-110
		c11.6-27.2,27.6-46.3,39.3-58c20.5,5.4,48.2,10.3,80.9,9.9c45.7-0.6,82.3-11.4,106-20.6c11.6,6.1,35.6,20.8,53.7,49.7
		c22.4,35.8,21.8,71.3,21,84c-3,3.5-6,7.2-9,11c-4,5.1-7.7,10.1-11.1,14.9c-2.6-0.4-10.6-0.9-17.9,4.1c-9.4,6.5-12.6,18.8-10,29
		c3.3,12.7,15.7,21.4,28,21c8.3-0.2,14.2-4.6,16.6-6.6c1.7,1.1,8.2,5.5,17.4,4.6c10-1,15.8-7.6,17-9c5.8,4.5,13.5,5.7,20,3
		c7.9-3.3,10.6-10.8,11-12c1.1,0.2,6.8,0.9,12-3c4.4-3.2,5.7-7.7,6-9c5.5-1.6,9.6-5.7,10-10c0.6-6.1-6.2-13.5-16-13
		c-11.3-8-22.7-16-34-24c-5.8-21.9-10.9-45.6-15-71c-11.3-70.6-10.8-133.9-6-186c-0.1,0.1-0.2,0.2-0.3,0.3
		c8.4-26.1,18.6-71.1,10.8-125.6c2.9,11.2,6.9,23.4,12.5,36.3c6.9,15.6,14.7,28.6,22,39c-4,1.9-10.1,5.5-15.2,12
		c-3.1,4-4,6.7-10.1,29.8c-3.7,13.9-5.5,21-2.8,25.7c1.9,3.3,3.4,2.6,8.7,8.3c7.8,8.3,8.8,14.4,11.7,14.2c1.7-0.1,4.1-2.2,6.6-12.9
		c-0.2-2.1-0.7-5.4-2-9.1c-1.7-5-3.5-7.3-4.6-9.9c-1.7-3.7-2.6-9.7,1.2-19.4c3.8,0.4,10.3,1.6,15.1,6.6c3.5,3.7,4.5,7.6,6.3,14.7
		c1.3,5.3,3.5,14,6.7,25.8c-6.3-9.2-12.9-14.6-16.5-13c-3.2,1.3-3.6,7.9-3.7,9.9c-0.3,5.1,1.1,8,2.9,13.9c4.1,13.5,1.6,14.8,5.2,21
		c1.6,2.7,6.3,10.8,13.4,10.5c6.4-0.2,10.5-7.1,11-8c5.2,6.2,13.8,7.7,20,4c4.9-3,7.7-8.9,7-15c1.7,0.3,8,1,13-3
		c4.4-3.6,5.4-8.9,6-12.4c1-5.5-0.7-5.4,0.2-11.7c0.7-4.3,1.6-5.4,3.2-12.7c0.6-3,1.1-5.6,1.2-6.5
		C869.1,631.5,864.6,626.1,856.5,610.5z M728.5,422.4c9,19.5,13,37.2,15,50.1c0.1,0.5,0.1,1,0.2,1.5
		C732.2,427.7,718.7,401.2,728.5,422.4z"/>
	
		<radialGradient id="SVGID_1_" cx="576.9489" cy="613.5318" r="332.6745" fx="501.6877" fy="573.0431" gradientUnits="userSpaceOnUse">
		<stop  offset="3.266288e-02" style="stop-color:#FFFF99"/>
		<stop  offset="0.3471" style="stop-color:#FFFF33"/>
	</radialGradient>
	<path class="st1" d="M856.5,610.5c-5.2-10.8-7.9-16.3-12-22c-4.4-6-11.8-14.8-24-23c-12-28.7-24-57.3-36-86
		c-5.4-32.8-11.9-59.5-17-78c-22.2-81.4-41-97.2-49-103c-11.6-8.4-23.9-12.7-34.2-15c-1.9-13.3-3.8-26.7-5.8-40
		c-116.3,30.3-232.7,60.7-349,91c2.3,34,4.7,68,7,102c-7.6,17.6-64.7,154.5,5.8,254.3c9.7,13.8,23.6,29.3,43.6,43.7
		c-4.8-1.8-11.3-4.9-17.8-10.3c-3.4-2.9-6.1-5.9-8.2-8.5c2.3,9,5.2,21.7,7.3,36.9c1.8,12.9,3.9,33.2,2.4,72.8
		c-1.8,48.1-2.7,72.2-10.4,80.4c-22.4,23.9-72.3,16.7-72.8,27.8c-0.1,1.1,0.4,2,0.7,2.5c0.2-0.5,1.6-4.3,5.8-5.8
		c4-1.4,7.4,0.4,7.9,0.7c-5.7-0.4-10.6,2.8-11.8,7c-1,3.8,1.2,7.2,1.5,7.7c2.4,3.7,6.5,4.3,7.1,4.4c0-0.9,0.4-6.1,4.8-10
		c4.9-4.4,11-3.4,11.8-3.3c-8,1.1-13.4,7.4-13.1,13.5c0.2,4.4,3.3,8.4,7.1,10.4c3.7,1.9,7.3,1.5,8.6,1.3c-0.2-2.1-0.6-7.1,2.1-12.2
		c5.1-9.7,16.5-10.8,17.4-10.9c-11.5,3.3-17.4,13.5-15.2,21.2c1.6,5.3,6.9,9.1,12.2,10.2c6.2,1.3,12.7-1.2,16.7-6.4
		c-0.3-3.1-0.3-8.2,2.1-13.8c5.4-12.5,18.2-16.3,20.2-16.9c-12.2,8.2-17.2,22.6-13,33.6c5.3,13.8,23.4,17.3,33.2,16.7
		c0.1-0.1,0.4-0.1,0.8-0.1c9.3,0,23.4-6.4,28.2-15.9c5.2-10.4-0.2-27.5-15.2-38.5c-7.3-11.6-15.2-27.2-20.5-46.6
		c-12.5-45.8-2.8-85.1,3.2-103.6c2.7-13.1,5.4-26.2,8.1-39.3c8.6,3.4,20.8,7.8,35.6,11.8c24.3,6.6,72.9,19.4,134.1,9.9
		c27.1-4.2,65.8-10.7,103.9-39.4c16.6-12.5,28.3-25.6,35.8-35.2c-8.9,15.5-17.7,31-26.6,46.5c8.6,10.7,32.5,42.3,41.6,79.4
		c3.8,15.5,4.6,30.5,4.6,30.5c0.9,16-0.9,29.5-2.8,39.3c-2.9,3.8-6.3,7.8-10.1,11.9c-4.5,4.8-8.8,9-13,12.6
		c2.2,0.6,7.4,2.3,11.2,7.3c1.8,2.4,2.9,5.9,2.7,5.5c-1-1.7-4.2-7.4-11.2-10.2c-7-2.9-14.3-1.4-19.2,1.5c-10.2,6-15.3,21.1-9,32.6
		c5.3,9.7,16.5,13,24.8,12.2c2.4-0.2,10-0.9,15.4-7.3c6.5-7.7,4.7-17.3,4.4-18.6c1.1,1.9,3.4,6.5,3.2,12.8
		c-0.2,7.5-3.9,12.5-5.2,14.2c2.9,0.9,9.1,2.4,16.4,0.4c3.9-1,12.5-3.4,15.1-11.2c2-6-0.2-13.2-5.4-18.3c1,0.4,7.1,3.5,9.2,10.7
		c2.1,7-1.1,12.7-1.7,13.6c1.9,0.7,8.1,2.6,14.9-0.1c1-0.3,10.8-4.4,12.4-14.4c1-6.6-2.1-11.7-3-13.1c1.3,0.9,6.4,4.9,7.3,11.7
		c0.4,2.6,0,4.9-0.4,6.5c1.5-0.2,6.2-0.8,10-4.7c1.3-1.3,5.5-6,4.5-12.2c-0.5-3-2-5.2-2.9-6.3c0.9,0.5,3.3,1.9,4.9,4.7
		c1.5,2.6,1.5,5.1,1.5,6.2c1.2-0.9,3.4-2.6,4.9-5.7c0.4-0.9,2.5-5.3,0.8-9.7c-1.7-4.5-6.7-7.4-12.5-7.5c-5.2-2.9-10.5-6.1-15.9-9.5
		c-7.4-4.7-14.2-9.4-20.5-14.1c-5.5-22-10.4-45.7-14.4-70.9c-9.9-63.7-11-121.3-8.3-170.3c-0.5,3.4-2,10.4-7.2,17.3
		c-4.4,5.8-9.4,9-12.4,10.5c8.3-15.7,18.7-38.9,25.2-68.4c4.1-18.4,14-65.4-1-122c-11.5-43.6-32.8-74.1-44.1-90
		c-7.1-9.9-13.6-17.8-18.3-23.3c14.3,12.9,31.7,31.6,46.9,57.1c7.6,12.8,13.3,25,17.6,36c2,20.2,7.1,47.6,20.4,77.4
		c6.9,15.4,14.6,28.3,22,39c-4.8,2.7-12.3,7.9-17.1,17c-1.8,3.4-1.6,4.2-5.4,20.9c-4.3,18.9-5.9,23.6-2.9,28.6
		c2,3.4,3.4,2.3,7.6,7.8c5.5,7.2,5.5,12.3,8.8,12.7c2.7,0.3,5.6-2.9,6.6-5.6c1.2-3.4-0.2-6.7-1.9-10.3c-2.5-5.6-4.2-5.1-6-9.3
		c-1.1-2.6-2.2-8.4-0.4-15.4c0.6-2.2,1.7-5.5,4-9.1c2-0.1,5.6,0.1,9.4,2c1.5,0.7,4,2.2,6.6,5.4c6.2,7.4,8.1,17.9,8.8,21.8
		c1.4,7.2,3.4,17.5,6.5,31.7c0.9,2,1.8,3.9,2.8,5.9c-1.1-1.3-2.1-2.6-3.2-3.9c-0.5,4.2-0.8,5.1-0.9,5.1c-0.3,0,0.3-4.2-0.6-9
		c-0.2-1-1.1-6-4.7-11.3c-2.7-4.1-8.7-11-12.1-9.6c-2,0.8-2.3,4.2-2.5,6.1c-0.5,5.1,1.7,7.6,3.1,14.3c0.8,4,0.4,5.1,0.8,8.4
		c1.3,10.3,8,23.7,15.5,24.1c4.8,0.3,8.6-4.8,10.3-7c15.1-19.9,4.3-62.3,1-74.4c0,0,0,0,0,0c0,0,3.4,8.7,6.2,16.4
		c1.2,3.2,2.8,7.8,4.7,13.5c-2.2,15.7-2.5,27.2-2.1,28.2c0.1,0.1,1,1.8,1.2,2.1c0.1,0.2,0.2,0.3,0.3,0.5c-0.9-1-1.9-1.9-2.8-2.9
		c-0.1,2.4-0.5,6-2,10c-1.3,3.2-2.9,5.6-4.2,7.3c5.2,4.9,12.8,5.9,18.5,2.5c7.1-4.2,7.1-12.9,7.1-13.3c-3-21.9-6-43.9-9-65.8
		c2.6,7.4,5.2,14.8,7.8,22.2c-1.1,6-1.4,13.8,2.3,21.1c0.3,0.5,0.6,1.1,0.9,1.6c-1-0.7-2.1-1.4-3.1-2.1c1.1,7.2,2.1,14.4,3.2,21.6
		c2.6,0.2,7.4,0,10.9-3.2c0,0,5.2-4.7,4-18c-0.3-2.8-0.8-4.8-1-5.4c-2.2-7.8-6.1-21.6-11.2-39.3c1.8,1.9,4.2,4.9,6.1,9.1
		c1.9,4,2.6,7.7,2.9,10.2c1,1.3,2,2.9,2.9,4.8c2.4,5.2,2.5,10.1,2.3,13c0.4-1.5,0.9-3.1,1.4-4.7c0.7-2.3,1.4-4.5,2.1-6.6
		c0,0,0.6-2.5,0.6-5.1C867.6,633.5,863.9,625.8,856.5,610.5z"/>
	<linearGradient id="SVGID_2_" gradientUnits="userSpaceOnUse" x1="674.5162" y1="374.2036" x2="924.9112" y2="741.5411">
		<stop  offset="0" style="stop-color:#CCCC00"/>
		<stop  offset="0.292" style="stop-color:#CACA00"/>
		<stop  offset="0.4478" style="stop-color:#C2C200"/>
		<stop  offset="0.5714" style="stop-color:#B4B400"/>
		<stop  offset="0.6781" style="stop-color:#A1A100"/>
		<stop  offset="0.7739" style="stop-color:#888800"/>
		<stop  offset="0.8606" style="stop-color:#6A6A00"/>
		<stop  offset="0.8702" style="stop-color:#666600"/>
	</linearGradient>
	<path class="st2" d="M676.6,366.7c7.6,6.8,16,15.3,24.6,25.5c0,0,0.1,0.1,0.1,0.1l0,0.1c7.5,9,15.1,19.4,22.2,31.4
		c7.6,12.8,13.3,25,17.6,36c2,20.2,7.1,47.6,20.4,77.4c6.9,15.4,14.6,28.3,22,39c-4.8,2.7-12.3,7.9-17.1,17
		c-1.8,3.4-1.6,4.2-5.4,20.9c-4.3,18.9-5.9,23.6-2.9,28.6c2,3.4,3.4,2.3,7.6,7.8c5.5,7.2,5.5,12.3,8.8,12.7c2.7,0.3,5.6-2.9,6.6-5.6
		c1.2-3.4-0.2-6.7-1.9-10.3c-2.5-5.6-4.2-5.1-6-9.3c-1.1-2.6-2.2-8.4-0.4-15.4c0.6-2.2,1.7-5.5,4-9.1c2-0.1,5.6,0.1,9.4,2
		c1.5,0.7,4,2.2,6.6,5.4c6.2,7.4,8.1,17.9,8.8,21.8c1.4,7.2,3.4,17.5,6.5,31.7c0.9,2,1.8,3.9,2.8,5.9c-1.1-1.3-2.1-2.6-3.2-3.9
		c-0.5,4.2-0.8,5.1-0.9,5.1c-0.3,0,0.3-4.2-0.6-9c-0.2-1-1.1-6-4.7-11.3c-2.7-4.1-8.7-11-12.1-9.6c-2,0.8-2.3,4.2-2.5,6.1
		c-0.5,5.1,1.7,7.6,3.1,14.3c0.8,4,0.4,5.1,0.8,8.4c1.3,10.3,8,23.7,15.5,24.1c4.8,0.3,8.6-4.8,10.3-7c15.1-19.9,4.3-62.3,1-74.4
		c0,0,0,0,0,0c0,0,3.4,8.7,6.2,16.4c1.2,3.2,2.8,7.8,4.7,13.5c-2.2,15.7-2.5,27.2-2.1,28.2c0.1,0.1,1,1.8,1.2,2.1
		c0.1,0.2,0.2,0.3,0.3,0.5c-0.9-1-1.9-1.9-2.8-2.9c-0.1,2.4-0.5,6-2,10c-1.3,3.2-2.9,5.6-4.2,7.3c5.2,4.9,12.8,5.9,18.5,2.5
		c7.1-4.2,7.1-12.9,7.1-13.3c-3-21.9-6-43.9-9-65.8c2.6,7.4,5.2,14.8,7.8,22.2c-1.1,6-1.4,13.8,2.3,21.1c0.3,0.5,0.6,1.1,0.9,1.6
		c-1-0.7-2.1-1.4-3.1-2.1c1.1,7.2,2.1,14.4,3.2,21.6c2.6,0.2,7.4,0,10.9-3.2c0,0,5.2-4.7,4-18c-0.3-2.8-0.8-4.8-1-5.4
		c-2.2-7.8-6.1-21.6-11.2-39.3c1.8,1.9,4.2,4.9,6.1,9.1c1.9,4,2.6,7.7,2.9,10.2c1,1.3,2,2.9,2.9,4.8c2.4,5.2,2.5,10.1,2.3,13
		c0.4-1.5,0.9-3.1,1.4-4.7c0.7-2.3,1.4-4.5,2.1-6.6c0,0,0.6-2.5,0.6-5.1c0.1-7-3.6-14.7-11-30c-5.2-10.8-7.9-16.3-12-22
		c-4.4-6-11.8-14.8-24-23c-12-28.7-24-57.3-36-86c-5.4-32.8-11.9-59.5-17-78c-22.2-81.4-41-97.2-49-103c-11.6-8.4-23.9-12.7-34.2-15
		c-0.9-6.3-1.8-12.6-2.7-18.8c0,0,0,0,0,0c-4,11.8-8.1,27.8-9.4,47.1C670.6,334.5,673.5,353.5,676.6,366.7z"/>
	<path class="st3" d="M350,963.9c-0.3-3.1-0.3-8.2,2.1-13.8c5.4-12.5,18.2-16.3,20.2-16.9c-12.2,8.2-17.2,22.6-13,33.6
		c5.3,13.8,23.4,17.3,33.2,16.7c0.1-0.1,0.4-0.1,0.8-0.1c9.3,0,23.4-6.4,28.2-15.9c5.2-10.4-0.2-27.5-15.2-38.5
		c-5-14.9-13.9-47.8-6.3-88.8c7.8-41.4,28.4-69.1,38.5-81.2c-7.3-1.4-13.4-3.1-18.1-4.6c-12.9-4.1-22.1-9-25-10.5
		c-3.7-2-4.5-2.7-10.8-6.4c-9.3-5.6-17.1-9.9-22.7-12.9c1.6,7,3.5,16.5,5.1,28c1.8,12.9,3.9,33.2,2.4,72.8
		c-1.8,48.1-2.7,72.2-10.4,80.4c-22.4,23.9-72.3,16.7-72.8,27.8c-0.1,1.1,0.4,2,0.7,2.5c0.2-0.5,1.6-4.3,5.8-5.8
		c4-1.4,7.4,0.4,7.9,0.7c-5.7-0.4-10.6,2.8-11.8,7c-1,3.8,1.2,7.2,1.5,7.7c2.4,3.7,6.5,4.3,7.1,4.4c0-0.9,0.4-6.1,4.8-10
		c4.9-4.4,11-3.4,11.8-3.3c-8,1.1-13.4,7.4-13.1,13.5c0.2,4.4,3.3,8.4,7.1,10.4c3.7,1.9,7.3,1.5,8.6,1.3c-0.2-2.1-0.6-7.1,2.1-12.2
		c5.1-9.7,16.5-10.8,17.4-10.9c-11.5,3.3-17.4,13.5-15.2,21.2c1.6,5.3,6.9,9.1,12.2,10.2C339.5,971.6,346,969.1,350,963.9z"/>
	<path class="st3" d="M793.4,907.4c-5.2-2.9-10.5-6.1-15.9-9.5c-7.4-4.7-14.2-9.4-20.5-14.1c-5.5-22-10.4-45.7-14.4-70.9
		c-9.9-63.7-11-121.3-8.3-170.3c-1.5,3.2-3.8,7.7-6.8,12.9c-6.8,12-12.3,19.5-21.8,32.5c-23.8,32.6-25.2,35.1-31.7,41.3
		c-7.2,6.7-14.3,12.2-20.9,16.5c9.4,4.6,47.4,24.6,64.4,69.9c10.8,28.8,8,54.4,5.8,66.6c-2.9,3.8-6.3,7.8-10.1,11.9
		c-4.5,4.8-8.8,9-13,12.6c2.2,0.6,7.4,2.3,11.2,7.3c1.8,2.4,2.9,5.9,2.7,5.5c-1-1.7-4.2-7.4-11.2-10.2c-7-2.9-14.3-1.4-19.2,1.5
		c-10.2,6-15.3,21.1-9,32.6c5.3,9.7,16.5,13,24.8,12.2c2.4-0.2,10-0.9,15.4-7.3c6.5-7.7,4.7-17.3,4.4-18.6c1.1,1.9,3.4,6.5,3.2,12.8
		c-0.2,7.5-3.9,12.5-5.2,14.2c2.9,0.9,9.1,2.4,16.4,0.4c3.9-1,12.5-3.4,15.1-11.2c2-6-0.2-13.2-5.4-18.3c1,0.4,7.1,3.5,9.2,10.7
		c2.1,7-1.1,12.7-1.7,13.6c1.9,0.7,8.1,2.6,14.9-0.1c1-0.3,10.8-4.4,12.4-14.4c1-6.6-2.1-11.7-3-13.1c1.3,0.9,6.4,4.9,7.3,11.7
		c0.4,2.6,0,4.9-0.4,6.5c1.5-0.2,6.2-0.8,10-4.7c1.3-1.3,5.5-6,4.5-12.2c-0.5-3-2-5.2-2.9-6.3c0.9,0.5,3.3,1.9,4.9,4.7
		c1.5,2.6,1.5,5.1,1.5,6.2c1.2-0.9,3.4-2.6,4.9-5.7c0.4-0.9,2.5-5.3,0.8-9.7C804.2,910.4,799.2,907.5,793.4,907.4z"/>
	<path class="st4" d="M805.9,914.9c-1.2-3.1-4-5-4.7-5.4c-2.2-1.3-4.9-2.1-7.8-2.1c-5.2-2.9-10.5-6.1-15.9-9.5
		c-7.4-4.7-14.2-9.4-20.5-14.1c-5.5-22-10.5-45.7-14.4-70.9c-10.6-68.6-10.7-130.4-6.6-182.1c-1.9,5.9-4.5,12.9-8.5,20.3
		c-4.2,7.9-8.7,14.3-12.7,19.3c14.3-27.3,21.5-51.6,25.2-68.4c4.1-18.4,14-65.4-1-122c-4.4-16.5-10.1-31.2-16.2-43.8
		c0,1.9,0.1,3.9,0.1,6.1l-0.1-6.1c-3-7.8-6.8-16.3-11.8-25.2c-10.9-19.5-23.7-34-34.4-44.2c53.1,88.3,50.9,196.2-4.2,268.9
		c-72,95.1-226.1,119-342.5,34.9c3.6,6.9,7.7,13.7,12.4,20.3c9.7,13.8,23.6,29.3,43.6,43.7c-4.8-1.8-11.3-4.9-17.8-10.3
		c-3.4-2.9-6.1-5.9-8.2-8.5c2.3,9,5.2,21.7,7.3,36.9c1.8,12.9,3.9,33.2,2.4,72.8c-1.8,48.1-2.7,72.2-10.4,80.4
		c-22.4,23.9-72.3,16.7-72.8,27.8c-0.1,1.1,0.4,2,0.7,2.5c0.2-0.5,1.6-4.3,5.8-5.8c4-1.4,7.4,0.4,7.9,0.7c-1.1-0.1-3-0.1-5.1,0.6
		c-0.8,0.3-5.8,2-6.7,6.4c-0.1,0.5-0.6,2.8,0.8,4.9c1.7,2.5,4.6,2.6,5,2.7c0.9-1.9,2.9-5.3,6.7-7.3c4.5-2.3,9.6-1.8,11.9-1.5
		c0.3,0,0.6,0.1,0.8,0.1c-1.4,0.1-4.1,0.6-6.8,2.4c-1.2,0.8-3.7,2.5-4.9,5.6c-1.6,4.2-0.4,10.6,3.8,12.4c2.5,1.1,5,0.2,6.2-0.3
		c0.7-4.7,2.6-7.7,3.8-9.1c5.6-7.1,15.8-8.3,19.6-8.8c0.1,0,0.2,0,0.3,0c-2.2,0.5-5.9,1.8-9.3,5.1c-1.4,1.3-8.9,8.8-5.9,16.1
		c1.6,3.9,5.6,6.3,9.4,6.9c6.4,1,10.7-3.4,11.1-3.8c1.6-10.9,6.7-16.6,8.7-18.6c6.4-6.4,16-9.4,21.1-11c0.4-0.1,0.7-0.2,0.9-0.3
		c-13.4,9-18,24-13,33.6c5.8,11.2,22.6,10.9,25,10.9c2.7-0.1,22.2-0.8,29-16.8c4.4-10.4,1.6-23.1-7-31.8
		c-5.1-9.7-25.4-51.4-11.3-102.1c10.3-37.1,33.6-59.4,43.6-67.9c-7.1-1.1-17.3-3.7-28-9.9c-5.5-3.2-9.9-6.6-13.5-9.7
		c8.4,3.3,20.6,7.7,35.6,11.8c23.3,6.4,69.6,18.5,128.5,10.5c26.9-3.7,68.8-9.4,109.5-40.1c16.7-12.6,28.4-25.7,35.8-35.2
		c-8.9,15.5-17.7,31-26.6,46.5c11.9,14,32.6,42.5,41.4,84c5.6,26.7,4.3,49.6,2.1,65.2c-2.9,3.8-6.3,7.8-10.1,11.9
		c-4.5,4.8-8.8,9-13,12.6c2.2,0.6,7.4,2.3,11.2,7.3c1.8,2.4,2.9,5.9,2.7,5.5c-1-1.7-4.2-7.4-11.2-10.2c-7-2.9-14.3-1.4-19.2,1.5
		c-11.1,6.6-15.6,23.6-9,32.6c3.9,5.3,10.5,6.4,14.2,7c2.5,0.4,13.1,2.2,21.8-5c6.8-5.7,8.3-13.3,8.6-15.7c0.8,0.6,6.1,5.3,6,12.9
		c-0.1,8.9-7.5,13.8-8,14.1c2.2,0.3,6.1,0.6,10.3-1c8.8-3.3,12.3-11.8,13.5-14.7c1-2.5,2.6-7.2,2.2-13.4c5.8,1,10.5,5.3,11.7,10.9
		c1.7,7.6-4,13.1-4.2,13.4c2.2-0.3,5.7-1.1,9.3-3.1c7.6-4.2,10.8-11.1,12.2-14c1.1-2.3,2.4-5.9,2.9-10.5c0.7,0.3,6.3,2.7,7.9,8.9
		c1.2,4.5-0.5,8.3-1,9.3c1.5-0.8,3.6-2.2,5.6-4.5c3.3-3.7,4.5-7.6,5-9.6c1-3.4,1.1-6.6,1-9.1c3.3,0.5,6,2.6,6.8,5.4
		c0.8,2.6-0.1,4.8-0.4,5.5C805.5,925.9,807.8,919.6,805.9,914.9z"/>
	
		<radialGradient id="SVGID_3_" cx="727.8026" cy="659.2357" r="0.4457" fx="727.7017" fy="659.1814" gradientUnits="userSpaceOnUse">
		<stop  offset="3.266288e-02" style="stop-color:#FFFF99"/>
		<stop  offset="0.3471" style="stop-color:#FFFF33"/>
	</radialGradient>
	<path class="st5" d="M727.2,659.1c0.4,0.1,0.8,0.2,1.2,0.3"/>
</g>
<g id="head_1_">
	<path class="st6" d="M682.1,195.4C687.9,296.8,613,427.4,494,431c-103.6,3.1-185.4-91.7-199.9-184c-0.8-4.8-16.3-115.5,62.8-184.6
		c48.8-42.5,106.7-45.9,127-46.8c19.9-0.9,67.9-3,113.7,26.1C674.6,90.6,681.6,186.3,682.1,195.4z"/>
	
		<radialGradient id="SVGID_4_" cx="353.2802" cy="96.3822" r="171.0913" fx="349.7757" fy="99.3861" gradientUnits="userSpaceOnUse">
		<stop  offset="0.206" style="stop-color:#F9F9F9"/>
		<stop  offset="0.2487" style="stop-color:#FBFBDC"/>
		<stop  offset="0.2959" style="stop-color:#FCFCC3"/>
		<stop  offset="0.3493" style="stop-color:#FEFEB0"/>
		<stop  offset="0.4116" style="stop-color:#FEFEA3"/>
		<stop  offset="0.491" style="stop-color:#FFFF9B"/>
		<stop  offset="0.6461" style="stop-color:#FFFF99"/>
	</radialGradient>
	<path class="st7" d="M669.3,255.1C654.4,329.2,593.4,425.8,494,431c-102.8,5.4-182.4-90.5-196.5-180.5
		c-10.2-65.1,11.2-144.2,71-190C418.2,22.4,474.7,22.7,494,23c19.7,0.3,72.9,1.3,117.5,37.5C672.7,110.3,680.9,196.9,669.3,255.1z"
		/>
</g>
<g id="parts">
	<circle class="st8" cx="556" cy="136" r="40.5"/>
	<circle class="st8" cx="354" cy="200" r="40.5"/>
	<radialGradient id="SVGID_5_" cx="511.9554" cy="95.9236" r="113.1875" gradientUnits="userSpaceOnUse">
		<stop  offset="0.2227" style="stop-color:#FFFFFF"/>
		<stop  offset="0.5073" style="stop-color:#DADADA"/>
		<stop  offset="0.6591" style="stop-color:#CCCCCC"/>
	</radialGradient>
	<circle class="st9" cx="556" cy="136" r="40.5"/>
	<radialGradient id="SVGID_6_" cx="354" cy="200" r="79.8237" fx="302.134" fy="157.5463" gradientUnits="userSpaceOnUse">
		<stop  offset="0.2227" style="stop-color:#FFFFFF"/>
		<stop  offset="0.5073" style="stop-color:#DADADA"/>
		<stop  offset="0.6591" style="stop-color:#CCCCCC"/>
	</radialGradient>
	<circle class="st10" cx="354" cy="200" r="40.5"/>
	<circle cx="549.5" cy="133.5" r="22"/>
	<radialGradient id="SVGID_7_" cx="339.0637" cy="181.6815" r="26.0151" gradientUnits="userSpaceOnUse">
		<stop  offset="0.2609" style="stop-color:#333333"/>
		<stop  offset="0.557" style="stop-color:#1E1E1E"/>
		<stop  offset="0.9968" style="stop-color:#000000"/>
	</radialGradient>
	<circle class="st11" cx="349.5" cy="194.5" r="22"/>
	<path d="M494.4,98.1c0,0-0.9-24.6,25.1-24.6L494.4,98.1z"/>
	<path d="M372,133.5c0,0-16.1-16-26.3,2.5L372,133.5z"/>
</g>
<g id="mouth1">
	<path d="M303.5,274.5c4.3-7.1,11.8-9.7,15-11c11.4-4.6,19.3-15.4,35-37c32.2-44.2,26.6-79.7,49-87c6.5-2.1,16.9-2.4,33,8
		c3-7.7,8.5-18,19-24c27.9-15.9,58.8,17.7,128,39c63.2,19.5,90.7,7.9,103,30c9.6,17.3-4.4,29.4-20,88c-17.7,66.4-7.8,80.8-29,134
		c-10.5,26.2-16.7,41.9-32,59c-42.7,47.7-105.9,50.3-123,51c-24.9,1-73.1,3-106-29c-18.7-18.2-26.2-41.3-32-59
		c-11-33.6-4.2-45.6-18-81c-10-25.5-14.9-38.3-16-40c-2.9-4.7-7.9-12.1-9-23C300.1,288.8,299.4,281.2,303.5,274.5z"/>
</g>
<g id="face">
	<radialGradient id="SVGID_8_" cx="488.3556" cy="325.6527" r="136.2551" gradientUnits="userSpaceOnUse">
		<stop  offset="0" style="stop-color:#CCCCFF"/>
		<stop  offset="0.3543" style="stop-color:#9696FC"/>
		<stop  offset="0.6424" style="stop-color:#6666CC"/>
		<stop  offset="1" style="stop-color:#000000"/>
	</radialGradient>
	<path class="st12" d="M588.5,328.5c-21.1,96.5-15.4,105.3-32,122c-29.3,29.4-82.7,37.7-125,18c-6.9-3.2-41.4-20.1-56-58
		c-6.5-16.8-6.6-31.3,22-134c18.9-68.1,23.8-79.1,37-89c31-23.3,72.9-14.1,87-11c12.1,2.7,61.5,13.5,79,52
		C609.7,248.7,603.2,261.3,588.5,328.5z"/>
</g>
<g id="faceParts_1_">
	<path class="st13" d="M577.5,314.5c-2.8,16.5-19,33.1-38,30c-15.6-2.6-26.9-17.3-27-32.5c-0.1-16.6,13.3-26.3,15-27.5
		c9.5-6.7,25.5-10.8,38-2C576.6,290.3,579.2,304.4,577.5,314.5z"/>
	<path class="st13" d="M469.5,298.5c-0.9,14.7-13.3,28.4-29,30c-18.8,1.9-35.9-14.4-36-33c-0.1-15,10.9-29,25-32
		C449.4,259.3,470.8,277.9,469.5,298.5z"/>
	<radialGradient id="SVGID_9_" cx="529.2293" cy="290.0637" r="61.1052" gradientUnits="userSpaceOnUse">
		<stop  offset="0" style="stop-color:#CC99CC"/>
		<stop  offset="0.5176" style="stop-color:#996699"/>
		<stop  offset="0.9338" style="stop-color:#663366"/>
	</radialGradient>
	<path class="st14" d="M577.5,314.5c-2.8,16.5-19,33.1-38,30c-15.6-2.6-26.9-17.3-27-32.5c-0.1-16.6,13.3-26.3,15-27.5
		c9.5-6.7,25.5-10.8,38-2C576.6,290.3,579.2,304.4,577.5,314.5z"/>
	<radialGradient id="SVGID_10_" cx="417.0255" cy="276" r="56.9984" gradientUnits="userSpaceOnUse">
		<stop  offset="0" style="stop-color:#CC99CC"/>
		<stop  offset="0.5176" style="stop-color:#996699"/>
		<stop  offset="0.9338" style="stop-color:#663366"/>
	</radialGradient>
	<path class="st15" d="M469.5,298.5c-0.9,14.7-13.3,28.4-29,30c-18.8,1.9-35.9-14.4-36-33c-0.1-15,10.9-29,25-32
		C449.4,259.3,470.8,277.9,469.5,298.5z"/>
	<path d="M451.5,339.5c1.5-1.2,9.9-2.6,16.5-1.5c9.5,1.5,15.7,6.8,18,9c6.5-19.2,13-38.3,19.5-57.5l-15,66L451.5,339.5z"/>
	<polygon points="403.5,351.5 411.5,363.5 535.5,394.5 553.5,382.5 539.5,398.5 407.5,367 	"/>
	<path d="M449.5,391.5c0,0,7-7,15,4L449.5,391.5z"/>
	<path d="M480.5,303.5c0.5-5.5,0.2-10.4-0.5-14.5c-4.9-29.2-32.2-45.2-39-49c8.8,7,22.2,19.8,31.5,39.6
		C476.6,288.4,479,296.6,480.5,303.5z"/>
	<path d="M527,267c19.1-9.6,38.6-2.1,42.5-0.5c-9.6-0.4-22.8,0.3-37.5,4.5c-7.5,2.2-14,4.8-19.5,7.5
		C515.6,274.9,520.3,270.4,527,267z"/>
	<circle class="st16" cx="531" cy="309" r="5.5"/>
	<circle class="st16" cx="446" cy="298" r="5.5"/>
</g>
<g id="teeth_1_">
	<path class="st17" d="M458.5,224.5c0.7,2.3,1.5,6.2,0,10c-2.1,5.3-6.9,6.4-24,14c-12.7,5.7-14.5,7-18.5,6.5
		c-8.7-1.1-14.4-9-16.5-12.5c2,6.7,4,13.3,6,20c-0.5,1.9-4,12.9-15,18c-1.8,0.8-9.7,4.5-18.5,1.5c-2.9-1-5.1-2.4-6.5-3.5
		c-0.1,2.1-0.1,4.5,0,7c0.2,3,0.5,5.7,1,8c-2.2,0.7-6.6,1.8-12,1c-4.4-0.7-7.6-2.3-9.5-3.5c0.3,5.5-1.7,7.7-2.5,8.5
		c-1.1,1-2.4,1.5-13,2c-6.7,0.3-7.4,0.2-8,0c-5.5-1.6-8.6-7.4-10-11c10.8-14.1,27-33.7,49-55c39.2-38,62.1-60.2,95.5-68.5
		c30.2-7.5,44.7,2.5,117,17c44.4,8.9,80.6,13.6,103,16c-2.8,7.2-5.7,14.3-8.5,21.5c-1.7,7.1-4.6,9.8-7,11c-5.2,2.5-8.7-2.2-19-2
		c-8.6,0.2-12.2,3.5-16,1c-2.9-1.9-3.8-5.9-4-9c-1.3,2-3,4-5,6c-8.4,8.3-18.4,11-24,12c-1.4-2.7-2.8-6-4-10c-1.1-3.7-1.7-7.1-2-10
		c-1.7,3.5-6.4,11.7-15,14c-4.8,1.3-9.4,0.4-17-1c-4.1-0.8-7.3-1.4-11-3c-3.3-1.5-9.4-4.7-15-12c-2.5,3.7-6.9,9.1-14,12
		c-3.8,1.5-5.9,1.5-14,2c-23,1.6-27.5,3.8-34,0C464.4,231.3,461.3,229,458.5,224.5z"/>
	<path class="st17" d="M476.5,441.5c4.7-13.4,10.5-17.7,15-19c5.2-1.5,7.4,1.1,16,0c10.2-1.3,12.5-5.8,18-5c4,0.6,9.6,4,15,18
		c-1.4-3.9-2.4-9.1,0-13c2.5-4,6.3-2.8,12-7c7.8-5.7,6.7-12.3,13-15c2.4-1.1,6.5-1.7,13,1c-1.2-1.7-2.6-4.3-2-7c0.7-3.2,3.5-3.4,7-8
		c3.6-4.7,2.7-7.1,6-9c3.1-1.8,6.5-1.1,7-1c3.6,0.8,5.5,3.3,6,4c0.5-4.3,1.3-8,2-11c1.2-4.8,2.5-8.1,4-12c2.3-6,2.9-7.1,4-8
		c2.9-2.4,6.9-2.3,9-2c-2.4-3-5-7.4-4-12c0.5-2.4,1.6-2.7,3-6c3.3-7.4,0.9-12.9,3-14c1.1-0.6,3.5,0,9.5,6.7
		c0.7,9.9,4.9,87.6-53.5,138.3c-8.4,7.3-40.8,34.6-90,37c-13,0.6-48.5,1.9-82-21c-52.4-35.8-55.3-100.3-55.5-108.1
		c2.3-1.5,8.5-5.2,13.5-2.9c2.6,1.2,2.9,3.1,7,11c6.4,12.2,8.3,13.7,8,18c-0.2,2.1-1,6.3-6,11c5.2-3.7,8.2-3.7,10-3
		c3.1,1.3,2.1,4.6,7,9c2.4,2.2,4.5,3,6,6c1,2,1,3.5,1,4c-0.1,2.3-1.3,4-2,5c-1.5,2.1-3.3,5.3-5,10c3.1-6.3,6.6-10.5,9-13
		c1.7-1.8,2.7-2.5,4-3c3.9-1.5,6.3,1.1,12,2c7.4,1.2,10.9-2.1,13,0c1.2,1.2,1.9,3.9-1,11c5-11.1,9.7-13.7,13-14
		c3.8-0.4,5.1,2.3,11,3c7.8,0.9,10.8-3.2,15-2C470.8,421.5,474.8,425.8,476.5,441.5z"/>
	<radialGradient id="SVGID_11_" cx="457.8408" cy="224.3312" r="226.422" gradientUnits="userSpaceOnUse">
		<stop  offset="0" style="stop-color:#FFFFFF"/>
		<stop  offset="0.1044" style="stop-color:#FAFAFA"/>
		<stop  offset="0.2356" style="stop-color:#EAEAEA"/>
		<stop  offset="0.3806" style="stop-color:#D1D1D1"/>
		<stop  offset="0.4027" style="stop-color:#CCCCCC"/>
		<stop  offset="0.9338" style="stop-color:#999999"/>
	</radialGradient>
	<path class="st18" d="M451,189c0.3,5.7,1.1,14,3,24c2.3,11.8,4.2,15.4,2,20c-2.2,4.5-5.6,4.2-21,12c-12.4,6.3-13.2,8-17,8
		c-10.6,0-18.8-13.6-23-22c2.5,10.8,5,21.7,7.5,32.5c-0.7,1.7-4.6,10.9-15,15c-8.7,3.5-16.4,1.2-18.5,0.5c-1.3-5-2.7-10-4-15
		c-1.1,6.1-1.6,14.1,0,23c0.4,2.3,0.9,4.5,1.5,6.5c-2,0.8-6.5,2.3-12,1c-10.2-2.4-14.1-12.6-14.5-13.5c5,12.7,4.3,17.1,2.5,18.5
		c-3.2,2.5-11.5-2.2-15.5,0.5c-0.5,0.4-2.8,2.1-5.3,1.6c0,0-0.1,0-0.2-0.1c-5.5-1.6-8.6-7.4-10-11c10.8-14.1,27-33.7,49-55
		c39.2-38,62.1-60.2,95.5-68.5c30.2-7.5,44.7,2.5,117,17c44.4,8.9,80.6,13.6,103,16c-2.8,7.2-5.7,14.3-8.5,21.5c-2,3.8-5.3,8.4-10,9
		c-4.8,0.6-6.3-3.7-12.5-4.5c-9-1.1-13.8,5.9-18,4c-2.9-1.3-5.3-7.1-2-28c-0.2,3-1.7,16.4-13,26c-6.5,5.5-13.3,7.3-17,8
		c-2.1-3.7-4.4-8.7-6-15c-2-7.6-2.2-14.3-2-19c-1.7,7.3-3.3,14.7-5,22c-1.5,2.3-4.9,6.5-10.5,8.5c-1.2,0.4-5,1.6-16-1
		c-12.3-2.9-19.4-4.5-22.5-10.5c-1.3-2.5-1.2-5.7-1-12c0.3-7.9,1.2-14.5,2-19c-0.4,6.4-1.9,14.2-6,22c-2.9,5.7-6.6,12.7-14,16
		c-4.6,2.1-6.5,0.8-17,1c-19.6,0.4-23.8,4.9-30,1c-3.5-2.3-5.4-7.2-9-17C454.4,203.1,452.3,194.7,451,189z"/>
	<radialGradient id="SVGID_12_" cx="422.9745" cy="324.6624" r="194.3187" gradientUnits="userSpaceOnUse">
		<stop  offset="0" style="stop-color:#FFFFFF"/>
		<stop  offset="0.1805" style="stop-color:#FAFAFA"/>
		<stop  offset="0.4072" style="stop-color:#EAEAEA"/>
		<stop  offset="0.6579" style="stop-color:#D1D1D1"/>
		<stop  offset="0.696" style="stop-color:#CCCCCC"/>
		<stop  offset="0.9338" style="stop-color:#999999"/>
	</radialGradient>
	<path class="st19" d="M476,474c2.3-38.2,9.3-47.9,15.5-49.5c3.2-0.8,5.4,0.7,13,0c11.7-1.1,15.3-5.5,20-5c5.8,0.6,13,8.5,19.5,40.5
		c1-8.5,0.6-15.3,0-20c-1.1-8.4-2.9-11-1-15c2.3-4.8,6.4-4.1,13-11c4.8-5.1,4.4-7.5,7-9c4.1-2.4,12.7-0.6,32,17
		c-15.8-18.2-17.1-25.7-15-29c1-1.6,2.8-2.3,7-7s4.3-6.2,6-7c2.8-1.3,8.2-0.1,20,12c-8.4-8.9-8.3-15.6-8-18c0.5-4.6,2.9-5.2,6-16
		c0.8-2.7,1.1-4.2,2.5-5.5c3.5-3.2,9.8-1.7,13.5-0.5c-6.6-6.5-7.5-11-7-14c0.4-2.7,1.8-3,3-7c2.1-6.9-0.3-11.4,1.5-12.5
		c1-0.6,3.1-0.3,8.5,4.7c0.7,9.9,4.9,87.6-53.5,138.3c-8.4,7.3-40.8,34.6-90,37c-13,0.6-48.5,1.9-82-21
		c-52.4-35.8-55.3-100.3-55.5-108.1c2.3-1.5,8.5-5.2,13.5-2.9c2.6,1.2,2.9,3.1,7,11c7.1,13.6,8.7,14.6,8,18c-0.8,3.9-3.5,4-9.5,12.5
		c-2.3,3.2-3.9,6.1-5,8c10-11.1,14.9-12.6,17.5-11.5c2.3,1,2.2,3.7,7,9c4,4.5,5.2,3.8,6,6c1.8,5.1-4.6,9-6.5,18.5
		c-0.8,4.1-0.4,7.6,0,10c5.5-19.2,11.1-24,15.5-24.5c2.1-0.3,3.1,0.6,10,1c8.6,0.5,10.7-0.5,12,1c2.5,2.9-2.5,9.2-5.5,18.5
		c-2.8,8.8-2.8,17.2-2,24c9.3-37.4,16.5-45.6,21.5-45.5c2.8,0,5,2.7,11,3c7.6,0.4,10.9-3.6,14-3C471.2,422.3,475.6,433.5,476,474z"
		/>
</g>
<g id="レイヤー_4">
	<path class="st20" d="M691,192c-11.1-23.1-45.2-11.1-108.5-29.5c-69.1-20.1-99.7-55.1-128-39c-10.5,6-16,16.3-19,24
		c-16.1-10.4-26.5-10.1-33-8c-22.4,7.3-16.8,42.8-49,87c-15.7,21.6-23.6,32.4-35,37c-3.2,1.3-10.7,3.9-15,11c-4.1,6.7-3.4,14.3-3,18
		c1.1,10.9,6.1,18.3,9,23c1.3,2,6.2,14.7,16,40c14.5,37.2,5.1,53.6,16.8,91c3.5,11.2,11,35.5,29.8,56.3
		c40,44.4,104.2,43.6,122.3,42.5c7.5-0.4,72.5-5.3,117.1-56.3c18.5-21.1,26.8-42.6,35.8-65.7c10.8-28,14.8-50.8,21.4-89.3
		c7.3-42.6,4-41.2,10.7-74.9C689.1,210.5,696.8,204.1,691,192z M642.5,298.5c-22.3,47.3-7.8,51.8-30,92c-9,16.3-21.1,38.1-46,56
		c-34.5,24.7-70.8,25.5-91,26c-24.9,0.6-52.7,1.2-76-17c-13.7-10.7-20.9-24.1-30-41c-15.5-28.8-8.3-32.4-23-56
		c-6.8-10.9-15.1-21-28-44c-6.6-11.7-9.7-18.5-7-24c3.9-8,16.3-5.8,30-10c22.6-7,27.5-24.9,49-48c8-8.7,31.8-34.2,63-44
		c24.5-7.7,23,4,97,9c61.4,4.1,92.2,6.2,93,6c2.7-0.6,12.9-3.3,19,2c1.1,1,4.4,4.2,5,12C669.3,241.7,644.1,295.1,642.5,298.5z"/>
	<radialGradient id="SVGID_13_" cx="372.5414" cy="152.7898" r="337.9897" gradientUnits="userSpaceOnUse">
		<stop  offset="0" style="stop-color:#FFCCCC"/>
		<stop  offset="5.807414e-02" style="stop-color:#FFCBC9"/>
		<stop  offset="9.704787e-02" style="stop-color:#FFC6C0"/>
		<stop  offset="0.1304" style="stop-color:#FFBFB1"/>
		<stop  offset="0.1606" style="stop-color:#FFB49C"/>
		<stop  offset="0.1884" style="stop-color:#FFA680"/>
		<stop  offset="0.2096" style="stop-color:#FF9966"/>
	</radialGradient>
	<path class="st21" d="M685.5,192.5c-12.3-22.1-39.8-10.5-103-30c-69.2-21.3-100.1-54.9-128-39c-10.5,6-16,16.3-19,24
		c-16.1-10.4-26.5-10.1-33-8c-22.4,7.3-16.8,42.8-49,87c-15.7,21.6-23.6,32.4-35,37c-3.2,1.3-10.7,3.9-15,11c-4.1,6.7-3.4,14.3-3,18
		c1.1,10.9,6.1,18.3,9,23c1.1,1.7,6,14.5,16,40c13.8,35.4,7,47.4,18,81c4,12.2,12.2,37.7,32,59c40.7,43.8,103.6,41.6,111.7,41.1
		c57.7-3,98.6-38.8,117.3-63.1c17.5-22.8,30.2-54.6,32-59c21.2-53.2,11.3-67.6,29-134C681.1,221.9,695.1,209.8,685.5,192.5z
		 M642.5,298.5c-22.3,47.3-7.8,51.8-30,92c-9,16.3-21.1,38.1-46,56c-34.5,24.7-70.8,25.5-91,26c-24.9,0.6-52.7,1.2-76-17
		c-13.7-10.7-20.9-24.1-30-41c-15.5-28.8-8.3-32.4-23-56c-6.8-10.9-15.1-21-28-44c-6.6-11.7-9.7-18.5-7-24c3.9-8,16.3-5.8,30-10
		c22.6-7,27.5-24.9,49-48c8-8.7,31.8-34.2,63-44c24.5-7.7,23,4,97,9c61.4,4.1,92.2,6.2,93,6c2.7-0.6,12.9-3.3,19,2
		c1.1,1,4.4,4.2,5,12C669.3,241.7,644.1,295.1,642.5,298.5z"/>
	<path class="st22" d="M468.4,509.6c-45.7-2.2-81.2-25-84.1-27.1c-20.6-14.2-33.3-29.4-36.3-33.1c5,13.2,13.2,30.7,27.5,46.1
		c40.7,43.8,103.6,41.6,111.7,41.1c57.7-3,98.6-38.8,117.3-63.1c17.5-22.8,30.2-54.6,32-59c21.2-53.2,11.3-67.6,29-134
		c12.2-45.8,23.4-63.2,23.1-76.9c-0.3,0.7-0.7,1.7-1.2,3c-61.4,159.9-43.5,201.1-85.2,247.9C567.5,493.6,513.5,511.7,468.4,509.6z"
		/>
</g>
<g id="rightHand">
	<path class="st8" d="M315.3,344.3c-14.8,11.4-22,22.9-25.8,31.2c-9.7,20.9-8.3,42.9-17,71c-8.1,26-13,26.7-22,57
		c-8.2,27.6-12.2,41.7-7,53c1.2,2.6,2.6,4.6,4.2,6.2c16.6,16.6,31.8,13.9,53.8,26.8c18.5,10.8,13.9,18.4,39.3,35.8
		c9.9,6.7,14.5,8.3,22.2,16.1c8,8.1,10.9,14.4,16.7,14.2c4.6-0.1,5-4.1,14.2-9.1c8.4-4.5,13.8-4.4,13.9-6.5
		c0.1-2.4-6.5-5.1-12.2-5.3c-7.5-0.3-13.1,3.7-15.5,5.5c-1.8-2.7-4.4-5.9-7.9-9.1c-3.2-2.9-6.3-5.1-8.9-6.6
		c-3.5-4.7-7-9.4-10.4-14.1c4.8,2.5,35.7,19,57.6,28.1c3.1,1.3,8.2,3.3,14,2c6.1-1.4,7.5-5.4,17-14c10.7-9.7,16.8-12,16-15
		c-0.9-3.2-8.1-4.3-13-4c-12.9,0.8-20.9,12.5-22.7,15.2c1.1,2.2,2.2,4.4,3.3,6.5c-1.5-2-3.8-4.7-7.2-7c-6.4-4.3-12.9-5-15.9-5
		c-11.7-5.8-23.4-11.6-35.1-17.4c43.2,15.2,57.8,14.8,62.3,10.5c0.6-0.5,4.8-4.7,11-10c3.4-2.9,5-4.3,7.2-5.9
		c10.1-7.3,16.4-7.9,16.4-10.4c-0.1-2.7-7.5-5.6-14.3-5.5c-13.3,0.2-22.1,12.2-24.1,15c-6.4,0.1-14-0.2-22.4-1.6
		c-12.3-2.1-22.3-5.8-29.8-9.2c5.1,0.1,13,0.6,22.6,2.5c11.5,2.3,14.4,4.4,19.7,2.8c7.6-2.2,7.4-7.9,18-16.6
		c11.5-9.5,20.5-9.9,20.1-13c-0.5-3.6-13.4-7.3-24.1-3c-8.9,3.6-13,11.7-14.3,14.5c-4.2-1.5-9.4-2.9-15.4-3.8
		c-5.5-0.8-10.4-1-14.5-0.9c-10-5.1-20-10.2-30-15.4c18.7,1.8,33.8-4.5,37.7-14.9c2.5-6.7,0.6-16-3.4-17.5
		c-5.2-1.8-9.9,10.8-22.4,12.1c-6.2,0.7-7.9-2.1-14-2.3c-6.2-0.2-15.2,2.3-26.6,15.2c-6-7.3-12-14.7-18-22c2.3-11.9,5.5-25,10-39
		c5.5-17.1,11.8-32.2,18-45c-0.4-15.8-2.5-35.6-8.7-57.7C324.2,365.6,319.8,354.1,315.3,344.3z"/>
	
		<radialGradient id="SVGID_14_" cx="291.3694" cy="433.4522" r="226.104" fx="290.4697" fy="450.747" gradientUnits="userSpaceOnUse">
		<stop  offset="0.281" style="stop-color:#FFFF99"/>
		<stop  offset="0.7228" style="stop-color:#FFFF33"/>
		<stop  offset="0.9539" style="stop-color:#CCCC00"/>
	</radialGradient>
	<path class="st23" d="M317.9,342.4c-16.6,12-24.4,24.3-28.4,33.1c-9.4,20.6-8.4,43.3-17,71c-8.1,26-13,26.7-22,57
		c-8.2,27.6-12.2,41.7-7,53c1.2,2.6,2.6,4.6,4.2,6.2c16.6,16.6,31.8,13.9,53.8,26.8c18.5,10.8,13.9,18.4,39.3,35.8
		c9.9,6.7,14.5,8.3,22.2,16.1c8,8.1,10.9,14.4,16.7,14.2c4.6-0.1,5-4.1,14.2-9.1c8.4-4.5,13.8-4.4,13.9-6.5
		c0.1-2.4-6.5-5.1-12.2-5.3c-7.5-0.3-13.1,3.7-15.5,5.5c-1.8-2.7-4.4-5.9-7.9-9.1c-3.2-2.9-6.3-5.1-8.9-6.6
		c-3.5-4.7-7-9.4-10.4-14.1c4.8,2.5,35.7,19,57.6,28.1c3.1,1.3,8.2,3.3,14,2c6.1-1.4,7.5-5.4,17-14c10.7-9.7,16.8-12,16-15
		c-0.9-3.2-8.1-4.3-13-4c-12.9,0.8-20.9,12.5-22.7,15.2c1.1,2.2,2.2,4.4,3.3,6.5c-1.5-2-3.8-4.7-7.2-7c-6.4-4.3-12.9-5-15.9-5
		c-11.7-5.8-23.4-11.6-35.1-17.4c43.2,15.2,57.8,14.8,62.3,10.5c0.6-0.5,4.8-4.7,11-10c3.4-2.9,5-4.3,7.2-5.9
		c10.1-7.3,16.4-7.9,16.4-10.4c-0.1-2.7-7.5-5.6-14.3-5.5c-13.3,0.2-22.1,12.2-24.1,15c-6.4,0.1-14-0.2-22.4-1.6
		c-12.3-2.1-22.3-5.8-29.8-9.2c5.1,0.1,13,0.6,22.6,2.5c11.5,2.3,14.4,4.4,19.7,2.8c7.6-2.2,7.4-7.9,18-16.6
		c11.5-9.5,20.5-9.9,20.1-13c-0.5-3.6-13.4-7.3-24.1-3c-8.9,3.6-13,11.7-14.3,14.5c-4.2-1.5-9.4-2.9-15.4-3.8
		c-5.5-0.8-10.4-1-14.5-0.9c-10-5.1-20-10.2-30-15.4c18.7,1.8,33.8-4.5,37.7-14.9c2.5-6.7,0.6-16-3.4-17.5
		c-5.2-1.8-9.9,10.8-22.4,12.1c-6.2,0.7-7.9-2.1-14-2.3c-6.2-0.2-15.2,2.3-26.6,15.2c-1.9-3.1-4.8-7.1-9-11
		c-5.5-5.1-11-8.1-14.9-9.9c1.3-3.8,3.3-9.5,5.5-16.5c4.4-13.8,6.7-22.9,7.9-27.2c2.9-10,8.5-24.1,20.5-41.4
		c-0.8-17-3.1-37-8.2-58.9C325.3,364.6,321.7,352.9,317.9,342.4z"/>
	<path class="st8" d="M-102.1,517.8"/>
</g>
</svg>
