<?xml version="1.0" encoding="utf-8"?>
<!-- Generator: Adobe Illustrator 24.1.2, SVG Export Plug-In . SVG Version: 6.00 Build 0)  -->
<svg version="1.1" id="レイヤー_1" xmlns="http://www.w3.org/2000/svg" xmlns:xlink="http://www.w3.org/1999/xlink" x="0px"
	 y="0px" viewBox="0 0 1000 1000" style="enable-background:new 0 0 1000 1000;" xml:space="preserve">
<style type="text/css">
	.st0{display:none;}
	.st1{display:inline;}
	.st2{fill:#333333;}
	.st3{fill:#003300;}
	.st4{clip-path:url(#SVGID_2_);}
	.st5{fill:#660000;}
	.st6{clip-path:url(#SVGID_6_);}
	.st7{fill:#330000;}
	.st8{fill:url(#SVGID_9_);}
	.st9{fill:url(#SVGID_10_);}
	.st10{fill:#FFFFFF;}
	.st11{fill:url(#SVGID_11_);}
</style>
<g id="background" class="st0">
	<g id="backgound" class="st1">
		<rect x="-49.5" y="-49.5" width="1099" height="1099"/>
		<path d="M1049-49v1098H-49V-49H1049 M1050-50H-50v1100h1100V-50L1050-50z"/>
	</g>
</g>
<g id="レイヤー_8_2_">
	<path class="st2" d="M896.5,722.4c-32.9,42.3-114.8,40.5-113.9,44.7c0.3,1.7,13-1.7,27.8,4.1c11.8,4.5,29.2,16.5,30.2,31.5
		c0.7,11.1-12.4,24.2-38.9,49.8c-18.3,17.7-23.2,20.3-26.1,29.6c-6.3,19.8,8.6,31,3.4,43.9c-10.7,26.4-90.6,25-94.8,9.5
		c-2.4-8.8,21.9-13.3,41.5-42.5c18.9-28.1,27.3-70.3,11.9-83.5c-13.7-11.7-33.1,10.3-72.2,5.1c-4.1-0.5-51.2-7.4-71.1-43.9
		c-20.6-37.7,1.8-82,9.6-97.3c20.5-40.6,54.9-61.2,88-81c29.5-17.5,54.1-25.9,63.6-28.9c40.3-12.8,76-24.2,104.8-10.8
		C912.5,577.1,931.9,676.8,896.5,722.4z"/>
	<path class="st3" d="M733.8,938.8c13-1.9,27.5-4.1,34.7-14.8c9.1-13.7-4.6-25.1,2.3-45.6c1.2-3.5,3.5-8.6,31.8-35
		c26.5-24.5,34.8-29.5,34.2-39c-0.6-11-12.5-18.9-18.7-22.9c-15.9-10.4-32.4-9.5-38.5-8.8c-4.3-2-12.9-6.7-19.7-16.3
		c-10.2-14.5-8.8-30-8.4-34.1c0.9,6,3.8,18.3,13.4,29.7c5.3,6.1,10.8,10.1,15,12.5c6.6-0.7,16.2-2.1,27.5-4.4
		c24.4-4.9,45.6-9.1,60.9-18.8c37.5-23.5,40.1-79.1,40.2-83.5c1.4-38.1-16.2-87.4-54.4-103.1c-7.5-3-24.9-8.7-77.9,7.9
		c-57.5,18.1-125,39.2-163.6,103.6c-11.9,19.8-34.9,58.2-19.8,93.6c14,33.1,58.5,57.8,94,51.9c21.1-3.5,39.5-18,52.9-8.6
		c5.9,4.1,7.9,10.9,10,17.9c5.1,16.9,0.4,31.6-4.2,46.6c-3.8,12.3-8.9,28.9-23.1,44.1c-13.4,14.5-25.6,17.6-24.4,22.7
		C699.7,940.5,720.2,940.8,733.8,938.8z"/>
</g>
<g id="レイヤー_9_2_">
	<path class="st2" d="M963.5,595.4c-17.2-32.3-41.6-48.9-47.1-52.6c-31.1-20.6-61.9-23.2-75.1-23.5c-5-4.7-10.2-9.5-15.7-14.3
		c-16.7-14.4-33.2-26.4-48.9-36.5c-12.2-15.3-42.1-48.4-91.8-63.7c-67.2-20.7-139.7,0.7-187.4,45.6
		c-48.6,45.7-58.1,103.3-60.3,122.4c-10.2,6.5-31.1,21.7-44.1,49.2c-22.6,47.7-3.6,93.6-0.4,101.2c25.1-10.1,50.3-20.2,75.4-30.3
		c-1.8,9.6-4.6,20.5-8.9,32.2c-8.1,21.6-18.7,38.2-27.7,50c12.3,12.6,63.7,62.3,143.6,65.1c46.8,1.7,83-13.5,101.4-23
		c17.6,21.2,44,29.6,51.5,32c54.3,17.2,97.7-12.2,106.9,2.7c7.6,12.5-17,42.1-35.1,63.9c-31.7,38.1-51.1,44.7-48.5,54.8
		c5.8,22.1,107,24.4,118-4.5c4.9-12.8-11.2-23.5-6.3-47.2c3.2-15.4,13.1-25.9,21.6-35c22.8-24.2,41-23.1,44.1-38.9
		c3.1-15.6-11.1-30.1-12.8-31.7c-11.4-11.3-25.3-12.4-28.8-12.6c11.1-1.7,41.6-7.8,65-33.9c20.7-23,24.1-48.6,27.2-70.7
		C981.4,680.4,986.5,638.7,963.5,595.4z"/>
	<path class="st2" d="M539.8,495.7c6.6,2.8,22.4,10.6,31.8,27.2c2.4,4.2,6.2,11.1,6.6,21c0.1,2.5,0.1,8.9-2.7,16.4
		c-5.3,13.9-16.4,20.6-19.7,22.6c-10.7,6.4-21.1,6.7-27.1,6.9c-5.4,0.2-9.8-0.3-12.9-0.7c-5.5,4.2-13.3,10.8-21.7,19.8
		c-20.2,21.7-26.6,40.1-35,54.1c-1.6,2.6-37,60.7-79.1,62.7c-39.3,1.9-43.1-47.1-98.3-57.9c-38.5-7.5-63.3,11.1-84.9-8.1
		c-15.9-14.1-16.5-35.4-16.5-36.4c0-7.7,2-20.6,24.1-45c25.4-28,52.8-44.1,69.1-52.7c34.2-17.9,40.1-13.2,77.9-31.8
		c24.4-12,44-21.6,62.7-38.7c41-37.3,51.8-86.5,56.9-109.5c12.1-54.9,2.2-100.9-4.9-125.2c-5.6,18-33.4,100.8-118.3,144.8
		c-79.4,41.2-178,32.6-256-21.2c-9.1,53-4.7,93.5,1.4,121.3c5.9,26.8,11.3,33.2,14.6,59.4c5.8,47.7-8.2,62.1-8.6,104.8
		c-0.2,18.3-0.1,73.2,36.5,119.7c37.6,48,92,59.5,105.9,62.4c37.7,7.5,68.8,1.2,86.1-2.8c35.1-7.9,46.2-18.3,68.7-26.3
		c88.2-31.1,151.8,45.9,213.7,14c15-7.8,35.3-24.7,49.1-67.1c-52.3-111.5-67.9-154.6-66.6-164.6c0.1-0.5,0.2-5,0.6-11.1
		c0.3-4.5,0.4-13.7-4.3-23.6c-4.6-9.7-11.4-15-18.6-20.3C564.4,505.5,554.4,499.2,539.8,495.7z"/>
	<path class="st2" d="M466.1,220.6c-14.8,88.1-77.4,144.8-81.9,149.4c0,0-78.2,69.6-186,64c-26.8-1.5-44.3-9.3-48.7-11.4
		c-29-13.7-44-35.3-47-39.9c-17.5-26.3-18.9-52.4-18.9-62.3c-0.1-31.4,12.9-53.8,18.4-62.1c2.2,0.4,14.8,2.8,26.5-5.5
		c13.5-9.7,14.2-25.4,14.2-27.1c-9-12.2-19-27.6-27.9-46.4c-6.5-13.8-11.3-26.7-14.9-38.1c28.9-72,92-122.3,163.2-128.3
		c77-6.5,131.9,41.5,142.1,50.4c12.6,11,55.7,48.6,63.1,108.9C468.6,176.4,470.6,193.9,466.1,220.6z"/>
	<g>
		<g>
			<defs>
				<path id="SVGID_1_" d="M896.1,810.9c-16.5-9.8-26.7-1.8-51.2-4.9c-25.8-3.4-60.6-18.4-64.9-41.6c-0.8-4.9-1.2-14.6,8.7-28.4
					c-0.7,4.1-1.7,12.2,1.2,21.6c3.2,10.6,9.1,17.3,12.2,20.3c8.8,5.6,44.8,26.8,83.8,15.2c53.2-15.8,71.6-80.5,71.4-121.1
					c-0.3-62.6-45.4-125.7-96.9-133.9c-9.1-1.4-17.1-0.9-23-0.1c-8.6-7.3-17.6-15.4-26.8-24.5c-9-8.9-17.1-17.7-24.3-26
					c-1.2-1.4,16.3,20,21.2,46c3.9,21.2-1.9,40.7-8.9,55.5c0.3-13.4-1.1-36.9-12.6-63c-8.8-20.1-20.5-34.3-28.9-43.1
					c0-0.4,0.4-8.7-6.4-13.2c-5.5-3.7-11.5-2.1-12.4-1.8c-8.5-10.1-36.7-41.3-83.9-50.7c-41.9-8.4-77,4.8-87.7,8.9
					c0,0-3.5,1.4-6.8,2.8c-92.7,40.4-110.7,146.4-111.8,154.4c-5.2,3.7-11.8,8.9-18.4,15.9c-3.5,3.7-11.4,12.7-18.8,26.5
					c-8.3,15.6-20.2,38.1-14.4,64.2c1.5,6.6,4.6,16,12.3,26.3c15.2-8.1,33.8-19.8,52.7-36.7c26.4-23.7,43.2-48.4,53.6-66.6
					c-5.3,17.1-16.2,44.3-39.5,70.6c-24,27-48.8,39.1-61.9,45.6c0,0-26.1,12.8-48.1,11.2c-5.1-0.4-9.7-1.7-9.7-1.7
					c-2.6-0.7-5.5-1.8-9-3.6c-16.2-8-23.4-22.7-42.2-35.1c-2.6-1.7-5.1-3.2-7.6-4.5c0,0-8.8-4.7-19.2-7.9
					c-10.2-3.1-37.9-5.6-74.3-0.4c-4.7,0.4-11,1.4-17.8,4.1c-13,5.2-21.1,13.7-25,18.6c0.2-3.1,1-10.3,6.2-16.7
					c3.4-4.3,7.5-6.5,9.1-7.4c3.3-1.8,6.3-2.7,8.4-3.2c-3.9-2.2-9.4-5.8-14.5-11.5c-16.9-18.7-16-43.9-15.2-52.3
					c0-0.1,0.1-1.1,0.2-2.2c1.3-11.6,7.8-34.1,41.8-65.8c-0.8,0.2-18.1,3.2-29-9.4c-7.3-8.5-7.1-18.5-7-21c3,3,13.8,12.7,30.8,14.2
					c18.9,1.7,32.2-7.8,35.3-10.2c7.2-3.7,18.3-9.5,32-16.4c87.5-44.4,95.6-43.5,114.3-58.8c19.1-15.6,49.6-41.2,69-85.2
					c3.5-7.8,20.7-47.2,18.4-99.7c-0.4-9.2-1.3-16.9-2.1-22.3c-2.6,14.5-8.1,35.2-20.3,57.5c-15,27.5-33.8,45.4-46.2,55.7
					c12.8-17.6,27.3-40.9,39.9-69.8c11.8-27,18.9-51.9,23.2-72.2c1.1-8.7,1.9-21.8-0.3-37.3c-1-6.8-2.6-13.7-4.8-20.8
					c-17.3-54.9-60-83.1-75.1-93c-13.3-8.7-69.9-46.4-139-30.8C186.8,42.2,155,75.2,142,88.8c-18.2,18.7-29.7,37.4-37,51
					C121.8,129,169.6,101,232.6,107C341.9,117.3,394.5,219.9,398,226.9c-47.2,67.1-121.8,103.5-193.1,92.4
					c-49.9-7.8-83.8-36.5-99-51.7c-3.5,7-24.5,52.1-2.9,90.3c1.3,2.3,2.7,4.4,4.1,6.4c15.8,15.7,51.3,46.6,105.2,57.1
					c21.9,4.3,41.4,4.2,56.7,2.7c-10.1,6.6-34.3,20.5-66.4,19c-62.4-2.9-95.3-60.8-97.5-64.8c-0.8,35.3,1.6,61.7,4,71.9
					c2,8.4,4.2,14.1,4.2,14.1c3.1,8.3,6,11.7,10,26.9c21.1,80-24.6,112.5-4.5,177.2c12.1,38.7,39.8,63.7,53.8,76.3
					c14,12.6,38,33.8,75.7,43.3c38.2,9.7,70.9,2.2,95.1-3.4c6.8-1.6,12.6-3.2,17.6-4.7c16.4-5.1,27.8-10,30.5-11
					c29.5-12.2,81.1,1.9,81.1,1.9c0.4,0.1,0.9,0.3,1.6,0.4c27.3,7.4,58.5,10.7,75.8,8.4c44.2-5.9,74.5-59.3,78.5-66.6
					c-2.8,9.6-19.7,63.5-64.5,78.4c-24.7,8.2-52.3,2.7-76.1-2.1c-17.9-3.6-32.3-8.6-42-12.4c11.4,9.8,86.1,71.9,169.4,49.8
					c12.5-3.3,27.8-9.3,44-20.2c-38.4-54.2-26.7-122.3,13.6-150.7c27.6-19.5,67.5-19.5,102.1-2.2c-38-11.9-79.5,2.3-102.1,34.8
					c-22.2,31.9-21.5,74.7,1.7,106.2c0.2,0.3,0.4,0.9,0.7,1.5c10.7,22.3,30.1,32.2,39.7,37.4c19.3,10.3,37.3,11.6,48.4,12.2
					c42.4,2.7,66.4-14,76.9-1.8c5,5.9,4.1,15,3.5,21.1c-1.1,10.3-5.6,17.3-14.5,29.4c-17.9,24.4-63,67.3-62,71.2
					c3.8,13.9,67,15.2,81-10.5c7.9-14.4-6.6-24.5,1.2-45.3c5-13.5,18.3-24.3,44.8-45.7c14.5-11.8,21.1-15.5,21.9-23.7
					C917.3,828.5,906.2,816.8,896.1,810.9z"/>
			</defs>
			<clipPath id="SVGID_2_">
				<use xlink:href="#SVGID_1_"  style="overflow:visible;"/>
			</clipPath>
			<g class="st4">
				<g>
					<defs>
						<rect id="SVGID_3_" x="88.4" y="22.3" width="873.8" height="958"/>
					</defs>
					<clipPath id="SVGID_4_">
						<use xlink:href="#SVGID_3_"  style="overflow:visible;"/>
					</clipPath>
					<g style="clip-path:url(#SVGID_4_);">
						
							<image style="overflow:visible;" width="2428" height="2662" xlink:href="A90CA528E67EC7B7.jpg"  transform="matrix(0.36 0 0 0.36 88.2 22.24)">
						</image>
					</g>
				</g>
			</g>
		</g>
	</g>
	<path class="st5" d="M111.6,146.2c18.3-9.9,62.6-30.3,119.4-23.7c99.3,11.8,150.1,96.9,156,107.4c-6.1-3.4-14.7-7.8-25.1-12.2
		c-43.2-18.2-81.1-20.3-97.5-20.5c-49.8-0.7-88.5,13.1-109.8,22.6c-8.2-8.5-18.1-20.4-27-36C119.7,169.7,114.8,156.7,111.6,146.2z"
		/>
	<g>
		<g>
			<defs>
				<path id="SVGID_5_" d="M381.5,247.9c7,49.4,3.1,62.8-2.4,64.7c-7.2,2.5-17.3-14.2-24.3-11c-10,4.7,1.3,41.1-10.5,46.7
					c-4.2,2-9.9-0.7-15.7-3.4c-9.9-4.7-11.3-10-17.3-13c-13.4-6.7-38.7,3.8-40.6,15.9c-2.3,14.5,30.8,22.4,30.2,42.8
					c-0.3,9.2-7.4,18.9-16.5,21.7c-8.5,2.6-19.2-0.8-25.1-7.8c-14.8-17.6,4.2-54.1-6.9-59.1c-0.2-0.1-0.3-0.1-0.8-0.3
					c-7-2.5-48-17.6-46.2-29.2c2.8-18.3,107.3,4.8,167.4-57.7C376.7,254,379.6,250.4,381.5,247.9z"/>
			</defs>
			<clipPath id="SVGID_6_">
				<use xlink:href="#SVGID_5_"  style="overflow:visible;"/>
			</clipPath>
			<g class="st6">
				<g>
					<defs>
						<rect id="SVGID_7_" x="200.3" y="242.9" width="190" height="175.2"/>
					</defs>
					<clipPath id="SVGID_8_">
						<use xlink:href="#SVGID_7_"  style="overflow:visible;"/>
					</clipPath>
					<g transform="matrix(1 0 0 1 0 -1.525879e-05)" style="clip-path:url(#SVGID_8_);">
						
							<image style="overflow:visible;" width="529" height="488" xlink:href="A90CA528E67EC7B5.jpg"  transform="matrix(0.36 0 0 0.36 200.16 242.56)">
						</image>
					</g>
				</g>
			</g>
		</g>
	</g>
	<path class="st7" d="M110,266.4c15,12,55.3,41,113.2,43.2c95.3,3.6,155.3-68.7,162.2-77.4c-23.9-11.5-44.6-17.3-58.8-20.4
		c-83.8-18.3-162.4,7.9-178.2,29.3c-1.5,2-7.1,10.3-17.7,17C122.9,263,115.4,265.3,110,266.4z"/>
	<path class="st2" d="M183.9,188.5c2.2-0.8,23.5-8.9,49.7-8.8c38.7,0.1,116.4,15.8,126.5,59.2c3.5,15-2,29.3-3.8,34
		c-8.3,21.7-25.7,33-37.2,40.1c-26.1,16.3-34.4,8.4-52.7,19.6c-30.2,18.7-19.1,47.4-48.1,82.1c-4.8,5.8-39,45.5-84.5,42.5
		c-47-3.2-74.3-49.8-82.9-64.5c-26-44.4-31.5-106.1-11.7-116.8c21.5-11.7,64.2,41.6,83.4,27.8c6.4-4.6,2.8-11.1,9.3-41.2
		c5.8-26.8,10.2-46.1,26-60.2C165.7,195.5,173.5,192.5,183.9,188.5z"/>
	<linearGradient id="SVGID_9_" gradientUnits="userSpaceOnUse" x1="332.0959" y1="223.2327" x2="67.723" y2="359.1057">
		<stop  offset="0" style="stop-color:#660000"/>
		<stop  offset="0.5318" style="stop-color:#9D0404"/>
		<stop  offset="1" style="stop-color:#FF6666"/>
	</linearGradient>
	<path class="st8" d="M182.7,194.1c13.3-8.1,32.2-13.4,36-8.2c2.5,3.5-2.4,10.5-5.6,15.9c-16.9,28.5-9.5,50.4-16.5,76.6
		c-4.5,16.7-16.1,39.5-48.6,62.9c50.4-19.8,65.5-42.7,70.1-59.9c5.9-21.8-3.2-42.5,12.9-69c3.8-6.2,10.1-16.3,22.1-21.1
		c7.9-3.2,19.5-0.7,42.5,4.2c5.8,1.3,34.2,8,46.5,20.4c1.2,1.2,2.1,2.3,3,3.6c0,0,6.6,8.8,8.4,21.1c1.6,11-5.4,31.9-22.7,46.6
		c-25.7,21.7-54.6,13.1-86.1,37.8c-4.3,3.4-7.1,6-8.3,7.4c-9,11.1-7.7,24.9-23,45.1c-4.7,6.2-26.9,35.3-60.7,39.2
		c-39.1,4.4-68.8-27.6-77-36.5c-31.3-33.8-42.2-84.5-30-92.6c13.8-9.1,49.5,40.3,75,28.2c12.2-5.8,17.1-23.2,23.5-45.7
		c6.7-23.6,2.8-30.2,11.6-46.7C159.3,216.5,167.5,203.4,182.7,194.1z"/>
</g>
<g id="レイヤー_4_2_">
	<g id="レイヤー_5_2_">
		<g id="レイヤー_7_2_">
			<path class="st2" d="M580.5,565.3c-8.2,21.5-30.9,37.1-53.1,33.9c-20.9-2.9-32.4-21.1-35.1-25.4c-2.6-4.1-10.4-16.7-8.9-33.6
				c0.5-6,3.3-25.4,20.8-37.4c0.2-0.1,0.5-0.3,0.9-0.6c14.9-9.3,31.2-7.2,34.8-6.7c3.8,0.6,18.1,2.9,29.7,14.9
				C582.8,524.4,587.7,546.3,580.5,565.3z"/>
			<linearGradient id="SVGID_10_" gradientUnits="userSpaceOnUse" x1="533.0168" y1="543.5931" x2="571.0928" y2="588.3884">
				<stop  offset="0" style="stop-color:#FFFFFF"/>
				<stop  offset="0.3789" style="stop-color:#CCFFFF"/>
				<stop  offset="0.9726" style="stop-color:#99CCCC"/>
			</linearGradient>
			<path class="st9" d="M569.1,572.6c-14.1,17.6-38.5,13.8-39.8,13.5c-17.9-3.2-36.2-18.3-37.1-39.6c-0.6-16.6,9.5-32.3,24.7-39.1
				c17.2-7.7,36.5-2,48,10.1C578.8,532.1,581.8,556.7,569.1,572.6z"/>
			<path class="st2" d="M535.8,545.3c-2.3,13.5-16.3,20.1-17.9,20.7c-3.3,1.5-13.1,5.9-20.2,1.3c-8.3-5.4-8.2-20.6-5.6-30
				c0-0.2,0.1-0.3,0.1-0.4c1.7-6,8.2-23.1,17.2-25.2C520.1,509.3,538.8,527.7,535.8,545.3z"/>
			
				<ellipse transform="matrix(0.7071 -0.7071 0.7071 0.7071 -224.8286 512.3798)" class="st10" cx="506.1" cy="527.6" rx="9.6" ry="9.6"/>
		</g>
		<g id="レイヤー_6_2_">
			<path class="st2" d="M747.9,571.8c-8.4,29.9-44.2,45.9-73.8,35.8c-28.6-9.8-47.5-42.5-37.1-71.3c9.2-25.8,38.4-38.6,63.1-34.3
				C731.1,507.4,756.8,540.1,747.9,571.8z"/>
			<linearGradient id="SVGID_11_" gradientUnits="userSpaceOnUse" x1="648.9528" y1="527.0071" x2="717.1979" y2="585.3363">
				<stop  offset="0" style="stop-color:#FFFFFF"/>
				<stop  offset="0.1593" style="stop-color:#F6FFFF"/>
				<stop  offset="0.4161" style="stop-color:#DEFFFF"/>
				<stop  offset="0.5782" style="stop-color:#CCFFFF"/>
				<stop  offset="0.8764" style="stop-color:#A6D9D9"/>
				<stop  offset="0.9711" style="stop-color:#99CCCC"/>
			</linearGradient>
			<path class="st11" d="M724.8,568.1c-0.6,4-2.4,14.8-11.1,22.2c-19.3,16.5-56.7,4.4-68.6-13.7c-0.2-0.3-0.4-0.6-0.6-1.1
				c-3.2-5-13.4-23.2-6.4-37.5c0,0,0.4-0.8,1.1-1.8c7.2-12.1,34.5-31.6,61-18.5C720,527.7,727.7,550.3,724.8,568.1z"/>
			<path class="st2" d="M683.5,551.2c-1.1,18.3-26.4,31.1-39.1,24.4c-9.2-4.9-9.8-19.4-9.9-21.4c-0.4-12.1,5.8-29,18.7-31.6
				C667.8,519.6,684.4,535.8,683.5,551.2z"/>
			<circle class="st10" cx="649.5" cy="541.7" r="9.6"/>
		</g>
	</g>
</g>
<g id="レイヤー_2">
	<path class="st2" d="M592.1,618.2c-1.3-2.2-5.5-9.3-14.5-13.3c-8.3-3.6-15.8-2.4-18.4-1.8c2.5,2.7,6.4,6.4,11.9,9.3
		C579.6,617.2,587.7,618,592.1,618.2z"/>
	<path class="st2" d="M612.3,618.2c1.3-2.2,5.5-9.3,14.5-13.3c8.3-3.6,15.8-2.4,18.4-1.8c-2.5,2.7-6.4,6.4-11.9,9.3
		C624.8,617.2,616.7,618,612.3,618.2z"/>
	<path class="st2" d="M552.2,480.4c0,0-51.1-8.6-53.1,10.7C499.1,491.1,500.1,454,552.2,480.4z"/>
	<path class="st2" d="M696,481.3c28.5-12.7,51.4-13.4,57.3-4c1.1,1.7,4,7.5-3,21.2c1.2-6.3-0.1-10.1-1.3-12.3
		C742.9,475.4,721.5,472.4,696,481.3z"/>
</g>
</svg>
