<?xml version="1.0" encoding="utf-8"?>
<!-- Generator: Adobe Illustrator 24.1.2, SVG Export Plug-In . SVG Version: 6.00 Build 0)  -->
<svg version="1.1" id="レイヤー_1" xmlns="http://www.w3.org/2000/svg" xmlns:xlink="http://www.w3.org/1999/xlink" x="0px"
	 y="0px" viewBox="0 0 1000 1000" style="enable-background:new 0 0 1000 1000;" xml:space="preserve">
<style type="text/css">
	.st0{fill:#FFFFFF;}
	.st1{fill:#333333;}
</style>
<g id="background">
	<g id="backgound">
		<rect x="-49.5" y="-49.5" class="st0" width="1099" height="1099"/>
		<path d="M1049-49v1098H-49V-49H1049 M1050-50H-50v1100h1100V-50L1050-50z"/>
	</g>
</g>
<g id="レイヤー_8">
	<path d="M892,631.5c-34.5,44.5-120.5,42.6-119.7,47c0.3,1.8,13.7-1.8,29.3,4.3c12.4,4.8,30.7,17.3,31.7,33.1
		c0.8,11.7-13.1,25.4-40.8,52.3c-19.2,18.6-24.3,21.2-27.5,31.1c-6.6,20.9,9.1,32.5,3.5,46.1c-11.3,27.7-95.2,26.2-99.6,10
		c-2.5-9.2,23.1-14.1,43.6-44.7c19.8-29.6,28.6-73.8,12.4-87.7c-14.3-12.3-34.7,10.8-75.9,5.4c-4.3-0.6-53.8-7.7-74.7-46.1
		c-21.6-39.6,1.9-86.2,10-102.3c21.5-42.7,57.7-64.3,92.4-85c31-18.4,56.9-27.2,66.8-30.4c42.4-13.5,79.9-25.4,110.1-11.3
		C908.8,478.9,929.2,583.6,892,631.5z"/>
	<path class="st0" d="M718.4,861.6c13.4-1.5,39.7-4.5,46.5-20.5c5.5-12.8-7.2-20.5-4.9-38.6c1.6-12.4,9.1-18.6,33.4-43.8
		c24.5-25.4,36.6-29.8,36-41c-0.6-11.6-13.2-19.8-19.6-24c-16.6-10.9-34.1-9.9-40.4-9.3c-4.5-2.1-13.6-7-20.7-17.1
		c-10.7-15.3-9.3-31.5-8.8-35.9c1,6.3,3.9,19.2,14.1,31.2c5.5,6.4,11.3,10.6,15.7,13.2c6.9-0.8,16.9-2.2,28.9-4.6
		c25.6-5.2,47.9-9.6,64-19.8c39.3-24.7,42.1-83,42.3-87.7c1.4-40-17-91.7-57.1-108.3c-7.8-3.2-26.2-9.1-81.8,8.3
		c-60.4,18.9-131.3,41.1-171.8,108.8c-12.5,20.8-36.6,61.1-20.9,98.3c14.7,34.7,61.4,60.7,98.7,54.5c22.2-3.6,41.5-18.9,55.5-9
		c6.2,4.3,8.3,11.4,10.5,18.7c6,20.4-0.5,38.6-4.4,49c-9.5,25.4-26.6,41.4-33.6,47.7c-16.7,15.1-28.9,17-28,22.3
		C673.2,861.4,698.8,863.8,718.4,861.6z"/>
</g>
<g id="レイヤー_2">
	<path d="M765.7,371.9c-29.2-26.4-46.1-41.7-72.9-53.1c-17.9-7.6-37.2-12.6-57.5-14.7C525.9,293,428.1,372.7,417,482.1
		c-11.1,109.4,68.6,207.2,178,218.3c28.3,2.9,55.8-0.3,81.2-8.5c13.8,11.6,29.4,21.2,46.3,28.3c0,0,25,10.5,52.4,13.3
		c52.9,5.4,118-275.8,107.7-276.6c-27.4-11.2-45.2-21.5-54.9-27.7C820.3,424.7,818.2,419.4,765.7,371.9z"/>
	<path class="st0" d="M662.6,313.7c-10-2.7-64.7-16.3-123.9,9.5c-65.4,28.4-117.6,96.6-118.4,177.7c-1,102.9,81.4,160.4,85.8,163.4
		c78.1,52.5,162,25.9,171.8,22.6c10.4,9,55.7,46.1,122.6,43.8c82.8-2.8,83.5-256.8,39-285c-37.1-23.5-66.3-63.2-66.2-63.3
		c0,0,0.1,0.1,0.1,0.1c1.8,2,18.4,23.6,25.4,40.6c3,7.2,8.3,23.7,4.2,48.9c-1.1-14.1-4.6-36.5-17.1-60.5
		c-2.5-4.8-10.6-19.7-27.6-37.7C745,360,714.3,327.5,662.6,313.7z"/>
</g>
<g id="レイヤー_4">
	<g id="レイヤー_5">
		<g id="レイヤー_7">
			<path d="M557.4,453.7c-4.1,24.8-27.7,43-53.2,39.8c-27.7-3.5-43.7-30.4-41.4-53.2c2.2-21.4,20-33.4,21.7-34.5
				c3.5-2.3,16.7-10.2,32.8-7.4C539.5,402.2,562.1,425.5,557.4,453.7z"/>
			<path class="st0" d="M548.1,474.2c-14.8,18.5-40.5,14.5-41.9,14.2c-18.8-3.3-38-19.2-38.9-41.6c-0.7-17.5,10-33.9,26-41.1
				c18.1-8.1,38.4-2.1,50.4,10.6C558.3,431.7,561.5,457.4,548.1,474.2z"/>
			<path d="M513.1,445.6c-2.5,14.2-17.1,21-18.8,21.8c-3.4,1.5-13.8,6.1-21.1,1.4c-8.7-5.7-8.6-21.6-5.9-31.5c0-0.2,0.1-0.3,0.1-0.4
				c1.8-6.3,8.6-24.3,18.1-26.4C496.7,407.8,516.3,427,513.1,445.6z"/>
			<circle class="st0" cx="481.9" cy="426.9" r="10.1"/>
		</g>
		<g id="レイヤー_6">
			<path d="M714.9,475.4c-8,24.7-33.5,39.3-56.5,35.5c-32.2-5.2-53.3-45.2-38.9-74.8c10.8-22.3,40-35.7,66.3-24.7
				C710.8,421.9,723,450.4,714.9,475.4z"/>
			<path class="st0" d="M711.7,469.4c-0.7,4.2-2.5,15.5-11.7,23.3c-20.3,17.3-59.5,4.6-72-14.4c-0.2-0.4-0.4-0.7-0.7-1.1
				c-3.3-5.3-14.1-24.3-6.7-39.3c0,0,0.4-0.9,1.1-1.9c7.6-12.7,36.3-33.2,64.1-19.4C706.6,427,714.8,450.7,711.7,469.4z"/>
		</g>
		<path d="M668.4,451.7c-1.1,19.2-27.7,32.7-41,25.6c-9.7-5.2-10.3-20.4-10.4-22.5c-0.5-12.7,6.1-30.5,19.7-33.2
			C651.8,418.6,669.3,435.5,668.4,451.7z"/>
		<circle class="st0" cx="632.6" cy="441.7" r="10.1"/>
	</g>
</g>
<path d="M529.5,402.4c4.5,2.2,14.3,8,21.2,19.6c5.9,10,6.8,19.3,7,22c0.6,8.3-1.2,14.6-1.6,16c-4.3,14.5-15.2,22.3-17.3,23.8
	c-18.6,12.9-40.1,5.6-42.4,4.8c-13.6,31.2-41.6,51.7-72.3,53.2c-30.7,1.5-65.3-16-66.6-33.8c-0.8-11.7,9.2-18.7,22.9-37.9
	c18-25.3,26.1-50.7,30.2-69c-16.9-0.7-57,0.1-99.2,24.1c-47.9,27.3-69.3,67.9-76.3,82.9c5.9,5.8,15.7,13.7,29.3,18.2
	c24,7.9,32.8-3.7,50.5,4.2c19.3,8.6,15.6,25.4,42.8,41.7c9.1,5.5,16.9,8,22.3,9.7c11.4,3.6,34.2,10.5,59.7,3.3
	c13.5-3.8,23.7-11.3,43.2-26.6c33.9-26.5,36.8-36.6,49.1-43.4c18.1-9.8,52-10,121.6,40.2c-7.7-9.3-20.3-23.3-38.4-37.6
	c-27.8-21.9-35.8-18.7-45.1-33c-16.5-25.5,0.8-51.9-19.8-70.5C542.8,407.9,535,404.3,529.5,402.4z"/>
<g id="レイヤー_3">
	<path d="M950.2,629.6c-4.7,19.7-10.6,44.2-32.6,63.5c-15.3,13.4-31.8,18.7-41.8,20.9c3.4,0.4,20.5,2.5,32.3,17.5
		c2.9,3.7,11.3,14.4,9.7,27c-1.8,13.7-14.1,17.4-43.6,43.7c-16.3,14.5-24.6,22-27.5,31.1c-6.6,20.9,9.1,32.5,3.5,46.1
		c-11.1,27.4-93,28.9-99.6,10c-3.2-9.4,14.2-16.9,43.6-54.3c19.5-24.9,44.8-57.2,36.4-70.6c-9.6-15.2-50.9,13.2-107.3-2.1
		c-12.1-3.3-49.9-13.5-67.3-46.1c-22.6-42.3,5.3-93,10-102.3c16.5-32.8,42.1-50,92.4-85c6.1-4.3,11.3-7.5,15.9-10.2
		c4.2-2.4,7.8-4.4,11.1-6.2c10.1-5.5,16.8-8.8,18.9-9.8c12.2-6.3,32.8-24.4,33.3-47.5c0.1-4.6-0.5-13.3-6.7-23.8
		c10.1-0.4,25.9,0.3,43.1,7.2c51.8,20.7,68.7,78.8,74.2,97.8C950.9,545.3,961.3,583.4,950.2,629.6z"/>
	<path class="st0" d="M829.9,437.9c-1.9-1-3.8-2-5.7-2.9c-3.3,38.8-16.8,57.1-28.5,66.5c-17,13.8-36,13.7-60.7,35.2
		c-10.4,9.1-17.4,18.2-21.6,24.2c-8.8,8-20.7,20-32.1,36.4c-10.2,14.6-20.4,29.3-25.3,51.1c-2.8,12.5-8.2,36.1,3.5,60.4
		c11.2,23.4,31.6,33.9,41.7,39.3c20.3,10.8,39.2,12.1,50.8,12.8c44.5,2.8,69.7-14.7,80.7-1.8c5.3,6.2,4.3,15.8,3.7,22.1
		c-1.1,10.8-5.9,18.2-15.2,30.9c-18.8,25.6-66.1,70.7-65,74.7c3.9,14.5,70.4,15.9,85-11.1c8.2-15.1-6.9-25.7,1.2-47.5
		c5.3-14.2,19.2-25.5,47.1-48c15.3-12.3,22.1-16.3,23.1-24.9c1.4-12.3-10.4-24.7-20.9-30.9c-17.3-10.2-28.1-1.9-53.8-5.2
		c-27.2-3.6-63.7-19.3-68.1-43.6c-0.9-5.1-1.2-15.3,9.2-29.7c-0.8,4.3-1.8,12.8,1.2,22.7c3.3,11.1,9.6,18.2,12.8,21.3
		c11.7,7.2,49.7,28.6,88,16c57.7-19,75.1-101.4,64.6-156.6c-8.7-45.9-42.4-102.5-91.4-111.1C844.3,436.6,835.8,437.1,829.9,437.9z"
		/>
</g>
<g id="レイヤー_9">
	<path d="M439.9,303.1c-0.3,145.4-164.2,203.9-205,205c-32.7,0.8-64-11-78.7-17.4c-0.8-0.3-1.5-0.6-2.1-0.9c0,0-2.6-1.2-5.1-2.4
		c-30.2-14.4-53.7-41.1-53.7-41.1c-8.8-10.1-22.7-26.2-31.2-51.8c-7.1-21.3-7.5-40.1-6.8-51.7c2.3,0.5,15.6,2.9,27.8-5.8
		c14.2-10.1,14.9-26.6,14.9-28.5c-9.5-12.8-19.9-29.1-29.3-48.7c-6.9-14.4-11.9-28-15.7-40c4.3-8.7,56.2-110.2,158.9-122
		C323.4,85.1,440.1,180.2,439.9,303.1z"/>
	<path class="st0" d="M208.9,104c51.5-7.5,92.7,11,109.1,19.7c75.3,40,130.8,140.7,101.9,232.3c-23,73.1-88.3,105.2-101.6,111.7
		c-61.2,30.1-146,33-198-9.2c-31.8-25.8-47.4-62.7-47.4-62.7c-7.2-17.1-10.1-32.5-11.4-43.2c18.6,11.2,40.9,21.2,66.8,27
		c119,27,220.7-53.9,240.1-69.8c-3.6-7.4-58.8-115.1-173.8-126c-66.2-6.3-116.4,23-134,34.5c7.1-13.7,19.2-33.6,38.8-53.6
		C113.7,150,150.3,112.5,208.9,104z"/>
	<path class="st1" d="M61.9,220.8c14.7-8.4,76.5-41.3,154.8-23.5c94.8,21.5,137.7,100.1,143.8,111.8c-32.1-8-72.3-15.2-118.8-17.2
		c-53.2-2.3-99,2.9-134.6,9.5c-8.2-9.4-17.6-21.8-26.4-37.2C71.7,248.1,65.8,233.1,61.9,220.8z"/>
</g>
</svg>
