<?xml version="1.0" encoding="utf-8"?>
<!-- Generator: Adobe Illustrator 24.1.2, SVG Export Plug-In . SVG Version: 6.00 Build 0)  -->
<svg version="1.1" id="レイヤー_1" xmlns="http://www.w3.org/2000/svg" xmlns:xlink="http://www.w3.org/1999/xlink" x="0px"
	 y="0px" viewBox="0 0 1000 1000" style="enable-background:new 0 0 1000 1000;" xml:space="preserve">
<style type="text/css">
	.st0{fill:#FFFFFF;}
</style>
<g id="background">
	<g id="backgound">
		<rect x="-49.5" y="-49.5" class="st0" width="1099" height="1099"/>
		<path d="M1049-49v1098H-49V-49H1049 M1050-50H-50v1100h1100V-50L1050-50z"/>
	</g>
</g>
<g id="レイヤー_8">
	<path d="M804.9,554.3c-37.5,48.4-131.1,46.3-130.2,51.2c0.4,2,14.9-1.9,31.9,4.7c13.5,5.2,33.3,18.9,34.5,36
		c0.9,12.7-14.2,27.6-44.4,56.9c-20.9,20.2-26.5,23.1-29.9,33.8c-7.2,22.7,9.8,35.4,3.8,50.2c-12.2,30.1-103.6,28.5-108.3,10.8
		c-2.7-10,25.1-15.3,47.4-48.6c21.5-32.2,31.2-80.3,13.5-95.4c-15.6-13.4-37.8,11.7-82.6,5.9c-4.7-0.6-58.6-8.4-81.3-50.1
		c-23.5-43.1,2-93.7,10.9-111.3c23.4-46.4,62.7-70,100.5-92.5c33.7-20,61.8-29.6,72.7-33c46.1-14.7,86.9-27.6,119.8-12.3
		C823.2,388.4,845.3,502.2,804.9,554.3z"/>
</g>
<g id="レイヤー_2">
	<path d="M717.6,270.8c-17.1-1.7-33.9-1.2-50.1,1.2c-34.9-40.3-84.6-67.9-141.9-73.7c-119-12.1-225.3,74.6-237.4,193.6
		s74.6,225.3,193.6,237.4c30.8,3.1,60.6-0.4,88.3-9.3c29.4,24.7,66.3,41.2,107.4,45.3c109,11.1,206.3-68.3,217.4-177.2
		C905.9,379.2,826.6,281.8,717.6,270.8z"/>
	<path class="st0" d="M555.3,208.7c-15-3.8-72.5-16.8-134.8,10.3c-71.1,30.9-127.9,105.1-128.8,193.3
		c-1.1,112,88.5,174.5,93.3,177.7c85,57.1,176.2,28.1,186.8,24.6c11.3,9.8,60.6,50.2,133.4,47.7c90.1-3.1,141.3-69.3,147.3-77.3
		c41.7-55.9,50.4-131.9,21.4-195.2c-35-76.5-119.7-122.5-208.5-111.6C653.6,264.1,617.6,224.6,555.3,208.7z"/>
</g>
<g id="レイヤー_4">
	<g id="レイヤー_5">
		<g id="レイヤー_7">
			<circle cx="390.4" cy="353.6" r="51.1"/>
			<path class="st0" d="M430.9,383.3c-16.1,20.2-44.1,15.7-45.5,15.5c-20.5-3.6-41.4-20.9-42.3-45.2c-0.7-19,10.8-36.9,28.2-44.7
				c19.7-8.8,41.8-2.3,54.9,11.5C442,337,445.4,365,430.9,383.3z"/>
		</g>
		<g id="レイヤー_6">
			<circle cx="575.4" cy="377.8" r="53.6"/>
			<path class="st0" d="M624.1,385.7c-2.2,15.9-12.7,34.5-29.2,39c-29.6,8-71.5-31.5-63.1-63.2c5.6-20.9,33.5-40,60.2-31.5
				C616.2,337.8,627.1,364.2,624.1,385.7z"/>
		</g>
	</g>
</g>
<path d="M413.5,308c4.2,2.2,13.4,7.5,20.2,18.4c1.6,2.6,6.8,11.4,7.6,23.9c0.6,8.6-1.2,15.2-1.8,17.4c-3.7,13-12.9,23.8-22.1,29.2
	c-18.2,10.7-45.4,6-65.1-13.2C315.3,294.6,212.3,260,140,299c-67.8,36.6-92.7,129.4-59.2,194.9c29.9,58.5,94.2,71.5,99,72.4
	c68.6,12.8,122.8-33.2,134.4-43.1c25.4-21.6,20.5-30.2,45.5-48.1c8.8-6.3,54.4-39,114.4-26.9c59.8,12,89.4,59.4,94.3,67.4
	c-8.9-32.1-22.7-52.5-33.1-64.9c-32.6-38.9-70.7-45.1-77.7-81.1c-2.4-12.4,0.4-20.3-6.5-32.8C442.3,320.5,425.8,312.4,413.5,308z"/>
<g id="レイヤー_3">
	<path d="M893.7,591.2c-37.5,48.4-131.1,46.3-130.2,51.2c0.4,2,14.9-1.9,31.9,4.7c13.5,5.2,33.3,18.9,34.5,36
		c0.9,12.7-14.2,27.6-44.4,56.9c-20.9,20.2-26.5,23.1-29.9,33.8c-7.2,22.7,9.8,35.4,3.8,50.2c-12.2,30.1-103.6,28.5-108.3,10.8
		c-2.7-10,25.1-15.3,47.4-48.6c21.5-32.2,31.2-80.3,13.5-95.4c-15.6-13.4-37.8,11.7-82.6,5.9c-4.7-0.6-58.6-8.4-81.3-50.1
		c-23.5-43.1,2-93.7,10.9-111.3c23.4-46.4,62.7-70,100.5-92.5c33.7-20,61.8-29.6,72.7-33c46.1-14.7,86.9-27.6,119.8-12.3
		C912,425.3,934.1,539.1,893.7,591.2z"/>
</g>
</svg>
