<?xml version="1.0" encoding="utf-8"?>
<!-- Generator: Adobe Illustrator 24.1.2, SVG Export Plug-In . SVG Version: 6.00 Build 0)  -->
<svg version="1.1" id="レイヤー_1" xmlns="http://www.w3.org/2000/svg" xmlns:xlink="http://www.w3.org/1999/xlink" x="0px"
	 y="0px" viewBox="0 0 1000 1000" style="enable-background:new 0 0 1000 1000;" xml:space="preserve">
<style type="text/css">
	.st0{fill:#FFFFFF;}
</style>
<g id="background">
	<g id="backgound">
		<rect x="-49.5" y="-49.5" class="st0" width="1099" height="1099"/>
		<path d="M1049-49v1098H-49V-49H1049 M1050-50H-50v1100h1100V-50L1050-50z"/>
	</g>
</g>
<g id="レイヤー_8">
	<path d="M804.9,554.3c-37.5,48.4-131.1,46.3-130.2,51.2c0.4,2,14.9-1.9,31.9,4.7c13.5,5.2,33.3,18.9,34.5,36
		c0.9,12.7-14.2,27.6-44.4,56.9c-20.9,20.2-26.5,23.1-29.9,33.8c-7.2,22.7,9.8,35.4,3.8,50.2c-12.2,30.1-103.6,28.5-108.3,10.8
		c-2.7-10,25.1-15.3,47.4-48.6c21.5-32.2,31.2-80.3,13.5-95.4c-15.6-13.4-37.8,11.7-82.6,5.9c-4.7-0.6-58.6-8.4-81.3-50.1
		c-23.5-43.1,2-93.7,10.9-111.3c23.4-46.4,62.7-70,100.5-92.5c33.7-20,61.8-29.6,72.7-33c46.1-14.7,86.9-27.6,119.8-12.3
		C823.2,388.4,845.3,502.2,804.9,554.3z"/>
	<path class="st0" d="M616.1,804.7c14.6-1.6,43.2-4.9,50.6-22.3c5.9-14-7.9-22.4-5.4-42c1.7-13.5,9.9-20.2,36.3-47.6
		c26.6-27.6,39.8-32.4,39.1-44.6c-0.7-12.6-14.3-21.6-21.3-26.1c-18.1-11.8-37.1-10.8-44-10.1c-4.9-2.3-14.8-7.6-22.5-18.7
		c-11.6-16.6-10.1-34.3-9.6-39.1c1.1,6.9,4.3,20.9,15.4,33.9c5.9,7,12.3,11.5,17.1,14.3c7.5-0.9,18.4-2.4,31.4-5
		c27.8-5.6,52-10.5,69.6-21.5c42.8-26.9,45.8-90.3,46-95.4c1.5-43.5-18.5-99.8-62.2-117.8c-8.5-3.5-28.4-9.9-89,9
		C602,392.3,525,416.5,480.9,490.2c-13.6,22.6-39.8,66.4-22.7,106.9c15.9,37.8,66.8,66,107.4,59.3c24.1-4,45.1-20.5,60.4-9.8
		c6.8,4.7,9,12.4,11.4,20.4c6.5,22.2-0.6,42-4.8,53.3c-10.3,27.6-29,45.1-36.6,51.9c-18.1,16.4-31.4,18.5-30.4,24.2
		C566.9,804.4,594.8,807.1,616.1,804.7z"/>
</g>
<g id="レイヤー_2">
	<path d="M667.5,272c-31.8-28.7-50.1-45.4-79.3-57.8c-19.5-8.2-40.4-13.7-62.6-16c-119-12.1-225.3,74.6-237.4,193.6
		s74.6,225.3,193.6,237.4c30.8,3.1,60.6-0.4,88.3-9.3c15,12.6,31.9,23.1,50.4,30.8c0,0,27.2,11.4,57,14.5
		c57.5,5.9,128.4-300,117.1-300.8c-29.8-12.2-49.1-23.4-59.8-30.1C726.9,329.4,724.7,323.6,667.5,272z"/>
	<path class="st0" d="M555.3,208.7C544.5,205.8,485,191,420.5,219c-71.1,30.9-127.9,105.1-128.8,193.3
		c-1.1,112,88.5,174.5,93.3,177.7c85,57.1,176.2,28.1,186.8,24.6c11.3,9.8,60.6,50.2,133.4,47.7c90.1-3.1,90.8-279.4,42.4-310
		c-40.3-25.5-72.2-68.8-72-68.9c0,0,0.1,0.1,0.1,0.1c2,2.2,20,25.6,27.6,44.2c3.2,7.9,9,25.8,4.6,53.2c-1.2-15.3-5-39.7-18.7-65.8
		c-2.7-5.2-11.5-21.5-30.1-41C645.1,259,611.6,223.7,555.3,208.7z"/>
</g>
<g id="レイヤー_4">
	<g id="レイヤー_5">
		<g id="レイヤー_7">
			<path d="M441,360.9c-4.5,27-30.1,46.8-57.8,43.2c-30.1-3.8-47.6-33.1-45-57.8c2.4-23.3,21.8-36.3,23.6-37.6
				c3.8-2.5,18.1-11.1,35.7-8C421.5,305,446.1,330.2,441,360.9z"/>
			<path class="st0" d="M430.9,383.3c-16.1,20.2-44.1,15.7-45.5,15.5c-20.5-3.6-41.4-20.9-42.3-45.2c-0.7-19,10.8-36.9,28.2-44.7
				c19.7-8.8,41.8-2.3,54.9,11.5C442,337,445.4,365,430.9,383.3z"/>
			<path d="M392.8,352.1c-2.7,15.5-18.6,22.9-20.4,23.7c-3.7,1.6-15,6.7-23,1.5c-9.5-6.2-9.4-23.5-6.4-34.3c0.1-0.2,0.1-0.3,0.1-0.5
				c2-6.8,9.3-26.4,19.7-28.8C374.9,311,396.3,331.9,392.8,352.1z"/>
			<circle class="st0" cx="358.9" cy="331.7" r="10.9"/>
		</g>
		<g id="レイヤー_6">
			<path d="M612.2,384.6c-8.7,26.8-36.4,42.7-61.5,38.7c-35-5.6-58-49.1-42.3-81.4c11.7-24.2,43.6-38.9,72.1-26.9
				C607.8,326.4,621,357.4,612.2,384.6z"/>
			<path class="st0" d="M608.8,378.1c-0.8,4.5-2.8,16.9-12.7,25.4c-22,18.8-64.7,5.1-78.3-15.6c-0.3-0.4-0.5-0.8-0.7-1.2
				c-3.5-5.7-15.3-26.5-7.3-42.8c0,0,0.5-1,1.1-2.1c8.3-13.8,39.5-36.1,69.7-21.1C603.3,331.9,612.2,357.7,608.8,378.1z"/>
		</g>
		<path d="M561.6,358.8c-1.2,20.9-30.1,35.5-44.6,27.8c-10.6-5.6-11.2-22.1-11.3-24.5c-0.5-13.8,6.6-33.2,21.4-36.1
			C543.7,322.7,562.6,341.2,561.6,358.8z"/>
		<circle class="st0" cx="522.8" cy="347.9" r="10.9"/>
	</g>
</g>
<path d="M410.6,305.2c4.9,2.4,15.5,8.7,23.1,21.3c6.5,10.8,7.4,21,7.6,23.9c0.6,9.1-1.3,15.9-1.8,17.4
	c-4.3,14.4-14.6,22.9-18.8,25.9c-17,11.8-45.4,8.6-68.4-9.9C315.3,294.6,212.3,260,140,299c-67.8,36.6-92.7,129.4-59.2,194.9
	c29.9,58.5,94.2,71.5,99,72.4c68.6,12.8,122.8-33.2,134.4-43.1c25.4-21.6,20.5-30.2,45.5-48.1c8.8-6.3,54.4-39,114.4-26.9
	c59.8,12,89.4,59.4,94.3,67.4c-4.4-16.8-13.3-41.7-33.1-64.9c-29.1-34.2-49.9-27.2-68-58.3c-16.7-28.7-9.7-52.9-34.3-74.1
	C424.7,311.1,416.3,307.3,410.6,305.2z"/>
<g id="レイヤー_3">
	<path d="M868.2,552.3c-5.1,21.4-11.5,48-35.4,69c-16.6,14.6-34.6,20.3-45.5,22.8c3.7,0.4,22.3,2.7,35.1,19
		c3.1,4,12.3,15.7,10.5,29.4c-1.9,14.9-15.3,18.9-47.4,47.5c-17.8,15.8-26.7,23.9-29.9,33.8c-7.2,22.7,9.8,35.4,3.8,50.2
		c-12.1,29.8-101.2,31.4-108.3,10.8c-3.5-10.2,15.5-18.4,47.4-59.1c21.2-27.1,48.8-62.3,39.6-76.8c-10.5-16.5-55.4,14.4-116.7-2.3
		c-13.2-3.6-54.3-14.7-73.2-50.1c-24.5-46,5.8-101.1,10.9-111.3c18-35.6,45.8-54.4,100.5-92.5c6.7-4.6,12.3-8.2,17.3-11.1
		c4.5-2.6,8.5-4.8,12.1-6.8c10.9-5.9,18.3-9.5,20.6-10.7c13.3-6.9,35.7-26.6,36.2-51.6c0.1-5-0.6-14.4-7.3-25.9
		c11-0.4,28.2,0.4,46.9,7.8c56.3,22.6,74.7,85.7,80.8,106.3C869,460.6,880.3,502.1,868.2,552.3z"/>
	<path class="st0" d="M737.3,343.8c-2.1-1.1-4.1-2.1-6.2-3.2c-3.6,42.2-18.2,62.1-30.9,72.4c-18.5,15-39.2,14.9-66,38.3
		c-11.3,9.9-19,19.8-23.5,26.3c-9.6,8.7-22.5,21.7-35,39.6c-11.1,15.9-22.2,31.9-27.6,55.6c-3.1,13.6-8.9,39.3,3.8,65.7
		c12.2,25.4,34.4,36.9,45.4,42.7c22.1,11.7,42.6,13.1,55.3,13.9c48.5,3.1,75.8-16,87.8-2c5.8,6.7,4.7,17.2,4,24.1
		c-1.2,11.8-6.4,19.8-16.6,33.6c-20.4,27.8-71.9,76.9-70.7,81.3c4.3,15.8,76.5,17.3,92.5-12c9-16.5-7.5-27.9,1.3-51.7
		c5.8-15.4,20.9-27.7,51.2-52.2c16.6-13.4,24.1-17.7,25.1-27.1c1.5-13.4-11.3-26.8-22.7-33.6c-18.8-11.1-30.5-2-58.6-5.7
		c-29.6-3.9-69.3-20.9-74.1-47.5c-1-5.6-1.3-16.7,10-32.3c-0.9,4.7-1.9,13.9,1.3,24.7c3.6,12.1,10.5,19.8,14,23.1
		c12.7,7.8,54.1,31.1,95.8,17.4c62.8-20.6,81.7-110.3,70.3-170.3c-9.5-49.9-46.1-111.5-99.4-120.9
		C753,342.3,743.8,342.9,737.3,343.8z"/>
</g>
</svg>
