<?xml version="1.0" encoding="utf-8"?>
<!-- Generator: Adobe Illustrator 24.1.2, SVG Export Plug-In . SVG Version: 6.00 Build 0)  -->
<svg version="1.1" id="レイヤー_1" xmlns="http://www.w3.org/2000/svg" xmlns:xlink="http://www.w3.org/1999/xlink" x="0px"
	 y="0px" viewBox="0 0 1000 1000" style="enable-background:new 0 0 1000 1000;" xml:space="preserve">
<style type="text/css">
	.st0{fill:#FFFFFF;}
	.st1{fill:#336600;}
	.st2{fill:#339900;}
	.st3{fill:#330000;}
	.st4{fill:#663333;}
</style>
<g id="background">
	<g id="backgound">
		<rect x="-49.5" y="-49.5" class="st0" width="1099" height="1099"/>
		<path d="M1049-49v1098H-49V-49H1049 M1050-50H-50v1100h1100V-50L1050-50z"/>
	</g>
</g>
<g id="レイヤー_8">
	<path d="M891.8,714c-31.3,40.3-109.3,38.6-108.5,42.6c0.3,1.6,12.4-1.6,26.5,3.9c11.2,4.3,27.8,15.7,28.8,30
		c0.7,10.6-11.8,23-37,47.4c-17.4,16.9-22.1,19.3-24.9,28.2c-6,18.9,8.2,29.5,3.2,41.8c-10.2,25.1-86.3,23.8-90.3,9
		c-2.3-8.4,20.9-12.7,39.5-40.5c18-26.8,26-66.9,11.3-79.5c-13-11.1-31.5,9.8-68.8,4.9c-3.9-0.5-48.8-7-67.7-41.8
		c-19.6-35.9,1.7-78.1,9.1-92.7c19.5-38.7,52.3-58.3,83.8-77.1c28.1-16.7,51.5-24.7,60.6-27.5c38.4-12.2,72.4-23,99.8-10.3
		C907,575.7,925.5,670.6,891.8,714z"/>
	<path class="st1" d="M736.9,920.1c12.4-1.8,26.2-3.9,33-14.1c8.7-13-4.4-23.9,2.2-43.4c1.1-3.3,3.3-8.2,30.3-33.3
		c25.2-23.3,33.1-28.1,32.6-37.1c-0.6-10.5-11.9-18-17.8-21.8c-15.1-9.9-30.9-9-36.7-8.4c-4.1-1.9-12.3-6.4-18.8-15.5
		c-9.7-13.8-8.4-28.6-8-32.5c0.9,5.7,3.6,17.4,12.8,28.3c5,5.8,10.3,9.6,14.3,11.9c6.3-0.7,15.4-2,26.2-4.2
		c23.2-4.7,43.4-8.7,58-17.9c35.7-22.4,38.2-75.3,38.3-79.5c1.3-36.3-15.4-83.2-51.8-98.2c-7.1-2.9-23.7-8.3-74.2,7.5
		c-54.8,17.2-119,37.3-155.8,98.7c-11.3,18.9-33.2,55.4-18.9,89.1c13.3,31.5,55.7,55,89.5,49.4c20.1-3.3,37.6-17.1,50.4-8.2
		c5.6,3.9,7.5,10.4,9.5,17c4.9,16.1,0.4,30.1-4,44.4c-3.6,11.7-8.5,27.5-22,42c-12.8,13.8-24.4,16.8-23.2,21.6
		C704.4,921.7,723.9,922,736.9,920.1z"/>
</g>
<g id="レイヤー_2_1_">
	<path d="M777.3,478.6c-11.1-13.9-41.2-47.7-92.1-61.8c-59.4-16.5-126.6-0.3-172,44.6c-45.5,45-51.1,101.1-52.1,117.1
		c-10.7,6.1-28.5,18.4-40.6,40.1c-17.9,32.2-21.4,81.8-0.2,93.2c15.2,8.1,41-4.5,63.5-25.7c-4.2,10-17.7,45.1-2.4,80.1
		c22.6,51.9,88.6,58.6,104.2,60.2c47.9,4.9,84.9-14.7,100.2-24c2.8-3.7,69.7-13.5,81.8,4.4c82.4-164.5,121-248.2,115.8-251
		c-0.1,0-0.1-0.1-0.2-0.1c-24.9-10.2-41-19.5-49.8-25.1c-5.4-3.4-7.9-7-17-15.7C800.8,500.1,787.5,487.9,777.3,478.6z"/>
	<path class="st2" d="M683.7,425.9c-8-2.1-58.5-14.8-112.4,8.6C483,473,465.9,573.9,464.8,581.5c-9.9,7-25,19.9-35.4,40.4
		c-15.4,30.2-20.4,76.2-2,86.2c19.4,10.6,56.5-23.8,58.8-25.9c-1.6,5.3-16.9,60,17.2,101.4c40.6,49.1,111.8,32.1,120.5,29.8
		c40.8-10.4,64.9-38,73.7-49.1c9.4,8.2,186.8-193.1,146.5-218.7c-33.6-21.3-60.1-57.3-60-57.4l0.1,0.1c1.6,1.8,16.7,21.4,23,36.8
		c2.7,6.5,7.5,21.5,3.8,44.3c-1-12.8-4.2-33.1-15.5-54.9c-2.3-4.3-9.6-17.9-25.1-34.2C758.5,467.8,730.6,438.4,683.7,425.9z"/>
</g>
<g id="レイヤー_3">
	<path d="M944.5,712.3c-4.3,17.8-9.6,40-29.5,57.5c-13.8,12.1-28.9,16.9-37.9,19c3.1,0.3,18.6,2.3,29.3,15.8
		c2.6,3.3,10.2,13.1,8.8,24.5c-1.6,12.5-12.8,15.7-39.5,39.6c-14.8,13.2-22.3,19.9-24.9,28.2c-6,18.9,8.2,29.5,3.2,41.8
		c-10.1,24.9-84.3,26.2-90.3,9c-2.9-8.5,12.9-15.3,39.5-49.3c17.7-22.5,40.7-51.9,33-64c-8.7-13.8-46.2,12-97.3-1.9
		c-11-3-45.3-12.3-61-41.8c-20.4-38.4,4.8-84.3,9.1-92.7c15-29.7,38.2-45.4,83.8-77.1c5.6-3.9,10.3-6.8,14.5-9.2
		c3.8-2.2,7.1-4,10.1-5.7c9.1-5,15.3-7.9,17.1-8.9c11.1-5.8,29.8-22.1,30.2-43c0.1-4.2-0.5-12-6.1-21.6c9.2-0.3,23.5,0.3,39.1,6.5
		c46.9,18.8,62.3,71.4,67.3,88.6C945.2,635.8,954.6,670.4,944.5,712.3z"/>
	<path class="st2" d="M835.4,538.5c-1.7-0.9-3.4-1.8-5.1-2.7c-3,35.2-15.2,51.7-25.8,60.3c-15.4,12.5-32.7,12.4-55,31.9
		c-9.4,8.3-15.8,16.5-19.6,21.9c-8,7.2-18.7,18.1-29.1,33c-9.2,13.3-18.5,26.6-23,46.4c-2.6,11.4-7.4,32.7,3.2,54.8
		c10.2,21.2,28.7,30.7,37.8,35.6c18.4,9.8,35.5,11,46.1,11.6c40.4,2.6,63.2-13.3,73.2-1.7c4.8,5.6,3.9,14.3,3.3,20.1
		c-1,9.8-5.3,16.5-13.8,28c-17,23.2-60,64.1-59,67.8c3.6,13.2,63.8,14.5,77.1-10c7.5-13.7-6.3-23.3,1.1-43.1
		c4.8-12.9,17.4-23.1,42.7-43.5c13.8-11.2,20.1-14.8,20.9-22.6c1.2-11.2-9.4-22.4-19-28c-15.7-9.3-25.4-1.7-48.8-4.7
		c-24.6-3.2-57.7-17.5-61.8-39.6c-0.8-4.7-1.1-13.9,8.3-27c-0.7,3.9-1.6,11.6,1.1,20.6c3,10.1,8.7,16.5,11.6,19.3
		c10.6,6.5,45.1,25.9,79.8,14.5c52.3-17.2,68.1-91.9,58.6-142c-7.9-41.6-38.5-92.9-82.9-100.8C848.5,537.2,840.8,537.7,835.4,538.5z
		"/>
</g>
<g id="レイヤー_4">
	<g id="レイヤー_5">
		<g id="レイヤー_7">
			<path d="M588.4,552.8c-5,23.6-28.4,36.6-48.2,36c-3-0.1-21.5-0.9-33.4-16.2c-10.1-12.9-8.9-27.6-8.5-32
				c0.5-5.7,3.1-24.2,19.8-35.6c2-1.3,16.4-10.8,34-6.9C573.9,502.9,594,526.7,588.4,552.8z"/>
			<path class="st0" d="M580,571.4c-13.4,16.8-36.7,13.1-37.9,12.9c-17-3-34.5-17.4-35.3-37.7c-0.6-15.8,9-30.8,23.5-37.2
				c16.4-7.3,34.8-1.9,45.7,9.6C589.3,532.8,592.1,556.2,580,571.4z"/>
			<path d="M548.3,545.4c-2.2,12.9-15.5,19.1-17,19.7c-3.1,1.4-12.5,5.6-19.2,1.2c-7.9-5.1-7.8-19.6-5.3-28.6c0-0.2,0.1-0.3,0.1-0.4
				c1.6-5.7,7.8-22,16.4-24C533.4,511.1,551.2,528.6,548.3,545.4z"/>
			
				<ellipse transform="matrix(0.9239 -0.3827 0.3827 0.9239 -162.6656 239.2252)" class="st0" cx="520" cy="528.5" rx="9.1" ry="9.1"/>
		</g>
		<g id="レイヤー_6">
			<path d="M750.3,570.6c-8,28.5-42.1,43.7-70.3,34.1c-27.2-9.3-45.2-40.5-35.3-67.9c8.8-24.6,36.6-36.8,60.1-32.7
				C734.3,509.3,758.8,540.4,750.3,570.6z"/>
			<path class="st0" d="M728.3,567.1c-0.6,3.8-2.3,14.1-10.6,21.1c-18.4,15.7-54,4.2-65.3-13c-0.2-0.3-0.4-0.6-0.6-1
				c-3-4.8-12.8-22.1-6.1-35.7c0,0,0.4-0.8,1-1.7c6.9-11.5,32.9-30.1,58.1-17.6C723.7,528.6,731.1,550.1,728.3,567.1z"/>
		</g>
		<path d="M689,551c-1,17.4-25.1,29.6-37.2,23.2c-8.8-4.7-9.3-18.5-9.4-20.4c-0.4-11.5,5.5-27.6,17.8-30.1
			C674,520.9,689.8,536.3,689,551z"/>
		<circle class="st0" cx="656.6" cy="541.9" r="9.1"/>
	</g>
</g>
<g id="レイヤー_10">
	<path d="M552.1,498.1c6.3,2.7,21.3,10.1,30.3,25.9c2.3,4,5.9,10.6,6.3,20c0.1,2.4,0.1,8.5-2.6,15.6c-5,13.2-15.6,19.6-18.8,21.5
		c-10.2,6.1-20.1,6.4-25.8,6.6c-5.1,0.2-9.3-0.3-12.3-0.7c-5.2,4-12.7,10.3-20.7,18.9c-19.2,20.7-25.3,38.2-33.3,51.5
		c-1.5,2.5-35.2,57.8-75.3,59.7c-36.9,1.7-40.6-41.9-93.6-55.1c-44.6-11.1-72,12.5-93.7-7.7c-17.7-16.6-13.8-45.8-13.3-49.5
		c0,0,6.1-41.1,83.7-80.9c9.3-4.7,18.6-7.8,18.6-7.8c2.5-0.7,6.2-1.6,10.5-2.9c8.7-2.6,32.3-9.4,52.3-19.4
		c25.2-12.6,42-28.7,51-37.6c9-8.8,37.3-38,55.3-85.1c22.4-58.6,15.9-111,11.2-135.1c-5.3,17.1-31.8,96-112.7,137.9
		c-75.6,39.2-169.5,31-243.8-20.2c-8.7,50.5-4.5,89,1.3,115.5c5.6,25.5,10.8,31.6,13.9,56.6c5.5,45.4-7.8,59.1-8.2,99.8
		c-0.2,17.4-0.1,69.7,34.8,114C203,785.3,254.8,796.3,268,799c35.9,7.1,65.5,1.1,82-2.7c33.4-7.5,44-17.4,65.4-25
		c84-29.6,144.6,43.7,203.5,13.3c14.3-7.4,33.6-23.5,46.8-63.9C615.9,614.5,601,573.5,602.3,564c0.1-0.5,0.2-4.8,0.6-10.6
		c0.3-4.3,0.4-13-4.1-22.5c-4.4-9.2-10.9-14.3-17.7-19.3C575.6,507.5,566,501.5,552.1,498.1z"/>
	<path class="st2" d="M153,326.6c58.4,46,137.9,54.4,203.1,21.6c70.4-35.4,111.7-112.7,102.5-192.8c4.1,19.1,7.9,39.6,11.1,61.3
		c3.1,21.4,5.4,41.7,7,61c1.3,16,0.7,53.9-17.5,94.9c-18.5,41.9-47.5,66.2-65.7,81.1c-56.3,46-83.5,31.8-150.8,83.1
		c-50.5,38.5-56.3,62.6-57,76.3c-0.2,2.8-1.4,33.2,19.6,51.9c24.8,22.2,51,1.5,97.4,15.8c39.6,12.3,44.5,34.7,65.7,45.2
		c3.4,1.7,6.1,2.7,8.6,3.4c0,0,4.4,1.3,9.2,1.6c5.5,0.4,49.2-2.5,81.6-44.9c17.1-22.4,28.2-51.9,29.7-56.1
		c3.9-10.6,11.2-33.1,31.2-42.8c0.2-0.1,0.3-0.1,0.4-0.2c16.7,7.9,29,6.1,34,5c3.3-0.8,6-1.8,8-2.6c8.3-3.2,17.3-6.8,24-15.7
		c5.6-7.4,7.2-15.4,7.7-20.3c48.4,22.4,79.1,68.4,77.8,116c-1.4,48.2-35.2,80.3-38.3,83.2c-6.9,6.3-23.4,21.2-48.8,26.8
		c-19.1,4.2-48.2-3.5-105.5-19.2c0,0-49.1-13.4-77.2-1.8c-2.5,1-13.4,5.6-29,10.5c-4.8,1.5-10.3,3-16.8,4.5
		c-23.1,5.3-54.2,12.4-90.6,3.2c-35.9-9-58.8-29.2-72.1-41.2s-39.7-35.8-51.2-72.7c-19.1-61.6,24.4-92.5,4.3-168.7
		c-5.4-20.5-8.6-18.5-13.5-39C129.7,404.3,141.1,358.1,153,326.6z"/>
</g>
<g id="レイヤー_9">
	<path d="M481.9,236.2c-14.1,83.9-73.7,137.9-78,142.3c0,0-74.5,66.3-177.1,60.9c-25.5-1.4-42.2-8.9-46.4-10.9
		c-27.6-13-41.9-33.6-44.8-38c-16.7-25-18-49.9-18-59.3c-0.1-29.9,12.3-51.2,17.5-59.1c2.1,0.4,14.1,2.7,25.2-5.2
		c12.9-9.2,13.5-24.2,13.5-25.8c-8.6-11.6-18.1-26.3-26.6-44.2c-6.2-13.1-10.8-25.4-14.2-36.3C160.5,92,220.6,44.1,288.4,38.4
		c73.3-6.2,125.6,39.5,135.3,48c12,10.5,53,46.3,60.1,103.7C484.3,194.1,486.2,210.7,481.9,236.2z"/>
	<path class="st2" d="M262.6,55.7C328.4,40.8,382.3,76.7,395,85c14.4,9.5,55,36.3,71.5,88.6c15,47.4,1.4,88-7.7,115.2
		c-7.2,21.7-20,59.2-54.9,89.7c-74,64.7-177,36.1-198.1,30.3c-27.7-7.7-55-15.7-69.7-41.8c-20.5-36.4-0.5-79.3,2.8-86
		c14.5,14.4,46.8,41.8,94.3,49.2c67.9,10.6,139-24.1,183.9-88c-3.3-6.7-53.4-104.4-157.5-114.2c-60-5.7-105.5,20.9-121.5,31.3
		c6.9-13,17.9-30.8,35.2-48.6C185.7,97.7,216,66.3,262.6,55.7z"/>
	<path class="st3" d="M144.4,165.3c17.4-9.4,59.6-28.9,113.7-22.6C352.7,153.9,401,235,406.7,245c-5.8-3.2-14-7.4-23.9-11.6
		c-41.1-17.3-77.2-19.3-92.8-19.5c-47.4-0.7-84.3,12.5-104.6,21.5c-7.8-8.1-17.2-19.4-25.7-34.3
		C152.1,187.7,147.4,175.3,144.4,165.3z"/>
	<path d="M213.2,205.6c2.1-0.8,22.4-8.5,47.3-8.4c36.9,0.1,110.8,15,120.5,56.4c3.3,14.3-1.9,27.9-3.6,32.4
		c-7.9,20.7-24.5,31.4-35.4,38.2c-24.9,15.5-32.8,8-50.2,18.7C263,360.7,273.6,388,246,421.1c-4.6,5.5-37.1,43.3-80.5,40.5
		c-44.8-3-70.8-47.4-78.9-61.4c-24.8-42.3-30-101-11.1-111.2c20.5-11.1,61.1,39.6,79.4,26.5c6.1-4.4,2.7-10.6,8.9-39.2
		c5.5-25.5,9.7-43.9,24.8-57.3C195.9,212.3,203.3,209.4,213.2,205.6z"/>
	<path class="st4" d="M212.1,210.9c12.7-7.7,30.7-12.8,34.3-7.8c2.4,3.3-2.3,10-5.3,15.1c-16.1,27.1-9,48-15.7,72.9
		c-4.3,15.9-15.3,37.6-46.3,59.9c48-18.9,62.4-40.7,66.8-57c5.6-20.8-3-40.5,12.3-65.7c3.6-5.9,9.6-15.5,21-20.1
		c7.5-3,18.6-0.7,40.5,4c5.5,1.2,32.6,7.6,44.3,19.4c1.1,1.1,2,2.2,2.9,3.4c0,0,6.3,8.4,8,20.1c1.5,10.5-5.1,30.4-21.6,44.4
		c-24.5,20.7-52,12.5-82,36c-4.1,3.2-6.8,5.7-7.9,7c-8.6,10.6-7.3,23.7-21.9,42.9c-4.5,5.9-25.6,33.6-57.8,37.3
		c-37.2,4.2-65.5-26.3-73.3-34.8c-29.8-32.2-40.2-80.5-28.6-88.2c13.1-8.7,47.1,38.4,71.4,26.9c11.6-5.5,16.3-22.1,22.4-43.5
		c6.4-22.5,2.7-28.8,11-44.5C189.8,232.3,197.6,219.8,212.1,210.9z"/>
</g>
<path d="M601.9,614.8c-1.2-2.1-5.2-8.9-13.8-12.7c-7.9-3.4-15-2.3-17.5-1.7c2.4,2.6,6.1,6.1,11.3,8.9
	C590,613.8,597.7,614.6,601.9,614.8z"/>
<path d="M621.2,614.8c1.2-2.1,5.2-8.9,13.8-12.7c7.9-3.4,15-2.3,17.5-1.7c-2.4,2.6-6.1,6.1-11.3,8.9
	C633.1,613.8,625.4,614.6,621.2,614.8z"/>
</svg>
