<?xml version="1.0" encoding="utf-8"?>
<!-- Generator: Adobe Illustrator 24.1.2, SVG Export Plug-In . SVG Version: 6.00 Build 0)  -->
<svg version="1.1" id="レイヤー_1" xmlns="http://www.w3.org/2000/svg" xmlns:xlink="http://www.w3.org/1999/xlink" x="0px"
	 y="0px" viewBox="0 0 500 500" style="enable-background:new 0 0 500 500;" xml:space="preserve">
<style type="text/css">
	.st0{fill:#ACA299;}
	.st1{fill:#D2C6BA;}
	.st2{fill:#C0B5AB;}
	.st3{fill:#E4D7CA;}
	.st4{fill:#717071;}
	.st5{fill:#595757;}
	.st6{fill:#DAAB9D;}
	.st7{fill:#E8B6A7;}
	.st8{fill:#888888;}
	.st9{fill:#D48288;}
	.st10{fill:#E28A91;}
	.st11{fill:#E2B1A3;}
	.st12{fill:#A26B6D;}
	.st13{fill:#B8B9B9;}
	.st14{fill:#3E3A39;}
	.st15{fill:#B79085;}
	.st16{fill:#ADBAC1;}
	.st17{fill:#543C37;}
	.st18{fill:#323333;}
	.st19{fill:#231815;}
	.st20{fill:#4C4948;}
	.st21{fill:#B4B4B5;}
	.st22{fill:#9E9E9F;}
	.st23{fill:#F3E5D7;}
	.st24{fill:#F4E8D8;}
</style>
<g>
	<path class="st0" d="M30.3,333.4c-4.2-2.4,11-46.4,39.9-87.9c19.7-28.2,58.2-83.3,103.9-79.3c29.2,2.6,51.5,28.4,49.3,32.9
		c-1.8,3.7-20.5-6.4-49.3-1.5c-13.7,2.3-21.7,6.7-24,8c-13.1,7.5-19.8,18-24,24c-13.8,19.8-17.2,15.4-47.9,47.9
		C44.2,313.6,33.4,335.1,30.3,333.4z"/>
	<path class="st1" d="M238.1,213.6c0.3-3.4-33.6-14.6-71.9-8c-15.5,2.7-38.5,6.7-55.9,24c-26.5,26.3-10.2,53.5-32,95.9
		c-23.2,45.1-66.4,59.9-63.9,63.9c2.6,4.3,54.6-7.1,87.9-47.9c39.1-48,20.1-92.8,57.4-117.8C192.9,201.2,237.7,217.5,238.1,213.6z"
		/>
	<path class="st2" d="M389.9,285.5c41.9,1.1,77.8-91.9,71.9-95.9c-5.2-3.6-37.4,66.9-79.9,63.9c-44.5-3.2-54-83.8-105.4-88.5
		c-30.9-2.8-60.6,23.2-58.5,29.1c1.9,5.6,31.6-10.5,65.3-2.5C344.5,206.2,351.7,284.4,389.9,285.5z"/>
	<path class="st1" d="M373.9,317.4c49.6,25.8,112.2-2.7,111.9-8c-0.4-5.3-64.5,12.1-103.9-24c-21.3-19.5-13.2-34.4-40-63.9
		c-10.8-11.9-39.7-43.9-75.3-40.1c-31.4,3.3-56.8,33.3-52.6,41.4c4.1,8.1,33.3-13.6,66.8-4.1C328.6,232.2,324,291.5,373.9,317.4z"/>
	<path class="st3" d="M174.1,189.1c10-3.5,25.4-4.4,30,2.5c15.5,23.4-88.9,144.7-133.9,125.8c-34.5-14.5-25.2-107.6-24-119.9
		C52.5,135.4,80.9,84,86.3,85.7c3.2,1-2.4,20.2-8,71.9c-11.4,106.4,2.5,117.2,8,119.8c5.7,2.7,11.6,1.2,16,0
		C141,267.1,135.7,202.7,174.1,189.1z"/>
	<path class="st4" d="M283.6,303.6c9.6-6.3,9.1-20,11.4-33c2.3-13.2,8.5-31.8,26.5-53.2c-25.1-5.7-43.7-13.3-56.3-19.4
		c-7.4-3.6-12.1-6.3-20.6-8.7c-7.8-2.1-25.7-5.9-46,0c-5.4,1.6-6.9,2.6-18,7.7c-10.4,4.8-24.7,10.9-42.3,17.4
		c6.5,9.6,12.9,19.2,19.4,28.9c-3.7,31.2,3.6,45.4,11.5,52.5c8.2,7.5,17.4,7.5,22.4,16.3c1.2,2,1.9,4.2,2.4,6.5
		c-17.9,0.2-32.3,11.6-32.3,25.6c0,14.2,14.7,25.7,32.8,25.7c10.7,0,20.2-4,26.2-10.2c2,0.1,4,0.2,6.1,0.2c2.4,0,4.7-0.2,6.9-0.4
		c6,6.3,15.6,10.4,26.4,10.4c18.1,0,32.8-11.5,32.8-25.7s-14.7-25.7-32.8-25.7c-0.8,0-1.6,0-2.4,0.1c0.2-4.8,1.7-7.7,3.6-9.5
		C266.7,303.7,275.2,309.1,283.6,303.6z"/>
	<path class="st5" d="M289.9,302.2c0.1,9,0.5,15,0.6,16.6c0.7,18.1-26.9,50.9-44.4,46.1c-18.2-5.1-18.7-49.1-18.8-63.5
		c-0.1-14.1-0.8-58.5,17-63.2c18.1-4.8,46.2,29.6,45.9,47.7C290.1,287.5,289.8,293.4,289.9,302.2z"/>
	<path class="st5" d="M222.1,245.5c-1.9-1.6-12-9.9-24-8c-15.7,2.4-29.1,21.4-32,47.9c19.5-3.2,38.7,6.1,47.5,22.8
		c9.9,18.8,4.6,43-13.2,56.6l6.8,0c3.4-2.8,9.2-8.1,14.8-15.9C245.3,316.2,245.2,264.3,222.1,245.5z"/>
	<path class="st6" d="M244.6,211.3c-1.9,1.2-10.2,6.1-23.1,6.1c-12.8,0-21.1-4.9-23-6.1c0.6-2.6,1.1-5.8,1.2-9.4
		c0.2-5.1-0.5-9.4-1.2-12.7c18.4-8.8,36.8-17.7,55.1-26.5c-2.2,7.7-4.4,16.2-6,25.6C246.2,196.5,245.2,204.2,244.6,211.3z"/>
	<path class="st5" d="M247.2,190.8c-1.2,7.3-2.1,14.1-2.6,20.5c-1.9,1.2-10.2,6.1-23.1,6.1c-10.2,0-17.6-3.1-21.1-5l-2.4,1.2l32,16
		l32-24L247.2,190.8z"/>
	<path class="st7" d="M257.6,121.3c-20.1-3.4-40.3-6.7-60.4-10.1c-1.2,2.6-2.7,6.5-2.6,11.4c0.1,3.7,1,4.4,1.2,7.9
		c0.3,5.3-1.4,8.1-3.6,15.2c0,0-0.8,2.5-1.6,6.3c-4.5,5.1-7.7,9.8-6,11.6c0,0,1.8,0,4.2,0.1c0,6.1,2.1,14.4,9.8,25.5
		c0.7,10.8,32.8,16.8,46,0c2.8-6.1,5.4-13.1,7.6-20.9C257.4,150,258.1,133.6,257.6,121.3z"/>
	<path class="st8" d="M289.9,307.1c0.1,8.9,0.5,15,0.6,16.6c0.7,16.6-15.4,46.1-30.4,46.1c-16.6-0.1-30.2-36.3-32.8-63.5
		c-2.2-22.6,1.6-59.1,17-63.2c18.1-4.8,46.2,29.6,45.9,47.7C290.1,292.4,289.8,298.2,289.9,307.1z"/>
	<path class="st3" d="M367.9,325.7c-7.2-2.3-12.3-6.3-15.5-9.2c-1.2-4.4-2.9-11.4-4.6-20.1c-2-10-3-17.3-3.3-19.8
		c-2.4-18.9-10.2-56.4-22.8-59.2c-9.4-2.1-19.8,15.1-24.1,27.5c-11.3,32.8,13.3,69.6,23,84.4c2.7,4.1,5.2,7.4,6.7,9.5
		c4.9,2.8,12.1,6.5,21.3,10c19.9,7.4,36.3,8.7,45.8,9.4c77.2,5.8,82,6.5,82.8,3.9C479.9,352.7,382.3,330.4,367.9,325.7z"/>
	<path class="st2" d="M349.9,293.5l-3.4-3.4c0.4,1.9,0.7,4,1.2,6.2c0.5,0.6,1,1.2,1.5,1.8v0c6.5,7.4,14.5,14.1,24.6,19.3
		c49.6,25.8,112.2-2.7,111.9-8C429.8,341.4,349.9,293.5,349.9,293.5z"/>
	<path class="st8" d="M257.6,121.3c-20.1-3.4-40.3-6.7-60.4-10.1c-1.2,2.6-2.7,6.5-2.6,11.4c0.1,3.7,1,4.4,1.2,7.9
		c0.3,5.3-1.4,8.1-3.6,15.2c0,0-0.8,2.5-1.6,6.3c-4.5,5.1-7.7,9.8-6,11.6c0,0,1.8,0,4.2,0.1c0,2.1,0.3,4.6,1,7.3l0,0
		C189.8,171.1,257.2,163.2,257.6,121.3z"/>
	<g>
		<path class="st6" d="M188,163.7c-0.1,0-0.2,0-0.3,0C187.8,163.7,187.9,163.7,188,163.7z"/>
		<path class="st6" d="M188.8,163.8C188.8,163.8,188.8,163.8,188.8,163.8C188.8,163.8,188.8,163.8,188.8,163.8c0,0.5,0,1,0.1,1.5
			C188.8,164.8,188.8,164.2,188.8,163.8z"/>
		<path class="st6" d="M186.3,163.7L186.3,163.7c0.1,0,0.2,0,0.4,0C186.5,163.7,186.4,163.7,186.3,163.7z"/>
		<path class="st6" d="M186.9,163.7c0.1,0,0.2,0,0.4,0C187.2,163.7,187,163.7,186.9,163.7z"/>
		<path class="st6" d="M189.3,169.1c-0.1-0.6-0.2-1.1-0.3-1.7C189.1,167.9,189.2,168.5,189.3,169.1z"/>
		<path class="st6" d="M257.6,121.3L257.6,121.3c-0.4,41.9-67.6,49.8-67.8,49.8c0.1,0.5,0.2,1,0.4,1.4c10.5,1.5,31.6-2.2,47.9-14.9
			c10.3-8,16.2-17.7,19.6-25.6C257.8,128.1,257.7,124.6,257.6,121.3z"/>
		<path class="st6" d="M189,167.1c-0.1-0.5-0.1-1.1-0.1-1.6C188.9,166,188.9,166.5,189,167.1z"/>
		<path class="st6" d="M189.7,170.9c-0.1-0.6-0.3-1.2-0.4-1.7C189.5,169.7,189.6,170.3,189.7,170.9z"/>
	</g>
	<path class="st9" d="M211.8,171.4c-2.3-0.3-4.4-0.4-6.4-0.3c-2.7-3.3-6.9,1.1-6.9,1.1c-2.7-1.6-4.4,1.1-4.4,1.1l-2.5,3.3
		c0.6,1.5,1.3,3,2.1,4.6c0.5,0,1,0.1,1.6,0.1c3.3,0.2,6.4,0.1,9-0.1c5.6-0.4,7.1-1.4,13.4-2.5c2.6-0.4,6.4-1,11.2-1.2
		C225.2,175.2,219.3,172.3,211.8,171.4z"/>
	<path class="st10" d="M194.1,173.3l-2.5,3.3c0.2,0.5,0.4,1,0.7,1.6c3-1,6.4-2,10.3-2.6c11-1.7,20.4,0.1,26.4,1.9
		c-3.8-2.4-9.6-5.2-17.1-6.2c-2.3-0.3-4.4-0.4-6.4-0.3c-2.7-3.3-6.9,1.1-6.9,1.1c-0.5-0.2-1.1-0.4-1.8-0.5
		C195.1,171.8,194.1,173.3,194.1,173.3z"/>
	<path class="st11" d="M251.2,143c0,0,13.4-23.8,11.1,0.8c0,0-3.4,30.7-13,14.3L251.2,143z"/>
	<path class="st12" d="M253.1,143.5c0,0,7.7-13.3,6.5,0l-1.9,9.3c-0.4,0.3-1,0.6-1.6,0.9c-1.9,0.8-3.6,0.6-4.5,0.4
		C252.1,150.6,252.6,147,253.1,143.5z"/>
	<path class="st4" d="M207.9,135.3c0,0-27.6,23.6-23.3,28.3c0,0,14.4-0.1,18.1,3L207.9,135.3z"/>
	<path class="st13" d="M207.9,135.3c0,0-27.6,23.6-23.3,28.3c2.4,0,4.9,0.1,7.6,0.4c1.5,0.1,3,0.3,4.4,0.6
		C200.4,154.8,204.1,145.1,207.9,135.3z"/>
	
		<ellipse transform="matrix(0.1647 -0.9863 0.9863 0.1647 74.8352 321.601)" class="st5" cx="227.3" cy="116.6" rx="4.8" ry="30.6"/>
	
		<rect x="223.6" y="126.9" transform="matrix(0.1647 -0.9863 0.9863 0.1647 53.0701 343.5682)" class="st14" width="11.6" height="27.1"/>
	
		<rect x="226.1" y="130.5" transform="matrix(0.1647 -0.9863 0.9863 0.1647 52.9031 343.1411)" class="st15" width="5.9" height="19.6"/>
	<path class="st16" d="M239,140.2c-0.5-0.6-1.1-1-1.6-1.4l-6.7-1.1c-3.2,0.7-5.8,2.7-5.8,2.7c7,3.9,11.4,3.4,13.6,2.6L239,140.2z"/>
	<path class="st17" d="M239,140.2c-0.1-0.2-0.2-0.7-0.5-1.2l-10.9-1.8c-1,0.8-2,1.9-2.7,3.2c0.5,0.8,1.4,1.8,2.5,2.7l10.8,1.8
		L239,140.2z"/>
	<path class="st16" d="M239,140.2c-0.5-0.6-1.1-1-1.6-1.4l-6.7-1.1c-3.2,0.7-5.8,2.7-5.8,2.7c7,3.9,11.4,3.4,13.6,2.6L239,140.2z"/>
	<path class="st18" d="M236.1,143.5c0.6-0.7,1-1.6,1-2.6c0-0.9-0.3-1.7-0.8-2.3l-5.5-0.9c-1,0.7-1.7,1.9-1.7,3.2
		c0,0.5,0.1,1.1,0.3,1.5C232.2,143.4,234.4,143.6,236.1,143.5z"/>
	<path class="st19" d="M233.1,138.2c-1.5,0-2.6,1.2-2.6,2.6c0,0.9,0.5,1.7,1.1,2.2c0.8,0.2,1.5,0.3,2.2,0.4c1.1-0.3,2-1.3,2-2.6
		C235.7,139.4,234.5,138.2,233.1,138.2z"/>
	<circle class="st16" cx="235.7" cy="140.3" r="1.6"/>
	<path class="st20" d="M184.6,163.6c0,0,1.4-6.6,18.1,3L184.6,163.6z"/>
	<path class="st8" d="M227.2,304.8c-2.3,27.3-15.8,64.7-32.8,65c-16.5,0.3-34.6-34.3-32.8-65c2-35,30.2-69.1,46.8-65.3
		C224,243,229.3,280.2,227.2,304.8z"/>
	<path class="st4" d="M227.2,304.8c2.1-24.6-3.2-61.8-18.9-65.3c-0.6-0.1-1.3-0.2-2-0.3c5.5,9.2,15,28.2,15.7,53.8
		c1,37.6-17.8,64-24,71.9l6.8,0C216.8,353.8,225.4,326.2,227.2,304.8z"/>
	<path class="st4" d="M227.2,306.3c2,21.2,10.8,47.9,22.4,58.6h4.4c-14.4-30.2-16.9-54.5-16-71.9c0.9-17.4,6.1-49.3,6.2-49.9l0,0
		C228.8,247.2,225.1,283.6,227.2,306.3z"/>
	<path class="st21" d="M247,364.6c2.6,5.5,16.8,4.1,25.1,3.2c10.4-1.1,20.6-2.1,23.3-8.6c3.3-7.8-5.7-21.4-16.3-23.9
		C262.1,331.3,243.2,356.6,247,364.6z"/>
	<path class="st22" d="M161.6,304.8c-1.2,21.1,7,44.1,17.6,56.3c-3.7-9.1-12.9-35.5-5-68c7.1-28.9,23.8-46.8,31.1-53.8
		C188.5,239.7,163.5,271.8,161.6,304.8z"/>
	<path class="st21" d="M204.1,372.4c-7.9,11.2-43.8,3.4-45.9-7.4c-1.1-6.1,8.5-13.3,16-16c7.8-2.8,20.7-3.3,27.4,5.5
		C205.2,359.2,207.5,367.4,204.1,372.4z"/>
	<path class="st23" d="M333.9,365.4c-43-1.5-64.5-2.2-87.9,0c-15.1,1.4-39.5,4.5-71.9,0c-11.4-1.6-38.6-5.9-39.9-16
		c-1-7.6,13.7-8.2,24-24c17.8-27.5,3-71.6-0.6-82.2c-0.1-0.2-0.1-0.4-0.1-0.4c-1.4-4.2-10.1-28.9-19.3-28.5
		c-14.1,0.6-21.8,52.6-22.7,58.8c-5.8,39-25.5,52.1-29.2,76.2c-2.6,16.5,3.2,32,8,40c12.9,21.4,47.2,34.9,231.7,16
		c72-7.4,131.7-13.5,131.6-21.5C457.5,374.8,382.8,367,333.9,365.4z"/>
	<path class="st3" d="M142.3,340.3c4.8-3,10.9-7.1,15.9-14.9c11-16.9,9.6-40.2,6-58c0.4,9.7-0.2,24.8-6,42
		C153.6,322.9,147.3,333.2,142.3,340.3z"/>
	<path class="st3" d="M94.2,389.3c12.9,21.4,47.2,34.9,231.7,16c51.7-5.3,97-9.9,118.5-15.1l1.4-0.9c-68.1-7.6-122-4.5-159.8,0
		c-33.5,4-71.9,11.3-127.8,8C131.3,395.7,109.2,392.2,94.2,389.3z"/>
	<path class="st24" d="M333.9,365.4c-43-1.5-64.5-2.2-87.9,0c-15.1,1.4-39.5,4.5-71.9,0c-11.4-1.6-38.6-5.9-39.9-16
		c0,0-104.3,28.9,323.4,34.4C457.5,374.8,382.8,367,333.9,365.4z"/>
	<path class="st1" d="M467.4,363.5c-12.7-3.2-32.6-8.1-57.2-13.9c-44-10.5-50.9-11.5-60.3-16.2c-15.6-7.8-39.4-26.3-54.9-76.9
		c-3.3,29.5,17,59.9,25.6,73c2.7,4.1,5.2,7.4,6.7,9.5c4.9,2.8,12.1,6.5,21.3,10c19.9,7.4,36.3,8.7,45.8,9.4
		C436.8,361.5,457.3,363.1,467.4,363.5z"/>
</g>
</svg>
