<?xml version="1.0" encoding="utf-8"?>
<!-- Generator: Adobe Illustrator 24.1.2, SVG Export Plug-In . SVG Version: 6.00 Build 0)  -->
<svg version="1.1" xmlns="http://www.w3.org/2000/svg" xmlns:xlink="http://www.w3.org/1999/xlink" x="0px" y="0px"
	 viewBox="0 0 500 500" style="enable-background:new 0 0 500 500;" xml:space="preserve">
<style type="text/css">
	.st0{display:none;}
	.st1{display:inline;fill:none;stroke:#231815;stroke-miterlimit:10;}
	.st2{display:inline;fill:#231815;stroke:#231815;stroke-miterlimit:10;}
	.st3{display:inline;fill:#ACA299;}
	.st4{display:inline;fill:#D2C6BA;}
	.st5{display:inline;fill:#C0B5AB;}
	.st6{display:inline;fill:#E4D7CA;}
	.st7{display:inline;fill:#717071;}
	.st8{display:inline;fill:#595757;}
	.st9{display:inline;fill:#DAAB9D;}
	.st10{display:inline;fill:#E8B6A7;}
	.st11{display:inline;fill:#888888;}
	.st12{display:inline;}
	.st13{fill:#DAAB9D;}
	.st14{display:inline;fill:#D48288;}
	.st15{display:inline;fill:#E28A91;}
	.st16{display:inline;fill:#E2B1A3;}
	.st17{display:inline;fill:#A26B6D;}
	.st18{display:inline;fill:#B8B9B9;}
	.st19{display:inline;fill:#3E3A39;}
	.st20{display:inline;fill:#B79085;}
	.st21{display:inline;fill:#ADBAC1;}
	.st22{display:inline;fill:#543C37;}
	.st23{display:inline;fill:#323333;}
	.st24{display:inline;fill:#231815;}
	.st25{display:inline;fill:#4C4948;}
	.st26{display:inline;fill:#B4B4B5;}
	.st27{display:inline;fill:#9E9E9F;}
	.st28{display:inline;fill:#F3E5D7;}
	.st29{display:inline;fill:#F4E8D8;}
	.st30{fill:url(#SVGID_1_);stroke:url(#SVGID_2_);stroke-miterlimit:10;}
	.st31{fill:#ACA299;}
	.st32{fill:#D2C6BA;}
	.st33{fill:#C0B5AB;}
	.st34{fill:#E4D7CA;}
	.st35{fill:#717071;}
	.st36{fill:#595757;}
	.st37{fill:#E8B6A7;}
	.st38{fill:#888888;}
	.st39{fill:#D48288;}
	.st40{fill:#E28A91;}
	.st41{fill:#E2B1A3;}
	.st42{fill:#A26B6D;}
	.st43{fill:#B8B9B9;}
	.st44{fill:#3E3A39;}
	.st45{fill:#B79085;}
	.st46{fill:#ADBAC1;}
	.st47{fill:#543C37;}
	.st48{fill:#323333;}
	.st49{fill:#231815;}
	.st50{fill:#4C4948;}
	.st51{fill:#B4B4B5;}
	.st52{fill:#9E9E9F;}
	.st53{fill:#F3E5D7;}
	.st54{fill:#F4E8D8;}
</style>
<g id="_x33_" class="st0">
	
		<ellipse transform="matrix(0.1647 -0.9863 0.9863 0.1647 1064.0697 1347.9166)" class="st1" cx="1327.88" cy="45.71" rx="5.43" ry="34.49"/>
	<path class="st1" d="M1306.03,66.77c0,0-31.11,26.57-26.26,31.92c0,0,16.16-0.09,20.36,3.4L1306.03,66.77z"/>
	<path class="st1" d="M1361.96,50.97c-22.68-3.79-45.36-7.57-68.03-11.36c-1.38,2.88-3.03,7.36-2.9,12.85
		c0.1,4.16,1.13,4.91,1.38,8.95c0.36,5.95-1.57,9.08-4.01,17.08c0,0-0.87,2.86-1.86,7.08c-5.07,5.71-8.66,11.03-6.77,13.11
		c0,0,1.97-0.01,4.72,0.12c0.05,6.85,2.42,16.27,11.02,28.71c0.8,12.11,36.92,18.92,51.87,0c3.11-6.84,6.12-14.7,8.61-23.56
		C1361.79,83.29,1362.61,64.82,1361.96,50.97z"/>
	
		<rect x="1318.8" y="69.11" transform="matrix(0.9863 0.1647 -0.1647 0.9863 30.0966 -218.0586)" class="st1" width="22.09" height="6.66"/>
	
		<rect x="1314.97" y="66.03" transform="matrix(0.9863 0.1647 -0.1647 0.9863 30.1239 -218.1189)" class="st1" width="30.51" height="13.09"/>
	<path class="st1" d="M1347.38,163.8c-2.13,1.93-11.54,10-25.97,9.99c-14.39-0.01-23.76-8.05-25.9-9.99c0-12.09,0-24.19,0-36.28
		h51.87V163.8z"/>
	<path class="st1" d="M1370.61,137.3c-8.39-4.06-13.58-7.12-23.23-9.78c-8.73-2.41-28.9-6.65-51.87,0
		c-6.12,1.77-7.75,2.96-20.29,8.66c-11.76,5.35-27.86,12.28-47.69,19.64c7.28,10.83,14.56,21.67,21.85,32.5
		c8.21,7.69,35.43,35.12,38.19,77.48c1.12,17.18-2.12,31.58-5.42,41.58c29.33,0,58.65,0,87.98,0c-3.08-10.38-6.21-26.14-4-44.95
		c4.83-41.16,31.69-66.73,40.06-74.11c9.28-9.71,18.55-19.42,27.83-29.13C1405.72,152.73,1384.81,144.18,1370.61,137.3z"/>
	<ellipse class="st1" cx="1290.8" cy="301.99" rx="36.99" ry="28.9"/>
	<ellipse class="st1" cx="1290.8" cy="257.68" rx="36.99" ry="73.21"/>
	<ellipse class="st1" cx="1364.78" cy="301.99" rx="36.99" ry="28.9"/>
	<ellipse class="st1" cx="1364.78" cy="259.35" rx="36.99" ry="71.54"/>
	<path class="st1" d="M1205.9,305.02c14.78,3.88,58.73-61.58,43.48-116.7c-3.52-12.71-12.41-32.9-21.85-32.5
		c-15.88,0.68-24.56,59.31-25.59,66.21C1198.8,243.29,1192.87,301.6,1205.9,305.02z"/>
	
		<ellipse transform="matrix(0.9469 -0.3215 0.3215 0.9469 -28.0841 425.3929)" class="st2" cx="1274.18" cy="297.74" rx="25.92" ry="44.21"/>
	
		<ellipse transform="matrix(0.3215 -0.9469 0.9469 0.3215 655.9315 1510.854)" class="st2" cx="1382.18" cy="297.74" rx="44.21" ry="25.92"/>
	<path class="st1" d="M1486.26,281.26c-8.07-2.59-13.89-7.06-17.47-10.31c-1.32-4.99-3.28-12.85-5.22-22.6
		c-2.25-11.28-3.41-19.5-3.76-22.28c-2.68-21.28-11.55-63.5-25.73-66.68c-10.55-2.36-22.25,16.99-27.1,31.03
		c-12.77,36.93,14.99,78.43,25.92,95.05c3.08,4.68,5.81,8.36,7.58,10.68c5.49,3.12,13.67,7.36,24.03,11.24
		c22.41,8.38,40.88,9.76,51.57,10.57c86.97,6.52,92.38,7.35,93.23,4.36C1612.35,311.65,1502.48,286.46,1486.26,281.26z"/>
	<path class="st1" d="M1236.41,314.11c11.12,26.99,94.15,13.77,160.53,10.97c101.89-4.29,190.42,14.92,190.3,21.58
		c-0.08,4.69-44.24,2.7-196.93,9.6c-105.47,4.77-159.78,9.13-183.29-24.16c-7.99-11.32-18.74-35.85-8.81-47.44
		c7.37-8.61,25.1-9.73,33.12-2.14C1239.98,290.71,1232.1,303.65,1236.41,314.11z"/>
	<path class="st1" d="M1325.2,72.44c0,0,10.77-8.61,17.39,1.76C1342.59,74.2,1337.36,79.25,1325.2,72.44z"/>
	<circle class="st1" cx="1334.36" cy="73.03" r="4.48"/>
	<circle class="st1" cx="1334.36" cy="73.03" r="2.98"/>
	<path class="st1" d="M1361.96,50.97c-22.68-3.79-45.36-7.57-68.03-11.36c-1.38,2.88-3.03,7.36-2.9,12.85
		c0.1,4.16,1.13,4.91,1.38,8.95c0.36,5.95-1.57,9.08-4.01,17.08c0,0-0.87,2.86-1.86,7.08c-5.07,5.71-8.66,11.03-6.77,13.11
		c0,0,1.97-0.01,4.72,0.12c0.02,2.42,0.33,5.17,1.1,8.25h0C1285.59,107.06,1361.53,98.23,1361.96,50.97z"/>
	<path class="st1" d="M1310.43,107.38c-2.59-0.32-5-0.39-7.18-0.32c-3-3.77-7.74,1.27-7.74,1.27c-3-1.75-5,1.25-5,1.25l-2.85,3.76
		c0.67,1.65,1.45,3.36,2.39,5.17c0.58,0.05,1.17,0.09,1.78,0.13c3.73,0.22,7.15,0.15,10.18-0.06c6.34-0.45,8.02-1.6,15.15-2.85
		c2.88-0.5,7.18-1.13,12.58-1.4C1325.48,111.67,1318.9,108.43,1310.43,107.38z"/>
	<path class="st1" d="M1290.51,109.58l-2.85,3.76c0.23,0.57,0.49,1.16,0.75,1.74c3.36-1.16,7.24-2.2,11.61-2.87
		c12.43-1.9,22.94,0.13,29.71,2.11c-4.26-2.66-10.83-5.89-19.31-6.94c-2.59-0.32-5-0.39-7.18-0.32c-3-3.77-7.74,1.27-7.74,1.27
		c-0.53-0.24-1.22-0.46-2.04-0.54C1291.64,107.89,1290.51,109.58,1290.51,109.58z"/>
	<path class="st1" d="M1354.79,75.44c0,0,15.06-26.77,12.55,0.89c0,0-3.81,34.54-14.6,16.11L1354.79,75.44z"/>
	<path class="st1" d="M1356.88,76c0,0,8.67-14.96,7.35,0l-2.08,10.44c-0.49,0.35-1.11,0.71-1.86,1.01
		c-2.12,0.85-4.07,0.67-5.11,0.49C1355.75,83.97,1356.32,79.98,1356.88,76z"/>
</g>
<g id="_x32_" class="st0">
	<path class="st3" d="M580.72,316.45c-4.78-2.69,12.37-52.29,45-99c22.2-31.78,65.57-93.85,117.01-89.36
		c32.89,2.87,58,31.98,55.53,37.08c-2.04,4.2-23.07-7.19-55.53-1.72c-15.47,2.61-24.4,7.51-27,9c-14.8,8.5-22.29,20.24-27,27
		c-15.54,22.33-19.43,17.29-54,54C596.36,294.17,584.18,318.39,580.72,316.45z"/>
	<path class="st4" d="M814.72,181.45c0.35-3.84-37.85-16.47-81-9c-17.48,3.02-43.41,7.51-63,27c-29.82,29.67-11.47,60.32-36,108
		c-26.13,50.78-74.82,67.46-72,72c2.99,4.81,61.48-7.98,99-54c44.09-54.08,22.69-104.51,64.7-132.73
		C763.84,167.59,814.32,185.87,814.72,181.45z"/>
	<path class="st5" d="M985.72,262.45c47.16,1.3,87.65-103.49,81-108c-5.9-4-42.16,75.42-90,72c-50.14-3.59-60.77-94.43-118.7-99.73
		c-34.77-3.18-68.22,26.14-65.94,32.79c2.17,6.36,35.62-11.83,73.59-2.78C934.6,173.14,942.75,261.26,985.72,262.45z"/>
	<path class="st4" d="M967.72,298.45c55.89,29.02,126.43-3.04,126-9c-0.44-5.99-72.62,13.64-117-27c-24-21.98-14.9-38.73-45-72
		c-12.13-13.4-44.71-49.43-84.77-45.19c-35.36,3.73-63.92,37.49-59.26,46.68c4.65,9.15,37.51-15.29,75.29-4.63
		C916.74,202.47,911.49,269.25,967.72,298.45z"/>
	<path class="st6" d="M742.72,153.96c11.3-3.97,28.67-4.98,33.81,2.77c17.46,26.33-100.11,163.03-150.81,141.71
		c-38.85-16.34-28.37-121.24-27-135c6.99-69.96,38.92-127.86,45-126c3.59,1.1-2.75,22.73-9,81c-12.86,119.88,2.83,132.03,9,135
		c6.41,3.09,13.04,1.32,18,0C705.34,241.81,699.42,169.17,742.72,153.96z"/>
	<path class="st7" d="M866.06,282.88c10.84-7.14,10.29-22.53,12.85-37.19c2.59-14.82,9.57-35.8,29.83-59.95
		c-28.3-6.46-49.2-15.01-63.4-21.88c-8.39-4.06-13.58-7.12-23.23-9.78c-8.73-2.41-28.9-6.65-51.87,0
		c-6.12,1.77-7.75,2.96-20.29,8.66c-11.76,5.35-27.86,12.28-47.69,19.64c7.28,10.83,14.56,21.67,21.85,32.5
		c-4.14,35.13,4.11,51.1,12.95,59.14c9.29,8.45,19.54,8.4,25.24,18.34c1.32,2.3,2.17,4.75,2.66,7.3
		c-20.16,0.24-36.42,13.08-36.42,28.89c0,15.96,16.56,28.9,36.99,28.9c12.05,0,22.76-4.51,29.51-11.48
		c2.24,0.16,4.54,0.24,6.93,0.21c2.7-0.03,5.29-0.2,7.79-0.47c6.74,7.11,17.55,11.73,29.75,11.73c20.43,0,36.99-12.94,36.99-28.9
		s-16.56-28.9-36.99-28.9c-0.92,0-1.82,0.03-2.72,0.09c0.28-5.38,1.93-8.66,4.06-10.74C846.95,282.96,856.56,289.13,866.06,282.88z"
		/>
	<path class="st8" d="M873.05,281.36c0.1,10.19,0.61,16.88,0.68,18.71c0.76,20.38-30.34,57.37-50.02,51.9
		c-20.49-5.7-21.03-55.31-21.2-71.54c-0.17-15.9-0.91-65.88,19.18-71.18c20.41-5.39,52.05,33.34,51.66,53.76
		C873.32,264.75,872.96,271.36,873.05,281.36z"/>
	<path class="st8" d="M796.72,217.45c-2.19-1.78-13.47-11.11-27-9c-17.72,2.76-32.74,24.09-36,54c21.95-3.66,43.64,6.9,53.55,25.7
		c11.13,21.12,5.16,48.39-14.82,63.82l7.61-0.06c3.85-3.19,10.42-9.12,16.66-17.94C822.82,297.09,822.79,238.65,796.72,217.45z"/>
	<path class="st9" d="M822.1,178.89c-2.13,1.32-11.54,6.84-25.97,6.83c-14.39-0.01-23.76-5.51-25.9-6.83
		c0.66-2.93,1.23-6.48,1.36-10.54c0.19-5.72-0.52-10.6-1.36-14.29c20.7-9.95,41.41-19.9,62.11-29.85
		c-2.53,8.64-4.9,18.29-6.81,28.87C823.87,162.27,822.78,170.92,822.1,178.89z"/>
	<path class="st8" d="M825.06,155.79c-1.4,8.19-2.34,15.92-2.96,23.1c-2.13,1.32-11.54,6.84-25.97,6.83
		c-11.51-0.01-19.8-3.53-23.75-5.61l-2.66,1.33l36,18l36-27L825.06,155.79z"/>
	<path class="st10" d="M836.68,77.51c-22.68-3.79-45.36-7.57-68.03-11.36c-1.38,2.88-3.03,7.36-2.9,12.85
		c0.1,4.16,1.13,4.91,1.38,8.95c0.36,5.95-1.57,9.08-4.01,17.08c0,0-0.87,2.86-1.86,7.08c-5.07,5.71-8.66,11.03-6.77,13.11
		c0,0,1.97-0.01,4.72,0.12c0.05,6.85,2.42,16.27,11.02,28.71c0.8,12.11,36.92,18.92,51.87,0c3.11-6.84,6.12-14.7,8.61-23.56
		C836.51,109.83,837.33,91.37,836.68,77.51z"/>
	<path class="st11" d="M873.05,286.83c0.1,10.03,0.6,16.85,0.68,18.71c0.83,18.66-17.34,51.98-34.23,51.9
		c-18.65-0.09-34.07-40.89-36.99-71.54c-2.43-25.52,1.8-66.59,19.18-71.18c20.41-5.39,52.05,33.34,51.66,53.76
		C873.32,270.22,872.96,276.83,873.05,286.83z"/>
	<path class="st6" d="M960.98,307.81c-8.07-2.59-13.89-7.06-17.47-10.31c-1.32-4.99-3.28-12.85-5.22-22.6
		c-2.25-11.28-3.41-19.5-3.76-22.28c-2.68-21.28-11.55-63.5-25.73-66.68c-10.55-2.36-22.25,16.99-27.1,31.03
		c-12.77,36.93,14.99,78.43,25.92,95.05c3.08,4.68,5.81,8.36,7.58,10.68c5.49,3.12,13.67,7.36,24.03,11.24
		c22.41,8.38,40.88,9.76,51.57,10.57c86.97,6.52,92.38,7.35,93.23,4.36C1087.07,338.19,977.2,313.01,960.98,307.81z"/>
	<path class="st5" d="M940.72,271.45l-3.8-3.8c0.39,2.16,0.83,4.48,1.32,6.97c0.57,0.68,1.14,1.35,1.73,2.02l0,0.02
		c7.37,8.32,16.28,15.84,27.74,21.79c55.89,29.02,126.43-3.04,126-9C1030.72,325.45,940.72,271.45,940.72,271.45z"/>
	<path class="st11" d="M836.68,77.51c-22.68-3.79-45.36-7.57-68.03-11.36c-1.38,2.88-3.03,7.36-2.9,12.85
		c0.1,4.16,1.13,4.91,1.38,8.95c0.36,5.95-1.57,9.08-4.01,17.08c0,0-0.87,2.86-1.86,7.08c-5.07,5.71-8.66,11.03-6.77,13.11
		c0,0,1.97-0.01,4.72,0.12c0.02,2.42,0.33,5.17,1.1,8.25h0C760.31,133.6,836.25,124.77,836.68,77.51z"/>
	<g class="st12">
		<path class="st13" d="M758.31,125.32c-0.12,0-0.22-0.01-0.34-0.01C758.09,125.31,758.2,125.31,758.31,125.32z"/>
		<path class="st13" d="M759.21,125.36c-0.02,0-0.04,0-0.07,0C759.16,125.35,759.18,125.35,759.21,125.36c0,0.55,0.03,1.12,0.06,1.7
			C759.24,126.48,759.21,125.9,759.21,125.36z"/>
		<path class="st13" d="M756.4,125.26L756.4,125.26c0.13,0,0.28,0.01,0.42,0.01C756.67,125.26,756.53,125.26,756.4,125.26z"/>
		<path class="st13" d="M757.11,125.27c0.13,0,0.26,0.01,0.39,0.01C757.37,125.28,757.24,125.28,757.11,125.27z"/>
		<path class="st13" d="M759.81,131.32c-0.12-0.66-0.22-1.29-0.31-1.92C759.59,130.02,759.69,130.66,759.81,131.32z"/>
		<path class="st13" d="M836.68,77.51L836.68,77.51c-0.43,47.21-76.21,56.07-76.37,56.09c0.13,0.54,0.28,1.08,0.44,1.64
			c11.85,1.7,35.62-2.51,53.96-16.79c11.58-9.02,18.25-19.92,22.1-28.89C836.92,85.25,836.85,81.21,836.68,77.51z"/>
		<path class="st13" d="M759.46,129.1c-0.08-0.6-0.13-1.19-0.17-1.76C759.33,127.91,759.39,128.49,759.46,129.1z"/>
		<path class="st13" d="M760.27,133.4c-0.16-0.66-0.31-1.31-0.43-1.94C759.96,132.09,760.1,132.74,760.27,133.4z"/>
	</g>
	<path class="st14" d="M785.15,133.93c-2.59-0.32-5-0.39-7.18-0.32c-3-3.77-7.74,1.27-7.74,1.27c-3-1.75-5,1.25-5,1.25l-2.85,3.76
		c0.67,1.65,1.45,3.36,2.39,5.17c0.58,0.05,1.17,0.09,1.78,0.13c3.73,0.22,7.15,0.15,10.18-0.06c6.34-0.45,8.02-1.6,15.15-2.85
		c2.88-0.5,7.18-1.13,12.58-1.4C800.2,138.21,793.62,134.98,785.15,133.93z"/>
	<path class="st15" d="M765.23,136.12l-2.85,3.76c0.23,0.57,0.49,1.16,0.75,1.74c3.36-1.16,7.24-2.2,11.61-2.87
		c12.43-1.9,22.94,0.13,29.71,2.11c-4.26-2.66-10.83-5.89-19.31-6.94c-2.59-0.32-5-0.39-7.18-0.32c-3-3.77-7.74,1.27-7.74,1.27
		c-0.53-0.24-1.22-0.46-2.04-0.54C766.36,134.43,765.23,136.12,765.23,136.12z"/>
	<path class="st16" d="M829.51,101.98c0,0,15.06-26.77,12.55,0.89c0,0-3.81,34.54-14.6,16.11L829.51,101.98z"/>
	<path class="st17" d="M831.6,102.54c0,0,8.67-14.96,7.35,0l-2.08,10.44c-0.49,0.35-1.11,0.71-1.86,1.01
		c-2.12,0.85-4.07,0.67-5.11,0.49C830.47,110.51,831.04,106.53,831.6,102.54z"/>
	<path class="st7" d="M780.75,93.31c0,0-31.11,26.57-26.26,31.92c0,0,16.16-0.09,20.36,3.4L780.75,93.31z"/>
	<path class="st18" d="M780.75,93.31c0,0-31.11,26.57-26.26,31.92c2.65-0.02,5.53,0.09,8.61,0.39c1.72,0.17,3.35,0.38,4.91,0.63
		C772.26,115.27,776.5,104.29,780.75,93.31z"/>
	
		<ellipse transform="matrix(0.1647 -0.9863 0.9863 0.1647 599.1309 851.9822)" class="st8" cx="802.6" cy="72.25" rx="5.43" ry="34.49"/>
	
		<rect x="789.69" y="92.57" transform="matrix(0.9863 0.1647 -0.1647 0.9863 27.3211 -131.2336)" class="st19" width="30.51" height="13.09"/>
	
		<rect x="793.52" y="95.65" transform="matrix(0.9863 0.1647 -0.1647 0.9863 27.2938 -131.1733)" class="st20" width="22.09" height="6.66"/>
	<path class="st21" d="M815.79,98.78c-0.59-0.64-1.2-1.17-1.82-1.6l-7.56-1.26c-3.66,0.81-6.49,3.07-6.49,3.07
		c7.87,4.41,12.83,3.85,15.35,2.9L815.79,98.78z"/>
	<path class="st22" d="M815.79,98.78c-0.08-0.25-0.26-0.76-0.56-1.39l-12.29-2.05c-1.16,0.94-2.2,2.16-3.02,3.65
		c0.61,0.86,1.53,1.97,2.79,3.07l12.2,2.04L815.79,98.78z"/>
	<path class="st21" d="M815.79,98.78c-0.59-0.64-1.2-1.17-1.82-1.6l-7.56-1.26c-3.66,0.81-6.49,3.07-6.49,3.07
		c7.87,4.41,12.83,3.85,15.35,2.9L815.79,98.78z"/>
	<path class="st23" d="M812.45,102.49c0.68-0.79,1.11-1.8,1.11-2.92c0-0.98-0.32-1.87-0.85-2.61l-6.22-1.04
		c-1.14,0.81-1.89,2.14-1.89,3.65c0,0.61,0.12,1.2,0.35,1.73C808.07,102.42,810.55,102.65,812.45,102.49z"/>
	<path class="st24" d="M809.08,96.59c-1.65,0-2.98,1.34-2.98,2.98c0,1.02,0.51,1.92,1.3,2.46c0.87,0.21,1.68,0.34,2.43,0.42
		c1.29-0.33,2.24-1.49,2.24-2.88C812.06,97.93,810.73,96.59,809.08,96.59z"/>
	<circle class="st21" cx="812.06" cy="98.98" r="1.83"/>
	<path class="st25" d="M754.49,125.23c0,0,1.59-7.43,20.36,3.4L754.49,125.23z"/>
	<path class="st11" d="M802.51,284.23c-2.57,30.72-17.77,72.91-36.99,73.21c-18.59,0.29-38.99-38.62-36.99-73.21
		c2.28-39.49,33.98-77.83,52.68-73.59C798.86,214.63,804.83,256.54,802.51,284.23z"/>
	<path class="st7" d="M802.51,284.23c2.32-27.69-3.65-69.59-21.3-73.59c-0.72-0.16-1.46-0.26-2.21-0.29
		c6.18,10.39,16.94,31.79,17.72,60.63c1.13,42.38-20.08,72.08-27,81l7.61-0.06C790.72,339.44,800.5,308.31,802.51,284.23z"/>
	<path class="st7" d="M802.51,285.9c2.28,23.88,12.14,53.92,25.21,66.07h5c-16.26-34.06-18.99-61.4-18-81
		c0.98-19.55,6.88-55.56,6.98-56.25l0,0C804.31,219.31,800.08,260.38,802.51,285.9z"/>
	<path class="st26" d="M824.8,351.56c2.96,6.25,18.89,4.59,28.25,3.62c11.7-1.22,23.26-2.42,26.27-9.64
		c3.68-8.81-6.38-24.12-18.32-26.93C841.8,314.09,820.53,342.54,824.8,351.56z"/>
	<path class="st27" d="M728.53,284.23c-1.37,23.81,7.86,49.67,19.81,63.38c-4.15-10.27-14.58-39.99-5.63-76.64
		c7.94-32.53,26.82-52.76,35.04-60.64C758.85,210.95,730.67,247.08,728.53,284.23z"/>
	<path class="st26" d="M776.4,360.32c-8.87,12.65-49.4,3.82-51.68-8.36c-1.29-6.88,9.59-14.99,18-18c8.8-3.14,23.36-3.71,30.88,6.14
		C777.7,345.47,780.32,354.73,776.4,360.32z"/>
	<path class="st28" d="M922.72,352.45c-48.41-1.67-72.62-2.5-99,0c-16.98,1.61-44.49,5.08-81,0c-12.84-1.79-43.43-6.6-45-18
		c-1.17-8.52,15.46-9.21,27-27c20.07-30.95,3.37-80.69-0.62-92.58c-0.07-0.21-0.13-0.39-0.13-0.39
		c-1.59-4.69-11.39-32.55-21.72-32.11c-15.88,0.68-24.56,59.31-25.59,66.21c-6.5,43.91-28.74,58.7-32.95,85.87
		c-2.87,18.55,3.57,36,9,45c14.55,24.12,53.12,39.3,261,18c81.09-8.31,148.36-15.2,148.25-24.25
		C1061.84,363.1,977.78,354.34,922.72,352.45z"/>
	<path class="st6" d="M706.82,324.18c5.4-3.44,12.25-8.04,17.89-16.74c12.36-19.06,10.77-45.25,6.8-65.34
		c0.43,10.97-0.25,27.97-6.8,47.34C719.57,304.66,712.52,316.28,706.82,324.18z"/>
	<path class="st6" d="M652.72,379.45c14.55,24.12,53.12,39.3,261,18c58.2-5.96,109.27-11.2,133.43-17.02l1.57-0.98
		c-76.69-8.51-137.42-5.1-180,0c-37.7,4.52-80.99,12.74-144,9C694.4,386.64,669.52,382.67,652.72,379.45z"/>
	<path class="st29" d="M922.72,352.45c-48.41-1.67-72.62-2.5-99,0c-16.98,1.61-44.49,5.08-81,0c-12.84-1.79-43.43-6.6-45-18
		c0,0-117.5,32.51,364.25,38.75C1061.84,363.1,977.78,354.34,922.72,352.45z"/>
	<path class="st4" d="M1073.03,350.39c-14.33-3.57-36.74-9.11-64.39-15.68c-49.61-11.79-57.31-12.95-67.93-18.27
		c-17.56-8.81-44.34-29.64-61.88-86.67c-3.75,33.28,19.11,67.51,28.8,82.22c3.08,4.68,5.81,8.36,7.58,10.68
		c5.49,3.12,13.67,7.36,24.03,11.24c22.41,8.38,40.88,9.76,51.57,10.57C1038.54,348.07,1061.7,349.93,1073.03,350.39z"/>
</g>
<g id="_x31_">
	
		<radialGradient id="SVGID_1_" cx="127.6964" cy="506.1274" r="283.5148" fx="-41.9107" fy="515.432" gradientTransform="matrix(0.0208 -1.2199 -1.219 -0.02 846.4388 324.6344)" gradientUnits="userSpaceOnUse">
		<stop  offset="0.3482" style="stop-color:#920783"/>
		<stop  offset="0.4752" style="stop-color:#870D84"/>
		<stop  offset="0.7197" style="stop-color:#681785"/>
		<stop  offset="0.7692" style="stop-color:#601986"/>
	</radialGradient>
	
		<linearGradient id="SVGID_2_" gradientUnits="userSpaceOnUse" x1="-25" y1="198.8031" x2="525" y2="198.8031" gradientTransform="matrix(1 0 0 -1 0 448.8032)">
		<stop  offset="0" style="stop-color:#187FC4"/>
		<stop  offset="1" style="stop-color:#187FC4;stop-opacity:0"/>
	</linearGradient>
	<rect x="-24.5" y="-24.5" class="st30" width="549" height="549"/>
	<g>
		<path class="st31" d="M30.33,333.4c-4.25-2.39,10.98-46.42,39.95-87.89c19.71-28.21,58.21-83.31,103.87-79.33
			c29.2,2.55,51.49,28.39,49.29,32.92c-1.81,3.73-20.48-6.38-49.3-1.53c-13.73,2.32-21.66,6.67-23.97,7.99
			c-13.14,7.54-19.79,17.97-23.97,23.97c-13.8,19.83-17.25,15.35-47.94,47.94C44.22,313.62,33.41,335.12,30.33,333.4z"/>
		<path class="st32" d="M238.07,213.55c0.31-3.41-33.6-14.62-71.91-7.99c-15.51,2.69-38.54,6.67-55.93,23.97
			c-26.48,26.34-10.18,53.55-31.96,95.88c-23.2,45.08-66.42,59.89-63.92,63.92c2.65,4.27,54.58-7.09,87.89-47.94
			c39.14-48.01,20.14-92.78,57.44-117.83C192.9,201.25,237.71,217.48,238.07,213.55z"/>
		<path class="st33" d="M389.87,285.46c41.86,1.15,77.81-91.88,71.91-95.88c-5.24-3.55-37.43,66.95-79.9,63.92
			c-44.51-3.18-53.95-83.83-105.38-88.54c-30.87-2.82-60.56,23.2-58.54,29.11c1.93,5.64,31.62-10.5,65.33-2.47
			C344.49,206.18,351.73,284.41,389.87,285.46z"/>
		<path class="st32" d="M373.89,317.42c49.62,25.76,112.24-2.7,111.86-7.99c-0.39-5.32-64.47,12.11-103.87-23.97
			c-21.31-19.51-13.23-34.38-39.95-63.92c-10.76-11.9-39.69-43.88-75.26-40.12c-31.39,3.32-56.75,33.28-52.6,41.44
			c4.12,8.12,33.3-13.58,66.84-4.11C328.64,232.21,323.98,291.5,373.89,317.42z"/>
		<path class="st34" d="M174.15,189.15c10.03-3.52,25.45-4.42,30.01,2.46c15.5,23.37-88.87,144.73-133.88,125.8
			c-34.49-14.5-25.19-107.63-23.97-119.85c6.2-62.11,34.56-113.51,39.95-111.86c3.18,0.97-2.44,20.18-7.99,71.91
			c-11.42,106.42,2.51,117.21,7.99,119.85c5.69,2.74,11.58,1.17,15.98,0C140.97,267.14,135.71,202.66,174.15,189.15z"/>
		<path class="st35" d="M283.64,303.6c9.62-6.34,9.14-20.01,11.41-33.02c2.3-13.16,8.5-31.78,26.48-53.22
			c-25.12-5.73-43.68-13.32-56.29-19.43c-7.44-3.6-12.05-6.32-20.63-8.69c-7.75-2.14-25.66-5.91-46.04,0
			c-5.43,1.57-6.88,2.63-18.01,7.69c-10.44,4.75-24.74,10.9-42.34,17.43c6.46,9.62,12.93,19.23,19.39,28.85
			c-3.68,31.19,3.65,45.37,11.5,52.5c8.25,7.5,17.35,7.46,22.41,16.28c1.17,2.04,1.93,4.22,2.36,6.48
			c-17.9,0.21-32.33,11.61-32.33,25.65c0,14.17,14.7,25.66,32.84,25.66c10.7,0,20.2-4,26.2-10.19c1.99,0.14,4.03,0.22,6.15,0.19
			c2.39-0.03,4.7-0.18,6.92-0.41c5.98,6.32,15.58,10.41,26.41,10.41c18.14,0,32.84-11.49,32.84-25.66s-14.7-25.66-32.84-25.66
			c-0.81,0-1.61,0.03-2.41,0.08c0.25-4.78,1.72-7.69,3.6-9.54C266.69,303.67,275.21,309.15,283.64,303.6z"/>
		<path class="st36" d="M289.86,302.25c0.09,9.05,0.54,14.99,0.6,16.61c0.68,18.09-26.94,50.93-44.4,46.07
			c-18.19-5.06-18.67-49.11-18.82-63.51c-0.15-14.12-0.81-58.48,17.03-63.19c18.12-4.79,46.21,29.6,45.86,47.72
			C290.09,287.5,289.77,293.37,289.86,302.25z"/>
		<path class="st36" d="M222.09,245.51c-1.94-1.58-11.96-9.86-23.97-7.99c-15.73,2.45-29.07,21.39-31.96,47.94
			c19.49-3.25,38.74,6.13,47.54,22.82c9.88,18.75,4.58,42.96-13.16,56.65l6.76-0.05c3.42-2.83,9.25-8.1,14.79-15.93
			C245.26,316.21,245.24,264.33,222.09,245.51z"/>
		<path class="st13" d="M244.62,211.29c-1.89,1.17-10.24,6.08-23.05,6.07c-12.77-0.01-21.09-4.89-22.99-6.07
			c0.59-2.6,1.09-5.75,1.21-9.36c0.17-5.08-0.47-9.41-1.21-12.69c18.38-8.83,36.76-17.67,55.14-26.5
			c-2.24,7.67-4.35,16.24-6.04,25.63C246.19,196.53,245.23,204.21,244.62,211.29z"/>
		<path class="st36" d="M247.25,190.77c-1.24,7.27-2.08,14.14-2.63,20.51c-1.89,1.17-10.24,6.08-23.05,6.07
			c-10.22-0.01-17.58-3.13-21.09-4.98l-2.36,1.18l31.96,15.98l31.96-23.97L247.25,190.77z"/>
		<path class="st37" d="M257.57,121.28c-20.13-3.36-40.26-6.72-60.4-10.09c-1.22,2.56-2.69,6.54-2.57,11.41
			c0.09,3.69,1,4.36,1.22,7.95c0.32,5.29-1.4,8.06-3.56,15.16c0,0-0.77,2.54-1.65,6.29c-4.5,5.07-7.69,9.79-6.01,11.64
			c0,0,1.75-0.01,4.19,0.11c0.04,6.08,2.15,14.44,9.78,25.48c0.71,10.75,32.78,16.79,46.04,0c2.76-6.07,5.43-13.05,7.64-20.91
			C257.42,149.98,258.14,133.58,257.57,121.28z"/>
		<path class="st38" d="M289.86,307.1c0.09,8.91,0.53,14.96,0.6,16.61c0.74,16.56-15.39,46.14-30.39,46.07
			c-16.56-0.08-30.25-36.3-32.84-63.51c-2.16-22.65,1.59-59.12,17.03-63.19c18.12-4.79,46.21,29.6,45.86,47.72
			C290.09,292.36,289.77,298.23,289.86,307.1z"/>
		<path class="st34" d="M367.91,325.73c-7.16-2.3-12.33-6.27-15.51-9.16c-1.17-4.43-2.91-11.4-4.64-20.07
			c-1.99-10.02-3.02-17.31-3.33-19.78c-2.38-18.89-10.25-56.37-22.84-59.19c-9.36-2.1-19.75,15.08-24.06,27.54
			c-11.34,32.78,13.31,69.63,23.01,84.38c2.73,4.15,5.16,7.42,6.73,9.48c4.87,2.77,12.13,6.54,21.33,9.98
			c19.9,7.44,36.29,8.67,45.78,9.38c77.21,5.79,82.01,6.52,82.76,3.87C479.85,352.7,382.31,330.35,367.91,325.73z"/>
		<path class="st33" d="M349.92,293.45l-3.37-3.37c0.35,1.91,0.74,3.98,1.17,6.18c0.51,0.6,1.02,1.2,1.54,1.79l0,0.02
			c6.55,7.39,14.45,14.06,24.63,19.34c49.62,25.76,112.24-2.7,111.86-7.99C429.82,341.39,349.92,293.45,349.92,293.45z"/>
		<path class="st38" d="M257.57,121.28c-20.13-3.36-40.26-6.72-60.4-10.09c-1.22,2.56-2.69,6.54-2.57,11.41
			c0.09,3.69,1,4.36,1.22,7.95c0.32,5.29-1.4,8.06-3.56,15.16c0,0-0.77,2.54-1.65,6.29c-4.5,5.07-7.69,9.79-6.01,11.64
			c0,0,1.75-0.01,4.19,0.11c0.02,2.15,0.3,4.59,0.98,7.32h0C189.77,171.08,257.18,163.24,257.57,121.28z"/>
		<g>
			<path class="st13" d="M187.99,163.72c-0.1,0-0.2-0.01-0.3-0.01C187.79,163.71,187.89,163.72,187.99,163.72z"/>
			<path class="st13" d="M188.79,163.76c-0.02,0-0.04,0-0.06,0C188.75,163.76,188.77,163.76,188.79,163.76c0,0.49,0.03,1,0.06,1.51
				C188.81,164.75,188.79,164.24,188.79,163.76z"/>
			<path class="st13" d="M186.29,163.67L186.29,163.67c0.12,0,0.25,0.01,0.37,0.01C186.54,163.67,186.41,163.67,186.29,163.67z"/>
			<path class="st13" d="M186.93,163.68c0.11,0,0.23,0.01,0.35,0.01C187.16,163.69,187.04,163.69,186.93,163.68z"/>
			<path class="st13" d="M189.32,169.05c-0.11-0.58-0.2-1.15-0.27-1.7C189.13,167.9,189.21,168.47,189.32,169.05z"/>
			<path class="st13" d="M257.57,121.28L257.57,121.28c-0.38,41.91-67.65,49.78-67.8,49.8c0.12,0.48,0.25,0.96,0.39,1.45
				c10.52,1.51,31.62-2.23,47.9-14.91c10.28-8,16.2-17.68,19.62-25.64C257.78,128.15,257.72,124.57,257.57,121.28z"/>
			<path class="st13" d="M189.02,167.08c-0.07-0.53-0.12-1.06-0.15-1.56C188.9,166.02,188.95,166.54,189.02,167.08z"/>
			<path class="st13" d="M189.73,170.9c-0.14-0.59-0.27-1.16-0.38-1.72C189.46,169.74,189.58,170.31,189.73,170.9z"/>
		</g>
		<path class="st39" d="M211.82,171.37c-2.3-0.29-4.44-0.35-6.37-0.29c-2.66-3.34-6.87,1.13-6.87,1.13
			c-2.66-1.55-4.44,1.11-4.44,1.11l-2.53,3.34c0.59,1.46,1.29,2.99,2.12,4.59c0.52,0.04,1.04,0.08,1.58,0.11
			c3.31,0.19,6.35,0.14,9.04-0.06c5.63-0.4,7.12-1.42,13.45-2.53c2.55-0.45,6.38-1,11.17-1.24
			C225.18,175.17,219.34,172.3,211.82,171.37z"/>
		<path class="st40" d="M194.14,173.31l-2.53,3.34c0.2,0.5,0.44,1.03,0.67,1.55c2.98-1.03,6.43-1.96,10.31-2.55
			c11.03-1.69,20.36,0.11,26.38,1.87c-3.78-2.36-9.62-5.23-17.14-6.16c-2.3-0.29-4.44-0.35-6.37-0.29
			c-2.66-3.34-6.87,1.13-6.87,1.13c-0.47-0.21-1.08-0.41-1.81-0.48C195.14,171.81,194.14,173.31,194.14,173.31z"/>
		<path class="st41" d="M251.2,143.01c0,0,13.37-23.77,11.14,0.79c0,0-3.38,30.66-12.96,14.31L251.2,143.01z"/>
		<path class="st42" d="M253.06,143.51c0,0,7.7-13.28,6.52,0l-1.85,9.27c-0.44,0.31-0.99,0.63-1.65,0.9
			c-1.88,0.75-3.61,0.6-4.53,0.44C252.05,150.58,252.55,147.04,253.06,143.51z"/>
		<path class="st35" d="M207.91,135.31c0,0-27.62,23.59-23.31,28.34c0,0,14.35-0.08,18.08,3.02L207.91,135.31z"/>
		<path class="st43" d="M207.91,135.31c0,0-27.62,23.59-23.31,28.34c2.35-0.02,4.91,0.08,7.64,0.35c1.52,0.15,2.98,0.34,4.36,0.56
			C200.37,154.81,204.14,145.06,207.91,135.31z"/>
		
			<ellipse transform="matrix(0.1647 -0.9863 0.9863 0.1647 74.846 321.6067)" class="st36" cx="227.31" cy="116.61" rx="4.82" ry="30.62"/>
		
			<rect x="215.85" y="134.65" transform="matrix(0.9863 0.1647 -0.1647 0.9863 26.27 -35.8656)" class="st44" width="27.08" height="11.62"/>
		
			<rect x="219.25" y="137.39" transform="matrix(0.9863 0.1647 -0.1647 0.9863 26.2458 -35.812)" class="st45" width="19.61" height="5.91"/>
		<path class="st46" d="M239.02,140.16c-0.52-0.57-1.07-1.04-1.62-1.42l-6.71-1.12c-3.25,0.72-5.77,2.72-5.77,2.72
			c6.99,3.91,11.39,3.42,13.63,2.58L239.02,140.16z"/>
		<path class="st47" d="M239.02,140.16c-0.07-0.22-0.23-0.68-0.5-1.23l-10.91-1.82c-1.03,0.83-1.96,1.92-2.68,3.24
			c0.54,0.76,1.35,1.75,2.48,2.72l10.83,1.81L239.02,140.16z"/>
		<path class="st46" d="M239.02,140.16c-0.52-0.57-1.07-1.04-1.62-1.42l-6.71-1.12c-3.25,0.72-5.77,2.72-5.77,2.72
			c6.99,3.91,11.39,3.42,13.63,2.58L239.02,140.16z"/>
		<path class="st48" d="M236.06,143.46c0.6-0.7,0.98-1.6,0.98-2.59c0-0.87-0.28-1.66-0.75-2.31l-5.53-0.92
			c-1.01,0.72-1.68,1.9-1.68,3.24c0,0.54,0.11,1.06,0.31,1.53C232.17,143.4,234.37,143.6,236.06,143.46z"/>
		<path class="st49" d="M233.06,138.22c-1.46,0-2.65,1.19-2.65,2.65c0,0.91,0.46,1.71,1.15,2.18c0.77,0.19,1.49,0.31,2.16,0.37
			c1.14-0.29,1.99-1.32,1.99-2.56C235.71,139.41,234.52,138.22,233.06,138.22z"/>
		<circle class="st46" cx="235.71" cy="140.34" r="1.62"/>
		<path class="st50" d="M184.6,163.65c0,0,1.42-6.6,18.08,3.02L184.6,163.65z"/>
		<path class="st38" d="M227.23,304.79c-2.28,27.27-15.77,64.72-32.84,64.99c-16.51,0.26-34.61-34.28-32.84-64.99
			c2.02-35.05,30.16-69.09,46.77-65.33C223.99,243.01,229.29,280.21,227.23,304.79z"/>
		<path class="st35" d="M227.23,304.79c2.06-24.58-3.24-61.78-18.91-65.33c-0.64-0.14-1.29-0.23-1.96-0.26
			c5.49,9.22,15.04,28.23,15.73,53.82c1.01,37.62-17.83,63.99-23.97,71.91l6.76-0.05C216.77,353.81,225.44,326.17,227.23,304.79z"/>
		<path class="st35" d="M227.23,306.28c2.02,21.2,10.78,47.87,22.38,58.65h4.44c-14.43-30.23-16.86-54.51-15.98-71.91
			c0.87-17.35,6.11-49.32,6.19-49.94l0,0C228.83,247.16,225.07,283.63,227.23,306.28z"/>
		<path class="st51" d="M247.02,364.57c2.63,5.55,16.77,4.08,25.08,3.21c10.39-1.08,20.65-2.15,23.32-8.56
			c3.27-7.82-5.66-21.41-16.27-23.91C262.11,331.3,243.23,356.56,247.02,364.57z"/>
		<path class="st52" d="M161.56,304.79c-1.22,21.14,6.98,44.09,17.59,56.26c-3.68-9.12-12.94-35.5-5-68.03
			c7.05-28.88,23.81-46.84,31.11-53.83C188.47,239.74,163.46,271.82,161.56,304.79z"/>
		<path class="st51" d="M204.05,372.35c-7.88,11.23-43.85,3.39-45.88-7.42c-1.15-6.11,8.51-13.31,15.98-15.98
			c7.81-2.79,20.73-3.3,27.41,5.45C205.2,359.16,207.53,367.39,204.05,372.35z"/>
		<path class="st53" d="M333.94,365.36c-42.98-1.48-64.47-2.22-87.89,0c-15.07,1.43-39.5,4.51-71.91,0
			c-11.4-1.59-38.56-5.86-39.95-15.98c-1.04-7.56,13.72-8.17,23.97-23.97c17.82-27.47,2.99-71.63-0.55-82.19
			c-0.06-0.18-0.12-0.35-0.12-0.35c-1.41-4.16-10.11-28.9-19.28-28.5c-14.1,0.6-21.81,52.65-22.71,58.78
			c-5.77,38.98-25.52,52.11-29.25,76.23c-2.55,16.46,3.17,31.96,7.99,39.95c12.92,21.41,47.16,34.89,231.7,15.98
			c71.99-7.38,131.71-13.5,131.61-21.52C457.45,374.82,382.83,367.04,333.94,365.36z"/>
		<path class="st34" d="M142.28,340.27c4.79-3.05,10.88-7.14,15.88-14.86c10.98-16.92,9.56-40.17,6.03-58
			c0.39,9.73-0.22,24.83-6.03,42.02C153.6,322.93,147.34,333.25,142.28,340.27z"/>
		<path class="st34" d="M94.25,389.32c12.92,21.41,47.16,34.89,231.7,15.98c51.67-5.29,97.01-9.94,118.45-15.11l1.39-0.87
			c-68.08-7.56-121.99-4.53-159.79,0c-33.47,4.01-71.9,11.31-127.84,7.99C131.26,395.72,109.17,392.19,94.25,389.32z"/>
		<path class="st54" d="M333.94,365.36c-42.98-1.48-64.47-2.22-87.89,0c-15.07,1.43-39.5,4.51-71.91,0
			c-11.4-1.59-38.56-5.86-39.95-15.98c0,0-104.31,28.86,323.36,34.4C457.45,374.82,382.83,367.04,333.94,365.36z"/>
		<path class="st32" d="M467.38,363.53c-12.72-3.17-32.62-8.09-57.16-13.92c-44.05-10.47-50.88-11.49-60.3-16.22
			c-15.59-7.82-39.36-26.31-54.93-76.94c-3.33,29.55,16.97,59.93,25.57,72.99c2.73,4.15,5.16,7.42,6.73,9.48
			c4.87,2.77,12.13,6.54,21.33,9.98c19.9,7.44,36.29,8.67,45.78,9.38C436.76,361.47,457.33,363.13,467.38,363.53z"/>
	</g>
</g>
</svg>
