<?xml version="1.0" encoding="UTF-8"?><svg xmlns="http://www.w3.org/2000/svg" viewBox="0 0 1100 1100"><defs><style>.m,.n,.o,.p,.q,.r,.s,.t,.u{stroke-miterlimit:10;}.m,.n,.p,.q,.r,.s,.t,.u{stroke:#231815;}.m,.n,.p,.q,.s,.t,.u{stroke-linecap:square;}.m,.q,.r,.v{fill:#231815;}.m,.r{stroke-width:2.15px;}.w,.u{fill:#fff;}.n{fill:#f8c9c9;}.n,.p,.q,.s,.t,.u{stroke-width:1.07px;}.o{stroke:#323333;stroke-width:.92px;}.o,.s{fill:#323333;}.p{fill:#bf1a20;}.x{fill:#c79664;}.y{fill:#e4007f;}.z{fill:#620f13;}.aa{fill:#6ab82d;}.ab{fill:#601986;}.ac{fill:#956432;}.ad{fill:#00a0e9;}.t{fill:#933232;}.ae{fill:#666;}</style></defs><g id="a"><rect class="aa" width="1100" height="1100"/></g><g id="b"><path class="q" d="m406.44,709.17c-.5,7.84-2.62,47.32,11.43,77.49,6.25,13.42,14.59,23.28,14.59,23.28,9.39,9.39,16.71,15.41,21.18,18.72,10.29,7.62,23.45,21.36,34.46,48.15-7.55,12.14-15.1,24.5-22.64,37.07-5.07,8.45-10.04,16.85-14.93,25.21-5.25,2.8-10.63,5.59-16.13,8.37-5.49,2.78-10.91,5.44-16.26,8-.73-.13-16.26-2.66-25,8.25-1.24,1.54-5.45,7.41-4.53,14.69,1.72,13.55,20.14,22.88,32.27,19.59,8.29-2.25,6.3-8.41,16.92-16.34,17.25-12.88,39.72-9.49,43.41-20,.19-.53.62-1.54.69-2.76.22-4.15-3.34-7.26-3.64-15.96-.61-17.37,12.66-31.66,21.67-41.38,11.54-12.43,21.53-12.31,22.66-20.69.91-6.75-4.31-11.52-9.85-19.21-6.37-8.85-13.79-22.44-17.73-42.85,7.51-13.71,15.02-27.42,22.53-41.12,16.79,1.23,33.58,2.46,50.37,3.69,11.7,18.78,26.15,39.45,43.93,60.8,14.8,17.78,29.52,33.15,43.35,46.3,1.63,9.46,3.51,23.5,3.73,40.64.36,27.91.45,41.82-6.29,54.21-8.8,16.2-22.44,21.33-23.79,37.92-.67,8.26,2.35,11.47,3.15,12.25,5.18,5.02,14.26,2.34,15.22,2.05,1.56.85,11.74,6.17,22.59,1.69,5.09-2.1,8.28-5.51,9.92-7.6.87.83,2.25,1.96,4.16,2.87,5.37,2.57,10.63,1.32,12.85.79,2.25-.54,10.24-2.45,13.63-8.87,4.88-9.24-3.21-21.34-6.89-26.79-4.31-6.39-9.27-10.59-12.78-13.12-1.36-20.41-1.32-37.12-1.01-48.75.82-30.96,3.92-42.39-1.35-63.18-1.61-6.36-4.31-13.82-9.71-28.74-5.18-14.3-9.87-25.96-13.17-33.91,8.28-7.03,29.31-26.86,35.07-58.9,2.1-11.69,1.63-22.04.49-30.05-10.9-10.1-83.36-75.04-183.73-61.57-55.25,7.41-93.44,35.16-110.83,49.75Z"/><path class="y" d="m412.01,719.54c-.03,50.23,14.29,75.15,28.25,88.65,6.78,6.55,15.93,12.78,27.91,26.93,13.68,16.15,21.97,31.89,26.93,43.02-9.95,10.01-16.15,19.38-20.03,26.27-8.85,15.72-9.37,25.2-21.02,36.45-5.64,5.45-11.46,8.97-15.11,11.17-8.67,5.23-14.06,8.49-21.51,8.72-7.13.22-8.31-2.59-13.3-1.16-6.58,1.88-13.99,9.45-12.23,17.32,1.49,6.68,8.71,9.62,9.61,9.97-1.3-5.58.62-10.66,4.19-12.44,1.82-.91,3.76-.79,5.17-.49-4.91,1.91-7.86,6.31-7.39,10.34.63,5.36,7.04,7.8,10.84,8.13,6.67.58,13.67-4.62,17.08-13.14,4.51-2.91,11.27-6.75,20.03-9.85,11.63-4.11,17.99-3.81,21.67-9.19,3.38-4.95.79-9.28.82-17.98.06-17.66,10.86-31.46,15.6-37.52,13.22-16.9,25.39-15.83,26.6-26.6.74-6.58-3.01-10.91-12.48-24.96-5.24-7.78-12.87-19.47-21.67-34.48,10.73-15.11,21.45-30.21,32.18-45.32,17.21,1.42,34.43,2.85,51.64,4.27-4.1-6.96-8.2-13.92-12.31-20.89,5.83,6.31,79.22,93.35,110.08,130.57,4.23,26.09,3.83,47.56,2.63,62.39-2.15,26.44-3.7,34.69-9.52,40.72-4.44,4.6-9.76,7.06-17.24,16.5-6.96,8.78-8.58,13.48-7.88,17.73.18,1.08.93,5.71,4.99,8,4.67,2.64,9.87,0,10.34-.25.1-3.47.68-8.61,3.08-14.28,1.36-3.21,2.97-5.82,4.43-7.82-1.32,2.86-2.74,6.68-3.63,11.33-.74,3.9-.92,7.36-.86,10.16,2.41.83,5.83,1.69,9.97,1.72,7.47.05,13.11-2.62,15.89-4.19-.83-1.81-1.98-4.99-1.91-9.05.12-6.68,3.49-11.3,4.74-12.87-.93,2.97-1.97,7.67-1.42,13.36.29,3.02.96,5.59,1.66,7.63,1.1.54,10.93,5.15,19.21.1,3.35-2.04,5.69-5.07,6.5-7.56,3.2-9.92-6.1-23.73-22.21-35.6-1.25-36.24-2.5-72.48-3.75-108.71l-25.65-70.93c35.41-25.73,42.54-46.24,41.9-60.59-2.76-61.81-155.54-137.86-237.83-84.39-24.48,15.9-37.68,39.99-45,58.8Z"/></g><g id="c"><g id="d"><path class="q" d="m241.45,224.72s-31.06-81.52-22.19-98.76c8.87-17.24,10.3-21.18,10.3-21.18-1.97-4.41-4.36-11.74-3.28-20.57,1.1-8.97,6.08-21.76,16.62-25.74,1.34-.51,7.41-2.8,10.83.01,3.28,2.7,1.97,8.39,1.08,17.75-.55,5.77-1.05,14.27-.58,24.93.16,2.03.57,4.92,1.73,8.18,1.87,5.25,4.62,8.65,5.17,9.22,8.87,9.36,16.26,38.91,13.79,64.03l6.08,21.02,2.96,8.87-42.5,12.23Z"/><path class="y" d="m224.19,123.01c2.97-5.79,5.94-11.59,8.91-17.38-1.07-2.7-2.44-6.9-3-12.17-.38-3.52-2.37-22.21,9.03-30.54,4.15-3.03,10.88-5.27,13.63-2.79,2.85,2.57-.86,8.11-2.13,22.49-.45,5.09-.88,10.37.16,17.24,0,0,1.52,9.96,6.19,19.23,1.46,2.91,3.36,5.99,3.36,5.99,1.32,2.15,2.38,3.64,2.89,4.41,5.21,7.73,10.23,22.33,8.74,52.63,2.63,9.98,5.25,19.96,7.88,29.93-13.25,3.02-26.49,6.04-39.74,9.05,0,0-30.2-66.08-15.92-98.1Z"/><path class="m" d="m258.67,203.63c-7.84,7.6-19.05,9.04-20.36,9.19-4.46.52-11.76,1.37-19.21-2.63-2.71-1.46-7.1-3.81-9.14-8.57-1.83-4.28.05-6.24-2.19-10.8-2.2-4.5-4.72-4.01-5.91-7.88-1.28-4.17,1.34-5.73.16-10.18-1.01-3.82-3.42-4.43-5.23-7.67-1.59-2.84-2.66-7.61.31-15.87-.39-1.11-.84-2.72-.99-4.69-.31-4.1.81-7.87,2.13-10.18,4.22-7.35,15.18-8.02,21.02-8.37,1.68-.1,6.43.48,15.93,1.64,8.08.99,11.14,1.58,14.12,4.02,1.22,1,4.31,3.54,4.72,7.78.37,3.78-1.61,6.65-2.26,7.51,1.47,1.4,4.39,4.58,5.91,9.6,1.75,5.78.61,10.66.05,12.59.35.25,4.88,3.58,4.68,9.29-.15,4.16-2.76,7.92-6.69,9.63.81.66,6.89,5.7,5.75,11.17-.38,1.83-1.46,3.14-2.79,4.43Z"/><path class="y" d="m218.61,129.08c9.93.23,30.65.03,32.92,8.7.37,1.41.45,3.8-1.85,7.39-1.71-.79-6.88-2.89-13.18-1.35-3.85.94-6.55,2.84-8,4.06,1.57-.6,12.66-4.64,21.18,1.11,1.26.85,4,2.75,5.66,6.4,2.36,5.17.87,10.1.42,11.42-2.04-1.5-5.56-3.65-10.39-4.65-1.02-.21-7.9-1.63-11.46.24,0,0-4.71,2.48-5.78,2.83,0,0-.01,0-.01,0,0,.03,8.83-2.13,18.48,1.1,4.17,1.4,12.28,4.45,12.89,10.43.47,4.6-3.76,8.41-4.92,9.39-.78-.58-7.79-5.66-14.99-2.96-1.98.74-3.48,1.89-4.56,2.96,1.2-.35,11.05-3.06,18.47,3.08,1.03.85,6.27,5.18,5.3,9.24-.68,2.83-3.66,2.56-23.4,8-.88.24-10.57,2.92-15.64-.25-.1-.06-.38-.24-.73-.49-1.52-1.06-4.52-3.47-6.29-7.4-1.61-3.58-.41-4.46-1.97-8.25-2.29-5.56-5.85-6.03-6.77-10.46-.41-1.98-.21-4.36,1.15-7.23,0,0-11.49-15.9-3.61-23.22,0,0-9.2-20.73,17.08-20.13Z"/></g><g id="e"><path class="q" d="m762.9,759.8s24.3,165.83,3.12,244.92l28.57,2.46s-11.16-240.03-12.72-250.18l-18.97,2.79Z"/><path class="s" d="m765.86,771.07c3.83,1.09,7.66,2.19,11.49,3.28,3.61,76.62,7.22,153.25,10.84,229.87-5.42-.44-10.84-.88-16.26-1.31,2.21-17.31,3.49-31.74,4.27-42.03,6.23-82.39-1.89-140.4-3.78-153.19-2.29-15.53-4.79-28.21-6.57-36.61Z"/><path class="q" d="m761.34,706.96s20.69-29.8,33.25,4.19c-.24,3.26-.69,6.91-1.48,10.84-.59,2.93-1.29,5.63-2.04,8.08,1.26.99,3.23,2.5,5.73,4.23,5.99,4.15,8.98,6.23,10.34,7.39,1.59,1.36,3.44,3.7,7.14,8.37,4.71,5.95,7.07,8.97,7.22,11.17.15,2.15-1.21,5.04-3.94,10.84-1.95,4.13-2.92,6.2-3.78,7.31-3.34,4.31-8.02,5.53-17.24,7.8-10.21,2.51-15.32,3.76-19.21,1.07-2.35-1.63-1.93-2.96-6.65-7.14-3.29-2.91-4.98-3.58-5.17-5.42-.24-2.31,2.11-4.31,4.93-6.65,2.13-1.76,5.58-4.22,10.59-6.16,2-5.12.5-10.66-3.33-13.42-3.9-2.81-8.57-1.54-9.23-1.36l-7.14,8.91c.59,1.06,5.16,9.55,1.19,17.77-3.52,7.29-12.41,11.61-15.39,9.52-1.98-1.39,0-4.65-1.89-12.81-.96-4.12-2.42-7.26-3.12-8.87-3.42-7.83-6.25-8.48-6.42-12.25-.11-2.43.79-6.04,5.93-10.66,2.1-1.43,10.78-7.55,15.27-16.5,2.05-4.08,3.2-8.62,3.2-8.62.75-2.95,1.09-5.57,1.23-7.63Z"/><path class="y" d="m764.54,708.93l25.37,6.9-3.45,14.53c5.88,3.39,10.45,6.58,13.67,8.99,4.35,3.26,5.84,4.8,6.63,5.85.18.24.3.43.39.56,4.79,7,8.65,9.53,9.85,13.55,2.02,6.74-4.44,14.2-5.79,15.76-2.42,2.79-4.89,4.31-6.53,5.3-6.19,3.72-11.65,4.73-18.08,5.75-4.1.66-5.72.58-6.74.33-.31-.08-.49-.15-.55-.17-.25-.09-6.21-3.75-5.54-5.73.46-1.35,3.7-.97,9.91-1.29,4.99-.26,9.11-.81,12.01-1.29.43-1.96,1.43-5.25,3.94-8.56,1.74-2.3,3.63-3.83,5.05-4.8-1-.44-2.75-1.37-4.31-3.2-1.94-2.28-2.52-4.68-2.71-5.79-.33,4.8-1.44,19.31-3.69,20.07-.15.05-.32.1-.32.1-.45.09-1.08-.04-4.44-.27-.96-.07-2.13-.08-3.62.06-4.36.39-5.1,1.46-8.87,1.48-.77,0-7.41.04-8.13-2.34-.7-2.32,4.55-5.92,7.63-7.51,3.86-1.99,7.51-2.47,9.85-2.59-.51-2.57-1.35-6.31-2.75-10.74-1.71-5.45-2.52-6.44-3.04-6.99-3.14-3.31-9.36-4.48-14.41-1.97-4.59,2.28-7.43,7.21-7.25,12.54,3.49,6.54,3.44,13.6-.16,18.18-1.75,2.23-5.46,5.3-8.11,4.25-3.42-1.36-1.08-8.05-4.93-17.61-3.5-8.69-7.69-8.75-7.51-13.3.28-7.22,10.91-9.02,18.84-19.33,5.62-7.3,7.22-15.4,7.76-20.69Z"/><circle class="q" cx="774.55" cy="757.65" r="14.84" transform="translate(-277.15 1018.2) rotate(-58.28)"/><path class="s" d="m787.73,750.86c.22,1.65.76,7.25-2.66,12.99-3.54,5.94-8.98,8.09-10.52,8.64-8.15,0-14.84-6.71-14.84-14.84,0-8.52,7.35-14.83,14.84-14.84,8.33-.02,12.98,7.72,13.18,8.05Z"/><path class="ae" d="m761.44,753.4c1.47-4.86,6-8.63,11.22-9.35,5.23-.73,9.16,1.89,10.11,2.56-6.25-1.8-12.68.73-15.43,5.58-3.43,6.05-.74,15.01,6.9,18.55-.74.22-1.63.36-2.62.26-5.88-.58-12.61-9.52-10.17-17.61Z"/></g></g><g id="f"><path class="q" d="m640.91,749.4c15.52,5.47,39.01,10.76,71.42,7.55-2.5-6.88-5-13.77-7.5-20.65,5.78,7.83,11.57,15.66,17.35,23.49-2.46-9.81-4.93-19.62-7.39-29.43,4.07,1.49,8.14,2.97,12.21,4.46-15.61-22.85-19.27-41.83-19.6-55.19-.45-18,5.07-28.04,10.67-61.9,2.85-17.23,4.22-31.53,4.93-41.05,7.83,5.63,17.16,13.48,26.27,24.14,5.86,6.85,10.48,13.53,14.12,19.54-3.06,27.31-6.13,54.62-9.19,81.93,16.58,2.96,33.17,5.91,49.75,8.87,2.35-16.16,5.91-34.24,11.33-53.69,6.41-22.99,14.07-43.09,21.67-60.09-1.97-4.93-3.94-9.85-5.91-14.78,2.13-1.97,4.27-3.94,6.4-5.91-10.29-23.04-20.41-47.68-30.05-73.89-16.08-43.73-28.41-85.25-37.93-123.64-2.63-1.15-5.25-2.3-7.88-3.45.66-5.42,1.31-10.84,1.97-16.26-49.75,3.12-99.5,6.24-149.25,9.36-3.83,5.19-34.69,45.59-88.66,47.29-43.91,1.38-73.38-23.79-79.8-29.55-11.97-6.35-25.11-12.68-39.41-18.72-21.82-9.21-42.42-16.05-61.08-21.18-3.48-10.32-8.28-23.98-14.45-39.9-5.52-14.25-11.39-29.3-20.36-48.27-5.14-10.87-12.18-24.88-21.34-40.88-15.43,3.45-30.87,6.9-46.3,10.34,5.46,23.82,10.55,49.06,15.03,75.65,5.06,30.06,8.82,58.77,11.57,85.92,4.27-.99,8.54-1.97,12.81-2.96-1.97,3.61-3.94,7.22-5.91,10.84,12.95,8.43,26.43,18.06,40.14,29.06,34.33,27.55,60.85,56.3,81.03,82.01-2.37,9.76-5.77,25.89-7.39,46.06-4.29,53.51,8.71,76.05,2.96,113.54-2.61,17.03-9.9,42.38-32.76,71.67,7.8-4.27,15.6-8.54,23.4-12.81-.33,9.36-.66,18.72-.99,28.08,0,.04-.01.17.05.22,1.06.76,16.54-19.2,19.32-22.55,9.49-11.43,31.73-22.95,88.66-21.67,7.17-7.33,14.34-14.67,21.51-22-1.04,9.96-2.08,19.92-3.12,29.88,7.67,2.48,19.33,5.71,33.82,7.55,21.47,2.73,28.85-.18,44.33,1.64,24.04,2.82,30.37,13.18,53.53,21.34Z"/><g id="g"><path class="q" d="m507.08,609.18c5.02-4.49,10.24-9.51,15.54-15.1,6.81-7.19,12.71-14.23,17.8-20.86,52.24,23.7,135.3,72.39,163.54,160.09,1.88,5.84,3.54,11.91,4.93,18.23-5.37-.92-13.41-2.06-23.22-2.44-12.36-.48-21.15.47-24.31.71-35.03,2.68-51.09-30.59-90.63-28.32-10.58.61-19.16,3.54-34.48.74-10.78-1.97-19.21-5.75-24.63-8.62,1.25-3.13,2.89-7.97,3.69-14.04,1.7-12.89-2.21-17.43-3.69-30.79-2.3-20.71,5.31-26.04.84-44.93-1.52-6.4-3.72-11.42-5.36-14.67Z"/><path class="t" d="m509.14,609.43c4.39-4.66,8.92-9.77,13.48-15.35,5.18-6.34,9.78-12.51,13.86-18.4-.55,10.29-1.09,20.58-1.64,30.87,3.16,8.23,6.2,16.99,9.03,26.27,6.2,20.34,10.22,39.42,12.81,56.65,7.24,1.69,19.15,4.34,33.99,7.06,37.54,6.87,52.27,6.55,75.53,16.42,12.54,5.32,22.44,11.59,30.54,21.34,4.84,5.83,7.85,11.47,9.69,15.52-5.13-.85-13.39-2.01-23.64-2.46-12.67-.55-20.92.31-25.12.49-30.83,1.34-37.95-25.69-72.41-28.57-17.18-1.43-22.11,4.72-45.07,1.23-11.36-1.73-20.43-4.8-26.35-7.14,1.4-3.76,3.16-9.55,3.69-16.75.86-11.61-2.35-15.15-3.69-26.6-2.34-19.93,5.51-25.03,1.97-42.85-1.55-7.82-4.47-13.88-6.65-17.73Z"/><polygon class="w" points="518.87 615.01 517.76 616.36 521.34 619.44 516.29 626.46 517.15 627.32 522.32 620.67 526.75 624 528.23 622.27 523.31 618.7 526.38 615.01 524.66 613.41 521.58 617.23 518.87 615.01"/><polygon class="w" points="518.87 635.53 517.89 637.26 520.6 639.47 516.29 646.86 518.44 647.48 522.26 640.83 528.23 644.28 528.85 642.55 523.06 639.35 526.01 635.53 524.17 634.18 522.26 637.75 518.87 635.53"/><polygon class="w" points="519.49 658.19 517.64 659.67 520.72 662.5 516.78 669.03 518.75 669.64 522.2 663.92 526.38 668.91 527.74 667.06 523.06 662.38 526.63 657.45 524.91 656.1 521.46 660.53 519.49 658.19"/><g><path class="o" d="m67.24,1029.83c-1.49,0-2.68-.12-3.55-.36-.87-.24-1.31-.58-1.31-1.02,0-.23.17-.61.5-1.15.33-.54.59-.81.78-.81.28,0,.41.06.41.17,0,.07-.04.15-.12.24-.08.09-.12.18-.12.28,0,.07.14.17.43.31.29.14.73.26,1.33.38.6.12,1.32.17,2.17.17,1.36,0,2.54-.26,3.57-.79,1.02-.53,1.81-1.19,2.36-2,.55-.8.83-1.59.83-2.34,0-.99-.48-1.84-1.43-2.55-.95-.71-2.49-1.39-4.6-2.03-2.05-.67-3.63-1.22-4.74-1.67-1.11-.45-2.02-1-2.71-1.65-.69-.65-1.03-1.45-1.03-2.4,0-1.26.71-2.51,2.14-3.74,1.42-1.23,3.18-2.23,5.27-3,2.09-.77,4.03-1.15,5.82-1.15.92,0,1.41.18,1.48.55.07.37.1.78.1,1.24,0,.34-.13.52-.38.52-.12,0-.25-.04-.4-.12-.15-.08-.28-.14-.4-.19-.14-.05-.3-.09-.48-.14-.18-.05-.45-.07-.79-.07-1.2,0-2.63.31-4.31.93-1.68.62-3.13,1.39-4.36,2.31-1.23.92-1.84,1.8-1.84,2.65,0,.69.28,1.29.84,1.79.56.51,1.31.94,2.26,1.29.94.36,2.27.8,4,1.33,2.53.74,4.39,1.56,5.6,2.48,1.21.92,1.81,2.05,1.81,3.38,0,1.15-.39,2.28-1.15,3.4-.77,1.11-1.85,2.02-3.24,2.72-1.39.7-2.97,1.05-4.74,1.05Z"/><path class="o" d="m92.67,1029.28c-.46,0-.88-.48-1.26-1.45-.38-.97-.61-1.96-.71-3-.09-.99-.16-2.99-.21-6-.02-.48-.03-.97-.03-1.46s-.01-.91-.03-1.26c-.67,1.59-1.57,3.39-2.72,5.41-1.15,2.02-2.3,3.76-3.46,5.2-1.16,1.45-2.11,2.17-2.84,2.17s-1.26-.4-1.5-1.21c-.24-.8-.36-2.08-.36-3.83,0-1.63.21-3.48.64-5.55.43-2.07.91-3.64,1.46-4.72.23-.48.43-.81.59-.98.16-.17.34-.26.55-.26.57,0,.86.12.86.34,0,.12-.12.38-.34.79-.62,1.15-1.16,2.53-1.62,4.14-.46,1.61-.69,3.77-.69,6.48,0,1.82.25,2.72.76,2.72.6,0,1.41-.66,2.43-1.98,1.02-1.32,2.04-2.9,3.05-4.74,1.01-1.84,1.78-3.43,2.31-4.79.18-.46.39-1.17.62-2.14.07-.39.14-.67.21-.84.07-.17.15-.26.24-.26.25,0,.53.1.83.31.3.21.45.43.45.65,0,1.1.04,2.99.12,5.67.08,2.68.18,4.53.29,5.57.09.9.26,1.6.5,2.1.24.51.48.9.71,1.19.23.29.34.47.34.53,0,.37-.1.65-.31.86-.21.21-.49.31-.86.31Z"/><path class="o" d="m108.43,1036.83c-.99.94-2.02,1.71-3.08,2.29-1.07.59-1.99.88-2.77.88-.44,0-.75-.11-.93-.33-.18-.22-.28-.48-.28-.78,0-.28.52-.6,1.55-.97,1.56-.51,3.01-1.36,4.34-2.55,1.03-.92,1.79-1.96,2.27-3.14.48-1.17.72-2.37.72-3.58,0-1.38-.09-2.64-.26-3.79-.17-1.15-.44-2.56-.81-4.24-.41-1.77-.7-3.27-.86-4.52-.39,1.06-.99,2.33-1.81,3.83-.82,1.49-1.79,2.93-2.91,4.31-1.06,1.31-2.02,2.29-2.88,2.93-.86.64-1.69.96-2.5.96-.69,0-1.2-.27-1.53-.81-.33-.54-.5-1.28-.5-2.22,0-1.56.48-3.4,1.45-5.51.96-2.11,2.17-3.93,3.62-5.45,1.45-1.52,2.87-2.27,4.27-2.27.48,0,.86.17,1.12.52.26.34.4.76.4,1.24,0,.62-.13.93-.38.93-.07,0-.16-.09-.26-.26-.1-.17-.22-.33-.36-.47s-.29-.21-.45-.21c-1.17,0-2.36.65-3.57,1.96-1.21,1.31-2.21,2.84-3,4.6s-1.19,3.2-1.19,4.33c0,.62.09,1.07.26,1.34.17.28.44.41.81.41.55,0,1.22-.32,2-.96.78-.64,1.71-1.65,2.79-3.03.96-1.22,1.84-2.64,2.64-4.26.79-1.62,1.4-3.16,1.81-4.64.05-.14.12-.25.22-.34.1-.09.22-.14.36-.14.21,0,.42.06.64.19.22.13.33.26.33.4,0,.09-.02.19-.05.29-.03.1-.06.17-.09.19.16,1.26.54,3.23,1.14,5.89.44,1.88.76,3.46.98,4.74.22,1.28.33,2.52.33,3.74,0,1.79-.36,3.42-1.07,4.89-.71,1.47-1.55,2.67-2.52,3.58Z"/><path class="o" d="m116.49,1007.64c-.39,0-.79-.16-1.19-.48-.4-.32-.6-.59-.6-.79,0-.25.12-.49.36-.72.24-.23.49-.34.74-.34.34.12.63.3.86.55.18.18.39.43.62.72.23.3.34.48.34.55,0,.34-.38.52-1.14.52Zm1.03,21.85c-.32-.02-.56-.54-.71-1.55-.15-1.01-.3-2.93-.47-5.76-.09-1.86-.17-3.68-.24-5.46-.07-1.78-.12-3.15-.14-4.12,0-.25.04-.44.12-.57.08-.13.24-.19.47-.19.53,0,.86.22,1,.65.14.44.21,1.28.21,2.52l-.03,4.07c0,2.32.07,4.18.21,5.58,0,.07.1.8.31,2.21.16.97.24,1.61.24,1.93,0,.23-.1.41-.29.53-.2.13-.42.18-.67.16Z"/><path class="o" d="m133.9,1016.91c-.28,2.02-.43,3.16-.45,3.41-.3,2.83-.51,4.98-.64,6.46-.13,1.48-.19,2.82-.19,4.02,0,.99.07,1.77.22,2.34.15.57.31,1.03.48,1.36.17.33.26.53.26.6,0,.21-.18.39-.55.55-.37.16-.75.24-1.14.24-.3,0-.53-.4-.71-1.21-.17-.8-.26-2.06-.26-3.76,0-1.29.13-3.02.38-5.2l.52-4.76c-.62,1.19-1.38,2.34-2.29,3.43-.91,1.09-1.84,1.64-2.81,1.64-.9,0-1.7-.78-2.41-2.34-.71-1.56-1.27-3.33-1.67-5.31-.4-1.98-.6-3.42-.6-4.34,0-.57.17-.86.52-.86.51,0,.83.47.96,1.41.87,6.39,2.09,9.58,3.65,9.58.62,0,1.17-.25,1.64-.74.47-.49,1.03-1.26,1.67-2.29.3-.48.62-1.13.97-1.93.34-.8.61-1.47.79-2l.24-3.48c.05-.53.11-.9.21-1.12.09-.22.28-.33.55-.33.23,0,.46.13.69.4.23.26.34.52.34.78,0,.53-.13,1.68-.38,3.45Z"/><path class="o" d="m152.3,1027.42c0,.28-.12.59-.34.95-.23.36-.46.53-.69.53-.39,0-.69-.24-.9-.72-.21-.48-.31-1.05-.31-1.69,0-.55.03-2.21.1-4.96l.03-1.31c0-.53-.14-.91-.41-1.14-1.03,1.75-2,3.26-2.9,4.55-.9,1.29-2.03,2.5-3.41,3.64-1.38,1.14-2.83,1.71-4.34,1.71-.74,0-1.3-.23-1.71-.69-.4-.46-.6-1.06-.6-1.79,0-.92.41-2.18,1.24-3.77.83-1.6,1.88-3.22,3.17-4.86,1.29-1.64,2.57-2.99,3.86-4.05.85-.69,1.53-1.15,2.03-1.4.51-.24.95-.36,1.34-.36.37,0,.75.12,1.14.34.39.23.72.55,1,.96.28.41.41.89.41,1.41,0,.71-.2,1.39-.59,2.03l.59-.17c.25,0,.4.31.45.93.02.37.05,1.11.09,2.24.03,1.13.06,2.06.09,2.79.02.76.05,1.49.07,2.21.02.71.05,1.28.07,1.69.02.16.11.33.28.5.16.17.24.32.24.43Zm-3-9.69c.28-.69.41-1.44.41-2.24,0-.48-.14-.9-.43-1.26-.29-.36-.67-.53-1.15-.53-.57,0-1.31.39-2.21,1.17-1.03.87-2.13,2.04-3.27,3.5-1.15,1.46-2.1,2.9-2.86,4.33-.76,1.42-1.14,2.55-1.14,3.38,0,.69.32,1.03.97,1.03,1.24,0,2.44-.46,3.58-1.38,1.15-.92,2.18-2.02,3.08-3.29.91-1.28,1.91-2.84,3.02-4.7Z"/><path class="o" d="m176.5,1029.35c-.41,0-.62-.21-.62-.62,0-4.64-.15-8.2-.45-10.67-.3-2.47-.82-3.71-1.55-3.71-1.24,0-3.06,4.33-5.45,12.99v.03c0,.28-.09.51-.28.71-.18.2-.43.29-.72.29-.41,0-.62-.21-.62-.62,0-.92.05-2.34.14-4.27.09-2.16.14-3.86.14-5.1,0-1.72-.05-2.95-.16-3.67-.1-.72-.33-1.09-.67-1.09-.78,0-1.77,1.43-2.96,4.29-1.2,2.86-2.45,6.23-3.76,10.12l-.31.9c-.09.23-.22.43-.4.59-.17.16-.36.24-.57.24-.28,0-.46-.02-.55-.07-.09-.05-.15-.18-.17-.41-.12-1.13-.21-2.63-.28-4.52-.05-.48-.09-1.28-.14-2.38-.23-3.88-.44-6.51-.62-7.88-.18-1.37-.28-2.13-.28-2.29,0-.18.09-.4.28-.65.18-.25.36-.38.52-.38.37,0,.67.26.9.79.11.25.24,1.26.38,3.03.14,1.77.25,3.96.34,6.58l.17,5.27c1.26-3.91,2.57-7.45,3.93-10.63,1.36-3.18,2.6-4.77,3.72-4.77.76,0,1.28.55,1.55,1.65.28,1.1.41,2.7.41,4.79,0,1.1-.02,2.69-.07,4.76l-.03,1.59c.94-3.29,1.88-6.04,2.81-8.27.93-2.23,1.87-3.34,2.81-3.34,2.37,0,3.55,5.24,3.55,15.72,0,.28-.09.51-.28.71-.18.19-.43.29-.72.29Z"/><path class="o" d="m196.35,1027.42c0,.28-.12.59-.34.95-.23.36-.46.53-.69.53-.39,0-.69-.24-.9-.72-.21-.48-.31-1.05-.31-1.69,0-.55.03-2.21.1-4.96l.03-1.31c0-.53-.14-.91-.41-1.14-1.03,1.75-2,3.26-2.9,4.55-.9,1.29-2.03,2.5-3.41,3.64-1.38,1.14-2.83,1.71-4.34,1.71-.74,0-1.3-.23-1.71-.69-.4-.46-.6-1.06-.6-1.79,0-.92.41-2.18,1.24-3.77.83-1.6,1.88-3.22,3.17-4.86,1.29-1.64,2.57-2.99,3.86-4.05.85-.69,1.53-1.15,2.03-1.4.51-.24.95-.36,1.34-.36.37,0,.75.12,1.14.34.39.23.72.55,1,.96.28.41.41.89.41,1.41,0,.71-.2,1.39-.59,2.03l.59-.17c.25,0,.4.31.45.93.02.37.05,1.11.09,2.24.03,1.13.06,2.06.09,2.79.02.76.05,1.49.07,2.21.02.71.05,1.28.07,1.69.02.16.11.33.28.5.16.17.24.32.24.43Zm-3-9.69c.28-.69.41-1.44.41-2.24,0-.48-.14-.9-.43-1.26-.29-.36-.67-.53-1.15-.53-.57,0-1.31.39-2.21,1.17-1.03.87-2.13,2.04-3.27,3.5-1.15,1.46-2.1,2.9-2.86,4.33-.76,1.42-1.14,2.55-1.14,3.38,0,.69.32,1.03.97,1.03,1.24,0,2.44-.46,3.58-1.38,1.15-.92,2.18-2.02,3.08-3.29.91-1.28,1.91-2.84,3.02-4.7Z"/><path class="o" d="m220.79,1008.5c-.07,0-.3-.06-.71-.19-.4-.13-.78-.19-1.12-.19-1.1,0-2.36.06-3.76.17-1.4.12-2.56.28-3.48.48.07,1.1.13,2.84.19,5.22.06,2.38.09,4.88.09,7.5,0,1.1-.02,2.33-.05,3.69-.03,1.36-.09,2.19-.16,2.52-.05.25-.2.46-.47.62-.26.16-.53.24-.81.24-.16,0-.3-.07-.41-.21-.12-.14-.17-.3-.17-.48l.03-1.21c.14-1.79.21-4,.21-6.62,0-1.88-.02-4.04-.07-6.46-.05-2.42-.09-3.92-.14-4.5-4.6.51-7.66.98-9.2,1.41-.28.09-.59.14-.93.14-.41,0-.82-.15-1.21-.45-.39-.3-.59-.62-.59-.96,0-.23.07-.4.21-.5s.31-.16.52-.16c1.31-.07,2.41-.14,3.31-.21,2.04-.18,4.62-.47,7.72-.86,0-.71.02-1.22.05-1.52.03-.3.11-.45.22-.45.44,0,.83.17,1.17.52.07.07.13.25.17.53.05.29.07.48.07.57.51-.02,1.33-.14,2.48-.34,2.48-.39,4.18-.59,5.1-.59,1.1,0,1.84.14,2.21.41.25.18.38.52.38,1,0,.18-.08.37-.24.57-.16.2-.37.29-.62.29Z"/><path class="o" d="m228.06,1028.94c-1.54,0-2.68-.42-3.41-1.28-.74-.85-1.1-1.91-1.1-3.17,0-1.1.2-2.47.6-4.1.4-1.63.97-3.09,1.71-4.38.05-.09.24-.43.57-1.02.33-.59.71-1.03,1.12-1.34.41-.31.85-.47,1.31-.47.21,0,.4.05.57.16s.26.24.26.4c0,.05-.06.16-.19.33-.13.17-.22.3-.29.4-.78.94-1.41,1.87-1.9,2.79-.64,1.17-1.14,2.33-1.5,3.48-.36,1.15-.53,2.4-.53,3.76,0,1.82,1.1,2.72,3.31,2.72,1.03,0,1.99-.3,2.88-.9.88-.6,1.59-1.33,2.12-2.19.53-.86.79-1.65.79-2.36,0-.8-.26-1.5-.79-2.1-.53-.6-1.25-1.23-2.17-1.9-.6-.44-1.03-.79-1.31-1.07s-.41-.51-.41-.69c0-.28.19-.5.59-.67.39-.17.85-.26,1.38-.26.3,0,.49.02.59.05.09.03.14.1.14.19,0,.05-.04.12-.12.22-.08.1-.12.19-.12.26s.23.3.69.69c.92.76,1.69,1.53,2.31,2.31.62.78.93,1.7.93,2.76,0,.9-.33,1.93-1,3.1-.67,1.17-1.61,2.18-2.83,3.02-1.22.84-2.61,1.26-4.17,1.26Z"/><path class="o" d="m242.64,1029.87c-.99,0-1.65-.09-2-.28-.34-.18-.52-.44-.52-.76,0-.21.26-.57.79-1.09.53-.52.88-.78,1.07-.78.28,0,.41.06.41.17,0,.09-.06.18-.17.28-.12.09-.17.17-.17.24,0,.09.14.18.43.28.29.09.64.14,1.05.14.97,0,1.94-.18,2.91-.53.98-.36,1.78-.82,2.4-1.4.62-.57.93-1.18.93-1.83s-.2-1.11-.59-1.48c-.39-.37-.88-.64-1.46-.81-.59-.17-1.57-.42-2.95-.74-1.52-.34-2.69-.65-3.53-.91-.84-.26-1.51-.6-2.02-1-.51-.4-.76-.91-.76-1.53,0-1.1.54-2.11,1.62-3.03,1.08-.92,2.32-1.64,3.72-2.17,1.4-.53,2.48-.79,3.24-.79s1.17.23,1.17.69c0,.28-.09.58-.28.91-.18.33-.46.5-.83.5-.14,0-.29-.05-.45-.16-.16-.1-.32-.16-.48-.16-.46,0-1.18.15-2.17.45-.99.3-1.88.75-2.69,1.34-.8.6-1.21,1.32-1.21,2.17,0,.55.32.96.95,1.22.63.26,1.81.59,3.53.98.21.07.41.12.62.16.21.03.39.07.55.12,1.77.41,3.12.88,4.07,1.41.94.53,1.41,1.32,1.41,2.38s-.41,1.98-1.22,2.91c-.82.93-1.89,1.68-3.22,2.24-1.33.56-2.72.84-4.17.84Z"/><path class="o" d="m268.21,1030.18c-.23,0-.43-.05-.59-.16-.16-.1-.24-.25-.24-.43l.07-2.38c.11-2.83.17-5.14.17-6.93,0-2.62-.18-4.45-.55-5.5-.37-1.05-.79-1.57-1.28-1.57-1.08,0-2.44,1.67-4.07,5.02-1.63,3.34-3.21,6.99-4.72,10.94-.12.32-.27.63-.47.93-.2.3-.4.45-.6.45-.51,0-.76-.16-.76-.48,0-1.4-.06-4.03-.17-7.88-.12-3.85-.21-6.38-.28-7.6-.21-4.11-.4-6.65-.59-7.62-.18-.96-.28-1.48-.28-1.55,0-.23.13-.4.38-.52.25-.11.57-.17.96-.17.32,0,.56.73.71,2.19.15,1.46.26,3.33.33,5.6l.03.96c.05.71.08,2.75.1,6.12.02,3.37.03,5.84.03,7.43,1.06-2.64,2.05-5,2.98-7.07.93-2.07,2-4,3.22-5.81,1.22-1.8,2.34-2.71,3.38-2.71.87,0,1.61.73,2.21,2.19.6,1.46.9,3.64.9,6.53,0,1.29.02,3.08.07,5.38l.03,3.62c0,.28-.09.51-.28.71-.18.19-.43.29-.72.29Z"/><path class="o" d="m274.59,1007.64c-.39,0-.79-.16-1.19-.48-.4-.32-.6-.59-.6-.79,0-.25.12-.49.36-.72.24-.23.49-.34.74-.34.34.12.63.3.86.55.18.18.39.43.62.72.23.3.34.48.34.55,0,.34-.38.52-1.14.52Zm1.03,21.85c-.32-.02-.56-.54-.71-1.55-.15-1.01-.3-2.93-.47-5.76-.09-1.86-.17-3.68-.24-5.46-.07-1.78-.12-3.15-.14-4.12,0-.25.04-.44.12-.57.08-.13.24-.19.47-.19.53,0,.86.22,1,.65.14.44.21,1.28.21,2.52l-.03,4.07c0,2.32.07,4.18.21,5.58,0,.07.1.8.31,2.21.16.97.24,1.61.24,1.93,0,.23-.1.41-.29.53-.2.13-.42.18-.67.16Z"/><path class="o" d="m295.3,1015.39c-.18,0-.39-.1-.62-.29-.23-.19-.39-.29-.48-.29-.62,0-1.61.43-2.96,1.28-1.36.85-2.75,1.85-4.17,3-1.42,1.15-2.52,2.13-3.27,2.93l.03.62c1.75.8,3.69,1.67,5.82,2.58,2.14.92,3.62,1.46,4.45,1.62.32.05.64.08.97.1.32.02.55.03.69.03.21,0,.38.01.52.03.14.02.21.07.21.14,0,.28-.21.55-.64.83-.43.28-1.06.41-1.91.41-.76,0-1.79-.28-3.08-.84-1.3-.56-2.83-1.3-4.6-2.22l-2.17-1.07c.3,2.92.45,4.53.45,4.83,0,.25-.13.46-.38.62-.25.16-.53.24-.83.24-.18,0-.33-.28-.45-.83-.12-.55-.25-1.64-.41-3.27l-.24-2.1c-.28-.11-.52-.28-.72-.5-.21-.22-.31-.42-.31-.6,0-.28.23-.6.69-.97-.02-1.24-.09-3.01-.19-5.31-.1-2.3-.18-3.98-.22-5.03l-.17-4.79c0-.64.08-1.19.24-1.65.16-.46.52-.69,1.07-.69.21,0,.34.04.41.12.07.08.1.24.1.47,0,1.06.07,3.51.22,7.36.15,3.85.27,6.59.36,8.22,5.12-4.87,8.87-7.31,11.24-7.31.48,0,.89.09,1.22.26.33.17.5.35.5.53,0,.32-.16.66-.47,1.02-.31.36-.6.53-.88.53Z"/><path class="o" d="m298.78,1007.64c-.39,0-.79-.16-1.19-.48-.4-.32-.6-.59-.6-.79,0-.25.12-.49.36-.72.24-.23.49-.34.74-.34.34.12.63.3.86.55.18.18.39.43.62.72.23.3.34.48.34.55,0,.34-.38.52-1.14.52Zm1.03,21.85c-.32-.02-.56-.54-.71-1.55-.15-1.01-.3-2.93-.47-5.76-.09-1.86-.17-3.68-.24-5.46-.07-1.78-.12-3.15-.14-4.12,0-.25.04-.44.12-.57.08-.13.24-.19.47-.19.53,0,.86.22,1,.65.14.44.21,1.28.21,2.52l-.03,4.07c0,2.32.07,4.18.21,5.58,0,.07.1.8.31,2.21.16.97.24,1.61.24,1.93,0,.23-.1.41-.29.53-.2.13-.42.18-.67.16Z"/></g></g><path class="t" d="m516.29,598.84c-3.94-6.9-7.88-13.79-11.82-20.69-7.01,32.95-14.01,65.9-21.02,98.84-18.28,9.06-36.79,18.47-55.5,28.24-14.07,7.34-27.9,14.71-41.5,22.08l-1.69,19.78c1.04-3.3,3.07-8.61,7.06-14.12,14.08-19.41,39.63-23.28,62.64-26.76,8.36-1.27,20.72-2.6,35.96-2.22,6.92-6.54,13.85-13.08,20.77-19.62-1.07-3.91-2.52-10.44-2.46-18.55.11-16.51,6.31-23.81,4.56-37.7-.53-4.2-1.99-10.62-6.61-18.21,3.2-3.69,6.4-7.39,9.61-11.08Z"/><g id="h"><path class="ab" d="m501.85,546.53c-.91,19.98-3.21,42.85-7.98,67.82-4.1,21.47-9.31,40.75-14.78,57.63-36.94,20.44-73.89,40.88-110.83,61.33,24.87-33.97,31.24-62.52,32.26-82.75,1.43-28.33-7.57-41.66-5.91-88.66.45-12.81,1.76-29.98,6.4-50.41,2.53-11.13,5.39-20.35,7.72-27.09-3.06,6.57-6.13,13.14-9.19,19.7-12.47-17.06-29-36.83-50.49-56.73-24.61-22.79-48.7-39.26-68.71-50.98,1.48-5.66,2.96-11.33,4.43-16.99-4.43,2.46-8.87,4.93-13.3,7.39.23-16.52-.53-34.87-2.96-54.68-5.06-41.31-15.82-75.98-26.6-102.7,16.01-4.19,32.02-8.37,48.03-12.56,17.1,42.55,34.21,85.11,51.31,127.66-6.51-.16-13.03-.33-19.54-.49,7.39,1.26,14.78,2.52,22.17,3.78,33.9,13.86,67.79,27.71,101.69,41.57,18.76,52.39,37.52,104.78,56.28,157.17Z"/><path class="ab" d="m544.86,542.68c-2.16,20.59-4.33,41.18-6.49,61.77,4.67,11.18,9.29,23.76,13.44,37.66,4.47,14.98,7.65,29,9.92,41.69,9.92,2.47,25.35,6.08,44.46,9.61,33.88,6.25,43.21,5.55,56.89,10.34,15.11,5.29,35.63,17.31,55.41,48.03-2.43-9.04-4.85-18.09-7.28-27.13,3.71,2.12,7.42,4.24,11.13,6.36-2.79-3.66-6.38-8.84-9.85-15.43-1.89-3.58-10.77-20.94-12.48-43.02-2-25.84,7.79-33.06,12.4-65.63,2.69-18.95,1.98-34.93.9-45.78-6.88-22.91-13.76-45.83-20.64-68.74,9.43,24.43,23.2,53.36,43.54,83.52,11.03,16.36,22.32,30.59,33.14,42.84-3.9,27.1-7.81,54.19-11.71,81.29,13.3,3.2,26.6,6.4,39.9,9.61,11.08-38.42,22.17-76.84,33.25-115.26-1.44-2.85-2.88-5.69-4.32-8.54.95-4.05,1.89-8.1,2.84-12.15-6.37-14.82-12.6-30.14-18.64-45.97-19.31-50.64-33.88-99.2-44.91-144.65-19.7,14.28-39.41,28.57-59.11,42.85,16.75-19.95,33.5-39.9,50.24-59.85-45.56,2.96-91.13,5.91-136.69,8.87-25.12,55.91-50.24,111.81-75.36,167.72Z"/><path class="q" d="m735.98,669.64l35.47,7.02,7.88,12.31,16.26-9.67,35.22,4.52-14.04,32.73-23.64,4.43,1.48-9.85c-5.78,3.54-9.86,3.61-12.56,2.96-4.56-1.11-6.26-4.54-12.28-6.33-3.36-1-6.37-.99-8.4-.81-.41,2.54-.82,5.09-1.23,7.63-4.08-3.68-7.85-5.46-10.59-6.4-4.3-1.48-6.58-1.09-9.14-3.14-2.7-2.17-6.14-5.74-4.4-9.72,1.48-3.39,0-25.68,0-25.68Z"/><path class="ad" d="m739.67,674.45l27.58,7.88,11.33,10.59,20.2-9.24,27.09,2.59-10.34,21.18c-14.08,6.32-24.51,6.17-31.52,4.8-7.18-1.41-10.98-4.14-23.89-8.13-8.53-2.63-15.7-4.17-20.44-5.05v-24.63Z"/></g><path class="q" d="m238.31,213.81c1.05,3.64,2.1,7.28,3.15,10.91,14.17-4.08,28.33-8.15,42.5-12.23-.99-2.96-1.97-5.91-2.96-8.87,3.98,1.31,8.63,3.26,13.46,6.24,1.93,1.19,3.68,2.41,5.25,3.61,5.69,7.55,11.38,15.11,17.08,22.66-15.76,2.25-31.52,4.51-47.29,6.76l-13.14-8.07-7.04,14.39-25.14,7.29c.05-6.57.99-16.56,5.58-27.58,2.6-6.25,5.73-11.28,8.54-15.11Z"/><polygon class="ad" points="233.38 230.06 293.15 213.81 311.87 232.6 274.76 238.43 253.74 230.06 247.85 245.01 227.8 251.9 233.38 230.06"/></g><g id="i"><path class="r" d="m535.17,331.32c-12.51-26.87-21.91-49.29-28.24-64.97-16.62-41.16-30.11-80.41-56.65-100.24-5.21-3.89-17.19-12.6-28.82-9.11,0,0-6.47,1.94-11.47,8.46-15.52,20.25,8.94,75.77,21.32,119.61,6.71,23.78,14.04,58.88,14.25,104.29,29.87-19.35,59.73-38.69,89.6-58.04Z"/><path class="r" d="m612.28,364.51c-25.7-11.06-51.41-22.13-77.11-33.19l65.84-137.38c35.83-43.48,49.72-49.42,55.66-46.3,16.36,8.57-8.87,95.47-35.22,186.19-3.72,12.82-6.94,23.42-9.17,30.68Z"/><path class="y" d="m450.45,374.39c4.52-6.46,10.74-13.84,19.19-20.8,23.37-19.23,49.23-23.18,61.52-24.19-20.06-45.48-40.13-90.96-60.19-136.44-25.93,5.65-36.62,16.26-41.54,25.12-12.24,22.03,3.83,46.44,14.78,107.99,3.58,20.09,5.32,36.89,6.23,48.32Z"/><path class="z" d="m465,268.05c-6.85,19.8-13.7,39.59-20.55,59.39,1.07,6.11,2.06,12.43,2.95,18.95,1.32,9.7,2.32,19.04,3.04,27.99,5.01-7.07,12.34-15.69,22.75-23.66,4.62-3.54,9.14-6.4,13.31-8.72-4.29-14.23-8.54-28.61-12.74-43.16-2.98-10.32-5.9-20.59-8.76-30.81Z"/><path class="y" d="m539.68,328.17c6.86-.66,16.15-.72,26.69,1.75,22.61,5.3,36.95,18.96,42.97,25.5l11.7-32.92c32.95-98.46,42.53-151.23,28.74-158.28-8.16-4.17-24.5,7.65-49.03,35.48-20.35,42.82-40.71,85.65-61.06,128.47Z"/><path class="z" d="m570.63,331.04l26.62-63.22,27.76,42.65-15.68,44.94s-13.42-15.34-38.71-24.38Z"/><path class="r" d="m470.97,192.95c-28.45-34.94-43.77-36.25-51.31-34.06-25.55,7.42-31.46,75.26-16.18,125.68,2.72,8.98,14.39,47.48,30.22,47.22,12.27-.2,24.55-23.64,30.86-58.3l6.4-80.53Z"/><path class="y" d="m466.47,187.35c-22.49-27.82-35.43-29.71-42.39-27.9-23.63,6.14-29.76,68.22-19.94,114.12,4.41,20.61,15.61,54.61,28.41,54.35,9.65-.2,16.9-19.8,22.17-34.23,2.69-7.39,7.31-21.87,10.1-57.14.96-12.17,1.87-28.98,1.65-49.2Z"/><path class="r" d="m599.29,196.65c11.83-28.52,42.02-55.14,57.39-49.01,23.36,9.31,9.05,90.85.99,117.73-3.8,12.66-8.3,20.04-16.28,33.13-6.91,11.34-11.64,16.54-18.62,18.84-.13.04-.34.11-.6.19,0,0-6.79,2.07-14.09.06-12.64-3.47-13.22-59.36-13.22-59.36-.34-33.09-.52-49.64,4.43-61.57Z"/><path class="y" d="m598.87,205.92c1.76-7.21,5.45-18.34,13.8-29.4,10.76-14.25,32.11-32.17,44-26.1,8.13,4.15,8.98,18.06,9.85,32.18.66,10.8-.87,20.12-3.94,38.75-1.48,9.01-2.8,16.98-5.42,27.68-5.01,20.46-7.52,30.68-14.2,40.98-6.06,9.35-21.48,28.18-31.61,25.58-9.85-2.53-17.59-26.07-12.48-109.68Z"/></g><g id="j"><g><path class="v" d="m526.15,539.15c-9.22,0-18.27-1.28-26.91-3.81-23.78-6.96-36.08-20.54-60.59-47.6-14.93-16.48-29.03-32.04-23.84-44.48,2.4-5.75,8.52-9.88,18.2-12.27.98-14.45,5.9-41.35,27.32-64.88,24.96-27.41,55.96-32.25,66.14-33.83,5.5-.86,13.03-2.03,21.76-2.03,11.75,0,22.69,2.2,32.53,6.54,40.51,17.88,50.51,66.09,52.16,75.95,4.24-1.24,7.76-1.85,10.73-1.85,3.64,0,6.38.96,8.12,2.85,9.61,10.4-14.46,46.2-25.25,61.11l-.13.18c-18.56,25.63-34.59,47.77-65.91,58.33-4.25,1.43-17.19,5.79-34.32,5.8Z"/><path class="v" d="m548.23,331.32c9.67,0,20.78,1.46,32.09,6.45,42.48,18.75,50.95,71.12,51.72,76.35,3.64-1.13,7.89-2.16,11.6-2.16,3,0,5.64.67,7.33,2.5,10.05,10.88-21.39,54.31-25.33,59.76-18.47,25.52-34.44,47.65-65.51,58.12-4.86,1.64-17.52,5.74-33.98,5.74-8.11,0-17.14-.99-26.61-3.77-23.48-6.88-35.98-20.66-60.09-47.29-15.16-16.73-28.47-31.77-23.64-43.35,2.92-6.99,11.41-10.23,18.23-11.82.56-9.37,3.55-39.17,27.09-65.02,24.21-26.59,54.46-31.77,65.51-33.5,5.44-.85,12.94-2.02,21.6-2.02m0-2.15h0c-8.82,0-16.4,1.18-21.93,2.04-10.28,1.6-41.56,6.48-66.77,34.17-21.26,23.35-26.43,49.99-27.54,64.76-9.59,2.51-15.7,6.78-18.17,12.7-5.45,13.07,8.87,28.88,24.03,45.62,23.87,26.35,37.02,40.86,61.08,47.91,8.74,2.56,17.89,3.86,27.21,3.86,17.31,0,30.37-4.4,34.66-5.85,31.65-10.67,47.77-32.94,66.44-58.72l.13-.18c7.13-9.85,13.37-19.55,18.06-28.07,9.77-17.76,12.1-29.01,7.11-34.41-1.96-2.12-4.96-3.19-8.91-3.19-2.79,0-6.04.51-9.87,1.57-2.2-12.15-13-58.1-52.58-75.57-9.97-4.4-21.06-6.63-32.96-6.63h0Z"/></g><path class="y" d="m632.04,414.12c6.58-2.05,15.15-3.75,18.93.34,10.05,10.88-21.39,54.31-25.33,59.76-18.47,25.52-34.44,47.65-65.51,58.12-7.25,2.44-31.87,10.38-60.59,1.97-23.48-6.88-35.98-20.66-60.09-47.29-15.16-16.73-28.47-31.77-23.64-43.35,2.92-6.99,11.41-10.23,18.23-11.82.56-9.37,3.55-39.17,27.09-65.02,24.21-26.59,54.46-31.77,65.51-33.5,11.53-1.8,32.26-5.03,53.69,4.43,42.48,18.75,50.95,71.12,51.72,76.35Z"/></g><g id="k"><path class="q" d="m516.78,551.55c-4.93-6.24-9.85-12.48-14.78-18.72-9.07-3.45-19.35-8.26-30.02-15.04-26.06-16.57-42.19-37.13-51.39-51.36-.53,11.1-.02,25.53,3.74,41.83,6.66,28.81,20.27,49.4,29.4,61.02,2.65-3.78,5.3-7.55,7.95-11.33l21.93,29.06c-.55-2.9-4.56-25.98,10.02-39.41,2.15-1.98,5.18-4.19,9.36-5.91,1.15,12.15,2.3,24.3,3.45,36.45,3.61,5.09,7.22,10.18,10.84,15.27-.16-13.96-.33-27.91-.49-41.87Z"/><path class="q" d="m540.19,537.1c21.94-14.16,46.76-32.78,71.77-57.07,13.72-13.33,25.6-26.53,35.85-39.06-3.59,19.95-11.49,49.24-30.29,80.04-11.1,18.18-23.21,32.31-33.74,42.85-2.3-5.78-4.6-11.56-6.9-17.33l-18.23,40.48c-.31-5.99-1.56-15.36-6.4-25.61-3.24-6.87-7.12-12.09-10.34-15.76-1.22,7.78-2.43,15.56-3.65,23.34-5.51,8.48-11.03,16.95-16.54,25.43-1-5.67-1.8-14.54.48-24.93,3.72-16.99,13.45-27.87,18.01-32.38Z"/><path class="ab" d="m498.06,535.29c-9.68-3.03-23.13-8.5-36.94-18.72-21.49-15.89-32.73-35.02-38.03-45.81.39,9.59,1.64,20.78,4.53,33,5.88,24.83,16.19,43.89,24.63,56.65,3.12-4.43,6.24-8.87,9.36-13.3,5.84,8.7,11.68,17.4,17.52,26.11-.34-3.82-.37-10.13,2.18-17.24,4.37-12.16,13.43-18.57,16.75-20.69Z"/><path class="ab" d="m546.83,538.08c14.58-6.38,35.5-17.55,56.4-36.77,18.61-17.12,30.7-34.66,38.25-47.64-4.11,15.54-10.95,35.46-22.73,57-11.37,20.79-23.94,36.86-34.48,48.52,1.63-5.18.17-10.44-3.45-13.05-2.68-1.94-5.72-1.83-6.9-1.72-4.76,9.61-9.52,19.21-14.28,28.82.66-3.33,2.92-16.84-5.42-28.08-2.35-3.17-5.02-5.45-7.39-7.07Z"/><polygon class="ad" points="506.68 544.16 513.82 551.8 515.3 586.52 508.9 577.16 506.68 544.16"/><path class="ad" d="m538.21,542.68c-3.44,4.01-8.7,11.17-12.07,21.43-3.4,10.37-3.37,19.34-2.96,24.63,4.27-6.98,8.54-13.96,12.81-20.93.74-8.37,1.48-16.75,2.22-25.12Z"/></g><g id="l"><path class="v" d="m481.07,447.12c2.73-12.01,11.9-20.99,22.74-22.53,11.9-1.69,20.91,6.29,21.86,7.15,4.41,4.03,6.48,8.58,7.43,11.19-1.41-2.11-3.51-4.76-6.53-7.29-1.89-1.59-3.74-2.8-5.36-3.71-.47.77-4.83,7.61-13.3,8.37-6.31.57-12.5-2.45-16.12-7.83-1.31,1.3-2.66,2.76-4,4.4-2.95,3.6-5.12,7.14-6.72,10.24Z"/><path class="v" d="m457.83,453.44c-6.72-6.41-13.3-8.9-16.34-6.73-2.58,1.84-2.76,7.16-1.19,10.88,1.57,3.73,6.74,10.21,45.58,12.67,20.53,1.3,31.66,2.05,46.98.01,43.52-5.79,76.44-27.29,93.01-39.9-1.36,1.45-3.49,3.67-6.15,6.33-14.91,14.9-28.63,25.4-33.26,28.64-36.78,25.78-101.87,16.19-106.15,15.52-16.71-2.61-39.22-6.4-44.09-20.44-1.94-5.6-1.51-14.09,2.83-16.5,4.25-2.36,12.27,1.08,18.76,9.52Z"/><path class="v" d="m609.34,432.14c.08.25,12.35-5.88,16.54-1.77,3.88,3.8-.48,15.08-7.63,28.08,2.02-2.67,18.7-24.94,13.47-30.75-4.41-4.9-22.48,4.13-22.38,4.44Z"/><path class="v" d="m499.78,491.21c2.04.99,5,2.12,8.7,2.54,6.94.8,12.41-1.35,14.94-2.54,0,0-13.79,16.01-23.64,0Z"/><path class="v" d="m497.15,400.57c1.09-3.8.27-6.41-.16-7.47-2.77-6.93-12.69-8.1-13.45-8.18-.14-.01-.26-.03-.34-.03-3.71-.33-6.75.48-8.62,1.15,1.67-1.19,5.42-3.5,10.59-3.78.95-.05,11.14-.45,15.19,6.4,2.01,3.4,1.56,6.99,1.1,10.59-.85,6.74-3.85,11.61-5.71,14.17,0,0-.17.23-.37.51-13.62,18.28-31.31,19.64-31.31,19.64-3.13.24-8.14.18-14.28-1.97-.28-1.56-.56-3.66-.62-6.16-.01-.46-.11-5.9,1.23-10.96.7-2.62,3.56-13.4,14.04-19.33,2.19-1.24,10.06-5.53,19.74-2.96,7.11,1.89,11.37,6.47,12.97,8.37Z"/><path class="n" d="m493.75,409.44c-5.83,11.46-18.41,21.35-32.76,21.92-4.11.16-7.5-.44-9.73-.99-.45-2.46-.8-6.04-.07-10.19,2.23-12.7,13.92-26.76,28.01-26.16,8.47.36,14.58,5.89,17.19,8.64-.45,1.58-1.24,4.01-2.65,6.77Z"/><circle class="z" cx="482.47" cy="408.86" r="6.65"/><path class="v" d="m531.16,404.27c6.51,10.69,14.07,16.92,18.75,20.2,5.33,3.74,23.02,16.14,39.41,9.97,3.43-1.29,5.94-3.07,7.48-4.31-.53.32-1.83,1.01-3.6.96-1.27-.04-2.24-.44-2.78-.71,1.7-2.9,6.93-12.65,4.6-24.88-2.37-12.41-12.08-24.93-26.02-27.34-15.67-2.7-32.65,8.08-37.83,26.11Z"/><path class="n" d="m535.17,407.3s14.78,24.28,49.59,24.09c.91-.94,11.1-11.89,7.98-27.06-2.17-10.57-10.11-19.83-20.13-22.39-14.26-3.65-31.83,6.51-37.44,25.36Z"/><circle class="z" cx="561.77" cy="411.08" r="8.87"/><path class="v" d="m529.09,391.46s-12.53,1.26-3.28,12.48c0,0-3.78-9.69,3.28-12.48Z"/><path class="v" d="m542.23,372.42s37.76-41.05,50.08,4.43c0,0-10.51-34.15-50.08-4.43Z"/><path class="v" d="m492.64,378.82s-9.36-17.74-18.06-1.07c0,0,6.4-9.11,18.06,1.07Z"/><path class="v" d="m580.01,457.2l70.99,34c3.58,5.06,2.87,11.61-.99,15.02-2.8,2.47-6.99,3.08-10.84,1.72-27.69-14.14-55.37-28.28-83.06-42.41,0,0,6.1.27,23.89-8.34Z"/><path class="p" d="m637.95,504.02c2.86,2.24,6.6,2.71,9.38,1.18,3.76-2.06,5.4-7.57,2.83-12.26.03.51.24,5.54-3.84,8.87-3.57,2.92-7.72,2.32-8.37,2.22Z"/><path class="x" d="m580.65,458.62c-6.31,2.61-12.62,5.23-18.92,7.84,25.04,12.93,50.08,25.86,75.12,38.79-2.12-4.66-.85-10.02,2.83-12.85,2.9-2.23,6.94-2.62,10.49-1.08-23.17-10.9-46.34-21.8-69.51-32.71Z"/><path class="ac" d="m566.33,464.55l-4.61,1.91,75.12,38.79c-.34-.68-.74-1.65-.94-2.87-.29-1.73-.06-3.18.15-4.05-23.24-11.26-46.48-22.52-69.72-33.78Z"/><path class="u" d="m493.05,430.87c1.51-1.45,5.07-4.47,10.48-5.45,9.41-1.71,16.49,4.16,17.52,5.04-2.69-1.35-9.09-4.09-17.28-3.08-4.73.58-8.39,2.21-10.71,3.49Z"/><circle class="w" cx="565.74" cy="410.27" r="3.97"/><circle class="w" cx="484.59" cy="407.43" r="3.49"/></g></svg>