<?xml version="1.0" encoding="utf-8"?>
<!-- Generator: Adobe Illustrator 24.1.2, SVG Export Plug-In . SVG Version: 6.00 Build 0)  -->
<svg version="1.1" id="レイヤー_1" xmlns="http://www.w3.org/2000/svg" xmlns:xlink="http://www.w3.org/1999/xlink" x="0px"
	 y="0px" viewBox="0 0 300.5 300.5" style="enable-background:new 0 0 300.5 300.5;" xml:space="preserve">
<style type="text/css">
	.st0{fill:#333333;}
	.st1{fill:#610F13;}
	.st2{fill:#BE1A20;}
	.st3{fill:#FFFFFF;}
	.st4{fill:#8F1D22;}
	.st5{fill:#EDF6F7;}
	.st6{fill:#EFF7F9;}
	.st7{fill:#BBCACA;}
	.st8{fill:#E73A36;}
	.st9{fill:url(#SVGID_1_);}
	.st10{fill:url(#SVGID_2_);}
	.st11{fill:#F3EEF6;}
	.st12{fill:#323333;}
	.st13{fill:#FAE1DE;}
	.st14{fill:#E4F2F5;}
	.st15{fill:#C03332;}
	.st16{fill:#D0C9C9;}
</style>
<path class="st0" d="M83.8,138.4c-16.2-6.5-23.7-15.1-27.5-21.4c-3.2-5.3-5.7-12.7-10.6-27.6c-4.3-12.9-4-14.7-7.2-19.7
	c-2.3-3.6-5.3-7.2-11.5-16.8c-2-3.1-4.8-7.6-3.3-11.6c0.7-1.8,1.6-1.6,2-3.3c1.1-3.9-3.4-6-5.4-13.2c-1-3.6-0.1-3.8-1.3-7.2
	c-1.8-5-4.5-6.6-3.8-7.9c0.9-1.7,6.7-1.8,10.4,1.1c5.5,4.3,5.9,14.7,5.9,14.7l0,0c0.4-0.4,1.6-1.5,3.5-1.9s3.4,0.2,4,0.4
	c0.4-0.7,1-1.6,2.1-1.9c1.8-0.7,3.1,0.7,5.7,1.2c3.4,0.5,4.2-1.3,6.1-0.6c1.9,0.7,2.3,3,4.4,12c2,8.3,2,8,2.1,9.1
	c0.7,7.3-1.6,9.1-0.6,13.3c0.9,3.8,4.4,6.3,11.3,11c10.4,7.1,14.3,7.2,20.1,12.5c4.5,4.1,7.1,8.6,8.6,11.8c3.4-0.1,9.7,0.2,16.5,3.7
	c4.4,2.2,7.6,5,9.6,7c2.1-1.8,12.9-10.8,28.8-9.7c18.1,1.3,28,14.8,29.3,16.7c2.5-0.7,18.5-4.7,33.6,5.2
	c13.3,8.7,16.8,22.1,17.5,25.1c4.9-0.8,13.8-1.6,24.4,1.4c10.4,2.9,17.5,7.9,21.4,11.1c1.2,2.3,10.3,20.2,1.7,36
	c-0.6,1.1-8,14.3-18.5,14.5c-4.1,0.1-4.2-1.9-13.2-4.8c-11.1-3.6-14.5-1.7-19.3-5.6c-2-1.6-3.5-4.9-6.5-11.5
	c-6.8-14.9-7.2-19.9-11.7-21.5c-3.3-1.2-4.5,0.9-10.4-0.1c-4.3-0.7-7.7-2.5-9.9-4c-0.8,3-1.6,6-2.4,9.1c9.8,3.9,31.1,14.1,42.4,36.8
	c0.8,1.5,15.7,32.2,3.2,44.1c-7.2,6.8-20.6,4.8-23.1,4.4c-6.9-1.1-11.6-3.9-17.2-7.2c-13-7.8-25.2-20.1-29.1-24.1
	c-4.5-4.6-7.5-8.3-11.9-8.1c-6,0.3-8.9,7.3-11.9,6.1c-2.6-1.1-3.6-8.1-0.7-11.8c2-2.5,4.1-1.3,9.5-4.9c3.1-2.1,3.8-3.4,5.6-3.4
	c2.7,0,4.9,3.1,6.4,5.6c1.9,0.3,3.9,0.5,5.8,0.8c-0.5-0.9-1.2-2.1-2.3-3.5c-0.7-0.9-5.9-7.5-12.1-8.1c-2.3-0.2-4.8,0.4-13.4,7.2
	c-9.4,7.4-11.7,10.7-17.6,15.2c-3.7,2.8-9.3,6.4-17.3,9.4c0.1,5.2-0.4,13.8-4.4,23.6c-3.5,8.8-8.4,14.9-11.8,18.5
	c9,5,10.5,7.8,10.1,9.4c-0.8,3.2-8.9,1.3-19.7,6.9c-7.5,3.8-7.9,6.9-14.7,9c-5.7,1.7-14.1,2.2-15.5-0.8c-1.8-3.8,9.5-8.9,16.7-20.5
	c8.2-13.2,2.1-20.6,5.5-49.5c2.2-18.6,4.2-33.7,15.7-44.6c6.9-6.6,15-9.4,20.7-10.7l-4.1-21L83.8,138.4z"/>
<path class="st1" d="M196,234.6c-3.2-3.4-6.3-6.5-8.3-8.7c-2.3-2.6-10.2-11.4-13.3-15.5c-1.4-1.8-2.6-3.5-3.6-5.1
	c-3.3-0.5-6.7-1-10-1.5c-0.9-1.6-1.8-3.3-2.7-4.9c-0.7-0.3-1.6-0.5-2.6-0.2c-1.7,0.5-1.9,2.2-3.4,3.7c-2.4,2.6-4.9,1.4-7.2,3.2
	c-1.4,1.1-2.7,3.5-2.2,8.9c0.8-1.3,3-4.2,7-5.8c2.4-1,4.5-1.1,5.9-1.1c2.3,1.6,5.8,4.1,9.9,7.5c9,7.4,11.5,11.6,17.6,16.1
	c4,3,10.2,7,19.2,10.2C200.6,239.4,198.5,237.2,196,234.6z"/>
<path class="st2" d="M251.5,146c-8.4-2-15.8-2.1-21-1.8c-0.5-3.4-2.2-13.2-10.5-21c-6-5.7-12.6-7.5-15.6-8.3
	c-9.8-2.6-18-0.8-21.7,0.3c-1.7-2.5-9.4-13.1-23.9-16.1c-18.8-3.9-32.7,8.4-34.2,9.7c-3.3-3-8.9-7.2-16.8-9.9
	c-4.8-1.6-9.2-2.3-12.5-2.5c-2.6-6.5-5.9-10.5-8.3-12.9c-8.6-8.4-17.4-7.7-24.6-16.4c-3.2-3.9-4.7-7.9-5.5-10.5
	c-0.5-1.7-0.7-3.8,0-5.6c1.5-3.8-0.7-12.4-0.7-12.4s-2.1-3-2.4-9c-0.3-6-4.4-5-4.4-5s-3.4,1.6-6.4-0.3c-0.4-0.3-1.2-0.7-2-0.5
	c-0.8,0.3-1.2,1.4-1.4,2.2c-0.1-0.1-0.4-0.3-0.7-0.5c-0.3-0.1-0.6-0.2-0.8-0.2C37.9,25.1,37.5,25,37,25c-1.7,0-2.9,2.1-3.8,3.7
	c-0.5,0.9-0.9,1.8-1.3,2.6c-0.5-0.7-0.9-1.4-1.4-2.1c-0.5-2.2-1.1-4.3-1.6-6.5c0.1-0.2-1.4-5.4-1.8-5.6c-0.3-0.8-0.9-1.9-2-3.2
	c-1.9-2.3-5.3-4.7-6.7-3.8c-0.5,0.3-0.6,1-0.6,1.1c-0.2,1.1,0.6,1.9,1.5,3.2c0.5,0.7,1.1,1.8,1.6,3.2c0.3,2.3,0.6,4.6,0.9,6.9
	c0.8,2.2,1.7,4.4,2.5,6.6c0.5,0.9,1,1.9,1.6,2.8c0.4,0.4,0.9,1.1,1.2,2c0.3,1.1,0.2,1.6,0.4,2.6c-0.6,0.6-1.5,1.5-2,2.9
	c0,0.1-0.1,0.2-0.1,0.3c0,0.1-0.1,0.2-0.1,0.3c-0.3,1.2-0.2,2.3,0,3.1c0.4,0.9,0.8,1.9,1.4,3c0.6,1.2,1.3,2.1,1.9,2.9
	c2,2.9,3.7,5.2,4.9,6.8c1.6,2,2.9,3.5,4.8,6.2c0.2,0.3,0.5,0.7,0.7,1c0,0,1.9,2.9,3.6,5.9c3.6,6.5,9,42.2,26.8,54.7
	c3.1,2.2,14.3,9,28.3,10.5c3.7,0.4,8.7,0.5,11.4,4.1c2.5,3.2,1.2,6.8,2,13.4c0.5,3.9,1.7,8.8,4.6,14.2c-2.9,0.4-22.9,3-29,17.4
	c-0.7,1.6-1.3,3.6-1.6,5.8c-2.3,8.8-4.5,18.3-6.3,28.3c-3.2,17.3-4.9,33.5-5.8,48.2l0,0c-4.8,3-3.7,6.5-9.4,11.8
	c-5.5,5.1-10.3,5.4-10.1,6.6c0.4,1.9,11.7,3.4,18.4-2.5c2.2-2,1.7-2.7,3.8-4.6c6.8-6,16.8-1.7,18-4.8c0.8-2-2.7-5.6-5.8-7.2
	c-0.9-0.5-1.8-0.8-2.7-1.1l0,0c4-5.8,5.8-6.1,9.3-10.7c6.7-8.9,8.3-18.6,9-23c0.7-4.3,0.7-8.1,0.6-11.2c0.2,0,0.4,0.1,0.6,0.1
	c2.9,0.2,6.4-2.2,13.5-7.1c8.1-5.5,10.4-8.4,19.3-14.9c6.3-4.6,8.7-7.3,13.4-8.2c2-0.4,5.9-1.2,9.9,0.4c6.5,2.6,7.1,8.9,14.8,19.1
	c3.1,4.1,6,7,7.7,8.6c1.4,1.8,3.3,4.2,5.6,6.9c2,2.3,5,5.3,8.3,8.7c7.3,7.8,11.2,11.9,16.7,12.7c6.6,0.9,14.1-3.1,17.6-8.9
	c4.4-7.3,1.5-15.6-1.7-24.8c-1.4-4-5.9-16.1-17.3-28.3c-9.4-10-19.5-15.9-27-19.3c1.1-1.7,2.6-4.3,3.5-7.7c0.8-2.9,1-5.4,1-7.2
	c2,1.3,5.3,3.1,9.6,4.1c5.8,1.2,9-0.1,12,0.4c4.3,0.7,10,5.1,15.3,22.9c8.4,7.8,20.5,10,30.9,5.7c10.9-4.5,18-15.2,18-27.1
	C270.8,153.5,262.6,148.7,251.5,146z"/>
<g>
	<path class="st3" d="M26.8,47.9c-0.4-0.9-0.8-2.3-0.5-4c0.3-2.1,1.5-3.2,4.9-6.6c5.6-5.6,7-7.3,8.7-6.8c0.4,0.1,0.8,0.5,1.6,1.4
		c2.9,3,4.8,5,4.5,7.1c-0.2,1.4-1.3,1.8-2.3,4.4c-0.5,1.3-0.6,1.6-0.6,1.6c-0.5,1.5-0.4,1.8-0.7,2c-0.8,0.5-2.7-0.5-3.3-1.9
		c-0.3-0.8-0.2-1.5-0.2-2.4c0.1-0.9,0.2-1.4,0.5-1.8c0.6-0.7,1.3-0.6,2.7-1.2c0.9-0.4,1.5-0.8,1.8-1.1c-0.5,0.1-1.3,0.2-2.2,0.5
		c-1.2,0.4-1.9,0.7-2.2,0.4c-0.2-0.2-0.1-0.5-0.2-1.1c-0.1-1.4-0.9-2.5-1-2.5c-0.3,0.1,1.2,3.3-0.1,4.7c-0.8,0.9-2.7,1.1-3.5,0.9
		c0,0-0.1,0-0.2,0c-1-0.2-1.9-0.2-1.9-0.2c0,0,1.7,0.7,3.9,0.6c1,0,1.5-0.2,1.8,0.1c0.5,0.5,0.2,1.7-0.3,2.5
		c-0.3,0.5-0.8,0.9-2.4,1.6c-0.9,0.4-2,0.9-3.5,1.3c1.6-0.1,2.8-0.5,3.6-0.9c1.5-0.7,2.1-1.2,2.9-1c1,0.3,0.9,1.2,2.1,1.9
		c0.9,0.5,1.3,0.1,2.5,0.3c2.1,0.4,3.6,1.9,4.5,2.9c1.1,1.1,1.7,2.2,1.8,2.4c0.2,0.3,3.2,6.1,0.2,9.6C47.6,65.4,43,66,39,63.6
		L26.8,47.9z"/>
	<path class="st3" d="M26.6,47.4c-0.7-1.6-1.4-3.8-0.5-5.8c0.4-1,0.7-0.9,2.4-3c0.4-0.5,2-2.6,3.6-5.5c1.1-2,0.9-2,1.5-2.9
		c0.6-0.8,2.4-3.3,4.9-3.3c0.3,0,1,0,1.8,0.5c1,0.5,1.3,1.3,1.8,2.2c1.4,2.1,2.5,1.9,3.5,3.4c0.6,0.9,1.1,2.3,0.8,4.7
		c-0.9-2.1-2-3.6-2.8-4.5c-1.1-1.3-2-2-2.6-2.5c-0.8-0.6-1.3-0.9-1.8-1c-1.3-0.2-2.2,0.8-5,3.6c-1.5,1.4-2.9,2.9-4.3,4.3
		c-1.1,1.1-3.1,3.1-3.8,5.3c-0.1,0.2-0.1,0.4-0.1,0.5C25.7,45.1,26.2,46.5,26.6,47.4z"/>
	<path class="st3" d="M33.3,30.5c1.1-3.1,3-5.1,4.8-4.9c0.3,0,0.8,0.1,1.3,0.4c0.5,0.6,1,1.1,1.5,1.7c-0.5-0.5-1.3-1.1-2.3-1.2
		C36.5,26.3,34.3,27.9,33.3,30.5z"/>
	<path class="st3" d="M40.9,26.9c-0.6-1.8-0.5-2.5-0.2-2.7c0.8-0.6,2.5,1.5,5.6,1.6c2.2,0,3-1.1,4.2-0.5c1.4,0.6,1.7,2.7,2,4.2
		c1.6,9.7,4,9.5,3.8,15.8c-0.1,3.3-0.7,3.5-0.7,7.7c0,2.9,0.3,4.1-0.4,5.8c-1.2,2.8-4.4,4.8-5.5,4.1c-1.4-0.9,1.7-5.3-0.4-10.3
		c-0.1-0.2-0.9-2.2-2.7-3.7c-1.5-1.2-2.9-1.6-3.2-1.5h0c-0.2-0.1,0.5-2,1-3.3c0.9-2.3,0.9-1.7,1.6-3.6c0.3-0.7,0.5-1.4,1.1-1.9
		c0.5-0.5,1.1-0.6,1.3-0.7c0.4-0.1,1.4-0.3,3.3,0.4c1.8,0.7,2.8,1.5,2.8,1.5c0,0-2.1-2.5-4.9-2.5c-1.3,0-2.1,0.5-2.7-0.1
		c-0.5-0.5,0-1.2-0.5-2.9c-0.2-0.7-0.6-1.2-0.3-1.5c0.2-0.2,0.5-0.2,0.9-0.2c1.3-0.2,2.2-0.9,2.6-1.2c0.7-0.6,1.4-1.5,1.2-1.7
		c-0.3-0.4-3.6,3.2-6,2.2c-0.3-0.1-0.5-0.3-1-0.7C43,30.1,41.8,28.9,40.9,26.9z"/>
</g>
<path class="st4" d="M273.6,155.5c-0.2-0.1-0.4-0.3-0.6-0.4c-0.7,0.2-1.7,0.6-3.1,0.6c-1.4,0-2.4-0.3-3.1-0.6
	c-8.7-5.9-12.6-6-14.4-4.7c-1.8,1.3-1.5,3.8-4.2,5.3c-2.7,1.5-4.5-0.3-6.6,1.3c-2.3,1.8-0.9,4.3-3.2,6.5c-2.5,2.4-5.2,0.5-7.3,2.9
	c-1.5,1.8-0.3,3.3-1.9,6.6c-0.4,0.8-0.8,1.4-1.1,1.8c-0.8,0.9-1.3,1.4-1.7,1.8c0.2,0.6,0.3,1.1,0.5,1.7c4.2,3.9,9.2,6.4,14.6,7.4
	C252.2,175.6,262.9,165.5,273.6,155.5z"/>
<path class="st4" d="M276.5,155.7c1.3,0.7,2.2,2.4,2.6,10.4c0.4,7.6,0.6,11.4-0.3,14.6c-1.9,7.3-7.9,17.3-15.7,18
	c-4,0.4-4.3-2.1-13.7-4.6c-7.6-2-8.7-0.6-12.9-2.8c-6-3-11-9.3-9.7-13.1c0.6-1.7,2-1.6,3.4-4.4c1.5-3.1,0.4-4.5,1.8-6.1
	c1.9-2.2,4.4-0.5,6.8-2.7c2.2-2,0.9-4.4,3.1-6c2-1.6,3.5,0,6.2-1.2c3.7-1.8,2.8-6.2,5.9-7.2c1.6-0.5,3.7,0.5,8,2.6
	c3.5,1.7,3.3,2.1,4.9,2.6C271.6,157.2,274,154.3,276.5,155.7z"/>
<path class="st5" d="M268.2,158.5c-1.3-1.1-3.4-2.6-6.1-3.9c-3.5-1.6-5.8-2.7-8.1-1.8c-1.9,0.8-3.9,3-3.7,5.1c0,0.5,0.2,0.9,0.3,1.2
	c-1.9-0.6-3.5-0.6-4.4-0.5c-1.3,0.1-2.8,0.4-4,1.6c-0.9,0.9-1.2,2.1-1.5,3.2c-0.2,1-0.3,1.8-0.3,2.4c-1,0.2-2.1,0.5-3.3,0.9
	c-1.4,0.5-2.6,1.1-3.6,1.6c-0.4,0.4-1.2,1.2-1.6,2.6c-0.5,1.7-0.1,3.1,0.1,3.7c-0.6,0.3-3.3,1.9-3.7,4.6c-0.4,2.6,1.6,4.7,2.9,6.1
	c2.2,2.2,5,3.8,14.7,6.3c7.3,1.9,11,2.8,13.8,2.3c5-0.9,8.4-3.8,11.1-6.1c3.1-2.6,5.9-4.9,7.3-9c0.8-2.2,0.5-5.8,0-12.7
	c-0.5-6.5-1-8.3-1.9-9.1c-0.1-0.1-0.2-0.1-0.2-0.2c0,0-0.1-0.1-0.2-0.1c-2.1-1.2-4-0.6-4-0.6c-0.7,0.3-1.3,0.7-1.6,1.1
	c-0.2,0.2-0.6,0.9-0.6,0.9s2.9,3.9,5.4,8.2c0.8,1.4,1.5,2.6,1.9,3.4C274,166.1,271.1,162.3,268.2,158.5z"/>
<ellipse class="st6" cx="151" cy="145.7" rx="36.2" ry="41.5"/>
<path class="st7" d="M120.5,167c1.6,2.1,5.4,6.4,11.7,8.8c10.9,4.1,20.6-0.8,22.3-1.7c5.9-3.7,15-10.7,22.4-22.3
	c4.1-6.4,6.5-12.5,8-17.4c0.9,3.5,4.1,17.5-3.6,31.8c-4.9,9-12,13.9-15.6,16.1c-2.9,1.5-10.8,5-20.7,3.3
	C128.9,182.8,121.4,168.8,120.5,167z"/>
<path class="st4" d="M104.3,220.3c1.4-0.5,3.5-1.3,5.9-2.5c4.1-2.1,6.9-4.2,10.7-7.2c6.6-5.2,9.9-7.7,11.4-8.9
	c7.8-6.2,11.7-9.3,13.3-10c1.1-0.5,12.1-4.9,18.4,0c3.3,2.6,4.1,7,9.5,14.5c2.2,3.1,4,5,7.3,8.7c6.6,7.2,14.4,15.8,23.8,26
	c0.9,0.9,4.8,4.6,10.9,4.8c7.9,0.2,12.6-5.7,13.1-6.4c-13.7-5.3-48.6-44.1-51.4-50.7c-1.2-2.8-1.4-5.1-0.9-7.2
	c0.5-2,1.5-3.5,2.3-4.3c2.2-3.9,4.5-7.8,6.7-11.7c0.9-1.6,1.9-3.6,2.7-5.9c1.2-3.5,1.7-6.7,1.8-9.2c2.2,1.4,5.9,3.3,10.7,4.3
	c4,0.8,7.4,0.7,9.8,0.5c0.8,0,1.8,0.1,3,0.5c0.6,0.2,1.2,0.5,1.6,0.7c-0.7-0.5-1.7-1.3-3.1-2.2c-4.5-3-8.3-4.4-9.1-4.7
	c-3.3-1.3-8.4-5.1-16.2-15.5c0.4,1.9,0.8,4,1,6.3c0.3,3.2,0.4,6.1,0.2,8.6c-0.4,5.4-1.9,16.9-9.8,26.3c-3.2,3.8-6.4,6.1-7.1,6.6
	c-6.9,4.8-13.6,5.7-16,6c-3.1,0.3-9.4,0.6-16.4-2.3c-8.8-3.6-13.6-9.9-15.7-12.8c-2.2-3-2.8-5.6-3.4-5.5c-1.5,0.4,3.7,14.4,1.1,27.8
	C118.1,206.4,110.6,214.8,104.3,220.3z"/>
<path class="st4" d="M230.5,144.2c-0.1-1-0.3-2.1-0.6-3.3c-0.2-0.9-0.4-1.7-0.7-2.5c-1.2,2-2.4,4.1-3.6,6.5c-1.6,3.2-2.9,6.2-4,9
	c0.6-1.4,1.9-3.6,4.2-5.4c1.3-1,2.5-1.5,4.1-2.2c1.6-0.7,3.9-1.5,6.9-2.1C234.5,144.1,232.4,144.1,230.5,144.2z"/>
<path class="st3" d="M18.3,11.1c0.3-0.5,1.5-0.2,1.8-0.1c2.9,0.7,4.6,3.2,5.3,4.3c2.1,3.3,2.5,6.7,2.5,8.7c0.5,1.7,1.1,3.5,1.7,5.2
	c0.7,0.8,1.3,1.7,2,2.5l-3.7,6.5c0-0.8-0.1-2.1-0.7-3.5c-1-2.3-4.4-8.3-4.9-10.3c-0.2-2.1-0.5-4.1-0.8-6.2c0.2,0.1,0.5,0.1,0.9,0.1
	c0.1,0,0.2,0,0.4-0.1c-0.1,0-0.3,0.1-0.6,0c-0.3,0-0.5-0.1-0.6-0.2c-0.2-0.8-0.7-2.1-1.5-3.5C19,12.7,17.9,11.7,18.3,11.1z"/>
<path class="st4" d="M65.1,121.5c2.8,2.6,6.6,5.4,11.4,7.9c5.1,2.7,9.4,3.9,10.8,4.3c4.2,1.2,8.4,1.7,8.9,1.8
	c5.6,0.7,7.8,0.3,10.4,2c2.1,1.3,3.2,3.2,3.9,4.7c-0.1-1.9-0.1-4.9,0.9-8.2c0.9-3.1,2.3-5.4,3.3-6.9c-3.6,1.8-8.4,3.5-14.2,4.3
	C83,133.6,69.3,124.5,65.1,121.5z"/>
<path class="st4" d="M95.1,96.3c-9.5-0.8-16.6,5.7-16.6,5.7c-1.4,1.3-3.9,3.9-5.5,8.2c2-2.4,5.4-5.9,10.6-8.7
	c7.9-4.2,15.4-4.3,18.8-4.2l0,0c-0.9-0.2-2.2-0.5-3.8-0.7C96.7,96.4,95.2,96.3,95.1,96.3z"/>
<path class="st3" d="M149.3,104.6c-3.3,0.3-10.1,1.5-17,6.2c-7.8,5.2-11.4,12.1-12.8,15.1c3-3.6,7.4-8.2,13.4-12.5
	C139,109,144.8,106.3,149.3,104.6z"/>
<path class="st8" d="M115.8,169.1c-3.9,0.2-10.9,1-17.9,5.3c-2.7,1.7-7.6,4.7-10.2,10.1c-0.9,1.8-1.6,4.2-1.9,4.9
	c-1.1,3.4-1.7,6.4-2,8.5c1.2-3.7,4.4-12.5,13.2-19.8C104.4,171.9,112,169.9,115.8,169.1z"/>
<path class="st4" d="M84.9,266.2c1,0.3,2.5,0.9,4.1,2c2.3,1.6,4.9,4.7,4.1,6.1c-0.1,0.3-0.4,0.6-1.2,0.7c-1.1,0.1-2.2,0.2-3.3,0.3
	c0,0-2.7-0.4-6,0c-2.8,0.3-5,1.5-5.6,1.9c-2.8,1.7-4.2,4.1-4.8,5.5c-1.3,1.1-2.4,1.8-3.2,2.2c-1.4,0.8-6.2,3.3-11.8,2.2
	c-1.3-0.2-2.3-0.6-3-0.9c2.6,0.2,6.9,0.1,11.2-2c2.9-1.4,4.5-3.1,9.7-8.3C77,274.1,80.4,270.6,84.9,266.2z"/>
<radialGradient id="SVGID_1_" cx="167.2555" cy="157.5128" r="30.9195" gradientTransform="matrix(1 0 0 -1 0 302)" gradientUnits="userSpaceOnUse">
	<stop  offset="0" style="stop-color:#F1A1B2"/>
	<stop  offset="0.1469" style="stop-color:#F0D4DC"/>
	<stop  offset="0.2618" style="stop-color:#EFF7F9"/>
</radialGradient>
<circle class="st9" cx="167.6" cy="143.5" r="7.9"/>
<radialGradient id="SVGID_2_" cx="127.8648" cy="158.8366" r="30.9195" gradientTransform="matrix(1 0 0 -1 0 302)" gradientUnits="userSpaceOnUse">
	<stop  offset="0" style="stop-color:#F2A5B4"/>
	<stop  offset="0.1417" style="stop-color:#F0D4DB"/>
	<stop  offset="0.2618" style="stop-color:#EFF7F9"/>
</radialGradient>
<circle class="st10" cx="128.2" cy="142.1" r="7.9"/>
<path class="st0" d="M151,148.1c0.1-2,3.1-3.7,5.5-3.8c2.1,0,3.9,1.2,4.6,1.6c1.3,0.9,1.3,1.3,2.2,1.8c1.1,0.6,2.9,0.9,6-0.4
	c-0.7,0.5-1.7,1.1-3,1.6c-2,0.7-3.7,0.7-4.8,0.6c1.4,0.1,3.3,0.2,5.5-0.3c1.7-0.4,3-0.9,4-1.4c-0.8,0.6-1.9,1.4-3.3,1.9
	c-2.6,1.1-5,1.1-6.4,1c1.4,0.1,3.4,0.2,5.7-0.3c2.5-0.5,4.4-1.5,5.6-2.2c-3.4,2.8-6.6,3.9-8.5,4.4c-1.7,0.4-3.5,0.9-5.8,0.5
	C155.1,152.8,150.8,150.6,151,148.1z"/>
<path class="st0" d="M135.5,149.8c0.6-1,0.5-2.7-0.1-3.8c0-0.1-0.1-0.1-0.1-0.1c-0.2-0.4-0.9-1.6-2.2-1.9c-2.1-0.6-3.1,1.6-6.1,1.4
	c-0.6,0-1.8-0.1-2.7-1c-1.1-1.1-1-2.7-1-3.1c-0.1,0.5-0.3,1.4,0,2.4c0.7,2.4,3.2,3.1,3.4,3.2c-0.6-0.1-1.5-0.4-2.4-1
	c-0.4-0.3-1.1-0.7-1.5-1.4c-0.7-1.1-0.6-2.2-0.5-2.8c-0.2,0.4-0.5,1.3-0.3,2.4c0.2,0.9,0.7,1.4,1,1.9c1.1,1.4,2.6,1.9,3.4,2.1
	c-0.6-0.1-1.9-0.3-3.1-1.2c-2.1-1.7-2.3-4.2-2.3-4.6c-0.1,0.8-0.2,2.7,0.9,4.8c0.2,0.3,0.9,1.7,2.5,2.8c2.8,2.1,6,1.7,7.2,1.6
	C133.3,151.2,134.9,151,135.5,149.8z"/>
<path class="st0" d="M141.4,129.8c0.2-5.1-4-9.1-8.4-8.9c-4.1,0.2-7.2,4-7.5,7.8c0,0.4-0.3,4.1,2,5.9
	C130.5,136.7,136.6,135.4,141.4,129.8z"/>
<path class="st0" d="M152.6,129.5c2.9-6,9.3-8.3,13.7-6.3c3.4,1.6,6.1,5.8,5.1,10c-0.5,2.3-2.2,4.6-4.4,5.4
	C162.8,140.2,156.4,136.9,152.6,129.5z"/>
<path class="st11" d="M126.6,129.7c0,0,1.2,4.2,14.1-0.3C140.7,129.4,133.5,113.8,126.6,129.7"/>
<path class="st11" d="M153.4,129.5c0,0,12.4-13.2,16,3.2c-1.3,0.4-3,0.7-5,0.7C158.9,133.4,155,130.7,153.4,129.5z"/>
<path class="st12" d="M131.9,128.9c0-1.8-1.1-3.3-2.7-3.9c-0.9,1.1-1.7,2.6-2.6,4.6c0,0,0.5,1.8,4.4,1.8
	C131.6,130.8,131.9,129.9,131.9,128.9z"/>
<path class="st12" d="M167.1,127c-2,0.2-3.6,2-3.6,4.1c0,0.8,0.2,1.6,0.7,2.3c0.1,0,0.1,0,0.1,0c2,0,3.7-0.3,5-0.7
	C168.8,130.1,168,128.3,167.1,127z"/>
<circle class="st13" cx="167.9" cy="131.5" r="1.5"/>
<circle class="st13" cx="128.2" cy="129.3" r="1.3"/>
<path class="st0" d="M143,128.1c-0.6,3-1.7,5-2.6,6.3c-1,1.4-2.3,2.8-4.6,6c-1.4,2-1.7,2.5-1.5,3.1c0.5,2.1,5.3,2.7,6.7,2.6
	c1.9,0,3.7-0.1,5.1-0.2c3.8-0.2,4.8-0.3,5.4-1.1c0.7-0.9,0.5-2.1,0.4-3c-0.3-2.4-1.6-3.1-2.5-5.2c-0.1-0.2-1.6-3.9-0.1-7.2
	c1.3-2.9,4.3-4.1,6.4-4.9c1-0.4,3.3-1.2,6.4-1.1c1.2,0,4.4,0.2,7.6,2.3c1.1,0.7,1.9,1.4,2.4,2c-0.2-0.4-0.5-1-1-1.5
	c-0.8-0.9-1.6-1.5-2.2-1.9c0.6,0.2,1.4,0.6,2.3,1.3c1,0.8,1.6,1.8,1.9,2.3c-0.1-0.6-0.6-2.8-2.6-4.1c-0.6-0.4-1.3-0.6-1.8-0.7
	c0.6,0.1,1.8,0.2,3.1,1.1c1.8,1.3,2.3,3.1,2.4,3.7c-0.2-0.9-0.9-4.4-4-6.9c-0.4-0.3-2.2-1.7-5.1-2.1c-3.8-0.6-6.7,1-8.8,2.1
	c-2.2,1.2-3.8,2.5-4.8,3.6c-0.8,0.1-2.2,0.2-3.7,0.1c-0.5-0.1-1.5-0.2-2.8-0.6c-0.1,0-0.1-0.1-0.2-0.1c-2.3-0.8-5.5-2.9-5.5-3l0,0
	c-4.1-2.6-4.5-3.1-5.3-3.5c-2.3-1.1-5.1,0.2-6.6,0.9c-4.6,2.2-6.1,6.6-6,6.6c0,0,1.8-3.8,5-4.3c0.6-0.1,1.2,0,1.5,0
	c-0.6,0.1-1.7,0.2-2.9,1c-1.4,0.9-2,2.2-2.2,2.7c0.5-0.6,1.6-1.8,3.4-2.3c0.8-0.2,1.5-0.3,2-0.3c-0.6,0.1-1.7,0.3-2.8,1
	c-0.8,0.5-1.3,1.1-1.6,1.5c0.9-0.5,2.2-1.1,3.9-1.5c0.3-0.1,2.8-0.7,5.6-0.3C138.6,123.3,142.1,127.1,143,128.1z"/>
<path class="st3" d="M140.4,135.1c-0.2,0.2-1,1.2-2.2,2.6c-0.5,0.6-1.1,1.4-2.1,2.7c-1.2,1.6-1.9,2.8-1.6,3.2
	c0.4,0.5,2.2-1.2,3.6-0.6c1.1,0.5,0.8,1.7,2,2.5c1.1,0.6,2.6,0.5,3.6,0c1.3-0.6,1.1-1.4,2.3-1.9c0.8-0.3,2.1-0.3,2.9,0.4
	c0.8,0.5,0.9,1.3,1.4,1.2c0.6,0,0.9-0.9,1-1c0.3-0.8,0.2-1.8-0.4-3.2c-0.9-2.1-1.8-2.3-2.6-3.7c-1.3-2.3-0.7-4.9-0.2-6.8
	c0.7-2.9,2.2-5,3.2-6c-1.6,0.7-3.2,1.4-4.8,2.1c-1.1,0.5-2.2,1-3.2,1.6C142.7,131.8,141.5,133.8,140.4,135.1z"/>
<path class="st14" d="M147.7,136.3c0.2,0.6,0.5,1.5,1.2,2.4c0.5,0.7,0.8,0.7,1.3,1.4c0.9,1.3,1,2.6,1,2.9c0,0.2,0.1,1.8-0.5,2
	c0,0-0.3,0.1-2-1.6l0,0C148.4,140.9,148,138.6,147.7,136.3z"/>
<path class="st0" d="M134.9,152.6c0,0,5-6.9,6.7-4.2c0,0,1.9-2.1,3.7-0.7c1.2,2.1,3.2,3.4,5.1,3.2c0.4,0,1.1-0.2,1.9-0.7
	c0,0-5.2,7-8.2,4.6c0,0-2.6,2.2-4.7,0.5C139.3,155.3,137.1,152.2,134.9,152.6z"/>
<path class="st8" d="M136.6,152c0.6-1,1.3-1.6,1.7-1.9c0.6-0.4,1.1-0.8,1.8-0.8c0.7,0,0.8,0.4,1.4,0.4c0.9,0,1-0.8,2-0.9
	c0.1,0,0.9-0.1,1.5,0.4c0.4,0.3,0.4,0.6,0.8,1.1c0.1,0.1,0.4,0.4,1.4,0.8c0.6,0.2,1.3,0.5,2.3,0.6c-0.4,0.2-1.1,0.5-2,0.7
	c-2.8,0.5-4.4-1-7.4-1C139.4,151.3,138.1,151.4,136.6,152z"/>
<path class="st15" d="M137.3,152.2c0.5,0.2,0.9,0.5,1.1,0.7c0.5,0.4,0.6,0.6,1.1,1c0.1,0,0.6,0.4,1,0.5c1.1,0.4,2.4-0.3,2.8-0.5
	c0.6,0.1,1.7,0.2,3.1-0.1c1.5-0.4,2.5-1.2,2.9-1.6c-0.5,0.2-1.3,0.6-2.3,0.6c-0.3,0-1,0.1-3.1-0.3c-1.6-0.3-1.8-0.5-2.6-0.6
	C140.4,151.7,139,151.6,137.3,152.2z"/>
<path class="st8" d="M154.1,98.9c-4.1,0.1-10.4,0.7-17.5,3.5c-3.2,1.3-7.4,2.9-11.6,6.7c-6.5,5.8-8.9,13.1-9.9,17.2
	c1.9-4,5.5-10.3,12.1-16C137.8,101.2,149.4,99.4,154.1,98.9z"/>
<path class="st16" d="M229.1,181.8c3.1,1.9,17.2,9.9,33.8,5.3c6.8-1.9,11.8-5.3,14.9-8c-2.2,3.6-5.6,7.7-10.5,11
	c-2.4,1.6-5.2,3.4-9,3.6c-1.5,0.1-2.9-0.2-5.7-0.7c-0.9-0.2-4.1-0.8-9.1-2.3c-2.4-0.8-5.6-1.8-9.1-3.3c-0.9-0.7-1.9-1.5-2.9-2.7
	C230.3,183.6,229.6,182.6,229.1,181.8z"/>
<path class="st4" d="M103.2,221.5c-6.1,14.4-12.2,28.7-18.3,43.1c3.2-2.7,7.1-6.6,10.5-12C103.3,240,103.5,227.2,103.2,221.5z"/>
<path class="st8" d="M183,115.8c2.6-0.8,15.3-4.4,28.5,2.6c10.3,5.5,14.8,14.2,16.2,17.2c-2.1-3.4-7.8-11.3-18.4-16.3
	C197.6,113.8,186.9,115.1,183,115.8z"/>
<path class="st4" d="M189.6,169.4c7.1,4.9,17.2,13.2,26.4,25.8c8.7,11.9,13.4,23.2,16,31.2c-1.4-7.1-4.7-18.3-12.5-30
	C209.3,181.2,196.5,173.1,189.6,169.4z"/>
<path class="st8" d="M73.1,75.7c3.4,2.2,7.3,5.2,11.4,9c4.1,3.9,7.3,7.7,9.8,11c-0.8-1.8-1.9-4.3-3.8-6.9c-3.4-4.8-7-7.5-8.2-8.4
	C78.9,78,75.6,76.6,73.1,75.7z"/>
</svg>
