<?xml version="1.0" encoding="utf-8"?>
<!-- Generator: Adobe Illustrator 24.1.2, SVG Export Plug-In . SVG Version: 6.00 Build 0)  -->
<svg version="1.1" id="レイヤー_1" xmlns="http://www.w3.org/2000/svg" xmlns:xlink="http://www.w3.org/1999/xlink" x="0px"
	 y="0px" viewBox="0 0 500 500" style="enable-background:new 0 0 500 500;" xml:space="preserve">
<style type="text/css">
	.st0{fill:#70C7DC;}
	.st1{fill:#66A1A2;}
	.st2{fill:#81CACB;}
	.st3{fill:#7EC5C6;}
	.st4{fill:#70B0B1;}
	.st5{fill:#75B7B8;}
	.st6{fill:#58C3F0;}
	.st7{fill:#875D85;}
	.st8{fill:#825980;}
	.st9{fill:#90648D;}
	.st10{fill:#8C6189;}
	.st11{fill:#0D2B2C;}
	.st12{fill:#B2DBCE;}
	.st13{fill:#C5D7E1;}
	.st14{fill:#323333;}
	.st15{fill:#231815;}
	.st16{fill:#99D2CC;}
	.st17{fill:#94D4F5;}
	.st18{fill:#81CACA;}
	.st19{fill:#8ACDCB;}
	.st20{fill:#7ABEBF;}
	.st21{fill:#A2D5CD;}
	.st22{fill:#B0DBCE;}
	.st23{fill:#6BA8A9;}
	.st24{fill:#60999A;}
	.st25{fill:#80C7C8;}
	.st26{fill:#9AD4DF;}
	.st27{fill:#4D8080;}
	.st28{fill:#7DC2C3;}
</style>
<g id="_x31_">
	<g>
		<path class="st0" d="M455.5,399.2c0.6,14.6-55.9,27.8-71.9,31.5c-43.9,10.2-67,8.3-133.6,10.4c-99.3,3.1-140.3,10.1-183.8-17.1
			c-21.2-13.2-22-21.5-21.7-24.8c2-25.4,90.4-37.3,106.6-39.5c34.5-4.6,59.7-3.9,98.9-2.4c39.6,1.4,83,5.3,131.6,15.4
			C421.5,381,455.1,388,455.5,399.2z"/>
		<path class="st1" d="M411.8,394.6c0.3,13.9-69.6,40-134.8,29c-31-5.2-46.6-16.4-80.2-13c-8,0.8-24.5,3.2-45.6-1.2
			c-6.9-1.5-30.4-6.4-31.1-14.9c-1-11.9,43.5-24.5,48.8-26c26.6-7.9,63.4-13.4,144.6-0.3C371.2,377.5,411.6,384.1,411.8,394.6z"/>
		<path class="st2" d="M339.2,248.3c0,6.6,2,51-20.6,91.8c-7.6,13.8-14.3,13.8-13.9,20c0.6,9,64.6,28.6,63.8,35.3
			c-0.7,6.3-59.3,3.8-121.1,2.9c-75.5-1.1-118.4,0.9-119.7-7.3c-1.5-9.9,57.2-34.7,57-35.5c-0.1-0.5-0.4-0.5-1.6-1.9
			c-2.3-2.8-6.1-7.8-9.9-14.3c-22.4-38-19.1-80.7-18.4-91c6.3-82.3,59.6-135.1,73.8-140.6c0.4-0.2,3-0.9,5.6-3
			c5.1-4.2,6.5-10.3,6.6-11.1c1.9-9.3-5.8-12.4-5.2-21.8c0.5-7.9,6.6-16.3,11.8-16c5,0.3,9.4,8.7,10.1,16c0.9,9.8-5.7,13.2-3.4,23.1
			c0.3,1.5,1.5,6.2,5.5,9.9c3.2,2.9,6.7,3.7,7.4,4C288.8,116.7,339.2,174.7,339.2,248.3z"/>
		<path class="st3" d="M212.6,119.9c-12.4,12.9-27.8,32.1-39.7,58.2c-5.4,11.8-9.1,22.9-11.7,32.9c18.7,13.8,56.9,39.2,86.4,40.9
			c-7.2-1.8-33-9.3-47.9-33.6C182.4,189.8,187.1,149.8,212.6,119.9z"/>
		<path class="st4" d="M258.9,194.1c3.1,3.1,5.9,5.2,7.8,6.6c1.8,1.2,2.8,1.8,4.1,3.3c1.9,2.3,2.6,4.7,3.1,6.7
			c0.8,2.9,1.2,4.6,0.3,6.1c-1,1.9-3.2,2.5-4.1,2.6C266.4,211,262.6,202.5,258.9,194.1z"/>
		<path class="st5" d="M176.2,341.2c2.1,0.5,5.2,1.2,9,1.5c14.9,1.1,26.6-5.3,39.6-12.6c5.7-3.2,13.3-7.9,21.6-14.6
			c5.8,5.1,14.1,11.2,24.9,16.1c18.7,8.6,35.8,9.7,45.8,9.5L242.9,300L176.2,341.2z"/>
		<path class="st5" d="M309.9,230.8c0,0-14.8,36.7,10.6,55.6C320.4,286.5,353.9,237.5,309.9,230.8z"/>
		<path class="st5" d="M182,261c-0.1-2.5,0.8-3.8,1.1-4.3c2.2-2.7,7.5-3.2,12.7-0.2c0.1-0.5,1.8-7.3,6.9-8.6
			c6.3-1.6,11.8,6.9,12.4,7.9c2.3,3.6,2.9,7.1,3,9.1c0.3,0.9,0.6,1.8,0.9,2.6L182,261z"/>
		<path class="st2" d="M218.9,267.6c-2.9-10.6-10.4-16.5-16.1-15.4c-0.8,0.2-3.9,0.9-6.6,5.4c2.5,2.1,6.2,4.7,11.1,6.8
			C211.9,266.3,215.9,267.2,218.9,267.6z"/>
		<path class="st2" d="M218.9,267.6c0,0-33.2-21-37.7-4.2L218.9,267.6z"/>
		<path class="st2" d="M218.9,267.6c-9.9-1.7-17.5-3.1-22.4-4.1c-7.6-1.5-12.7-2.5-16,0.4c-2,1.8-2.6,4.5-2.8,6.5L218.9,267.6z"/>
		<path class="st2" d="M218.9,267.6c-10.6,0.6-19,0.7-24.6,0.6c-8.9,0-14.1-0.4-17.6,3.2c-3.1,3.1-3.5,7.6-3.4,10.5L218.9,267.6z"/>
		<path class="st5" d="M191.2,273.8c0,0-18.1-3.9-15.9,3.7C175.2,277.4,190.2,276,191.2,273.8z"/>
		<path class="st5" d="M199.1,268.3c0,0-23.7-6.3-20.2,1.3L199.1,268.3z"/>
		<path class="st5" d="M181.2,263.5c0,0-0.9-8.2,21.1,2.3L181.2,263.5z"/>
		<path class="st2" d="M275,267.6c-1.5,9.1-3,18.2-4.4,27.3c-18.4,14.9-35.3,24.5-47.6,30.6c-16.4,8.2-29,14.3-46.8,15.6
			c-11.6,0.9-32.8,2.5-44.7-10.8c-7.4-8.3-7.7-18.5-8.1-31c-1.1-33.9,14.5-59.4,19.9-67.9c7-10.9,14.2-18.7,19-23.4
			c7,7.6,14.1,15.2,21.1,22.8c0.6,2.9,1.3,7.4,1.2,12.8c-0.2,24.8-15.2,39.4-11.8,42.8c3.9,4,22.8-16.4,50.6-22.9
			C243.3,259,261.7,262.9,275,267.6z"/>
		<path class="st5" d="M218.2,267.6c7-3.5,15.8-6.9,26.2-8.2c39.4-5.2,69.7,21.3,76,27.1L218.2,267.6z"/>
		<path class="st4" d="M263,201.8c-0.8-0.8-1.6-1.4-2.2-1.9c-2.5-1.7-4.5-2.7-4.9-2.9c-5.4-2.5-6.5-21.6-10.1-22.1
			c-2.7-0.4-2.9,10.5-12.2,18.8c-5,4.5-8,4-12.2,9.5c-1.1,1.5-6.9,8.9-4.1,13.7c1.5,2.5,5.4,4.1,7.9,3.1c1.5-0.6,1.4-1.7,2.7-2.4
			c3.6-2,7.5,4.3,13.7,4.9c7.7,0.6,11.8-8.2,17-6.1c3.5,1.4,3.8,6,6.3,5.9c1.9,0,3.6-3,4.2-5.4C270.9,209.9,264,202.8,263,201.8z"/>
		<path class="st6" d="M313.4,200.1c0.4,0.4-6.4,10.9-19,21c-6.4,5.1-7.8,4.9-8.8,7.6c-3.9,10.4,14.5,22.2,10.2,32.5
			c-0.3,0.7-1.9,4.2-5,5c-3.3,0.8-6.5-2.1-7-2.5c-9-8.1,1-30.8-4.2-33.2c-1.1-0.5-17.6,7.4-28.2,8.5c-31.8,3.3-67.9-31.3-67.2-32.3
			c1.1-1.6,27.2,25.8,42.9,24.3c1.4-0.1,4.2-0.6,8.3-0.3c8.5,0.7,10.3,3.8,16,3c4.2-0.6,4.1-2.4,10.5-4.5c6-2,10.7-1.9,12.5-2
			C290.1,226.5,312.6,199.1,313.4,200.1z"/>
		<path class="st7" d="M313.4,200.1c0.2,0.3-5.9,9.6-19,21c-11.3,9.8-25.8,22.4-41.3,25.1c-34.6,6-68.1-40.5-68.9-39.7
			c-0.4,0.5,12.4,11.9,25.8,19.3c0,0,10.7,5.9,17.1,5c0.3,0,2.3-0.3,4.9-0.4c1,0,2.1,0,3.4,0.1c8.5,0.7,10.3,3.8,16,3
			c4.2-0.6,4.1-2.4,10.5-4.5c6-2,10.7-1.9,12.5-2C290.1,226.5,312.6,199.1,313.4,200.1z"/>
		<g>
			<path class="st8" d="M184.3,206.6c-0.1,0.1,1,1.3,3,3.1C185.5,207.6,184.4,206.4,184.3,206.6z"/>
			<path class="st8" d="M211.5,232.7c-3.8-3.5-7.4-7.6-10.5-12.4c-5.7-3.9-10.7-7.9-13.7-10.6C191.7,214.6,200.4,224.4,211.5,232.7z
				"/>
		</g>
		<path class="st9" d="M313.4,200.1c0.4,0.4-6.4,10.9-19,21c-6.4,5.1-32.3,16.7-42.9,17.8c-31.8,3.3-67.9-31.3-67.2-32.4
			c1.1-1.6,27.2,25.8,42.9,24.3c1.4-0.1,4.2-0.6,8.3-0.3c8.5,0.7,10.3,3.8,16,3c4.2-0.6,4.1-2.4,10.5-4.5c6-2,10.7-1.9,12.5-2
			C290.1,226.5,312.6,199.1,313.4,200.1z"/>
		<path class="st10" d="M202.2,222c-0.9-1.2-1.7-2.5-2.5-3.8l0,0c-8.4-6.3-14.9-12.5-15.4-11.7C184,207.1,191.2,214.4,202.2,222z"/>
		<path class="st11" d="M260.6,171.9c0,0,13-9.6,43.2,14.1L260.6,171.9z"/>
		<path class="st5" d="M260.6,171.9c8.7,20.1,24,29.5,33.3,26.2c1.4-0.5,6.5-2.6,9.8-12.1C303.8,186,275.3,177.2,260.6,171.9z"/>
		<path class="st12" d="M260.6,171.9c0,0,12.9,28.4,43.2,14.1C303.8,186,275.3,177.2,260.6,171.9z"/>
		<path class="st11" d="M260.6,171.9c3.1,3.3,11.6,11.7,25.3,14.3c7.5,1.4,13.8,0.6,17.9-0.3C303.8,186,275.3,177.2,260.6,171.9z"/>
		<path class="st13" d="M260.6,171.9c0,0,11.7-5.9,43.2,14.1C303.8,186,275.8,188.9,260.6,171.9z"/>
		<path class="st14" d="M264.2,175.4c5,4.1,10.8,6.7,16.4,8.3c1.2-1.6,1.9-3.6,1.9-5.7c0-1.2-0.2-2.4-0.6-3.4
			c-6.7-2.5-11.6-3.4-15-3.5C265.7,172.3,264.7,173.8,264.2,175.4z"/>
		<path class="st15" d="M266.7,176.7c0,0.2,0,0.4,0,0.6c2.9,2,6,3.6,9.2,4.8c1.9-1.1,3.3-3.1,3.3-5.5c0-1.2-0.4-2.4-1-3.4
			c-3.4-1.1-6.2-1.7-8.5-1.9C267.9,172.5,266.7,174.4,266.7,176.7z"/>
		<path class="st11" d="M236.1,171.9c0,0-13-9.6-43.2,14.1L236.1,171.9z"/>
		<path class="st5" d="M236.1,171.9c-9.5,20.4-24.8,29.8-33.9,26.4c-1.4-0.5-6.3-2.7-9.3-12.4C192.9,186,221.4,177.2,236.1,171.9z"
			/>
		<path class="st12" d="M236.1,171.9c0,0-12.9,28.4-43.2,14.1C192.9,186,221.4,177.2,236.1,171.9z"/>
		<path class="st11" d="M236.1,171.9c-2.8,3.2-11.2,11.9-25,14.6c-7.7,1.5-14.2,0.5-18.2-0.5C192.9,186,221.4,177.2,236.1,171.9z"/>
		<path class="st13" d="M236.1,171.9c0,0-11.7-5.9-43.2,14.1C192.9,186,220.8,188.9,236.1,171.9z"/>
		<path class="st14" d="M232.4,175.4c-5,4.1-10.8,6.7-16.4,8.3c-1.2-1.6-1.9-3.6-1.9-5.7c0-1.2,0.2-2.4,0.6-3.4
			c6.7-2.5,11.6-3.4,15-3.5C231,172.3,231.9,173.8,232.4,175.4z"/>
		<path class="st15" d="M230,176.7c0,0.2,0,0.4,0,0.6c-2.9,2-6,3.6-9.2,4.8c-1.9-1.1-3.3-3.1-3.3-5.5c0-1.2,0.4-2.4,1-3.4
			c3.4-1.1,6.2-1.7,8.5-1.9C228.8,172.5,230,174.4,230,176.7z"/>
		<path class="st2" d="M350,231.5c-5.8-10.2-11.5-18.1-15.8-23.5c-8.1,7.6-16.2,15.2-24.3,22.8c-0.6,2.9-1.3,7.4-1.2,12.8
			c0.2,24.8,15.2,39.4,11.8,42.8c-3.9,4-22.8-16.4-50.6-22.9c-19.9-4.6-38.3-0.6-51.7,4.1c0,0-17.5-10.7-19.8-9.5
			c0,0-4.1,8.3-7.2,15.6c-8.1,0.8-14.8,1-17.8,5.7c-1.5,2.4-1.5,5.1-1.3,7c3.3-0.3,6.5-0.7,9.8-1c0,0,2.5-0.4,6.3-0.6
			c0.7,0,14.9,0.3,25,3.6c3.5,1.5,6.8,3.6,9.5,6.5c18.4,14.9,35.3,24.5,47.6,30.6c16.4,8.2,29,14.3,46.8,15.6
			c11.6,0.9,32.8,2.5,44.7-10.8c7.4-8.3,7.7-18.5,8.1-31C370.8,269.2,358,245.7,350,231.5z"/>
		<path class="st16" d="M188.1,284.8c0.7,0,14.9,0.3,25,3.6c3.5,1.5,6.8,3.6,9.5,6.5c18.4,14.9,35.3,24.5,47.6,30.6
			c16.4,8.2,29,14.3,46.8,15.6c9.7,0.8,26.2,2,38.3-5.5c0.2-0.1,0.3-0.2,0.5-0.3c0.1,0,0.2-0.1,0.2-0.2c-25.4,0.9-44.2-3.8-56.4-8
			c-46.4-16.2-65.1-49.7-102.8-47.4c-10.9,0.7-19.6,4.1-24.8,6.6c3.3-0.3,6.5-0.7,9.8-1C181.8,285.5,184.3,285,188.1,284.8z"/>
		<path class="st5" d="M172,286.5c0,0,0.2-0.1,0.5-0.4c-2.2-4,11.9-18.5,12.1-42.5c0-5.4-0.6-9.9-1.2-12.8
			C183.4,230.8,162.2,287.5,172,286.5z"/>
		<path class="st16" d="M176.2,341.2c17.8-1.4,30.4-7.5,46.8-15.6c8.4-4.2,19-10,30.7-18l0,0l-3.8-3.7c-11.3,9.4-42.7,33-85.9,32
			c-12.6-0.3-23.6-2.6-32.5-5.5C143.4,343.7,164.6,342.1,176.2,341.2z"/>
		<path class="st17" d="M282.6,247.8l5.9,15.3C288.5,263.1,282.5,267.7,282.6,247.8z"/>
		<path class="st18" d="M266.8,199.6c-2.9-2.9-4.4-2.9-7.1-4.8c-4.3-3.1-9.4-19.9-12.1-22.7c-0.1-0.2-0.2-0.4-0.4-0.4
			c-0.1,0-0.1,0-0.2,0c-0.1,0-0.1,0-0.2,0c-0.2,0-0.3,0.2-0.4,0.4c-2.7,2.8-7.7,19.5-12.1,22.7c-2.7,1.9-4.2,1.9-7.1,4.8
			c-0.9,0.9-7.8,8-6.2,15.1c0.6,2.4,2.3,5.4,4.2,5.4c2.6,0,2.9-4.9,6.3-5.9c4.8-1.6,8.2,7.5,15.2,7.6c7.1,0.1,10.8-9.2,15.8-7.6
			c3.4,1.1,3.7,6,6.3,5.9c1.9,0,3.6-3,4.2-5.4C274.6,207.6,267.7,200.5,266.8,199.6z"/>
		<path class="st19" d="M266.8,199.6c-2.9-2.9-4.4-2.9-7.1-4.8c-4.7-3.4-11.1-23.3-12.5-23.1c-1.9,0.3,2.4,38.4,11.1,40.8
			c0.6,0.2,2.3,0.4,4.2,1.6c3.9,2.4,4.4,6,6.3,5.9c1.9,0,3.6-3,4.2-5.4C274.6,207.6,267.7,200.5,266.8,199.6z"/>
		<path class="st20" d="M236.4,214.2c-2.4-4.7,0.4-9.6,4-20.2c1.8-5.1,4-12.5,6-21.9c-2.7,2.8-7.7,19.5-12.1,22.7
			c-2.7,1.9-4.2,1.9-7.1,4.8c-0.9,0.9-7.8,8-6.2,15.1c0.6,2.4,2.3,5.4,4.2,5.4c1.1,0,1.9-1.1,2.7-2.4c0,0,0,0,0,0
			c1-1.6,1.9-3.5,3.5-3.6c4.8-1.6,8.2,7.5,15.2,7.6C247.1,220.7,239.2,219.7,236.4,214.2z"/>
		
			<ellipse transform="matrix(0.6559 -0.7549 0.7549 0.6559 -64.6984 270.1068)" class="st21" cx="263.9" cy="206" rx="3.5" ry="4.4"/>
		
			<ellipse transform="matrix(0.6559 -0.7549 0.7549 0.6559 -64.4927 270.3412)" class="st22" cx="264.3" cy="205.9" rx="2.3" ry="3.6"/>
		<path class="st23" d="M225.5,247c0,0,31.1,7,45.2-3.5C270.7,243.5,255.3,259.8,225.5,247z"/>
		<path class="st24" d="M188.9,200.1c-3-1.4-7.2-2.9-9.2-1.1c-4.3,3.8,5.5,20.4,4.9,20.7c-0.6,0.3-13.9-20.4-9.8-24.3
			C176.5,193.7,181.2,195.3,188.9,200.1z"/>
		<path class="st1" d="M307.9,196.7c3.3-0.9,6.5-1.1,8.1,0.6c4.3,4.4-4.5,18.6-3.9,19c0.8,0.4,13.8-18.7,9.8-22.9
			C320.3,191.6,315.6,192.7,307.9,196.7z"/>
		<path class="st4" d="M274.8,206.3c0,0,16.2-2.9,18.2,7.2C293,213.5,284.2,207.2,274.8,206.3z"/>
		<path class="st4" d="M216.6,206.3c0,0-16.1-2.9-18.1,7.2C198.6,213.5,207.2,207.2,216.6,206.3z"/>
		<path class="st23" d="M263.7,158.9c2,2.6,5,5.8,9.3,8.3c13.2,7.9,27.6,3.8,30.8,2.8c-5.5-0.6-11.8-1.6-18.6-3.4
			C276.7,164.5,269.5,161.7,263.7,158.9z"/>
		<path class="st11" d="M303.8,170.1c-6.6-0.9-12.5-2.1-17.4-3.4c-7.4-2-13.1-4.1-16-5.3c-2.6-1.1-4.8-2-6.4-2.8c-1-1.2-6-7.8-6-7.8
			c0,0-0.4-0.5-0.4-0.5l-0.2-0.3l-0.4,0.3l6.7,8.6c4.5,2.1,9.6,4.1,15.3,5.9C288.2,167.8,296.6,169.3,303.8,170.1z"/>
		<path class="st23" d="M230.4,158.9c-1.3,1.7-13.6,16.8-30.1,14.8c-2.6-0.3-6-1.1-9.8-3.2c5.4-0.1,12.7-0.8,21-3.2
			C219.5,165,225.9,161.7,230.4,158.9z"/>
		<path class="st15" d="M190.4,170.5c5.4-0.1,12.7-0.8,21-3.2c8.1-2.4,14.4-5.6,19-8.4c-0.1-0.2-0.1-0.4-0.2-0.6
			c-4.4,2.8-10.7,6.1-18.8,8.5c-8.4,2.5-15.8,3.1-21.1,3.1C190.3,170.1,190.4,170.3,190.4,170.5z"/>
		<path class="st22" d="M247,58.2c0,0,12.7,4.5,7.3,21.3c-0.1-2.7-0.4-6.6-1.9-11.1C250.9,63.8,248.7,60.4,247,58.2z"/>
		<path class="st5" d="M188.2,358c8.4,5.2,27.8,15.7,54.6,16.4c28.5,0.8,49.3-9.8,57.8-14.8c-4.1,3.9-24.6,22.3-56.2,22
			C212.3,381.3,192.1,361.9,188.2,358z"/>
		<path class="st25" d="M232.4,141.9c0,0-23.2,18.4-36.3,20.2L232.4,141.9z"/>
		<path class="st23" d="M261.8,145.5c0,0-16-1.3-6.7,8.5C255.1,154,252,146.2,261.8,145.5z"/>
		<path class="st1" d="M160.1,372.3c0,0-48.1,22.6,24.5,17c-16.6,2-28.6-0.7-30.1-6.1C154.2,382,153.6,378.5,160.1,372.3z"/>
		<path class="st26" d="M133.1,378.6c-24.2,8.9-43.7,18.6-42.7,26.5c2.7,20.6,140.3,17.4,140.4,15.9c0.1-1.4-118.8-0.4-121.5-21.7
			C108.4,392.4,120.3,384.8,133.1,378.6z"/>
		<path class="st27" d="M264,412.6c0,0,69.9,17.6,101.8,0c-13.3,2-28.5,3.5-45.2,3.8C299.2,416.8,280.1,415.1,264,412.6z"/>
		<path class="st2" d="M127.8,391c0,2.1,0.4,5,2.3,7.1c4.6,4.8,13.1,0.4,25.6,0.7c11.6,0.3,12.8,4.4,25.6,6.5
			c13.7,2.3,23.9-0.4,31.4-1.8c7.2-1.4,31.2,0.3,78.7,3.6c30.8,2.1,49.5,3.7,69.7-7.2c3.2-1.7,5.7-3.4,7.3-4.5
			C288.2,393.9,208,392.4,127.8,391z"/>
		<circle class="st13" cx="276.4" cy="175" r="3.6"/>
		<circle class="st13" cx="226.3" cy="174.2" r="3.6"/>
		<path class="st3" d="M246,56c-4.7,1.2-9.7,8.7-10.2,15.8c-0.6,8.5,5.6,11.8,5.5,19.2h5.8C236,72.4,244.9,57.8,246,56z"/>
		<path class="st28" d="M253.8,92.6c-0.4-3.8,0.6-6.6,1.6-9.4c-1.3,2.7-7.9,15.2-15.8,1.3c1.1,2.4,1.9,4.9,1.4,8.3
			C242.2,96.1,247,109.1,253.8,92.6z"/>
	</g>
</g>
</svg>
