<?xml version="1.0" encoding="utf-8"?>
<!-- Generator: Adobe Illustrator 24.1.2, SVG Export Plug-In . SVG Version: 6.00 Build 0)  -->
<svg version="1.1" xmlns="http://www.w3.org/2000/svg" xmlns:xlink="http://www.w3.org/1999/xlink" x="0px" y="0px"
	 viewBox="0 0 500 500" style="enable-background:new 0 0 500 500;" xml:space="preserve">
<style type="text/css">
	.st0{display:none;}
	.st1{display:inline;fill:#FFFFFF;stroke:#231815;stroke-miterlimit:10;}
	.st2{display:inline;}
	.st3{fill:#FFFFFF;stroke:#231815;stroke-miterlimit:10;}
	.st4{display:inline;fill:#70C7DC;}
	.st5{display:inline;fill:#66A1A2;}
	.st6{display:inline;fill:#81CACB;}
	.st7{display:inline;fill:#7EC5C6;}
	.st8{display:inline;fill:#70B0B1;}
	.st9{display:inline;fill:#75B7B8;}
	.st10{display:inline;fill:#58C3F0;}
	.st11{display:inline;fill:#875D85;}
	.st12{fill:#825980;}
	.st13{display:inline;fill:#90648D;}
	.st14{display:inline;fill:#8C6189;}
	.st15{display:inline;fill:#0D2B2C;}
	.st16{display:inline;fill:#B2DBCE;}
	.st17{display:inline;fill:#C5D7E1;}
	.st18{display:inline;fill:#323333;}
	.st19{display:inline;fill:#231815;}
	.st20{display:inline;fill:#99D2CC;}
	.st21{display:inline;fill:#94D4F5;}
	.st22{display:inline;fill:#81CACA;}
	.st23{display:inline;fill:#8ACDCB;}
	.st24{display:inline;fill:#7ABEBF;}
	.st25{display:inline;fill:#A2D5CD;}
	.st26{display:inline;fill:#B0DBCE;}
	.st27{display:inline;fill:#6BA8A9;}
	.st28{display:inline;fill:#60999A;}
	.st29{display:inline;fill:#80C7C8;}
	.st30{display:inline;fill:#9AD4DF;}
	.st31{display:inline;fill:#4D8080;}
	.st32{display:inline;fill:#7DC2C3;}
	.st33{fill:url(#SVGID_1_);stroke:url(#SVGID_2_);stroke-miterlimit:10;}
	.st34{fill:#70C7DC;}
	.st35{fill:#66A1A2;}
	.st36{fill:#81CACB;}
	.st37{fill:#7EC5C6;}
	.st38{fill:#70B0B1;}
	.st39{fill:#75B7B8;}
	.st40{fill:#58C3F0;}
	.st41{fill:#875D85;}
	.st42{fill:#90648D;}
	.st43{fill:#8C6189;}
	.st44{fill:#0D2B2C;}
	.st45{fill:#B2DBCE;}
	.st46{fill:#C5D7E1;}
	.st47{fill:#323333;}
	.st48{fill:#231815;}
	.st49{fill:#99D2CC;}
	.st50{fill:#94D4F5;}
	.st51{fill:#81CACA;}
	.st52{fill:#8ACDCB;}
	.st53{fill:#7ABEBF;}
	.st54{fill:#A2D5CD;}
	.st55{fill:#B0DBCE;}
	.st56{fill:#6BA8A9;}
	.st57{fill:#60999A;}
	.st58{fill:#80C7C8;}
	.st59{fill:#9AD4DF;}
	.st60{fill:#4D8080;}
	.st61{fill:#7DC2C3;}
</style>
<g id="_x33_" class="st0">
	<ellipse class="st1" cx="1482.53" cy="494.26" rx="273.13" ry="55.68"/>
	<path class="st1" d="M1601.03,293.7c0,8.83,2.6,67.81-27.44,122c-10.16,18.33-19,18.28-18.43,26.55
		c0.82,11.94,85.83,38.02,84.85,46.96c-0.93,8.4-78.76,4.98-160.92,3.82c-100.36-1.42-157.39,1.23-159.04-9.68
		c-1.98-13.11,76.03-46.13,75.76-47.17c-0.16-0.61-0.55-0.63-2.12-2.58c-3.04-3.78-8.05-10.38-13.15-19.01
		c-29.79-50.5-25.45-107.2-24.4-120.9c8.38-109.34,79.16-179.53,98.14-186.89c0.59-0.23,4.02-1.2,7.48-3.99
		c6.83-5.52,8.59-13.75,8.78-14.7c2.46-12.41-7.74-16.43-6.89-28.97c0.71-10.51,8.81-21.62,15.64-21.22
		c6.61,0.38,12.55,11.59,13.4,21.22c1.16,13.09-7.55,17.61-4.57,30.69c0.44,1.95,1.97,8.29,7.25,13.13
		c4.22,3.87,8.93,4.93,9.84,5.27C1534.11,118.88,1601.03,195.88,1601.03,293.7z"/>
	<path class="st1" d="M1553.99,189.77c-8.83-1.13-16.58-2.79-23.06-4.51c-9.84-2.61-17.36-5.5-21.26-7.09
		c-3.45-1.4-6.33-2.71-8.5-3.73c-1.26-1.62-8-10.3-8.02-10.32c0,0-0.5-0.64-0.5-0.64c0,0-0.29-0.37-0.29-0.37l-0.52,0.4l8.86,11.48
		c5.94,2.75,12.72,5.48,20.3,7.87C1533.27,186.74,1544.52,188.75,1553.99,189.77z"/>
	<path class="st1" d="M1403.36,190.4c7.16-0.12,16.87-1.02,27.89-4.25c10.73-3.15,19.2-7.49,25.22-11.16
		c-0.08-0.28-0.16-0.56-0.24-0.84c-5.38,3.75-13.77,8.7-24.98,12c-11.51,3.39-21.5,3.7-28.14,3.41
		C1403.19,189.84,1403.28,190.12,1403.36,190.4z"/>
	<path class="st1" d="M1504.83,228.99c-3.85-3.86-5.88-3.79-9.47-6.38c-5.77-4.17-12.46-26.38-16.01-30.12
		c-0.14-0.32-0.33-0.5-0.56-0.53c-0.07-0.01-0.14,0.01-0.21,0.03c-0.07-0.02-0.14-0.03-0.21-0.03c-0.23,0.03-0.41,0.21-0.56,0.53
		c-3.55,3.75-10.24,25.95-16.01,30.12c-3.58,2.59-5.62,2.52-9.47,6.38c-1.22,1.23-10.4,10.68-8.19,20.01
		c0.76,3.21,3.03,7.1,5.54,7.15c3.4,0.06,3.89-6.46,8.34-7.89c6.43-2.06,10.93,9.92,20.19,10.04c9.45,0.12,14.32-12.24,20.93-10.04
		c4.47,1.49,4.94,7.95,8.34,7.89c2.51-0.04,4.78-3.94,5.54-7.15C1515.23,239.67,1506.05,230.22,1504.83,228.99z"/>
	<path class="st1" d="M1566.79,229.67c0.47,0.58-8.52,14.55-25.25,27.95c-8.5,6.81-10.36,6.56-11.67,10.07
		c-5.14,13.8,19.2,29.48,13.52,43.2c-0.39,0.95-2.48,5.63-6.59,6.59c-4.39,1.03-8.61-2.74-9.23-3.3
		c-12.01-10.73,1.29-40.87-5.61-44.19c-1.44-0.7-23.37,9.85-37.46,11.3c-42.29,4.35-90.24-41.58-89.33-43
		c1.4-2.17,36.16,34.27,57,32.32c1.81-0.17,5.59-0.79,11.07-0.36c11.32,0.89,13.71,5,21.25,4.01c5.59-0.74,5.52-3.16,13.9-5.93
		c7.94-2.63,14.26-2.52,16.59-2.63C1535.84,264.72,1565.74,228.37,1566.79,229.67z"/>
	<g class="st2">
		<path class="st3" d="M1496.59,192.27c0,0,17.24-12.77,57.4,18.7L1496.59,192.27z"/>
		<path class="st3" d="M1496.59,192.27c0,0,17.18,37.76,57.4,18.7C1553.99,210.97,1516.08,199.25,1496.59,192.27z"/>
		<path class="st3" d="M1496.59,192.27c0,0,15.59-7.91,57.4,18.7C1553.99,210.97,1516.86,214.81,1496.59,192.27z"/>
		<path class="st3" d="M1501.42,196.9c6.62,5.52,14.34,8.96,21.81,11.07c1.61-2.1,2.58-4.72,2.58-7.57c0-1.6-0.31-3.13-0.86-4.54
			c-8.86-3.37-15.4-4.49-19.95-4.66C1503.33,192.72,1502.07,194.67,1501.42,196.9z"/>
		<path class="st3" d="M1504.71,198.6c0,0.29,0.02,0.58,0.05,0.86c3.87,2.71,8.02,4.8,12.21,6.42c2.58-1.41,4.33-4.14,4.33-7.28
			c0-1.65-0.49-3.18-1.32-4.48c-4.45-1.42-8.18-2.2-11.28-2.6C1506.31,192.98,1504.71,195.6,1504.71,198.6z"/>
	</g>
	<g class="st2">
		<path class="st3" d="M1463.99,192.27c0,0-17.24-12.77-57.4,18.7L1463.99,192.27z"/>
		<path class="st3" d="M1463.99,192.27c0,0-17.18,37.76-57.4,18.7C1406.59,210.97,1444.5,199.25,1463.99,192.27z"/>
		<path class="st3" d="M1463.99,192.27c0,0-15.59-7.91-57.4,18.7C1406.59,210.97,1443.72,214.81,1463.99,192.27z"/>
		<path class="st3" d="M1459.16,196.9c-6.62,5.52-14.34,8.96-21.81,11.07c-1.61-2.1-2.58-4.72-2.58-7.57c0-1.6,0.31-3.13,0.86-4.54
			c8.86-3.37,15.4-4.49,19.95-4.66C1457.25,192.72,1458.51,194.67,1459.16,196.9z"/>
		<path class="st3" d="M1455.87,198.6c0,0.29-0.02,0.58-0.05,0.86c-3.87,2.71-8.02,4.8-12.21,6.42c-2.58-1.41-4.33-4.14-4.33-7.28
			c0-1.65,0.49-3.18,1.32-4.48c4.45-1.42,8.18-2.2,11.28-2.6C1454.27,192.98,1455.87,195.6,1455.87,198.6z"/>
	</g>
	<path class="st1" d="M1515.75,319.45c-1.96,12.1-3.92,24.2-5.89,36.3c-24.48,19.76-46.94,32.59-63.28,40.72
		c-21.84,10.86-38.51,18.96-62.2,20.78c-15.38,1.18-43.62,3.36-59.46-14.4c-9.85-11.05-10.27-24.63-10.79-41.21
		c-1.41-45.09,19.29-79,26.49-90.26c9.27-14.5,18.91-24.86,25.27-31.09c9.34,10.08,18.69,20.17,28.03,30.25
		c0.78,3.86,1.69,9.8,1.64,17.03c-0.23,32.93-20.21,52.33-15.7,56.9c5.19,5.26,30.25-21.84,67.21-30.41
		C1473.58,307.9,1498,313.19,1515.75,319.45z"/>
	<path class="st1" d="M1441.24,319.45c0,0-33.32-23.38-50.16-5.54c0,0-12.91,25-11.22,30.56c0,0,57.47-8.57,67.26,11.28
		L1441.24,319.45z"/>
	<path class="st1" d="M1441.24,319.45c-3.87-14.13-13.89-21.91-21.39-20.47c-1.09,0.21-5.16,1.2-8.78,7.16
		c3.34,2.76,8.27,6.23,14.82,9.02C1431.82,317.7,1437.19,318.87,1441.24,319.45z"/>
	<path class="st1" d="M1441.24,319.45c0,0-44.09-27.88-50.16-5.54L1441.24,319.45z"/>
	<path class="st1" d="M1441.24,319.45c-13.12-2.24-23.27-4.14-29.82-5.41c-10.11-1.95-16.88-3.39-21.21,0.53
		c-2.69,2.43-3.44,6.02-3.65,8.69L1441.24,319.45z"/>
	<path class="st1" d="M1441.24,319.45c-14.04,0.78-25.22,0.88-32.73,0.83c-11.86-0.07-18.71-0.53-23.44,4.26
		c-4.06,4.11-4.6,10.09-4.51,13.99L1441.24,319.45z"/>
	<path class="st1" d="M1441.24,319.45c0,0-36.26-6.54-40.02,22.84l26.86,2.49c0,0-0.87-17.84,11.56,0l7.5,10.97L1441.24,319.45z"/>
	<path class="st1" d="M1616.37,271.37c-7.49-13.6-14.92-24.13-20.25-31.15c-11.02,10.1-22.03,20.21-33.05,30.31
		c-0.78,3.86-1.69,9.8-1.64,17.03c0.23,32.93,20.21,52.33,15.7,56.9c-5.19,5.26-30.25-21.84-67.21-30.41
		c-26.5-6.15-50.93-0.86-68.68,5.4c0,0-23.22-14.26-26.33-12.61c0,0-5.48,10.99-9.61,20.74c-10.69,1.12-19.71,1.37-23.67,7.61
		c-2.03,3.19-2.03,6.83-1.76,9.27c4.35-0.45,8.7-0.89,13.04-1.34c0,0,3.29-0.56,8.35-0.84c0.95,0.02,19.84,0.38,33.24,4.76
		c4.7,2.03,9.08,4.83,12.63,8.7c24.48,19.76,46.94,32.59,63.28,40.72c21.84,10.86,38.51,18.96,62.2,20.78
		c15.38,1.18,43.62,3.36,59.46-14.4c9.85-11.05,10.27-24.63,10.79-41.21C1644.08,322.52,1627.62,291.79,1616.37,271.37z"/>
</g>
<g id="_x32_" class="st0">
	<path class="st4" d="M1108.9,493.76c0.75,19.44-74.3,36.92-95.51,41.86c-58.37,13.59-89.1,11.09-177.61,13.82
		c-131.98,4.07-186.49,13.43-244.3-22.77c-28.12-17.6-29.18-28.55-28.82-32.91c2.73-33.77,120.18-49.54,141.7-52.43
		c45.81-6.15,79.31-5.11,131.43-3.25c52.66,1.88,110.28,7,174.86,20.46C1063.63,469.58,1108.32,478.89,1108.9,493.76z"/>
	<path class="st5" d="M1050.79,487.68c0.37,18.49-92.51,53.19-179.22,38.6c-41.26-6.94-61.89-21.8-106.58-17.22
		c-10.57,1.08-32.51,4.29-60.67-1.64c-9.15-1.93-40.42-8.51-41.37-19.75c-1.34-15.79,57.84-32.55,64.87-34.63
		c35.38-10.45,84.22-17.81,192.2-0.42C996.84,464.99,1050.51,473.69,1050.79,487.68z"/>
	<path class="st6" d="M954.27,293.2c0,8.83,2.6,67.81-27.44,122c-10.16,18.33-19,18.28-18.43,26.55
		c0.82,11.94,85.83,38.02,84.85,46.96c-0.93,8.4-78.76,4.98-160.92,3.82c-100.36-1.42-157.39,1.23-159.04-9.68
		c-1.98-13.11,76.03-46.13,75.76-47.17c-0.16-0.61-0.55-0.63-2.12-2.58c-3.04-3.78-8.05-10.38-13.15-19.01
		c-29.79-50.5-25.45-107.2-24.4-120.9c8.38-109.34,79.16-179.53,98.14-186.89c0.59-0.23,4.02-1.2,7.48-3.99
		c6.83-5.52,8.59-13.75,8.78-14.7c2.46-12.41-7.74-16.43-6.89-28.97c0.71-10.51,8.81-21.62,15.64-21.22
		c6.61,0.38,12.55,11.59,13.4,21.22c1.16,13.09-7.55,17.61-4.57,30.69c0.44,1.95,1.97,8.29,7.25,13.13
		c4.22,3.87,8.93,4.93,9.84,5.27C887.36,118.38,954.27,195.38,954.27,293.2z"/>
	<path class="st7" d="M786.04,122.57c-16.48,17.16-36.9,42.66-52.71,77.42c-7.12,15.66-12.07,30.46-15.55,43.68
		c24.86,18.32,75.62,52.08,114.79,54.34c-9.64-2.43-43.92-12.32-63.64-44.68C745.84,215.49,752.1,162.36,786.04,122.57z"/>
	<path class="st8" d="M847.56,221.18c4.12,4.16,7.78,6.97,10.41,8.78c2.34,1.62,3.77,2.39,5.46,4.4c2.56,3.05,3.45,6.26,4.14,8.87
		c1.04,3.93,1.61,6.07,0.45,8.17c-1.39,2.51-4.32,3.29-5.44,3.52C857.58,243.68,852.57,232.43,847.56,221.18z"/>
	<path class="st9" d="M737.62,416.74c2.76,0.74,6.89,1.65,11.96,2.02c19.76,1.44,35.3-7.08,52.57-16.77
		c7.63-4.28,17.68-10.55,28.73-19.36c7.74,6.76,18.69,14.83,33.07,21.46c24.82,11.43,47.56,12.89,60.9,12.66L826.35,362
		L737.62,416.74z"/>
	<path class="st9" d="M915.31,270.03c0,0-19.65,48.79,14.06,73.93C929.37,343.96,973.88,278.88,915.31,270.03z"/>
	<path class="st9" d="M745.34,310.2c-0.18-3.33,1-5.1,1.53-5.76c2.89-3.63,9.97-4.23,16.87-0.26c0.15-0.62,2.45-9.69,9.12-11.39
		c8.33-2.13,15.64,9.23,16.45,10.48c3.05,4.73,3.81,9.45,4.03,12.14c0.38,1.18,0.76,2.35,1.14,3.53L745.34,310.2z"/>
	<path class="st6" d="M794.49,318.95c-3.87-14.13-13.89-21.91-21.39-20.47c-1.09,0.21-5.16,1.2-8.78,7.16
		c3.34,2.76,8.27,6.23,14.82,9.02C785.06,317.2,790.43,318.37,794.49,318.95z"/>
	<path class="st6" d="M794.49,318.95c0,0-44.09-27.88-50.16-5.54L794.49,318.95z"/>
	<path class="st6" d="M794.49,318.95c-13.12-2.24-23.27-4.14-29.82-5.41c-10.11-1.95-16.88-3.39-21.21,0.53
		c-2.69,2.43-3.44,6.02-3.65,8.69L794.49,318.95z"/>
	<path class="st6" d="M794.49,318.95c-14.04,0.78-25.22,0.88-32.73,0.83c-11.86-0.07-18.71-0.53-23.44,4.26
		c-4.06,4.11-4.6,10.09-4.51,13.99L794.49,318.95z"/>
	<path class="st9" d="M757.54,327.08c0,0-24-5.18-21.17,4.88C736.37,331.96,756.24,330.1,757.54,327.08z"/>
	<path class="st9" d="M768.15,319.77c0,0-31.46-8.4-26.88,1.69L768.15,319.77z"/>
	<path class="st9" d="M744.33,313.41c0,0-1.17-10.96,27.97,3.09L744.33,313.41z"/>
	<path class="st6" d="M869,318.95c-1.96,12.1-3.92,24.2-5.89,36.3c-24.48,19.76-46.94,32.59-63.28,40.72
		c-21.84,10.86-38.51,18.96-62.2,20.78c-15.38,1.18-43.62,3.36-59.46-14.4c-9.85-11.05-10.27-24.63-10.79-41.21
		c-1.41-45.09,19.29-79,26.49-90.26c9.27-14.5,18.91-24.86,25.27-31.09c9.34,10.08,18.69,20.17,28.03,30.25
		c0.78,3.86,1.69,9.8,1.64,17.03c-0.23,32.93-20.21,52.33-15.7,56.9c5.19,5.26,30.25-21.84,67.21-30.41
		C826.82,307.4,851.24,312.69,869,318.95z"/>
	<path class="st9" d="M793.49,318.95c9.27-4.72,20.99-9.11,34.88-10.95c52.36-6.91,92.61,28.29,101.01,35.97L793.49,318.95z"/>
	<path class="st8" d="M853.07,231.49c-1.11-1.12-2.07-1.9-2.96-2.52c-3.32-2.3-5.98-3.61-6.51-3.86
		c-7.13-3.37-8.62-28.71-13.37-29.36c-3.61-0.49-3.92,13.96-16.19,24.96c-6.65,5.96-10.63,5.37-16.22,12.63
		c-1.49,1.94-9.15,11.89-5.44,18.16c1.99,3.37,7.14,5.46,10.54,4.15c2.03-0.79,1.93-2.21,3.64-3.17c4.72-2.63,9.96,5.76,18.25,6.44
		c10.26,0.85,15.63-10.92,22.58-8.17c4.59,1.82,4.98,7.95,8.34,7.89c2.51-0.04,4.78-3.94,5.54-7.15
		C863.47,242.17,854.3,232.72,853.07,231.49z"/>
	<path class="st10" d="M920.03,229.17c0.47,0.58-8.52,14.55-25.25,27.95c-8.5,6.81-10.36,6.56-11.67,10.07
		c-5.14,13.8,19.2,29.48,13.52,43.2c-0.39,0.95-2.48,5.63-6.59,6.59c-4.39,1.03-8.61-2.74-9.23-3.3
		c-12.01-10.73,1.29-40.87-5.61-44.19c-1.44-0.7-23.37,9.85-37.46,11.3c-42.29,4.35-90.24-41.58-89.33-43
		c1.4-2.17,36.16,34.27,57,32.32c1.81-0.17,5.59-0.79,11.07-0.36c11.32,0.89,13.71,5,21.25,4.01c5.59-0.74,5.52-3.16,13.9-5.93
		c7.94-2.63,14.26-2.52,16.59-2.63C889.08,264.22,918.98,227.87,920.03,229.17z"/>
	<path class="st11" d="M920.03,229.17c0.31,0.39-7.86,12.83-25.25,27.95c-15.03,13.07-34.29,29.82-54.85,33.37
		c-45.98,7.96-90.54-53.83-91.53-52.69c-0.55,0.63,16.49,15.87,34.29,25.7c0,0,14.17,7.83,22.72,6.62c0.41-0.06,3.02-0.45,6.59-0.5
		c1.34-0.02,2.83,0.01,4.48,0.14c11.32,0.89,13.71,5,21.25,4.01c5.59-0.74,5.52-3.16,13.9-5.93c7.94-2.63,14.26-2.52,16.59-2.63
		C889.08,264.22,918.98,227.87,920.03,229.17z"/>
	<g class="st2">
		<path class="st12" d="M748.41,237.8c-0.17,0.19,1.34,1.78,4.02,4.16C749.99,239.21,748.58,237.61,748.41,237.8z"/>
		<path class="st12" d="M784.61,272.5c-5.01-4.66-9.78-10.11-14-16.5c-7.59-5.17-14.19-10.49-18.18-14.04
			C758.22,248.49,769.85,261.49,784.61,272.5z"/>
	</g>
	<path class="st13" d="M920.03,229.17c0.47,0.58-8.52,14.55-25.25,27.95c-8.5,6.81-42.95,22.23-57.05,23.68
		c-42.29,4.35-90.24-41.58-89.33-43c1.4-2.17,36.16,34.27,57,32.32c1.81-0.17,5.59-0.79,11.07-0.36c11.32,0.89,13.71,5,21.25,4.01
		c5.59-0.74,5.52-3.16,13.9-5.93c7.94-2.63,14.26-2.52,16.59-2.63C889.08,264.22,918.98,227.87,920.03,229.17z"/>
	<path class="st14" d="M772.22,258.34c-1.14-1.61-2.24-3.27-3.3-5c0,0,0,0,0,0c-11.13-8.41-19.82-16.61-20.5-15.54
		C748,238.44,757.63,248.23,772.22,258.34z"/>
	<path class="st15" d="M849.83,191.77c0,0,17.24-12.77,57.4,18.7L849.83,191.77z"/>
	<path class="st9" d="M849.83,191.77c11.6,26.7,31.84,39.24,44.32,34.82c1.8-0.64,8.62-3.46,13.08-16.12
		C907.23,210.47,869.32,198.75,849.83,191.77z"/>
	<path class="st16" d="M849.83,191.77c0,0,17.18,37.76,57.4,18.7C907.23,210.47,869.32,198.75,849.83,191.77z"/>
	<path class="st15" d="M849.83,191.77c4.06,4.44,15.4,15.6,33.62,19.06c9.93,1.89,18.37,0.81,23.77-0.36
		C907.23,210.47,869.32,198.75,849.83,191.77z"/>
	<path class="st17" d="M849.83,191.77c0,0,15.6-7.91,57.4,18.7C907.23,210.47,870.1,214.31,849.83,191.77z"/>
	<path class="st18" d="M854.66,196.4c6.62,5.52,14.34,8.96,21.81,11.07c1.61-2.1,2.58-4.72,2.58-7.57c0-1.6-0.31-3.13-0.86-4.54
		c-8.86-3.37-15.4-4.49-19.95-4.66C856.57,192.22,855.31,194.17,854.66,196.4z"/>
	<path class="st19" d="M857.95,198.1c0,0.29,0.02,0.58,0.05,0.86c3.87,2.71,8.02,4.8,12.21,6.42c2.58-1.41,4.33-4.14,4.33-7.28
		c0-1.65-0.49-3.18-1.32-4.48c-4.45-1.42-8.18-2.2-11.28-2.6C859.55,192.48,857.95,195.1,857.95,198.1z"/>
	<path class="st15" d="M817.23,191.77c0,0-17.24-12.77-57.4,18.7L817.23,191.77z"/>
	<path class="st9" d="M817.23,191.77c-12.61,27.07-32.91,39.66-45.03,35.11c-1.81-0.68-8.34-3.58-12.37-16.41
		C759.83,210.47,797.74,198.75,817.23,191.77z"/>
	<path class="st16" d="M817.23,191.77c0,0-17.18,37.76-57.4,18.7C759.83,210.47,797.74,198.75,817.23,191.77z"/>
	<path class="st15" d="M817.23,191.77c-3.73,4.26-14.89,15.85-33.21,19.34c-10.24,1.95-18.88,0.63-24.18-0.64
		C759.83,210.47,797.74,198.75,817.23,191.77z"/>
	<path class="st17" d="M817.23,191.77c0,0-15.6-7.91-57.4,18.7C759.83,210.47,796.96,214.31,817.23,191.77z"/>
	<path class="st18" d="M812.4,196.4c-6.62,5.52-14.34,8.96-21.81,11.07c-1.61-2.1-2.58-4.72-2.58-7.57c0-1.6,0.31-3.13,0.86-4.54
		c8.86-3.37,15.4-4.49,19.95-4.66C810.49,192.22,811.75,194.17,812.4,196.4z"/>
	<path class="st19" d="M809.11,198.1c0,0.29-0.02,0.58-0.05,0.86c-3.87,2.71-8.02,4.8-12.21,6.42c-2.58-1.41-4.33-4.14-4.33-7.28
		c0-1.65,0.49-3.18,1.32-4.48c4.45-1.42,8.18-2.2,11.28-2.6C807.51,192.48,809.11,195.1,809.11,198.1z"/>
	<path class="st6" d="M968.61,270.87c-7.67-13.61-15.36-24.12-20.95-31.18c-10.78,10.11-21.57,20.23-32.35,30.34
		c-0.78,3.86-1.69,9.8-1.64,17.03c0.23,32.93,20.21,52.33,15.7,56.9c-5.19,5.26-30.25-21.84-67.21-30.41
		c-26.5-6.15-50.93-0.86-68.68,5.4c0,0-23.22-14.26-26.33-12.61c0,0-5.48,10.99-9.61,20.74c-10.69,1.12-19.71,1.37-23.67,7.61
		c-2.03,3.19-2.03,6.83-1.76,9.27c4.35-0.45,8.7-0.89,13.04-1.34c0,0,3.29-0.56,8.35-0.84c0.95,0.02,19.84,0.38,33.24,4.76
		c4.7,2.03,9.08,4.83,12.63,8.7c24.48,19.76,46.94,32.59,63.28,40.72c21.84,10.86,38.51,18.96,62.2,20.78
		c15.38,1.18,43.62,3.36,59.46-14.4c9.85-11.05,10.27-24.63,10.79-41.21C996.36,321.07,979.25,289.74,968.61,270.87z"/>
	<path class="st20" d="M753.5,341.78c0.95,0.02,19.84,0.38,33.24,4.76c4.7,2.03,9.08,4.83,12.63,8.7
		c24.48,19.76,46.94,32.59,63.28,40.72c21.84,10.86,38.51,18.96,62.2,20.78c12.88,0.99,34.78,2.67,50.86-7.24
		c0.23-0.14,0.44-0.28,0.65-0.41c0.11-0.07,0.21-0.14,0.32-0.21c-33.71,1.2-58.71-5.01-75.02-10.69
		c-61.69-21.51-86.57-66.03-136.6-63.01c-14.54,0.88-26.07,5.47-32.96,8.78c4.35-0.45,8.7-0.89,13.04-1.34
		C745.15,342.62,748.44,342.07,753.5,341.78z"/>
	<path class="st9" d="M732.11,343.96c0,0,0.24-0.16,0.65-0.46c-2.96-5.31,15.82-24.52,16.04-56.44c0.05-7.23-0.87-13.16-1.64-17.03
		C747.17,270.03,719.07,345.31,732.11,343.96z"/>
	<path class="st20" d="M737.62,416.74c23.69-1.82,40.36-9.92,62.2-20.78c11.17-5.56,25.21-13.31,40.79-23.98l0,0l-5.09-4.88
		c-15.01,12.53-56.8,43.83-114.11,42.48c-16.73-0.39-31.33-3.49-43.25-7.24C694,420.1,722.24,417.93,737.62,416.74z"/>
	<path class="st21" d="M879.05,292.53l7.9,20.39C886.95,312.92,878.9,319.02,879.05,292.53z"/>
	<path class="st22" d="M858.07,228.49c-3.85-3.86-5.88-3.79-9.47-6.38c-5.77-4.17-12.46-26.38-16.01-30.12
		c-0.14-0.32-0.33-0.5-0.56-0.53c-0.07-0.01-0.14,0.01-0.21,0.03c-0.07-0.02-0.14-0.03-0.21-0.03c-0.23,0.03-0.41,0.21-0.56,0.53
		c-3.55,3.75-10.24,25.95-16.01,30.12c-3.58,2.59-5.62,2.52-9.47,6.38c-1.22,1.23-10.4,10.68-8.19,20.01
		c0.76,3.21,3.03,7.1,5.54,7.15c3.4,0.06,3.89-6.46,8.34-7.89c6.43-2.06,10.93,9.92,20.19,10.04c9.45,0.12,14.32-12.24,20.93-10.04
		c4.47,1.49,4.94,7.95,8.34,7.89c2.51-0.04,4.78-3.94,5.54-7.15C868.47,239.17,859.3,229.72,858.07,228.49z"/>
	<path class="st23" d="M858.07,228.49c-3.85-3.86-5.88-3.79-9.47-6.38c-6.25-4.52-14.69-30.92-16.57-30.66
		c-2.52,0.35,3.2,51.1,14.8,54.22c0.86,0.23,3.02,0.54,5.54,2.08c5.23,3.19,5.79,7.93,8.34,7.89c2.51-0.04,4.78-3.94,5.54-7.15
		C868.47,239.17,859.3,229.72,858.07,228.49z"/>
	<path class="st24" d="M817.71,247.88c-3.19-6.25,0.54-12.76,5.36-26.81c2.33-6.77,5.37-16.62,7.98-29.08
		c-3.55,3.75-10.24,25.95-16.01,30.12c-3.58,2.59-5.62,2.52-9.47,6.38c-1.22,1.23-10.4,10.68-8.19,20.01
		c0.76,3.21,3.03,7.1,5.54,7.15c1.52,0.03,2.59-1.45,3.62-3.13c0.01-0.01,0.02-0.02,0.02-0.04c1.33-2.16,2.6-4.66,4.7-4.72
		c6.43-2.06,10.93,9.92,20.19,10.04C831.88,256.59,821.46,255.22,817.71,247.88z"/>
	
		<ellipse transform="matrix(0.6559 -0.7549 0.7549 0.6559 115.0277 726.4036)" class="st25" cx="854.21" cy="237.04" rx="4.69" ry="5.88"/>
	
		<ellipse transform="matrix(0.6559 -0.7549 0.7549 0.6559 115.3025 726.7166)" class="st26" cx="854.69" cy="236.9" rx="3.02" ry="4.79"/>
	<path class="st27" d="M803.19,291.52c0,0,41.39,9.26,60.13-4.68C863.32,286.84,842.74,308.51,803.19,291.52z"/>
	<path class="st28" d="M754.49,229.13c-4.03-1.86-9.6-3.84-12.19-1.51c-5.69,5.11,7.27,27.12,6.52,27.49
		c-0.86,0.41-18.52-27.12-13.05-32.28C738.01,220.71,744.25,222.81,754.49,229.13z"/>
	<path class="st5" d="M912.76,224.68c4.42-1.19,8.62-1.47,10.81,0.76c5.71,5.81-6.03,24.77-5.14,25.22
		c1.04,0.52,18.36-24.81,12.98-30.44C929.2,217.89,922.98,219.38,912.76,224.68z"/>
	<path class="st8" d="M868.66,237.42c0,0,21.59-3.89,24.17,9.57C892.83,246.99,881.23,238.58,868.66,237.42z"/>
	<path class="st8" d="M791.4,237.42c0,0-21.44-3.89-24,9.57C767.4,246.99,778.92,238.58,791.4,237.42z"/>
	<path class="st27" d="M853.93,174.49c2.72,3.5,6.71,7.64,12.36,11.03c17.53,10.49,36.67,5.07,40.93,3.75
		c-7.27-0.75-15.62-2.1-24.71-4.46C871.28,181.89,861.7,178.13,853.93,174.49z"/>
	<path class="st15" d="M907.23,189.27c-8.83-1.13-16.58-2.79-23.06-4.51c-9.84-2.61-17.36-5.5-21.26-7.09
		c-3.45-1.4-6.33-2.71-8.5-3.73c-1.26-1.62-8-10.3-8.02-10.32c0,0-0.5-0.64-0.5-0.64c0,0-0.29-0.37-0.29-0.37l-0.52,0.4l8.86,11.48
		c5.94,2.75,12.72,5.48,20.3,7.87C886.51,186.24,897.76,188.25,907.23,189.27z"/>
	<path class="st27" d="M809.71,174.49c-1.77,2.24-18.1,22.33-40.05,19.72c-3.41-0.41-7.98-1.48-13.06-4.31
		c7.16-0.12,16.87-1.02,27.89-4.25C795.22,182.5,803.69,178.16,809.71,174.49z"/>
	<path class="st19" d="M756.6,189.9c7.16-0.12,16.87-1.02,27.89-4.25c10.73-3.15,19.2-7.49,25.22-11.16
		c-0.08-0.28-0.16-0.56-0.24-0.84c-5.87,3.68-14.27,8.11-25.01,11.28c-11.18,3.3-21.01,4.09-28.1,4.13
		C756.44,189.34,756.52,189.62,756.6,189.9z"/>
	<path class="st26" d="M831.82,40.57c0,0,16.91,6.04,9.74,28.29c-0.07-3.6-0.56-8.8-2.56-14.69
		C836.93,48.05,834.03,43.5,831.82,40.57z"/>
	<path class="st9" d="M753.58,439.06c11.14,6.91,36.92,20.82,72.6,21.78c37.82,1.02,65.57-13.07,76.87-19.64
		c-5.49,5.17-32.66,29.65-74.74,29.22C785.69,469.97,758.82,444.28,753.58,439.06z"/>
	<path class="st29" d="M812.4,151.84c0,0-30.9,24.46-48.26,26.86L812.4,151.84z"/>
	<path class="st27" d="M851.45,156.58c0,0-21.27-1.76-8.9,11.3C842.56,167.88,838.44,157.58,851.45,156.58z"/>
	<path class="st5" d="M716.29,458.01c0,0-63.9,30.04,32.52,22.53c-22.12,2.6-37.94-0.9-40.03-8.14
		C708.38,471.02,707.58,466.34,716.29,458.01z"/>
	<path class="st30" d="M680.39,466.49c-32.19,11.86-58.13,24.68-56.74,35.29c3.57,27.36,186.51,23.17,186.6,21.19
		c0.09-1.83-157.85-0.56-161.52-28.84C647.52,484.82,663.35,474.73,680.39,466.49z"/>
	<path class="st31" d="M854.4,511.67c0,0,92.91,23.39,135.27,0c-17.67,2.69-37.82,4.68-60.06,5.06
		C901.14,517.21,875.79,514.93,854.4,511.67z"/>
	<path class="st6" d="M673.28,482.86c0.01,2.86,0.52,6.67,3.12,9.41c6.08,6.42,17.39,0.51,34.07,0.96
		c15.44,0.41,17.02,5.78,34.07,8.64c18.19,3.05,31.79-0.48,41.75-2.33c9.63-1.8,41.42,0.35,104.61,4.73
		c40.9,2.83,65.74,4.9,92.61-9.6c4.24-2.29,7.56-4.47,9.72-5.96C886.59,486.76,779.94,484.81,673.28,482.86z"/>
	<circle class="st17" cx="870.77" cy="195.86" r="4.84"/>
	<circle class="st17" cx="804.27" cy="194.74" r="4.84"/>
	<path class="st7" d="M830.42,37.64c-6.29,1.63-12.9,11.55-13.53,21c-0.76,11.27,7.39,15.67,7.27,25.45h7.67
		C817.19,59.49,828.9,39.98,830.42,37.64z"/>
	<path class="st32" d="M840.86,86.34c-0.53-5.05,0.75-8.8,2.18-12.56c-1.7,3.6-10.53,20.26-20.96,1.69
		c1.49,3.18,2.54,6.57,1.88,11.1C825.34,90.94,831.73,108.19,840.86,86.34z"/>
</g>
<g id="_x31_">
	
		<radialGradient id="SVGID_1_" cx="350.1731" cy="294.5786" r="282.5847" gradientTransform="matrix(1.2449 0 0 -1.2761 -185.9298 625.9176)" gradientUnits="userSpaceOnUse">
		<stop  offset="0" style="stop-color:#6B1685"/>
		<stop  offset="0.1018" style="stop-color:#6A1B86"/>
		<stop  offset="0.1946" style="stop-color:#692888"/>
		<stop  offset="0.284" style="stop-color:#65398A"/>
		<stop  offset="0.3711" style="stop-color:#604C8C"/>
		<stop  offset="0.4568" style="stop-color:#57608E"/>
		<stop  offset="0.5413" style="stop-color:#47778C"/>
		<stop  offset="0.6232" style="stop-color:#298E85"/>
		<stop  offset="0.6775" style="stop-color:#009C7C"/>
		<stop  offset="0.7325" style="stop-color:#0F9876"/>
		<stop  offset="0.8447" style="stop-color:#318763"/>
		<stop  offset="1" style="stop-color:#31613F"/>
	</radialGradient>
	
		<linearGradient id="SVGID_2_" gradientUnits="userSpaceOnUse" x1="-25" y1="310.8032" x2="525" y2="310.8032" gradientTransform="matrix(1 0 0 -1 0 560.8032)">
		<stop  offset="0" style="stop-color:#187FC4"/>
		<stop  offset="1" style="stop-color:#187FC4;stop-opacity:0"/>
	</linearGradient>
	<rect x="-24.5" y="-24.5" class="st33" width="549" height="549"/>
	<g>
		<path class="st34" d="M455.51,399.16c0.57,14.63-55.9,27.78-71.86,31.5c-43.92,10.23-67.04,8.34-133.63,10.4
			c-99.3,3.06-140.31,10.1-183.81-17.13c-21.16-13.24-21.95-21.48-21.69-24.76c2.05-25.41,90.42-37.27,106.61-39.45
			c34.47-4.63,59.67-3.85,98.88-2.44c39.62,1.42,82.97,5.27,131.56,15.39C421.45,380.97,455.07,387.97,455.51,399.16z"/>
		<path class="st35" d="M411.79,394.58c0.28,13.91-69.6,40.02-134.84,29.04c-31.04-5.22-46.56-16.4-80.19-12.95
			c-7.96,0.82-24.46,3.23-45.65-1.23c-6.88-1.45-30.41-6.4-31.12-14.86c-1-11.88,43.52-24.49,48.81-26.05
			c26.62-7.86,63.36-13.4,144.61-0.32C371.2,377.52,411.58,384.06,411.79,394.58z"/>
		<path class="st36" d="M339.17,248.26c0,6.64,1.96,51.02-20.64,91.79c-7.65,13.79-14.29,13.75-13.87,19.98
			c0.61,8.98,64.58,28.61,63.84,35.33c-0.7,6.32-59.26,3.75-121.07,2.88c-75.51-1.07-118.42,0.92-119.66-7.28
			c-1.49-9.86,57.21-34.7,57-35.49c-0.12-0.46-0.41-0.47-1.6-1.94c-2.29-2.84-6.06-7.81-9.89-14.3
			c-22.41-37.99-19.14-80.66-18.36-90.96c6.3-82.26,59.56-135.08,73.84-140.61c0.45-0.17,3.02-0.9,5.63-3.01
			c5.14-4.15,6.46-10.35,6.6-11.06c1.85-9.34-5.82-12.36-5.19-21.8c0.53-7.91,6.63-16.27,11.77-15.97
			c4.97,0.29,9.44,8.72,10.08,15.97c0.88,9.85-5.68,13.25-3.44,23.09c0.33,1.46,1.48,6.24,5.45,9.88c3.17,2.91,6.72,3.71,7.4,3.96
			C288.83,116.74,339.17,174.67,339.17,248.26z"/>
		<path class="st37" d="M212.6,119.89c-12.4,12.91-27.76,32.09-39.66,58.25c-5.36,11.78-9.08,22.92-11.7,32.87
			c18.71,13.79,56.89,39.18,86.37,40.89c-7.25-1.83-33.04-9.27-47.88-33.61C182.35,189.8,187.06,149.82,212.6,119.89z"/>
		<path class="st38" d="M258.89,194.08c3.1,3.13,5.86,5.24,7.83,6.61c1.76,1.22,2.83,1.8,4.11,3.31c1.93,2.3,2.59,4.71,3.12,6.67
			c0.79,2.95,1.21,4.57,0.34,6.15c-1.04,1.88-3.25,2.47-4.09,2.65C266.42,211.01,262.65,202.54,258.89,194.08z"/>
		<path class="st39" d="M176.17,341.22c2.07,0.55,5.18,1.24,9,1.52c14.87,1.09,26.56-5.33,39.55-12.62
			c5.74-3.22,13.3-7.94,21.61-14.57c5.82,5.09,14.06,11.16,24.88,16.14c18.68,8.6,35.78,9.69,45.82,9.52l-74.12-41.19L176.17,341.22
			z"/>
		<path class="st39" d="M309.86,230.83c0,0-14.78,36.71,10.58,55.62C320.44,286.46,353.93,237.49,309.86,230.83z"/>
		<path class="st39" d="M181.98,261.05c-0.14-2.5,0.76-3.83,1.15-4.33c2.18-2.73,7.5-3.18,12.7-0.2c0.11-0.46,1.84-7.29,6.86-8.57
			c6.26-1.6,11.77,6.94,12.38,7.89c2.29,3.56,2.87,7.11,3.03,9.14c0.29,0.88,0.57,1.77,0.86,2.65L181.98,261.05z"/>
		<path class="st36" d="M218.95,267.63c-2.91-10.63-10.45-16.48-16.09-15.4c-0.82,0.16-3.88,0.9-6.61,5.39
			c2.52,2.08,6.22,4.68,11.15,6.79C211.86,266.32,215.9,267.2,218.95,267.63z"/>
		<path class="st36" d="M218.95,267.63c0,0-33.17-20.98-37.74-4.17L218.95,267.63z"/>
		<path class="st36" d="M218.95,267.63c-9.87-1.68-17.51-3.12-22.44-4.07c-7.61-1.47-12.7-2.55-15.96,0.4
			c-2.02,1.83-2.59,4.53-2.75,6.54L218.95,267.63z"/>
		<path class="st36" d="M218.95,267.63c-10.56,0.58-18.97,0.66-24.62,0.62c-8.92-0.05-14.08-0.4-17.64,3.2
			c-3.06,3.09-3.46,7.59-3.4,10.53L218.95,267.63z"/>
		<path class="st39" d="M191.16,273.75c0,0-18.06-3.9-15.93,3.67C175.23,277.42,190.18,276.02,191.16,273.75z"/>
		<path class="st39" d="M199.14,268.26c0,0-23.67-6.32-20.22,1.27L199.14,268.26z"/>
		<path class="st39" d="M181.22,263.47c0,0-0.88-8.24,21.05,2.32L181.22,263.47z"/>
		<path class="st36" d="M275.01,267.63c-1.48,9.1-2.95,18.21-4.43,27.31c-18.42,14.87-35.32,24.52-47.61,30.63
			c-16.43,8.17-28.98,14.26-46.8,15.63c-11.57,0.89-32.82,2.53-44.73-10.84c-7.41-8.31-7.73-18.53-8.12-31
			c-1.06-33.92,14.51-59.43,19.93-67.91c6.98-10.91,14.22-18.7,19.01-23.39c7.03,7.59,14.06,15.17,21.09,22.76
			c0.58,2.91,1.27,7.37,1.23,12.81c-0.17,24.77-15.2,39.37-11.81,42.81c3.91,3.96,22.76-16.43,50.56-22.88
			C243.28,258.95,261.66,262.93,275.01,267.63z"/>
		<path class="st39" d="M218.2,267.63c6.97-3.55,15.79-6.86,26.24-8.24c39.39-5.2,69.67,21.28,76,27.06L218.2,267.63z"/>
		<path class="st38" d="M263.03,201.84c-0.84-0.84-1.56-1.43-2.23-1.9c-2.5-1.73-4.5-2.72-4.89-2.9
			c-5.36-2.54-6.48-21.6-10.06-22.09c-2.72-0.37-2.95,10.5-12.18,18.78c-5,4.48-8,4.04-12.2,9.5c-1.12,1.46-6.88,8.94-4.09,13.66
			c1.5,2.53,5.37,4.11,7.93,3.12c1.53-0.59,1.45-1.67,2.74-2.38c3.55-1.98,7.5,4.33,13.73,4.85c7.72,0.64,11.76-8.22,16.99-6.14
			c3.46,1.37,3.75,5.98,6.28,5.94c1.88-0.03,3.6-2.96,4.17-5.38C270.85,209.87,263.95,202.76,263.03,201.84z"/>
		<path class="st40" d="M313.41,200.09c0.35,0.44-6.41,10.94-18.99,21.03c-6.39,5.12-7.8,4.93-8.78,7.58
			c-3.87,10.38,14.45,22.18,10.17,32.5c-0.3,0.71-1.87,4.23-4.96,4.96c-3.3,0.78-6.48-2.06-6.95-2.48
			c-9.03-8.07,0.97-30.75-4.22-33.24c-1.09-0.52-17.58,7.41-28.19,8.5c-31.82,3.27-67.89-31.28-67.21-32.35
			c1.05-1.64,27.21,25.79,42.89,24.32c1.36-0.13,4.21-0.6,8.33-0.27c8.52,0.67,10.31,3.76,15.99,3.02
			c4.21-0.55,4.15-2.38,10.46-4.46c5.97-1.98,10.73-1.89,12.48-1.98C290.12,226.46,312.62,199.11,313.41,200.09z"/>
		<path class="st41" d="M313.41,200.09c0.23,0.29-5.91,9.65-18.99,21.03c-11.31,9.84-25.8,22.43-41.26,25.11
			c-34.59,5.99-68.12-40.5-68.86-39.65c-0.41,0.47,12.41,11.94,25.8,19.33c0,0,10.66,5.89,17.09,4.98c0.31-0.04,2.27-0.34,4.95-0.38
			c1-0.02,2.13,0.01,3.37,0.11c8.52,0.67,10.31,3.76,15.99,3.02c4.21-0.55,4.15-2.38,10.46-4.46c5.97-1.98,10.73-1.89,12.48-1.98
			C290.12,226.46,312.62,199.11,313.41,200.09z"/>
		<g>
			<path class="st12" d="M184.29,206.58c-0.13,0.15,1.01,1.34,3.02,3.13C185.47,207.64,184.41,206.44,184.29,206.58z"/>
			<path class="st12" d="M211.52,232.69c-3.77-3.5-7.36-7.61-10.53-12.41c-5.71-3.89-10.68-7.89-13.68-10.56
				C191.67,214.62,200.42,224.41,211.52,232.69z"/>
		</g>
		<path class="st42" d="M313.41,200.09c0.35,0.44-6.41,10.94-18.99,21.03c-6.39,5.12-32.32,16.73-42.92,17.82
			c-31.82,3.27-67.89-31.28-67.21-32.35c1.05-1.64,27.21,25.79,42.89,24.32c1.36-0.13,4.21-0.6,8.33-0.27
			c8.52,0.67,10.31,3.76,15.99,3.02c4.21-0.55,4.15-2.38,10.46-4.46c5.97-1.98,10.73-1.89,12.48-1.98
			C290.12,226.46,312.62,199.11,313.41,200.09z"/>
		<path class="st43" d="M202.2,222.04c-0.85-1.21-1.69-2.46-2.48-3.76c0,0,0,0,0,0c-8.37-6.33-14.91-12.49-15.43-11.69
			C183.98,207.07,191.22,214.43,202.2,222.04z"/>
		<path class="st44" d="M260.6,171.95c0,0,12.97-9.61,43.18,14.07L260.6,171.95z"/>
		<path class="st39" d="M260.6,171.95c8.73,20.09,23.95,29.52,33.34,26.2c1.35-0.48,6.48-2.6,9.84-12.13
			C303.78,186.02,275.26,177.2,260.6,171.95z"/>
		<path class="st45" d="M260.6,171.95c0,0,12.93,28.41,43.18,14.07C303.78,186.02,275.26,177.2,260.6,171.95z"/>
		<path class="st44" d="M260.6,171.95c3.06,3.34,11.58,11.74,25.3,14.34c7.47,1.42,13.82,0.61,17.88-0.27
			C303.78,186.02,275.26,177.2,260.6,171.95z"/>
		<path class="st46" d="M260.6,171.95c0,0,11.73-5.95,43.18,14.07C303.78,186.02,275.84,188.91,260.6,171.95z"/>
		<path class="st47" d="M264.23,175.43c4.98,4.15,10.79,6.74,16.41,8.33c1.21-1.58,1.94-3.55,1.94-5.7c0-1.21-0.24-2.35-0.65-3.41
			c-6.67-2.54-11.59-3.37-15.01-3.51C265.66,172.29,264.72,173.76,264.23,175.43z"/>
		<path class="st48" d="M266.7,176.71c0,0.22,0.01,0.44,0.03,0.65c2.91,2.04,6.04,3.61,9.18,4.83c1.94-1.06,3.26-3.11,3.26-5.48
			c0-1.24-0.37-2.4-0.99-3.37c-3.35-1.06-6.16-1.66-8.48-1.95C267.91,172.48,266.7,174.45,266.7,176.71z"/>
		<path class="st44" d="M236.07,171.95c0,0-12.97-9.61-43.18,14.07L236.07,171.95z"/>
		<path class="st39" d="M236.07,171.95c-9.49,20.36-24.76,29.84-33.88,26.42c-1.36-0.51-6.27-2.69-9.31-12.35
			C192.88,186.02,221.4,177.2,236.07,171.95z"/>
		<path class="st45" d="M236.07,171.95c0,0-12.93,28.41-43.18,14.07C192.88,186.02,221.4,177.2,236.07,171.95z"/>
		<path class="st44" d="M236.07,171.95c-2.81,3.21-11.2,11.93-24.99,14.55c-7.71,1.47-14.21,0.48-18.19-0.48
			C192.88,186.02,221.4,177.2,236.07,171.95z"/>
		<path class="st46" d="M236.07,171.95c0,0-11.73-5.95-43.18,14.07C192.88,186.02,220.82,188.91,236.07,171.95z"/>
		<path class="st47" d="M232.43,175.43c-4.98,4.15-10.79,6.74-16.41,8.33c-1.21-1.58-1.94-3.55-1.94-5.7c0-1.21,0.24-2.35,0.65-3.41
			c6.67-2.54,11.59-3.37,15.01-3.51C231,172.29,231.94,173.76,232.43,175.43z"/>
		<path class="st48" d="M229.96,176.71c0,0.22-0.01,0.44-0.03,0.65c-2.91,2.04-6.04,3.61-9.18,4.83c-1.94-1.06-3.26-3.11-3.26-5.48
			c0-1.24,0.37-2.4,0.99-3.37c3.35-1.06,6.16-1.66,8.48-1.95C228.75,172.48,229.96,174.45,229.96,176.71z"/>
		<path class="st36" d="M349.96,231.46c-5.77-10.24-11.55-18.15-15.76-23.46c-8.11,7.61-16.23,15.22-24.34,22.83
			c-0.58,2.91-1.27,7.37-1.23,12.81c0.17,24.77,15.2,39.37,11.81,42.81c-3.91,3.96-22.76-16.43-50.56-22.88
			c-19.94-4.62-38.32-0.65-51.67,4.06c0,0-17.47-10.73-19.81-9.49c0,0-4.13,8.27-7.23,15.61c-8.05,0.84-14.83,1.03-17.81,5.73
			c-1.52,2.4-1.53,5.14-1.32,6.98c3.27-0.34,6.54-0.67,9.81-1.01c0,0,2.47-0.42,6.28-0.63c0.71,0.01,14.92,0.28,25.01,3.58
			c3.54,1.53,6.83,3.64,9.5,6.55c18.42,14.87,35.32,24.52,47.61,30.63c16.43,8.17,28.98,14.26,46.8,15.63
			c11.57,0.89,32.82,2.53,44.73-10.84c7.41-8.31,7.73-18.53,8.12-31C370.84,269.23,357.96,245.66,349.96,231.46z"/>
		<path class="st49" d="M188.12,284.82c0.71,0.01,14.92,0.28,25.01,3.58c3.54,1.53,6.83,3.64,9.5,6.55
			c18.42,14.87,35.32,24.52,47.61,30.63c16.43,8.17,28.98,14.26,46.8,15.63c9.69,0.75,26.17,2.01,38.26-5.45
			c0.17-0.11,0.33-0.21,0.49-0.31c0.08-0.05,0.16-0.11,0.24-0.16c-25.37,0.91-44.17-3.77-56.44-8.04
			c-46.41-16.18-65.13-49.68-102.77-47.4c-10.94,0.66-19.61,4.11-24.8,6.6c3.27-0.34,6.54-0.67,9.81-1.01
			C181.84,285.45,184.31,285.03,188.12,284.82z"/>
		<path class="st39" d="M172.03,286.46c0,0,0.18-0.12,0.49-0.35c-2.23-4,11.91-18.45,12.07-42.47c0.04-5.44-0.65-9.9-1.23-12.81
			C183.35,230.83,162.21,287.47,172.03,286.46z"/>
		<path class="st49" d="M176.17,341.22c17.82-1.37,30.37-7.46,46.8-15.63c8.41-4.18,18.96-10.02,30.69-18.04l0,0l-3.83-3.67
			c-11.29,9.42-42.73,32.98-85.86,31.96c-12.59-0.3-23.57-2.62-32.54-5.45C143.35,343.74,164.6,342.11,176.17,341.22z"/>
		<path class="st50" d="M282.58,247.76l5.94,15.34C288.52,263.1,282.46,267.69,282.58,247.76z"/>
		<path class="st51" d="M266.79,199.58c-2.89-2.91-4.43-2.85-7.12-4.8c-4.34-3.14-9.37-19.85-12.05-22.66
			c-0.11-0.24-0.25-0.38-0.42-0.4c-0.05-0.01-0.11,0.01-0.16,0.02c-0.05-0.01-0.11-0.03-0.16-0.02c-0.17,0.02-0.31,0.16-0.42,0.4
			c-2.67,2.82-7.71,19.53-12.05,22.66c-2.7,1.95-4.23,1.89-7.12,4.8c-0.92,0.93-7.82,8.04-6.16,15.05c0.57,2.42,2.28,5.35,4.17,5.38
			c2.56,0.04,2.93-4.86,6.28-5.94c4.84-1.55,8.22,7.47,15.19,7.56c7.11,0.09,10.77-9.21,15.75-7.56c3.36,1.12,3.72,5.98,6.28,5.94
			c1.88-0.03,3.6-2.96,4.17-5.38C274.62,207.62,267.71,200.5,266.79,199.58z"/>
		<path class="st52" d="M266.79,199.58c-2.89-2.91-4.43-2.85-7.12-4.8c-4.7-3.4-11.05-23.26-12.47-23.07
			c-1.9,0.26,2.41,38.45,11.14,40.79c0.65,0.17,2.27,0.41,4.17,1.56c3.93,2.4,4.35,5.97,6.28,5.94c1.88-0.03,3.6-2.96,4.17-5.38
			C274.62,207.62,267.71,200.5,266.79,199.58z"/>
		<path class="st53" d="M236.43,214.17c-2.4-4.71,0.4-9.6,4.04-20.17c1.75-5.09,4.04-12.51,6-21.88
			c-2.67,2.82-7.71,19.53-12.05,22.66c-2.7,1.95-4.23,1.89-7.12,4.8c-0.92,0.93-7.82,8.04-6.16,15.05c0.57,2.42,2.28,5.35,4.17,5.38
			c1.14,0.02,1.94-1.09,2.72-2.35c0.01-0.01,0.01-0.02,0.02-0.03c1-1.63,1.95-3.5,3.54-3.55c4.84-1.55,8.22,7.47,15.19,7.56
			C247.09,220.72,239.25,219.69,236.43,214.17z"/>
		
			<ellipse transform="matrix(0.6559 -0.7549 0.7549 0.6559 -64.7001 270.1028)" class="st54" cx="263.89" cy="206.01" rx="3.53" ry="4.43"/>
		
			<ellipse transform="matrix(0.6559 -0.7549 0.7549 0.6559 -64.4933 270.3383)" class="st55" cx="264.25" cy="205.9" rx="2.27" ry="3.6"/>
		<path class="st56" d="M225.5,247c0,0,31.14,6.97,45.24-3.52C270.74,243.48,255.26,259.78,225.5,247z"/>
		<path class="st57" d="M188.86,200.06c-3.03-1.4-7.22-2.89-9.17-1.14c-4.28,3.84,5.47,20.41,4.9,20.68
			c-0.64,0.31-13.94-20.4-9.82-24.29C176.46,193.72,181.16,195.3,188.86,200.06z"/>
		<path class="st35" d="M307.94,196.71c3.32-0.89,6.49-1.11,8.14,0.57c4.3,4.37-4.53,18.64-3.87,18.97
			c0.78,0.39,13.81-18.67,9.77-22.91C320.31,191.6,315.63,192.72,307.94,196.71z"/>
		<path class="st38" d="M274.76,206.3c0,0,16.25-2.93,18.18,7.2C292.95,213.49,284.22,207.17,274.76,206.3z"/>
		<path class="st38" d="M216.63,206.3c0,0-16.13-2.93-18.06,7.2C198.57,213.49,207.25,207.17,216.63,206.3z"/>
		<path class="st56" d="M263.68,158.95c2.04,2.63,5.05,5.75,9.3,8.3c13.19,7.89,27.59,3.81,30.8,2.82
			c-5.47-0.56-11.75-1.58-18.59-3.36C276.73,164.51,269.52,161.69,263.68,158.95z"/>
		<path class="st44" d="M303.78,170.07c-6.65-0.85-12.48-2.1-17.35-3.39c-7.4-1.96-13.06-4.14-16-5.33
			c-2.59-1.06-4.76-2.04-6.4-2.81c-0.95-1.22-6.02-7.75-6.03-7.77c0,0-0.37-0.48-0.38-0.49c0,0-0.22-0.28-0.22-0.28l-0.39,0.3
			l6.67,8.64c4.47,2.07,9.57,4.12,15.27,5.92C288.19,167.79,296.65,169.3,303.78,170.07z"/>
		<path class="st56" d="M230.41,158.95c-1.33,1.69-13.62,16.8-30.14,14.83c-2.57-0.31-6-1.11-9.83-3.24
			c5.38-0.09,12.69-0.76,20.98-3.2C219.51,164.98,225.88,161.71,230.41,158.95z"/>
		<path class="st48" d="M190.45,170.54c5.38-0.09,12.69-0.76,20.98-3.2c8.07-2.37,14.45-5.63,18.98-8.39
			c-0.06-0.21-0.12-0.42-0.18-0.63c-4.42,2.77-10.74,6.1-18.82,8.49c-8.41,2.48-15.81,3.08-21.14,3.1
			C190.33,170.12,190.39,170.33,190.45,170.54z"/>
		<path class="st55" d="M247.04,58.19c0,0,12.72,4.54,7.33,21.29c-0.05-2.71-0.42-6.62-1.92-11.05
			C250.89,63.82,248.7,60.4,247.04,58.19z"/>
		<path class="st39" d="M188.18,358c8.38,5.2,27.78,15.66,54.62,16.39c28.45,0.77,49.33-9.84,57.84-14.78
			c-4.13,3.89-24.57,22.31-56.23,21.98C212.33,381.26,192.12,361.93,188.18,358z"/>
		<path class="st58" d="M232.43,141.91c0,0-23.25,18.4-36.31,20.21L232.43,141.91z"/>
		<path class="st56" d="M261.82,145.47c0,0-16-1.32-6.69,8.5C255.12,153.97,252.03,146.23,261.82,145.47z"/>
		<path class="st35" d="M160.12,372.27c0,0-48.08,22.6,24.47,16.95c-16.64,1.95-28.55-0.68-30.12-6.12
			C154.17,382.05,153.57,378.53,160.12,372.27z"/>
		<path class="st59" d="M133.11,378.64c-24.22,8.92-43.74,18.56-42.69,26.55c2.69,20.58,140.32,17.43,140.39,15.94
			c0.06-1.38-118.76-0.42-121.52-21.7C108.38,392.43,120.29,384.84,133.11,378.64z"/>
		<path class="st60" d="M264.03,412.64c0,0,69.9,17.6,101.77,0c-13.29,2.02-28.46,3.52-45.19,3.81
			C299.2,416.8,280.13,415.09,264.03,412.64z"/>
		<path class="st36" d="M127.77,390.96c0.01,2.15,0.39,5.02,2.35,7.08c4.58,4.83,13.09,0.38,25.63,0.72
			c11.62,0.31,12.81,4.35,25.63,6.5c13.69,2.3,23.92-0.36,31.41-1.76c7.25-1.35,31.16,0.27,78.71,3.56
			c30.77,2.13,49.46,3.69,69.68-7.22c3.19-1.72,5.69-3.36,7.31-4.48C288.25,393.89,208.01,392.43,127.77,390.96z"/>
		<circle class="st46" cx="276.35" cy="175.03" r="3.64"/>
		<circle class="st46" cx="226.32" cy="174.18" r="3.64"/>
		<path class="st37" d="M245.99,55.99c-4.73,1.22-9.7,8.69-10.18,15.8c-0.57,8.48,5.56,11.79,5.47,19.15h5.77
			C236.04,72.43,244.85,57.75,245.99,55.99z"/>
		<path class="st61" d="M253.84,92.63c-0.4-3.8,0.57-6.62,1.64-9.45c-1.28,2.71-7.92,15.25-15.77,1.27
			c1.12,2.39,1.91,4.95,1.41,8.35C242.17,96.09,246.98,109.06,253.84,92.63z"/>
	</g>
</g>
</svg>
