<?xml version="1.0" encoding="utf-8"?>
<!-- Generator: Adobe Illustrator 24.1.2, SVG Export Plug-In . SVG Version: 6.00 Build 0)  -->
<svg version="1.1" id="レイヤー_1" xmlns="http://www.w3.org/2000/svg" xmlns:xlink="http://www.w3.org/1999/xlink" x="0px"
	 y="0px" viewBox="0 0 500 500" style="enable-background:new 0 0 500 500;" xml:space="preserve">
<style type="text/css">
	.st0{fill:#F1DBCC;}
	.st1{fill:#D8B698;}
	.st2{fill:#C2A189;}
	.st3{fill:#B49680;}
	.st4{fill:#731730;}
	.st5{fill:#65132D;}
	.st6{fill:#A70128;}
	.st7{fill:#5A0D26;}
	.st8{fill:#323333;}
	.st9{fill:#853156;}
	.st10{fill:#F1F8FD;}
	.st11{fill:#EAF5FC;}
	.st12{fill:#FBFDFF;}
	.st13{fill:#FFFFFF;}
	.st14{fill:#D7EEFB;}
	.st15{fill:#DEF1FB;}
	.st16{fill:#E6C6AF;}
	.st17{fill:#C8A68C;}
	.st18{fill:#323333;stroke:#231815;stroke-width:0.25;stroke-miterlimit:10;}
	.st19{fill:#F2F2F7;}
	.st20{fill:#F4F3F7;}
	.st21{fill:#EEF0F6;}
	.st22{fill:#E2E8F4;}
	.st23{fill:#F8F5F7;}
	.st24{fill:#EFF1F7;}
	.st25{fill:#EBEBF4;}
	.st26{fill:#F0CFBC;}
	.st27{fill:#F2CBC1;}
	.st28{fill:#F1D7D1;}
	.st29{fill:#EDC9C2;}
	.st30{fill:#F2E1DE;}
	.st31{fill:#5F1B32;}
</style>
<g id="レイヤー_4">
	<g>
		<g>
			<path class="st0" d="M245.8,173.7c-23.3,7.1-37,30-30.6,51.1s30.6,32.5,53.9,25.4s37-30,30.6-51.1S269.1,166.6,245.8,173.7z
				 M263.6,244.2c-19.1,5.8-38.8-3.5-44.1-20.7c-5.3-17.3,5.9-36,25-41.8s38.8,3.5,44.1,20.7C293.9,219.7,282.7,238.4,263.6,244.2z"
				/>
			<g>
				<path class="st1" d="M287.1,224L287.1,224L287.1,224L287.1,224z"/>
				<path class="st1" d="M262.8,175.3c-3.9,1-0.7,5.2-0.7,5.2l0,0c12.4,2,22.8,10.1,26.5,22c1.5,4.9,1.7,10,0.7,14.9
					C298.9,180.8,262.8,175.3,262.8,175.3z"/>
			</g>
		</g>
		<g>
			<path class="st2" d="M157.3,200.7c-23.3,7.1-37,30-30.6,51.1s30.6,32.5,53.9,25.4s37-30,30.6-51.1S180.7,193.6,157.3,200.7z
				 M181.9,269.1c-19.1,5.8-38.8-3.5-44.1-20.7c-5.3-17.3,5.9-36,25-41.8s38.8,3.5,44.1,20.7S201,263.3,181.9,269.1z"/>
			<path class="st3" d="M125.4,237.1c-0.5,4.9-0.1,9.9,1.3,14.8c4.1,13.5,15.4,23,29.2,26.2C155.9,278.1,129.8,260.7,125.4,237.1z"
				/>
		</g>
		<g>
			<path class="st4" d="M366.5,197.3c5.7,1.5,5.7,10.7,11.4,37.2c10.6,49.9,17.9,52.6,17,77.3c-0.8,22-7.3,38.4-10.8,46.9
				c-7.3,18-15.2,37.4-34,49.2c-12.2,7.7-16.9,4.6-40.6,16c-14.6,7-22.2,12.7-28.5,16.4c-28.6,17-79.1,22.8-113.6,0.8
				c-8.1-5.2-20-22.7-43.7-57.8c-29.5-43.6-31.2-52.9-27.8-57.4c6.4-8.6,25.4,7.4,46.9-1.1c30.4-12.1,28.6-58.7,50.4-61.2
				c15.1-1.7,22.5,19.8,36.7,16.6c16.1-3.6,12.4-32.8,31.8-41.9c18.4-8.6,31.6,12.9,54.8,7.1C346.5,237.9,354.5,194.1,366.5,197.3z"
				/>
			<path class="st5" d="M229.5,280.3c-13.9,2.6-21.3-18.4-36.2-16.7c-21.8,2.4-20.1,49-50.4,61.2c-21.5,8.6-40.5-7.5-46.9,1.1
				c-3.4,4.6-1.7,13.8,27.8,57.4c23.7,35.1,35.6,52.7,43.7,57.8c33.6,21.4,82.4,16.5,111.3,0.5L229.5,280.3z"/>
			<path class="st6" d="M345.6,363.8c6-6.1,14.9-16.6,21.4-32c5.8-13.8,7.5-26.2,7.9-34.4C374.9,297.4,394.5,338.8,345.6,363.8z"/>
			<path class="st7" d="M119.5,326.5c-11-1.9-19.6-5.8-23.5-0.6c-3.4,4.6-1.7,13.8,27.8,57.4c23.7,35.1,35.6,52.7,43.7,57.8
				c28.8,18.4,68.9,17.4,97.9,6.6c2.7-1.1,5.5-2.3,8.4-3.5c-11.6-19.2-31.6-47-63.8-72.2C177.9,347,145.1,333.7,119.5,326.5z"/>
			<path class="st8" d="M349.4,257.9c16.1,5.2,23.5,46,9.5,75.6c-3.8,8.1-8.2,12.9-16.9,22.5c-29.9,33-62.1,46-69,48.6
				c-13.8,5.3-26.8,10.4-44.5,9.8c-19.5-0.6-33.4-5.4-36.8-6.8c-7-2.9-12.8-5.2-18.6-10.4c-19.8-17.5-21.9-50.6-21.9-50.6l0,0
				c0,0,25.5-5.3,27.8-5.8c13.9-2.9,36.7-8.6,76.6-20.9c7.7-4,22.2-14.8,51.1-36.3C337.5,260.9,342.6,255.7,349.4,257.9z"/>
			<path class="st9" d="M257.5,329.4c-46,20.2-76.2,52.8-67.5,72.8c1.1,2.6,2.9,4.8,5.1,6.7c5.9,2,17.9,5.1,33.5,5.6
				c17.7,0.5,30.7-4.5,44.5-9.8c6.9-2.6,39.1-15.6,69-48.6c8.1-9,12.5-13.8,16.1-20.9c-0.1-2.2-0.6-4.3-1.5-6.2
				C348,308.9,303.5,309.1,257.5,329.4z"/>
			<path class="st10" d="M173.6,342L173.6,342c-1.8,4.6,8.1,21.2,8.1,21.2c7.2,9.6,14.8-2,14.8-2c11.6,10.2,22.9-0.1,22.9-0.1
				l-10.9-27.4c-12.8,3.4-22.2,5.6-29.3,7.1C178.6,341,176.4,341.4,173.6,342z"/>
			<path class="st11" d="M154.5,364.2c0.6,1.3,2.5,4.9,6.4,6.2c5,1.6,9.9-1.8,12.1-3.3c1.4-1,3.6-4.9,3.6-5.5
				c0.1-1.4-0.5-6.4-3.1-19.5c-8.2,1.7-22.2,4.6-22.2,4.6l2.9,16.7C154.4,363.6,154.5,363.9,154.5,364.2z"/>
			<path class="st11" d="M179.9,384.4c-6.4-8-16.2,1.3-16.2,1.3c2.6,4.2,5.8,8.1,9.6,11.5c5.9,5.2,11.6,7.5,18.6,10.4l1.3-6.7
				C202.6,383.2,179.9,384.4,179.9,384.4z"/>
			<path class="st10" d="M212.8,389.8c-3.2-10.5-12.6-3.4-12.6-3.4c-6.4-1.1-8.4,21.3-8.4,21.3c3.4,1.4,17.3,6.2,36.8,6.8l0.1-18
				C228.8,378.3,212.8,389.8,212.8,389.8z"/>
			<path class="st12" d="M250.1,321.7L250.1,321.7c-16.9,5.1-30.5,9.1-41.6,12l10.9,27.4c0,0,2,17.4,18.2,2.9
				c0,0,20.6,3.8,20.5-14.2C258,349.8,257,334.1,250.1,321.7z"/>
			<g>
				<path class="st13" d="M250.3,321.6c1.1,2.1,4,8.3,11.3,24.4c0,0,5.2,18.1,15.5-2c0,0,27.4,8.1,28.9-9.4c0,0-4-21.7-12.5-41l0,0
					c-20.1,15-31.2,23-37.7,26.3C253.9,320.5,252.1,321.1,250.3,321.6z"/>
				<path class="st13" d="M250.1,321.7L250.1,321.7L250.1,321.7z"/>
			</g>
			<path class="st13" d="M293.5,293.6L293.5,293.6l9.3,26.6c0,0,15.2,2.2,17.3-14.8c0,0,22.9-2.4,19.1-18.4l-13.5-17.5
				c-4.9,3.7-11,8.3-18.7,14C302,287.3,297.5,290.6,293.5,293.6z"/>
			<path class="st13" d="M325.6,269.6l13.5,17.5c0,0,17.7-4.1,14-16.6l-3.7-12.5l-3.8-0.4C341.6,258,336.5,261.5,325.6,269.6z"/>
			<path class="st12" d="M248.1,387.5c-16.4-13.8-18.2,1.9-18.2,1.9l-1.2,25c17.7,0.5,30.7-4.5,44.5-9.8l-6.7-14.8
				C257.9,365.7,248.1,387.5,248.1,387.5z"/>
			<path class="st13" d="M300.5,362.1c-9-10.6-23.3,3.2-23.3,3.2c-16.9,2.5-13.5,18.2-13.5,18.2l9.5,21c4.4-1.7,19.4-7.7,37.4-20.6
				L300.5,362.1z"/>
			<path class="st13" d="M313.3,351.1c-21.9-5.6-2.8,32.7-2.7,32.9c10-7.1,20.9-16.3,31.5-28l-13.8-8.2
				C316.5,339.6,313.3,351.1,313.3,351.1z"/>
			<path class="st13" d="M359,333.5c2.1-4.5,3.7-9.2,4.9-14L356,314c-9.2-10.6-20.5,13.9-20.5,13.9c-14.9,3.8,6.6,28.1,6.6,28.1
				C350.8,346.4,355.2,341.6,359,333.5z"/>
			<path class="st10" d="M231.1,385.7c-0.1,0.1-0.1,0.2-0.1,0.3c-0.6,1.2-0.9,2.4-1.1,3.5l-1.2,25c6.1,0.2,11.7-0.3,16.9-1.2
				C240.7,404,235.9,394.8,231.1,385.7z"/>
			<path class="st11" d="M204.2,384.4c-2.3,0.6-4,2-4,2c-6.4-1.1-8.4,21.3-8.4,21.3c1.1,0.5,3.3,1.3,6.5,2.2L204.2,384.4z"/>
			<path class="st10" d="M220.3,330.5c-4.2,1.2-8.2,2.3-11.9,3.3l10.9,27.4c0,0,1.5,13.1,12.5,7.1L220.3,330.5z"/>
			<path class="st11" d="M186.6,352.3c-1.1-4.6-1.8-8.8-2.1-12.6c-1.9,0.4-3.6,0.8-5.2,1.1c-0.6,0.1-2.8,0.6-5.6,1.2
				c-1.8,4.6,8.1,21.2,8.1,21.2c3.4,4.6,6.9,4.4,9.7,2.8C189.6,362.1,187.9,357.5,186.6,352.3z"/>
			<path class="st14" d="M180.3,344l8.7,18.9C189,362.9,178.4,356.7,180.3,344z"/>
			<path class="st15" d="M214.7,341.8l8.7,18.9C223.4,360.7,212.8,354.5,214.7,341.8z"/>
			<path class="st14" d="M186.8,403.2l2.5-13.4C189.2,389.8,194.7,398.3,186.8,403.2z"/>
			<path class="st14" d="M169.6,361.9l-1.5-13.6C168.2,348.4,175.8,355,169.6,361.9z"/>
			<path class="st15" d="M222.1,409.4l1.5-17.1C223.6,392.3,229.8,401.5,222.1,409.4z"/>
			<path class="st10" d="M265.8,375.7c3.8,8.4,7.6,16.8,11.4,25.2l-4.1,1.9l0,0l0,0c-0.1-0.2-3.5-9.4-7.1-17.3
				c-0.5-1-1.4-3.1-1.2-5.9C264.9,377.9,265.4,376.5,265.8,375.7z"/>
			<path class="st10" d="M305.9,355.8c3.5,7.1,7.1,14.3,10.6,21.5c-3.4,2.5-5.2,3.8-5.2,3.8l0,0c0,0-6.2-9.2-6.2-19.1
				C305.1,359.3,305.5,357.2,305.9,355.8z"/>
			<path class="st10" d="M331.1,331.1c5.2,6,10.4,12.1,15.6,18.1c-2.7,3.2-4.1,4.9-4.1,4.9l0,0c0,0-8.3-7.4-10.8-17
				C331.2,334.7,331.1,332.5,331.1,331.1z"/>
			<path class="st10" d="M258.9,321.1c2.1,2.6,7.9,10.3,7.2,20.5c-0.2,2.6-0.8,5-1.5,6.9c-7-15.3-11.6-25.1-11.6-25.1l0,0
				C253,323.4,253.2,323.3,258.9,321.1z"/>
			<path class="st10" d="M294.7,296.3c3.5,7.7,7,15.4,10.6,23.1c-1.6-1.3-3.8-3.1-5.9-5.5c-5.6-6.2-9.5-13.9-9.5-13.9l0,0
				C289.8,300.1,290,299.9,294.7,296.3z"/>
			<path class="st10" d="M332.3,266.6c2.9,6.3,5.7,12.6,8.6,18.8c-1.3-1-3-2.5-4.8-4.5c-4.6-5-7.7-11.3-7.7-11.3l0,0
				C328.4,269.7,328.5,269.5,332.3,266.6z"/>
		</g>
		<g>
			<g>
				<path class="st8" d="M224.1,285.9c-2,3.6-16.2-6.2-32.6,0.3c-6.6,2.6-9.8,6.4-11.6,5c-2.6-2,0-13.2,7.6-18.9
					c5.7-4.4,12.2-4.3,14.4-4.1C215.4,269,226,282.4,224.1,285.9z"/>
				<path class="st8" d="M238.5,281.5c3.7,1.9,10-14.1,27.2-17.9c7-1.5,11.8-0.2,12.5-2.3c1.1-3.1-7.4-10.9-16.9-11.5
					c-7.2-0.4-12.5,3.3-14.2,4.6C236.3,262.6,235,279.6,238.5,281.5z"/>
				<path class="st16" d="M289.1,226.7c-3.9-6.9-13.8-8.6-16.5-9.1c-4.5-0.8-9.8-0.5-11-0.8c-15.4-4.6-27.5-14.6-27.5-14.6
					c-21.6-17.8-23.8-31-33.7-33c-1.2-0.2-1.8-0.1-2.4,0.2c-0.5,0.2-2.6,0.9-3.2,1c-0.7,0.1-1.3,0.3-2.1,1.2
					c-7.1,7.1-1.5,19.3-9.5,46.1c0,0-4.5,15.1-14.7,27.5c-0.8,1-5.3,3.7-8.7,6.8c-2,1.9-9.3,8.8-8.6,16.7c0.4,4.6,3.6,7.6,9.9,13.8
					c7.2,7,12.4,12,16.5,10.6c6-2,1.9-14.6,10-20.9c6.9-5.5,19-3.3,26.5,1.2c5.9,3.5,5.7,11,13.2,14.1c2.1,0.9,4.1,1.7,5.5,1.3
					c1.4-0.4,2.6-2.2,3.9-4.1c4.4-6.7,0.1-12.8,3-19.1c3.7-7.9,12.5-16.4,21.3-15.8c10.2,0.8,13.9,13.5,19.9,11.8
					c4.2-1.2,5.7-8.2,7.8-18C290.4,235,291.3,230.7,289.1,226.7z"/>
				<path class="st1" d="M194.7,170.4c-0.7,0.1-1.3,0.3-2.1,1.2c-7.1,7.1-1.5,19.3-9.5,46.1c0,0-4.5,15.1-14.7,27.5
					c-0.8,1-5.3,3.7-8.7,6.8c-2,1.9-9.3,8.8-8.6,16.7c0.4,4.6,3.6,7.6,9.9,13.8c7.2,7,12.4,12,16.5,10.6c6-2,1.9-14.6,10-20.9
					c6.9-5.5,19-3.3,26.5,1.2c5.9,3.5,5.7,11,13.2,14.1c2.1,0.9,4.1,1.7,5.5,1.3L196.3,170C195.7,170.2,195,170.4,194.7,170.4z"/>
				<path class="st17" d="M176.2,291.8c0,0-20.4-22.9-14.2-39.9c-1.6,0.9-6.2,3.8-8.9,8.4c0,0,0,0,0,0.1c-0.1,0.1-0.1,0.2-0.2,0.4
					c-0.6,1.2-1.1,2.5-1.5,3.8c0,0,0,0,0,0.1c-0.1,0.3-0.1,0.7-0.2,1c-0.2,1.5-0.2,3,0.1,4.6c0.9,3.9,4,6.9,9.7,12.4
					c2.6,2.6,5,4.8,7.2,6.6C170.6,290.3,173.3,291.2,176.2,291.8z"/>
			</g>
			<g>
				<path class="st1" d="M196.4,171.7l-0.1-0.1c0,0,0.2,1,0.7,2.8C196.8,173.7,196.6,172.8,196.4,171.7z"/>
				<path class="st1" d="M234.5,218.6c-14.5,1.4-28.6-17.8-34.9-35.3c5.6,17.2,18.6,46.1,39.9,34C237.9,218,236.2,218.4,234.5,218.6
					z"/>
			</g>
			<path class="st0" d="M267.3,224.3c0,0-6,6.1-4.2,12c0,0,6,4.6,9.1,4.1c0,0,6.2-2.4,5.4-8.3C277.6,232.1,273.7,224,267.3,224.3z"
				/>
		</g>
		<g>
			<path class="st18" d="M129.4,175.1c-1.6,0.3-6.9,1.1-12.3-1.8c-4.1-2.2-6.3-5.3-7.3-6.9c-1-1.3-3.3-4.5-3.8-9.2
				c-0.6-4.9,1-8.7,1.7-10.2c0.4-0.3,1.2-0.9,1.7-0.6c0.6,0.3,0.5,1.7-0.2,3.6c-0.1,0.6-2.3,10.4,4.4,16.8c3.3,3.1,7.2,3.9,9,4.2
				c3.4,0,6.9,0,10.4,0.1L129.4,175.1z"/>
			<path class="st18" d="M133.4,154.4c-0.7-0.2-7.3-2.8-9.1-9.6c-0.9-3.6,0-6.7,0.5-8.1c0.6-1.8,2.1-5.3,5.7-8
				c1.4-1.1,2.8-1.8,3.9-2.2c0.5,0,1.5,0.1,1.7,0.6c0.2,0.6-0.7,1.7-2.4,2.7c-6.9,4.5-8.6,12.4-5.6,16.8c2.7,4,8.7,4,9.3,4
				c-0.4,1.2-0.9,2.3-1.3,3.5C135.3,154.1,134.4,154.2,133.4,154.4z"/>
			<path class="st18" d="M157,145.2c-0.6-0.4-6.1-5-5.5-12c0.3-3.8,2.2-6.4,3.1-7.5c1.1-1.5,3.7-4.3,7.9-5.8
				c1.7-0.6,3.2-0.8,4.5-0.9c0.5,0.2,1.4,0.6,1.5,1.1c0,0.6-1.2,1.3-3.1,1.8c-8,2-12.1,9-10.7,14.1c1.3,4.7,7,6.6,7.6,6.8
				c-0.8,1-1.6,1.9-2.4,2.9C158.9,145.5,158,145.4,157,145.2z"/>
			<path class="st19" d="M198.2,176.4c6.6,18.3,7.2,47.6-7.3,55.4c-16.4,8.9-46.9-10.6-57.1-35.8c-6.8-16.9-7.4-43.1,7.1-52.2
				c10.6-6.6,24.5-1.3,28.4,0.2C189.2,151.6,196.5,171.6,198.2,176.4z"/>
			<path class="st8" d="M191.9,188.1c4.5-2.4,5.4-9.9,4.4-16.5c-2.1-4.8-5.7-11.6-11.8-17.7c-0.4-0.2-0.7-0.3-1.1-0.4
				c-1.5-0.6-7.1-2.6-11.4,0c-5.8,3.6-5.7,14-3,20.6C173.1,184,185.3,191.6,191.9,188.1z"/>
			<path class="st20" d="M192.1,184.3c3.7-2,4.6-8,3.9-13.5c-2.1-4.6-5.6-11-11.2-16.6c0,0,0,0-0.1,0c-1.3-0.5-6.2-2.3-9.8,0
				c-5,3.1-4.9,12.2-2.5,17.9C175.8,180.7,186.4,187.4,192.1,184.3z"/>
			<path class="st8" d="M192.6,179.8c2.6-1.5,3-6.6,2.3-11.1c-2-4.1-5-9.1-9.4-13.7c-1.5-0.6-4.1-1.3-6.1,0.1
				c-3.5,2.4-3.1,9.6-1.2,14.3C181,176.4,188.7,182.1,192.6,179.8z"/>
			<path class="st21" d="M198.1,197.9c-2.1,2.2-5.6,5.3-10.5,6.7c-10.1,2.9-19.5-2.9-27.1-7.8c-15.7-10.1-25.1-24.1-30.4-34.6
				c-2,11-0.2,24,3.8,33.8c10.1,25.2,40.7,44.7,57.1,35.8c0.3-0.2,0.6-0.4,1-0.6c1.6-1.2,3.1-2.5,4.4-4c0.1-0.1,0.2-0.2,0.2-0.3
				c0.1-0.2,0.2-0.4,0.4-0.5c1-1.4,1.8-2.9,2.5-4.6C202.1,214.8,201.6,206,198.1,197.9z"/>
			<path class="st22" d="M188.2,226.7c-10.3,2.7-19.4-2.9-27.1-7.8c-15.7-10-25-23.9-30.4-34.6c0,0.2-0.1,0.5-0.1,0.7
				c0.8,3.9,1.9,7.7,3.3,11.1c10.1,25.2,40.7,44.7,57.1,35.8c0.3-0.2,0.6-0.4,1-0.6c1.6-1.2,3.1-2.5,4.4-4c0.1-0.1,0.2-0.2,0.2-0.3
				c0.1-0.2,0.2-0.4,0.4-0.5c1-1.4,1.8-2.9,2.5-4.6c0.4-0.9,0.7-1.9,0.9-2.9C198,221.5,194,225.1,188.2,226.7z"/>
			<path class="st23" d="M190.8,161.6c-0.9-1.3-1.9-2.7-3-4.1c-0.4-0.1-0.9,0-1.4,0.1c-1.8,0.6-2.9,2.5-2.3,4.3
				c0.6,1.8,2.5,2.9,4.3,2.3C189.7,163.9,190.6,162.8,190.8,161.6z"/>
		</g>
		<g>
			<path class="st18" d="M239,122.4c0.4-0.6,4.5-6.4,2.2-13c-1.3-3.5-3.8-5.6-4.9-6.4c-1.5-1.1-4.7-3.2-9.2-3.5
				c-1.8-0.1-3.3,0.1-4.5,0.3c-0.4,0.3-1.2,0.9-1.1,1.4c0.1,0.6,1.5,1,3.4,0.9c8.2-0.1,14.1,5.5,14,10.8c0,4.9-5,8.2-5.5,8.5
				c1,0.7,2,1.4,3,2.1C237.3,123.2,238.2,122.8,239,122.4z"/>
			<path class="st18" d="M214.3,127.9c0.2-0.7,2.2-7.5-2.1-13c-2.3-2.9-5.4-4.1-6.7-4.5c-1.8-0.6-5.5-1.5-9.8-0.4
				c-1.7,0.5-3.1,1.1-4.2,1.8c-0.3,0.4-0.9,1.2-0.6,1.7c0.3,0.5,1.7,0.5,3.6-0.3c7.8-2.8,15.1,0.7,16.7,5.7c1.5,4.6-2.1,9.3-2.5,9.8
				c1.2,0.4,2.4,0.7,3.6,1.1C212.9,129.2,213.6,128.6,214.3,127.9z"/>
			<path class="st23" d="M197.5,176.6c4.7,18.8,20.6,43.5,37,41.9c18.6-1.8,33-35,27.3-61.6c-3.8-17.8-18-39.9-35.1-39.4
				c-12.5,0.4-21.1,12.6-23.4,16C191.1,151,196.3,171.7,197.5,176.6z"/>
			<path class="st24" d="M263.1,168.6c-1.5,2.4-10.3,15.9-26.8,18.5c-15.3,2.4-31.3-5.4-40.5-19.9c0.5,4.4,1.4,7.8,1.8,9.4
				c4.7,18.8,20.6,43.5,37,41.9C250.4,217.1,263.3,192.4,263.1,168.6z"/>
			<path class="st18" d="M254,137.3c1.5-0.7,6.3-2.9,9.2-8.4c2.2-4.1,2.3-8,2.2-9.8c0.1-1.6,0.2-5.5-2-9.8c-2.3-4.4-5.7-6.7-7.1-7.5
				c-0.5,0-1.5-0.1-1.8,0.4c-0.3,0.6,0.6,1.7,2.2,2.8c0.4,0.4,7.7,7.4,5.7,16.4c-1,4.5-3.8,7.3-5.1,8.5c-2.9,1.9-5.7,3.9-8.6,5.8
				L254,137.3z"/>
			<path class="st18" d="M209.2,182.8c-5.1,0.5-10-5.2-12.8-11.2c-0.9-5.1-1.7-12.9-0.1-21.2c0.2-0.3,0.4-0.6,0.6-1
				c1-1.3,4.4-6.2,9.4-6.4c6.9-0.2,12.5,8.4,14,15.4C222.5,168.9,216.7,182.1,209.2,182.8z"/>
			<path class="st23" d="M207,179.7c-4.2,0.4-8.3-4.1-10.8-9.1c-0.9-5-1.5-12.3,0-20c0,0,0,0,0-0.1c0.8-1.2,3.8-5.4,8.1-5.5
				c5.9-0.2,10.8,7.4,12.1,13.5C218.5,167.7,213.4,179.1,207,179.7z"/>
			<path class="st18" d="M204,176.4c-3.1,0.2-6.2-3.8-8.1-8c-0.6-4.5-0.9-10.3,0.1-16.6c0.9-1.3,2.7-3.4,5.1-3.4
				c4.2,0,7.9,6.2,9,11.2C211.8,167,208.6,176.1,204,176.4z"/>
			<path class="st25" d="M198,178.6c-1,0.6,14.5,42.1,36.5,40c4.8-0.5,9.3-3,13.3-7.1c-2.3,0.3-6.2,0.7-10.8,0
				C211.9,207.8,198.9,178,198,178.6z"/>
			<circle class="st23" cx="204.9" cy="155.3" r="3.3"/>
		</g>
		<g>
			<g>
				<path class="st16" d="M394,144.7c1.8,2.5,5,6.9,7,13.5l0,0c2.5,8.1,3.9,14.8,4.2,16.6c1,6.5-4.3,11-21.3,33.8
					c-3.2,4.2-5.7,7.7-7.2,9.7c-0.5,1.8-1.1,4.5-1.7,7.9c-0.6,3.5-0.4,4-1,4.5c-4.8,4.2-22.1-3.3-23-12.2c0-0.3,0-0.6,0-0.8
					c0.2-4.9,2.3-8.4,3-9.4c3.9-6.4,0.1-13.4,3.7-21.3c1.6-3.6,5-8.1,13.3-11.9c-1.4-16.2-33.7-53.8-58.2-57
					c-4.8-0.6-8.6-0.2-10.6,0.1l0,0c1.5-10.8,11.5-25.3,11.5-25.3l0,0c43.6,21,48.2,20.7,59.1,29.1
					C372.9,121.7,382.6,129.2,394,144.7z"/>
				<path class="st16" d="M295.7,79.1c3.6,5.2,5.4,7.9,9.1,10.4c7.4,5,11.4,1.9,16.3,6.2c5.5,4.7,7.7,15.3,3.8,20
					c-5.5,6.5-19.1-2.7-28,5.1c-3.4,3-2.3,4.5-6.6,11.1c-1.4,2.2-7.5,10.9-15.8,13.1c-15.8,4-33.5-17.5-34.4-25.2
					c-0.1-0.6-0.3-3.4-1.6-7c-0.7-2.1-1.6-3.8-2.2-4.9c-0.3-0.6-0.6-1-0.6-1.1c-5.4-9-4.5-18.5-4.5-18.5c1-4.5,2.4-8.1,3.5-10.5
					c2.7-5.8,6.6-14.2,14.4-17.4c3.7-1.5,5.4-0.6,7.3-2.7c3.5-3.8,1.8-10.9,3.8-11.3c0.2,0,1,0.3,2.5,1.1c1.1,0.5,1.6,0.8,2.6,1.4
					c4.2,2.5,13.1,3.5,19,9.6C289.8,64.3,287.8,67.6,295.7,79.1z"/>
				<g>
					<path class="st1" d="M230.1,81.3c-0.6,0.4-1.2,0.7-1.7,0.9c1.9-0.2,3.8-0.7,5.7-1.6l0,0c1.1-2.2,2.5-3.9,2.3-4.1
						C236.1,76.2,234,79,230.1,81.3z"/>
					<path class="st1" d="M201.3,102.8c-0.3-0.6-0.6-1.2-0.9-1.9c0.3-0.2,0.7-0.5,0.9-0.8c1.8-1.9,1-3.6,3-8.4
						c-2.8,0.6-4.7,0.8-4.8,0.6l0,0c0,0-6.8-0.4-11.7,2.1c-0.3,0.6-0.5,1.1-0.6,1.7c-0.9,1.7-1.2,2.6-0.7,3.6
						c0.1,0.2,0.2,0.3,0.3,0.5c0.6,5.5,4.8,10.3,5,10.5s0.4,0.4,0.6,0.7c1.7-3,1.6-4.2,2.8-5.5C196.9,104,198.9,103.2,201.3,102.8z"
						/>
				</g>
				<path class="st1" d="M259.5,102.3c-5.4,5.9-7.9,12.7-7.9,12.7c-0.6,1.4-1.4,3.3-1.9,5.6l0,0c0,0-0.7,4.1-1.1,7.3
					c-1.6,14.3,5.4,19.4,5.4,19.4c4.8,3.6,12.4,3.5,17,0.4c0,0,0.1-0.1,0.3-0.2c6.8-4.8,10.6-21,10.9-33.5
					c0.5-19.1-0.7-20.6-1.8-21.3C275.5,89.6,264.9,96.3,259.5,102.3z"/>
				<path class="st16" d="M265.5,100.2c-7.6,8.4-10,20-10.3,19.8c-0.2-0.1,1.9-4,0.4-6c-2-2.7-10.2-2.1-13.8,2.1
					c-5.1,5.9-0.2,18.1,5.3,24.7c1.9,2.3,5.7,6.8,12.5,8.5c1,0.2,10.5,2.5,17.9-3.4c5-3.9,6.3-9.3,8-16.7c0.3-1.4,1-4.6,1.4-17.9
					c0.5-18.1-0.6-19.5-1.7-20.1C280.9,88.3,271.2,93.9,265.5,100.2z"/>
				<path class="st26" d="M265.5,100.2c-5.1,5.6-7.4,12-7.4,12c-0.8,2.1-1.3,4.3-2.9,7.9c-1.7,3.8-2.7,5-3.5,6.7
					c-2.4,5.3-1.9,15,4.6,20.1c6.5,5.2,16,3.2,21.3-0.8c4.9-3.7,6.2-9.2,8-16.7c0.3-1.4,1-4.6,1.4-17.9c0.5-18.1-0.6-19.5-1.7-20.1
					C280.7,88.2,270.6,94.5,265.5,100.2z"/>
				<path class="st1" d="M232.8,87.8c-1.1,0-0.9,3.8-2.6,7.6c-3.2,7.1-11.4,10.9-17.5,13.8c-3.9,1.8-9,3.7-11.4,8.4
					c-0.3,0.6-0.5,1.3-0.7,1.6c-1.3,3.8-0.1,5.7-0.1,11.5c0,2.4-0.2,2.8-0.1,5.1l0,0c-0.6,2.6,0.1,7.1,2.3,10.5
					c3,4.7,8.6,6.9,11,7.1c0.4,0,2.1,0.1,4.3,0.6c0.7,0.1,1.3,0.3,1.9,0.5c2.2,0.6,3.8,1.3,4.3,1.5c4.8,2,7.2,3.1,8,2.3
					c1.9-1.6-1.9-11-7.6-14.2c-0.5-0.2-1.3-0.8-2.4-1.1c-2.3-0.8-4-0.7-7.6-2.2c-0.4-1.3-0.8-2.9-1.2-5c-0.3-1.7-0.3-3-0.4-4.2
					c-0.2-3.7-0.3-5.5,0.3-7.1c0.7-2,2-3.1,3.5-4.4c1.2-1.1,2.3-1.8,3.3-2.2c2.6-1.2,8.6-4.7,11.1-5.6c0.8-0.3,7.2-1.6,9.1,1.1
					c1.5,2.3-1.1,6.2-0.4,6.6c0.5,0.3,2.9-1.5,3.5-4.2c1.1-5.2-5.7-7.7-7.1-16.2c-0.2-1.2-0.3-2.7-0.9-5.2
					C234.8,91.6,233.9,87.8,232.8,87.8z"/>
				<path class="st16" d="M231.2,88.3c-1.1,0-0.9,3.8-2.6,7.6c-3.2,7.1-11.4,10.9-17.5,13.8c-3.9,1.8-9,3.7-11.4,8.4
					c-0.3,0.6-0.5,1.3-0.7,1.6c-1.3,3.8-0.1,5.7-0.1,11.5c0,2.4-0.2,2.8-0.1,5.1l0,0c-0.6,2.6,0.1,7.1,2.3,10.5
					c3,4.7,8.6,6.9,11,7.1c0.4,0,2.1,0.1,4.3,0.6c2.7,0.6,4.3,1.3,6.1,2c3.8,1.4,8.6,3.1,9.7,1.8c1.5-1.7-2.5-9.7-9.3-13.7
					c-3.8-2.2-5.3-1.4-10-3.3c-0.6-2-1.4-4.9-1.6-9.2c-0.1-4.1-0.1-6.1,0.8-8.3c0,0,0.1-0.3,0.3-0.6c2-3.9,6.1-5.8,12.2-9
					c5.7-3.1,5.6-3.4,6.8-3.4c2.5-0.1,5.7,0.7,7.2,3.1c1.7,2.6,0.7,5.9,1.3,6.1c0.4,0.1,1.5-1.6,1.8-3.7c0.8-5.8-5.7-7.9-7.1-16.2
					c-0.2-1.2-0.3-2.7-0.9-5.2C233.1,92.1,232.2,88.3,231.2,88.3z"/>
				<g>
					<path class="st1" d="M236.4,81.1c1.1-2.2,2.5-3.9,2.3-4.1c-0.3-0.2-2.4,2.5-6.2,4.8c-1.8,1.1-3,1.5-5,2.3
						c-6,2.4-6,3.2-10.8,5.2c-7.3,3-14.7,4-14.8,3.6l0,0c0,0-9.2-0.5-13.9,3.5c-0.7,0.6-1.2,1.3-1.2,1.3c-2.6,2.9-3,5.8-3.9,8.5
						c-1.4,4.4-2.4,3.4-4.9,9.3c0,0,0,0,0,0.1c-1.3,1.8-2.2,3.9-2.5,6.2c0,0.1,0,0.2,0,0.4c-0.3,1.3-0.3,2.3,0.2,2.9
						c1.1,5.4,5.7,9.7,6,9.9c0.6,0.6,1.7,1.4,3.1,3c0.5,0.5,0.9,1,1.2,1.5c1.4,1.8,2.5,3.8,2.5,3.8c2.6,4.5,3.9,6.7,4.4,6.7
						c2.5,0,5.1-11.1,3-16c-0.6-1.2-1.2-2.3-1.2-2.3c-1.5-2.3-3.2-3.2-5.7-7.7c-0.5-0.9-0.9-1.8-1.3-2.6c0.6-0.4,1.1-0.9,1.6-1.4
						c1.8-1.8,3.1-3.8,4.4-5.9c2.9-4.5,2.5-5.9,3.9-7.4c5.3-5.8,12.8-1.3,26.2-6.3c7.2-2.7,9.7-6,10.3-6.8
						C236.3,90.1,233.8,86.4,236.4,81.1z"/>
					<path class="st16" d="M234.1,80.6c1.1-2.2,2.5-3.9,2.3-4.1c-0.3-0.2-2.4,2.5-6.2,4.8c-1.8,1.1-3,1.5-5,2.3
						c-6,2.4-6,3.2-10.8,5.2c-7.3,3-14.7,4-14.8,3.6l0,0c0,0-9.2-0.5-13.9,3.5c-0.7,0.6-1.2,1.3-1.2,1.3c-2.6,2.9-3,5.8-3.9,8.5
						c-1.4,4.4-2.4,3.4-4.9,9.3c0,0,0,0,0,0.1c-1.3,1.8-2.2,3.9-2.5,6.2c0,0.1,0,0.2,0,0.4c-0.3,1.3-0.3,2.3,0.2,2.9
						c1.1,5.4,5.7,9.7,6,9.9c0.6,0.6,1.7,1.4,3.1,3c1.9,2.1,2.7,3.6,3.8,5.2c2.2,3.4,5,7.6,6.7,7.2c2.2-0.5,3.8-9.2,0.7-16.5
						c-1.9-4.4-3.7-4.2-6.9-10c-0.5-0.9-0.9-1.8-1.3-2.6c0.6-0.4,1.1-0.9,1.6-1.4c1.8-1.8,3.1-3.8,4.4-5.9c2.9-4.5,2.5-5.9,3.9-7.4
						c5.3-5.8,12.8-1.3,26.2-6.3c7.2-2.7,9.7-6,10.3-6.8C234,89.6,231.4,85.9,234.1,80.6z"/>
				</g>
				<path class="st1" d="M236.4,81.1c1.1-2.2,2.5-3.9,2.3-4.1c-0.3-0.2-2.4,2.5-6.2,4.8c-1.8,1.1-3,1.5-5,2.3c-6,2.4-6,3.2-10.8,5.2
					c-7.3,3-14.7,4-14.8,3.6l0,0c0,0-9.2-0.5-13.9,3.5c-0.7,0.6-1.2,1.3-1.2,1.3c-2.6,2.9-3,5.8-3.9,8.5c-1.4,4.4-2.4,3.4-4.9,9.3
					c0,0,0,0,0,0.1c-1.3,1.8-2.2,3.9-2.5,6.2c0,0.1,0,0.2,0,0.4c-0.3,1.3-0.3,2.3,0.2,2.9c1.1,5.4,5.7,9.7,6,9.9
					c0.6,0.6,1.7,1.4,3.1,3c0.5,0.5,0.9,1,1.2,1.5c1.4,1.8,2.5,3.8,2.5,3.8c2.6,4.5,3.9,6.7,4.4,6.7c2.5,0,5.1-11.1,3-16
					c-0.6-1.2-1.2-2.3-1.2-2.3c-1.5-2.3-3.2-3.2-5.7-7.7c-0.5-0.9-0.9-1.8-1.3-2.6c0.6-0.4,1.1-0.9,1.6-1.4c1.8-1.8,3.1-3.8,4.4-5.9
					c2.9-4.5,2.5-5.9,3.9-7.4c5.3-5.8,12.8-1.3,26.2-6.3c7.2-2.7,9.7-6,10.3-6.8C236.3,90.1,233.8,86.4,236.4,81.1z"/>
				<path class="st16" d="M234.1,80.6c1.1-2.2,2.5-3.9,2.3-4.1c-0.3-0.2-2.4,2.5-6.2,4.8c-1.8,1.1-3,1.5-5,2.3
					c-6,2.4-6,3.2-10.8,5.2c-7.3,3-14.7,4-14.8,3.6l0,0c0,0-9.2-0.5-13.9,3.5c-0.7,0.6-1.2,1.3-1.2,1.3c-2.6,2.9-3,5.8-3.9,8.5
					c-1.4,4.4-2.4,3.4-4.9,9.3c0,0,0,0,0,0.1c-1.3,1.8-2.2,3.9-2.5,6.2c0,0.1,0,0.2,0,0.4c-0.3,1.3-0.3,2.3,0.2,2.9
					c1.1,5.4,5.7,9.7,6,9.9c0.6,0.6,1.7,1.4,3.1,3c1.9,2.1,2.7,3.6,3.8,5.2c2.2,3.4,5,7.6,6.7,7.2c2.2-0.5,3.8-9.2,0.7-16.5
					c-1.9-4.4-3.7-4.2-6.9-10c-0.5-0.9-0.9-1.8-1.3-2.6c0.6-0.4,1.1-0.9,1.6-1.4c1.8-1.8,3.1-3.8,4.4-5.9c2.9-4.5,2.5-5.9,3.9-7.4
					c5.3-5.8,12.8-1.3,26.2-6.3c7.2-2.7,9.7-6,10.3-6.8C234,89.6,231.4,85.9,234.1,80.6z"/>
				<g>
					<path class="st1" d="M262.9,59.7c-0.1-0.6-8.3,0.6-15.6,2.3c-8.3,2-12.2,3.5-16,4.9c-8,3-9.7,4.7-15.1,4.1
						c-2.1-0.2-8.9-1.2-13.7,2.1c-2.6,1.8-2.9,3.5-6.6,10.5c-1.5,2.8-2.8,5-3.8,6.8c-1.5,1.5-2.8,3.4-3.4,5.6
						c-0.9,1.7-1.2,2.6-0.7,3.6c0.1,0.2,0.2,0.3,0.3,0.5c0.6,5.5,4.8,10.3,5,10.5c0.6,0.6,1.6,1.6,2.8,3.3c1.6,2.3,2.3,3.9,3.2,5.6
						c1.9,3.6,4.2,8.1,6,7.9c2.3-0.3,4.6-8.8,2.3-16.4c-1.4-4.5-3.2-4.6-5.6-10.2c0.3-0.2,0.7-0.5,0.9-0.8c1.9-2,0.9-3.8,3.5-9.5
						c0.7-1.6,2.2-4.8,4.5-6.8c6.3-5.8,16.1,2,25.9-3.8c1.1-0.6,2.1-1.4,4.2-3c9.2-7.2,10.4-12.1,18-15.5
						C261.2,60.3,263,59.9,262.9,59.7z"/>
					<path class="st16" d="M262.3,57.4c-0.1-0.6-8.3,0.6-15.6,2.3c-8.3,2-12.2,3.5-16,4.9c-8,3-9.7,4.7-15.1,4.1
						c-2.1-0.2-8.9-1.2-13.7,2.1c-2.6,1.8-2.9,3.5-6.6,10.5c-1.5,2.8-2.8,5-3.8,6.8c-1.5,1.5-2.8,3.4-3.4,5.6
						c-0.9,1.7-1.2,2.6-0.7,3.6c0.1,0.2,0.2,0.3,0.3,0.5c0.6,5.5,4.8,10.3,5,10.5c0.6,0.6,1.6,1.6,2.8,3.3c1.6,2.3,2.3,3.9,3.2,5.6
						c1.9,3.6,4.2,8.1,6,7.9c2.3-0.3,4.6-8.8,2.3-16.4c-1.4-4.5-3.2-4.6-5.6-10.2c0.3-0.2,0.7-0.5,0.9-0.8c1.9-2,0.9-3.8,3.5-9.5
						c0.7-1.6,2.2-4.8,4.5-6.8c6.3-5.8,16.1,2,25.9-3.8c1.1-0.6,2.1-1.4,4.2-3c9.2-7.2,10.4-12.1,18-15.5
						C260.5,58.1,262.3,57.7,262.3,57.4z"/>
				</g>
				<path class="st1" d="M246.5,45.9c-6.9,0.7-11.9,3.7-21.9,9.6c-1.4,0.8-2.6,1.5-3.8,2.3c-2.9,0-7.5,3-9.3,7.1
					c-0.3,0.5-0.5,1-0.5,1.5c-1.6,6,2.2,12.7,2.4,12.9c0.4,0.8,1.2,1.9,2,3.8c0.3,0.7,0.5,1.2,0.7,1.8c0.7,2.1,1.2,4.3,1.2,4.3
					c1.1,4.9,1.6,7.4,2.6,7.7c2.5,0.7,7.8-9.1,7.2-14.3c-0.1-1.4-0.4-2.6-0.4-2.6c-0.7-2.7-2.1-4-3-9.1c4.4-1.1,4.4-3.9,10.2-7.2
					c6.5-3.8,13.6-4.4,16.4-4.5c6.9-0.2,9.8,1.7,13.5-0.7c1.9-1.2,4.3-3.8,3.9-6.2C266.9,47.9,255.7,45,246.5,45.9z"/>
				<path class="st26" d="M244.9,44.7c-6.9,0.7-11.9,3.7-21.9,9.6c-1.4,0.8-2.6,1.5-3.8,2.3c-2.9,0-7.5,3-9.3,7.1
					c-0.3,0.5-0.5,1-0.5,1.5c-1.6,6,2.2,12.7,2.4,12.9c0.4,0.8,1.2,1.9,2,3.8c1.1,2.6,1.4,4.3,2,6.1c1.1,3.9,2.4,8.8,4.2,8.9
					c2.3,0.2,6.4-7.7,5.7-15.5c-0.4-4.8-2.3-5.2-3.5-11.6c4.4-1.1,4.4-3.9,10.2-7.2c6.5-3.8,13.6-4.4,16.4-4.5
					c6.9-0.2,9.8,1.7,13.5-0.7c1.9-1.2,4.3-3.8,3.9-6.2C265.4,46.7,254.2,43.8,244.9,44.7z"/>
				<path class="st26" d="M270.5,53.6c0,0-0.7,6.6-4.2,7.6c4,2.5,8.3,5.5,12.6,9c10,8,17.5,16.4,23.1,23.7c-2.7-3.2-4.6-6.1-5.8-8.2
					c-1.9-3.2-3.3-6.1-6-12.1c-2.5-5.4-2.5-5.7-3.6-7.5c-1.3-2.2-3.2-5.2-6.7-7.9C276.4,55.6,273,54.3,270.5,53.6z"/>
				<path class="st26" d="M290.4,78.3c1.9,3.2,6.1,9.3,13.7,13.8c5.4,3.2,10.4,4.4,13.7,4.9c0,0,5.1,4.2,2.4,10.9
					c-3.2-1.8-6.7-3.9-10.3-6.7C300.1,93.5,294.1,84.8,290.4,78.3z"/>
				<path class="st1" d="M252.1,143.5c0,0-8-10.5,1.9-22.9C253.9,120.6,239.9,130.9,252.1,143.5z"/>
				<path class="st1" d="M187.1,119.8l-0.3,2.5c-0.7-0.2-1.5-0.5-2.4-1c-3.5-1.9-5.3-4.9-6.1-6.6c0.2,0.5,1.8,4.1,5.4,5
					C185.1,120.1,186.3,119.9,187.1,119.8z"/>
				<path class="st1" d="M213.3,139.9l1.4,2.1c-0.7,0.3-1.5,0.6-2.4,0.8c-3.9,0.8-7.3-0.4-8.9-1.1c0.5,0.3,4,2,7.4,0.4
					C212,141.4,212.8,140.5,213.3,139.9z"/>
				<path class="st1" d="M201.6,98.3c0.1,0,0.6,0.1,0.9,0.6c0.3,0.5,0.2,1.1-0.2,1.5c-0.6,0.1-1.5,0.3-2.6,0.1
					c-2.2-0.4-3.6-2-3.5-2.1s0.9,0.8,2.2,1C199.6,99.5,200.7,98.9,201.6,98.3z"/>
				<path class="st1" d="M224.6,69.6c0,0.1,0.2,0.6,0,1c-0.2,0.5-0.8,0.8-1.4,0.7c-0.4-0.4-1.1-1-1.5-2.1c-0.9-2.1-0.4-4.1-0.3-4.1
					c0.1,0-0.2,1.2,0.5,2.4C222.5,68.6,223.6,69.2,224.6,69.6z"/>
				<path class="st1" d="M245.5,57.8c0,0.1-0.1,0.8-0.6,1.3s-1.3,0.6-1.9,0.3c-0.3-0.6-0.6-1.7-0.6-3.1c0.1-2.8,1.8-5.1,1.9-5.1
					c0.1,0-0.8,1.4-0.8,3.1C243.8,55.8,244.6,57,245.5,57.8z"/>
				<polygon class="st1" points="203.4,102.6 201.3,98.5 201.6,98.3 203.9,102.5 				"/>
				<path class="st1" d="M201.6,101.7c0,0,6.1,7.4,5.4,11L201.6,101.7z"/>
				<path class="st27" d="M266.5,115.2c0,0,5.3-17.3,12.7-18.7c7.4-1.4,6.3,6.4,6.3,6.4l-2,18.2C283.6,121,273.8,113.3,266.5,115.2z
					"/>
				<path class="st28" d="M266.5,115.2L266.5,115.2c0,0,4.4-2.9,8.9-2.8c1,0,3.4,0.1,5.3,1.7c2.9,2.4,2.9,6.3,2.8,6.9l0,0
					C283.6,121,273.8,113.3,266.5,115.2z"/>
				<path class="st1" d="M285.2,96.8c0.5,6.9,0.8,13,1,18.1c0.3,7.8,0.3,11.2-0.9,15.5c-1.1,4.1-2.8,7.2-4.1,9.2
					c-0.2,0.5-0.5,1.2-0.9,1.9c-0.6,1-1.6,2.2-3.1,2.6c2.6-5.6,5.7-13.7,7.3-23.7C286.1,111,285.9,102.8,285.2,96.8z"/>
				<path class="st27" d="M219.4,150c0.1,4.5-1,4.9-1,4.9l0,0c1.6,0.5,2.8,1,4.1,1.5c1.8,0.7,3.9,1.4,5.6,1.9c0.6,0.1,1,0.2,1.1,0.2
					c0,0,0,0,0.1,0C227.7,152.1,219.4,150,219.4,150z"/>
				<path class="st28" d="M219.4,150c0.1,4.5-1,4.9-1,4.9l0,0c0.2,0.1,0.4,0.1,0.7,0.2c0.7,0.2,1.3,0.4,1.9,0.7c0-0.6,0-1.4-0.2-2.2
					C220.6,152,219.9,150.8,219.4,150z"/>
				<path class="st27" d="M188.1,134.8c-1,3.2-2.4,4.6-3.6,5.3c0.6,0.9,1.1,1.6,1.6,2.5c1.6,2.5,3.6,5.4,5.2,6.7
					C195.4,145.9,188.1,134.8,188.1,134.8z"/>
				<path class="st28" d="M184.5,140.1c0.6,0.9,1.1,1.6,1.6,2.5c0.1,0.1,0.1,0.2,0.2,0.3c1.6-2.2,1.8-8,1.8-8
					C187,137.9,185.7,139.4,184.5,140.1z"/>
				<path class="st27" d="M203.2,111.9c-2.2-0.4-4.7,0.8-6.3,1.9c0.7,1.2,1.2,2.3,1.8,3.5c1.3,2.6,2.9,5.6,4.3,7
					C206,124.1,203.2,111.9,203.2,111.9z"/>
				<path class="st28" d="M196.9,113.8c0.5,0.9,0.9,1.7,1.3,2.5c3.2,0.1,5-4.4,5-4.4C201,111.4,198.5,112.7,196.9,113.8z"/>
				<path class="st29" d="M219.5,82.2c-1.8,1.6-3.6,2.1-4.8,2.1c0.4,1.4,0.7,2.5,1.1,3.8c0.7,2.6,1.6,5.6,2.6,7.4
					C225,91.2,219.5,82.2,219.5,82.2z"/>
				<path class="st30" d="M214.8,84.3c0.2,0.6,0.3,1.1,0.5,1.6c3.2,0.6,4.3-3.7,4.3-3.7C217.7,83.8,216,84.3,214.8,84.3z"/>
			</g>
			<path class="st16" d="M374.7,218.9c-2-10.6-4-20.4-8.2-21.5c-4.3-1.1-8,3.7-12.5,10.8l0,0c-0.4,0.6-0.7,1.1-1,1.7
				c-1.6,2.6-3.3,5.4-5.1,8.2c-0.9,8.7,25.3,21.6,30,16.5c-0.4-1.8-0.7-3.5-1.1-5.1c-0.4-1.7-0.6-3.1-0.9-4.7
				c-0.3-1.5-0.5-2.4-0.5-2.7C374.9,220.3,374.7,219,374.7,218.9z"/>
			<path class="st1" d="M397.2,188c-6.2,0.9-9.6,1.4-9.6,1.4l0,0c0,0-6.3,7-18,19.9c-0.5,2.9-0.7,6.6-0.5,10.7
				c0.4,6.5,2,11.9,3.5,15.6c1.2,1.5,2.8,1.9,3.5,1.3c0.5-0.4,0.5-1.4,0.5-1.6c-0.2-2.5-0.1-3.7-1.2-6.5c0,0-1.7-4.5-0.9-9.9
				c0.6-3.9,2.9-6.5,4.5-8.3C383.8,205.1,389.8,197.6,397.2,188z"/>
			<path class="st31" d="M372.7,235.6c1.8,9.1,3.6,18.2,5.4,27.3c1.1,0.6,6.2,4.4,6.2,4.4c-1.5-5.5-3-11.2-4.4-17.2
				c-1.2-5.1-2.2-10-3.1-14.8C375.7,235.7,374.3,235.8,372.7,235.6z"/>
			<g>
				<path class="st1" d="M370.2,171.1L370.2,171.1c0.4,1.4,0.7,2.7,0.8,3.8c0,0,11.5-6.1,23.4-2.7
					C389.6,170.8,376.9,167.4,370.2,171.1z"/>
				<path class="st1" d="M394.3,172.2c0.7,0.2,1.3,0.4,1.6,0.5C395.4,172.5,394.9,172.4,394.3,172.2z"/>
				<path class="st1" d="M395.9,172.7c0.1,0,0.2,0.1,0.3,0.1C396.2,172.8,396.1,172.8,395.9,172.7z"/>
			</g>
			<path class="st1" d="M375.7,169.6c-1.6-3.9-4.4-10.2-8.9-17.2c-3-4.7-27.3-43.1-54-38.9c-2.5,0.4-6.2,1.3-10.5,3.9
				c0,0.2-0.1,0.4-0.1,0.6l0,0c1.9-0.3,5.8-0.7,10.6-0.1c22.8,3,52.2,35.5,57.4,53.2l0,0c0.1,0,0.6-0.3,1.4-0.6
				C373.2,169.8,374.7,169.6,375.7,169.6z"/>
			<path class="st0" d="M366.1,181.8c0,0,6.4-9.7,17.2-6.2C383.3,175.6,369.5,181.1,366.1,181.8z"/>
		</g>
		<path class="st23" d="M138.8,147.7c0,0,16.5-13.6,34.6,3C173.3,150.7,147.1,142.5,138.8,147.7z"/>
	</g>
</g>
</svg>
