<?xml version="1.0" encoding="utf-8"?>
<!-- Generator: Adobe Illustrator 24.1.2, SVG Export Plug-In . SVG Version: 6.00 Build 0)  -->
<svg version="1.1" xmlns="http://www.w3.org/2000/svg" xmlns:xlink="http://www.w3.org/1999/xlink" x="0px" y="0px"
	 viewBox="0 0 500 500" style="enable-background:new 0 0 500 500;" xml:space="preserve">
<style type="text/css">
	.st0{display:none;}
	.st1{display:inline;}
	.st2{fill:#6E1B05;}
	.st3{fill:#F4F6F7;}
	.st4{fill:#FFFFFF;stroke:#231815;stroke-miterlimit:10;}
	.st5{fill:#F0F2F4;}
	.st6{fill:#323333;}
	.st7{fill:#231815;}
	.st8{fill:#812511;}
	.st9{fill:#4E0500;}
	.st10{fill:#A1341F;}
	.st11{fill:#DEE0E2;}
	.st12{fill:#761F09;}
	.st13{fill:#5F1200;}
	.st14{fill:#3D0000;}
	.st15{fill:#E6EBEE;stroke:#9E9E9F;stroke-width:0.25;stroke-miterlimit:10;}
	.st16{fill:#F7F9FA;}
	.st17{fill:#EFF5F8;}
	.st18{fill:#CDD8DE;stroke:#9E9E9F;stroke-width:0.25;stroke-miterlimit:10;}
	.st19{fill:#D3DEE4;stroke:#9E9E9F;stroke-width:0.25;stroke-miterlimit:10;}
	.st20{fill:#8B2A16;}
	.st21{fill:#A53620;}
	.st22{fill:#98301B;}
	.st23{fill:#A13019;}
	.st24{fill:#741B02;}
	.st25{fill:#450000;}
	.st26{fill:#7E230E;}
	.st27{fill:#E2E4E5;}
	.st28{fill:#DEE6EA;stroke:#9E9E9F;stroke-width:0.25;stroke-miterlimit:10;}
	.st29{fill:#BD3519;}
	.st30{fill:#280000;}
	.st31{fill:#320000;}
	.st32{fill:#2B0000;}
	.st33{fill:#EAECEE;stroke:#9E9E9F;stroke-width:0.25;stroke-miterlimit:10;}
	.st34{fill:#040000;}
	.st35{fill:#9C9D9F;}
	.st36{fill:url(#SVGID_1_);stroke:url(#SVGID_2_);stroke-miterlimit:10;}
</style>
<g id="_x33_" class="st0">
	<g class="st1">
		<path class="st2" d="M1365.02,114.51c-9.32,18.89-25.93,47.76-54,75.89c-54.22,54.36-108.22,62.91-108,90
			c0.22,26.15,50.62,29.16,72,63c21.61,34.2,13.78,100.22-84.91,234c-100.41-135.56-107.22-200.72-86.09-234
			c21.17-33.33,70.95-35.61,72-63c1.01-26.29-44.32-38.14-99-90c-30.52-28.95-50.34-57.45-61.83-75.89
			C1131.8,114.51,1248.41,114.51,1365.02,114.51z"/>
		<path class="st3" d="M1014.24,114.51c31.74-11.2,71.06-21.7,116.78-26.74c100.42-11.08,182.98,9.49,233.05,26.74
			c-13.15,16.26-58.11,67.59-134.05,81.26C1106.96,217.91,1019.12,120.12,1014.24,114.51z"/>
		<path class="st4" d="M1338.13,141.76c1.73-6.02,0.96-8.18-0.11-9c-3.09-2.37-11.89,4.01-18,9c0,4.92,0,9.84,0,14.75
			C1326.77,151.55,1332.8,146.56,1338.13,141.76z"/>
		<circle class="st5" cx="1189.52" cy="146.26" r="85.32"/>
		<circle class="st6" cx="1189.52" cy="146.26" r="49.5"/>
		<circle class="st7" cx="1189.16" cy="146.26" r="26.82"/>
		<path class="st4" d="M1230.02,86.33c-14.38-1.16-29.4-1.78-45-1.69v30.12c11.41,10.84,25.89,14.33,36,9c2.21-1.17,5.92-3.65,9-9
			C1230.02,105.29,1230.02,95.81,1230.02,86.33z"/>
		<path class="st4" d="M1185.02,84.64c-14.52,0.08-29.54,0.77-45,2.21v27.91c2.22,2.18,8.41,7.67,18,9c14.91,2.08,25.54-7.62,27-9
			C1185.02,104.72,1185.02,94.68,1185.02,84.64z"/>
		<path class="st4" d="M1185.02,198.83v-21.06c-1.46-1.38-12.09-11.08-27-9c-9.59,1.33-15.78,6.82-18,9c0,4.72,0,9.44,0,14.16
			C1154.13,195.66,1169.17,198.15,1185.02,198.83z"/>
		<path class="st4" d="M1185.02,177.76v21.06c14.37,0.62,29.4-0.26,45-3.06v-18c-2.22-2.18-8.41-7.67-18-9
			C1197.12,166.69,1186.48,176.39,1185.02,177.76z"/>
		<path class="st4" d="M1140.02,191.92v-14.16c-0.86-1.91-3.5-7.1-9-9c-2.73-0.94-5.33-0.79-9,0c-4.69,1.01-12.2,3.27-20.96,9
			C1106.74,180.41,1112.99,183.05,1140.02,191.92z"/>
		<path class="st4" d="M1230.02,195.76c16.46-2.96,31.46-7.7,45-13.46v-4.54c-9.45-9.28-14.81-10.16-18-9c-4.02,1.46-4.29,6.06-9,9
			c-5.43,3.4-12.55,1.94-18,0C1230.02,183.76,1230.02,189.76,1230.02,195.76z"/>
		<path class="st4" d="M1230.02,86.33v28.43c8.31,8.53,14.12,9.7,18,9c6.18-1.12,8.94-7.27,18-9c3.68-0.7,6.87-0.38,9,0
			c0-7.63,0-15.26,0-22.89C1260.86,89.52,1245.83,87.6,1230.02,86.33z"/>
		<path class="st4" d="M1140.02,86.85c-2.98,0.28-5.98,0.58-9,0.91c-12.49,1.38-24.49,3.18-36,5.27v21.73c3.11,6.4,6.48,8.39,9,9
			c7.54,1.83,13.13-7.25,27-9c3.76-0.47,6.92-0.26,9,0C1140.02,105.46,1140.02,96.16,1140.02,86.85z"/>
		<path class="st4" d="M1095.02,93.04c-15.99,2.91-31.01,6.41-45,10.26v11.47c11.41,10.84,25.89,14.33,36,9c2.21-1.17,5.92-3.65,9-9
			C1095.02,107.52,1095.02,100.28,1095.02,93.04z"/>
		<path class="st4" d="M1050.02,103.3c-12.8,3.52-24.76,7.32-35.78,11.21c0.06,0.07,0.14,0.16,0.23,0.26
			c7.41,9.15,18.4,12.57,26.56,9c5.1-2.23,7.81-6.63,9-9C1050.02,110.94,1050.02,107.12,1050.02,103.3z"/>
		<path class="st4" d="M1050.02,132.76h-17.22c4.87,4.31,10.64,9.12,17.22,14.11c4.58,0.3,8.34-2.24,9-5.11
			C1059.83,138.24,1056.23,133.09,1050.02,132.76z"/>
		<path class="st4" d="M1095.02,174.86v-15.1c-3.79-7.54-11.69-11.05-18-9c-5.95,1.94-8.25,8.1-8.58,9
			C1072.42,162.32,1076.06,166.12,1095.02,174.86z"/>
		<path class="st4" d="M1275.02,159.76v22.54c15.39-6.55,28.88-14.42,40.47-22.54c-1.75-2.21-6.18-7.11-13.47-9
			C1292.63,148.33,1282.28,151.88,1275.02,159.76z"/>
		<path class="st4" d="M1275.02,91.88v22.89c10.22,9.64,15.27,10.21,18,9c3.83-1.7,3.72-7.23,9-9c1.91-0.64,2.75-0.2,9,0
			c3.8,0.12,6.92,0.07,9,0c0-4.48,0-8.95,0-13.43C1306.25,97.83,1291.2,94.57,1275.02,91.88z"/>
		<path class="st4" d="M1320.02,114.76c8.17-2.23,15.83-3.26,18,0c1.88,2.83-1.59,7.07,0,9c1.66,2.02,8.23,0.75,25.84-9
			c0.04-0.04,0.07-0.09,0.11-0.13c0.04-0.04,0.07-0.09,0.1-0.13c-12.68-4.37-27.44-8.95-44.05-13.17V114.76z"/>
		<g>
			<path class="st8" d="M1365.02,114.51c0,0-104.95-104.95-174.91-69.97c-69.97-34.98-174.91,69.97-174.91,69.97
				c31.74-11.2,71.06-21.7,116.78-26.74C1232.4,76.68,1314.95,97.26,1365.02,114.51z"/>
			<path class="st8" d="M1230.98,195.76c-123.06,22.14-210.91-75.64-215.78-81.26c30.38,72.56,102.11,119.24,179.78,117.26
				c74.26-1.9,141.09-47.95,170.05-117.26C1351.87,130.76,1306.91,182.1,1230.98,195.76z"/>
		</g>
		<path class="st2" d="M1194.02,289.4c-18.01,5.17-106.92,181.02,0,117c108.99,55.03,139.32,61.12,144,54
			c5.21-7.93-56.67-110.65-63-117C1245.27,313.56,1214.07,297.67,1194.02,289.4z"/>
		<path class="st9" d="M1194.02,289.4c-18.01,5.17-56.01,18.75-90,54c-4.4,4.56-59.71,118.85-54,126c6.29,7.87,37.08,1.02,144-63
			C1303.02,461.43,1214.07,297.67,1194.02,289.4z"/>
		<path class="st9" d="M1194.02,451.4c11.01,108.77-2.81,138.03-18,144c-9.2,3.62-16.9-2.1-54,0c-20.22,1.14-34.71,3.79-36,0
			c-1.61-4.73,20.62-9.72,27-27c6.22-16.85-8.46-29.55-9-45C1103.41,505.83,1121,481.85,1194.02,451.4z"/>
		<path class="st2" d="M1194.02,451.4c23.62,73.45,23.95,108.28,18,126c-0.94,2.81-4.49,12.47,0,18c5.7,7.01,18.51,0.2,45,0
			c23.5-0.17,32.67,5.05,36,0c4.67-7.07-12.39-18.76-18-45c-3.75-17.54,0.44-24.93,0-36
			C1274.39,498.28,1258.97,476.45,1194.02,451.4z"/>
		<path class="st10" d="M1298.11,433.4c3.92,62.86-44.86,144.01-108,144c-63.05-0.01-111.51-80.94-108-144
			c2.27-40.78,26.02-69.48,57.91-108c27.16-32.8,41.29-36.08,50.09-36c10.55,0.09,23.69,5.09,48.91,36
			C1273.8,368.02,1295.7,394.87,1298.11,433.4z"/>
		<path class="st2" d="M1134.15,332.51c-0.27,0.33-0.54,0.66-0.81,0.98c0,0-0.01,0.01-0.01,0.01s0,0,0,0
			c-28.47,34.58-49.11,62.03-51.22,99.9c-0.05,0.98-0.1,1.97-0.13,2.96c0,0,0,0,0,0c-0.01,0.44-0.01,0.89-0.02,1.33
			c-0.01,0.29-0.01,0.58-0.02,0.88c0,0.26-0.01,0.52-0.01,0.79c0,0.35,0,0.71,0.01,1.07c0,0.65,0,1.3,0.01,1.95
			c0.01,0.4,0.03,0.79,0.04,1.19c0.01,0.25,0.01,0.49,0.02,0.74c0.01,0.37,0.02,0.74,0.04,1.11c0.02,0.5,0.06,1.01,0.08,1.51
			c0,0.03,0,0.05,0,0.08c0.03,0.49,0.05,0.97,0.08,1.46c0.03,0.45,0.07,0.9,0.11,1.36c0.04,0.57,0.08,1.14,0.13,1.71
			c0.04,0.46,0.09,0.92,0.14,1.37c0.06,0.57,0.11,1.14,0.17,1.7c0.06,0.55,0.14,1.1,0.2,1.65c0.06,0.46,0.11,0.92,0.17,1.39
			c0,0.02,0,0.03,0.01,0.05c0.09,0.63,0.18,1.27,0.28,1.9c0.03,0.18,0.05,0.36,0.08,0.54c0.03,0.22,0.06,0.43,0.09,0.65
			c0.1,0.64,0.21,1.27,0.32,1.91c0.05,0.29,0.1,0.59,0.15,0.88c0.02,0.1,0.03,0.21,0.05,0.31c0.12,0.67,0.25,1.35,0.38,2.02
			c0.03,0.17,0.07,0.34,0.1,0.51c0.04,0.19,0.07,0.38,0.11,0.57c0.14,0.69,0.29,1.38,0.43,2.07c0.06,0.29,0.12,0.58,0.18,0.87
			c0.01,0.06,0.02,0.11,0.04,0.17c0.16,0.7,0.32,1.4,0.49,2.11c0.08,0.33,0.15,0.66,0.23,0.99c0.18,0.75,0.37,1.5,0.57,2.25
			c0.03,0.14,0.07,0.27,0.1,0.41c0.04,0.15,0.07,0.3,0.11,0.45c0.19,0.74,0.4,1.47,0.6,2.21c0.06,0.23,0.12,0.46,0.19,0.69
			c0.02,0.07,0.04,0.14,0.06,0.2c0.22,0.76,0.45,1.52,0.67,2.29c0.05,0.16,0.09,0.31,0.14,0.47c0.03,0.11,0.06,0.22,0.1,0.33
			c0.25,0.81,0.5,1.61,0.76,2.41c0.07,0.22,0.14,0.44,0.21,0.66c0.26,0.8,0.53,1.59,0.8,2.38c0.08,0.23,0.15,0.46,0.23,0.68
			c0.29,0.84,0.6,1.68,0.9,2.52c0.06,0.18,0.12,0.35,0.19,0.53c0.3,0.82,0.62,1.64,0.93,2.45c0.08,0.19,0.15,0.39,0.22,0.58
			c0.34,0.87,0.7,1.75,1.05,2.61c0.05,0.13,0.1,0.26,0.16,0.39c0.38,0.91,0.76,1.81,1.15,2.71c0.02,0.05,0.04,0.1,0.06,0.15
			c0.02,0.05,0.04,0.09,0.06,0.14c0.4,0.91,0.8,1.81,1.21,2.71c0.01,0.02,0.02,0.05,0.03,0.07c0.03,0.06,0.05,0.12,0.08,0.18
			c0.42,0.91,0.84,1.81,1.28,2.71c0.03,0.06,0.06,0.12,0.09,0.18c0.01,0.02,0.01,0.03,0.02,0.05c0.45,0.93,0.91,1.85,1.37,2.77
			c0.01,0.02,0.02,0.05,0.03,0.07c0.01,0.03,0.03,0.05,0.04,0.08c0.48,0.95,0.97,1.89,1.47,2.83c0,0.01,0.01,0.02,0.01,0.03
			c0,0.01,0.01,0.01,0.01,0.02c0.58,1.09,1.17,2.17,1.77,3.24c0.13,0.23,0.26,0.45,0.39,0.68c0.46,0.82,0.93,1.64,1.41,2.45
			c0.19,0.32,0.37,0.63,0.56,0.94c0.44,0.73,0.88,1.46,1.32,2.18c0.2,0.32,0.4,0.64,0.6,0.96c0.46,0.74,0.93,1.47,1.41,2.19
			c0.18,0.28,0.36,0.56,0.55,0.84c0.58,0.87,1.16,1.74,1.75,2.6c0.08,0.12,0.16,0.24,0.24,0.36c0.7,1.01,1.42,2.02,2.14,3.01
			c0.05,0.07,0.1,0.13,0.15,0.2c0.65,0.89,1.31,1.77,1.98,2.64c0.18,0.24,0.36,0.47,0.54,0.7c0.55,0.71,1.1,1.41,1.66,2.1
			c0.21,0.26,0.43,0.53,0.64,0.79c0.55,0.68,1.11,1.34,1.67,2.01c0.21,0.24,0.41,0.49,0.62,0.73c0.63,0.73,1.27,1.46,1.91,2.17
			c0.14,0.15,0.27,0.3,0.4,0.45c1.6,1.77,3.24,3.48,4.91,5.14c0.15,0.15,0.3,0.29,0.45,0.44c0.68,0.66,1.36,1.32,2.04,1.96
			c0.22,0.2,0.43,0.4,0.65,0.6c0.64,0.59,1.29,1.18,1.94,1.75c0.22,0.2,0.45,0.4,0.67,0.59c0.69,0.6,1.39,1.19,2.09,1.78
			c0.17,0.14,0.35,0.29,0.52,0.43c1.8,1.48,3.63,2.89,5.49,4.24c0.07,0.05,0.14,0.1,0.21,0.15c0.84,0.6,1.68,1.19,2.53,1.76
			c0.21,0.14,0.41,0.27,0.62,0.41c0.73,0.48,1.46,0.96,2.2,1.42c0.24,0.15,0.47,0.29,0.71,0.44c0.74,0.46,1.49,0.9,2.25,1.34
			c0.21,0.12,0.42,0.25,0.63,0.37c0.89,0.51,1.79,1,2.7,1.48c0.06,0.03,0.12,0.07,0.18,0.1c1.99,1.04,4.02,2,6.07,2.89
			c0.18,0.08,0.37,0.15,0.55,0.23c0.82,0.35,1.64,0.68,2.47,1c0.25,0.1,0.49,0.19,0.74,0.28c0.79,0.3,1.59,0.58,2.39,0.85
			c0.24,0.08,0.49,0.17,0.73,0.25c0.87,0.29,1.75,0.56,2.62,0.81c0.16,0.05,0.32,0.1,0.47,0.14c2.13,0.61,4.28,1.12,6.46,1.54
			c0.14,0.03,0.29,0.05,0.43,0.08c0.92,0.17,1.84,0.33,2.76,0.47c0.26,0.04,0.51,0.07,0.77,0.11c0.83,0.12,1.67,0.22,2.5,0.3
			c0.28,0.03,0.55,0.06,0.83,0.08c0.86,0.08,1.73,0.14,2.59,0.19c0.23,0.01,0.46,0.03,0.69,0.04c1.09,0.05,2.18,0.08,3.28,0.09
			c3.98-4.82-7.54-15.82-16.96-27c0,0-7.41-8.79-16.53-25.56c0,0-20.61-36.78-26.8-73.44c-9.78-57.86,52.17-120.73,79.68-155.42
			c-6.85-4.57-12.28-6.14-17.08-6.49c-0.01,0-0.03,0-0.04,0c-0.32-0.02-0.63-0.04-0.94-0.05c-0.03,0-0.05,0-0.08,0
			c-0.34-0.01-0.67-0.02-1-0.02c-0.27,0-0.54,0-0.82,0c-0.1,0-0.2,0.01-0.3,0.01c-0.18,0-0.37,0.01-0.55,0.02
			c-0.12,0.01-0.24,0.01-0.36,0.02c-0.18,0.01-0.35,0.02-0.53,0.03c-0.13,0.01-0.27,0.03-0.41,0.04c-0.17,0.02-0.34,0.03-0.51,0.05
			c-0.15,0.02-0.3,0.04-0.46,0.06c-0.17,0.02-0.33,0.04-0.5,0.07c-0.16,0.02-0.32,0.05-0.49,0.08c-0.17,0.03-0.34,0.06-0.51,0.09
			c-0.17,0.03-0.34,0.07-0.51,0.1c-0.17,0.04-0.35,0.07-0.52,0.11c-0.18,0.04-0.36,0.09-0.54,0.13c-0.18,0.04-0.35,0.08-0.53,0.13
			c-0.19,0.05-0.38,0.11-0.57,0.16c-0.18,0.05-0.36,0.1-0.54,0.16c-0.2,0.06-0.4,0.13-0.6,0.19c-0.18,0.06-0.37,0.12-0.55,0.18
			c-0.21,0.07-0.42,0.15-0.63,0.23c-0.19,0.07-0.38,0.14-0.57,0.21c-0.22,0.08-0.44,0.18-0.66,0.27c-0.19,0.08-0.39,0.16-0.58,0.24
			c-0.23,0.1-0.46,0.2-0.69,0.31c-0.2,0.09-0.39,0.18-0.59,0.27c-0.24,0.11-0.48,0.23-0.73,0.35c-0.2,0.1-0.41,0.2-0.61,0.31
			c-0.25,0.13-0.5,0.26-0.75,0.4c-0.21,0.11-0.42,0.23-0.63,0.35c-0.26,0.14-0.52,0.29-0.79,0.45c-0.21,0.12-0.43,0.25-0.65,0.38
			c-0.27,0.16-0.54,0.33-0.82,0.5c-0.22,0.14-0.44,0.28-0.67,0.42c-0.28,0.18-0.57,0.36-0.85,0.56c-0.22,0.15-0.45,0.3-0.68,0.46
			c-0.3,0.2-0.59,0.41-0.9,0.62c-0.23,0.16-0.46,0.33-0.7,0.5c-0.31,0.22-0.62,0.45-0.93,0.68c-0.24,0.18-0.48,0.36-0.72,0.54
			c-0.32,0.24-0.64,0.49-0.97,0.75c-0.24,0.19-0.49,0.39-0.73,0.58c-0.34,0.27-0.67,0.54-1.01,0.82c-0.25,0.2-0.5,0.42-0.75,0.62
			c-0.35,0.29-0.7,0.58-1.05,0.89c-0.25,0.22-0.51,0.44-0.76,0.67c-0.36,0.32-0.73,0.64-1.1,0.97c-0.26,0.23-0.52,0.47-0.78,0.71
			c-0.38,0.35-0.76,0.69-1.15,1.06c-0.26,0.24-0.52,0.49-0.78,0.74c-0.4,0.38-0.8,0.76-1.21,1.16c-0.25,0.24-0.51,0.5-0.77,0.76
			c-0.43,0.42-0.85,0.84-1.28,1.27c-0.24,0.24-0.49,0.5-0.74,0.75c-0.46,0.47-0.91,0.93-1.38,1.41c-0.22,0.23-0.45,0.47-0.67,0.71
			c-0.5,0.53-1,1.05-1.51,1.61c-0.13,0.14-0.27,0.29-0.4,0.43c-2,2.16-4.08,4.51-6.25,7.05c-0.08,0.09-0.15,0.18-0.23,0.27
			c-0.87,1.02-1.73,2.05-2.6,3.1C1138.03,327.8,1136.08,330.17,1134.15,332.51C1134.15,332.5,1134.15,332.51,1134.15,332.51z"/>
		<path class="st11" d="M1199.13,406.4c0,0,27-36,72,0C1271.13,406.4,1235.13,433.4,1199.13,406.4z"/>
		<path class="st6" d="M1253.13,404.4c0-4.03-1.34-7.74-3.58-10.73c-10.56-3.95-19.66-3.89-27.1-2.04
			c-3.29,3.26-5.33,7.78-5.33,12.78c0,5.03,2.07,9.58,5.4,12.84c9.46,1.97,18.32,1.19,25.81-0.65
			C1251.3,413.39,1253.13,409.11,1253.13,404.4z"/>
		<circle class="st7" cx="1235.13" cy="404.4" r="13.5"/>
		<path class="st11" d="M1181.13,406.4c0,0-27-36-72,0C1109.13,406.4,1145.13,433.4,1181.13,406.4z"/>
		<path class="st6" d="M1127.13,404.4c0-4.03,1.34-7.74,3.58-10.73c10.56-3.95,19.66-3.89,27.1-2.04c3.29,3.26,5.33,7.78,5.33,12.78
			c0,5.03-2.07,9.58-5.4,12.84c-9.46,1.97-18.32,1.19-25.81-0.65C1128.95,413.39,1127.13,409.11,1127.13,404.4z"/>
		<circle class="st7" cx="1145.13" cy="404.4" r="13.5"/>
		<path class="st12" d="M1095.02,451.4c16.12,3.55,28.28,2.12,36.61,0c14.87-3.78,22.92-10.64,36-9c7.99,1,14.08,5.41,18,9
			c5.89-3.88,15.28-8.78,27-9c13.34-0.25,19.94,5.75,35.39,9c8.01,1.69,20.12,2.99,36,0c-1.95,2.32-49.85,57.5-117,45
			C1125.76,488.72,1101.75,460.06,1095.02,451.4z"/>
		<path class="st8" d="M1095.02,451.4c16.12,3.55,28.28,2.12,36.61,0c14.87-3.78,22.92-10.64,36-9c7.99,1,14.08,5.41,18,9
			c5.89-3.88,15.28-8.78,27-9c13.34-0.25,19.94,5.75,35.39,9c8.01,1.69,20.12,2.99,36,0c-19.44,7.69-50.66,17.31-90,18
			C1150.02,470.17,1115.33,459.43,1095.02,451.4z"/>
	</g>
</g>
<g id="_x32_" class="st0">
	<g class="st1">
		<path class="st13" d="M913.38,114.51c-9.32,18.89-25.93,47.76-54,75.89c-54,54.14-107.58,61.86-108,90
			c-0.39,26.61,47.26,31.49,68.11,65.5c21.17,34.53,15.15,99.88-81.02,231.5c-100.41-135.56-107.22-200.72-86.09-234
			c21.17-33.33,70.95-35.61,72-63c1.01-26.29-44.32-38.14-99-90c-30.52-28.95-50.34-57.45-61.83-75.89
			C680.16,114.51,796.77,114.51,913.38,114.51z"/>
		<path class="st14" d="M562.6,114.51c31.74-11.2,71.06-21.7,116.78-26.74c100.42-11.08,182.98,9.49,233.05,26.74
			c-13.15,16.26-58.11,67.59-134.05,81.26C655.32,217.91,567.47,120.12,562.6,114.51z"/>
		<path class="st15" d="M886.49,141.76c1.73-6.02,0.96-8.18-0.11-9c-3.09-2.37-11.89,4.01-18,9c0,4.92,0,9.84,0,14.75
			C875.13,151.55,881.16,146.56,886.49,141.76z"/>
		<circle class="st16" cx="737.88" cy="146.26" r="85.32"/>
		<circle class="st6" cx="737.88" cy="146.26" r="49.5"/>
		<circle class="st7" cx="737.51" cy="146.26" r="26.82"/>
		
			<ellipse transform="matrix(0.2229 -0.9748 0.9748 0.2229 466.9138 837.5609)" class="st17" cx="758.81" cy="125.91" rx="13.67" ry="15.65"/>
		<path class="st15" d="M733.38,177.76v21.06c14.37,0.62,29.4-0.26,45-3.06v-18c-2.22-2.18-8.41-7.67-18-9
			C745.47,166.69,734.84,176.39,733.38,177.76z"/>
		<path class="st15" d="M778.38,195.76c16.46-2.96,31.46-7.7,45-13.46v-4.54c-9.45-9.28-14.81-10.16-18-9c-4.02,1.46-4.29,6.06-9,9
			c-5.43,3.4-12.55,1.94-18,0C778.38,183.76,778.38,189.76,778.38,195.76z"/>
		<path class="st18" d="M598.38,132.76h-17.22c4.87,4.31,10.64,9.12,17.22,14.11c4.58,0.3,8.34-2.24,9-5.11
			C608.19,138.24,604.58,133.09,598.38,132.76z"/>
		<path class="st19" d="M643.38,174.86v-15.1c-3.79-7.54-11.69-11.05-18-9c-5.95,1.94-8.25,8.1-8.58,9
			C620.78,162.32,624.42,166.12,643.38,174.86z"/>
		<path class="st15" d="M823.38,159.76v22.54c15.39-6.55,28.88-14.42,40.47-22.54c-1.75-2.21-6.18-7.11-13.47-9
			C840.99,148.33,830.64,151.88,823.38,159.76z"/>
		<path class="st20" d="M742.38,289.4c-18.01,5.17-106.92,181.02,0,117c108.99,55.03,139.32,61.12,144,54
			c5.21-7.93-56.67-110.65-63-117C793.63,313.56,762.43,297.67,742.38,289.4z"/>
		<path class="st9" d="M742.38,289.4c-18.01,5.17-56.01,18.75-90,54c-4.4,4.56-59.71,118.85-54,126c6.29,7.87,37.08,1.02,144-63
			C851.38,461.43,762.43,297.67,742.38,289.4z"/>
		<path class="st14" d="M742.38,451.4c11.01,108.77-2.81,138.03-18,144c-9.2,3.62-16.9-2.1-54,0c-20.23,1.14-34.71,3.79-36,0
			c-1.61-4.73,20.62-9.72,27-27c6.22-16.85-8.46-29.55-9-45C651.77,505.83,669.36,481.85,742.38,451.4z"/>
		<path class="st2" d="M742.38,451.4c23.62,73.45,23.95,108.28,18,126c-0.94,2.81-4.49,12.47,0,18c5.7,7.01,18.51,0.2,45,0
			c23.5-0.17,32.67,5.05,36,0c4.67-7.07-12.39-18.76-18-45c-3.75-17.54,0.44-24.93,0-36C822.75,498.28,807.33,476.45,742.38,451.4z"
			/>
		<path class="st21" d="M846.47,433.4c3.92,62.86-44.86,144.01-108,144c-63.05-0.01-111.51-80.94-108-144
			c2.27-40.78,26.02-69.48,57.91-108c27.16-32.8,41.29-36.08,50.09-36c10.55,0.09,23.69,5.09,48.91,36
			C822.16,368.02,844.06,394.87,846.47,433.4z"/>
		<path class="st13" d="M630.34,436.37c-0.01,0.44-0.01,0.89-0.02,1.33c0,0.19-0.01,0.39-0.01,0.58c-0.01,0.36-0.02,0.72-0.02,1.08
			c0,0.35,0,0.71,0.01,1.07c0,0.31,0.01,0.62,0.01,0.93c0,0.34,0,0.68,0.01,1.02c0.01,0.39,0.03,0.79,0.04,1.19
			c0.01,0.25,0.01,0.49,0.02,0.74c0.01,0.37,0.02,0.74,0.04,1.11c0.02,0.5,0.06,1,0.08,1.5c0,0.01,0,0.01,0,0.02
			c0,0.03,0,0.05,0,0.08c0.03,0.49,0.05,0.97,0.08,1.46c0.03,0.45,0.07,0.9,0.11,1.36c0.04,0.57,0.08,1.14,0.13,1.71
			c0.04,0.46,0.09,0.92,0.14,1.37c0.06,0.57,0.11,1.14,0.17,1.7c0.06,0.55,0.14,1.1,0.2,1.65c0.06,0.46,0.11,0.92,0.17,1.39
			c0,0.01,0,0.02,0,0.04c0,0,0,0.01,0,0.01c0.09,0.63,0.18,1.27,0.28,1.9c0.01,0.06,0.02,0.12,0.03,0.18
			c0.05,0.34,0.09,0.67,0.15,1.01c0.1,0.64,0.21,1.27,0.32,1.91c0.05,0.29,0.1,0.59,0.15,0.88c0.02,0.1,0.03,0.21,0.05,0.31
			c0.12,0.67,0.25,1.35,0.38,2.02c0.03,0.14,0.06,0.29,0.08,0.43c0.04,0.22,0.08,0.43,0.12,0.65c0.14,0.69,0.29,1.38,0.43,2.06
			c0.04,0.2,0.08,0.4,0.13,0.6c0.03,0.13,0.06,0.27,0.09,0.4c0,0.01,0,0.02,0.01,0.03c0.16,0.7,0.32,1.4,0.49,2.11
			c0.08,0.33,0.15,0.66,0.23,0.99c0.18,0.75,0.37,1.5,0.57,2.25c0.03,0.14,0.07,0.27,0.1,0.41c0.02,0.07,0.04,0.14,0.05,0.21
			c0.02,0.08,0.04,0.16,0.06,0.24c0.19,0.74,0.4,1.47,0.6,2.2c0.06,0.23,0.12,0.46,0.19,0.69c0.02,0.07,0.04,0.14,0.06,0.2
			c0.22,0.76,0.45,1.52,0.67,2.29c0.04,0.12,0.07,0.25,0.11,0.37c0.04,0.14,0.08,0.29,0.13,0.43c0.25,0.8,0.5,1.61,0.76,2.41
			c0.07,0.22,0.14,0.44,0.21,0.66c0.26,0.8,0.53,1.59,0.8,2.38c0.08,0.23,0.15,0.46,0.23,0.68c0.29,0.84,0.6,1.68,0.9,2.52
			c0.06,0.18,0.12,0.35,0.19,0.53c0.3,0.81,0.61,1.62,0.92,2.43c0.01,0.02,0.02,0.05,0.03,0.07c0.07,0.18,0.13,0.36,0.2,0.54
			c0.34,0.87,0.7,1.75,1.05,2.61c0.05,0.13,0.1,0.26,0.16,0.39c0.38,0.91,0.76,1.81,1.15,2.71c0.02,0.05,0.04,0.1,0.06,0.15
			c0.01,0.03,0.03,0.06,0.04,0.09c0.01,0.02,0.01,0.03,0.02,0.05c0.4,0.91,0.8,1.81,1.21,2.71c0.01,0.02,0.02,0.05,0.03,0.07
			c0.03,0.06,0.05,0.12,0.08,0.18c0.4,0.88,0.82,1.75,1.24,2.63c0.05,0.1,0.09,0.2,0.14,0.29c0,0.01,0.01,0.01,0.01,0.02
			c0.45,0.93,0.91,1.85,1.37,2.77c0.01,0.02,0.02,0.05,0.03,0.07c0.01,0.03,0.03,0.05,0.04,0.08c0.48,0.95,0.97,1.89,1.47,2.83
			c0,0.01,0.01,0.02,0.01,0.03c0,0.01,0.01,0.01,0.01,0.02c0.58,1.09,1.17,2.17,1.77,3.24c0.13,0.23,0.26,0.46,0.39,0.69
			c0.46,0.82,0.93,1.63,1.41,2.44c0.19,0.32,0.37,0.63,0.56,0.94c0.44,0.73,0.88,1.46,1.32,2.18c0.09,0.14,0.18,0.28,0.26,0.42
			c0.11,0.18,0.22,0.36,0.34,0.54c0.46,0.73,0.93,1.46,1.4,2.19c0.06,0.09,0.12,0.19,0.18,0.28c0.12,0.19,0.24,0.38,0.37,0.56
			c0.58,0.87,1.16,1.74,1.75,2.59c0.01,0.01,0.02,0.02,0.02,0.03c0.07,0.11,0.15,0.22,0.22,0.32c0.7,1.01,1.41,2.01,2.14,3
			c0.06,0.08,0.12,0.16,0.17,0.23c0.64,0.88,1.3,1.75,1.96,2.61c0.09,0.12,0.18,0.24,0.28,0.36c0.09,0.12,0.18,0.24,0.28,0.36
			c0.55,0.7,1.1,1.4,1.65,2.09c0.21,0.26,0.43,0.53,0.64,0.79c0.55,0.68,1.11,1.34,1.67,2.01c0.21,0.24,0.41,0.49,0.62,0.73
			c0.63,0.73,1.27,1.46,1.91,2.17c0.14,0.15,0.27,0.3,0.4,0.45c1.6,1.76,3.23,3.48,4.9,5.14c0.15,0.15,0.31,0.3,0.47,0.45
			c0.67,0.66,1.34,1.31,2.02,1.95c0.18,0.17,0.37,0.34,0.55,0.51c0.03,0.03,0.07,0.06,0.1,0.1c0.64,0.59,1.28,1.17,1.93,1.75
			c0.23,0.2,0.46,0.4,0.68,0.6c0.69,0.6,1.38,1.19,2.08,1.77c0.09,0.07,0.17,0.14,0.26,0.22c0.09,0.07,0.18,0.15,0.26,0.22
			c1.8,1.48,3.62,2.89,5.49,4.23c0.08,0.05,0.15,0.11,0.23,0.16c0.83,0.6,1.67,1.18,2.51,1.75c0.06,0.04,0.11,0.07,0.17,0.11
			c0.15,0.1,0.3,0.2,0.46,0.3c0.73,0.48,1.46,0.96,2.2,1.42c0.21,0.13,0.42,0.26,0.63,0.39c0.03,0.02,0.05,0.03,0.08,0.05
			c0.74,0.45,1.48,0.9,2.23,1.33c0.17,0.1,0.34,0.2,0.51,0.3c0.04,0.03,0.09,0.05,0.13,0.08c0.89,0.51,1.79,1,2.7,1.48
			c0.06,0.03,0.12,0.07,0.18,0.1c1.99,1.04,4.02,2,6.07,2.89c0.04,0.02,0.09,0.04,0.13,0.05c0.14,0.06,0.28,0.12,0.43,0.18
			c0.82,0.35,1.64,0.68,2.47,1c0.13,0.05,0.26,0.1,0.39,0.15c0.12,0.05,0.24,0.09,0.36,0.14c0.79,0.3,1.58,0.58,2.38,0.85
			c0.24,0.08,0.49,0.17,0.73,0.25c0.87,0.29,1.74,0.55,2.61,0.81c0.08,0.02,0.15,0.05,0.23,0.07c0.09,0.03,0.17,0.05,0.26,0.08
			c2.13,0.61,4.28,1.12,6.46,1.54c0.14,0.03,0.29,0.05,0.43,0.08c0.92,0.17,1.83,0.33,2.76,0.47c0.13,0.02,0.25,0.03,0.38,0.05
			c0.13,0.02,0.26,0.04,0.39,0.05c0.83,0.12,1.67,0.22,2.5,0.3c0.09,0.01,0.19,0.02,0.28,0.03c0.18,0.02,0.37,0.04,0.55,0.06
			c0.86,0.08,1.72,0.14,2.58,0.19c0.16,0.01,0.32,0.02,0.48,0.03c0.07,0,0.14,0.01,0.21,0.01c1.09,0.05,2.18,0.08,3.28,0.09
			c-4.63-3.43-10.96-8.55-17.74-15.5c-35.47-36.37-42.5-81.45-45-99c-3.18-22.34-14.33-100.75,36-144
			c16.09-13.83,33.69-19.95,46.14-22.92c0,0,0,0,0,0c-6.87-4.58-12.31-6.15-17.13-6.5c-0.32-0.02-0.63-0.04-0.94-0.05
			c-0.03,0-0.05,0-0.08,0c-0.34-0.01-0.67-0.02-1-0.02c-0.27,0-0.54,0-0.82,0c-0.1,0-0.2,0.01-0.3,0.01
			c-0.19,0.01-0.38,0.01-0.57,0.02c-0.12,0.01-0.24,0.01-0.35,0.02c-0.09,0.01-0.17,0.01-0.26,0.02c-0.09,0.01-0.18,0.01-0.28,0.02
			c-0.13,0.01-0.26,0.02-0.38,0.04c-0.18,0.02-0.36,0.03-0.54,0.05c-0.15,0.02-0.3,0.04-0.45,0.06c-0.17,0.02-0.33,0.04-0.5,0.07
			c-0.15,0.02-0.31,0.05-0.47,0.08c-0.18,0.03-0.35,0.06-0.53,0.09c-0.17,0.03-0.34,0.07-0.51,0.1c-0.17,0.04-0.35,0.07-0.52,0.11
			c-0.17,0.04-0.35,0.08-0.52,0.13c-0.18,0.04-0.37,0.09-0.55,0.14c-0.19,0.05-0.38,0.1-0.57,0.16c-0.18,0.05-0.36,0.1-0.54,0.16
			c-0.2,0.06-0.4,0.13-0.6,0.19c-0.18,0.06-0.37,0.12-0.55,0.18c-0.2,0.07-0.41,0.15-0.62,0.22c-0.12,0.04-0.24,0.09-0.36,0.14
			c-0.07,0.03-0.14,0.05-0.21,0.08c-0.22,0.08-0.44,0.18-0.66,0.27c-0.19,0.08-0.39,0.16-0.58,0.24c-0.23,0.1-0.46,0.2-0.69,0.31
			c-0.1,0.05-0.21,0.1-0.32,0.15c-0.1,0.04-0.19,0.09-0.29,0.13c-0.24,0.11-0.48,0.23-0.72,0.35c-0.2,0.1-0.41,0.2-0.61,0.31
			c-0.25,0.13-0.5,0.26-0.75,0.4c-0.21,0.11-0.43,0.23-0.65,0.35c-0.26,0.14-0.51,0.29-0.78,0.44c-0.21,0.12-0.43,0.25-0.65,0.38
			c-0.27,0.16-0.54,0.33-0.82,0.5c-0.22,0.14-0.44,0.28-0.67,0.42c-0.28,0.18-0.57,0.36-0.85,0.56c-0.08,0.05-0.16,0.11-0.23,0.16
			c-0.15,0.1-0.3,0.2-0.45,0.31c-0.29,0.2-0.59,0.4-0.89,0.61c-0.23,0.16-0.46,0.33-0.7,0.5c-0.3,0.22-0.61,0.44-0.92,0.67
			c-0.18,0.13-0.36,0.27-0.55,0.41c-0.06,0.05-0.12,0.09-0.18,0.14c-0.32,0.24-0.64,0.49-0.97,0.74c-0.25,0.19-0.5,0.4-0.75,0.6
			c-0.33,0.26-0.66,0.53-0.99,0.8c-0.16,0.13-0.32,0.27-0.48,0.4c-0.09,0.08-0.18,0.15-0.28,0.23c-0.35,0.29-0.69,0.58-1.04,0.88
			c-0.26,0.22-0.52,0.45-0.78,0.68c-0.36,0.31-0.72,0.63-1.08,0.96c-0.26,0.23-0.52,0.47-0.78,0.71c-0.38,0.35-0.76,0.69-1.15,1.06
			c-0.26,0.24-0.52,0.49-0.78,0.74c-0.4,0.38-0.8,0.76-1.21,1.16c-0.25,0.24-0.51,0.5-0.77,0.76c-0.43,0.42-0.85,0.84-1.28,1.27
			c-0.24,0.24-0.49,0.5-0.74,0.75c-0.46,0.46-0.91,0.93-1.37,1.41c-0.23,0.24-0.48,0.5-0.71,0.75c-0.49,0.51-0.98,1.03-1.47,1.56
			c-0.13,0.14-0.27,0.29-0.4,0.43c-0.86,0.94-1.75,1.91-2.64,2.92c-0.26,0.29-0.51,0.57-0.77,0.87c-0.38,0.43-0.76,0.86-1.15,1.3
			c-0.6,0.68-1.2,1.38-1.8,2.09c-0.04,0.04-0.08,0.09-0.12,0.14c-0.08,0.09-0.15,0.17-0.22,0.26c-0.78,0.92-1.57,1.86-2.38,2.84
			c-1.54,1.87-3.4,4.12-4.65,5.62c-0.52,0.62-1.03,1.25-1.54,1.87c-0.16,0.2-0.32,0.41-0.49,0.6c0,0-0.01,0.01-0.01,0.01
			c0,0,0,0,0,0c-0.88,1.07-1.76,2.14-2.63,3.2c-0.03,0.04-0.07,0.08-0.1,0.12c-4.1,5-8.01,9.86-11.72,14.63
			c-0.25,0.32-0.51,0.65-0.76,0.97c-0.49,0.64-0.98,1.28-1.47,1.91c-0.32,0.42-0.64,0.84-0.96,1.25c-0.45,0.6-0.9,1.19-1.35,1.79
			c-0.34,0.45-0.67,0.9-1.01,1.34c-0.43,0.58-0.85,1.15-1.27,1.73c-0.34,0.46-0.68,0.93-1.02,1.39c-0.41,0.56-0.81,1.12-1.21,1.68
			c-0.34,0.48-0.68,0.95-1.01,1.43c-0.39,0.55-0.77,1.1-1.16,1.66c-0.33,0.48-0.66,0.96-0.99,1.44c-0.37,0.55-0.74,1.09-1.11,1.64
			c-0.32,0.48-0.64,0.97-0.96,1.45c-0.36,0.54-0.71,1.08-1.06,1.63c-0.32,0.49-0.63,0.98-0.94,1.47c-0.34,0.53-0.68,1.07-1.01,1.6
			c-0.31,0.5-0.62,1-0.92,1.51c-0.32,0.53-0.64,1.05-0.95,1.58c-0.3,0.51-0.6,1.03-0.9,1.54c-0.3,0.52-0.6,1.03-0.9,1.55
			c-0.31,0.54-0.6,1.09-0.9,1.63c-0.27,0.49-0.55,0.98-0.81,1.47c-0.37,0.69-0.73,1.38-1.08,2.07c-0.34,0.66-0.68,1.33-1.01,1.99
			c-0.35,0.7-0.7,1.41-1.04,2.12c-0.22,0.46-0.42,0.92-0.64,1.38c-0.27,0.59-0.55,1.19-0.82,1.78c-0.21,0.48-0.42,0.97-0.62,1.45
			c-0.25,0.58-0.5,1.16-0.74,1.74c-0.2,0.49-0.4,0.99-0.59,1.49c-0.23,0.58-0.46,1.15-0.67,1.73c-0.19,0.5-0.37,1-0.55,1.51
			c-0.21,0.58-0.42,1.16-0.62,1.75c-0.17,0.51-0.34,1.01-0.51,1.52c-0.19,0.59-0.38,1.18-0.56,1.77c-0.16,0.51-0.31,1.02-0.46,1.54
			c-0.18,0.6-0.35,1.2-0.51,1.8c-0.14,0.51-0.28,1.02-0.41,1.54c-0.16,0.61-0.31,1.23-0.46,1.85c-0.12,0.51-0.25,1.03-0.36,1.54
			c-0.14,0.63-0.27,1.26-0.4,1.9c-0.11,0.51-0.21,1.02-0.31,1.54c-0.12,0.66-0.24,1.32-0.35,1.98c-0.09,0.5-0.17,1-0.25,1.5
			c-0.11,0.7-0.2,1.41-0.3,2.12c-0.06,0.47-0.13,0.94-0.19,1.42c-0.1,0.79-0.18,1.59-0.26,2.39c-0.04,0.4-0.09,0.8-0.13,1.21
			c-0.11,1.21-0.2,2.43-0.27,3.66C630.41,434.39,630.37,435.37,630.34,436.37C630.34,436.37,630.34,436.37,630.34,436.37z"/>
		<path class="st22" d="M729.49,406.4c-0.69-1.75-8.33-20.26-27-24.5c-17.18-3.91-36.39,5.94-45,24.5
			C657.49,406.4,693.49,433.4,729.49,406.4z"/>
		<path class="st13" d="M657.49,406.4c0,0,5.7,4.27,14.83,7.72c0.3-8.78,1.16-18.1,2.89-27.52
			C667.85,390.96,661.51,397.73,657.49,406.4z"/>
		<path class="st20" d="M729.49,406.4c0,0-27-36-72,0c0.28,2.2,3.2,22.52,18,29.5C691.7,443.55,717.94,433.19,729.49,406.4z"/>
		<path class="st9" d="M657.49,406.4c0.26,2.04,2.81,19.73,15.05,27.83c-0.59-11.32-0.53-24.53,1.23-38.28
			C668.64,398.42,663.21,401.82,657.49,406.4z"/>
		<path class="st23" d="M729.49,406.4c0,0-27-36-72,0c2.7,5.91,6.13,9.38,9,11.5C680.78,428.46,706.14,423.97,729.49,406.4z"/>
		<path class="st24" d="M666.49,417.9c1.75,1.29,3.66,2.35,5.71,3.2c0.02-7.94,0.45-16.44,1.56-25.15
			c-5.12,2.47-10.55,5.88-16.27,10.46C660.18,412.31,663.62,415.78,666.49,417.9z"/>
		<path class="st13" d="M643.38,451.4c16.12,3.55,28.28,2.12,36.61,0c14.87-3.78,22.92-10.64,36-9c7.99,1,14.08,5.41,18,9
			c5.89-3.88,15.28-8.78,27-9c13.34-0.25,19.94,5.75,35.39,9c8.01,1.69,20.12,2.99,36,0c-1.95,2.32-49.85,57.5-117,45
			C674.12,488.72,650.11,460.06,643.38,451.4z"/>
		<path class="st25" d="M643.38,451.4c4.42,5.69,16.32,20.03,35.67,31.37c-1.85-8.19-2.88-15.06-3.57-19.87
			c-0.38-2.67-0.88-6.16-1.36-10.29C666.28,453.9,656.06,454.2,643.38,451.4z"/>
		<path class="st26" d="M643.38,451.4c16.12,3.55,28.28,2.12,36.61,0c14.87-3.78,22.92-10.64,36-9c7.99,1,14.08,5.41,18,9
			c5.89-3.88,15.28-8.78,27-9c13.34-0.25,19.94,5.75,35.39,9c8.01,1.69,20.12,2.99,36,0c-19.44,7.69-50.66,17.31-90,18
			C698.37,470.17,663.69,459.43,643.38,451.4z"/>
		<path class="st13" d="M643.38,451.4c8.34,3.3,19.1,7.05,31.93,10.27c-0.35-2.48-0.77-5.54-1.19-9.06
			C666.28,453.9,656.06,454.2,643.38,451.4z"/>
		<path class="st27" d="M737.88,231.58c1.32,0,2.64-0.04,3.95-0.1c0.24-0.01,0.49-0.02,0.73-0.03c1.23-0.07,2.44-0.16,3.65-0.28
			c0.31-0.03,0.62-0.06,0.93-0.1c1.16-0.13,2.32-0.27,3.47-0.44c0.31-0.05,0.63-0.1,0.94-0.15c0.89-0.14,1.78-0.3,2.67-0.48
			c0.44-0.09,0.89-0.17,1.33-0.26c0.96-0.2,1.91-0.42,2.86-0.66c0.58-0.14,1.16-0.29,1.73-0.45c0.53-0.14,1.06-0.3,1.59-0.45
			c1.01-0.3,2.02-0.61,3.02-0.94c0.31-0.1,0.62-0.21,0.93-0.31c3.75-1.29,7.38-2.84,10.87-4.62c0,0,0,0,0,0
			c-40.84,3.71-79.57-17.73-96.98-53.36c-13.24-27.09-12.5-58.99,1.17-86.03c-3.58,3.23-6.87,6.77-9.86,10.56
			c-8.06,12.27-12.83,22.29-14.62,27.91c-0.29,0.94-0.55,1.89-0.81,2.84c-1,3.83-1.66,7.47-2.09,10.46
			c-0.51,3.79-0.8,7.65-0.8,11.59c0,7.36,0.93,14.51,2.69,21.32c0.7,2.73,1.53,5.4,2.49,8.01
			C669.7,208.27,701.07,231.58,737.88,231.58z"/>
		<path class="st19" d="M688.38,191.92v-14.16c-0.86-1.91-3.5-7.1-9-9c-2.73-0.94-5.33-0.79-9,0c-4.69,1.01-12.2,3.27-20.96,9
			C655.09,180.41,661.35,183.05,688.38,191.92z"/>
		<path class="st15" d="M733.38,198.83v-21.06c-1.46-1.38-12.09-11.08-27-9c-9.59,1.33-15.78,6.82-18,9c0,4.72,0,9.44,0,14.16
			C702.49,195.66,717.53,198.15,733.38,198.83z"/>
		<path class="st28" d="M688.38,86.85c-2.98,0.28-5.98,0.58-9,0.91c-12.49,1.38-24.49,3.18-36,5.27v21.73c3.11,6.4,6.48,8.39,9,9
			c7.54,1.83,13.13-7.25,27-9c3.76-0.47,6.92-0.26,9,0C688.38,105.46,688.38,96.16,688.38,86.85z"/>
		<path class="st22" d="M747.49,406.4c5.82-14.75,20.14-24.5,36-24.5s30.18,9.75,36,24.5C819.49,406.4,783.49,433.4,747.49,406.4z"
			/>
		<path class="st20" d="M747.49,406.9c0,0,27-36,72,0c-0.33,2.34-3.39,22.1-18,29C785.29,443.55,759.21,433.36,747.49,406.9z"/>
		<path class="st29" d="M747.49,406.9c0,0,27-36,72,0c-2.75,5.55-6.12,8.91-9,11C795.97,428.46,770.76,424.02,747.49,406.9z"/>
		<path class="st30" d="M768.45,397.76l-1.72,0.78c-0.24,0.11-0.52,0-0.63-0.23l-6.65-14.62c-0.11-0.24,0-0.52,0.23-0.63l1.72-0.78
			c0.24-0.11,0.52,0,0.63,0.23l6.65,14.62C768.79,397.37,768.69,397.65,768.45,397.76z"/>
		<path class="st14" d="M783.01,393.74h-1.89c-0.26,0-0.47-0.21-0.47-0.47l0-16.06c0-0.26,0.21-0.47,0.47-0.47l1.89,0
			c0.26,0,0.47,0.21,0.47,0.47l0,16.06C783.49,393.52,783.28,393.74,783.01,393.74z"/>
		<path class="st31" d="M800.41,395.75l-1.73-0.75c-0.24-0.1-0.35-0.38-0.25-0.62l6.36-14.75c0.1-0.24,0.38-0.35,0.62-0.25
			l1.73,0.75c0.24,0.1,0.35,0.38,0.25,0.62l-6.36,14.75C800.92,395.75,800.65,395.86,800.41,395.75z"/>
		<path class="st30" d="M705.46,399.08l1.72,0.78c0.24,0.11,0.52,0,0.63-0.23l6.65-14.62c0.11-0.24,0-0.52-0.23-0.63l-1.72-0.78
			c-0.24-0.11-0.52,0-0.63,0.23l-6.65,14.62C705.12,398.69,705.22,398.97,705.46,399.08z"/>
		<path class="st14" d="M690.89,395.06h1.89c0.26,0,0.47-0.21,0.47-0.47l0-16.06c0-0.26-0.21-0.47-0.47-0.47h-1.89
			c-0.26,0-0.47,0.21-0.47,0.47l0,16.06C690.42,394.85,690.63,395.06,690.89,395.06z"/>
		<path class="st30" d="M673.5,397.08l1.73-0.75c0.24-0.1,0.35-0.38,0.25-0.62l-6.36-14.75c-0.1-0.24-0.38-0.35-0.62-0.25
			l-1.73,0.75c-0.24,0.1-0.35,0.38-0.25,0.62l6.36,14.75C672.98,397.07,673.26,397.18,673.5,397.08z"/>
		<path class="st30" d="M675.52,409.73l-1.72-0.78c-0.24-0.11-0.52,0-0.63,0.23l-6.65,14.62c-0.11,0.24,0,0.52,0.23,0.63l1.72,0.78
			c0.24,0.11,0.52,0,0.63-0.23l6.65-14.62C675.87,410.11,675.76,409.83,675.52,409.73z"/>
		<path class="st14" d="M690.09,413.75h-1.89c-0.26,0-0.47,0.21-0.47,0.47l0,16.06c0,0.26,0.21,0.47,0.47,0.47l1.89,0
			c0.26,0,0.47-0.21,0.47-0.47l0-16.06C690.56,413.96,690.35,413.75,690.09,413.75z"/>
		<path class="st31" d="M707.48,411.73l-1.73,0.75c-0.24,0.1-0.35,0.38-0.25,0.62l6.36,14.75c0.1,0.24,0.38,0.35,0.62,0.25
			l1.73-0.75c0.24-0.1,0.35-0.38,0.25-0.62l-6.36-14.75C708,411.73,707.72,411.62,707.48,411.73z"/>
		<g>
			<path class="st30" d="M801.45,408.87l1.72-0.78c0.24-0.11,0.52,0,0.63,0.23l6.65,14.62c0.11,0.24,0,0.52-0.23,0.63l-1.72,0.78
				c-0.24,0.11-0.52,0-0.63-0.23l-6.65-14.62C801.11,409.26,801.21,408.98,801.45,408.87z"/>
			<path class="st14" d="M786.89,412.89h1.89c0.26,0,0.47,0.21,0.47,0.47l0,16.06c0,0.26-0.21,0.47-0.47,0.47l-1.89,0
				c-0.26,0-0.47-0.21-0.47-0.47l0-16.06C786.41,413.11,786.62,412.89,786.89,412.89z"/>
			<path class="st31" d="M769.49,410.88l1.73,0.75c0.24,0.1,0.35,0.38,0.25,0.62L765.12,427c-0.1,0.24-0.38,0.35-0.62,0.25
				l-1.73-0.75c-0.24-0.1-0.35-0.38-0.25-0.62l6.36-14.75C768.98,410.88,769.25,410.77,769.49,410.88z"/>
		</g>
		<path class="st14" d="M747.49,406.4c15.76-16.38,37.23-22.5,54-15.5c9.19,3.83,14.88,10.73,18,15.5
			C819.49,406.4,783.49,433.4,747.49,406.4z"/>
		<path class="st30" d="M747.49,406.9c0,0,27-36,72,0c-4.12,3.88-10.06,8.28-18,11C775.11,426.93,750.58,409.21,747.49,406.9z"/>
		<path class="st11" d="M747.49,406.4c0,0,27-36,72,0C819.49,406.4,783.49,433.4,747.49,406.4z"/>
		<path class="st6" d="M801.49,404.4c0-4.03-1.34-7.74-3.58-10.73c-10.56-3.95-19.66-3.89-27.1-2.04
			c-3.29,3.26-5.33,7.78-5.33,12.78c0,5.03,2.07,9.58,5.4,12.84c9.46,1.97,18.32,1.19,25.81-0.65
			C799.66,413.39,801.49,409.11,801.49,404.4z"/>
		<circle class="st7" cx="783.49" cy="404.4" r="13.5"/>
		<circle class="st11" cx="794.68" cy="398.24" r="4.54"/>
		<path class="st32" d="M729.49,406.4c0,0-27-36-72,0c4.02,4.01,9.95,8.66,18,11.5C701.93,427.23,726.84,408.46,729.49,406.4z"/>
		<path class="st33" d="M778.38,86.33c-14.38-1.16-29.4-1.78-45-1.69v30.12c11.41,10.84,25.89,14.33,36,9c2.21-1.17,5.92-3.65,9-9
			C778.38,105.29,778.38,95.81,778.38,86.33z"/>
		<path class="st15" d="M733.38,84.64c-14.52,0.08-29.54,0.77-45,2.21v27.91c2.22,2.18,8.41,7.67,18,9c14.91,2.08,25.54-7.62,27-9
			C733.38,104.72,733.38,94.68,733.38,84.64z"/>
		<path class="st33" d="M778.38,86.33v28.43c8.31,8.53,14.12,9.7,18,9c6.18-1.12,8.94-7.27,18-9c3.68-0.7,6.87-0.38,9,0
			c0-7.63,0-15.26,0-22.89C809.22,89.52,794.19,87.6,778.38,86.33z"/>
		<path class="st18" d="M598.43,103.3c-12.45,3.52-24.09,7.32-34.81,11.21c0.06,0.07,18.12,12.83,26.05,9.26
			c4.96-2.23,7.59-6.63,8.76-9C598.43,110.94,598.43,107.12,598.43,103.3z"/>
		<path class="st15" d="M823.38,91.88v22.89c10.22,9.64,15.27,10.21,18,9c4.58-2.04,6.01-9.39,9-9c2.28,0.3,2.21,4.78,5.11,6.14
			c3.47,1.63,8.79-2.34,12.89-6.14c0-4.48,0-8.95,0-13.43C854.61,97.83,839.56,94.57,823.38,91.88z"/>
		<path class="st15" d="M868.38,114.76c1,2.71,2.57,5.53,5.11,6.14c5.15,1.24,10.83-7.45,12.89-6.14c1.66,1.06-1.8,6.82,0,9
			c1.66,2.02,8.23,0.75,25.84-9c0.04-0.04,0.07-0.09,0.11-0.13c0.04-0.04,0.07-0.09,0.1-0.13c-12.68-4.37-27.44-8.95-44.05-13.17
			V114.76z"/>
		<path class="st19" d="M643.38,93.04c-15.99,2.91-31.01,6.41-45,10.26v11.47c11.41,10.84,25.89,14.33,36,9c2.21-1.17,5.92-3.65,9-9
			C643.38,107.52,643.38,100.28,643.38,93.04z"/>
		<path class="st20" d="M913.38,114.51c0,0-104.95-104.95-174.91-69.97c-69.97-34.98-174.91,69.97-174.91,69.97
			c31.74-11.2,71.06-21.7,116.78-26.74C780.76,76.68,863.31,97.26,913.38,114.51z"/>
		<path class="st8" d="M625.38,190.4c5.31,5.03,10.52,9.68,15.62,14.01c30.3,18.37,65.65,28.29,102.34,27.35
			c51.33-1.31,99.11-23.73,133.29-60.34c17.93-21.64,29.53-42.28,36.76-56.92c-13.15,16.26-58.11,67.59-134.05,81.26
			c-123.06,22.14-210.91-75.64-215.78-81.26C575.04,132.95,594.86,161.45,625.38,190.4z"/>
		<path class="st13" d="M601.66,148.62c-4.55-3.44-14.57-10.86-26.89-22.6c-6.46-6.15-10.3-10.46-11.22-11.52
			c11.49,18.44,31.31,46.95,61.83,75.89c5.31,5.03,10.52,9.68,15.62,14.01c0.89,0.54,1.79,1.08,2.7,1.6
			c0.07,0.04,0.15,0.09,0.22,0.13c0.86,0.5,1.72,0.99,2.58,1.47c0.12,0.07,0.24,0.14,0.37,0.21c0.83,0.46,1.66,0.92,2.5,1.37
			c0.16,0.09,0.32,0.17,0.48,0.26c0.81,0.44,1.63,0.87,2.45,1.29c0.18,0.09,0.36,0.19,0.54,0.28c0.81,0.41,1.62,0.82,2.43,1.23
			c0.2,0.1,0.39,0.19,0.59,0.29c0.81,0.4,1.62,0.79,2.43,1.17c0.2,0.1,0.41,0.19,0.61,0.29c0.81,0.38,1.62,0.76,2.44,1.12
			c0.21,0.09,0.41,0.18,0.62,0.28c0.82,0.37,1.64,0.73,2.47,1.08c0.2,0.09,0.4,0.17,0.61,0.26c0.83,0.36,1.67,0.71,2.51,1.05
			c0.19,0.08,0.38,0.15,0.56,0.23c0.86,0.35,1.72,0.69,2.58,1.03c0.15,0.06,0.3,0.12,0.46,0.17c0.9,0.35,1.81,0.69,2.72,1.03
			c0.08,0.03,0.16,0.06,0.23,0.08c5.03,1.85,10.16,3.48,15.35,4.9c0.13,0.03,0.25,0.07,0.37,0.1c0.8,0.22,1.61,0.42,2.41,0.63
			c0.31,0.08,0.62,0.16,0.93,0.24c0.72,0.18,1.45,0.35,2.17,0.53c0.4,0.09,0.79,0.19,1.19,0.28c0.68,0.16,1.36,0.31,2.05,0.46
			c0.45,0.1,0.89,0.2,1.34,0.29c0.65,0.14,1.3,0.27,1.96,0.4c0.48,0.1,0.96,0.19,1.44,0.29c0.63,0.12,1.26,0.24,1.89,0.35
			c0.51,0.09,1.02,0.19,1.53,0.27c0.61,0.11,1.23,0.21,1.84,0.31c0.53,0.09,1.06,0.17,1.59,0.25c0.6,0.09,1.21,0.18,1.81,0.27
			c0.55,0.08,1.1,0.16,1.64,0.23c0.59,0.08,1.18,0.16,1.78,0.23c0.57,0.07,1.13,0.14,1.7,0.2c0.58,0.07,1.16,0.13,1.74,0.2
			c0.59,0.06,1.17,0.12,1.76,0.18c0.57,0.05,1.13,0.11,1.7,0.16c0.6,0.05,1.21,0.1,1.81,0.15c0.55,0.04,1.11,0.09,1.66,0.13
			c0.62,0.04,1.24,0.08,1.87,0.12c0.54,0.03,1.08,0.07,1.63,0.09c0.65,0.03,1.29,0.06,1.94,0.08c0.52,0.02,1.04,0.04,1.56,0.06
			c0.69,0.02,1.38,0.03,2.07,0.05c0.48,0.01,0.96,0.02,1.44,0.03c0.77,0.01,1.54,0.01,2.31,0.01c0.41,0,0.81,0,1.22,0
			c1.18-0.01,2.36-0.03,3.54-0.06c0.12,0,0.17-0.05,0.17-0.06c0.39-1.11-60.56-9.88-104.02-47.8
			C625.63,171.81,620.95,163.21,601.66,148.62z"/>
		<path class="st26" d="M711.49,66.9c-56.52,0.21-90.67,14.39-99,18c-21.38,9.27-37.46,20.4-47.98,28.67
			c-0.62,0.6-0.95,0.94-0.95,0.94c31.74-11.2,71.06-21.7,116.78-26.74c98.28-10.85,179.43,8.63,229.78,25.63
			C877.8,99.02,797.72,66.59,711.49,66.9z"/>
		<path class="st14" d="M729.49,406.4c-15.76-16.38-37.23-22.5-54-15.5c-9.19,3.83-14.88,10.73-18,15.5
			C657.49,406.4,693.49,433.4,729.49,406.4z"/>
		<path class="st34" d="M657.49,406.4c0,0,5.7,4.27,14.83,7.72c0.25-7.29,0.88-14.95,2.08-22.73
			C665.85,395.3,660.48,401.82,657.49,406.4z"/>
		<path class="st11" d="M729.49,406.4c0,0-27-36-72,0C657.49,406.4,693.49,433.4,729.49,406.4z"/>
		<path class="st35" d="M672.32,414.12c0.2-5.87,0.65-11.97,1.44-18.18c-5.12,2.47-10.55,5.88-16.27,10.46
			C657.49,406.4,663.19,410.68,672.32,414.12z"/>
		<path class="st6" d="M675.49,404.4c0-4.03,1.34-7.74,3.58-10.73c10.56-3.95,19.66-3.89,27.1-2.04c3.29,3.26,5.33,7.78,5.33,12.78
			c0,5.03-2.07,9.58-5.4,12.84c-9.46,1.97-18.32,1.19-25.81-0.65C677.31,413.39,675.49,409.11,675.49,404.4z"/>
		<circle class="st7" cx="693.49" cy="404.4" r="13.5"/>
		<circle class="st11" cx="702.24" cy="398.24" r="4.54"/>
	</g>
</g>
<g id="_x31_">
	
		<radialGradient id="SVGID_1_" cx="44.4186" cy="397.5247" r="283.5148" fx="-125.1885" fy="406.8293" gradientTransform="matrix(0.0208 -1.2199 -1.219 -0.02 715.783 220.8726)" gradientUnits="userSpaceOnUse">
		<stop  offset="0.1838" style="stop-color:#1D2088"/>
		<stop  offset="0.4057" style="stop-color:#601986"/>
		<stop  offset="0.4774" style="stop-color:#6D1885"/>
		<stop  offset="0.6161" style="stop-color:#8C1581"/>
		<stop  offset="0.8078" style="stop-color:#BA137A"/>
		<stop  offset="1" style="stop-color:#E61673"/>
	</radialGradient>
	
		<linearGradient id="SVGID_2_" gradientUnits="userSpaceOnUse" x1="-25" y1="342.8032" x2="525" y2="342.8032" gradientTransform="matrix(1 0 0 -1 0 592.8032)">
		<stop  offset="0" style="stop-color:#187FC4"/>
		<stop  offset="1" style="stop-color:#187FC4;stop-opacity:0"/>
	</linearGradient>
	<rect x="-24.5" y="-24.5" class="st36" width="549" height="549"/>
	<g>
		<path class="st13" d="M394.4,82.48c-7.67,15.55-21.35,39.32-44.46,62.48c-44.46,44.57-88.57,50.93-88.92,74.1
			c-0.32,21.91,38.91,25.93,56.07,53.93c17.43,28.43,12.48,82.23-66.7,190.59c-82.66-111.61-88.27-165.25-70.87-192.65
			c17.43-27.44,58.41-29.32,59.28-51.87c0.83-21.64-36.49-31.4-81.51-74.1c-25.13-23.83-41.45-47.3-50.9-62.48
			C202.39,82.48,298.39,82.48,394.4,82.48z"/>
		<path class="st14" d="M105.6,82.48c26.13-9.22,58.5-17.86,96.15-22.02c82.68-9.13,150.64,7.82,191.87,22.02
			c-10.83,13.38-47.85,55.65-110.36,66.9C181.94,167.61,109.61,87.1,105.6,82.48z"/>
		<path class="st15" d="M372.26,104.92c1.43-4.96,0.79-6.74-0.09-7.41c-2.54-1.95-9.79,3.3-14.82,7.41c0,4.05,0,8.1,0,12.15
			C362.9,112.98,367.87,108.87,372.26,104.92z"/>
		<circle class="st16" cx="249.91" cy="108.63" r="70.24"/>
		<circle class="st6" cx="249.91" cy="108.63" r="40.75"/>
		<circle class="st7" cx="249.61" cy="108.63" r="22.08"/>
		
			<ellipse transform="matrix(0.2229 -0.9748 0.9748 0.2229 118.0344 331.8112)" class="st17" cx="267.14" cy="91.87" rx="11.25" ry="12.89"/>
		<path class="st15" d="M246.21,134.56v17.34c11.83,0.51,24.21-0.21,37.05-2.52v-14.82c-1.83-1.79-6.93-6.31-14.82-7.41
			C256.16,125.44,247.41,133.43,246.21,134.56z"/>
		<path class="st15" d="M283.25,149.38c13.55-2.44,25.9-6.34,37.05-11.08v-3.74c-7.78-7.64-12.19-8.37-14.82-7.41
			c-3.31,1.2-3.53,4.99-7.41,7.41c-4.47,2.8-10.33,1.6-14.82,0C283.25,139.5,283.25,144.44,283.25,149.38z"/>
		<path class="st18" d="M135.06,97.51h-14.18c4.01,3.55,8.76,7.51,14.18,11.62c3.77,0.25,6.87-1.84,7.41-4.21
			C143.14,102.02,140.17,97.78,135.06,97.51z"/>
		<path class="st19" d="M172.11,132.17v-12.43c-3.12-6.2-9.62-9.1-14.82-7.41c-4.9,1.59-6.8,6.67-7.06,7.41
			C153.5,121.85,156.5,124.97,172.11,132.17z"/>
		<path class="st15" d="M320.3,119.74v18.56c12.67-5.39,23.78-11.87,33.32-18.56c-1.44-1.82-5.09-5.86-11.09-7.41
			C334.8,110.33,326.28,113.25,320.3,119.74z"/>
		<path class="st20" d="M253.62,226.47c-14.83,4.26-88.03,149.03,0,96.33c89.73,45.3,114.7,50.32,118.55,44.46
			c4.29-6.53-46.66-91.1-51.87-96.33C295.81,246.36,270.12,233.28,253.62,226.47z"/>
		<path class="st9" d="M253.62,226.47c-14.83,4.26-46.11,15.44-74.1,44.46c-3.62,3.76-49.16,97.85-44.46,103.74
			c5.18,6.48,30.53,0.84,118.55-51.87C343.35,368.1,270.12,233.28,253.62,226.47z"/>
		<path class="st14" d="M253.62,359.84c9.07,89.55-2.31,113.64-14.82,118.55c-7.58,2.98-13.91-1.73-44.46,0
			c-16.65,0.94-28.57,3.12-29.64,0c-1.33-3.89,16.97-8,22.23-22.23c5.12-13.87-6.97-24.33-7.41-37.05
			C179.02,404.65,193.5,384.91,253.62,359.84z"/>
		<path class="st2" d="M253.62,359.84c19.44,60.47,19.72,89.14,14.82,103.74c-0.78,2.31-3.7,10.27,0,14.82
			c4.69,5.77,15.24,0.16,37.05,0c19.35-0.14,26.9,4.15,29.64,0c3.84-5.82-10.2-15.45-14.82-37.05c-3.09-14.44,0.36-20.52,0-29.64
			C319.78,398.44,307.09,380.46,253.62,359.84z"/>
		<path class="st21" d="M339.31,345.03c3.23,51.76-36.93,118.56-88.92,118.55c-51.91-0.01-91.81-66.64-88.92-118.55
			c1.87-33.58,21.43-57.2,47.68-88.92c22.36-27.01,34-29.7,41.23-29.64c8.68,0.07,19.51,4.19,40.27,29.64
			C319.29,291.2,337.33,313.3,339.31,345.03z"/>
		<path class="st13" d="M161.37,347.47c-0.01,0.36-0.01,0.73-0.02,1.09c0,0.16-0.01,0.32-0.01,0.48c0,0.3-0.01,0.59-0.02,0.89
			c0,0.29,0,0.58,0.01,0.88c0,0.25,0,0.51,0.01,0.76c0,0.28,0,0.56,0.01,0.84c0.01,0.32,0.02,0.65,0.03,0.98
			c0.01,0.2,0.01,0.4,0.02,0.61c0.01,0.3,0.02,0.61,0.03,0.91c0.02,0.41,0.05,0.82,0.07,1.23c0,0.01,0,0.01,0,0.02
			c0,0.02,0,0.04,0,0.06c0.02,0.4,0.04,0.8,0.07,1.2c0.02,0.37,0.06,0.74,0.09,1.12c0.04,0.47,0.07,0.94,0.11,1.41
			c0.03,0.38,0.08,0.75,0.11,1.13c0.05,0.47,0.09,0.93,0.14,1.4c0.05,0.45,0.11,0.9,0.17,1.36c0.05,0.38,0.09,0.76,0.14,1.14
			c0,0.01,0,0.02,0,0.03c0,0,0,0.01,0,0.01c0.07,0.52,0.15,1.04,0.23,1.57c0.01,0.05,0.01,0.1,0.02,0.15
			c0.04,0.28,0.08,0.55,0.12,0.83c0.08,0.52,0.17,1.05,0.26,1.57c0.04,0.24,0.08,0.48,0.12,0.73c0.01,0.08,0.03,0.17,0.04,0.25
			c0.1,0.55,0.21,1.11,0.31,1.67c0.02,0.12,0.05,0.24,0.07,0.36c0.03,0.18,0.07,0.36,0.1,0.53c0.11,0.57,0.24,1.13,0.36,1.7
			c0.04,0.16,0.07,0.33,0.1,0.49c0.02,0.11,0.05,0.22,0.07,0.33c0,0.01,0,0.02,0.01,0.03c0.13,0.58,0.27,1.16,0.4,1.74
			c0.06,0.27,0.12,0.55,0.19,0.82c0.15,0.62,0.31,1.23,0.47,1.85c0.03,0.11,0.06,0.22,0.08,0.33c0.02,0.06,0.03,0.12,0.04,0.18
			c0.02,0.06,0.03,0.13,0.05,0.19c0.16,0.61,0.33,1.21,0.5,1.82c0.05,0.19,0.1,0.38,0.15,0.56c0.02,0.06,0.03,0.11,0.05,0.17
			c0.18,0.63,0.37,1.26,0.55,1.88c0.03,0.1,0.06,0.2,0.09,0.3c0.04,0.12,0.07,0.24,0.1,0.35c0.2,0.66,0.41,1.32,0.63,1.98
			c0.06,0.18,0.11,0.36,0.17,0.55c0.21,0.66,0.44,1.31,0.66,1.96c0.06,0.19,0.13,0.38,0.19,0.56c0.24,0.69,0.49,1.38,0.74,2.07
			c0.05,0.14,0.1,0.29,0.16,0.43c0.25,0.67,0.5,1.33,0.76,2c0.01,0.02,0.02,0.04,0.02,0.06c0.06,0.15,0.11,0.29,0.17,0.44
			c0.28,0.72,0.57,1.44,0.87,2.15c0.04,0.11,0.09,0.22,0.13,0.32c0.31,0.75,0.63,1.49,0.95,2.23c0.02,0.04,0.03,0.08,0.05,0.12
			c0.01,0.02,0.02,0.05,0.03,0.07c0.01,0.01,0.01,0.03,0.02,0.04c0.33,0.75,0.66,1.49,1,2.23c0.01,0.02,0.02,0.04,0.03,0.06
			c0.02,0.05,0.04,0.1,0.07,0.15c0.33,0.72,0.67,1.44,1.02,2.16c0.04,0.08,0.07,0.16,0.11,0.24c0,0.01,0.01,0.01,0.01,0.02
			c0.37,0.77,0.75,1.53,1.13,2.28c0.01,0.02,0.02,0.04,0.03,0.06c0.01,0.02,0.02,0.04,0.03,0.07c0.4,0.78,0.8,1.56,1.21,2.33
			c0,0.01,0.01,0.01,0.01,0.02c0,0.01,0.01,0.01,0.01,0.02c0.47,0.89,0.96,1.78,1.45,2.67c0.11,0.19,0.22,0.38,0.32,0.57
			c0.38,0.67,0.77,1.34,1.16,2.01c0.15,0.26,0.31,0.52,0.46,0.78c0.36,0.6,0.72,1.2,1.09,1.79c0.07,0.12,0.15,0.23,0.22,0.35
			c0.09,0.15,0.18,0.3,0.28,0.45c0.38,0.6,0.77,1.21,1.15,1.8c0.05,0.08,0.1,0.16,0.15,0.23c0.1,0.15,0.2,0.31,0.3,0.46
			c0.47,0.72,0.95,1.43,1.44,2.14c0.01,0.01,0.01,0.02,0.02,0.03c0.06,0.09,0.12,0.18,0.18,0.27c0.58,0.83,1.16,1.66,1.76,2.47
			c0.05,0.06,0.1,0.13,0.14,0.19c0.53,0.72,1.07,1.44,1.61,2.15c0.08,0.1,0.15,0.2,0.23,0.29c0.08,0.1,0.15,0.2,0.23,0.29
			c0.45,0.58,0.9,1.15,1.36,1.72c0.18,0.22,0.35,0.43,0.53,0.65c0.45,0.56,0.91,1.11,1.38,1.65c0.17,0.2,0.34,0.4,0.51,0.6
			c0.52,0.6,1.04,1.2,1.57,1.79c0.11,0.12,0.22,0.25,0.33,0.37c1.32,1.45,2.66,2.86,4.04,4.23c0.13,0.13,0.26,0.25,0.38,0.37
			c0.55,0.54,1.11,1.08,1.67,1.6c0.15,0.14,0.3,0.28,0.46,0.42c0.03,0.03,0.06,0.05,0.09,0.08c0.53,0.49,1.06,0.97,1.59,1.44
			c0.19,0.17,0.37,0.33,0.56,0.5c0.57,0.49,1.14,0.98,1.71,1.46c0.07,0.06,0.14,0.12,0.21,0.18c0.07,0.06,0.14,0.12,0.22,0.18
			c1.48,1.21,2.98,2.38,4.52,3.49c0.06,0.05,0.13,0.09,0.19,0.13c0.68,0.49,1.37,0.97,2.07,1.44c0.05,0.03,0.09,0.06,0.14,0.09
			c0.12,0.08,0.25,0.17,0.38,0.25c0.6,0.4,1.2,0.79,1.81,1.17c0.17,0.11,0.35,0.22,0.52,0.32c0.02,0.01,0.04,0.03,0.07,0.04
			c0.61,0.37,1.22,0.74,1.84,1.1c0.14,0.08,0.28,0.16,0.42,0.24c0.04,0.02,0.07,0.04,0.11,0.06c0.73,0.42,1.47,0.82,2.22,1.21
			c0.05,0.03,0.1,0.06,0.15,0.08c1.64,0.86,3.31,1.65,4.99,2.38c0.04,0.01,0.07,0.03,0.11,0.04c0.12,0.05,0.23,0.1,0.35,0.15
			c0.68,0.29,1.35,0.56,2.04,0.82c0.11,0.04,0.21,0.08,0.32,0.12c0.1,0.04,0.2,0.08,0.3,0.11c0.65,0.24,1.3,0.48,1.96,0.7
			c0.2,0.07,0.4,0.14,0.6,0.2c0.71,0.23,1.43,0.46,2.15,0.67c0.06,0.02,0.13,0.04,0.19,0.06c0.07,0.02,0.14,0.04,0.21,0.06
			c1.75,0.5,3.52,0.92,5.31,1.27c0.12,0.02,0.24,0.04,0.35,0.06c0.75,0.14,1.51,0.27,2.27,0.38c0.1,0.02,0.21,0.03,0.31,0.04
			c0.11,0.01,0.21,0.03,0.32,0.04c0.68,0.09,1.37,0.18,2.06,0.25c0.08,0.01,0.16,0.02,0.23,0.02c0.15,0.02,0.3,0.03,0.45,0.05
			c0.71,0.07,1.42,0.12,2.13,0.16c0.13,0.01,0.26,0.02,0.4,0.02c0.06,0,0.12,0.01,0.18,0.01c0.9,0.04,1.8,0.07,2.7,0.07
			c-3.81-2.83-9.03-7.04-14.6-12.76c-29.21-29.94-34.99-67.06-37.05-81.51c-2.62-18.39-11.8-82.95,29.64-118.55
			c13.25-11.38,27.74-16.43,37.98-18.87c0,0,0,0,0,0c-5.66-3.77-10.14-5.06-14.1-5.35c-0.26-0.02-0.52-0.03-0.78-0.04
			c-0.02,0-0.04,0-0.07,0c-0.28-0.01-0.55-0.02-0.83-0.02c-0.22,0-0.45,0-0.68,0c-0.08,0-0.16,0.01-0.24,0.01
			c-0.15,0-0.31,0.01-0.47,0.02c-0.1,0-0.19,0.01-0.29,0.02c-0.07,0-0.14,0.01-0.22,0.01c-0.08,0.01-0.15,0.01-0.23,0.01
			c-0.1,0.01-0.21,0.02-0.32,0.03c-0.15,0.01-0.29,0.03-0.45,0.04c-0.12,0.01-0.25,0.03-0.37,0.05c-0.14,0.02-0.27,0.03-0.41,0.05
			c-0.13,0.02-0.26,0.04-0.39,0.06c-0.14,0.02-0.29,0.05-0.44,0.07c-0.14,0.03-0.28,0.06-0.42,0.09c-0.14,0.03-0.28,0.06-0.43,0.09
			c-0.14,0.03-0.29,0.07-0.43,0.1c-0.15,0.04-0.3,0.07-0.46,0.11c-0.15,0.04-0.31,0.09-0.47,0.13c-0.15,0.04-0.3,0.08-0.45,0.13
			c-0.16,0.05-0.33,0.1-0.5,0.16c-0.15,0.05-0.3,0.1-0.45,0.15c-0.17,0.06-0.34,0.12-0.51,0.18c-0.1,0.04-0.2,0.07-0.3,0.11
			c-0.06,0.02-0.12,0.04-0.18,0.07c-0.18,0.07-0.36,0.14-0.55,0.22c-0.16,0.07-0.32,0.13-0.48,0.2c-0.19,0.08-0.38,0.17-0.57,0.25
			c-0.09,0.04-0.17,0.08-0.26,0.12c-0.08,0.04-0.16,0.07-0.24,0.11c-0.19,0.09-0.39,0.19-0.59,0.29c-0.17,0.08-0.34,0.17-0.51,0.26
			c-0.2,0.11-0.41,0.21-0.62,0.33c-0.18,0.09-0.35,0.19-0.53,0.29c-0.21,0.12-0.42,0.24-0.64,0.36c-0.18,0.1-0.35,0.21-0.53,0.32
			c-0.22,0.13-0.45,0.27-0.67,0.41c-0.18,0.11-0.37,0.23-0.55,0.35c-0.23,0.15-0.47,0.3-0.7,0.46c-0.06,0.04-0.13,0.09-0.19,0.13
			c-0.12,0.08-0.25,0.17-0.37,0.25c-0.24,0.16-0.48,0.33-0.73,0.5c-0.19,0.13-0.38,0.27-0.57,0.41c-0.25,0.18-0.5,0.36-0.76,0.55
			c-0.15,0.11-0.3,0.23-0.45,0.34c-0.05,0.04-0.1,0.07-0.15,0.11c-0.26,0.2-0.53,0.4-0.8,0.61c-0.2,0.16-0.41,0.33-0.62,0.49
			c-0.27,0.22-0.54,0.43-0.82,0.66c-0.13,0.11-0.26,0.22-0.4,0.33c-0.08,0.06-0.15,0.13-0.23,0.19c-0.28,0.24-0.57,0.48-0.86,0.73
			c-0.21,0.18-0.43,0.37-0.64,0.56c-0.3,0.26-0.59,0.52-0.89,0.79c-0.21,0.19-0.43,0.39-0.64,0.58c-0.31,0.29-0.63,0.57-0.94,0.87
			c-0.21,0.2-0.43,0.4-0.64,0.61c-0.33,0.31-0.66,0.63-1,0.95c-0.21,0.2-0.42,0.42-0.63,0.62c-0.35,0.35-0.7,0.69-1.06,1.05
			c-0.2,0.2-0.41,0.42-0.61,0.62c-0.37,0.38-0.75,0.76-1.13,1.16c-0.19,0.2-0.39,0.41-0.59,0.62c-0.4,0.42-0.8,0.84-1.21,1.29
			c-0.11,0.12-0.22,0.24-0.33,0.36c-0.71,0.77-1.44,1.57-2.18,2.4c-0.21,0.24-0.42,0.47-0.63,0.71c-0.31,0.35-0.63,0.71-0.94,1.07
			c-0.49,0.56-0.98,1.13-1.49,1.72c-0.03,0.04-0.06,0.07-0.1,0.11c-0.06,0.07-0.12,0.14-0.18,0.22c-0.64,0.76-1.3,1.54-1.96,2.34
			c-1.27,1.54-2.8,3.39-3.83,4.63c-0.42,0.51-0.85,1.03-1.27,1.54c-0.13,0.17-0.27,0.33-0.41,0.49c0,0,0,0.01,0,0.01c0,0,0,0,0,0
			c-0.73,0.88-1.45,1.76-2.16,2.63c-0.03,0.03-0.05,0.07-0.08,0.1c-3.37,4.12-6.6,8.12-9.65,12.05c-0.21,0.27-0.42,0.53-0.62,0.8
			c-0.41,0.53-0.81,1.05-1.21,1.58c-0.26,0.34-0.53,0.69-0.79,1.03c-0.37,0.49-0.74,0.98-1.11,1.47c-0.28,0.37-0.55,0.74-0.83,1.11
			c-0.35,0.48-0.7,0.95-1.05,1.43c-0.28,0.38-0.56,0.77-0.84,1.15c-0.34,0.46-0.67,0.93-1,1.39c-0.28,0.39-0.56,0.78-0.83,1.17
			c-0.32,0.46-0.64,0.91-0.95,1.36c-0.27,0.4-0.55,0.79-0.82,1.19c-0.31,0.45-0.61,0.9-0.91,1.35c-0.27,0.4-0.53,0.8-0.79,1.2
			c-0.29,0.45-0.59,0.89-0.88,1.34c-0.26,0.4-0.52,0.81-0.77,1.21c-0.28,0.44-0.56,0.88-0.83,1.32c-0.26,0.41-0.51,0.83-0.76,1.24
			c-0.26,0.43-0.53,0.87-0.79,1.3c-0.25,0.42-0.49,0.84-0.74,1.27c-0.25,0.43-0.5,0.85-0.74,1.28c-0.25,0.45-0.5,0.89-0.74,1.34
			c-0.22,0.4-0.45,0.81-0.67,1.21c-0.3,0.57-0.6,1.14-0.89,1.71c-0.28,0.55-0.56,1.09-0.83,1.64c-0.29,0.58-0.58,1.16-0.86,1.74
			c-0.18,0.38-0.35,0.76-0.52,1.14c-0.23,0.49-0.45,0.98-0.67,1.47c-0.18,0.4-0.34,0.8-0.51,1.19c-0.2,0.48-0.41,0.95-0.61,1.43
			c-0.17,0.41-0.33,0.82-0.49,1.22c-0.19,0.47-0.38,0.95-0.56,1.43c-0.16,0.41-0.3,0.83-0.45,1.24c-0.17,0.48-0.35,0.96-0.51,1.44
			c-0.14,0.42-0.28,0.83-0.42,1.25c-0.16,0.48-0.31,0.97-0.47,1.46c-0.13,0.42-0.26,0.84-0.38,1.26c-0.14,0.49-0.29,0.99-0.42,1.48
			c-0.12,0.42-0.23,0.84-0.34,1.27c-0.13,0.5-0.26,1.01-0.38,1.52c-0.1,0.42-0.2,0.84-0.3,1.27c-0.12,0.52-0.23,1.04-0.33,1.56
			c-0.09,0.42-0.17,0.84-0.25,1.26c-0.1,0.54-0.2,1.09-0.29,1.63c-0.07,0.41-0.14,0.82-0.21,1.24c-0.09,0.58-0.17,1.16-0.25,1.74
			c-0.05,0.39-0.11,0.78-0.16,1.17c-0.08,0.65-0.15,1.31-0.21,1.97c-0.03,0.33-0.07,0.66-0.1,0.99c-0.09,1-0.16,2-0.22,3.01
			C161.43,345.84,161.4,346.65,161.37,347.47C161.37,347.47,161.37,347.47,161.37,347.47z"/>
		<path class="st22" d="M243,322.8c-0.57-1.44-6.86-16.68-22.23-20.17c-14.15-3.22-29.96,4.89-37.05,20.17
			C183.72,322.8,213.36,345.03,243,322.8z"/>
		<path class="st13" d="M183.72,322.8c0,0,4.7,3.52,12.21,6.36c0.24-7.23,0.95-14.9,2.38-22.65
			C192.25,310.08,187.03,315.65,183.72,322.8z"/>
		<path class="st20" d="M243,322.8c0,0-22.23-29.64-59.28,0c0.23,1.81,2.63,18.54,14.82,24.29
			C211.89,353.38,233.49,344.85,243,322.8z"/>
		<path class="st9" d="M183.72,322.8c0.22,1.68,2.31,16.25,12.39,22.91c-0.49-9.32-0.43-20.19,1.01-31.52
			C192.9,316.22,188.43,319.03,183.72,322.8z"/>
		<path class="st23" d="M243,322.8c0,0-22.23-29.64-59.28,0c2.22,4.86,5.05,7.72,7.41,9.47C202.9,340.96,223.78,337.26,243,322.8z"
			/>
		<path class="st24" d="M191.13,332.26c1.44,1.06,3.01,1.94,4.7,2.63c0.01-6.53,0.37-13.53,1.29-20.71
			c-4.22,2.03-8.69,4.84-13.4,8.61C185.94,327.66,188.77,330.52,191.13,332.26z"/>
		<path class="st13" d="M172.11,359.84c13.27,2.92,23.28,1.74,30.14,0c12.24-3.11,18.87-8.76,29.64-7.41
			c6.58,0.82,11.59,4.45,14.82,7.41c4.85-3.19,12.58-7.23,22.23-7.41c10.98-0.21,16.42,4.73,29.14,7.41c6.6,1.39,16.56,2.46,29.64,0
			c-1.61,1.91-41.04,47.34-96.33,37.05C197.42,390.57,177.65,366.97,172.11,359.84z"/>
		<path class="st25" d="M172.11,359.84c3.64,4.69,13.44,16.49,29.37,25.82c-1.53-6.74-2.37-12.4-2.94-16.36
			c-0.31-2.2-0.72-5.07-1.12-8.47C190.96,361.9,182.55,362.15,172.11,359.84z"/>
		<path class="st26" d="M172.11,359.84c13.27,2.92,23.28,1.74,30.14,0c12.24-3.11,18.87-8.76,29.64-7.41
			c6.58,0.82,11.59,4.45,14.82,7.41c4.85-3.19,12.58-7.23,22.23-7.41c10.98-0.21,16.42,4.73,29.14,7.41c6.6,1.39,16.56,2.46,29.64,0
			c-16.01,6.33-41.7,14.25-74.1,14.82C217.39,375.3,188.83,366.46,172.11,359.84z"/>
		<path class="st13" d="M172.11,359.84c6.86,2.71,15.72,5.8,26.29,8.46c-0.29-2.04-0.64-4.56-0.98-7.46
			C190.96,361.9,182.55,362.15,172.11,359.84z"/>
		<path class="st27" d="M249.91,178.87c1.09,0,2.17-0.03,3.25-0.08c0.2-0.01,0.4-0.02,0.6-0.03c1.01-0.05,2.01-0.13,3.01-0.23
			c0.26-0.02,0.51-0.05,0.77-0.08c0.96-0.1,1.91-0.22,2.86-0.36c0.26-0.04,0.52-0.09,0.77-0.13c0.74-0.12,1.47-0.25,2.2-0.39
			c0.37-0.07,0.73-0.14,1.09-0.22c0.79-0.17,1.57-0.35,2.35-0.54c0.48-0.12,0.95-0.24,1.43-0.37c0.44-0.12,0.87-0.24,1.31-0.37
			c0.84-0.24,1.67-0.5,2.49-0.77c0.26-0.08,0.51-0.17,0.76-0.26c3.09-1.07,6.08-2.34,8.95-3.8c0,0,0,0,0,0
			c-33.62,3.05-65.51-14.6-79.85-43.93c-10.9-22.3-10.29-48.57,0.97-70.83c-2.95,2.66-5.65,5.57-8.12,8.69
			c-6.64,10.1-10.57,18.35-12.04,22.97c-0.24,0.77-0.45,1.55-0.66,2.34c-0.83,3.16-1.37,6.15-1.72,8.61
			c-0.42,3.12-0.66,6.3-0.66,9.54c0,6.06,0.77,11.94,2.21,17.55c0.58,2.24,1.26,4.45,2.05,6.6
			C193.78,159.67,219.6,178.87,249.91,178.87z"/>
		<path class="st19" d="M209.16,146.21v-11.65c-0.71-1.57-2.88-5.84-7.41-7.41c-2.25-0.78-4.39-0.65-7.41,0
			c-3.86,0.83-10.05,2.7-17.26,7.41C181.75,136.74,186.9,138.91,209.16,146.21z"/>
		<path class="st15" d="M246.21,151.9v-17.34c-1.2-1.13-9.96-9.12-22.23-7.41c-7.89,1.1-12.99,5.61-14.82,7.41
			c0,3.88,0,7.77,0,11.65C220.77,149.29,233.16,151.34,246.21,151.9z"/>
		<path class="st28" d="M209.16,59.71c-2.46,0.23-4.93,0.48-7.41,0.75c-10.28,1.14-20.16,2.61-29.64,4.34v17.89
			c2.56,5.27,5.33,6.91,7.41,7.41c6.21,1.5,10.81-5.97,22.23-7.41c3.09-0.39,5.7-0.21,7.41,0
			C209.16,75.03,209.16,67.37,209.16,59.71z"/>
		<path class="st22" d="M257.82,322.8c4.79-12.15,16.58-20.17,29.64-20.17c13.06,0,24.85,8.03,29.64,20.17
			C317.1,322.8,287.46,345.03,257.82,322.8z"/>
		<path class="st20" d="M257.82,323.21c0,0,22.23-29.64,59.28,0c-0.27,1.93-2.79,18.19-14.82,23.88
			C288.94,353.38,267.47,344.99,257.82,323.21z"/>
		<path class="st29" d="M257.82,323.21c0,0,22.23-29.64,59.28,0c-2.26,4.57-5.04,7.33-7.41,9.06
			C297.74,340.96,276.98,337.3,257.82,323.21z"/>
		<path class="st30" d="M275,315.71l-1.26,0.57c-0.24,0.11-0.52,0-0.63-0.23l-5.41-11.88c-0.11-0.24,0-0.52,0.23-0.63l1.26-0.57
			c0.24-0.11,0.52,0,0.63,0.23l5.41,11.88C275.34,315.32,275.24,315.6,275,315.71z"/>
		<path class="st14" d="M286.99,312.37h-1.39c-0.26,0-0.47-0.21-0.47-0.47l0-13.06c0-0.26,0.21-0.47,0.47-0.47l1.39,0
			c0.26,0,0.47,0.21,0.47,0.47l0,13.06C287.46,312.16,287.25,312.37,286.99,312.37z"/>
		<path class="st31" d="M301.31,314l-1.27-0.55c-0.24-0.1-0.35-0.38-0.25-0.62l5.17-11.99c0.1-0.24,0.38-0.35,0.62-0.25l1.27,0.55
			c0.24,0.1,0.35,0.38,0.25,0.62l-5.17,11.99C301.83,313.99,301.55,314.1,301.31,314z"/>
		<path class="st30" d="M223.29,316.8l1.26,0.57c0.24,0.11,0.52,0,0.63-0.23l5.41-11.89c0.11-0.24,0-0.52-0.23-0.63l-1.26-0.57
			c-0.24-0.11-0.52,0-0.63,0.23l-5.41,11.88C222.95,316.41,223.06,316.69,223.29,316.8z"/>
		<path class="st14" d="M211.31,313.46h1.39c0.26,0,0.47-0.21,0.47-0.47l0-13.06c0-0.26-0.21-0.47-0.47-0.47l-1.39,0
			c-0.26,0-0.47,0.21-0.47,0.47l0,13.06C210.84,313.25,211.05,313.46,211.31,313.46z"/>
		<path class="st30" d="M196.99,315.09l1.27-0.55c0.24-0.1,0.35-0.38,0.25-0.62l-5.17-11.99c-0.1-0.24-0.38-0.35-0.62-0.25
			l-1.27,0.55c-0.24,0.1-0.35,0.38-0.25,0.62l5.17,11.99C196.47,315.08,196.75,315.19,196.99,315.09z"/>
		<path class="st30" d="M198.5,325.5l-1.26-0.57c-0.24-0.11-0.52,0-0.63,0.23l-5.41,11.89c-0.11,0.24,0,0.52,0.23,0.63l1.26,0.57
			c0.24,0.11,0.52,0,0.63-0.23l5.41-11.88C198.84,325.89,198.73,325.61,198.5,325.5z"/>
		<path class="st14" d="M210.48,328.84h-1.39c-0.26,0-0.47,0.21-0.47,0.47l0,13.06c0,0.26,0.21,0.47,0.47,0.47h1.39
			c0.26,0,0.47-0.21,0.47-0.47l0-13.06C210.95,329.05,210.74,328.84,210.48,328.84z"/>
		<path class="st31" d="M224.81,327.21l-1.27,0.55c-0.24,0.1-0.35,0.38-0.25,0.62l5.17,11.99c0.1,0.24,0.38,0.35,0.62,0.25
			l1.27-0.55c0.24-0.1,0.35-0.38,0.25-0.62l-5.17-11.99C225.32,327.22,225.05,327.11,224.81,327.21z"/>
		<g>
			<path class="st30" d="M302.32,324.8l1.26-0.57c0.24-0.11,0.52,0,0.63,0.23l5.41,11.89c0.11,0.24,0,0.52-0.23,0.63l-1.26,0.57
				c-0.24,0.11-0.52,0-0.63-0.23l-5.41-11.88C301.98,325.19,302.09,324.91,302.32,324.8z"/>
			<path class="st14" d="M290.34,328.14h1.39c0.26,0,0.47,0.21,0.47,0.47l0,13.06c0,0.26-0.21,0.47-0.47,0.47h-1.39
				c-0.26,0-0.47-0.21-0.47-0.47l0-13.06C289.87,328.35,290.08,328.14,290.34,328.14z"/>
			<path class="st31" d="M276.01,326.51l1.27,0.55c0.24,0.1,0.35,0.38,0.25,0.62l-5.17,11.99c-0.1,0.24-0.38,0.35-0.62,0.25
				l-1.27-0.55c-0.24-0.1-0.35-0.38-0.25-0.62l5.17-11.99C275.5,326.52,275.77,326.41,276.01,326.51z"/>
		</g>
		<path class="st14" d="M257.82,322.8c12.98-13.49,30.65-18.52,44.46-12.76c7.56,3.16,12.25,8.83,14.82,12.76
			C317.1,322.8,287.46,345.03,257.82,322.8z"/>
		<path class="st30" d="M257.82,323.21c0,0,22.23-29.64,59.28,0c-3.39,3.2-8.28,6.82-14.82,9.06
			C280.56,339.7,260.36,325.11,257.82,323.21z"/>
		<path class="st11" d="M257.82,322.8c0,0,22.23-29.64,59.28,0C317.1,322.8,287.46,345.03,257.82,322.8z"/>
		<path class="st6" d="M302.28,321.15c0-3.32-1.1-6.37-2.94-8.84c-8.7-3.26-16.18-3.2-22.31-1.68c-2.71,2.68-4.39,6.41-4.39,10.52
			c0,4.14,1.7,7.89,4.45,10.57c7.79,1.62,15.08,0.98,21.25-0.54C300.77,328.55,302.28,325.03,302.28,321.15z"/>
		<circle class="st7" cx="287.46" cy="321.15" r="11.11"/>
		<circle class="st11" cx="296.68" cy="316.07" r="3.73"/>
		<path class="st32" d="M243,322.8c0,0-22.23-29.64-59.28,0c3.31,3.3,8.19,7.13,14.82,9.47C220.31,339.94,240.82,324.49,243,322.8z"
			/>
		<path class="st33" d="M283.25,59.29c-11.84-0.95-24.2-1.46-37.05-1.39v24.8c9.39,8.92,21.31,11.8,29.64,7.41
			c1.82-0.96,4.87-3.01,7.41-7.41C283.25,74.89,283.25,67.09,283.25,59.29z"/>
		<path class="st15" d="M246.21,57.89c-11.95,0.07-24.32,0.64-37.05,1.82v22.98c1.83,1.79,6.93,6.31,14.82,7.41
			c12.27,1.71,21.03-6.28,22.23-7.41C246.21,74.43,246.21,66.16,246.21,57.89z"/>
		<path class="st33" d="M283.25,59.29v23.41c6.84,7.02,11.62,7.99,14.82,7.41c5.09-0.92,7.36-5.99,14.82-7.41
			c3.03-0.58,5.66-0.32,7.41,0c0-6.28,0-12.56,0-18.84C308.64,61.91,296.27,60.33,283.25,59.29z"/>
		<path class="st18" d="M135.1,73.25c-10.25,2.9-19.83,6.03-28.66,9.23c0.05,0.06,14.92,10.56,21.45,7.62
			c4.08-1.84,6.25-5.46,7.21-7.41C135.1,79.55,135.1,76.4,135.1,73.25z"/>
		<path class="st15" d="M320.3,63.85v18.84c8.41,7.93,12.57,8.41,14.82,7.41c3.77-1.68,4.95-7.73,7.41-7.41
			c1.88,0.25,1.82,3.93,4.2,5.05c2.85,1.34,7.24-1.93,10.62-5.05c0-3.69,0-7.37,0-11.06C346.01,68.75,333.62,66.07,320.3,63.85z"/>
		<path class="st15" d="M357.35,82.69c0.82,2.23,2.12,4.55,4.2,5.05c4.24,1.02,8.92-6.13,10.62-5.05c1.37,0.87-1.48,5.61,0,7.41
			c1.37,1.66,6.78,0.62,21.27-7.41c0.03-0.04,0.06-0.07,0.09-0.11c0.03-0.04,0.06-0.07,0.09-0.11c-10.44-3.6-22.59-7.37-36.26-10.84
			V82.69z"/>
		<path class="st19" d="M172.11,64.8c-13.16,2.4-25.53,5.28-37.05,8.45v9.44c9.39,8.92,21.31,11.8,29.64,7.41
			c1.82-0.96,4.87-3.01,7.41-7.41C172.11,76.73,172.11,70.77,172.11,64.8z"/>
		<path class="st20" d="M394.4,82.48c0,0-86.4-86.4-144.01-57.6c-57.6-28.8-144.01,57.6-144.01,57.6
			c26.13-9.22,58.5-17.86,96.15-22.02C285.21,51.34,353.18,68.28,394.4,82.48z"/>
		<path class="st8" d="M157.29,144.96c4.37,4.14,8.66,7.97,12.86,11.53c24.95,15.12,54.05,23.29,84.25,22.52
			c42.26-1.08,81.6-19.54,109.74-49.67c14.76-17.82,24.31-34.81,30.26-46.86c-10.83,13.38-47.85,55.65-110.36,66.9
			C182.72,167.61,110.4,87.1,106.39,82.48C115.84,97.67,132.16,121.13,157.29,144.96z"/>
		<path class="st13" d="M137.76,110.57c-3.75-2.83-12-8.94-22.14-18.6c-5.32-5.07-8.48-8.61-9.23-9.48
			c9.46,15.19,25.78,38.65,50.9,62.48c4.37,4.14,8.66,7.97,12.86,11.53c0.74,0.45,1.48,0.89,2.22,1.32
			c0.06,0.04,0.12,0.07,0.18,0.11c0.7,0.41,1.41,0.81,2.12,1.21c0.1,0.06,0.2,0.11,0.3,0.17c0.68,0.38,1.37,0.76,2.06,1.13
			c0.13,0.07,0.26,0.14,0.39,0.21c0.67,0.36,1.34,0.71,2.02,1.06c0.15,0.08,0.3,0.15,0.45,0.23c0.67,0.34,1.33,0.68,2,1.01
			c0.16,0.08,0.32,0.16,0.48,0.24c0.66,0.33,1.33,0.65,2,0.96c0.17,0.08,0.34,0.16,0.5,0.24c0.67,0.31,1.34,0.62,2.01,0.93
			c0.17,0.08,0.34,0.15,0.51,0.23c0.68,0.3,1.35,0.6,2.03,0.89c0.17,0.07,0.33,0.14,0.5,0.21c0.69,0.29,1.37,0.58,2.07,0.87
			c0.15,0.06,0.31,0.12,0.46,0.19c0.71,0.29,1.41,0.57,2.13,0.85c0.12,0.05,0.25,0.1,0.38,0.14c0.74,0.29,1.49,0.57,2.24,0.85
			c0.06,0.02,0.13,0.05,0.19,0.07c4.14,1.52,8.36,2.87,12.64,4.03c0.1,0.03,0.21,0.06,0.31,0.09c0.66,0.18,1.32,0.35,1.99,0.52
			c0.26,0.07,0.51,0.13,0.77,0.2c0.6,0.15,1.19,0.29,1.79,0.43c0.33,0.08,0.65,0.16,0.98,0.23c0.56,0.13,1.12,0.25,1.68,0.38
			c0.37,0.08,0.73,0.16,1.1,0.24c0.54,0.11,1.07,0.22,1.61,0.33c0.4,0.08,0.79,0.16,1.19,0.24c0.52,0.1,1.04,0.19,1.56,0.29
			c0.42,0.08,0.84,0.15,1.26,0.23c0.5,0.09,1.01,0.17,1.52,0.25c0.44,0.07,0.87,0.14,1.31,0.21c0.5,0.08,0.99,0.15,1.49,0.22
			c0.45,0.07,0.9,0.13,1.35,0.19c0.49,0.07,0.97,0.13,1.46,0.19c0.47,0.06,0.93,0.11,1.4,0.17c0.48,0.06,0.95,0.11,1.43,0.16
			c0.48,0.05,0.96,0.1,1.45,0.15c0.47,0.05,0.93,0.09,1.4,0.13c0.5,0.04,0.99,0.08,1.49,0.12c0.46,0.04,0.91,0.07,1.37,0.1
			c0.51,0.04,1.02,0.06,1.54,0.1c0.45,0.03,0.89,0.05,1.34,0.08c0.53,0.03,1.07,0.05,1.6,0.07c0.43,0.02,0.85,0.04,1.28,0.05
			c0.57,0.02,1.14,0.03,1.71,0.04c0.4,0.01,0.79,0.02,1.19,0.02c0.63,0.01,1.27,0.01,1.9,0.01c0.33,0,0.67,0,1,0
			c0.97-0.01,1.94-0.02,2.91-0.05c0.1,0,0.14-0.04,0.14-0.05c0.32-0.91-49.86-8.13-85.64-39.35
			C157.5,129.66,153.64,122.58,137.76,110.57z"/>
		<path class="st26" d="M228.18,43.29c-46.54,0.17-74.65,11.85-81.51,14.82c-17.61,7.64-30.84,16.79-39.5,23.6
			c-0.51,0.49-0.79,0.77-0.79,0.77c26.13-9.22,58.5-17.86,96.15-22.02c80.91-8.93,147.72,7.1,189.18,21.1
			C365.1,69.73,299.18,43.03,228.18,43.29z"/>
		<path class="st14" d="M243,322.8c-12.98-13.49-30.65-18.52-44.46-12.76c-7.56,3.16-12.25,8.83-14.82,12.76
			C183.72,322.8,213.36,345.03,243,322.8z"/>
		<path class="st34" d="M183.72,322.8c0,0,4.7,3.52,12.21,6.36c0.2-6.01,0.73-12.31,1.71-18.72
			C190.61,313.65,186.19,319.03,183.72,322.8z"/>
		<path class="st11" d="M243,322.8c0,0-22.23-29.64-59.28,0C183.72,322.8,213.36,345.03,243,322.8z"/>
		<path class="st35" d="M195.94,329.15c0.16-4.83,0.53-9.85,1.18-14.97c-4.22,2.03-8.69,4.84-13.4,8.61
			C183.72,322.8,188.42,326.31,195.94,329.15z"/>
		<path class="st6" d="M198.54,321.15c0-3.32,1.1-6.37,2.94-8.84c8.7-3.26,16.18-3.2,22.31-1.68c2.71,2.68,4.39,6.41,4.39,10.52
			c0,4.14-1.7,7.89-4.45,10.57c-7.79,1.62-15.08,0.98-21.25-0.54C200.04,328.55,198.54,325.03,198.54,321.15z"/>
		<circle class="st7" cx="213.36" cy="321.15" r="11.11"/>
		<circle class="st11" cx="220.57" cy="316.07" r="3.73"/>
	</g>
</g>
</svg>
