<?xml version="1.0" encoding="utf-8"?>
<!-- Generator: Adobe Illustrator 24.1.2, SVG Export Plug-In . SVG Version: 6.00 Build 0)  -->
<svg version="1.1" id="レイヤー_1" xmlns="http://www.w3.org/2000/svg" xmlns:xlink="http://www.w3.org/1999/xlink" x="0px"
	 y="0px" viewBox="0 0 500 500" style="enable-background:new 0 0 500 500;" xml:space="preserve">
<style type="text/css">
	.st0{fill:#A1B3BD;}
	.st1{fill:#C5DAE6;}
	.st2{fill:#BDD1DD;}
	.st3{fill:#D1E7F4;}
	.st4{fill:#C2D7E2;}
	.st5{fill:#BACED9;}
	.st6{fill:#CADFEB;}
	.st7{fill:#32363A;}
	.st8{fill:#B1C5D0;}
	.st9{fill:#CBE0ED;}
	.st10{fill:#D7EEFB;}
	.st11{fill:#4A5257;}
	.st12{fill:#323333;}
	.st13{fill:#231815;}
	.st14{fill:#ECEEF0;}
	.st15{fill:#6A0F00;}
	.st16{fill:#C3361E;}
	.st17{fill:#772C16;}
	.st18{fill:#E75606;}
	.st19{fill:#CEE4F1;}
</style>
<g>
	<path class="st0" d="M377,474.3c-3.1,13.2-68.7,14.3-72.7,0c-2.3-8.2,18.3-11.9,24.2-30.3c8.6-27-26.1-48.3-42.4-96.9
		c-8.5-25.4-8.9-48.6-7.6-65c24.7-4.6,49.5-9.2,74.2-13.8c3.4,2.4,8,6.3,12.1,12.1c11.4,16.2,10.6,36.3,6.1,60.6
		c-11.8,63.4-34.8,79.6-24.2,103C355.7,464,378.8,466.4,377,474.3z"/>
	<path class="st1" d="M377,474.3c-3.1,13.2-68.7,14.3-72.7,0c-2.3-8.2,18.3-11.9,24.2-30.3c8.6-27-26.1-48.3-42.4-96.9
		c-8.5-25.4-8.9-48.6-7.6-65c24.7-4.6,49.5-9.2,74.2-13.8c3.5,2.3,8.3,6.1,12.1,12.1c10.9,17.3,3.5,37.8-6.1,72.8
		c-19.6,71.4-15.8,83.8-12.1,90.8C357.1,464.3,378.8,466.8,377,474.3z"/>
	<path class="st2" d="M346.7,444c-0.8-1.1-1-2-1.3-2.9c0,0,0,0,0-0.1c-0.1-0.4-0.3-0.8-0.4-1.2c0,0,0-0.1,0-0.1l0,0
		c0-0.1,0-0.1-0.1-0.2l0,0c0-0.1,0-0.1,0-0.2c0-0.1-0.1-0.3-0.1-0.4c0-0.1-0.1-0.2-0.1-0.4l0,0c0,0,0,0,0-0.1l0,0
		c0-0.2-0.1-0.3-0.1-0.5l0,0c0-0.1,0-0.1,0-0.2l0,0c0,0,0,0,0,0c0-0.2-0.1-0.4-0.1-0.5l0,0c0,0,0-0.1,0-0.2c0-0.2-0.1-0.4-0.1-0.7
		c0,0,0-0.1,0-0.1l0,0c0-0.1,0-0.3-0.1-0.4c0-0.1,0-0.1,0-0.2l0,0c0-0.2,0-0.4-0.1-0.5c0,0,0-0.1,0-0.1l0,0c0-0.1,0-0.1,0-0.2l0,0
		c0-0.2,0-0.4-0.1-0.5l0,0c0,0,0-0.1,0-0.1l0,0c0-0.1,0-0.3,0-0.5s0-0.3,0-0.5c0,0,0,0,0,0c0-0.2,0-0.4,0-0.5l0,0c0-0.1,0-0.2,0-0.3
		l0,0c0-0.1,0-0.2,0-0.3c0-0.2,0-0.5,0-0.8c0-0.1,0-0.2,0-0.3l0,0c0-0.1,0-0.2,0-0.3l0,0c0-0.2,0-0.3,0-0.5l0,0c0-0.1,0-0.2,0-0.3
		l0,0c0-0.2,0-0.4,0-0.6l0,0c0-0.1,0-0.2,0-0.3l0,0c0-0.2,0-0.5,0-0.7v0c0-0.1,0-0.1,0-0.2l0,0c0-0.2,0-0.4,0-0.6
		c0-0.5,0-1.1,0.1-1.7c0,0,0,0,0,0c0-0.1,0-0.2,0-0.4c0-0.2,0-0.5,0-0.7l0,0c0-0.1,0-0.2,0-0.4c0-0.2,0-0.5,0-0.7l0,0
		c0-0.2,0-0.4,0-0.7l0,0c0-0.1,0-0.3,0-0.5l0,0c0-0.1,0-0.2,0-0.3c0-0.3,0-0.6,0.1-0.9l0,0c0-0.3,0-0.6,0.1-0.9l0,0
		c0-0.2,0-0.4,0.1-0.6c0-0.3,0.1-0.7,0.1-1l0,0c0-0.3,0.1-0.7,0.1-1c0-0.1,0-0.2,0-0.3l0,0c0-0.3,0.1-0.6,0.1-0.9c0-0.1,0-0.3,0-0.4
		l0,0c0.1-0.4,0.1-0.9,0.2-1.3c0,0,0,0,0-0.1l0,0c0.1-0.7,0.2-1.4,0.3-2c0,0,0,0,0,0c0-0.2,0.1-0.4,0.1-0.6c0-0.3,0.1-0.6,0.1-0.9
		l0,0c0-0.1,0-0.1,0-0.2c0.1-0.5,0.2-1,0.2-1.5c0.1-0.4,0.1-0.9,0.2-1.3c0,0,0,0,0,0c0.2-1,0.3-2,0.5-3c0-0.2,0.1-0.3,0.1-0.5l0,0
		c0-0.2,0.1-0.4,0.1-0.7c0,0,0,0,0,0c0.1-0.4,0.1-0.7,0.2-1.1l0,0c0.1-0.4,0.1-0.7,0.2-1.1c0-0.2,0.1-0.5,0.1-0.8c0,0,0,0,0,0
		c0-0.2,0.1-0.5,0.1-0.8v0c0.1-0.4,0.1-0.8,0.2-1.2l0,0c0-0.2,0.1-0.5,0.1-0.8l0,0c0.1-0.4,0.2-0.9,0.3-1.3c0,0,0,0,0,0
		c0-0.2,0.1-0.4,0.1-0.7l0,0c0-0.1,0.1-0.3,0.1-0.4c0.1-0.5,0.2-1.1,0.3-1.6c0,0,0,0,0,0c0.1-0.3,0.1-0.6,0.2-0.9
		c0.1-0.7,0.3-1.4,0.5-2.1c0.1-0.4,0.2-0.9,0.3-1.3v0c0.3-1.5,0.7-2.9,1-4.5c0,0,0,0,0-0.1l0,0c0.1-0.3,0.1-0.6,0.2-0.9c0,0,0,0,0,0
		c0.1-0.5,0.2-1,0.3-1.4v0c0.1-0.3,0.1-0.6,0.2-1l0,0c0-0.1,0.1-0.3,0.1-0.4c0.2-0.8,0.4-1.7,0.6-2.5c0.1-0.4,0.2-0.9,0.3-1.3
		c0,0,0,0,0-0.1c0-0.2,0.1-0.4,0.1-0.6c0,0,0,0,0,0c0.2-0.9,0.4-1.7,0.6-2.6v0c0.3-1.3,0.7-2.6,1-4c0.1-0.5,0.2-0.9,0.4-1.4v0
		c0.1-0.4,0.2-0.7,0.3-1.1c0,0,0,0,0,0c0.1-0.4,0.2-0.8,0.3-1.2c0.6-2.5,1.3-5,2-7.6v0c0.2-0.7,0.4-1.4,0.5-2c0,0,0,0,0,0
		c0.4-1.3,0.7-2.7,1.1-4.1c9.6-35,17-55.4,6.1-72.8c-3.8-6-8.6-9.8-12.1-12.1c-24.7,4.6-49.5,9.2-74.2,13.8
		c-1.3,16.4-1,39.6,7.6,64.9c0.2,0.7,0.5,1.5,0.8,2.2c0.1,0.2,0.2,0.5,0.3,0.7c0.2,0.5,0.4,1,0.5,1.5c0.1,0.3,0.2,0.6,0.3,0.8
		c0.2,0.4,0.3,0.9,0.5,1.3c0.1,0.3,0.2,0.6,0.4,0.9c0.2,0.4,0.3,0.8,0.5,1.2c0.1,0.3,0.2,0.6,0.4,0.9c0.2,0.4,0.3,0.8,0.5,1.2
		c0.1,0.3,0.2,0.6,0.4,0.9c0.2,0.4,0.3,0.8,0.5,1.1c0.1,0.3,0.3,0.6,0.4,0.9c0.2,0.4,0.3,0.7,0.5,1.1c0.1,0.3,0.3,0.6,0.4,0.9
		c0.2,0.4,0.3,0.7,0.5,1.1c0.1,0.3,0.3,0.6,0.4,0.9c0.2,0.4,0.4,0.7,0.5,1.1c0.1,0.3,0.3,0.5,0.4,0.8c0.2,0.4,0.4,0.7,0.5,1.1
		c0.1,0.3,0.3,0.5,0.4,0.8c0.2,0.4,0.4,0.7,0.6,1.1c0.1,0.2,0.2,0.5,0.4,0.7c0.2,0.4,0.4,0.8,0.6,1.1c0.1,0.2,0.2,0.5,0.4,0.7
		c0.2,0.4,0.4,0.8,0.6,1.2c0.1,0.2,0.2,0.4,0.3,0.6c0.3,0.5,0.5,0.9,0.8,1.4c0.1,0.1,0.1,0.2,0.2,0.4c1,1.8,2,3.5,3,5.2
		c0,0,0.1,0.1,0.1,0.1c0.3,0.5,0.6,1,0.9,1.5c0.1,0.1,0.1,0.2,0.2,0.3c0.3,0.5,0.6,0.9,0.8,1.4c0.1,0.1,0.1,0.2,0.2,0.3
		c0.3,0.5,0.5,0.9,0.8,1.3c0.1,0.1,0.1,0.2,0.2,0.3c0.3,0.4,0.6,0.9,0.8,1.3c0,0.1,0.1,0.2,0.2,0.2c0.3,0.5,0.6,0.9,0.9,1.4
		c0,0,0.1,0.1,0.1,0.1c0.3,0.5,0.6,1,0.9,1.5c0,0,0,0,0,0c4.6,7.1,9,13.5,12.6,19.4l0,0c0.2,0.4,0.5,0.8,0.7,1.2c0,0,0,0.1,0.1,0.1
		c0.2,0.4,0.4,0.7,0.6,1.1c0,0,0.1,0.1,0.1,0.1c0.2,0.4,0.4,0.7,0.6,1.1c0,0.1,0.1,0.1,0.1,0.2c0.2,0.4,0.4,0.7,0.6,1
		c0,0.1,0.1,0.1,0.1,0.2c0.2,0.4,0.4,0.7,0.6,1c0,0,0.1,0.1,0.1,0.2c0.2,0.4,0.4,0.7,0.5,1c0,0,0,0.1,0.1,0.1
		c0.2,0.4,0.4,0.7,0.5,1.1c0,0,0,0,0,0c1.1,2.3,2.1,4.6,2.8,6.9c0,0,0,0,0,0c0.1,0.3,0.2,0.7,0.3,1c0,0.1,0,0.1,0.1,0.2
		c0.1,0.3,0.2,0.6,0.2,0.9c0,0.1,0,0.2,0.1,0.3c0.1,0.3,0.1,0.6,0.2,0.9c0,0.1,0,0.2,0.1,0.3c0.1,0.3,0.1,0.6,0.2,0.8
		c0,0.1,0,0.2,0.1,0.3c0,0.3,0.1,0.5,0.1,0.8c0,0.1,0,0.2,0,0.4c0,0.3,0.1,0.5,0.1,0.8c0,0.1,0,0.2,0,0.4c0,0.3,0,0.5,0.1,0.8
		c0,0.1,0,0.2,0,0.4c0,0.3,0,0.5,0,0.8c0,0.1,0,0.2,0,0.4c0,0.3,0,0.5,0,0.8c0,0.1,0,0.2,0,0.3c0,0.3,0,0.6,0,0.9c0,0.1,0,0.2,0,0.3
		c0,0.3,0,0.6-0.1,0.9c0,0.1,0,0.1,0,0.2c-0.2,1.9-0.6,3.9-1.2,5.8c-5.9,18.4-26.5,22.1-24.2,30.3c7.6,5.4,16-6.1,36.4-6
		c20.2,0.1,29.4,11.5,36.4,6C378.8,466.8,357.1,464.3,346.7,444z"/>
	<path class="st0" d="M286.1,347.1c-42.1,39.6-61.4,80.6-54.5,96.9c4.9,11.6,12.1,18.2,12.1,18.2c9.5,8.7,18.1,8.5,18.2,12.1
		c0.1,5.5-21,12.8-42.4,12.1c-11.4-0.4-34.8-3.2-36.4-12.1c-1.4-8,16.6-9.7,24.2-24.2c12.6-24.1-20.2-50.8-24.6-98.4
		c-2.1-22.5,3-41.4,7.4-53.5l102,14C290.1,323.9,288.1,335.5,286.1,347.1z"/>
	<path class="st3" d="M286.1,341.1c-12.1,7.1-29.8,20.2-42.4,42.4c-6.8,11.9-22.1,38.8-12.1,60.5c9,19.5,31.9,21.5,30.3,30.3
		c-1.8,9.5-27,12.6-42.4,12.1c-11.4-0.4-34.8-3.2-36.4-12.1c-1.4-8,16.6-9.7,24.2-24.2c12.6-24.1-20.2-50.8-24.6-98.4
		c-2.1-22.5,3-41.4,7.4-53.5l102,14C290.1,321.9,288.1,331.5,286.1,341.1z"/>
	<path class="st4" d="M190.1,298.2c-4.4,12.1-9.4,31-7.4,53.5c0.1,0.7,0.1,1.4,0.2,2.1c0,0.2,0.1,0.5,0.1,0.7
		c0.1,0.5,0.1,0.9,0.2,1.4c0,0.3,0.1,0.5,0.1,0.8c0.1,0.4,0.1,0.8,0.2,1.3c0,0.3,0.1,0.5,0.1,0.8c0.1,0.4,0.1,0.8,0.2,1.2
		c0.1,0.3,0.1,0.5,0.1,0.8c0.1,0.4,0.1,0.8,0.2,1.2c0.1,0.3,0.1,0.5,0.1,0.8c0.1,0.4,0.2,0.8,0.2,1.2c0.1,0.2,0.1,0.5,0.1,0.8
		c0.1,0.4,0.2,0.9,0.3,1.3c0.1,0.2,0.1,0.4,0.1,0.6c0.1,0.5,0.2,1.1,0.4,1.6c0,0.1,0.1,0.2,0.1,0.3c0.2,0.6,0.3,1.3,0.5,1.9
		c0,0.1,0,0.1,0.1,0.2c0.1,0.6,0.3,1.1,0.4,1.7c0.1,0.2,0.1,0.3,0.1,0.5c0.1,0.5,0.2,0.9,0.4,1.4c0.1,0.2,0.1,0.4,0.2,0.6
		c0.1,0.4,0.2,0.9,0.4,1.3c0.1,0.2,0.1,0.4,0.2,0.6c0.1,0.4,0.3,0.8,0.4,1.3c0.1,0.2,0.1,0.4,0.2,0.5c0.1,0.4,0.3,0.9,0.4,1.3
		c0.1,0.2,0.1,0.3,0.2,0.5c0.2,0.5,0.3,0.9,0.5,1.4c0,0.1,0.1,0.2,0.1,0.3c0.2,0.6,0.4,1.1,0.6,1.7c0,0,0,0,0,0
		c8.4,23.1,20.5,40.3,19.9,55.5l0,0c0,0.3,0,0.7-0.1,1c0,0,0,0,0,0.1c0,0.3-0.1,0.7-0.1,1c0,0,0,0,0,0.1c0,0.3-0.1,0.7-0.1,1
		c0.1,3.3-0.6,5.9-2.6,7.7c-7.6,14.5-25.6,16.3-24.2,24.2c8.9-2.8,21.3-5.7,36.3-6c18-0.4,32.6,2.9,42.4,6c0-0.3,0.1-0.5,0.1-0.8
		c0,0,0,0,0,0c0-2.5-2-4.4-5-6.5c-4-2.7-9.9-5.6-15.3-10.1c0,0-0.1-0.1-0.1-0.1c-0.4-0.4-0.8-0.7-1.2-1.1l0,0
		c-0.4-0.4-0.8-0.7-1.1-1.1c-0.1-0.1-0.1-0.1-0.2-0.2c-0.4-0.4-0.8-0.8-1.1-1.2c0,0,0,0,0,0c-0.4-0.4-0.7-0.8-1-1.2
		c-0.1-0.1-0.1-0.2-0.2-0.2c-0.4-0.4-0.7-0.8-1-1.3c0,0,0,0-0.1-0.1c-0.3-0.4-0.6-0.8-0.9-1.3c-0.1-0.1-0.1-0.2-0.2-0.3
		c-0.3-0.5-0.6-0.9-0.9-1.4c0,0,0,0,0-0.1c-0.3-0.5-0.6-0.9-0.8-1.4c-0.1-0.1-0.1-0.3-0.2-0.4c-0.3-0.5-0.5-1-0.8-1.6
		c-0.3-0.7-0.6-1.4-0.9-2c-0.1-0.2-0.1-0.4-0.2-0.7c-0.2-0.5-0.3-0.9-0.5-1.4c-0.1-0.3-0.1-0.5-0.2-0.8c-0.1-0.4-0.2-0.8-0.4-1.3
		c-0.1-0.3-0.1-0.6-0.2-0.9c-0.1-0.4-0.2-0.8-0.3-1.2c-0.1-0.3-0.1-0.6-0.1-0.9c-0.1-0.4-0.1-0.8-0.2-1.2c0-0.3-0.1-0.6-0.1-0.9
		c0-0.4-0.1-0.8-0.1-1.2c0-0.3,0-0.6-0.1-0.9c0-0.4-0.1-0.8-0.1-1.2c0-0.3,0-0.6,0-0.9c0-0.4,0-0.8,0-1.2c0-0.3,0-0.6,0-0.9
		c0-0.4,0-0.8,0.1-1.2c0-0.3,0.1-0.6,0.1-0.9c0-0.4,0.1-0.8,0.1-1.2c0-0.3,0.1-0.6,0.1-0.9c0.1-0.4,0.1-0.8,0.2-1.2
		c0-0.3,0.1-0.6,0.1-0.9c0.1-0.4,0.1-0.8,0.2-1.2c0.1-0.3,0.1-0.6,0.2-0.9c0.1-0.4,0.2-0.8,0.2-1.2c0.1-0.3,0.1-0.6,0.2-0.9
		c0.1-0.4,0.2-0.8,0.3-1.2c0.1-0.3,0.1-0.6,0.2-0.9c0.1-0.4,0.2-0.8,0.3-1.2c0.1-0.3,0.2-0.6,0.2-0.9c0.1-0.4,0.2-0.8,0.4-1.2
		c0.1-0.3,0.2-0.6,0.3-0.9c0.1-0.4,0.2-0.8,0.4-1.1c0.1-0.3,0.2-0.6,0.3-0.9c0.1-0.4,0.3-0.8,0.4-1.1c0.1-0.3,0.2-0.6,0.3-0.8
		c0.1-0.4,0.3-0.8,0.4-1.1c0.1-0.3,0.2-0.5,0.3-0.8c0.1-0.4,0.3-0.7,0.4-1.1c0.1-0.3,0.2-0.5,0.3-0.8c0.1-0.4,0.3-0.7,0.5-1.1
		c0.1-0.3,0.2-0.5,0.3-0.8c0.1-0.4,0.3-0.7,0.5-1c0.1-0.3,0.2-0.5,0.4-0.8c0.2-0.3,0.3-0.7,0.5-1c0.1-0.2,0.2-0.5,0.4-0.8
		c0.2-0.3,0.3-0.6,0.5-1c0.1-0.2,0.2-0.5,0.4-0.7c0.2-0.3,0.3-0.6,0.5-0.9c0.1-0.2,0.2-0.5,0.4-0.7c0.1-0.3,0.3-0.6,0.5-0.9
		c0.1-0.2,0.2-0.5,0.4-0.7c0.1-0.3,0.3-0.5,0.4-0.8c0.1-0.2,0.2-0.5,0.4-0.7c0.1-0.3,0.3-0.5,0.4-0.8c0.1-0.2,0.2-0.5,0.4-0.7
		c0.1-0.2,0.3-0.5,0.4-0.7s0.2-0.5,0.4-0.7c0.1-0.2,0.2-0.4,0.3-0.6c0.1-0.2,0.3-0.5,0.4-0.7c0.1-0.1,0.1-0.2,0.2-0.4
		c0.2-0.3,0.3-0.6,0.5-0.9c0,0,0,0,0,0c0.2-0.3,0.3-0.5,0.5-0.9c12.6-22.2,30.3-35.3,42.4-42.4c2-9.6,4-19.2,6.1-28.8L190.1,298.2z"
		/>
	<path class="st5" d="M364.9,159.3c7.4,15.6,3,18.4,12.1,36.3c11.1,21.9,21.5,25.1,24.2,42.4c0.7,4.2,3.1,19-6.1,30.3
		c-7.6,9.4-20.5,13-30.3,12.1c-34.6-3.3-51.8-65.8-54.1-74.1c-9.6-35-11.3-84.8,5-90.6C329,111.1,353.8,136.1,364.9,159.3z"/>
	<path class="st0" d="M364.9,212.7c3.9,33.9,8.5,72.7-18.2,103c-33.9,38.5-88.5,30.7-90.9,30.3c-44.3-7-67.6-41-72.7-48.5
		c-32.8-47.9-30.4-122.3,6.1-151.5c12.3-9.8,30.3-13.1,66.7-18.2c39.4-5.5,59.1-7.6,72.7,0C356.8,143.8,361.5,183.5,364.9,212.7z"/>
	<path class="st6" d="M364.9,206.7c5.1,27.6,10,55.8-6.1,79.9c-5.4,8-11,12.6-18.2,18.2c-10.4,8.2-60.4,47.4-109.1,30.3
		c-27.4-9.6-41.7-32.6-48.5-43.5c-29.4-47.4-31.2-121.7,6.1-151.5c12.3-9.8,30.3-13.1,66.6-18.2c39.4-5.5,59.1-7.6,72.7,0
		C351.9,134.9,357,163.7,364.9,206.7z"/>
	<path class="st5" d="M201.1,177.5c1-30.6-2.2-39.3-7-40.9c-5.2-1.8-11.9,4.8-17.2,10.6c-11.2,12.3-31.4,38.1-53.7,90.1
		c-10.8,12.9-18.1,33-19,55.8c-1.6,40.1,17.5,73.4,42.6,74.4c25.1,1,46.7-30.8,48.2-70.9c0.5-13.2-1.2-25.7-4.6-36.5
		C198.2,225.4,200.5,197.2,201.1,177.5z"/>
	<path class="st3" d="M195.1,177.5c1-30.6-2.2-39.3-7-40.9c-5.2-1.8-11.9,4.8-17.2,10.6c-11.2,12.3-31.4,38.1-53.7,90.1
		c-10.8,12.9-18.1,33-19,55.8c-1.6,40.1,17.5,73.4,42.6,74.4c25.1,1,46.7-30.8,48.2-70.9c0.5-13.2-1.2-25.7-4.6-36.5
		C192.1,225.4,194.4,197.2,195.1,177.5z"/>
	<path class="st7" d="M219.4,123c-3.4-11.5-13.8-18.9-24.2-18.2c-11.5,0.8-17.6,11.2-18.2,12.1c0,0-6.1-30.3,6.1-36.3
		c-1.1-8.2-10.1-6.1-18.2,6.1l0,0l0,0c5.6-22.3,7.3-27.7,12.1-30.3c6.5-3.5,9.9,2.1,18.2,0c12.6-3.2,9.2-21.2,24.2-30.3
		c11.8-7.2,30.3-6.1,30.3-6.1s-8.6,15.8-6.1,18.2c3.8,3.5,26.5-28.7,48.5-24.2c15.5,3.1,30.3,24.2,30.3,24.2
		c-14.3-1.9-18.2,0-18.2,0c-1,0.5-6.1,2.9-6.1,6.1c0.1,6.7,24,5,30.3,18.2c4.4,9.1,0,24.2,0,24.2c-2.6-11.6-6.1-12.1-6.1-12.1
		c-2.2-0.3-4.3,3.1-6.1,6.1c-2.1,3.5-5,9.5-6.1,18.2C280,106.8,249.8,114.9,219.4,123z"/>
	<path class="st8" d="M309.1,100.3c6.3,11.3,14.7,12.6,18.2,24.2c2.2,7.5,0.9,14,0,18.2c-4,18.8-23.2,48.2-54.5,54.5
		c-45.9,9.3-88.8-36.6-84.8-54.5c0.9-4.1,4.7-8.2,6.1-18.2c1.2-8.4-0.6-11.6,0-18.2c1-10.7,7.2-18.3,12.1-24.2
		C221.4,63.6,243,59,248.5,57.9c14.4-2.7,44.5-3.9,54.5,12.1C309.3,80,301.5,86.6,309.1,100.3z"/>
	<path class="st9" d="M309.1,94.3c6.3,11.3,14.7,12.6,18.2,24.2c2.2,7.5,0.9,14,0,18.2c-4,18.8-23.2,48.2-54.5,54.5
		c-45.9,9.3-88.8-36.6-84.8-54.5c0.9-4.1,4.7-8.2,6.1-18.2c1.2-8.4-0.6-11.6,0-18.2c1-10.7,7.2-18.3,12.1-24.2
		c15.3-18.5,36.9-23.2,42.4-24.2C263,49.2,293.1,48,303.1,64C309.3,73.9,301.5,80.5,309.1,94.3z"/>
	<path class="st10" d="M292.2,141.1c2.7-7.6,5.1-14.5,6.1-24.2c1.1-10.8-0.8-13.1,0-24.2c1.3-19.1,7.4-21.9,4.8-28.7l0,0
		c-4.4-7.1-12.8-10.8-22.1-12.5c-8.5-1.4-18.1-1.5-26.6-0.5c0,0,0,0,0,0c-0.6,0.1-1.1,0.1-1.7,0.2c-0.2,0-0.4,0.1-0.7,0.1
		c-0.4,0-0.8,0.1-1.1,0.2c-0.2,0-0.4,0.1-0.6,0.1c-0.6,0.1-1.1,0.2-1.7,0.3c-5.5,1-27.1,5.7-42.4,24.2c-4.9,6-11.1,13.5-12.1,24.2
		c-0.6,6.6,1.2,9.8,0,18.2c-1.4,10-5.1,14-6.1,18.2c-0.1,0.3-0.1,0.6-0.2,0.9c0,0.1,0,0.2,0,0.4c0,0.2,0,0.4-0.1,0.6
		c0,0.1,0,0.2,0,0.4c0,0.3,0,0.6,0,0.9c0,0,0,0.1,0,0.1c0.9,14.2,24.3,36.5,47.6,47.7c11.6,4.4,24.4,6.2,37.4,3.6
		C275,189.8,280.7,173.6,292.2,141.1z"/>
	<path class="st11" d="M267.9,98.7c-6.1-22.8,2.7-40.4,12.1-42.4c7.5-1.6,17.6,6.3,24.2,18.2c-0.8-1.2-8.7-12.8-18.2-12.1
		C276,63.2,265.1,78,267.9,98.7z"/>
	<path class="st11" d="M267.9,98.7c-7.4-20.2,0.8-38.6,12.1-42.4c11.5-3.8,29.4,6.4,30.3,18.2c0.4,4.9-2.1,11.4-6.1,12.1
		c-8.5,1.6-16.1-25.9-24.2-24.2C272.5,64,269.3,80.9,267.9,98.7z"/>
	<path class="st5" d="M267.9,98.7c-1.9-8.2-0.9-14.6,0-18.2c1-4,3.8-15.8,12.1-18.2c2.3-0.6,4.2-0.3,6.1,0c0.2,0,0.4,0.1,0.6,0.1
		c13.8,3.1,17.5,12,17.5,12c1.9,4.6,1,9.2,0,12.1l0,0c0,0-8-5.2-12.1-6.1C287.4,79.5,279.9,82.4,267.9,98.7z"/>
	<path class="st11" d="M267.9,104.8c-4.9-7.9-16.7-24.7-36.4-30.3c-4.7-1.4-11.5-3.2-18.2,0c-9.6,4.6-11.7,16.2-12.1,18.2
		c-2.3,11.8,4,21.5,6.1,24.2c4.2,5.8,12.1,12.1,12.1,12.1c-5.8-11.4-6.1-12.1-6.1-12.1c-1.2-3.4-7.9-22.6,0-30.3
		C221.6,78.7,244.7,83.8,267.9,104.8z"/>
	<path class="st5" d="M249.4,87.5c-12.7-10.4-28.2-12.8-36-6.9c-9.8,7.3-11.5,30.5,6.1,48.5c-0.2-3.6-0.5-13.9,6.1-24.2
		C233.6,92,246.4,88.3,249.4,87.5z"/>
	<path class="st10" d="M195.2,104.8c0,0-6.1-18.2-12.1-12.1c0,0-8.5,21.4,4.8,44C187.9,136.7,201.3,116.9,195.2,104.8z"/>
	<path class="st5" d="M188.2,101c-1.9,1-1.6,6.3,0.9,15.9c0.9,4.3,1.7,8.7,2.6,13c3.4-6.9,7.3-17.5,3.4-25.2
		C191.9,101.6,189.6,100.4,188.2,101z"/>
	<path class="st11" d="M309.9,96.4c1,2.3,4.7,10.7,1.3,14.4c-2.7,3-7.5,0.7-18.2,0c-16.3-1-20.6,3.3-24.2,0
		c-7-6.3-2.8-32.1,11.3-36.3C292.6,70.7,305.4,86.2,309.9,96.4z"/>
	<path class="st12" d="M316.4,104.8c-0.9,2.7-11.6,33.6-42.4,42.4c-26.5,7.5-56.5-4.5-72.7-30.3c-0.7,4.6-4,28.9,12.1,48.5
		c17.9,21.7,52.6,28.8,78.8,12.1C315.8,162.4,326.2,132.1,316.4,104.8z"/>
	<path class="st13" d="M358.8,80.6"/>
	<path class="st14" d="M309,96.4c1.2,2.8,3.5,8,1.2,11.4c-2.2,3.3-7,2.7-18.1,3c-19.5,0.5-21.8,2.5-24.2,0
		c-6.5-6.5-1.1-31.4,13.3-34.9C293.7,72.8,305.1,87.5,309,96.4z"/>
	<path class="st11" d="M267.9,113.9c-1.6,2.6-5,1.3-12.1,3c-18.5,4.5-23.2,20.1-30.3,18.2c-6.7-1.8-11-17.8-6.1-30.3
		c3.6-9.1,12.8-18.5,24.2-18.2C260.1,87.1,271.5,108.2,267.9,113.9z"/>
	<path class="st7" d="M292.2,110.9c4.2-0.1,7.6-0.1,10.2-0.2c0.6,0.3,5.6-10.9,2-18c-4.7-9.1-17.1-14.1-27.1-11.3
		c-3.4,1-5.9,2.7-7.3,3.8c-5.4,8.9-6.3,21.3-2,25.7C270.4,113.3,272.7,111.3,292.2,110.9z"/>
	<path class="st14" d="M297.2,110.8c0.6-1.9,1-3.9,1-6c0-10-8.1-18.2-18.2-18.2c-5.3,0-10.1,2.3-13.4,5.9c-2.3,7.4-2,15.1,1.3,18.3
		c2.5,2.5,4.8,0.5,24.2,0C294,110.8,295.7,110.8,297.2,110.8z"/>
	<path class="st7" d="M292.2,104c0-8.4-6.8-15.2-15.1-15.2c-4.1,0-7.8,1.6-10.5,4.3c-2,7.2-1.7,14.6,1.5,17.7
		c2.4,2.4,4.6,0.6,22.6,0C291.6,108.8,292.2,106.5,292.2,104z"/>
	<circle class="st14" cx="280" cy="98.7" r="6.1"/>
	<path class="st14" d="M267.9,113.9c-1.5,2.6-4.8,1.2-12.1,3c-17.4,4.4-22.4,18.3-29.3,16.1c-5.6-1.7-7.3-12.3-7-19.2
		c0.5-12,9.8-27.3,24.2-27.3C260.1,86.6,271.5,107.7,267.9,113.9z"/>
	<path class="st7" d="M268.3,113.1c0.1-0.2,0.1-0.4,0.1-0.4c0-0.1,0-0.2,0-0.3c0-0.2,0-0.3,0.1-0.4c0-0.1,0-0.2,0-0.3
		c0-0.2,0-0.3,0-0.5c0-0.1,0-0.2,0-0.3c0-0.2,0-0.3,0-0.5c0-0.1,0-0.2,0-0.4c0-0.2,0-0.4-0.1-0.6c0-0.1,0-0.2,0-0.3
		c0-0.2-0.1-0.5-0.1-0.7c0-0.1,0-0.2,0-0.3c-0.1-0.3-0.2-0.6-0.2-1c0-0.1-0.1-0.3-0.1-0.4c-0.1-0.2-0.1-0.4-0.2-0.6
		c-0.1-0.2-0.1-0.3-0.2-0.5c-0.1-0.2-0.1-0.4-0.2-0.5s-0.1-0.3-0.2-0.5c-0.1-0.2-0.1-0.3-0.2-0.5c-0.1-0.2-0.2-0.4-0.3-0.6
		c-0.1-0.2-0.2-0.3-0.2-0.5c-0.1-0.2-0.2-0.4-0.3-0.6c-0.1-0.2-0.2-0.3-0.2-0.5c-0.1-0.2-0.2-0.4-0.4-0.6c-0.1-0.1-0.1-0.2-0.2-0.4
		c-0.5-0.8-1-1.7-1.6-2.5c0-0.1-0.1-0.1-0.1-0.2c-0.2-0.2-0.4-0.5-0.6-0.7c-0.1-0.1-0.2-0.2-0.2-0.3c-0.2-0.2-0.4-0.5-0.6-0.7
		c-0.1-0.1-0.2-0.2-0.3-0.3c-0.2-0.2-0.4-0.5-0.6-0.7c-0.1-0.1-0.2-0.2-0.3-0.3c-0.2-0.2-0.4-0.5-0.6-0.7c-0.1-0.1-0.2-0.2-0.2-0.2
		c-0.2-0.2-0.5-0.5-0.7-0.7c0-0.1-0.1-0.1-0.1-0.1c-1.2-1.1-2.4-2.1-3.8-3c-0.1,0-0.1-0.1-0.2-0.1c-0.3-0.2-0.6-0.4-0.9-0.5
		c-0.1-0.1-0.2-0.1-0.3-0.2c-0.3-0.2-0.6-0.3-0.9-0.5c-0.1-0.1-0.2-0.1-0.3-0.2c-0.3-0.1-0.6-0.3-0.9-0.4c-0.1-0.1-0.2-0.1-0.4-0.2
		c-0.3-0.1-0.6-0.2-0.9-0.4c-0.1,0-0.2-0.1-0.3-0.1c-0.3-0.1-0.7-0.2-1-0.3l0,0c-1.3-0.4-3.3-1-5.7-0.9c-6.4,0.2-10.7,4.6-12.1,6.1
		c-4.3,4.4-5.4,9.4-6.1,12.1c-1.8,8.2-0.9,20.6,6.1,24.2c1.1,0.6,2.1,0.8,2.8,0.9c2.9-2.4,6.2-5.7,10.9-8.5c0,0,0,0,0,0
		c0.3-0.2,1.3-0.9,2.7-1.6c4.3-2.3,7.9-2.9,7.9-2.9S268,113.9,268.3,113.1z"/>
	<path class="st14" d="M258.5,92.7c-11.6,0.2-20.9,9.6-20.9,21.2c0,3.9,1.1,7.6,2.9,10.8c3.8-3,8.6-6,15.2-7.7
		c7.3-1.9,10.6-0.5,12.1-3C270.3,109.9,266.2,99.4,258.5,92.7z"/>
	<path class="st7" d="M259.3,93.4c-2,0.5-6,1.8-9.6,5.3c-0.3,0.3-5,5-6.1,12.1c-0.2,1.1-0.5,3.2,0,6.1c0.3,1.9,0.9,3.5,1.4,4.6
		c1.3-0.8,3.3-1.9,5.7-2.9c1.5-0.6,3.2-1.2,5-1.6c7.3-1.9,10.6-0.5,12.1-3C270.2,110,266.5,100.2,259.3,93.4z"/>
	<circle class="st14" cx="255.8" cy="104.8" r="6.1"/>
	<ellipse class="st15" cx="280" cy="126" rx="24.2" ry="27.3"/>
	<path class="st16" d="M298.2,110.9c5.6,10.1,1.5,20.5,0,24.2c-0.9,2.4-6.8,17.1-18.2,18.2c-11.8,1.1-24.2-13-24.2-27.3
		c0-13.7,11.4-27.7,24.2-27.3C288.2,99,294.9,104.9,298.2,110.9z"/>
	<path class="st1" d="M207.3,280.6c17.2-39.7,52.2-65.9,89.8-66.7c26.7-0.6,46.8,11.9,55.6,18.2c-10-5.3-32.3-15.2-60.6-12.1
		C237.4,226,210,275.5,207.3,280.6z"/>
	<path class="st17" d="M274,159.3c-17.6,0-33.4,7.5-44.5,19.4c18.5,10.4,43,11.2,62.6-1.2c4.5-2.9,8.5-6.3,12-10.1
		C295.3,162.3,285,159.3,274,159.3z"/>
	<path class="st18" d="M267.9,116.9c-1.4,6.9,1.1,11.7,0,12.1c-1.3,0.5-6.8-5.6-6.1-12.1c0.9-8.2,11.2-13,12.1-12.1
		C274.7,105.5,269.5,109.2,267.9,116.9z"/>
	<path class="st19" d="M177,256.3c0,0-22.9-31.9-53.9-19C123.2,237.3,152.8,232,177,256.3z"/>
	<path class="st7" d="M189.2,86.6c3.9-4,29.1-29.7,42.4-24.2c1.1,0.4,6.1,2.7,12.1,6.1c8.9,4.9,10,6.6,12.1,6.1
		c7-1.7,3.8-21,12.1-24.2c2.1-0.8,7.5,1.5,18.2,6.1c7.3,3.1,10.9,4.7,12.1,6.1c5.3,5.9,2.1,12.3,6.1,24.2c1.8,5.5,4.3,9.6,6.1,12.1
		c1.9-4.6,8.2-21.9,0-36.3c-11.5-20.5-42.6-18.8-54.5-18.2c-6.7,0.4-34.4,2.3-54.5,24.2C195.1,75.2,191.4,81.9,189.2,86.6z"/>
</g>
</svg>
