<?xml version="1.0" encoding="utf-8"?>
<!-- Generator: Adobe Illustrator 24.1.2, SVG Export Plug-In . SVG Version: 6.00 Build 0)  -->
<svg version="1.1" id="レイヤー_1" xmlns="http://www.w3.org/2000/svg" xmlns:xlink="http://www.w3.org/1999/xlink" x="0px"
	 y="0px" viewBox="0 0 500 500" style="enable-background:new 0 0 500 500;" xml:space="preserve">
<style type="text/css">
	.st0{fill:#3E3A39;}
	.st1{fill:#110C0E;}
	.st2{fill:#181718;}
	.st3{fill:#202020;}
	.st4{fill:#252526;}
	.st5{fill:#DBDCDC;}
	.st6{fill:#B4B4B5;}
	.st7{fill:#888888;}
	.st8{fill:#1B1A1B;}
	.st9{fill:#323333;}
	.st10{fill:#3D3E3E;}
	.st11{fill:#3A3B3B;}
	.st12{fill:#363737;}
	.st13{fill:#2E2E2F;}
	.st14{fill:#161415;}
	.st15{fill:#530000;}
	.st16{fill:#680000;}
	.st17{fill:#7D0000;}
	.st18{fill:#900000;}
	.st19{fill:#A30000;}
	.st20{fill:#B50005;}
	.st21{fill:#460000;}
	.st22{fill:#292A2A;}
	.st23{fill:#414242;}
</style>
<g>
	<path class="st0" d="M378.4,286.7c-25.1,17.7-47.4,25.1-62.8,28.6c-26.3,6-47.2,4-154.1-11.4c-15.1-2.2-28.6-4.1-39.9-5.8
		c19.7-32.6,26.3-60.2,28.5-79.9c2.4-21.2,0.2-35.8,5.7-62.8c4.6-22.3,11.7-39.8,17.1-51.4c-0.4-7.8-0.1-20.4,5.7-34.2
		c1.2-3,19.9-45.7,57.1-45.7s55.8,42.7,57.1,45.7c5.8,13.8,6.1,26.5,5.7,34.2c4.3,11.3,10.7,29.1,17.1,51.4
		c13.1,45.7,13.3,65.2,28.5,91.3C350.6,257.8,361,272.3,378.4,286.7z"/>
	<path class="st1" d="M378.4,284.2c-25.1,17.7-47.4,25.1-62.8,28.6c-26.3,6-47.2,4-154.1-11.4c-15.1-2.2-28.6-4.1-39.9-5.8
		c19.7-32.6,26.3-60.2,28.5-79.9c2.4-21.2,0.2-35.8,5.7-62.8c4.6-22.3,11.7-39.8,17.1-51.4c-0.4-7.8-0.1-20.4,5.7-34.2
		c1.2-3,19.9-45.7,57.1-45.7s55.8,42.7,57.1,45.7c5.8,13.8,6.1,26.5,5.7,34.2c4.3,11.3,10.7,29.1,17.1,51.4
		c13.1,45.7,13.3,65.2,28.5,91.3C350.6,255.2,361,269.7,378.4,284.2z"/>
	<path class="st0" d="M327.8,392.3c-3.9-17.9-10.4-33.4-17.6-43.6c-0.3-16.1-4.8-37.5-13.5-59.8c-16.6-42.6-42-72.5-56.6-66.7
		s-13.1,44.9,3.5,87.5c9.3,23.8,21.3,43.7,32.7,55.6c-0.7,10.9,0.2,23.9,3.2,37.5c7.4,34.1,24.1,59.4,37.5,56.5
		C330.3,456.3,335.2,426.4,327.8,392.3z"/>
	<path class="st0" d="M224.7,426.9C224.7,426.9,224.7,426.9,224.7,426.9c-0.1-13.5-5.2-32.5-14.7-52.1
		c-4.9-10.1-10.4-19.2-16.1-26.9c8.3-11.6,16.4-26.8,23.1-44.1c16.5-42.6,18-81.8,3.3-87.5c-14.7-5.7-40,24.2-56.5,66.9
		c-14.5,37.4-17.4,72.1-8,83.9c2.5,9,6.1,18.7,10.9,28.5c9.2,19,20.6,34.5,30.9,43.1c-3.7,3.9-8,7.6-13,10.9
		c-10.6,7-21.1,10-28.5,11.4c-8.6,5.3-13.1,12.6-11.4,17.1c2.1,5.3,12.4,5.6,17.1,5.7c10,0.2,18-3.1,22.8-5.7
		c2-3.3,5.5-8.1,11.4-11.4c8.4-4.7,14.6-2.3,22.8-5.7c4.8-2,11.3-6.3,17.1-17.1C232.6,440.3,228.2,434.6,224.7,426.9z"/>
	<path class="st2" d="M235.7,426.9C235.7,426.9,235.7,426.9,235.7,426.9c-0.1-13.5-5.2-32.5-14.7-52.1
		c-4.9-10.1-10.4-19.2-16.1-26.9c8.3-11.6,16.4-26.8,23.1-44.1c16.5-42.6,18-81.8,3.3-87.5c-14.7-5.7-40,24.2-56.5,66.9
		c-14.5,37.4-17.4,72.1-8,83.9c2.5,9,6.1,18.7,10.9,28.5c9.2,19,20.6,34.5,30.9,43.1c-3.7,3.9-8,7.6-13,10.9
		c-10.6,7-21.1,10-28.5,11.4c-8.6,5.3-13.1,12.6-11.4,17.1c2.1,5.3,12.4,5.6,17.1,5.7c10,0.2,18-3.1,22.8-5.7
		c2-3.3,5.5-8.1,11.4-11.4c8.4-4.7,14.6-2.3,22.8-5.7c4.8-2,11.3-6.3,17.1-17.1C243.7,440.3,239.2,434.6,235.7,426.9z"/>
	<path class="st3" d="M230,426.9C230,426.9,230,426.9,230,426.9c-0.1-13.5-5.2-32.5-14.7-52.1c-4.9-10.1-10.4-19.2-16.1-26.9
		c8.3-11.6,16.4-26.8,23.1-44.1c16.5-42.6,18-81.8,3.3-87.5c-14.7-5.7-40,24.2-56.5,66.9c-14.5,37.4-17.4,72.1-8,83.9
		c2.5,9,6.1,18.7,10.9,28.5c9.2,19,20.6,34.5,30.9,43.1c-3.7,3.9-8,7.6-13,10.9c-10.6,7-21.1,10-28.5,11.4
		c-8.6,5.3-13.1,12.6-11.4,17.1c2.1,5.3,12.4,5.6,17.1,5.7c10,0.2,18-3.1,22.8-5.7c2-3.3,5.5-8.1,11.4-11.4
		c8.4-4.7,14.6-2.3,22.8-5.7c4.8-2,11.3-6.3,17.1-17.1C238,440.3,233.5,434.6,230,426.9z"/>
	<path class="st4" d="M333.2,392.3c-3.9-17.9-10.4-33.4-17.6-43.6c-0.3-16.1-4.8-37.5-13.5-59.8c-16.6-42.6-42-72.5-56.6-66.7
		s-13.1,44.9,3.5,87.5c9.3,23.8,21.3,43.7,32.7,55.6c-0.7,10.9,0.2,23.9,3.2,37.5c7.4,34.1,24.1,59.4,37.5,56.5
		C335.7,456.3,340.5,426.4,333.2,392.3z"/>
	<path class="st5" d="M332.6,172.3c-4.1,52.8-72.1,83.8-78.4,77.6c-4.3-4.2,21.9-23.9,33.7-68.1c12.2-45.8-2-77.3,6.3-80.1
		C303.6,98.5,335.5,133.9,332.6,172.3z"/>
	
		<ellipse transform="matrix(6.189876e-02 -0.9981 0.9981 6.189876e-02 131.1561 319.8384)" class="st6" cx="235.7" cy="90.1" rx="74.2" ry="62.8"/>
	<path class="st7" d="M184.5,169.7c-1.9,4.9-4.2,5.3-8.6,9.2c0,0-1.4,1.2-4.9,5.1c-7.5,8.4-23.4,49.4-28.3,48.8
		c-4.2-0.5-9.4-32.1,0-68.5c9.8-37.9,34.4-77.5,45.7-74.2C202.4,94.3,186.9,163.7,184.5,169.7z"/>
	<path class="st8" d="M186.3,169.7c-2.6,6.4-5.8,5.1-13.6,14.3c-20.9,24.6-24.4,43.9-28.3,43.1c-4.8-1-6.4-31.6,2.6-64.5
		c9.3-34.1,31.5-75.8,43.1-72.4C200.1,93.1,200,135.4,186.3,169.7z"/>
	<path class="st9" d="M378.4,284.2c-21.3,12.8-48.6,24-79.9,22.8c-36.1-1.3-51.9-18-91.3-22.8c-22.3-2.7-50.9-1.5-85.6,11.4
		c19.7-32.6,26.3-60.2,28.5-79.9c2.4-21.2,0.2-35.8,5.7-62.8c4.6-22.3,11.7-39.8,17.1-51.4c-0.4-7.8-0.1-20.4,5.7-34.2
		c1.2-3,19.9-45.7,57.1-45.7s55.8,42.7,57.1,45.7c5.8,13.8,6.1,26.5,5.7,34.2c4.3,11.3,10.7,29.1,17.1,51.4
		c13.1,45.7,13.3,65.2,28.5,91.3C350.6,255.2,361,269.7,378.4,284.2z"/>
	<path class="st10" d="M344.2,244.2c-15.2-26.1-15.4-45.6-28.5-91.3c-5.1-17.9-10.3-32.9-14.4-44l-2.8-1.7
		c-40,165.5,79.9,176.9,79.9,176.9C361,269.7,350.6,255.2,344.2,244.2z"/>
	<path class="st8" d="M331.2,177.2c-4.1,52.8-72.1,83.9-78.4,77.6c-4.3-4.2,21.9-23.9,33.7-68.1c12.2-45.8-2-77.3,6.3-80.1
		C302.2,103.4,334.2,138.8,331.2,177.2z"/>
	<path class="st11" d="M331.2,172.3c-4.1,52.8-72.1,83.8-78.4,77.6c-4.3-4.2,21.9-23.9,33.7-68.1c12.2-45.8-2-77.3,6.3-80.1
		C302.2,98.5,334.2,133.9,331.2,172.3z"/>
	
		<ellipse transform="matrix(6.189876e-02 -0.9981 0.9981 6.189876e-02 114.1506 335.8334)" class="st8" cx="235.7" cy="107.2" rx="74.2" ry="62.8"/>
	
		<ellipse transform="matrix(6.189876e-02 -0.9981 0.9981 6.189876e-02 125.5 325.1574)" class="st12" cx="235.7" cy="95.8" rx="74.2" ry="62.8"/>
	<path class="st13" d="M231.1,169.9c-34.6-2.1-60.6-37-58.1-77.9s32.7-72.3,67.2-70.2S265.7,172,231.1,169.9z"/>
	<path class="st4" d="M241.9,21.9c-0.5,0-1.1-0.1-1.6-0.1c-34.6-2.1-64.7,29.3-67.2,70.2c-2.5,40.9,23.5,75.8,58.1,77.9c0,0,0,0,0,0
		c1.2,0.1,2.2,0.1,2.9,0.1c-7.9-1.9-24.9-7.3-38.3-22.7c-21.4-24.6-23.6-63.4-5.7-91.3C207,29.6,235.4,23.2,241.9,21.9z"/>
	<path class="st8" d="M235.7,90.1c-1.7,1.9-7.4,8.3-5.7,13.5c2.2,6.5,15.8,9.8,34.2,5.7c-4-1-10.5-3-17.1-7.8
		C241.6,97.6,238,93.2,235.7,90.1z"/>
	<path class="st14" d="M212.9,84.9c0,0,0,16.6-22.8,10.9C190.1,95.8,207.2,119.6,212.9,84.9z"/>
	<circle class="st15" cx="247.1" cy="90.1" r="11.4"/>
	<circle class="st16" cx="247.1" cy="90.1" r="10.8"/>
	
		<ellipse transform="matrix(0.1602 -0.9871 0.9871 0.1602 118.6046 319.643)" class="st17" cx="247.1" cy="90.1" rx="9.9" ry="9.9"/>
	<circle class="st18" cx="247.1" cy="90.1" r="9"/>
	<circle class="st19" cx="247.1" cy="90.1" r="8.1"/>
	<circle class="st20" cx="247.1" cy="90.1" r="7.2"/>
	<circle class="st21" cx="202" cy="84.9" r="10.9"/>
	<circle class="st15" cx="202" cy="84.9" r="9.9"/>
	<circle class="st16" cx="202" cy="84.9" r="9"/>
	<circle class="st17" cx="202" cy="84.9" r="8.1"/>
	<circle class="st18" cx="202" cy="84.9" r="7.2"/>
	<circle class="st19" cx="202" cy="84.9" r="6.3"/>
	<path class="st22" d="M230,84.4c0,0,34.2-17.1,45.7,0C275.7,84.4,275.7,50.2,230,84.4z"/>
	<path class="st4" d="M349.9,478.3c-5.7,2.4-15.7,5.7-28.5,5.7c-6.2,0-16.7-0.8-28.5-5.7c0-3.8,0-7.6,0-11.4
		c3-13.3,14.9-22.8,28.5-22.8s25.5,9.5,28.5,22.8C349.9,470.7,349.9,474.5,349.9,478.3z"/>
	<path class="st23" d="M349.9,478.3c-5.7,2.4-15.7,5.7-28.5,5.7c-6.2,0-16.7-0.8-28.5-5.7c0-3.8,0-7.6,0-11.4
		c5.7-2.4,15.7-5.7,28.5-5.7c6.2,0,16.7,0.8,28.5,5.7C349.9,470.7,349.9,474.5,349.9,478.3z"/>
	<path class="st4" d="M218.6,78.8c0,0-5.7-22.8-22.8-11.4C195.8,67.4,207.2,61.7,218.6,78.8z"/>
</g>
</svg>
