<?xml version="1.0" encoding="utf-8"?>
<!-- Generator: Adobe Illustrator 24.1.2, SVG Export Plug-In . SVG Version: 6.00 Build 0)  -->
<svg version="1.1" id="レイヤー_1" xmlns="http://www.w3.org/2000/svg" xmlns:xlink="http://www.w3.org/1999/xlink" x="0px"
	 y="0px" viewBox="0 0 500 500" style="enable-background:new 0 0 500 500;" xml:space="preserve">
<style type="text/css">
	.st0{fill:#D8A57D;}
	.st1{fill:#D09977;}
	.st2{fill:#D79F7B;}
	.st3{fill:#C99974;}
	.st4{fill:#D09C78;}
	.st5{fill:#D8A17C;}
	.st6{fill:#CB9975;}
	.st7{fill:#BF906E;}
	.st8{fill:#D4A57C;}
	.st9{fill:#C99C76;}
	.st10{fill:#E4A980;}
	.st11{fill:#E0A77E;}
	.st12{fill:#E4A87F;}
	.st13{fill:#DDA37C;}
	.st14{fill:#7C3021;}
	.st15{fill:#D5A07B;}
	.st16{fill:#D59F7A;}
	.st17{fill:#634632;}
	.st18{fill:#D9A97F;}
	.st19{fill:#CEA079;}
	.st20{fill:#DCAB80;}
	.st21{fill:#DFAD81;}
	.st22{fill:#D39F7A;}
	.st23{fill:#CA9875;}
	.st24{fill:#DBA57E;}
	.st25{fill:#CE9C77;}
	.st26{fill:#DEA780;}
	.st27{fill:#D59D78;}
	.st28{fill:#D39E79;}
	.st29{fill:#E8EFF3;}
	.st30{fill:#323333;}
	.st31{fill:#CD9976;}
	.st32{fill:#F0F4F7;}
</style>
<g>
	<path class="st0" d="M173.9,452c3.9,12.5,2.1,16.9,0,18.6c-5.2,4.5-16.1-4.1-37.3-6.2c-8-0.8-14.6-0.4-18.6,0
		c2.6-4.3,6.8-10.9,12.4-18.6c7.1-9.8,10.2-12.7,12.4-18.6c1.9-5.2,3.3-13.2,0-24.8c12.4,2.1,24.8,4.1,37.3,6.2
		c-2.5,6.1-5.1,14.5-6.2,24.8C173.2,440.5,173.4,446.8,173.9,452z"/>
	<path class="st1" d="M341.6,84c0.3-0.9,1.5-4.4,0-6.2c-4-4.8-23,5.2-24.8,6.2c-23.3,12.3-30.5,36-53,82.1
		c-23.3,47.8-28.9,48.2-27.8,60.7c2.9,32.3,30.1,60.6,68.3,74.5c-11.4,18.5-13.1,33.2-12.4,43.5c2,28.8,24.4,44.2,18.6,68.3
		c-0.8,3.3-3.1,10.8,0,18.6c0.5,1.2,3.8,9.1,12.4,12.4c9.1,3.5,20.6,0.5,24.8-6.2c4.3-6.8-1.8-12.8-6.2-31
		c-6.4-26.4-2.8-51.5,0-62.1c2-7.8,4.3-16.6,6.1-30.8c0.8-6.3,0.2-11.1,0.1-12.7c-0.9-15.2,0.9-47.3,0-86.9
		C346.1,141.1,336.4,99.3,341.6,84z"/>
	<path class="st2" d="M341.6,84c0.3-0.9,1.6-4.4,0-6.2c-4-4.8-23,5.2-24.8,6.2c-23.3,12.3-30.5,36-53,82.1
		c-15.4,31.5-26.8,38.6-28.1,48.6c-0.4,2.9,0.1,5,0.4,6.1c1.5,4.4,5.2,6.8,6.1,7.5c8.2,5.8,11.4,26.3,12.4,31
		c2.3,10.7,12.8,25.4,49.7,42c-11.4,18.5-13.1,33.2-12.4,43.5c2,28.8,24.4,44.2,18.6,68.3c-0.8,3.3-3.1,10.8,0,18.6
		c0.5,1.2,3.8,9.1,12.4,12.4c9.1,3.5,20.6,0.5,24.8-6.2c4.3-6.8-1.8-12.8-6.2-31c-6.4-26.4-2.8-51.5,0-62.1c2-7.8,4.3-16.6,6.1-30.8
		c0.8-6,0.2-10.6,0.1-12.7c-6-103.8-6.2-141.4-6.2-141.4C341.3,110.4,341.1,85.5,341.6,84z"/>
	<path class="st3" d="M208.1,146.6c-16.6-14.5-28.1-9.8-40.4-25.3c-19.7-24.9-9.6-61.8-12.4-62.1c-1.8-0.2-7.8,14.1-12.4,55.9
		c-4.8,43.6-6.9,106.1,6.2,186.3c-5.6,15.2-12.3,39-12.4,68.3c-0.1,24.6,4.5,72.4,18.6,74.5c14.7,2.2,38.4-45.2,42.7-89.9
		c1.7-17.3,0.2-32-1.5-42.4c10.6-10.9,36.9-41,39.5-85.1C236.5,218.8,237.9,172.6,208.1,146.6z"/>
	<path class="st0" d="M208.1,146.6c-14.7-15.1-27.6-9.1-40.4-25.3c-19.7-24.9-9.6-61.8-12.4-62.1c-1.8-0.2-7.8,14.1-12.4,55.9
		c-4.8,43.6-6.9,106.1,6.2,186.3c-3.2,23.6-5.1,43.3-6.2,57.4c-6.1,75.4,1.1,85.2,6.2,86.9c2.1,0.7,4.5,0.3,6.2,0
		c10.8-1.9,16.7-12.9,18.4-16.5c0,0,0.2-0.4,0.5-0.8c8.8-14.9,11.9-65.5,12.2-69.7c0.7-10.3,3.8-22.5,10.2-46.8
		C210.3,259.1,228.8,167.8,208.1,146.6z"/>
	<path class="st4" d="M335.4,132.1c-4,11.8-34.2,96.3-96.3,96.3c-60.5,0-89-64-96.3-96.3c-0.1-0.7-0.4-1.7-0.6-2.9
		c-1.4-6.8-11.2-59.2,19.3-87.1c5-4.6,13.4-12.3,24.8-12.4c17.9-0.2,37.3,18.6,37.3,18.6l0,0c29.8-22.9,62.1-24.8,62.1-24.8
		c2.2-0.2,27.1-2.2,43.5,12.4C358.9,62.3,338.3,123.4,335.4,132.1z"/>
	<path class="st5" d="M385.1,458.2c-13.8,0.3-24.1,3.3-31,6.2c-9.8,4-13.2,7.8-18.6,6.2c-8.3-2.5-7.1-12.8-18.6-18.6
		c-6-3-9.9-2.1-12.4-6.2c-2.5-4-1-9,0-12.4c7.5-25,11.4-37.5,12.4-37.3c7.5,1.9,15.5,13.5,19,11.5c1.9-1,1.1-6.1-0.3-11.5
		c3.2,11.2,11,32.6,31,49.7C372.9,451.2,379.3,455.2,385.1,458.2z"/>
	<path class="st6" d="M388.2,453.5c0.8,2.6-2.7,7.8-7.8,7.8c-5.1,0-7.3-5.4-7.8-7.8c-0.2-1-0.1-1.4,0-1.5
		C374.1,448.8,387,449.5,388.2,453.5z"/>
	<path class="st7" d="M372.6,452.7c0,0.2,0,0.5,0.1,0.8c0.5,2.4,2.6,7.8,7.8,7.8c1.4,0,2.6-0.4,3.7-1c0.2-0.3,0.4-0.7,0.5-1.2
		c0.5-2.7-2.5-6.1-5.8-7.1C376,451.1,373.5,452.3,372.6,452.7z"/>
	<path class="st8" d="M130.7,461.2c1.1,3.1-3.7,9.3-9.4,9.3c-5.6,0-10.5-6-9.4-9.3c1.1-3.4,8.2-3.8,12.4-3.1
		C126.3,458.5,129.9,459.1,130.7,461.2z"/>
	<path class="st9" d="M125.6,458.4c-4,0.6-8,2.6-8.8,6c-0.4,1.8,0.1,3.7,1.3,5.5c1,0.4,2.1,0.6,3.2,0.6c5.7,0,10.5-6.2,9.4-9.3
		C130.1,459.5,127.6,458.8,125.6,458.4z"/>
	<path class="st10" d="M335.4,125.9c-4,11.8-34.2,96.3-96.3,96.3c-60.5,0-89-64-96.3-96.3c-0.1-0.7-0.4-1.7-0.6-2.9
		c-1.4-6.8-11.2-59.2,19.3-87.1c5-4.6,13.4-12.3,24.8-12.4c17.9-0.2,37.3,18.6,37.3,18.6l0,0c29.8-22.9,62.1-24.8,62.1-24.8
		c2.2-0.2,27.1-2.2,43.5,12.4C358.9,56.1,338.3,117.2,335.4,125.9z"/>
	<path class="st11" d="M335.4,125.9c-4,11.8-34.2,96.3-96.3,96.3c-60.5,0-89-64-96.3-96.3c-0.3-1.5-0.6-2.9-0.6-2.9
		s-3-15.6,0.6-31.2c3.3-14.2,32.6-41.1,80.7-49.7c29.8-22.9,62.1-24.8,62.1-24.8c2.2-0.2,27.1-2.2,43.5,12.4
		C358.9,56.1,338.3,117.2,335.4,125.9z"/>
	<path class="st12" d="M140.1,107.5c0.6,7.8,1.7,13.5,2.1,15.5c0.3,1.3,0.5,2.3,0.6,2.9c7.2,32.2,35.7,96.3,96.3,96.3
		c62.1,0,92.3-84.4,96.3-96.3c2.9-8.7,23.4-69.8-6.2-96.3C312.8,15,288,17,285.7,17.2c0,0-32.3,2-62.1,24.8
		c-17.9,4.9-52.3,17.3-74.5,49.7C145.5,97,142.5,102.3,140.1,107.5z"/>
	<path class="st13" d="M285.7,141.4c-16.1,45-60.6,60.8-75.8,75.2c8.8,3.5,18.5,5.5,29.2,5.5c62.1,0,92.3-84.4,96.3-96.3
		c0.4-1.5,0.8-2.5,1.1-3.4c0-0.1,0.1-0.2,0.1-0.3c0-0.1,0-0.2,0.1-0.2c0.1-0.2,0.1-0.4,0.2-0.6c0-0.1,0-0.2,0.1-0.3
		c0.1-0.2,0.1-0.4,0.2-0.6c0-0.1,0.1-0.2,0.1-0.3c0.1-0.2,0.1-0.4,0.2-0.7c0-0.1,0.1-0.2,0.1-0.3c0.1-0.2,0.1-0.5,0.2-0.7
		c0-0.1,0.1-0.2,0.1-0.3c0.1-0.3,0.2-0.5,0.2-0.8c0-0.1,0-0.2,0.1-0.3c0.2-0.7,0.4-1.5,0.6-2.3c0-0.1,0-0.1,0.1-0.2
		c0.1-0.3,0.2-0.7,0.3-1c0-0.1,0.1-0.3,0.1-0.4c0.1-0.3,0.1-0.6,0.2-0.9c0-0.2,0.1-0.3,0.1-0.5c0.1-0.3,0.1-0.5,0.2-0.8
		c0-0.2,0.1-0.3,0.1-0.5c0.1-0.3,0.1-0.6,0.2-0.8c0-0.2,0.1-0.4,0.1-0.5c0.1-0.3,0.1-0.6,0.2-0.8c0-0.2,0.1-0.4,0.1-0.6
		c0.1-0.3,0.1-0.6,0.2-0.9c0-0.2,0.1-0.4,0.1-0.6c0.1-0.3,0.1-0.6,0.2-0.9c0-0.2,0.1-0.4,0.1-0.6c0.1-0.3,0.1-0.7,0.2-1
		c0-0.2,0.1-0.3,0.1-0.5c0.1-0.4,0.2-0.8,0.3-1.2c0-0.1,0-0.2,0.1-0.3c0.1-0.5,0.2-1.1,0.3-1.6c0-0.1,0-0.2,0-0.2
		c0.1-0.4,0.2-0.9,0.2-1.3c0-0.2,0.1-0.4,0.1-0.5c0.1-0.4,0.1-0.7,0.2-1.1c0-0.2,0.1-0.4,0.1-0.6c0.1-0.3,0.1-0.7,0.2-1
		c0-0.2,0.1-0.4,0.1-0.7c0-0.3,0.1-0.7,0.2-1c0-0.2,0.1-0.5,0.1-0.7c0-0.3,0.1-0.7,0.1-1c0-0.2,0.1-0.5,0.1-0.7c0-0.3,0.1-0.7,0.1-1
		c0-0.2,0.1-0.5,0.1-0.7c0-0.3,0.1-0.7,0.1-1c0-0.2,0.1-0.5,0.1-0.7c0-0.4,0.1-0.7,0.1-1.1c0-0.2,0-0.4,0.1-0.7
		c0-0.4,0.1-0.8,0.1-1.2c0-0.2,0-0.4,0-0.6c0-0.6,0.1-1.2,0.1-1.8c0,0,0,0,0-0.1c0-0.6,0.1-1.2,0.1-1.7c0-0.2,0-0.4,0-0.6
		c0-0.4,0-0.8,0.1-1.2c0-0.2,0-0.5,0-0.7c0-0.4,0-0.7,0-1.1c0-0.2,0-0.5,0-0.8c0-0.3,0-0.7,0-1.1c0-0.3,0-0.5,0-0.8c0-0.3,0-0.7,0-1
		c0-0.3,0-0.5,0-0.8c0-0.3,0-0.7,0-1c0-0.3,0-0.5,0-0.8c0-0.3,0-0.7,0-1.1c0-0.2,0-0.5,0-0.8c0-0.4,0-0.7,0-1.1c0-0.2,0-0.5,0-0.7
		c0-0.4,0-0.8-0.1-1.2c0-0.2,0-0.4,0-0.7c0-0.5-0.1-1-0.1-1.5c0-0.1,0-0.2,0-0.3c-0.1-0.6-0.1-1.2-0.2-1.8c0-0.2,0-0.3-0.1-0.5
		c0-0.4-0.1-0.8-0.2-1.2c0-0.2-0.1-0.5-0.1-0.7c-0.1-0.4-0.1-0.7-0.2-1.1c0-0.2-0.1-0.5-0.1-0.7c-0.1-0.3-0.1-0.7-0.2-1
		c0-0.2-0.1-0.5-0.1-0.7c-0.1-0.3-0.1-0.7-0.2-1c-0.1-0.2-0.1-0.5-0.2-0.8c-0.1-0.3-0.2-0.7-0.2-1c-0.1-0.2-0.1-0.5-0.2-0.7
		c-0.1-0.3-0.2-0.7-0.3-1c-0.1-0.2-0.1-0.5-0.2-0.7c-0.1-0.3-0.2-0.7-0.3-1c-0.1-0.2-0.1-0.5-0.2-0.7c-0.1-0.3-0.2-0.7-0.4-1
		c-0.1-0.2-0.1-0.4-0.2-0.6c-0.1-0.4-0.3-0.8-0.4-1.2c-0.1-0.2-0.1-0.3-0.2-0.5c-0.2-0.5-0.4-1.1-0.7-1.6c0-0.1-0.1-0.2-0.2-0.3
		c-0.2-0.4-0.4-0.8-0.6-1.2c-0.1-0.2-0.2-0.4-0.3-0.6c-0.2-0.3-0.3-0.7-0.5-1c-0.1-0.2-0.2-0.4-0.3-0.6c-0.2-0.3-0.3-0.6-0.5-0.9
		c-0.1-0.2-0.2-0.4-0.4-0.6c-0.2-0.3-0.3-0.6-0.5-0.8c-0.1-0.2-0.3-0.4-0.4-0.6c-0.2-0.3-0.4-0.5-0.5-0.8c-0.1-0.2-0.3-0.4-0.4-0.6
		c-0.2-0.3-0.4-0.5-0.6-0.8c-0.1-0.2-0.3-0.4-0.5-0.6c-0.2-0.3-0.4-0.5-0.6-0.8c-0.2-0.2-0.3-0.4-0.5-0.6c-0.2-0.3-0.5-0.5-0.7-0.8
		c-0.2-0.2-0.3-0.3-0.5-0.5c-0.3-0.3-0.5-0.6-0.8-0.8c-0.1-0.1-0.3-0.3-0.4-0.4c-0.4-0.4-0.9-0.8-1.3-1.2
		C312.8,15.1,288,17,285.7,17.3C264.9,31.5,305.9,85.3,285.7,141.4z"/>
	<path class="st14" d="M186.4,178.7c4.4-4.1,19.9-17.5,43.5-18.6c32.6-1.5,53.3,21.8,55.9,24.8c-12.3-8.1-22.9-14.3-31.1-18.6
		c-7.3-3.9-12.2-6.2-18.6-6.2c-7.1,0-11.8,2.8-18.6,6.2C210.3,169.8,200,174.4,186.4,178.7z"/>
	<path class="st15" d="M211.2,101.4c-11-17.4-24.1-25.4-31.1-22.1c-1.1,0.5-5,2.8-6.2,12.4c3.6,0.1,7.7,0.3,12.1,1.1
		C196.6,94.6,205.1,98.2,211.2,101.4z"/>
	<path class="st16" d="M254.2,101.4c9.2-18.4,23.9-29.8,37.8-28.3c9.9,1,19.6,8.7,18.6,12.4c-1,3.8-12.8,1.7-31,6.2
		C268.4,94.5,259.8,98.4,254.2,101.4z"/>
	<path class="st5" d="M217.4,172.2c3.6,2.1,9.1,4.8,16.2,6.2c9,1.8,16.5,0.9,21,0c-2.1,1.9-6.3,5.3-12.4,6.2
		C233,186,223.4,181.1,217.4,172.2z"/>
	<path class="st17" d="M254.7,101.4c0,0,18.6-24.8,24.8-12.4c0.2,0.9,0.4,2.2,0.4,3.8c-0.2,4.6-2.9,9-6.6,11.3
		C268,107.5,260.1,106.6,254.7,101.4z"/>
	<path class="st17" d="M211.2,104.2c-8.1-12.7-16.5-20.1-21.4-18.2c-1,0.4-2.1,1.2-3,3.1c-0.2,0.9-0.4,2.2-0.4,3.8
		c0.2,4.7,2.9,9,6.1,11.3C197.6,107.9,205.1,108,211.2,104.2z"/>
	<path class="st18" d="M140.9,464.4c1.1,4.8-4.9,11.3-11.4,11.3c-6.5,0-12.5-6.5-11.4-11.3c1-4.4,7.6-6.5,12.3-6.2
		C134.2,458.4,140,460.3,140.9,464.4z"/>
	<path class="st19" d="M133.6,458.7c-4.9,1.5-9.8,6.2-9.4,11.9c0.1,1.6,0.7,3.1,1.5,4.4c1.2,0.5,2.5,0.7,3.8,0.7
		c6.5,0,12.5-6.5,11.4-11.3C140.2,461.3,136.9,459.5,133.6,458.7z"/>
	<path class="st20" d="M153.1,467.5c0.9,6.6-6,13.3-13.4,13.3c-7.4,0-14.2-6.8-13.3-13.3c0.7-5.1,5.9-8.5,10.2-9.3
		C143.4,456.8,152.2,460.7,153.1,467.5z"/>
	<path class="st8" d="M142.9,464.4c-2.3,4.6-0.7,10.9,3,14.9c4.6-2.4,7.9-7.1,7.2-11.8c-0.4-3.3-2.7-5.9-5.8-7.6
		C145.5,460.9,143.9,462.4,142.9,464.4z"/>
	<path class="st21" d="M173.9,467.5c1.4,7-6.7,15.5-15.5,15.5c-8.8,0-16.9-8.5-15.5-15.5c1.3-6.9,11.2-10.5,18.6-9.3
		C166.1,458.9,172.8,461.9,173.9,467.5z"/>
	<path class="st20" d="M173.9,467.5c1.4,7-6.7,15.5-15.5,15.5c-0.3,0-1.7-0.2-1.8-0.6c-0.2-1,6.6-1.2,11.1-5.6
		c4.1-4,4.9-10.2,5.9-10C173.8,466.9,173.9,467.3,173.9,467.5z"/>
	<path class="st22" d="M383.7,456.6c0.9,3.8-4,9.4-9.4,9.4c-5.5,0-10.4-5.6-9.4-9.4s7.5-4.6,7.9-4.7
		C376.8,451.5,382.8,453,383.7,456.6z"/>
	<path class="st23" d="M375.2,459.7c-0.4-3.2-3-5.6-6.1-6.9c-1.8,0.7-3.8,1.8-4.3,3.8c-0.9,3.6,3.4,8.8,8.5,9.3
		C374.7,464.1,375.5,461.9,375.2,459.7z"/>
	<path class="st24" d="M372.7,459.7c0.8,5.4-4.9,10.9-10.9,10.9c-6,0-11.6-5.5-10.9-10.9c0.6-4.4,5.4-7.3,9.3-7.8
		C365.5,451.3,372,454.5,372.7,459.7z"/>
	<path class="st25" d="M363.2,464.4c0-3.8-3.7-7.6-8.8-10.1c-1.8,1.3-3.2,3.2-3.5,5.4c-0.7,4.9,4,10,9.4,10.8
		C362.1,468.5,363.2,466.4,363.2,464.4z"/>
	<path class="st26" d="M360.2,461.3c1.3,7.1-6.8,15.5-15.5,15.5c-8.8,0-16.9-8.5-15.5-15.5c1.1-5.6,7.9-8.6,12.4-9.3
		C349.1,450.8,359,454.4,360.2,461.3z"/>
	<path class="st27" d="M248.5,79.3c0,0-18.6,6.2-12.4,12.4L248.5,79.3z"/>
	<path class="st27" d="M205,135.2c-1.9,0.4-19.2,4.2-24.8,18.6c-1,2.6-4.3,11.1,0,18.6c1.9,3.2,4.5,5.1,6.2,6.2
		c-0.9-3.9-1.9-11.1,0.4-19.5C190.8,144.6,201.9,137.1,205,135.2z"/>
	<path class="st27" d="M254.7,135.2c1.4,0.7,32.6,15.8,37.3,31.1c0.8,2.7,2.3,7.6,0,12.4c-1.7,3.5-4.6,5.3-6.2,6.2
		c-1.1-5.4-3-11.8-6.2-18.6C272.2,150.6,261.6,140.7,254.7,135.2z"/>
	<path class="st28" d="M251.8,122.8c5,12.4,11.6,17.8,8.2,25c-1.4,2.9-4.6,6.5-7.6,6.2c-3.5-0.3-3.4-4.9-7.6-6.2
		c-7-2.3-15,8.5-22.7,6.2c-1.5-0.4-3.5-2.4-7.6-6.2c-4.6-4.4-5.5-6.2-7.6-6.2c-3.9,0-6.2,6.6-7.6,6.2c-0.9-0.2-0.8-3.4,0-6.2
		c2.7-9,12.7-12.1,22.1-18.8c17-12.1,18.4-25.6,23.4-24.7C248.9,98.9,245.6,107.5,251.8,122.8z"/>
	<path class="st26" d="M247.2,116.5c4.1,12.4,9.5,17.8,6.7,25c-1.1,2.9-3.7,6.5-6.2,6.2c-2.9-0.3-2.8-4.9-6.2-6.2
		c-5.8-2.3-12.3,8.5-18.6,6.2c-1.2-0.4-2.9-2.4-6.2-6.2c-3.8-4.4-4.5-6.2-6.2-6.2c-3.2,0-5.1,6.6-6.2,6.2c-0.8-0.2-0.7-3.4,0-6.2
		c2.2-9,10.4-12.2,18.1-18.8c14-12.1,15.1-25.6,19.2-24.7C244.8,92.6,242.1,101.2,247.2,116.5z"/>
	<path class="st29" d="M211.2,104.2c0,0-18.6-24.8-24.8-12.4C186.4,91.7,180.1,104.2,211.2,104.2z"/>
	<path class="st29" d="M254.7,104.2c0,0,18.6-24.8,24.8-12.4C279.5,91.7,285.7,104.2,254.7,104.2z"/>
	<path class="st30" d="M273.3,97.9c0-3.4-2.8-6.2-6.2-6.2c-0.1,0-0.3,0-0.4,0c-2,1.5-4,3.3-5.7,5.1c-0.1,0.3-0.1,0.7-0.1,1.1
		c0,2.5,1.5,4.7,3.7,5.7c2.8-0.3,5.1-0.8,7-1.4C272.6,101.1,273.3,99.6,273.3,97.9z"/>
	<path class="st31" d="M248.5,97.9c2.2,1.1,4.6,2.1,7,3.1c27,10.8,53.9,8.1,73.8,3.1c-1,5.8-5.1,26.3-18.6,31.1
		c-15.4,5.5-35.5-12.3-49.7-24.8C255.4,105.5,251.2,101.1,248.5,97.9z"/>
	<circle class="st32" cx="269.8" cy="95.2" r="2.7"/>
	<path class="st30" d="M209.6,102.2c-1.8-2.2-5-5.9-8.6-8.9c-1.9,1.1-3.1,3.1-3.1,5.5c0,1.9,0.8,3.6,2.1,4.7
		c2.2,0.3,4.7,0.5,7.6,0.6C208.5,103.6,209.1,102.9,209.6,102.2z"/>
	<path class="st32" d="M204.7,101.2c1.4,0,2.4-1.1,2.4-2.4c0-0.2,0-0.4-0.1-0.7c-0.4-0.5-0.7-1-1.1-1.4c-0.4-0.2-0.8-0.3-1.2-0.3
		c-1.4,0-2.4,1.1-2.4,2.4C202.2,100.1,203.3,101.2,204.7,101.2z"/>
	<path class="st4" d="M217.4,97.9c-4.3,20.2-21.4,32.9-37.3,31.1c-15.7-1.8-24-17.1-24.8-18.6c11.9,1.4,30.2,1.8,49.7-6.2
		C209.6,102.3,213.7,100.1,217.4,97.9z"/>
</g>
</svg>
