<?xml version="1.0" encoding="utf-8"?>
<!-- Generator: Adobe Illustrator 24.1.2, SVG Export Plug-In . SVG Version: 6.00 Build 0)  -->
<svg version="1.1" xmlns="http://www.w3.org/2000/svg" xmlns:xlink="http://www.w3.org/1999/xlink" x="0px" y="0px"
	 viewBox="0 0 500 500" style="enable-background:new 0 0 500 500;" xml:space="preserve">
<style type="text/css">
	.st0{display:none;}
	.st1{display:inline;fill:#D09C78;}
	.st2{display:inline;fill:#D8A57D;}
	.st3{display:inline;fill:#D09977;}
	.st4{display:inline;fill:#D79F7B;}
	.st5{display:inline;fill:#C99974;}
	.st6{display:inline;fill:#D8A17C;}
	.st7{display:inline;fill:#CB9975;}
	.st8{display:inline;fill:#BF906E;}
	.st9{display:inline;fill:#D4A57C;}
	.st10{display:inline;fill:#C99C76;}
	.st11{display:inline;fill:#E4A980;}
	.st12{display:inline;fill:#E0A77E;}
	.st13{display:inline;fill:#E4A87F;}
	.st14{display:inline;fill:#DDA37C;}
	.st15{display:inline;fill:#7C3021;}
	.st16{display:inline;fill:#D5A07B;}
	.st17{display:inline;fill:#D59F7A;}
	.st18{display:inline;fill:#634632;}
	.st19{display:inline;fill:#D9A97F;}
	.st20{display:inline;fill:#CEA079;}
	.st21{display:inline;fill:#DCAB80;}
	.st22{display:inline;fill:#DFAD81;}
	.st23{display:inline;fill:#D39F7A;}
	.st24{display:inline;fill:#CA9875;}
	.st25{display:inline;fill:#DBA57E;}
	.st26{display:inline;fill:#CE9C77;}
	.st27{display:inline;fill:#DEA780;}
	.st28{display:inline;fill:#D59D78;}
	.st29{display:inline;fill:#D39E79;}
	.st30{display:inline;fill:#E8EFF3;}
	.st31{display:inline;fill:#323333;}
	.st32{display:inline;fill:#CD9976;}
	.st33{display:inline;fill:#F0F4F7;}
	.st34{fill:url(#SVGID_1_);stroke:url(#SVGID_2_);stroke-miterlimit:10;}
	.st35{fill:#D8A57D;}
	.st36{fill:#D09977;}
	.st37{fill:#D79F7B;}
	.st38{fill:#C99974;}
	.st39{fill:#D09C78;}
	.st40{fill:#D8A17C;}
	.st41{fill:#CB9975;}
	.st42{fill:#BF906E;}
	.st43{fill:#D4A57C;}
	.st44{fill:#C99C76;}
	.st45{fill:#E4A980;}
	.st46{fill:#E0A77E;}
	.st47{fill:#E4A87F;}
	.st48{fill:#DDA37C;}
	.st49{fill:#7C3021;}
	.st50{fill:#D5A07B;}
	.st51{fill:#D59F7A;}
	.st52{fill:#634632;}
	.st53{fill:#D9A97F;}
	.st54{fill:#CEA079;}
	.st55{fill:#DCAB80;}
	.st56{fill:#DFAD81;}
	.st57{fill:#D39F7A;}
	.st58{fill:#CA9875;}
	.st59{fill:#DBA57E;}
	.st60{fill:#CE9C77;}
	.st61{fill:#DEA780;}
	.st62{fill:#D59D78;}
	.st63{fill:#D39E79;}
	.st64{fill:#E8EFF3;}
	.st65{fill:#323333;}
	.st66{fill:#CD9976;}
	.st67{fill:#F0F4F7;}
</style>
<g id="_x32_" class="st0">
	<path class="st1" d="M715.8,154.7c-6.26,29.24-31.03,47.62-54,45c-22.72-2.59-34.81-24.73-36-27c17.19,2.1,43.72,2.57,72-9
		C704.47,160.96,710.47,157.88,715.8,154.7z"/>
	<path class="st2" d="M652.8,667.7c5.6,18.09,2.99,24.42,0,27c-7.57,6.53-23.41-5.89-54-9c-11.65-1.18-21.21-0.59-27,0
		c3.81-6.27,9.86-15.79,18-27c10.34-14.23,14.84-18.46,18-27c2.77-7.49,4.81-19.1,0-36c18,3,36,6,54,9c-3.59,8.83-7.45,21.07-9,36
		C651.73,651.05,652.03,660.22,652.8,667.7z"/>
	<path class="st3" d="M895.8,134.55c0.45-1.3,2.25-6.35,0-9c-5.84-6.89-33.36,7.61-36,9c-33.82,17.82-44.18,52.17-76.78,118.99
		c-33.8,69.28-41.86,69.92-40.22,88.01c4.25,46.77,43.62,87.78,99,108c-16.55,26.82-19.01,48.16-18,63c2.84,41.73,35.32,64.08,27,99
		c-1.15,4.82-4.44,15.61,0,27c0.69,1.76,5.55,13.2,18,18c13.25,5.11,29.89,0.69,36-9c6.2-9.83-2.6-18.5-9-45
		c-9.22-38.19-4.01-74.69,0-90c2.94-11.23,6.26-24.04,8.87-44.57c1.17-9.19,0.27-16.16,0.13-18.43c-1.31-21.99,1.33-68.56,0-126
		C902.34,217.21,888.24,156.69,895.8,134.55z"/>
	<path class="st4" d="M895.8,134.55c0.44-1.26,2.25-6.34,0-9c-5.84-6.89-33.36,7.61-36,9c-33.82,17.82-44.18,52.17-76.78,118.99
		c-22.27,45.63-38.87,56-40.67,70.46c-0.53,4.27,0.08,7.24,0.62,8.88c2.12,6.42,7.51,9.89,8.84,10.82c11.96,8.41,16.49,38.15,18,45
		c3.41,15.46,18.5,36.79,72,60.86c-16.55,26.82-19.01,48.16-18,63c2.84,41.73,35.32,64.08,27,99c-1.15,4.82-4.44,15.61,0,27
		c0.69,1.76,5.55,13.2,18,18c13.25,5.11,29.89,0.69,36-9c6.2-9.83-2.6-18.5-9-45c-9.22-38.19-4.01-74.69,0-90
		c2.94-11.23,6.26-24.04,8.87-44.57c1.11-8.73,0.31-15.39,0.13-18.43c-8.63-150.46-9-204.86-9-204.86
		C895.3,172.69,895.05,136.69,895.8,134.55z"/>
	<path class="st5" d="M702.35,225.22c-24.07-21.05-40.76-14.22-58.55-36.67c-28.6-36.08-13.89-89.53-18-90
		c-2.58-0.29-11.32,20.49-18,81c-6.98,63.17-9.96,153.76,9,270c-8.1,22.05-17.87,56.45-18,99c-0.11,35.72,6.48,104.96,27,108
		c21.32,3.16,55.6-65.51,61.87-130.33c2.43-25.07,0.35-46.33-2.13-61.41c15.32-15.78,53.43-59.44,57.25-123.26
		C743.5,329.83,745.52,262.96,702.35,225.22z"/>
	<path class="st2" d="M702.35,225.22c-21.31-21.85-39.94-13.18-58.55-36.67c-28.6-36.08-13.89-89.53-18-90
		c-2.58-0.29-11.32,20.49-18,81c-6.98,63.17-9.96,153.76,9,270c-4.63,34.28-7.35,62.8-9,83.14c-8.87,109.19,1.57,123.44,9,126
		c3.06,1.05,6.53,0.44,9,0c15.63-2.77,24.16-18.72,26.65-23.83c0,0,0.34-0.54,0.68-1.12c12.7-21.59,17.27-94.88,17.68-101.05
		c0.98-14.88,5.57-32.55,14.75-67.88C705.44,388.23,732.34,255.98,702.35,225.22z"/>
	<path class="st1" d="M886.8,204.2c-5.75,17.12-49.5,139.5-139.5,139.5c-87.7,0-129.03-92.78-139.5-139.5
		c-0.21-0.96-0.54-2.4-0.92-4.26c-2.04-9.86-16.3-85.76,27.92-126.24c7.26-6.64,19.49-17.84,36-18c26-0.25,54,27,54,27l0,0
		c43.21-33.13,90-36,90-36c3.27-0.3,39.29-3.17,63,18C920.77,103.06,891.03,191.59,886.8,204.2z"/>
	<path class="st6" d="M958.8,676.7c-20.05,0.41-34.86,4.8-45,9c-14.13,5.85-19.19,11.33-27,9c-12.08-3.61-10.25-18.49-27-27
		c-8.63-4.39-14.33-3.03-18-9c-3.57-5.8-1.48-13.09,0-18c10.94-36.27,16.45-54.39,18-54c10.8,2.73,22.39,19.49,27.46,16.61
		c2.68-1.52,1.59-8.8-0.46-16.61c4.59,16.26,16.01,47.22,45,72C941.12,666.66,950.46,672.45,958.8,676.7z"/>
	<path class="st7" d="M963.3,669.95c1.15,3.71-3.96,11.27-11.25,11.25c-7.41-0.02-10.57-7.84-11.25-11.25
		c-0.3-1.53-0.08-2.07,0-2.25C942.93,663.07,961.49,664.14,963.3,669.95z"/>
	<path class="st8" d="M940.65,668.81c0.01,0.3,0.05,0.67,0.15,1.14c0.68,3.41,3.84,11.23,11.25,11.25c1.99,0,3.82-0.57,5.4-1.46
		c0.28-0.41,0.62-1.02,0.77-1.79c0.79-3.89-3.56-8.84-8.43-10.24C945.61,666.49,941.92,668.16,940.65,668.81z"/>
	<path class="st9" d="M590.15,681.17c1.55,4.51-5.42,13.48-13.67,13.48c-8.13-0.01-15.16-8.73-13.67-13.48
		c1.52-4.85,11.92-5.45,18-4.48C583.85,677.19,589.06,678.02,590.15,681.17z"/>
	<path class="st10" d="M582.7,677.02c-5.76,0.92-11.61,3.84-12.7,8.71c-0.57,2.54,0.21,5.39,1.88,8c1.45,0.57,3,0.92,4.59,0.92
		c8.26,0.01,15.23-8.97,13.67-13.48C589.26,678.61,585.66,677.58,582.7,677.02z"/>
	<path class="st11" d="M886.8,195.2c-5.75,17.12-49.5,139.5-139.5,139.5c-87.7,0-129.03-92.78-139.5-139.5
		c-0.21-0.96-0.54-2.4-0.92-4.26c-2.04-9.86-16.3-85.76,27.92-126.24c7.26-6.64,19.49-17.84,36-18c26-0.25,54,27,54,27l0,0
		c43.21-33.13,90-36,90-36c3.27-0.3,39.29-3.17,63,18C920.77,94.06,891.03,182.59,886.8,195.2z"/>
	<path class="st12" d="M886.8,195.2c-5.75,17.12-49.5,139.5-139.5,139.5c-87.7,0-129.03-92.78-139.5-139.5
		c-0.48-2.15-0.92-4.26-0.92-4.26s-4.4-22.65,0.92-45.24c4.84-20.52,47.32-59.62,117-72c43.21-33.13,90-36,90-36
		c3.27-0.3,39.29-3.17,63,18C920.77,94.06,891.03,182.59,886.8,195.2z"/>
	<path class="st13" d="M603.78,168.53c0.93,11.3,2.52,19.57,3.1,22.4c0.38,1.86,0.71,3.31,0.92,4.26
		c10.47,46.72,51.8,139.5,139.5,139.5c90,0,133.75-122.38,139.5-139.5c4.24-12.61,33.97-101.13-9-139.5
		c-23.71-21.17-59.73-18.3-63-18c0,0-46.79,2.87-90,36c-26.01,7.05-75.8,25.07-108,72C611.54,153.35,607.27,161.04,603.78,168.53z"
		/>
	<path class="st14" d="M814.8,217.7c-23.38,65.15-87.74,88.16-109.88,109c12.73,5.06,26.82,8,42.38,8
		c90,0,133.75-122.38,139.5-139.5c0.63-2.22,1.21-3.65,1.62-4.92c0.04-0.13,0.08-0.25,0.12-0.39c0.03-0.11,0.07-0.21,0.1-0.32
		c0.09-0.28,0.18-0.57,0.27-0.87c0.04-0.12,0.08-0.25,0.12-0.38c0.09-0.29,0.18-0.59,0.28-0.9c0.05-0.15,0.09-0.29,0.14-0.44
		c0.09-0.31,0.19-0.62,0.29-0.94c0.05-0.15,0.09-0.3,0.14-0.45c0.1-0.34,0.2-0.68,0.31-1.03c0.04-0.15,0.09-0.29,0.13-0.45
		c0.11-0.38,0.23-0.78,0.34-1.18c0.04-0.12,0.07-0.24,0.11-0.37c0.31-1.07,0.62-2.18,0.94-3.34c0.03-0.1,0.05-0.2,0.08-0.3
		c0.13-0.48,0.26-0.96,0.39-1.45c0.05-0.19,0.1-0.38,0.15-0.57c0.11-0.41,0.22-0.82,0.33-1.24c0.06-0.23,0.12-0.47,0.18-0.71
		c0.1-0.39,0.2-0.78,0.3-1.17c0.06-0.25,0.13-0.5,0.19-0.76c0.1-0.4,0.2-0.8,0.3-1.2c0.06-0.26,0.13-0.52,0.19-0.78
		c0.1-0.4,0.2-0.81,0.3-1.22c0.07-0.27,0.13-0.55,0.2-0.83c0.1-0.41,0.19-0.83,0.29-1.24c0.07-0.28,0.13-0.56,0.2-0.85
		c0.1-0.43,0.2-0.86,0.29-1.3c0.06-0.28,0.12-0.55,0.19-0.83c0.1-0.47,0.21-0.95,0.31-1.43c0.05-0.25,0.11-0.49,0.16-0.74
		c0.12-0.59,0.25-1.18,0.37-1.78c0.03-0.15,0.06-0.3,0.09-0.45c0.15-0.76,0.31-1.52,0.46-2.29c0.02-0.12,0.05-0.24,0.07-0.36
		c0.12-0.64,0.25-1.29,0.37-1.94c0.05-0.26,0.09-0.52,0.14-0.77c0.09-0.52,0.19-1.04,0.28-1.57c0.05-0.3,0.1-0.6,0.15-0.9
		c0.08-0.49,0.17-0.99,0.25-1.48c0.05-0.32,0.11-0.65,0.16-0.97c0.08-0.48,0.15-0.96,0.23-1.44c0.05-0.34,0.1-0.68,0.16-1.02
		c0.07-0.48,0.14-0.95,0.21-1.43c0.05-0.35,0.1-0.7,0.15-1.05c0.07-0.48,0.13-0.97,0.2-1.45c0.05-0.35,0.09-0.69,0.14-1.04
		c0.06-0.5,0.12-1,0.18-1.5c0.04-0.34,0.08-0.68,0.12-1.02c0.06-0.52,0.12-1.05,0.17-1.57c0.04-0.32,0.07-0.65,0.1-0.97
		c0.06-0.58,0.12-1.17,0.17-1.76c0.03-0.27,0.05-0.53,0.08-0.8c0.08-0.86,0.15-1.72,0.22-2.58c0-0.03,0-0.06,0.01-0.09
		c0.06-0.83,0.12-1.66,0.17-2.5c0.02-0.27,0.03-0.55,0.05-0.82c0.03-0.59,0.07-1.18,0.1-1.77c0.02-0.34,0.03-0.67,0.04-1.01
		c0.02-0.53,0.05-1.06,0.06-1.59c0.01-0.36,0.02-0.73,0.03-1.09c0.01-0.51,0.03-1.02,0.04-1.53c0.01-0.37,0.01-0.75,0.02-1.12
		c0.01-0.5,0.01-1,0.01-1.51c0-0.38,0-0.76,0-1.13c0-0.5-0.01-1-0.02-1.5c-0.01-0.38-0.01-0.75-0.02-1.13
		c-0.01-0.51-0.03-1.01-0.04-1.52c-0.01-0.37-0.02-0.74-0.04-1.11c-0.02-0.52-0.05-1.04-0.08-1.56c-0.02-0.35-0.04-0.71-0.06-1.06
		c-0.03-0.56-0.07-1.11-0.11-1.67c-0.02-0.31-0.04-0.63-0.07-0.94c-0.06-0.71-0.12-1.41-0.19-2.11c-0.02-0.16-0.03-0.32-0.04-0.48
		c-0.09-0.86-0.18-1.72-0.29-2.58c-0.03-0.26-0.07-0.51-0.1-0.77c-0.08-0.6-0.16-1.2-0.25-1.8c-0.05-0.33-0.1-0.66-0.15-0.98
		c-0.08-0.52-0.16-1.05-0.25-1.57c-0.06-0.35-0.13-0.7-0.19-1.05c-0.09-0.5-0.18-0.99-0.28-1.49c-0.07-0.36-0.15-0.72-0.22-1.08
		c-0.1-0.48-0.2-0.96-0.31-1.44c-0.08-0.36-0.17-0.72-0.25-1.08c-0.11-0.47-0.23-0.95-0.35-1.42c-0.09-0.36-0.18-0.72-0.28-1.07
		c-0.13-0.47-0.26-0.94-0.39-1.41c-0.1-0.35-0.2-0.7-0.3-1.05c-0.14-0.47-0.29-0.95-0.44-1.42c-0.11-0.34-0.21-0.67-0.32-1.01
		c-0.16-0.49-0.33-0.98-0.51-1.47c-0.11-0.31-0.21-0.61-0.32-0.92c-0.2-0.56-0.42-1.11-0.64-1.67c-0.09-0.23-0.17-0.46-0.27-0.69
		c-0.31-0.77-0.64-1.54-0.98-2.31c-0.07-0.16-0.15-0.32-0.23-0.49c-0.27-0.6-0.54-1.19-0.83-1.78c-0.13-0.27-0.28-0.54-0.41-0.82
		c-0.24-0.47-0.48-0.94-0.72-1.41c-0.16-0.3-0.33-0.59-0.49-0.89c-0.24-0.43-0.48-0.86-0.73-1.29c-0.18-0.31-0.36-0.61-0.55-0.91
		c-0.25-0.41-0.5-0.82-0.76-1.23c-0.19-0.3-0.39-0.61-0.59-0.91c-0.26-0.4-0.53-0.79-0.8-1.18c-0.21-0.3-0.42-0.6-0.63-0.89
		c-0.28-0.39-0.56-0.77-0.85-1.15c-0.22-0.29-0.44-0.58-0.66-0.86c-0.3-0.38-0.61-0.76-0.92-1.13c-0.23-0.27-0.45-0.55-0.68-0.82
		c-0.33-0.39-0.67-0.77-1.02-1.14c-0.22-0.25-0.45-0.5-0.67-0.74c-0.39-0.41-0.79-0.82-1.19-1.22c-0.2-0.2-0.39-0.41-0.6-0.61
		c-0.61-0.6-1.24-1.18-1.88-1.76c-23.71-21.17-59.73-18.3-63-18C784.57,58.47,843.98,136.39,814.8,217.7z"/>
	<path class="st15" d="M670.8,271.7c6.34-5.92,28.8-25.4,63-27c47.3-2.21,77.27,31.63,81,36c-17.8-11.81-33.24-20.67-45-27
		c-10.62-5.71-17.63-9.03-27-9c-10.33,0.03-17.13,4.1-27,9C705.52,258.8,690.52,265.47,670.8,271.7z"/>
	<path class="st16" d="M706.8,159.74c-15.94-25.18-34.98-36.84-45-32.04c-1.64,0.79-7.24,4.03-9,18c5.27,0.07,11.15,0.5,17.48,1.55
		C685.63,149.79,697.97,155.01,706.8,159.74z"/>
	<path class="st17" d="M769.06,159.74c13.37-26.66,34.68-43.14,54.73-41.04c14.4,1.51,28.36,12.62,27,18c-1.4,5.57-18.54,2.49-45,9
		C789.71,149.66,777.18,155.44,769.06,159.74z"/>
	<path class="st6" d="M715.8,262.38c5.22,3.06,13.2,6.9,23.55,9c13,2.63,23.91,1.31,30.45,0c-2.96,2.79-9.12,7.71-18,9
		C738.44,282.32,724.51,275.22,715.8,262.38z"/>
	<path class="st18" d="M769.8,159.74c0,0,27-36,36-18c0.31,1.31,0.64,3.22,0.52,5.51c-0.34,6.64-4.2,13.08-9.52,16.45
		C789.04,168.6,777.72,167.24,769.8,159.74z"/>
	<path class="st18" d="M706.8,163.7c-11.69-18.41-23.88-29.15-30.95-26.44c-1.39,0.53-2.97,1.74-4.32,4.48
		c-0.31,1.32-0.62,3.23-0.52,5.51c0.31,6.87,4.21,13,8.78,16.45C687.07,169.17,697.92,169.26,706.8,163.7z"/>
	<path class="st19" d="M604.96,685.7c1.6,6.98-7.06,16.38-16.51,16.37c-9.42,0-18.08-9.36-16.51-16.37c1.43-6.37,10.99-9.41,17.85-9
		C595.22,677.02,603.61,679.78,604.96,685.7z"/>
	<path class="st20" d="M594.43,677.45c-7.09,2.23-14.25,8.93-13.63,17.24c0.17,2.33,0.94,4.45,2.11,6.31
		c1.77,0.67,3.64,1.06,5.55,1.06c9.45,0,18.11-9.4,16.51-16.37C603.96,681.31,599.09,678.66,594.43,677.45z"/>
	<path class="st21" d="M622.64,690.2c1.28,9.55-8.72,19.27-19.34,19.27c-10.69,0.01-20.64-9.83-19.34-19.27
		c1.01-7.39,8.59-12.25,14.84-13.5C608.58,674.73,621.32,680.37,622.64,690.2z"/>
	<path class="st9" d="M607.8,685.7c-3.4,6.73-0.97,15.76,4.35,21.54c6.63-3.42,11.4-10.27,10.49-17.04
		c-0.64-4.77-3.98-8.55-8.36-10.96C611.58,680.71,609.24,682.84,607.8,685.7z"/>
	<path class="st22" d="M652.8,690.2c2,10.16-9.76,22.51-22.5,22.5c-12.68-0.01-24.44-12.25-22.5-22.5c1.89-9.97,16.22-15.21,27-13.5
		C641.41,677.75,651.21,682.13,652.8,690.2z"/>
	<path class="st21" d="M652.8,690.2c2,10.16-9.76,22.51-22.5,22.5c-0.47,0-2.43-0.24-2.54-0.91c-0.25-1.52,9.53-1.69,16.04-8.09
		c5.93-5.83,7.12-14.83,8.5-14.46C652.64,689.33,652.75,689.93,652.8,690.2z"/>
	<path class="st23" d="M956.72,674.45c1.37,5.57-5.77,13.6-13.67,13.61c-7.95,0.01-15.08-8.11-13.67-13.61
		c1.41-5.5,10.93-6.69,11.42-6.75C946.82,667.01,955.43,669.2,956.72,674.45z"/>
	<path class="st24" d="M944.43,678.95c-0.64-4.64-4.36-8.13-8.88-9.96c-2.65,0.99-5.46,2.67-6.17,5.46
		c-1.33,5.2,4.97,12.72,12.38,13.53C943.77,685.31,944.87,682.13,944.43,678.95z"/>
	<path class="st25" d="M940.8,678.95c1.08,7.86-7.11,15.75-15.75,15.75c-8.68,0-16.84-7.97-15.75-15.75
		c0.9-6.4,7.75-10.54,13.5-11.25C930.38,666.76,939.75,671.32,940.8,678.95z"/>
	<path class="st26" d="M927.13,685.7c0.01-5.48-5.37-11.01-12.78-14.6c-2.6,1.93-4.6,4.59-5.05,7.85c-1,7.14,5.79,14.42,13.62,15.57
		C925.54,691.75,927.13,688.67,927.13,685.7z"/>
	<path class="st27" d="M922.8,681.2c1.94,10.25-9.82,22.49-22.5,22.5c-12.74,0.01-24.5-12.34-22.5-22.5
		c1.59-8.06,11.39-12.45,18-13.5C906.58,665.98,920.91,671.22,922.8,681.2z"/>
	<path class="st28" d="M760.8,127.7c0,0-27,9-18,18L760.8,127.7z"/>
	<path class="st28" d="M697.8,208.7c-2.78,0.57-27.85,6.13-36,27c-1.46,3.75-6.26,16.06,0,27c2.68,4.67,6.46,7.47,9,9
		c-1.26-5.69-2.72-16.11,0.62-28.24C677.24,222.33,693.38,211.47,697.8,208.7z"/>
	<path class="st28" d="M769.8,208.7c2.02,0.97,47.23,22.96,54,45c1.19,3.89,3.38,11.02,0,18c-2.43,5.01-6.66,7.74-9,9
		c-1.63-7.83-4.36-17.11-9-27C795.17,231.05,779.81,216.6,769.8,208.7z"/>
	<path class="st29" d="M765.57,190.7c7.2,17.96,16.78,25.84,11.91,36.23c-2.01,4.28-6.59,9.4-10.96,9c-5.03-0.46-4.94-7.03-10.96-9
		c-10.19-3.34-21.78,12.31-32.89,9c-2.12-0.63-5.07-3.42-10.96-9c-6.67-6.31-7.97-9.03-10.96-9c-5.58,0.05-8.93,9.55-10.96,9
		c-1.35-0.37-1.22-4.96,0-9c3.93-12.98,18.34-17.6,31.95-27.23c24.69-17.47,26.6-37.16,33.83-35.77
		C761.45,156.06,756.68,168.53,765.57,190.7z"/>
	<path class="st27" d="M758.94,181.53c5.91,17.96,13.77,25.84,9.77,36.23c-1.65,4.28-5.41,9.4-9,9c-4.13-0.46-4.05-7.03-9-9
		c-8.37-3.34-17.88,12.31-27,9c-1.74-0.63-4.16-3.42-9-9c-5.48-6.31-6.54-9.03-9-9c-4.58,0.05-7.33,9.55-9,9c-1.11-0.37-1-4.96,0-9
		c3.22-12.98,15.06-17.6,26.23-27.23c20.27-17.47,21.84-37.16,27.77-35.77C755.56,146.9,751.64,159.37,758.94,181.53z"/>
	<path class="st30" d="M706.8,163.7c0,0-27-36-36-18C670.8,145.7,661.8,163.7,706.8,163.7z"/>
	<path class="st30" d="M769.8,163.7c0,0,27-36,36-18C805.8,145.7,814.8,163.7,769.8,163.7z"/>
	<path class="st31" d="M796.8,154.7c0-4.97-4.03-9-9-9c-0.21,0-0.42,0.02-0.62,0.03c-2.89,2.18-5.72,4.82-8.23,7.4
		c-0.09,0.51-0.15,1.03-0.15,1.57c0,3.68,2.21,6.84,5.38,8.24c4.04-0.49,7.37-1.18,10.11-2.01
		C795.84,159.3,796.8,157.11,796.8,154.7z"/>
	<path class="st32" d="M760.8,154.7c3.25,1.59,6.62,3.1,10.12,4.5c39.07,15.62,78.09,11.68,106.88,4.5c-1.43,8.33-7.42,38.05-27,45
		c-22.37,7.93-51.41-17.78-72-36C770.86,165.67,764.82,159.24,760.8,154.7z"/>
	<circle class="st33" cx="791.77" cy="150.73" r="3.97"/>
	<path class="st31" d="M704.53,160.84c-2.64-3.21-7.28-8.55-12.41-12.93c-2.71,1.6-4.53,4.55-4.53,7.92c0,2.74,1.2,5.19,3.1,6.88
		c3.18,0.45,6.84,0.77,11.03,0.91C702.85,162.9,703.81,161.95,704.53,160.84z"/>
	<path class="st33" d="M697.34,159.4c1.96,0,3.54-1.59,3.54-3.54c0-0.34-0.06-0.66-0.15-0.97c-0.53-0.7-1.05-1.39-1.58-2.06
		c-0.53-0.32-1.15-0.51-1.81-0.51c-1.96,0-3.54,1.59-3.54,3.54C693.79,157.81,695.38,159.4,697.34,159.4z"/>
</g>
<g id="_x31_">
	
		<linearGradient id="SVGID_1_" gradientUnits="userSpaceOnUse" x1="250" y1="123.1777" x2="250" y2="616.7006" gradientTransform="matrix(1 0 0 -1 0 626.8032)">
		<stop  offset="0" style="stop-color:#171C61"/>
		<stop  offset="0.0509" style="stop-color:#1F1D60"/>
		<stop  offset="0.1284" style="stop-color:#35205D"/>
		<stop  offset="0.2227" style="stop-color:#532557"/>
		<stop  offset="0.3303" style="stop-color:#7B2F4E"/>
		<stop  offset="0.449" style="stop-color:#AC3C3E"/>
		<stop  offset="0.5755" style="stop-color:#E44F1C"/>
		<stop  offset="0.5901" style="stop-color:#EA5114"/>
		<stop  offset="1" style="stop-color:#E60012"/>
	</linearGradient>
	
		<linearGradient id="SVGID_2_" gradientUnits="userSpaceOnUse" x1="-25" y1="376.8032" x2="525" y2="376.8032" gradientTransform="matrix(1 0 0 -1 0 626.8032)">
		<stop  offset="0" style="stop-color:#187FC4"/>
		<stop  offset="1" style="stop-color:#187FC4;stop-opacity:0"/>
	</linearGradient>
	<rect x="-24.5" y="-24.5" class="st34" width="549" height="549"/>
	<g>
		<path class="st35" d="M173.93,451.95c3.86,12.48,2.07,16.85,0,18.63c-5.22,4.5-16.15-4.07-37.26-6.21
			c-8.04-0.82-14.64-0.4-18.63,0c2.63-4.32,6.8-10.9,12.42-18.63c7.14-9.82,10.24-12.74,12.42-18.63c1.91-5.17,3.32-13.18,0-24.84
			c12.42,2.07,24.84,4.14,37.26,6.21c-2.48,6.1-5.14,14.54-6.21,24.84C173.19,440.46,173.4,446.79,173.93,451.95z"/>
		<path class="st36" d="M341.62,84.04c0.31-0.9,1.55-4.38,0-6.21c-4.03-4.76-23.02,5.25-24.84,6.21
			c-23.34,12.3-30.49,36-52.98,82.11c-23.33,47.81-28.89,48.25-27.75,60.74c2.94,32.28,30.1,60.58,68.32,74.53
			c-11.42,18.51-13.12,33.23-12.42,43.47c1.96,28.79,24.38,44.22,18.63,68.32c-0.79,3.33-3.07,10.77,0,18.63
			c0.47,1.22,3.83,9.11,12.42,12.42c9.14,3.53,20.63,0.47,24.84-6.21c4.28-6.78-1.8-12.76-6.21-31.05
			c-6.36-26.36-2.77-51.54,0-62.11c2.03-7.75,4.32-16.59,6.12-30.76c0.8-6.34,0.19-11.15,0.09-12.72c-0.9-15.17,0.92-47.31,0-86.95
			C346.14,141.08,336.4,99.32,341.62,84.04z"/>
		<path class="st37" d="M341.62,84.04c0.3-0.87,1.56-4.37,0-6.21c-4.03-4.76-23.02,5.25-24.84,6.21
			c-23.34,12.3-30.49,36-52.98,82.11c-15.36,31.49-26.82,38.64-28.07,48.62c-0.37,2.95,0.05,4.99,0.43,6.13
			c1.46,4.43,5.19,6.83,6.1,7.47c8.25,5.8,11.38,26.33,12.42,31.05c2.35,10.67,12.76,25.39,49.69,41.99
			c-11.42,18.51-13.12,33.23-12.42,43.47c1.96,28.79,24.38,44.22,18.63,68.32c-0.79,3.33-3.07,10.77,0,18.63
			c0.47,1.22,3.83,9.11,12.42,12.42c9.14,3.53,20.63,0.47,24.84-6.21c4.28-6.78-1.8-12.76-6.21-31.05
			c-6.36-26.36-2.77-51.54,0-62.11c2.03-7.75,4.32-16.59,6.12-30.76c0.76-6.02,0.21-10.62,0.09-12.72
			c-5.95-103.83-6.21-141.36-6.21-141.36C341.28,110.36,341.11,85.52,341.62,84.04z"/>
		<path class="st38" d="M208.13,146.61c-16.61-14.52-28.12-9.81-40.4-25.3c-19.74-24.9-9.58-61.79-12.42-62.11
			c-1.78-0.2-7.81,14.14-12.42,55.9c-4.81,43.59-6.87,106.11,6.21,186.32c-5.59,15.22-12.33,38.95-12.42,68.32
			c-0.08,24.65,4.47,72.43,18.63,74.53c14.71,2.18,38.37-45.2,42.7-89.94c1.68-17.3,0.24-31.97-1.47-42.38
			c10.57-10.89,36.87-41.02,39.51-85.06C236.52,218.8,237.92,172.65,208.13,146.61z"/>
		<path class="st35" d="M208.13,146.61c-14.7-15.08-27.56-9.1-40.4-25.3c-19.74-24.9-9.58-61.79-12.42-62.11
			c-1.78-0.2-7.81,14.14-12.42,55.9c-4.81,43.59-6.87,106.11,6.21,186.32c-3.19,23.65-5.07,43.34-6.21,57.38
			c-6.12,75.35,1.08,85.18,6.21,86.95c2.11,0.73,4.5,0.3,6.21,0c10.78-1.91,16.67-12.92,18.39-16.45c0,0,0.23-0.37,0.47-0.77
			c8.76-14.9,11.92-65.47,12.2-69.73c0.68-10.27,3.84-22.46,10.18-46.84C210.26,259.1,228.82,167.83,208.13,146.61z"/>
		<path class="st39" d="M335.41,132.1c-3.97,11.82-34.16,96.26-96.26,96.26c-60.52,0-89.04-64.03-96.26-96.26
			c-0.15-0.66-0.37-1.66-0.64-2.94c-1.4-6.81-11.25-59.18,19.27-87.11c5.01-4.58,13.45-12.31,24.84-12.42
			c17.94-0.17,37.27,18.63,37.26,18.63l0,0c29.82-22.86,62.11-24.84,62.11-24.84c2.25-0.21,27.11-2.19,43.47,12.42
			C358.85,62.31,338.33,123.4,335.41,132.1z"/>
		<path class="st40" d="M385.09,458.16c-13.83,0.28-24.06,3.31-31.05,6.21c-9.75,4.04-13.24,7.82-18.63,6.21
			c-8.33-2.49-7.07-12.76-18.63-18.63c-5.95-3.03-9.89-2.09-12.42-6.21c-2.46-4-1.02-9.04,0-12.42
			c7.55-25.03,11.35-37.53,12.42-37.26c7.45,1.89,15.45,13.45,18.95,11.46c1.85-1.05,1.1-6.07-0.32-11.46
			c3.17,11.22,11.05,32.58,31.05,49.69C372.89,451.23,379.34,455.23,385.09,458.16z"/>
		<path class="st41" d="M388.2,453.5c0.8,2.56-2.73,7.77-7.76,7.76c-5.11-0.01-7.3-5.41-7.76-7.76c-0.21-1.05-0.06-1.43,0-1.55
			C374.14,448.76,386.95,449.5,388.2,453.5z"/>
		<path class="st42" d="M372.57,452.72c0.01,0.21,0.04,0.46,0.1,0.78c0.47,2.35,2.65,7.75,7.76,7.76c1.38,0,2.63-0.39,3.73-1.01
			c0.19-0.28,0.43-0.7,0.53-1.24c0.55-2.69-2.46-6.1-5.81-7.07C375.99,451.11,373.45,452.27,372.57,452.72z"/>
		<path class="st43" d="M130.7,461.25c1.07,3.11-3.74,9.31-9.44,9.3c-5.61-0.01-10.46-6.03-9.44-9.3c1.05-3.35,8.23-3.76,12.42-3.09
			C126.35,458.5,129.95,459.07,130.7,461.25z"/>
		<path class="st44" d="M125.56,458.38c-3.97,0.64-8.01,2.65-8.76,6.01c-0.39,1.76,0.14,3.72,1.3,5.52c1,0.4,2.07,0.63,3.17,0.63
			c5.7,0.01,10.51-6.19,9.44-9.3C130.09,459.48,127.6,458.77,125.56,458.38z"/>
		<path class="st45" d="M335.41,125.89c-3.97,11.82-34.16,96.26-96.26,96.26c-60.52,0-89.04-64.03-96.26-96.26
			c-0.15-0.66-0.37-1.66-0.64-2.94c-1.4-6.81-11.25-59.18,19.27-87.11c5.01-4.58,13.45-12.31,24.84-12.42
			c17.94-0.17,37.27,18.63,37.26,18.63l0,0c29.82-22.86,62.11-24.84,62.11-24.84c2.25-0.21,27.11-2.19,43.47,12.42
			C358.85,56.1,338.33,117.19,335.41,125.89z"/>
		<path class="st46" d="M335.41,125.89c-3.97,11.82-34.16,96.26-96.26,96.26c-60.52,0-89.04-64.03-96.26-96.26
			c-0.33-1.48-0.64-2.94-0.64-2.94s-3.04-15.63,0.64-31.22c3.34-14.16,32.65-41.14,80.74-49.69c29.82-22.86,62.11-24.84,62.11-24.84
			c2.25-0.21,27.11-2.19,43.47,12.42C358.85,56.1,338.33,117.19,335.41,125.89z"/>
		<path class="st47" d="M140.1,107.49c0.64,7.8,1.74,13.51,2.14,15.46c0.27,1.29,0.49,2.28,0.64,2.94
			c7.23,32.24,35.74,96.26,96.26,96.26c62.11,0,92.3-84.45,96.26-96.26c2.92-8.7,23.44-69.79-6.21-96.26
			c-16.36-14.61-41.22-12.63-43.47-12.42c0,0-32.29,1.98-62.11,24.84c-17.95,4.87-52.3,17.3-74.53,49.69
			C145.46,97.02,142.51,102.32,140.1,107.49z"/>
		<path class="st48" d="M285.72,141.42c-16.14,44.96-60.55,60.84-75.82,75.22c8.78,3.49,18.51,5.52,29.24,5.52
			c62.11,0,92.3-84.45,96.26-96.26c0.44-1.53,0.83-2.52,1.12-3.4c0.03-0.09,0.06-0.18,0.09-0.27c0.02-0.07,0.05-0.15,0.07-0.22
			c0.06-0.2,0.12-0.4,0.19-0.6c0.03-0.09,0.05-0.17,0.08-0.26c0.06-0.2,0.13-0.41,0.19-0.62c0.03-0.1,0.06-0.2,0.09-0.31
			c0.06-0.21,0.13-0.43,0.2-0.65c0.03-0.1,0.06-0.21,0.09-0.31c0.07-0.23,0.14-0.47,0.21-0.71c0.03-0.1,0.06-0.2,0.09-0.31
			c0.08-0.27,0.16-0.54,0.24-0.81c0.02-0.09,0.05-0.17,0.07-0.26c0.21-0.74,0.43-1.51,0.65-2.31c0.02-0.07,0.04-0.14,0.06-0.21
			c0.09-0.33,0.18-0.66,0.27-1c0.03-0.13,0.07-0.26,0.1-0.39c0.08-0.28,0.15-0.57,0.23-0.86c0.04-0.16,0.08-0.32,0.13-0.49
			c0.07-0.27,0.14-0.54,0.21-0.81c0.04-0.17,0.09-0.35,0.13-0.52c0.07-0.27,0.14-0.55,0.21-0.83c0.04-0.18,0.09-0.36,0.13-0.54
			c0.07-0.28,0.14-0.56,0.2-0.84c0.05-0.19,0.09-0.38,0.14-0.57c0.07-0.28,0.13-0.57,0.2-0.86c0.05-0.19,0.09-0.39,0.14-0.58
			c0.07-0.3,0.13-0.59,0.2-0.89c0.04-0.19,0.09-0.38,0.13-0.58c0.07-0.33,0.14-0.66,0.21-0.99c0.04-0.17,0.07-0.34,0.11-0.51
			c0.09-0.41,0.17-0.82,0.26-1.23c0.02-0.1,0.04-0.2,0.06-0.31c0.11-0.52,0.21-1.05,0.31-1.58c0.02-0.08,0.03-0.17,0.05-0.25
			c0.09-0.44,0.17-0.89,0.25-1.34c0.03-0.18,0.06-0.36,0.1-0.53c0.07-0.36,0.13-0.72,0.19-1.08c0.04-0.21,0.07-0.42,0.11-0.62
			c0.06-0.34,0.12-0.68,0.17-1.02c0.04-0.22,0.07-0.45,0.11-0.67c0.05-0.33,0.11-0.66,0.16-1c0.04-0.23,0.07-0.47,0.11-0.71
			c0.05-0.33,0.1-0.66,0.15-0.99c0.03-0.24,0.07-0.48,0.1-0.72c0.05-0.33,0.09-0.67,0.14-1c0.03-0.24,0.06-0.48,0.09-0.72
			c0.04-0.34,0.09-0.69,0.13-1.04c0.03-0.23,0.06-0.47,0.08-0.7c0.04-0.36,0.08-0.72,0.12-1.08c0.02-0.22,0.05-0.45,0.07-0.67
			c0.04-0.4,0.08-0.81,0.12-1.21c0.02-0.18,0.04-0.37,0.05-0.55c0.05-0.59,0.1-1.19,0.15-1.78c0-0.02,0-0.04,0-0.06
			c0.04-0.57,0.08-1.15,0.12-1.72c0.01-0.19,0.02-0.38,0.03-0.57c0.02-0.41,0.05-0.81,0.07-1.22c0.01-0.23,0.02-0.46,0.03-0.7
			c0.02-0.37,0.03-0.73,0.04-1.1c0.01-0.25,0.01-0.5,0.02-0.75c0.01-0.35,0.02-0.7,0.02-1.05c0-0.26,0.01-0.51,0.01-0.77
			c0-0.35,0.01-0.69,0.01-1.04c0-0.26,0-0.52,0-0.78c0-0.35-0.01-0.69-0.01-1.04c0-0.26-0.01-0.52-0.01-0.78
			c-0.01-0.35-0.02-0.7-0.03-1.05c-0.01-0.25-0.02-0.51-0.03-0.76c-0.01-0.36-0.03-0.72-0.05-1.08c-0.01-0.24-0.02-0.49-0.04-0.73
			c-0.02-0.38-0.05-0.77-0.08-1.15c-0.02-0.22-0.03-0.43-0.05-0.65c-0.04-0.49-0.08-0.97-0.13-1.46c-0.01-0.11-0.02-0.22-0.03-0.33
			c-0.06-0.6-0.13-1.19-0.2-1.78c-0.02-0.18-0.05-0.35-0.07-0.53c-0.05-0.42-0.11-0.83-0.17-1.24c-0.03-0.23-0.07-0.45-0.11-0.68
			c-0.06-0.36-0.11-0.72-0.17-1.09c-0.04-0.24-0.09-0.48-0.13-0.73c-0.06-0.34-0.12-0.68-0.19-1.03c-0.05-0.25-0.1-0.5-0.15-0.74
			c-0.07-0.33-0.14-0.66-0.21-0.99c-0.06-0.25-0.11-0.5-0.17-0.75c-0.08-0.33-0.16-0.65-0.24-0.98c-0.06-0.25-0.13-0.49-0.19-0.74
			c-0.09-0.33-0.18-0.65-0.27-0.97c-0.07-0.24-0.14-0.48-0.21-0.72c-0.1-0.33-0.2-0.65-0.3-0.98c-0.07-0.23-0.15-0.46-0.22-0.7
			c-0.11-0.34-0.23-0.68-0.35-1.01c-0.07-0.21-0.15-0.42-0.22-0.63c-0.14-0.39-0.29-0.77-0.44-1.15c-0.06-0.16-0.12-0.32-0.18-0.47
			c-0.22-0.53-0.44-1.07-0.67-1.59c-0.05-0.11-0.11-0.22-0.16-0.34c-0.19-0.41-0.37-0.82-0.57-1.23c-0.09-0.19-0.19-0.38-0.28-0.56
			c-0.16-0.33-0.33-0.65-0.5-0.97c-0.11-0.21-0.23-0.41-0.34-0.61c-0.16-0.3-0.33-0.6-0.5-0.89c-0.12-0.21-0.25-0.42-0.38-0.63
			c-0.17-0.28-0.34-0.57-0.52-0.85c-0.13-0.21-0.27-0.42-0.41-0.63c-0.18-0.27-0.36-0.55-0.55-0.81c-0.14-0.21-0.29-0.41-0.44-0.61
			c-0.19-0.27-0.39-0.53-0.59-0.79c-0.15-0.2-0.3-0.4-0.46-0.59c-0.21-0.26-0.42-0.52-0.64-0.78c-0.16-0.19-0.31-0.38-0.47-0.56
			c-0.23-0.27-0.47-0.53-0.7-0.79c-0.16-0.17-0.31-0.34-0.47-0.51c-0.27-0.28-0.54-0.56-0.82-0.84c-0.14-0.14-0.27-0.28-0.41-0.42
			c-0.42-0.41-0.85-0.82-1.3-1.21c-16.36-14.61-41.22-12.63-43.47-12.42C264.87,31.54,305.86,85.31,285.72,141.42z"/>
		<path class="st49" d="M186.35,178.68c4.38-4.08,19.87-17.53,43.47-18.63c32.64-1.53,53.32,21.83,55.9,24.84
			c-12.29-8.15-22.94-14.27-31.05-18.63c-7.33-3.94-12.16-6.23-18.63-6.21c-7.13,0.02-11.82,2.83-18.63,6.21
			C210.31,169.78,199.96,174.39,186.35,178.68z"/>
		<path class="st50" d="M211.2,101.42c-11-17.38-24.14-25.42-31.05-22.11c-1.13,0.54-5,2.78-6.21,12.42
			c3.64,0.05,7.69,0.35,12.06,1.07C196.59,94.56,205.1,98.16,211.2,101.42z"/>
		<path class="st51" d="M254.16,101.42c9.23-18.4,23.93-29.77,37.77-28.32c9.94,1.04,19.57,8.71,18.63,12.42
			c-0.97,3.84-12.79,1.72-31.05,6.21C268.41,94.46,259.76,98.45,254.16,101.42z"/>
		<path class="st40" d="M217.41,172.25c3.6,2.11,9.11,4.76,16.25,6.21c8.97,1.82,16.5,0.91,21.01,0c-2.05,1.92-6.3,5.32-12.42,6.21
			C233.03,186.01,223.42,181.11,217.41,172.25z"/>
		<path class="st52" d="M254.67,101.42c0,0,18.63-24.84,24.84-12.42c0.22,0.9,0.44,2.22,0.36,3.8c-0.24,4.58-2.9,9.03-6.57,11.35
			C267.95,107.54,260.14,106.6,254.67,101.42z"/>
		<path class="st52" d="M211.2,104.15c-8.07-12.7-16.48-20.12-21.36-18.24c-0.96,0.37-2.05,1.2-2.98,3.09
			c-0.21,0.91-0.43,2.23-0.36,3.8c0.22,4.74,2.9,8.97,6.06,11.35C197.58,107.93,205.07,107.99,211.2,104.15z"/>
		<path class="st53" d="M140.92,464.37c1.1,4.82-4.87,11.3-11.39,11.3c-6.5,0-12.48-6.46-11.39-11.3c0.99-4.4,7.59-6.49,12.32-6.21
			C134.2,458.38,139.99,460.29,140.92,464.37z"/>
		<path class="st54" d="M133.65,458.68c-4.89,1.54-9.83,6.16-9.4,11.9c0.12,1.61,0.65,3.07,1.46,4.36c1.22,0.46,2.51,0.73,3.83,0.73
			c6.52,0,12.49-6.48,11.39-11.3C140.23,461.34,136.87,459.52,133.65,458.68z"/>
		<path class="st55" d="M153.12,467.47c0.89,6.59-6.02,13.3-13.35,13.3c-7.38,0-14.24-6.78-13.35-13.3c0.7-5.1,5.93-8.45,10.24-9.32
			C143.42,456.8,152.21,460.69,153.12,467.47z"/>
		<path class="st43" d="M142.88,464.37c-2.34,4.64-0.67,10.87,3,14.86c4.58-2.36,7.87-7.09,7.24-11.76
			c-0.44-3.29-2.74-5.9-5.77-7.56C145.49,460.93,143.87,462.4,142.88,464.37z"/>
		<path class="st56" d="M173.93,467.47c1.38,7.01-6.73,15.53-15.53,15.53c-8.75-0.01-16.86-8.46-15.53-15.53
			c1.3-6.88,11.19-10.5,18.63-9.32C166.07,458.88,172.84,461.91,173.93,467.47z"/>
		<path class="st55" d="M173.93,467.47c1.38,7.01-6.73,15.53-15.53,15.53c-0.32,0-1.68-0.16-1.75-0.63
			c-0.17-1.05,6.58-1.17,11.07-5.58c4.09-4.02,4.91-10.23,5.86-9.98C173.82,466.87,173.9,467.29,173.93,467.47z"/>
		<path class="st57" d="M383.66,456.6c0.94,3.84-3.98,9.39-9.44,9.39c-5.49,0-10.41-5.6-9.44-9.39c0.97-3.79,7.54-4.62,7.88-4.66
			C376.83,451.47,382.77,452.98,383.66,456.6z"/>
		<path class="st58" d="M375.18,459.71c-0.44-3.2-3.01-5.61-6.13-6.87c-1.83,0.68-3.77,1.84-4.26,3.77
			c-0.92,3.59,3.43,8.78,8.54,9.33C374.72,464.1,375.48,461.91,375.18,459.71z"/>
		<path class="st59" d="M372.67,459.71c0.75,5.42-4.91,10.87-10.87,10.87c-5.99,0-11.62-5.5-10.87-10.87
			c0.62-4.42,5.35-7.27,9.32-7.76C365.48,451.3,371.95,454.45,372.67,459.71z"/>
		<path class="st60" d="M363.24,464.37c0.01-3.78-3.7-7.6-8.82-10.07c-1.8,1.33-3.17,3.17-3.49,5.41c-0.69,4.93,3.99,9.95,9.4,10.75
			C362.14,468.54,363.24,466.42,363.24,464.37z"/>
		<path class="st61" d="M360.25,461.26c1.34,7.07-6.78,15.52-15.53,15.53c-8.79,0.01-16.91-8.52-15.53-15.53
			c1.09-5.56,7.86-8.59,12.42-9.32C349.06,450.76,358.95,454.38,360.25,461.26z"/>
		<path class="st62" d="M248.46,79.31c0,0-18.63,6.21-12.42,12.42L248.46,79.31z"/>
		<path class="st62" d="M204.99,135.2c-1.92,0.39-19.22,4.23-24.84,18.63c-1.01,2.59-4.32,11.08,0,18.63
			c1.85,3.23,4.46,5.15,6.21,6.21c-0.87-3.93-1.88-11.12,0.43-19.49C190.8,144.62,201.94,137.12,204.99,135.2z"/>
		<path class="st62" d="M254.67,135.2c1.4,0.67,32.59,15.84,37.26,31.05c0.82,2.68,2.34,7.6,0,12.42c-1.68,3.46-4.59,5.34-6.21,6.21
			c-1.13-5.4-3.01-11.81-6.21-18.63C272.18,150.63,261.58,140.66,254.67,135.2z"/>
		<path class="st63" d="M251.75,122.78c4.97,12.39,11.58,17.83,8.22,25c-1.38,2.95-4.55,6.49-7.57,6.21
			c-3.47-0.32-3.41-4.85-7.57-6.21c-7.03-2.3-15.03,8.49-22.7,6.21c-1.46-0.44-3.5-2.36-7.57-6.21c-4.6-4.36-5.5-6.23-7.57-6.21
			c-3.85,0.04-6.16,6.59-7.57,6.21c-0.93-0.25-0.84-3.42,0-6.21c2.71-8.96,12.66-12.15,22.05-18.79
			c17.04-12.05,18.36-25.64,23.35-24.68C248.91,98.88,245.62,107.49,251.75,122.78z"/>
		<path class="st61" d="M247.18,116.46c4.08,12.39,9.5,17.83,6.74,25c-1.14,2.95-3.73,6.49-6.21,6.21c-2.85-0.32-2.8-4.85-6.21-6.21
			c-5.77-2.3-12.34,8.49-18.63,6.21c-1.2-0.44-2.87-2.36-6.21-6.21c-3.78-4.36-4.51-6.23-6.21-6.21c-3.16,0.04-5.06,6.59-6.21,6.21
			c-0.77-0.25-0.69-3.42,0-6.21c2.22-8.96,10.39-12.15,18.1-18.79c13.99-12.05,15.07-25.64,19.17-24.68
			C244.84,92.56,242.14,101.17,247.18,116.46z"/>
		<path class="st64" d="M211.2,104.15c0,0-18.63-24.84-24.84-12.42C186.35,91.73,180.14,104.15,211.2,104.15z"/>
		<path class="st64" d="M254.67,104.15c0,0,18.63-24.84,24.84-12.42C279.51,91.73,285.72,104.15,254.67,104.15z"/>
		<path class="st65" d="M273.3,97.94c0-3.43-2.78-6.21-6.21-6.21c-0.15,0-0.29,0.01-0.43,0.02c-2,1.51-3.95,3.33-5.68,5.1
			c-0.06,0.35-0.1,0.71-0.1,1.08c0,2.54,1.53,4.72,3.71,5.68c2.79-0.34,5.09-0.81,6.98-1.39C272.64,101.12,273.3,99.61,273.3,97.94z
			"/>
		<path class="st66" d="M248.46,97.94c2.24,1.1,4.57,2.14,6.99,3.11c26.96,10.78,53.89,8.06,73.75,3.11
			c-0.99,5.75-5.12,26.26-18.63,31.05c-15.44,5.47-35.48-12.27-49.69-24.84C255.4,105.51,251.23,101.08,248.46,97.94z"/>
		<circle class="st67" cx="269.83" cy="95.2" r="2.74"/>
		<path class="st65" d="M209.63,102.18c-1.82-2.22-5.03-5.9-8.56-8.92c-1.87,1.11-3.13,3.14-3.13,5.47c0,1.89,0.83,3.58,2.14,4.74
			c2.19,0.31,4.72,0.53,7.61,0.63C208.47,103.6,209.13,102.95,209.63,102.18z"/>
		<path class="st67" d="M204.67,101.19c1.35,0,2.45-1.09,2.45-2.44c0-0.23-0.04-0.45-0.1-0.67c-0.36-0.49-0.73-0.96-1.09-1.42
			c-0.37-0.22-0.79-0.35-1.25-0.35c-1.35,0-2.45,1.09-2.45,2.45C202.22,100.09,203.32,101.19,204.67,101.19z"/>
		<path class="st39" d="M217.41,97.94c-4.32,20.18-21.42,32.86-37.26,31.05c-15.68-1.79-24.02-17.07-24.84-18.63
			c11.86,1.45,30.17,1.78,49.69-6.21C209.59,102.27,213.73,100.14,217.41,97.94z"/>
	</g>
</g>
</svg>
