<?xml version="1.0" encoding="utf-8"?>
<!-- Generator: Adobe Illustrator 24.1.2, SVG Export Plug-In . SVG Version: 6.00 Build 0)  -->
<svg version="1.1" id="レイヤー_1" xmlns="http://www.w3.org/2000/svg" xmlns:xlink="http://www.w3.org/1999/xlink" x="0px"
	 y="0px" viewBox="0 0 500 500" style="enable-background:new 0 0 500 500;" xml:space="preserve">
<style type="text/css">
	.st0{fill:#5F1200;}
	.st1{fill:#3D0000;}
	.st2{fill:#E6EBEE;stroke:#9E9E9F;stroke-width:0.25;stroke-miterlimit:10;}
	.st3{fill:#F7F9FA;}
	.st4{fill:#323333;}
	.st5{fill:#231815;}
	.st6{fill:#EFF5F8;}
	.st7{fill:#CDD8DE;stroke:#9E9E9F;stroke-width:0.25;stroke-miterlimit:10;}
	.st8{fill:#D3DEE4;stroke:#9E9E9F;stroke-width:0.25;stroke-miterlimit:10;}
	.st9{fill:#8B2A16;}
	.st10{fill:#4E0500;}
	.st11{fill:#6E1B05;}
	.st12{fill:#A53620;}
	.st13{fill:#98301B;}
	.st14{fill:#A13019;}
	.st15{fill:#741B02;}
	.st16{fill:#450000;}
	.st17{fill:#7E230E;}
	.st18{fill:#E2E4E5;}
	.st19{fill:#DEE6EA;stroke:#9E9E9F;stroke-width:0.25;stroke-miterlimit:10;}
	.st20{fill:#BD3519;}
	.st21{fill:#280000;}
	.st22{fill:#320000;}
	.st23{fill:#DEE0E2;}
	.st24{fill:#2B0000;}
	.st25{fill:#EAECEE;stroke:#9E9E9F;stroke-width:0.25;stroke-miterlimit:10;}
	.st26{fill:#812511;}
	.st27{fill:#040000;}
	.st28{fill:#9C9D9F;}
</style>
<g>
	<path class="st0" d="M394.4,82.5C386.7,98,373,121.8,349.9,145c-44.5,44.6-88.6,50.9-88.9,74.1c-0.3,21.9,38.9,25.9,56.1,53.9
		c17.4,28.4,12.5,82.2-66.7,190.6c-82.7-111.6-88.3-165.2-70.9-192.6c17.4-27.4,58.4-29.3,59.3-51.9c0.8-21.6-36.5-31.4-81.5-74.1
		c-25.1-23.8-41.4-47.3-50.9-62.5C202.4,82.5,298.4,82.5,394.4,82.5z"/>
	<path class="st1" d="M105.6,82.5c26.1-9.2,58.5-17.9,96.2-22c82.7-9.1,150.6,7.8,191.9,22c-10.8,13.4-47.9,55.7-110.4,66.9
		C181.9,167.6,109.6,87.1,105.6,82.5z"/>
	<path class="st2" d="M372.3,104.9c1.4-5,0.8-6.7-0.1-7.4c-2.5-1.9-9.8,3.3-14.8,7.4c0,4.1,0,8.1,0,12.2
		C362.9,113,367.9,108.9,372.3,104.9z"/>
	<circle class="st3" cx="249.9" cy="108.6" r="70.2"/>
	<circle class="st4" cx="249.9" cy="108.6" r="40.8"/>
	<circle class="st5" cx="249.6" cy="108.6" r="22.1"/>
	
		<ellipse transform="matrix(0.2229 -0.9748 0.9748 0.2229 118.0189 331.8133)" class="st6" cx="267.1" cy="91.9" rx="11.2" ry="12.9"/>
	<path class="st2" d="M246.2,134.6v17.3c11.8,0.5,24.2-0.2,37.1-2.5v-14.8c-1.8-1.8-6.9-6.3-14.8-7.4
		C256.2,125.4,247.4,133.4,246.2,134.6z"/>
	<path class="st2" d="M283.2,149.4c13.5-2.4,25.9-6.3,37-11.1v-3.7c-7.8-7.6-12.2-8.4-14.8-7.4c-3.3,1.2-3.5,5-7.4,7.4
		c-4.5,2.8-10.3,1.6-14.8,0C283.2,139.5,283.2,144.4,283.2,149.4z"/>
	<path class="st7" d="M135.1,97.5h-14.2c4,3.6,8.8,7.5,14.2,11.6c3.8,0.2,6.9-1.8,7.4-4.2C143.1,102,140.2,97.8,135.1,97.5z"/>
	<path class="st8" d="M172.1,132.2v-12.4c-3.1-6.2-9.6-9.1-14.8-7.4c-4.9,1.6-6.8,6.7-7.1,7.4C153.5,121.8,156.5,125,172.1,132.2z"
		/>
	<path class="st2" d="M320.3,119.7v18.6c12.7-5.4,23.8-11.9,33.3-18.6c-1.4-1.8-5.1-5.9-11.1-7.4
		C334.8,110.3,326.3,113.2,320.3,119.7z"/>
	<path class="st9" d="M253.6,226.5c-14.8,4.3-88,149,0,96.3c89.7,45.3,114.7,50.3,118.5,44.5c4.3-6.5-46.7-91.1-51.9-96.3
		C295.8,246.4,270.1,233.3,253.6,226.5z"/>
	<path class="st10" d="M253.6,226.5c-14.8,4.3-46.1,15.4-74.1,44.5c-3.6,3.8-49.2,97.9-44.5,103.7c5.2,6.5,30.5,0.8,118.6-51.9
		C343.4,368.1,270.1,233.3,253.6,226.5z"/>
	<path class="st1" d="M253.6,359.8c9.1,89.6-2.3,113.6-14.8,118.6c-7.6,3-13.9-1.7-44.5,0c-16.6,0.9-28.6,3.1-29.6,0
		c-1.3-3.9,17-8,22.2-22.2c5.1-13.9-7-24.3-7.4-37C179,404.6,193.5,384.9,253.6,359.8z"/>
	<path class="st11" d="M253.6,359.8c19.4,60.5,19.7,89.1,14.8,103.7c-0.8,2.3-3.7,10.3,0,14.8c4.7,5.8,15.2,0.2,37,0
		c19.4-0.1,26.9,4.1,29.6,0c3.8-5.8-10.2-15.5-14.8-37c-3.1-14.4,0.4-20.5,0-29.6C319.8,398.4,307.1,380.5,253.6,359.8z"/>
	<path class="st12" d="M339.3,345c3.2,51.8-36.9,118.6-88.9,118.6c-51.9,0-91.8-66.6-88.9-118.5c1.9-33.6,21.4-57.2,47.7-88.9
		c22.4-27,34-29.7,41.2-29.6c8.7,0.1,19.5,4.2,40.3,29.6C319.3,291.2,337.3,313.3,339.3,345z"/>
	<path class="st0" d="M161.4,347.5c0,0.4,0,0.7,0,1.1c0,0.2,0,0.3,0,0.5c0,0.3,0,0.6,0,0.9c0,0.3,0,0.6,0,0.9c0,0.2,0,0.5,0,0.8
		c0,0.3,0,0.6,0,0.8c0,0.3,0,0.6,0,1c0,0.2,0,0.4,0,0.6c0,0.3,0,0.6,0,0.9c0,0.4,0.1,0.8,0.1,1.2c0,0,0,0,0,0c0,0,0,0,0,0.1
		c0,0.4,0,0.8,0.1,1.2c0,0.4,0.1,0.7,0.1,1.1c0,0.5,0.1,0.9,0.1,1.4c0,0.4,0.1,0.8,0.1,1.1c0.1,0.5,0.1,0.9,0.1,1.4
		c0.1,0.5,0.1,0.9,0.2,1.4c0.1,0.4,0.1,0.8,0.1,1.1c0,0,0,0,0,0v0c0.1,0.5,0.1,1,0.2,1.6c0,0,0,0.1,0,0.1c0,0.3,0.1,0.5,0.1,0.8
		c0.1,0.5,0.2,1,0.3,1.6c0,0.2,0.1,0.5,0.1,0.7c0,0.1,0,0.2,0,0.2c0.1,0.5,0.2,1.1,0.3,1.7c0,0.1,0.1,0.2,0.1,0.4
		c0,0.2,0.1,0.4,0.1,0.5c0.1,0.6,0.2,1.1,0.4,1.7c0,0.2,0.1,0.3,0.1,0.5c0,0.1,0.1,0.2,0.1,0.3c0,0,0,0,0,0c0.1,0.6,0.3,1.2,0.4,1.7
		c0.1,0.3,0.1,0.5,0.2,0.8c0.1,0.6,0.3,1.2,0.5,1.9c0,0.1,0.1,0.2,0.1,0.3c0,0.1,0,0.1,0,0.2c0,0.1,0,0.1,0.1,0.2
		c0.2,0.6,0.3,1.2,0.5,1.8c0.1,0.2,0.1,0.4,0.1,0.6c0,0.1,0,0.1,0.1,0.2c0.2,0.6,0.4,1.3,0.6,1.9c0,0.1,0.1,0.2,0.1,0.3
		c0,0.1,0.1,0.2,0.1,0.4c0.2,0.7,0.4,1.3,0.6,2c0.1,0.2,0.1,0.4,0.2,0.5c0.2,0.7,0.4,1.3,0.7,2c0.1,0.2,0.1,0.4,0.2,0.6
		c0.2,0.7,0.5,1.4,0.7,2.1c0.1,0.1,0.1,0.3,0.2,0.4c0.2,0.7,0.5,1.3,0.8,2c0,0,0,0,0,0.1c0.1,0.1,0.1,0.3,0.2,0.4
		c0.3,0.7,0.6,1.4,0.9,2.1c0,0.1,0.1,0.2,0.1,0.3c0.3,0.8,0.6,1.5,0.9,2.2c0,0,0,0.1,0.1,0.1c0,0,0,0,0,0.1c0,0,0,0,0,0
		c0.3,0.8,0.7,1.5,1,2.2c0,0,0,0,0,0.1c0,0,0,0.1,0.1,0.1c0.3,0.7,0.7,1.4,1,2.2c0,0.1,0.1,0.2,0.1,0.2c0,0,0,0,0,0
		c0.4,0.8,0.8,1.5,1.1,2.3c0,0,0,0,0,0.1s0,0,0,0.1c0.4,0.8,0.8,1.6,1.2,2.3c0,0,0,0,0,0c0,0,0,0,0,0c0.5,0.9,1,1.8,1.4,2.7
		c0.1,0.2,0.2,0.4,0.3,0.6c0.4,0.7,0.8,1.3,1.2,2c0.1,0.3,0.3,0.5,0.5,0.8c0.4,0.6,0.7,1.2,1.1,1.8c0.1,0.1,0.1,0.2,0.2,0.4
		c0.1,0.1,0.2,0.3,0.3,0.5c0.4,0.6,0.8,1.2,1.1,1.8c0.1,0.1,0.1,0.2,0.1,0.2c0.1,0.1,0.2,0.3,0.3,0.5c0.5,0.7,0.9,1.4,1.4,2.1
		c0,0,0,0,0,0c0.1,0.1,0.1,0.2,0.2,0.3c0.6,0.8,1.2,1.7,1.8,2.5c0.1,0.1,0.1,0.1,0.1,0.2c0.5,0.7,1.1,1.4,1.6,2.1
		c0.1,0.1,0.1,0.2,0.2,0.3c0.1,0.1,0.1,0.2,0.2,0.3c0.4,0.6,0.9,1.1,1.4,1.7c0.2,0.2,0.4,0.4,0.5,0.6c0.4,0.6,0.9,1.1,1.4,1.6
		c0.2,0.2,0.3,0.4,0.5,0.6c0.5,0.6,1,1.2,1.6,1.8c0.1,0.1,0.2,0.2,0.3,0.4c1.3,1.5,2.7,2.9,4,4.2c0.1,0.1,0.3,0.2,0.4,0.4
		c0.6,0.5,1.1,1.1,1.7,1.6c0.1,0.1,0.3,0.3,0.5,0.4c0,0,0.1,0,0.1,0.1c0.5,0.5,1.1,1,1.6,1.4c0.2,0.2,0.4,0.3,0.6,0.5
		c0.6,0.5,1.1,1,1.7,1.5c0.1,0.1,0.1,0.1,0.2,0.2s0.1,0.1,0.2,0.2c1.5,1.2,3,2.4,4.5,3.5c0.1,0,0.1,0.1,0.2,0.1
		c0.7,0.5,1.4,1,2.1,1.4c0.1,0,0.1,0.1,0.1,0.1c0.1,0.1,0.2,0.2,0.4,0.2c0.6,0.4,1.2,0.8,1.8,1.2c0.2,0.1,0.4,0.2,0.5,0.3
		c0,0,0,0,0.1,0c0.6,0.4,1.2,0.7,1.8,1.1c0.1,0.1,0.3,0.2,0.4,0.2c0,0,0.1,0,0.1,0.1c0.7,0.4,1.5,0.8,2.2,1.2c0.1,0,0.1,0.1,0.1,0.1
		c1.6,0.9,3.3,1.6,5,2.4c0,0,0.1,0,0.1,0c0.1,0,0.2,0.1,0.4,0.1c0.7,0.3,1.4,0.6,2,0.8c0.1,0,0.2,0.1,0.3,0.1c0.1,0,0.2,0.1,0.3,0.1
		c0.6,0.2,1.3,0.5,2,0.7c0.2,0.1,0.4,0.1,0.6,0.2c0.7,0.2,1.4,0.5,2.1,0.7c0.1,0,0.1,0,0.2,0.1c0.1,0,0.1,0,0.2,0.1
		c1.8,0.5,3.5,0.9,5.3,1.3c0.1,0,0.2,0,0.4,0.1c0.8,0.1,1.5,0.3,2.3,0.4c0.1,0,0.2,0,0.3,0c0.1,0,0.2,0,0.3,0
		c0.7,0.1,1.4,0.2,2.1,0.2c0.1,0,0.2,0,0.2,0c0.1,0,0.3,0,0.4,0c0.7,0.1,1.4,0.1,2.1,0.2c0.1,0,0.3,0,0.4,0c0.1,0,0.1,0,0.2,0
		c0.9,0,1.8,0.1,2.7,0.1c-3.8-2.8-9-7-14.6-12.8c-29.2-29.9-35-67.1-37.1-81.5c-2.6-18.4-11.8-83,29.6-118.6
		c13.2-11.4,27.7-16.4,38-18.9l0,0c-5.7-3.8-10.1-5.1-14.1-5.4c-0.3,0-0.5,0-0.8,0c0,0,0,0-0.1,0c-0.3,0-0.6,0-0.8,0
		c-0.2,0-0.4,0-0.7,0c-0.1,0-0.2,0-0.2,0c-0.1,0-0.3,0-0.5,0c-0.1,0-0.2,0-0.3,0c-0.1,0-0.1,0-0.2,0c-0.1,0-0.1,0-0.2,0
		c-0.1,0-0.2,0-0.3,0c-0.1,0-0.3,0-0.4,0c-0.1,0-0.2,0-0.4,0.1c-0.1,0-0.3,0-0.4,0.1c-0.1,0-0.3,0-0.4,0.1c-0.1,0-0.3,0.1-0.4,0.1
		c-0.1,0-0.3,0.1-0.4,0.1s-0.3,0.1-0.4,0.1c-0.1,0-0.3,0.1-0.4,0.1c-0.1,0-0.3,0.1-0.5,0.1c-0.1,0-0.3,0.1-0.5,0.1
		c-0.1,0-0.3,0.1-0.4,0.1c-0.2,0.1-0.3,0.1-0.5,0.2c-0.1,0.1-0.3,0.1-0.4,0.1c-0.2,0.1-0.3,0.1-0.5,0.2c-0.1,0-0.2,0.1-0.3,0.1
		c-0.1,0-0.1,0-0.2,0.1c-0.2,0.1-0.4,0.1-0.6,0.2c-0.2,0.1-0.3,0.1-0.5,0.2c-0.2,0.1-0.4,0.2-0.6,0.2c-0.1,0-0.2,0.1-0.3,0.1
		c-0.1,0-0.2,0.1-0.2,0.1c-0.2,0.1-0.4,0.2-0.6,0.3c-0.2,0.1-0.3,0.2-0.5,0.3c-0.2,0.1-0.4,0.2-0.6,0.3c-0.2,0.1-0.4,0.2-0.5,0.3
		c-0.2,0.1-0.4,0.2-0.6,0.4c-0.2,0.1-0.4,0.2-0.5,0.3c-0.2,0.1-0.4,0.3-0.7,0.4c-0.2,0.1-0.4,0.2-0.6,0.4c-0.2,0.1-0.5,0.3-0.7,0.5
		c-0.1,0-0.1,0.1-0.2,0.1c-0.1,0.1-0.2,0.2-0.4,0.2c-0.2,0.2-0.5,0.3-0.7,0.5c-0.2,0.1-0.4,0.3-0.6,0.4c-0.2,0.2-0.5,0.4-0.8,0.6
		c-0.1,0.1-0.3,0.2-0.4,0.3c-0.1,0-0.1,0.1-0.1,0.1c-0.3,0.2-0.5,0.4-0.8,0.6c-0.2,0.2-0.4,0.3-0.6,0.5c-0.3,0.2-0.5,0.4-0.8,0.7
		c-0.1,0.1-0.3,0.2-0.4,0.3c-0.1,0.1-0.1,0.1-0.2,0.2c-0.3,0.2-0.6,0.5-0.9,0.7c-0.2,0.2-0.4,0.4-0.6,0.6c-0.3,0.3-0.6,0.5-0.9,0.8
		c-0.2,0.2-0.4,0.4-0.6,0.6c-0.3,0.3-0.6,0.6-0.9,0.9c-0.2,0.2-0.4,0.4-0.6,0.6c-0.3,0.3-0.7,0.6-1,0.9c-0.2,0.2-0.4,0.4-0.6,0.6
		c-0.4,0.4-0.7,0.7-1.1,1.1c-0.2,0.2-0.4,0.4-0.6,0.6c-0.4,0.4-0.8,0.8-1.1,1.2c-0.2,0.2-0.4,0.4-0.6,0.6c-0.4,0.4-0.8,0.8-1.2,1.3
		c-0.1,0.1-0.2,0.2-0.3,0.4c-0.7,0.8-1.4,1.6-2.2,2.4c-0.2,0.2-0.4,0.5-0.6,0.7c-0.3,0.4-0.6,0.7-0.9,1.1c-0.5,0.6-1,1.1-1.5,1.7
		c0,0-0.1,0.1-0.1,0.1c-0.1,0.1-0.1,0.1-0.2,0.2c-0.6,0.8-1.3,1.5-2,2.3c-1.3,1.5-2.8,3.4-3.8,4.6c-0.4,0.5-0.9,1-1.3,1.5
		c-0.1,0.2-0.3,0.3-0.4,0.5v0l0,0c-0.7,0.9-1.4,1.8-2.2,2.6c0,0-0.1,0.1-0.1,0.1c-3.4,4.1-6.6,8.1-9.6,12c-0.2,0.3-0.4,0.5-0.6,0.8
		c-0.4,0.5-0.8,1-1.2,1.6c-0.3,0.3-0.5,0.7-0.8,1c-0.4,0.5-0.7,1-1.1,1.5c-0.3,0.4-0.6,0.7-0.8,1.1c-0.4,0.5-0.7,1-1.1,1.4
		c-0.3,0.4-0.6,0.8-0.8,1.1c-0.3,0.5-0.7,0.9-1,1.4c-0.3,0.4-0.6,0.8-0.8,1.2c-0.3,0.5-0.6,0.9-0.9,1.4c-0.3,0.4-0.6,0.8-0.8,1.2
		c-0.3,0.5-0.6,0.9-0.9,1.4c-0.3,0.4-0.5,0.8-0.8,1.2c-0.3,0.5-0.6,0.9-0.9,1.3c-0.3,0.4-0.5,0.8-0.8,1.2c-0.3,0.4-0.6,0.9-0.8,1.3
		c-0.3,0.4-0.5,0.8-0.8,1.2c-0.3,0.4-0.5,0.9-0.8,1.3c-0.2,0.4-0.5,0.8-0.7,1.3s-0.5,0.9-0.7,1.3c-0.2,0.5-0.5,0.9-0.7,1.3
		c-0.2,0.4-0.4,0.8-0.7,1.2c-0.3,0.6-0.6,1.1-0.9,1.7c-0.3,0.5-0.6,1.1-0.8,1.6c-0.3,0.6-0.6,1.2-0.9,1.7c-0.2,0.4-0.4,0.8-0.5,1.1
		c-0.2,0.5-0.4,1-0.7,1.5c-0.2,0.4-0.3,0.8-0.5,1.2c-0.2,0.5-0.4,1-0.6,1.4c-0.2,0.4-0.3,0.8-0.5,1.2c-0.2,0.5-0.4,1-0.6,1.4
		c-0.2,0.4-0.3,0.8-0.4,1.2c-0.2,0.5-0.4,1-0.5,1.4c-0.1,0.4-0.3,0.8-0.4,1.2c-0.2,0.5-0.3,1-0.5,1.5c-0.1,0.4-0.3,0.8-0.4,1.3
		c-0.1,0.5-0.3,1-0.4,1.5c-0.1,0.4-0.2,0.8-0.3,1.3c-0.1,0.5-0.3,1-0.4,1.5c-0.1,0.4-0.2,0.8-0.3,1.3c-0.1,0.5-0.2,1-0.3,1.6
		c-0.1,0.4-0.2,0.8-0.2,1.3c-0.1,0.5-0.2,1.1-0.3,1.6c-0.1,0.4-0.1,0.8-0.2,1.2c-0.1,0.6-0.2,1.2-0.2,1.7c-0.1,0.4-0.1,0.8-0.2,1.2
		c-0.1,0.6-0.1,1.3-0.2,2c0,0.3-0.1,0.7-0.1,1c-0.1,1-0.2,2-0.2,3C161.4,345.8,161.4,346.6,161.4,347.5L161.4,347.5z"/>
	<path class="st13" d="M243,322.8c-0.6-1.4-6.9-16.7-22.2-20.2c-14.1-3.2-30,4.9-37.1,20.2C183.7,322.8,213.4,345,243,322.8z"/>
	<path class="st0" d="M183.7,322.8c0,0,4.7,3.5,12.2,6.4c0.2-7.2,0.9-14.9,2.4-22.6C192.2,310.1,187,315.6,183.7,322.8z"/>
	<path class="st9" d="M243,322.8c0,0-22.2-29.6-59.3,0c0.2,1.8,2.6,18.5,14.8,24.3C211.9,353.4,233.5,344.9,243,322.8z"/>
	<path class="st10" d="M183.7,322.8c0.2,1.7,2.3,16.2,12.4,22.9c-0.5-9.3-0.4-20.2,1-31.5C192.9,316.2,188.4,319,183.7,322.8z"/>
	<path class="st14" d="M243,322.8c0,0-22.2-29.6-59.3,0c2.2,4.9,5.1,7.7,7.4,9.5C202.9,341,223.8,337.3,243,322.8z"/>
	<path class="st15" d="M191.1,332.3c1.4,1.1,3,1.9,4.7,2.6c0-6.5,0.4-13.5,1.3-20.7c-4.2,2-8.7,4.8-13.4,8.6
		C185.9,327.7,188.8,330.5,191.1,332.3z"/>
	<path class="st0" d="M172.1,359.8c13.3,2.9,23.3,1.7,30.1,0c12.2-3.1,18.9-8.8,29.6-7.4c6.6,0.8,11.6,4.5,14.8,7.4
		c4.9-3.2,12.6-7.2,22.2-7.4c11-0.2,16.4,4.7,29.1,7.4c6.6,1.4,16.6,2.5,29.6,0c-1.6,1.9-41,47.3-96.3,37
		C197.4,390.6,177.6,367,172.1,359.8z"/>
	<path class="st16" d="M172.1,359.8c3.6,4.7,13.4,16.5,29.4,25.8c-1.5-6.7-2.4-12.4-2.9-16.4c-0.3-2.2-0.7-5.1-1.1-8.5
		C191,361.9,182.6,362.1,172.1,359.8z"/>
	<path class="st17" d="M172.1,359.8c13.3,2.9,23.3,1.7,30.1,0c12.2-3.1,18.9-8.8,29.6-7.4c6.6,0.8,11.6,4.5,14.8,7.4
		c4.9-3.2,12.6-7.2,22.2-7.4c11-0.2,16.4,4.7,29.1,7.4c6.6,1.4,16.6,2.5,29.6,0c-16,6.3-41.7,14.2-74.1,14.8
		C217.4,375.3,188.8,366.5,172.1,359.8z"/>
	<path class="st0" d="M172.1,359.8c6.9,2.7,15.7,5.8,26.3,8.5c-0.3-2-0.6-4.6-1-7.5C191,361.9,182.6,362.1,172.1,359.8z"/>
	<path class="st18" d="M249.9,178.9c1.1,0,2.2,0,3.2-0.1c0.2,0,0.4,0,0.6,0c1-0.1,2-0.1,3-0.2c0.3,0,0.5-0.1,0.8-0.1
		c1-0.1,1.9-0.2,2.9-0.4c0.3,0,0.5-0.1,0.8-0.1c0.7-0.1,1.5-0.2,2.2-0.4c0.4-0.1,0.7-0.1,1.1-0.2c0.8-0.2,1.6-0.4,2.4-0.5
		c0.5-0.1,1-0.2,1.4-0.4c0.4-0.1,0.9-0.2,1.3-0.4c0.8-0.2,1.7-0.5,2.5-0.8c0.3-0.1,0.5-0.2,0.8-0.3c3.1-1.1,6.1-2.3,9-3.8l0,0
		c-33.6,3.1-65.5-14.6-79.9-43.9c-10.9-22.3-10.3-48.6,1-70.8c-2.9,2.7-5.6,5.6-8.1,8.7c-6.6,10.1-10.6,18.3-12,23
		c-0.2,0.8-0.4,1.6-0.7,2.3c-0.8,3.2-1.4,6.2-1.7,8.6c-0.4,3.1-0.7,6.3-0.7,9.5c0,6.1,0.8,11.9,2.2,17.6c0.6,2.2,1.3,4.4,2.1,6.6
		C193.8,159.7,219.6,178.9,249.9,178.9z"/>
	<path class="st8" d="M209.2,146.2v-11.6c-0.7-1.6-2.9-5.8-7.4-7.4c-2.2-0.8-4.4-0.7-7.4,0c-3.9,0.8-10.1,2.7-17.3,7.4
		C181.8,136.7,186.9,138.9,209.2,146.2z"/>
	<path class="st2" d="M246.2,151.9v-17.3c-1.2-1.1-10-9.1-22.2-7.4c-7.9,1.1-13,5.6-14.8,7.4c0,3.9,0,7.8,0,11.6
		C220.8,149.3,233.2,151.3,246.2,151.9z"/>
	<path class="st19" d="M209.2,59.7c-2.5,0.2-4.9,0.5-7.4,0.8c-10.3,1.1-20.2,2.6-29.6,4.3v17.9c2.6,5.3,5.3,6.9,7.4,7.4
		c6.2,1.5,10.8-6,22.2-7.4c3.1-0.4,5.7-0.2,7.4,0C209.2,75,209.2,67.4,209.2,59.7z"/>
	<path class="st13" d="M257.8,322.8c4.8-12.1,16.6-20.2,29.6-20.2c13.1,0,24.9,8,29.6,20.2C317.1,322.8,287.5,345,257.8,322.8z"/>
	<path class="st9" d="M257.8,323.2c0,0,22.2-29.6,59.3,0c-0.3,1.9-2.8,18.2-14.8,23.9C288.9,353.4,267.5,345,257.8,323.2z"/>
	<path class="st20" d="M257.8,323.2c0,0,22.2-29.6,59.3,0c-2.3,4.6-5,7.3-7.4,9.1C297.7,341,277,337.3,257.8,323.2z"/>
	<path class="st21" d="M275,315.7l-1.3,0.6c-0.2,0.1-0.5,0-0.6-0.2l-5.4-11.9c-0.1-0.2,0-0.5,0.2-0.6l1.3-0.6c0.2-0.1,0.5,0,0.6,0.2
		l5.4,11.9C275.3,315.3,275.2,315.6,275,315.7z"/>
	<path class="st1" d="M287,312.4h-1.4c-0.3,0-0.5-0.2-0.5-0.5v-13.1c0-0.3,0.2-0.5,0.5-0.5h1.4c0.3,0,0.5,0.2,0.5,0.5v13.1
		C287.5,312.2,287.2,312.4,287,312.4z"/>
	<path class="st22" d="M301.3,314l-1.3-0.5c-0.2-0.1-0.4-0.4-0.2-0.6l5.2-12c0.1-0.2,0.4-0.4,0.6-0.2l1.3,0.5
		c0.2,0.1,0.4,0.4,0.2,0.6l-5.2,12C301.8,314,301.5,314.1,301.3,314z"/>
	<path class="st21" d="M223.3,316.8l1.3,0.6c0.2,0.1,0.5,0,0.6-0.2l5.4-11.9c0.1-0.2,0-0.5-0.2-0.6l-1.3-0.6c-0.2-0.1-0.5,0-0.6,0.2
		l-5.4,11.9C222.9,316.4,223.1,316.7,223.3,316.8z"/>
	<path class="st1" d="M211.3,313.5h1.4c0.3,0,0.5-0.2,0.5-0.5v-13.1c0-0.3-0.2-0.5-0.5-0.5h-1.4c-0.3,0-0.5,0.2-0.5,0.5V313
		C210.8,313.2,211.1,313.5,211.3,313.5z"/>
	<path class="st21" d="M197,315.1l1.3-0.5c0.2-0.1,0.4-0.4,0.2-0.6l-5.2-12c-0.1-0.2-0.4-0.4-0.6-0.2l-1.3,0.5
		c-0.2,0.1-0.4,0.4-0.2,0.6l5.2,12C196.5,315.1,196.8,315.2,197,315.1z"/>
	<path class="st21" d="M198.5,325.5l-1.3-0.6c-0.2-0.1-0.5,0-0.6,0.2l-5.4,11.9c-0.1,0.2,0,0.5,0.2,0.6l1.3,0.6
		c0.2,0.1,0.5,0,0.6-0.2l5.4-11.9C198.8,325.9,198.7,325.6,198.5,325.5z"/>
	<path class="st1" d="M210.5,328.8h-1.4c-0.3,0-0.5,0.2-0.5,0.5v13.1c0,0.3,0.2,0.5,0.5,0.5h1.4c0.3,0,0.5-0.2,0.5-0.5v-13.1
		C210.9,329,210.7,328.8,210.5,328.8z"/>
	<path class="st22" d="M224.8,327.2l-1.3,0.5c-0.2,0.1-0.4,0.4-0.2,0.6l5.2,12c0.1,0.2,0.4,0.4,0.6,0.2l1.3-0.5
		c0.2-0.1,0.4-0.4,0.2-0.6l-5.2-12C225.3,327.2,225.1,327.1,224.8,327.2z"/>
	<g>
		<path class="st21" d="M302.3,324.8l1.3-0.6c0.2-0.1,0.5,0,0.6,0.2l5.4,11.9c0.1,0.2,0,0.5-0.2,0.6l-1.3,0.6
			c-0.2,0.1-0.5,0-0.6-0.2l-5.4-11.9C302,325.2,302.1,324.9,302.3,324.8z"/>
		<path class="st1" d="M290.3,328.1h1.4c0.3,0,0.5,0.2,0.5,0.5v13.1c0,0.3-0.2,0.5-0.5,0.5h-1.4c-0.3,0-0.5-0.2-0.5-0.5v-13.1
			C289.9,328.4,290.1,328.1,290.3,328.1z"/>
		<path class="st22" d="M276,326.5l1.3,0.5c0.2,0.1,0.4,0.4,0.2,0.6l-5.2,12c-0.1,0.2-0.4,0.4-0.6,0.2l-1.3-0.5
			c-0.2-0.1-0.4-0.4-0.2-0.6l5.2-12C275.5,326.5,275.8,326.4,276,326.5z"/>
	</g>
	<path class="st1" d="M257.8,322.8c13-13.5,30.6-18.5,44.5-12.8c7.6,3.2,12.2,8.8,14.8,12.8C317.1,322.8,287.5,345,257.8,322.8z"/>
	<path class="st21" d="M257.8,323.2c0,0,22.2-29.6,59.3,0c-3.4,3.2-8.3,6.8-14.8,9.1C280.6,339.7,260.4,325.1,257.8,323.2z"/>
	<path class="st23" d="M257.8,322.8c0,0,22.2-29.6,59.3,0C317.1,322.8,287.5,345,257.8,322.8z"/>
	<path class="st4" d="M302.3,321.1c0-3.3-1.1-6.4-2.9-8.8c-8.7-3.3-16.2-3.2-22.3-1.7c-2.7,2.7-4.4,6.4-4.4,10.5
		c0,4.1,1.7,7.9,4.5,10.6c7.8,1.6,15.1,1,21.2-0.5C300.8,328.5,302.3,325,302.3,321.1z"/>
	<circle class="st5" cx="287.5" cy="321.1" r="11.1"/>
	<circle class="st23" cx="296.7" cy="316.1" r="3.7"/>
	<path class="st24" d="M243,322.8c0,0-22.2-29.6-59.3,0c3.3,3.3,8.2,7.1,14.8,9.5C220.3,339.9,240.8,324.5,243,322.8z"/>
	<path class="st25" d="M283.2,59.3c-11.8-1-24.2-1.5-37.1-1.4v24.8c9.4,8.9,21.3,11.8,29.6,7.4c1.8-1,4.9-3,7.4-7.4
		C283.2,74.9,283.2,67.1,283.2,59.3z"/>
	<path class="st2" d="M246.2,57.9c-11.9,0.1-24.3,0.6-37.1,1.8v23c1.8,1.8,6.9,6.3,14.8,7.4c12.3,1.7,21-6.3,22.2-7.4
		C246.2,74.4,246.2,66.2,246.2,57.9z"/>
	<path class="st25" d="M283.2,59.3v23.4c6.8,7,11.6,8,14.8,7.4c5.1-0.9,7.4-6,14.8-7.4c3-0.6,5.7-0.3,7.4,0c0-6.3,0-12.6,0-18.8
		C308.6,61.9,296.3,60.3,283.2,59.3z"/>
	<path class="st7" d="M135.1,73.2c-10.2,2.9-19.8,6-28.7,9.2c0.1,0.1,14.9,10.6,21.4,7.6c4.1-1.8,6.2-5.5,7.2-7.4
		C135.1,79.6,135.1,76.4,135.1,73.2z"/>
	<path class="st2" d="M320.3,63.8v18.8c8.4,7.9,12.6,8.4,14.8,7.4c3.8-1.7,5-7.7,7.4-7.4c1.9,0.2,1.8,3.9,4.2,5.1
		c2.9,1.3,7.2-1.9,10.6-5.1c0-3.7,0-7.4,0-11.1C346,68.8,333.6,66.1,320.3,63.8z"/>
	<path class="st2" d="M357.4,82.7c0.8,2.2,2.1,4.6,4.2,5.1c4.2,1,8.9-6.1,10.6-5.1c1.4,0.9-1.5,5.6,0,7.4c1.4,1.7,6.8,0.6,21.3-7.4
		c0,0,0.1-0.1,0.1-0.1s0.1-0.1,0.1-0.1c-10.4-3.6-22.6-7.4-36.3-10.8L357.4,82.7L357.4,82.7z"/>
	<path class="st8" d="M172.1,64.8c-13.2,2.4-25.5,5.3-37.1,8.4v9.4c9.4,8.9,21.3,11.8,29.6,7.4c1.8-1,4.9-3,7.4-7.4
		C172.1,76.7,172.1,70.8,172.1,64.8z"/>
	<path class="st9" d="M394.4,82.5c0,0-86.4-86.4-144-57.6c-57.6-28.8-144,57.6-144,57.6c26.1-9.2,58.5-17.9,96.1-22
		C285.2,51.3,353.2,68.3,394.4,82.5z"/>
	<path class="st26" d="M157.3,145c4.4,4.1,8.7,8,12.9,11.5c24.9,15.1,54.1,23.3,84.2,22.5c42.3-1.1,81.6-19.5,109.7-49.7
		c14.8-17.8,24.3-34.8,30.3-46.9c-10.8,13.4-47.9,55.6-110.4,66.9c-101.3,18.2-173.6-62.3-177.6-66.9
		C115.8,97.7,132.2,121.1,157.3,145z"/>
	<path class="st0" d="M137.8,110.6c-3.8-2.8-12-8.9-22.1-18.6c-5.3-5.1-8.5-8.6-9.2-9.5c9.5,15.2,25.8,38.7,50.9,62.5
		c4.4,4.1,8.7,8,12.9,11.5c0.7,0.4,1.5,0.9,2.2,1.3c0.1,0,0.1,0.1,0.2,0.1c0.7,0.4,1.4,0.8,2.1,1.2c0.1,0.1,0.2,0.1,0.3,0.2
		c0.7,0.4,1.4,0.8,2.1,1.1c0.1,0.1,0.3,0.1,0.4,0.2c0.7,0.4,1.3,0.7,2,1.1c0.1,0.1,0.3,0.1,0.4,0.2c0.7,0.3,1.3,0.7,2,1
		c0.2,0.1,0.3,0.2,0.5,0.2c0.7,0.3,1.3,0.6,2,1c0.2,0.1,0.3,0.2,0.5,0.2c0.7,0.3,1.3,0.6,2,0.9c0.2,0.1,0.3,0.1,0.5,0.2
		c0.7,0.3,1.4,0.6,2,0.9c0.2,0.1,0.3,0.1,0.5,0.2c0.7,0.3,1.4,0.6,2.1,0.9c0.1,0.1,0.3,0.1,0.5,0.2c0.7,0.3,1.4,0.6,2.1,0.9
		c0.1,0.1,0.2,0.1,0.4,0.1c0.7,0.3,1.5,0.6,2.2,0.9c0.1,0,0.1,0.1,0.2,0.1c4.1,1.5,8.4,2.9,12.6,4c0.1,0,0.2,0.1,0.3,0.1
		c0.7,0.2,1.3,0.4,2,0.5c0.3,0.1,0.5,0.1,0.8,0.2c0.6,0.1,1.2,0.3,1.8,0.4c0.3,0.1,0.6,0.2,1,0.2c0.6,0.1,1.1,0.2,1.7,0.4
		c0.4,0.1,0.7,0.2,1.1,0.2c0.5,0.1,1.1,0.2,1.6,0.3c0.4,0.1,0.8,0.2,1.2,0.2c0.5,0.1,1,0.2,1.6,0.3c0.4,0.1,0.8,0.1,1.3,0.2
		c0.5,0.1,1,0.2,1.5,0.2c0.4,0.1,0.9,0.1,1.3,0.2c0.5,0.1,1,0.1,1.5,0.2c0.4,0.1,0.9,0.1,1.4,0.2c0.5,0.1,1,0.1,1.5,0.2
		c0.5,0.1,0.9,0.1,1.4,0.2c0.5,0.1,0.9,0.1,1.4,0.2s1,0.1,1.4,0.1c0.5,0.1,0.9,0.1,1.4,0.1c0.5,0,1,0.1,1.5,0.1
		c0.5,0,0.9,0.1,1.4,0.1c0.5,0,1,0.1,1.5,0.1c0.4,0,0.9,0.1,1.3,0.1c0.5,0,1.1,0.1,1.6,0.1c0.4,0,0.9,0,1.3,0.1c0.6,0,1.1,0,1.7,0
		c0.4,0,0.8,0,1.2,0c0.6,0,1.3,0,1.9,0c0.3,0,0.7,0,1,0c1,0,1.9,0,2.9-0.1c0.1,0,0.1,0,0.1-0.1c0.3-0.9-49.9-8.1-85.6-39.4
		C157.5,129.7,153.6,122.6,137.8,110.6z"/>
	<path class="st17" d="M228.2,43.3c-46.5,0.2-74.6,11.8-81.5,14.8c-17.6,7.6-30.8,16.8-39.5,23.6c-0.5,0.5-0.8,0.8-0.8,0.8
		c26.1-9.2,58.5-17.9,96.2-22c80.9-8.9,147.7,7.1,189.2,21.1C365.1,69.7,299.2,43,228.2,43.3z"/>
	<path class="st1" d="M243,322.8c-13-13.5-30.6-18.5-44.5-12.8c-7.6,3.2-12.2,8.8-14.8,12.8C183.7,322.8,213.4,345,243,322.8z"/>
	<path class="st27" d="M183.7,322.8c0,0,4.7,3.5,12.2,6.4c0.2-6,0.7-12.3,1.7-18.7C190.6,313.6,186.2,319,183.7,322.8z"/>
	<path class="st23" d="M243,322.8c0,0-22.2-29.6-59.3,0C183.7,322.8,213.4,345,243,322.8z"/>
	<path class="st28" d="M195.9,329.1c0.2-4.8,0.5-9.9,1.2-15c-4.2,2-8.7,4.8-13.4,8.6C183.7,322.8,188.4,326.3,195.9,329.1z"/>
	<path class="st4" d="M198.5,321.1c0-3.3,1.1-6.4,2.9-8.8c8.7-3.3,16.2-3.2,22.3-1.7c2.7,2.7,4.4,6.4,4.4,10.5
		c0,4.1-1.7,7.9-4.4,10.6c-7.8,1.6-15.1,1-21.2-0.5C200,328.5,198.5,325,198.5,321.1z"/>
	<circle class="st5" cx="213.4" cy="321.1" r="11.1"/>
	<circle class="st23" cx="220.6" cy="316.1" r="3.7"/>
</g>
</svg>
