<?xml version="1.0" encoding="utf-8"?>
<!-- Generator: Adobe Illustrator 24.1.2, SVG Export Plug-In . SVG Version: 6.00 Build 0)  -->
<svg version="1.1" id="レイヤー_1" xmlns="http://www.w3.org/2000/svg" xmlns:xlink="http://www.w3.org/1999/xlink" x="0px"
	 y="0px" viewBox="0 0 500 500" style="enable-background:new 0 0 500 500;" xml:space="preserve">
<style type="text/css">
	.st0{fill:#B19582;}
	.st1{fill:#C3A48F;}
	.st2{fill:#CDAB96;}
	.st3{fill:#DEBAA2;}
	.st4{fill:#EDC6AC;}
	.st5{fill:#E3BEA6;}
	.st6{fill:#EBF6FC;}
	.st7{fill:#E5F4FC;}
	.st8{fill:#323333;}
	.st9{fill:#B67878;}
	.st10{fill:#E09391;}
	.st11{fill:#D19F8F;}
	.st12{fill:#BF9183;}
	.st13{fill:#ECB29F;}
	.st14{fill:#E3AC9A;}
	.st15{fill:#EAECEE;}
</style>
<g id="レイヤー_1_1_">
	<g>
		<path class="st0" d="M223.8,148.5c-20.8-6.6-41.6-13.2-62.4-19.8c-7.9,9.3-22,28.4-27,56.1c-2.4,13.5-2,25.4-1,34.4
			c-2.5,9.8-2,17.4-1.1,22.6c2.5,14.2,10.2,20.8,10.8,36.2c0.2,5.2-0.5,9.5-1.1,12.2c-3.2,5.5-8.4,14.1-15.9,23.9
			c-13.7,17.9-22.7,24.1-20.5,29.2c3.1,7.3,25.4,4,28,3.7c6.3-0.9,18.9-2.7,30.3-12.2c8.4-7,13-19.7,22.3-45.1
			c4.8-13,5.9-18.7,5.3-25.5c-1-10.5-5.9-18.4-9.2-22.9c7.5-4.8,20.2-14.2,29.9-30.6C228.1,183.9,225.1,156.9,223.8,148.5z"/>
		<path class="st1" d="M23.8,355.1c7.2,1.3,13.4,1,18.6,0c32.4-6.7,56.4-49.5,63.6-106c5.3-0.3,11.8-1.5,18.6-4.9
			c23.5-11.8,28.2-39.5,28.8-43.5c-0.6,1.8-3.7,9.7-12.4,14.1c-7.5,3.8-14.6,2.6-16.7,2.2c0,0-8.9,1.1-15.5,4.9
			c-26.2,14.9-18.8,52.5-46.2,94C49.6,335.3,34.1,347.8,23.8,355.1z"/>
		<path class="st2" d="M482.1,213.3c-1.2-8.4-29.3,0-53.3-19.5c-17.5-14.3-13.6-27.8-34.5-40.3c-6.3-3.8-6.1-2.2-29.3-13
			c-15-7-22.6-10.5-27.3-13.7c-16.7-11.2-17.8-19-31.4-25.5c-9.7-4.7-19.1-5.4-25.5-5.3c-20-0.6-43.7,0.1-70,3.5
			c-25.4,3.4-47.7,8.6-66.4,14.2c-0.1,16.7-0.2,33.5-0.2,50.2c10.5,4.3,39.3,14.4,75.1,6.5c31.2-6.9,51.3-23.8,59.7-31.8
			c8.7,8.8,22,20.2,40.5,29.9c21.9,11.5,41.9,15.8,55.3,17.6c1.9,6.2,7.3,20.7,21.5,32.5c5.5,4.6,21.2,16.2,42.9,15.6
			C460.9,233.5,483.2,220.9,482.1,213.3z"/>
		<path class="st2" d="M162.3,170.5c-12.4-12.4-24.7-24.9-37.1-37.3c-7,6.9-14.2,14.9-21.3,24.4c-14.6,19.4-24.1,38.7-30.4,55.3
			c0,0,0,0,0,0c-1.2,3-2.9,7.6-4.6,13.4c-1.4,4.5-6,20.3-8.9,45.5c-2,17.4-1.2,22.2-5.3,31.7c-2.9,6.7-6.5,11.7-9.1,14.8
			c-4.6,3.8-31.7,26.1-27.4,33.8c3.3,6,25.6,3.6,40.2-7.8c7.5-5.9,12.3-15.3,21.8-34.2c4.9-9.7,8.1-16,10.7-25.5
			c2.1-7.6,2.5-12.1,5.4-21.1c2.6-7.9,5.4-14.2,7.4-18.1c6.8-2.1,27.9-9.3,43.2-30.7C160.1,196.4,162,178.1,162.3,170.5z"/>
		<path class="st3" d="M412.1,351.5c-7.5-6.5-12.3-6.4-24-12c0,0-2.9-1.3-7-3.5c-3.7-2.1-9.2-5.2-13.7-9.8c-3.9-4-6-7.9-7.4-10.7
			c-14.1-28.2-21.9-63.9-45.2-81.7c-10.8-8.3-10.9-1.9-29.3-12.9c-21.5-12.9-35-29.9-43.1-40c-8-10-13.6-19.1-17.2-25.7
			c-4.5-7.1-23.7-35.2-58-41.2c-9.9-1.7-18.7-1.2-25.9,0c-3.1,1.7-14.3,8.2-16.1,19.1c-2.3,14.3,12.1,32.7,37.1,37.3
			c4.3,12.3,16.4,41.5,46.4,65.5c31.1,24.8,63.5,29.8,76.4,31.1c3.4,16.8,9.4,28.7,14.2,36.4c1.8,2.9,5.5,7.9,32,36.5
			c10.9,11.8,16.4,17.7,19,19.4c26.2,16.9,66.4,7.4,67.5-0.9C418.1,356.6,416.1,354.9,412.1,351.5z"/>
		<path class="st4" d="M271.4,386.8c-6.6-13.5-11.4-15.9-15.9-26.3c-2.6-5.9-5.3-14.9-4.9-27.4c-1.7-13.4-4.8-29.3-10.4-46.6
			c-3.9-12-8.4-22.6-12.8-31.8c-0.7-14.2-2.1-29.5-4.4-45.6c-4.1-28.7-10.3-54.2-17.1-76.1c-2.9-2.5-7.7-6.3-14.3-10.1
			c-7.6-4.3-28.7-16.3-47.2-9.2c-7,2.7-11.5,7.3-12,7.8c-4.2,4.4-6.2,9-7.2,11.8c1.2,23.8,7.2,68.3,39.2,107.1
			c6.8,8.2,13.8,15.1,20.8,21c1.6,5.4,4.3,13.8,7.8,24c6.1,17.9,7.6,20.4,11.5,32.9c2.3,7.4,4.3,15.3,8.4,31
			c6.5,25.2,5.8,24.6,7.5,28.3c1.4,3,10.4,21.7,31,31.4c2.7,1.2,21,9.6,26.2,3.5C281.7,407.6,276.2,396.5,271.4,386.8z"/>
		<path class="st3" d="M161.9,104.3c0,0,1.4,20.6-9,20.6c0,0,25.1,23.3,43,10.8c0,0-3.4-0.9-5.6-6.2c-1.5-3.6-1.3-22.3,1.1-32.4
			C181.7,99.5,171.8,101.9,161.9,104.3z"/>
		<path class="st5" d="M119,100.7c1,2,3.4,6.5,8.5,9.7c7.4,4.7,15.1,3.6,16.9,3.2c2.9,7.1,0.5,14.3-4.4,16.8
			c-4.3,2.2-9.1,0.1-9.8-0.3c0,0-7.6-16.1-21.1-16.1L119,100.7z"/>
		<path class="st6" d="M161.9,104.3c-0.9-10.6,7.1-18.9,15.2-18.8c6.1,0,12,4.7,14.3,11.6C191.5,97.1,186.1,116.8,161.9,104.3z"/>
		<path class="st7" d="M119,100.7c0,0,0.9,13.4-9.8,13.4C109.1,114.1,100.2,93.5,119,100.7z"/>
		<path class="st8" d="M107.1,107.2c0.8,0.5,1.8,0.8,2.8,0.8c3,0,5.5-2.5,5.5-5.5c0-1.1-0.3-2.2-0.9-3.1
			C107.4,98.1,106.5,102.8,107.1,107.2z"/>
		<path class="st8" d="M187.7,92.5c0-0.8-0.1-1.5-0.2-2.2c-2.8-3-6.6-4.8-10.3-4.9c-4.3,0-8.5,2.3-11.4,6c0,0.4-0.1,0.7-0.1,1.1
			c0,6.1,4.9,11,11,11S187.7,98.6,187.7,92.5z"/>
		<path class="st6" d="M185.1,91.1c0-1.2-0.2-2.3-0.7-3.3c-2.2-1.5-4.8-2.3-7.3-2.3c-3,0-6,1.1-8.5,3.1c-0.2,0.8-0.4,1.7-0.4,2.5
			c0,4.7,3.8,8.4,8.4,8.4S185.1,95.7,185.1,91.1z"/>
		<path class="st7" d="M107,104.2c0.5,0.4,1.2,0.6,1.9,0.6c1.8,0,3.3-1.5,3.3-3.3c0-0.9-0.3-1.7-0.9-2.2
			C108.3,99.6,107.2,101.7,107,104.2z"/>
		<path class="st9" d="M125.2,133.2c2.8,2.7,6.2,5.6,10.3,8.5c2.8,1.9,5.5,3.6,8,4.9c7.9,0.6,18.9,0.6,31.8-2.2
			c13.2-2.9,23.5-7.7,30.5-11.6c-9.3,9.9-18.4,15.9-24.6,19.5c-9.9,5.6-20.1,11.5-33.5,10.4c-5.4-0.4-15.2-1.3-20.6-9.2
			C121.5,145.2,124.7,134.9,125.2,133.2z"/>
		<path class="st10" d="M125.2,133.2c1.2,1.1,3,2.4,5.6,3.1c2.1,0.5,3.2,0.1,4.8,0.6c1.7,0.5,3.9,1.9,5.9,5.9
			c2.6-1,6.5-2.4,11.5-3.1c5.1-0.8,7.8-0.3,12.7-0.3c7,0.1,11.9-0.8,21.4-2.4c5.5-0.9,11.9-2.3,18.9-4.2
			c-19.9,11.1-37.1,14.9-48.1,16.3c-20.4,2.7-26.2-1.8-28.6-4.5C126.1,141.1,125.3,136.5,125.2,133.2z"/>
		<path class="st11" d="M54.6,335.1c-2.8-9.5-14.5-12.2-14.5-12.2c-9.2,7.7-25.2,22.4-21.8,29.3C43.3,350.6,54.6,335.1,54.6,335.1z"
			/>
		<path class="st12" d="M105.6,343.3c1.2,2.8,5.2,4,9.8,4.5l0,0c20.4-2.4,30.2-18.1,30.2-18.1c12.1-17.3-19.5-15.6-19.5-15.6
			C112.5,331.9,103.5,338.2,105.6,343.3z"/>
		<path class="st13" d="M271.4,386.8c-4.5-9.1-8.1-13.1-11.4-18l0,0c0,0-21.7,2.1-21.7,16.9c0,0,17.5,22.1,39.3,26.6
			C281.7,407.6,276.2,396.5,271.4,386.8z"/>
		<path class="st14" d="M381.2,335.9c0,0-12.3,8.3-6.3,20.5c0,0,23.8,11.4,37.3,7.4C412.2,363.8,491,342.6,381.2,335.9z"/>
		<path class="st11" d="M428.7,224c0,0,16,2.2,34,5.2c11.7-4.5,20.1-11.2,19.4-15.9c-1.2-8.4-29.3,0-53.3-19.5
			C428.7,193.8,408.7,214.9,428.7,224z"/>
		<path class="st8" d="M183.8,91.3c0-1.9-0.8-3.7-2-4.9c-1.5-0.6-3.1-0.9-4.6-0.9c-2.1,0-4.2,0.5-6.1,1.5c-0.9,1.2-1.5,2.7-1.5,4.3
			c0,3.9,3.2,7.1,7.1,7.1C180.6,98.5,183.8,95.3,183.8,91.3z"/>
		<path class="st8" d="M107.1,103.6c0.5,0.3,1,0.6,1.7,0.6c1.5,0,2.8-1.2,2.8-2.8c0-0.8-0.3-1.5-0.9-2.1
			C108.3,99.9,107.3,101.6,107.1,103.6z"/>
		<circle class="st15" cx="180.3" cy="90" r="3.6"/>
		<circle class="st15" cx="112.2" cy="101.4" r="2.3"/>
	</g>
</g>
</svg>
